<svg display="none" xmlns="http://www.w3.org/2000/svg">
	
	<symbol id="star" viewBox="0 0 19 19">
		<g>
			<path d="M18.8297 7.01158C18.7448 6.92321 18.6387 6.87903 18.5325 6.85694L12.6308 5.90693L9.95599 0.317395C9.8923 0.184837 9.78616 0.096462 9.65878 0.0522759C9.53141 0.00808985 9.3828 0.00809793 9.25543 0.074377C9.14928 0.118563 9.06437 0.20693 9.02191 0.317395L6.34705 5.90693L0.445374 6.85694C0.169396 6.90113 -0.0428941 7.18833 -0.000436012 7.47554C0.020793 7.58601 0.0632511 7.69647 0.148167 7.78484L4.39398 12.1814L3.41744 18.3674C3.37498 18.6767 3.56604 18.9639 3.84202 19.0081C3.94817 19.0302 4.07554 19.0081 4.18169 18.9418L9.48895 16.0697L14.7962 18.9418C14.8811 18.986 15.0085 19.0081 15.1146 19.0081C15.3906 18.9639 15.5817 18.743 15.5817 18.4558C15.5817 18.4337 15.5817 18.4116 15.5817 18.3895V18.3674L14.6052 12.1814L18.851 7.78484C19.042 7.56391 19.042 7.21042 18.8297 7.01158ZM13.6711 11.6069C13.5437 11.7395 13.5012 11.9162 13.5225 12.093L14.3716 17.4837L9.7437 14.9651C9.5951 14.8767 9.40403 14.8767 9.25543 14.9651L4.6275 17.4837L5.47666 12.093C5.49789 11.9162 5.45543 11.7395 5.32806 11.6069L1.6342 7.76275L6.77163 6.9453C6.94146 6.92321 7.09007 6.81275 7.15375 6.6581L9.48895 1.77554L11.8241 6.6581C11.9091 6.81275 12.0364 6.92321 12.2063 6.9453L17.3437 7.76275L13.6711 11.6069Z"/>
		</g>
	</symbol>

	<symbol id="paint" viewBox="0 0 19 19">
		<g clip-path="url(#clip0_90_7267)">
			<path d="M14.5488 3.30348C14.4652 3.49412 14.2561 3.60003 14.0471 3.55766C11.8524 2.79512 8.96792 3.15521 6.35516 4.51084C3.11533 6.1842 0.920612 9.10727 0.878808 11.7762C0.878808 11.8185 0.878808 11.8397 0.857906 11.8821C0.878808 12.3693 1.04602 12.5387 1.12963 12.6023C1.33865 12.7505 1.94481 12.7082 2.88541 12.0303C2.92721 12.0092 2.94811 11.988 3.01082 11.9668C3.74239 11.6279 4.57848 11.9456 4.93381 12.6446C5.28915 13.3648 5.03832 14.2332 4.32765 14.6357C3.99322 14.8687 3.86781 15.1229 3.95141 15.4406C4.03502 15.7795 4.28585 16.0337 4.62028 16.1184H4.64118H4.66209H4.70389C4.70389 16.1184 4.72479 16.1184 4.74569 16.1184C5.28915 16.2455 5.87441 16.3091 6.48057 16.3091C8.15274 16.3091 9.97122 15.8431 11.6852 14.9534C11.8942 14.8475 12.145 14.9111 12.2704 15.1229C12.375 15.3347 12.3123 15.5889 12.1032 15.716C12.1032 15.716 12.0823 15.716 12.0823 15.7372C10.3684 16.648 8.42446 17.1563 6.50147 17.1775C5.87441 17.1775 5.22644 17.114 4.59938 16.9869C3.97232 16.9233 3.34525 16.3514 3.17804 15.6524C3.01082 14.9958 3.24074 14.3815 3.826 13.9579L3.8469 13.9367L3.86781 13.9155C3.86781 13.9155 3.86781 13.8943 3.88871 13.8943H3.90961C3.90961 13.8943 3.93051 13.8943 3.93051 13.8732C4.24404 13.7037 4.36946 13.3224 4.20224 13.0047C4.11863 12.8564 3.99322 12.7293 3.826 12.687C3.7633 12.7082 3.67969 12.7082 3.61698 12.7082C3.51247 12.7082 3.42886 12.7293 3.32435 12.7717H3.30345C2.57188 13.2801 1.92391 13.5554 1.40136 13.5554C1.12963 13.5554 0.878808 13.4707 0.648885 13.3224C0.042724 12.8988 -0.166297 11.988 0.10543 10.7594V10.7383C0.60708 8.02701 2.86451 5.33693 5.95802 3.72712C8.7798 2.26558 11.9151 1.88431 14.3189 2.71039C14.5488 2.8163 14.6533 3.07048 14.5488 3.30348Z"/>
			<path d="M8.46609 11.7344C7.58821 11.7344 6.89844 12.4546 6.89844 13.323C6.89844 14.1915 7.60911 14.9116 8.46609 14.9116C8.71692 14.9116 8.96774 14.8481 9.17677 14.7422C9.69932 14.4668 10.0338 13.9161 10.0338 13.323C10.0338 12.4334 9.32308 11.7344 8.46609 11.7344ZM9.13496 13.5772C9.07225 13.7678 8.94684 13.9161 8.75872 14.0008C8.65421 14.0432 8.5497 14.0644 8.44519 14.0644C8.36158 14.0644 8.27798 14.0432 8.21527 14.022C8.02715 13.9585 7.88084 13.8314 7.79723 13.6407C7.63001 13.2806 7.77633 12.8358 8.13166 12.6664C8.23617 12.6028 8.34068 12.5816 8.46609 12.5816H8.5497C8.80053 12.6028 9.00955 12.7511 9.11406 12.9841C9.19767 13.1959 9.19767 13.3865 9.13496 13.5772Z"/>
			<path d="M12.7507 5.55023C12.688 5.59259 12.6044 5.61377 12.5417 5.61377H12.5208C12.3327 5.61377 12.1446 5.50786 12.061 5.33841C11.9355 5.08423 12.0401 4.7665 12.2909 4.61823C12.3745 4.57587 12.4581 4.55469 12.5208 4.55469C12.7089 4.55469 12.897 4.6606 12.9806 4.85123C13.1061 5.10541 13.0015 5.42314 12.7507 5.55023Z"/>
			<path d="M9.80346 5.61273C9.74075 5.65509 9.65714 5.67628 9.57353 5.67628C9.38542 5.67628 9.1973 5.57037 9.11369 5.40091C8.98828 5.14673 9.09279 4.82901 9.34361 4.68073C9.42722 4.63837 9.51083 4.61719 9.57353 4.61719C9.76165 4.61719 9.94977 4.7231 10.0334 4.89255C10.1588 5.16791 10.0543 5.48564 9.80346 5.61273Z"/>
			<path d="M7.12967 6.60946C7.08787 6.73655 6.98336 6.84246 6.85794 6.92718C6.79524 6.96955 6.71163 6.99073 6.62802 6.99073C6.50261 6.99073 6.35629 6.92718 6.25178 6.84246C6.14727 6.73655 6.10547 6.60946 6.10547 6.46119C6.10547 6.16464 6.33539 5.93164 6.62802 5.93164C6.81614 5.93164 7.00426 6.03755 7.08787 6.22819C7.15057 6.33409 7.17147 6.48237 7.12967 6.60946Z"/>
			<path d="M4.78729 8.9397C4.78729 9.13033 4.68278 9.32097 4.49466 9.4057C4.41105 9.44806 4.34835 9.46924 4.26474 9.46924C4.11843 9.46924 3.99301 9.4057 3.8885 9.32097C3.78399 9.21506 3.74219 9.08797 3.74219 8.9397C3.74219 8.79143 3.80489 8.66434 3.8885 8.55843C3.99301 8.45252 4.11843 8.41016 4.26474 8.41016C4.41105 8.41016 4.53647 8.4737 4.64098 8.55843C4.72459 8.66434 4.78729 8.81261 4.78729 8.9397Z"/>
			<path d="M18.2283 5.2107C18.8763 4.51171 19.1271 3.51617 18.9181 2.58417L18.3746 0.317726C18.3537 0.232999 18.291 0.148272 18.2283 0.0847269C18.1447 0.0423634 18.0611 0 17.9566 0C17.8312 0 17.7057 0.0635452 17.6221 0.169454L16.1799 1.9699C15.5946 2.75362 15.4274 3.77035 15.7409 4.68116V4.70234V4.72352L15.511 6.75697L15.4901 6.77815C14.3614 7.83724 13.6089 9.53177 13.4835 11.2899L12.961 18.2586C12.9401 18.4705 13.0864 18.6611 13.2954 18.7035L14.6122 19C14.6331 19 14.6749 19 14.6958 19C14.884 19 15.0512 18.8941 15.1139 18.7035L17.4967 12.1371C17.8521 11.1416 18.0193 10.1249 17.9566 9.06577C17.9148 8.47269 17.7894 7.85842 17.5803 7.28651V7.26533L17.7894 6.43924L18.2283 5.2107ZM16.7442 11.8618L14.4659 18.068L13.8807 17.9409V17.8986L14.3614 11.3322C14.445 9.91304 15.0094 8.5786 15.95 7.54069L15.9709 7.51951L16.8279 7.71015V7.73133C16.9951 8.19732 17.0787 8.66332 17.0996 9.1505C17.1832 10.0825 17.0578 10.9933 16.7442 11.8618ZM17.5594 4.65998C17.4967 4.70234 17.4549 4.76589 17.434 4.85061L16.9742 6.20624V6.24861L16.8279 6.82051L16.3889 6.7146L16.5979 4.70234C16.5979 4.61761 16.5979 4.53289 16.5561 4.44816V4.42698C16.3262 3.77035 16.4307 3.05017 16.8488 2.49944L17.7475 1.37681L18.082 2.77481C18.2283 3.4738 18.0402 4.1728 17.5594 4.65998Z"/>
		</g>
	</symbol>

	<symbol id="slimes" viewBox="0 0 19 19">
		<g clip-path="url(#clip0_252_6345)">
			<path d="M9.2759 3.52243C9.30992 3.27943 9.33665 3.03643 9.38039 2.79587C9.39983 2.7011 9.45086 2.60633 9.50432 2.52128C9.7133 2.20052 10.0802 2.16164 10.3524 2.4338C10.5662 2.64764 10.6707 2.91737 10.712 3.21139C10.7558 3.50785 10.7728 3.80674 10.8384 4.09591C10.9453 4.56732 11.3195 4.84677 11.7788 4.82004C12.0971 4.8006 12.345 4.63536 12.5539 4.4118C12.9233 4.01815 13.0521 3.51514 13.1663 3.00727C13.2635 2.58203 13.351 2.15435 13.4822 1.74126C13.6183 1.31358 13.8759 0.963663 14.2865 0.747395C14.809 0.472807 15.4165 0.720665 15.5793 1.26984C15.6449 1.49583 15.6157 1.71696 15.5525 1.93808C15.4286 2.3852 15.1637 2.75213 14.8989 3.11905C14.5319 3.62692 14.1602 4.13478 13.9245 4.72284C13.7349 5.19669 13.662 5.68997 13.7544 6.19541C13.8661 6.80776 14.2525 7.22329 14.7798 7.50516C15.188 7.72386 15.6206 7.89882 16.041 8.09808C16.544 8.33622 16.9838 8.64968 17.2341 9.17213C17.4528 9.62654 17.3702 10.1854 17.03 10.5086C16.7967 10.7297 16.5027 10.8026 16.1941 10.8172C15.8466 10.8342 15.4991 10.8294 15.1516 10.8464C14.8527 10.861 14.5635 10.9266 14.3375 11.1428C14.0265 11.4393 13.9852 11.8111 14.0727 12.2072C14.1747 12.6689 14.4372 13.0309 14.7968 13.3274C15.188 13.653 15.6011 13.9568 15.9681 14.3067C16.3471 14.6663 16.5294 15.128 16.4954 15.665C16.4662 16.1121 16.0896 16.4864 15.6424 16.5058C15.0495 16.5325 14.5903 16.2701 14.2403 15.8205C13.9925 15.5022 13.7811 15.1547 13.5527 14.8218C13.3656 14.5472 13.1784 14.2727 12.9087 14.071C12.7411 13.9446 12.5588 13.8571 12.3425 13.8547C11.9173 13.8523 11.6233 14.1949 11.7253 14.6104C11.7982 14.9117 11.927 15.1985 12.0072 15.4974C12.0509 15.6602 12.0874 15.8448 12.0582 16.0077C11.9805 16.4596 11.4775 16.6638 11.0741 16.4232C10.8675 16.3017 10.7047 16.134 10.593 15.9202C10.4131 15.5703 10.1337 15.3589 9.74003 15.3224C9.63068 15.3127 9.50918 15.32 9.40712 15.354C9.23945 15.4099 9.07421 15.4828 8.92113 15.5703C8.64411 15.7258 8.57364 15.9979 8.55177 16.292C8.53719 16.4937 8.5299 16.6953 8.50074 16.8946C8.46186 17.1595 8.29176 17.3466 8.04876 17.3879C7.79362 17.4316 7.58707 17.3344 7.43641 17.1279C7.2007 16.8023 7.16182 16.4305 7.17883 16.0417C7.19584 15.6359 7.25659 15.2252 7.09378 14.8315C7.01845 14.6493 6.91882 14.4865 6.75116 14.3723C6.51545 14.2143 6.22628 14.2216 6.02702 14.4257C5.8715 14.5837 5.75 14.7708 5.6115 14.9458C5.48028 15.1086 5.35878 15.2835 5.21055 15.4293C4.98213 15.6529 4.69539 15.6553 4.49614 15.4585C4.27987 15.2471 4.26772 14.9263 4.46941 14.6906C4.72941 14.3869 4.96026 14.0685 5.04531 13.6652C5.12307 13.2837 5.07933 12.9289 4.81689 12.6276C4.38679 12.1294 3.65536 12.1707 3.23741 12.7005C3.00899 12.9921 2.87291 13.3274 2.74898 13.67C2.62748 14.0054 2.50841 14.3431 2.28486 14.6274C2.08317 14.8826 1.8426 15.0745 1.49511 15.0916C0.972668 15.1159 0.678641 14.6687 0.74182 14.1998C0.80014 13.7648 1.04557 13.4513 1.39548 13.2229C1.90092 12.89 2.42337 12.579 2.94095 12.2606C3.17909 12.1148 3.42452 11.9788 3.65293 11.8208C3.93967 11.6215 4.10734 11.3445 4.11706 10.9849C4.12435 10.686 3.97369 10.477 3.73069 10.3312C3.42452 10.1466 3.09161 10.132 2.75627 10.2267C2.41365 10.3215 2.08074 10.4503 1.74054 10.5524C1.44165 10.6423 1.13548 10.6617 0.834159 10.5572C0.343304 10.3871 0.100306 9.83308 0.292274 9.32279C0.452653 8.89754 0.7807 8.63753 1.18165 8.46015C1.53156 8.30463 1.90821 8.24631 2.28486 8.19042C2.77814 8.11752 3.269 8.03976 3.70396 7.77489C4.12921 7.51488 4.38679 7.13095 4.41838 6.63766C4.44754 6.15896 4.41352 5.67782 4.41109 5.19669C4.40866 4.79817 4.42567 4.40208 4.60792 4.03759C5.00643 3.23326 6.01244 3.02914 6.71714 3.62206C6.97714 3.84076 7.20799 4.09105 7.45585 4.32675C7.70128 4.5576 7.98072 4.7277 8.31606 4.79574C8.81664 4.8978 9.23459 4.59891 9.28562 4.08619C9.30506 3.89665 9.30992 3.70711 9.32207 3.51757C9.30263 3.52729 9.28805 3.52486 9.2759 3.52243ZM10.9502 5.36678C10.9647 5.3765 10.9793 5.38622 10.9939 5.39594C11.0401 5.45183 11.0814 5.51015 11.13 5.56604C11.4119 5.87951 11.6306 6.227 11.7448 6.63766C11.8687 7.08478 11.7448 7.44198 11.3657 7.68984C11.3074 7.72629 11.2976 7.76031 11.3098 7.82835C11.3511 8.05191 11.3778 8.27547 11.3122 8.50146C11.3025 8.53304 11.3292 8.5865 11.3535 8.61323C11.5552 8.84408 11.7156 9.09923 11.8177 9.3884C11.9416 9.7456 12.0266 10.1052 11.9878 10.4916C11.9343 11.0213 11.6476 11.4612 11.458 11.9374C11.4459 11.9715 11.4216 12.0006 11.3973 12.0274C11.2588 12.1853 11.1203 12.3433 10.9769 12.4963C10.9283 12.5474 10.9113 12.5911 10.921 12.6664C10.9502 12.8608 10.9817 13.0601 10.9769 13.2545C10.9623 13.8158 10.4569 14.1827 9.99032 14.0807C9.87368 14.0564 9.7619 14.0151 9.63311 13.9762C9.63311 14.1876 9.63311 14.3942 9.63311 14.6031C9.6404 14.6056 9.64769 14.6104 9.65498 14.6129C9.66713 14.6153 9.67928 14.6153 9.69143 14.6177C10.3524 14.6566 10.8505 14.9579 11.181 15.5338C11.2175 15.5994 11.2685 15.6553 11.3147 15.7161C11.3219 15.7258 11.3268 15.7331 11.3341 15.7428C11.3317 15.7306 11.3292 15.7185 11.3268 15.7063C11.3001 15.6213 11.2782 15.5362 11.2442 15.4536C11.1081 15.1061 10.9793 14.7586 11.006 14.3747C11.0303 14.0029 11.1786 13.6919 11.4629 13.4586C11.9392 13.0674 12.6171 13.0504 13.1736 13.4003C13.4846 13.5947 13.7325 13.8547 13.939 14.1512C14.199 14.5229 14.442 14.9044 14.702 15.2762C14.8624 15.5071 15.0617 15.6942 15.3387 15.7768C15.4675 15.8157 15.6109 15.857 15.7202 15.7574C15.8368 15.6529 15.8053 15.5022 15.7785 15.3686C15.7032 14.9944 15.4432 14.7514 15.1662 14.5229C14.7944 14.2143 14.3983 13.9276 14.0557 13.585C13.5672 13.099 13.3194 12.4939 13.3364 11.7916C13.3534 11.1501 13.7568 10.5596 14.3473 10.3142C14.702 10.166 15.0738 10.1393 15.4505 10.1247C15.7372 10.115 16.024 10.115 16.3107 10.0931C16.5415 10.0761 16.6557 9.94729 16.6412 9.71644C16.6339 9.60466 16.5974 9.4856 16.544 9.38597C16.437 9.18428 16.2694 9.03119 16.0701 8.9267C15.7761 8.77361 15.4796 8.62538 15.1759 8.49417C14.6024 8.24388 14.0484 7.96443 13.6256 7.48329C13.2513 7.05805 13.0594 6.55747 13.0205 5.99615C12.9962 5.61707 13.0424 5.24528 13.125 4.87836C13.1274 4.86621 13.1274 4.85163 13.1298 4.83948C13.125 4.8492 13.1177 4.85892 13.1128 4.86621C13.0885 4.88808 13.0642 4.90995 13.0424 4.93182C12.4567 5.498 11.7909 5.70455 11.0109 5.3765C10.9939 5.36921 10.9793 5.35949 10.9623 5.3522C10.9502 5.34734 10.938 5.34491 10.9259 5.34005C10.9331 5.34977 10.9404 5.35706 10.9502 5.36678ZM7.5895 14.2192C7.52389 14.1317 7.52875 13.9835 7.35379 13.9592C7.43884 14.0612 7.50688 14.1463 7.57735 14.2289C7.87138 14.7222 7.95886 15.2592 7.90054 15.8254C7.94671 15.7306 7.98073 15.6359 8.02446 15.546C8.07063 15.4536 8.13138 15.3661 8.18241 15.2787C7.91269 14.9846 7.86409 14.8753 7.82278 14.4938C7.81792 14.4549 7.79362 14.4112 7.76689 14.382C7.711 14.3237 7.64782 14.2727 7.5895 14.2192ZM10.6877 5.18939C10.6974 5.19426 10.7072 5.20154 10.7169 5.20641C10.7169 5.20641 10.7217 5.20154 10.7242 5.19911C10.7144 5.19425 10.7047 5.18696 10.695 5.18211C10.6902 5.17239 10.6877 5.15781 10.6804 5.15052C10.3767 4.89051 10.2042 4.55274 10.1288 4.16637C10.0802 3.91366 10.0535 3.65608 10.0268 3.47869C10.0073 3.71197 10 4.02301 9.95387 4.32918C9.90527 4.64265 9.74489 4.90995 9.52619 5.1408C9.52376 5.14323 9.52376 5.14566 9.52133 5.14809C9.52133 5.14566 9.52376 5.1408 9.52376 5.13837C9.57965 5.13594 9.63554 5.13594 9.69143 5.13351C10.0243 5.10435 10.3597 5.07276 10.6877 5.18939ZM8.57121 5.54417C8.4084 5.52473 8.26017 5.51744 8.1168 5.48585C7.62595 5.38136 7.225 5.1165 6.87508 4.76658C6.6734 4.56246 6.47171 4.35591 6.25301 4.17123C5.84234 3.82861 5.29803 4.00843 5.17896 4.53087C5.12793 4.752 5.12793 4.98771 5.1255 5.21613C5.11821 5.71184 5.15709 6.21242 5.11821 6.7057C5.06718 7.33993 4.78287 7.87209 4.258 8.25846C3.74527 8.63996 3.1475 8.77847 2.53271 8.88053C2.19009 8.93642 1.84989 9.00932 1.51698 9.09437C1.30072 9.15026 1.12576 9.28634 0.999398 9.47588C0.931358 9.58037 0.907059 9.69458 0.962948 9.80878C1.01641 9.9157 1.12576 9.92785 1.22539 9.91813C1.37604 9.90355 1.52913 9.87925 1.67493 9.83551C1.93494 9.75775 2.18523 9.65326 2.44523 9.57551C3.12563 9.37139 3.76957 9.42971 4.32847 9.90355C4.69539 10.2146 4.86792 10.6277 4.81203 11.1113C4.79016 11.3057 4.73427 11.4952 4.69053 11.6896C5.54103 12.0954 5.86907 12.7952 5.7573 13.7453C6.10235 13.5485 6.4547 13.5242 6.84593 13.6238C6.69041 13.3663 6.66611 13.1233 6.70742 12.8657C6.72929 12.7199 6.73172 12.5692 6.75602 12.4234C6.78275 12.2655 6.79733 12.0954 6.87022 11.9593C6.96013 11.7892 7.01845 11.6264 6.99901 11.4344C6.99901 11.4296 7.00873 11.4247 7.02331 11.4126C7.13752 11.5729 7.25416 11.5171 7.36837 11.4077C7.39024 11.3858 7.42183 11.3713 7.45099 11.3567C7.82278 11.1356 8.19456 10.9169 8.58336 10.686C8.40354 10.618 8.24559 10.5621 8.08521 10.5013C8.05362 10.5499 8.02689 10.5961 7.99773 10.6398C7.77661 10.9606 7.40482 11.1283 7.07677 11.0529C6.72443 10.9727 6.48386 10.6884 6.41096 10.2875C6.34778 9.92542 6.42068 9.59009 6.58349 9.2669C6.66368 9.10409 6.65153 8.951 6.5519 8.80034C6.40124 8.56949 6.33563 8.31921 6.38423 8.03976C6.42554 7.80405 6.54218 7.60965 6.6734 7.42011C6.74144 7.32049 6.80462 7.216 6.85321 7.10665C7.02088 6.74458 7.23472 6.42139 7.57492 6.19784C7.71586 6.1055 7.85437 6.00587 7.99773 5.9111C8.18484 5.79203 8.37438 5.67296 8.57121 5.54417ZM8.6514 8.33622C8.68785 8.23173 8.73402 8.13453 8.75103 8.03247C8.76804 7.92555 8.82636 7.85994 8.90169 7.79676C8.93571 7.77003 8.96487 7.73358 9.00375 7.71171C9.14711 7.63152 9.28805 7.54647 9.43628 7.47844C9.54077 7.42984 9.65741 7.4031 9.76919 7.37152C9.91985 7.33021 10.0705 7.27675 10.2236 7.25488C10.3913 7.22815 10.4739 7.33507 10.4301 7.5003C10.3767 7.70199 10.3159 7.90368 10.26 8.1078C10.2357 8.19771 10.2479 8.28519 10.3378 8.3265C10.4058 8.35809 10.5128 8.3994 10.5541 8.37024C10.6075 8.33379 10.6173 8.2293 10.6391 8.15154C10.6464 8.12724 10.6294 8.09565 10.627 8.06892C10.6075 7.8405 10.5832 7.61208 10.5687 7.38124C10.5614 7.27432 10.6002 7.19413 10.7266 7.18198C10.7849 7.17712 10.8457 7.15525 10.9016 7.13095C11.0814 7.05805 11.1105 6.99001 11.0546 6.80047C10.9477 6.43111 10.7169 6.14195 10.4472 5.87951C10.4156 5.84792 10.3621 5.82119 10.3184 5.81876C9.91256 5.80175 9.50675 5.80418 9.14468 6.03017C8.76804 6.26588 8.39382 6.50887 8.0196 6.74701C7.83736 6.86122 7.69399 7.01188 7.59679 7.20385C7.468 7.46142 7.36108 7.72872 7.16911 7.94742C7.14238 7.97658 7.1278 8.01789 7.11322 8.05434C7.04275 8.21229 7.06705 8.3265 7.18369 8.45286C7.22257 8.4966 7.27117 8.54763 7.28089 8.60108C7.34893 8.95586 7.41454 9.31307 7.18855 9.64112C7.16425 9.67757 7.15453 9.72373 7.13995 9.76504C7.08649 9.91813 7.07434 10.0737 7.12051 10.2292C7.16425 10.3774 7.26388 10.4017 7.3708 10.2899C7.45828 10.1976 7.49716 10.0834 7.48744 9.95701C7.47529 9.77962 7.45828 9.60223 7.45099 9.42485C7.44613 9.33494 7.46071 9.24503 7.46557 9.15512C7.48258 9.14783 7.49716 9.14054 7.51417 9.13082C7.53604 9.16484 7.55305 9.20372 7.58221 9.23045C7.70614 9.35195 7.82764 9.47831 7.96372 9.58523C8.22615 9.7942 8.51775 9.95215 8.85309 10.008C9.05478 10.0421 9.26132 10.0542 9.46787 10.0688C9.64283 10.0809 9.76676 10.1514 9.82994 10.3215C9.89312 10.4916 9.83966 10.6253 9.70844 10.7297C9.49703 10.8974 9.28319 11.0651 9.06207 11.2206C8.87496 11.3494 8.6757 11.4587 8.4813 11.5754C8.21157 11.7382 7.93699 11.8961 7.67455 12.0687C7.53604 12.161 7.4194 12.3019 7.46557 12.4769C7.50931 12.6446 7.45828 12.7831 7.42426 12.9337C7.40968 12.9969 7.40968 13.0625 7.40482 13.1257C7.39996 13.2132 7.45342 13.2618 7.53361 13.2764C7.62109 13.2934 7.65997 13.2326 7.67941 13.1622C7.70128 13.0771 7.71343 12.9896 7.73044 12.8973C7.91269 13.0164 8.08764 13.133 8.26746 13.2521C8.25531 13.2812 8.2383 13.3128 8.22858 13.3468C8.19699 13.4586 8.16054 13.5704 8.13867 13.6846C8.12409 13.7648 8.16054 13.8255 8.25045 13.8425C8.35008 13.862 8.38167 13.7939 8.40111 13.721C8.41812 13.6603 8.42541 13.5947 8.42784 13.5291C8.43027 13.4343 8.42055 13.3395 8.41569 13.2351C8.52747 13.2253 8.63196 13.2156 8.7486 13.2059C8.69028 13.5169 8.63196 13.8012 8.58822 14.088C8.56149 14.2581 8.55177 14.4306 8.55663 14.6007C8.55906 14.71 8.65869 14.7514 8.75832 14.7562C8.85552 14.7611 8.88468 14.6882 8.89683 14.6056C8.90169 14.5667 8.91384 14.5254 8.91384 14.4865C8.92356 14.0855 8.93814 13.6846 8.93571 13.2861C8.93571 13.15 8.98188 13.0747 9.09122 13.0042C9.36338 12.8317 9.65741 12.6907 9.87368 12.438C9.92957 12.3748 10.017 12.3384 10.1167 12.2704C10.0948 12.3627 10.0827 12.4259 10.0656 12.4866C10.0098 12.6859 9.95144 12.8827 9.89555 13.0795C9.86396 13.1889 9.88583 13.2885 9.99275 13.3395C10.0511 13.3687 10.141 13.3906 10.192 13.3663C10.2965 13.3177 10.2795 13.2059 10.2698 13.1087C10.2698 13.0965 10.2625 13.0844 10.26 13.0747C10.2406 12.8463 10.2187 12.6178 10.2017 12.387C10.1944 12.2776 10.2455 12.1999 10.3281 12.127C10.4715 11.9982 10.6367 11.8743 10.7339 11.7139C10.9064 11.4296 11.0425 11.1234 11.1786 10.8197C11.3438 10.4479 11.3001 10.0688 11.1713 9.697C11.0376 9.31307 10.8287 8.98502 10.4229 8.84165C10.0341 8.70557 9.63311 8.60837 9.22244 8.56463C9.01347 8.54033 8.81178 8.48445 8.6514 8.33622ZM13.8175 3.37177C13.8273 3.3742 13.837 3.37663 13.8467 3.37906C13.8588 3.36448 13.8734 3.35233 13.8856 3.33532C14.1067 3.02185 14.3327 2.71082 14.549 2.39492C14.7069 2.16407 14.8454 1.9235 14.8989 1.64406C14.9183 1.53714 14.9305 1.43751 14.8308 1.3719C14.7263 1.30386 14.6291 1.35975 14.5417 1.4205C14.357 1.54686 14.2379 1.72668 14.1699 1.93079C14.0824 2.19809 14.0119 2.47268 13.9463 2.74484C13.8953 2.95381 13.8588 3.16522 13.8175 3.37177ZM1.9641 13.704C1.66521 13.8571 1.37847 14.1487 1.4538 14.3869C1.64091 14.3796 1.91064 14.0199 1.9641 13.704ZM13.8127 3.43252L13.8175 3.42523H13.8102L13.8127 3.43252Z"/>
			<path d="M3.20792 6.88795C2.98436 6.83935 2.7608 6.79076 2.53724 6.74215C2.00508 6.62795 1.47291 6.51617 0.940748 6.39953C0.69532 6.34607 0.452322 6.28532 0.262784 6.10064C0.048946 5.88923 -0.060403 5.64137 0.0343661 5.34491C0.136425 5.03144 0.376993 4.86134 0.69046 4.80059C1.00636 4.73741 1.30038 4.83947 1.58469 4.95611C2.30397 5.25014 2.94548 5.66324 3.47036 6.24401C3.53596 6.31691 3.59671 6.40439 3.63073 6.49673C3.69634 6.66682 3.6283 6.79076 3.45092 6.83935C3.37316 6.86122 3.29297 6.86122 3.21278 6.87337C3.21278 6.8758 3.21035 6.88309 3.20792 6.88795ZM2.7365 6.26102C2.74379 6.26345 2.75108 6.26345 2.75837 6.26588C2.75351 6.26102 2.74865 6.25616 2.74379 6.25373C2.6879 6.2027 2.63201 6.14924 2.57369 6.10307C2.11686 5.75558 1.62357 5.47856 1.06954 5.32061C0.909158 5.27444 0.75121 5.26715 0.607841 5.37893C0.503352 5.45912 0.483912 5.55146 0.551952 5.66324C0.629711 5.79446 0.76336 5.8382 0.897008 5.86493C1.26394 5.94512 1.63086 6.01073 1.99779 6.08606C2.24565 6.13952 2.49107 6.2027 2.7365 6.26102Z"/>
			<path d="M14.982 18.1269C14.9723 18.3188 14.9261 18.4914 14.7998 18.6347C14.5665 18.8996 14.2166 18.9142 13.9201 18.6809C13.5775 18.4136 13.3855 18.0467 13.2422 17.6506C13.145 17.3784 13.0696 17.0966 12.9846 16.8171C12.8728 16.4623 12.7562 16.11 12.6517 15.7552C12.6201 15.6483 12.6152 15.5317 12.6152 15.4199C12.6152 15.2595 12.7319 15.172 12.8752 15.2401C13.0186 15.3081 13.1571 15.4004 13.2738 15.5098C13.8011 16.0079 14.2069 16.6057 14.5908 17.2156C14.7147 17.4125 14.8217 17.6239 14.9213 17.8353C14.9577 17.9227 14.9602 18.0272 14.982 18.1269ZM13.439 16.4453C13.4293 16.4502 13.4196 16.4551 13.4098 16.4599C13.5411 16.9216 13.6431 17.3906 13.8642 17.8231C13.9614 18.0127 14.0805 18.1852 14.2652 18.3018C14.3721 18.3699 14.4547 18.3334 14.4547 18.2046C14.4547 18.1001 14.4426 17.9786 14.3915 17.8912C14.2044 17.5655 14.0003 17.2472 13.7962 16.9338C13.6844 16.7637 13.5581 16.6057 13.439 16.4453Z"/>
			<path d="M2.65727 18.9907C2.1251 19.0514 1.89183 18.5508 1.95015 18.1037C2.0109 17.6566 2.22716 17.2897 2.50904 16.9519C2.8298 16.568 3.18943 16.2254 3.63898 15.9945C3.71674 15.9532 3.79692 15.9119 3.88197 15.8852C4.10796 15.8147 4.25133 15.9168 4.27563 16.1549C4.2975 16.3809 4.26105 16.602 4.17114 16.8061C3.98403 17.2265 3.78477 17.642 3.58552 18.0576C3.49075 18.2544 3.37897 18.4415 3.27205 18.6335C3.25018 18.6723 3.22345 18.7088 3.19429 18.7404C3.04606 18.9081 2.88326 19.0417 2.65727 18.9907ZM3.73132 16.5656C3.71674 16.5583 3.70459 16.5486 3.69001 16.5413C3.17242 16.9301 2.70101 17.3626 2.49203 18.0065C2.45315 18.1232 2.46044 18.2617 2.47745 18.3856C2.49689 18.5265 2.64998 18.5679 2.74961 18.4658C2.82008 18.3905 2.89055 18.3079 2.93914 18.2155C3.12625 17.8583 3.31093 17.4987 3.48832 17.1366C3.5758 16.9495 3.6487 16.7551 3.73132 16.5656Z"/>
			<path d="M8.21501 2.33271C8.20529 2.41047 8.20043 2.50766 8.18342 2.60243C8.11053 3.03983 7.8165 3.20507 7.39369 3.05441C7.08751 2.94506 6.86153 2.73122 6.67685 2.47607C6.30263 1.96335 6.07665 1.39474 6.07422 0.755654C6.07422 0.493217 6.14226 0.24779 6.39011 0.0971314C6.5918 -0.0243672 6.8105 -0.0146473 7.02433 0.043672C7.33537 0.131151 7.59051 0.306109 7.74603 0.597706C8.03034 1.1323 8.18342 1.70577 8.21501 2.33271ZM7.69986 2.30598C7.67313 1.79568 7.54677 1.31212 7.31107 0.857713C7.23088 0.702195 7.09723 0.607426 6.93685 0.546676C6.68414 0.451907 6.57479 0.524807 6.58208 0.794534C6.59423 1.25137 6.75218 1.66203 6.99517 2.04354C7.11667 2.23551 7.25518 2.41533 7.4593 2.52953C7.65369 2.63888 7.69743 2.61215 7.69986 2.39346C7.69986 2.36187 7.69986 2.33271 7.69986 2.30598Z"/>
			<path d="M15.4277 7.02766C15.333 6.99607 15.1847 6.97906 15.0754 6.90616C14.8858 6.77737 14.915 6.56354 14.9563 6.374C15.0292 6.02895 15.2115 5.73249 15.4447 5.47978C15.6221 5.28781 15.8214 5.11043 16.0377 4.96706C16.4143 4.71677 16.9076 4.75808 17.2648 5.03024C17.7289 5.38744 17.7046 6.09699 17.2113 6.49064C16.893 6.74578 16.5188 6.86728 16.1227 6.93289C15.9089 6.96934 15.6926 6.99364 15.4277 7.02766ZM15.4399 6.49793C15.5055 6.49793 15.5492 6.50279 15.5905 6.49793C15.836 6.45662 16.0863 6.42746 16.3268 6.36914C16.5577 6.31082 16.7812 6.22091 16.9489 6.03624C17.0437 5.93175 17.1093 5.81025 17.085 5.66203C17.0485 5.43604 16.7545 5.26351 16.4993 5.31697C16.2758 5.36557 16.1106 5.50651 15.955 5.66203C15.7266 5.8953 15.5468 6.15774 15.4399 6.49793Z"/>
			<path d="M16.3323 11.4355C16.4635 11.472 16.5972 11.5036 16.7259 11.5449C17.246 11.715 17.7684 11.8875 18.286 12.0649C18.4269 12.1135 18.5679 12.167 18.6942 12.2447C18.8984 12.3711 18.964 12.6238 18.8789 12.8668C18.7987 13.0904 18.5752 13.2532 18.3468 13.2265C18.2423 13.2143 18.1305 13.1779 18.0406 13.122C17.5133 12.7915 16.9787 12.478 16.4173 12.2034C16.2886 12.1402 16.1768 12.0285 16.0771 11.9215C15.9897 11.8268 15.9824 11.7004 16.0456 11.5813C16.1063 11.4647 16.2132 11.4501 16.3323 11.4355ZM18.1281 12.5412C18.1232 12.5533 18.1208 12.5631 18.1159 12.5752C18.1912 12.619 18.2666 12.6651 18.3443 12.7064C18.3565 12.7137 18.3832 12.6967 18.4026 12.6894C18.3954 12.6724 18.3929 12.6457 18.3832 12.6408C18.2982 12.6044 18.2131 12.5728 18.1281 12.5412Z"/>
			<path d="M11.204 2.04055C11.204 1.9798 11.1967 1.91905 11.2065 1.8583C11.2624 1.50595 11.4738 1.35044 11.831 1.39661C11.9865 1.41848 12.1153 1.50595 12.1615 1.64932C12.2222 1.83886 12.2854 2.04055 12.2757 2.23495C12.2635 2.54598 12.2028 2.85702 12.142 3.16562C12.1153 3.30413 12.0497 3.44264 11.9792 3.56657C11.848 3.79985 11.5953 3.80957 11.4762 3.57143C11.3814 3.37946 11.3182 3.16562 11.2818 2.95422C11.2308 2.6529 11.2186 2.34429 11.1895 2.04055C11.1943 2.04055 11.1992 2.04055 11.204 2.04055Z"/>
			<path d="M1.28051 11.3349C1.34612 11.3349 1.4093 11.33 1.47491 11.3349C1.71062 11.3616 1.82483 11.5779 1.69361 11.7772C1.63772 11.8646 1.55024 11.9448 1.4579 11.991C1.1663 12.1344 0.857696 12.1587 0.541799 12.0809C0.515069 12.0736 0.488339 12.0639 0.46404 12.0493C0.255061 11.9448 0.228332 11.7431 0.41058 11.5949C0.570959 11.4661 0.758067 11.3908 0.959755 11.3568C1.06667 11.3398 1.17602 11.3325 1.28294 11.3203C1.28051 11.3276 1.28051 11.33 1.28051 11.3349Z"/>
			<path d="M9.28516 17.2753C9.30946 17.1173 9.31918 16.9545 9.36048 16.799C9.40908 16.6143 9.53544 16.5779 9.67638 16.7091C9.98255 16.9958 10.1162 17.3628 10.1016 17.7759C10.0919 18.0067 9.82946 18.1233 9.60105 18.0067C9.38964 17.8974 9.32889 17.6981 9.3046 17.4818C9.29731 17.4138 9.3046 17.3457 9.3046 17.2753C9.29731 17.2777 9.29245 17.2753 9.28516 17.2753Z"/>
			<path d="M17.662 3.88079C17.4797 3.85163 17.3145 3.83462 17.1541 3.79817C17.0156 3.76658 16.9937 3.6791 17.0909 3.57947C17.3607 3.30731 17.6814 3.16394 18.0702 3.19067C18.2938 3.20525 18.459 3.39722 18.3861 3.57704C18.3545 3.6548 18.2671 3.73985 18.1869 3.76658C18.0143 3.82733 17.8272 3.84677 17.662 3.88079Z"/>
			<path d="M6.67753 16.4824C6.67753 16.7278 6.488 16.9246 6.25472 16.9222C6.01416 16.9198 5.80032 16.7132 5.80275 16.4921C5.80518 16.271 6.04575 16.0547 6.28631 16.0547C6.50015 16.0547 6.67996 16.2515 6.67753 16.4824Z"/>
			<path d="M15.2698 12.2853C15.2747 12.4797 15.1021 12.6595 14.9029 12.6668C14.6672 12.6741 14.4436 12.4408 14.4339 12.171C14.4266 11.9766 14.5602 11.8235 14.7401 11.8187C15.0268 11.809 15.2625 12.0179 15.2698 12.2853Z"/>
			<path d="M9.52199 5.13672C9.52199 5.13915 9.51953 5.14401 9.51953 5.14644C9.52199 5.14401 9.52199 5.14158 9.52199 5.13672C9.52445 5.13672 9.52199 5.13672 9.52199 5.13672Z"/>
			<path d="M13.8135 3.42964L13.8086 3.41992H13.8159L13.8135 3.42964Z"/>
			<path d="M2.74752 6.25195C2.75238 6.25681 2.75724 6.26167 2.7621 6.2641C2.75481 6.26167 2.74752 6.26167 2.74023 6.25924C2.74023 6.25924 2.74509 6.25438 2.74752 6.25195Z"/>
		</g>
	</symbol>

	<symbol id="bubbles" viewBox="0 0 19 19">
		<g>
			<path d="M15.812 12.7083C15.812 11.2159 15.2701 9.76957 14.283 8.66508C15.8895 7.38964 16.283 5.07546 15.1991 3.32009C14.1153 1.56473 11.8959 0.927012 10.0766 1.854C8.25076 2.78099 7.4056 4.95712 8.12818 6.90314C7.86366 6.98203 7.6056 7.08722 7.35398 7.20556C6.59269 6.02217 5.15398 5.49622 3.82495 5.91698C2.50237 6.33774 1.6056 7.60002 1.6314 9.01352C1.65721 10.427 2.59914 11.6564 3.94108 12.018C3.68947 14.2533 4.67011 16.4492 6.49592 17.718C8.32172 18.9869 10.683 19.1249 12.6379 18.073C14.5927 17.0277 15.812 14.9568 15.812 12.7083ZM11.8379 2.01836C13.3024 2.01836 14.5991 2.97165 15.0637 4.38514C15.5282 5.79864 15.0508 7.35677 13.8766 8.25089C12.7798 7.21871 11.3411 6.64016 9.85076 6.64016C9.45721 6.64016 9.06366 6.67961 8.67656 6.7585C8.25721 5.69345 8.38624 4.48376 9.0185 3.53047C9.65721 2.58376 10.7153 2.01836 11.8379 2.01836ZM2.19914 8.95435C2.19914 7.52113 3.34108 6.35746 4.74753 6.35746C6.15398 6.35746 7.29592 7.52113 7.29592 8.95435C7.29592 10.3876 6.15398 11.5512 4.74753 11.5512C3.34753 11.5512 2.2056 10.3876 2.19914 8.95435ZM4.47011 12.7083C4.47011 12.5111 4.48302 12.3139 4.50237 12.1166C4.58624 12.1232 4.66366 12.1298 4.74753 12.1298C5.79269 12.1298 6.76689 11.5973 7.34753 10.7097C7.92818 9.82217 8.02495 8.69795 7.6185 7.71836C7.92173 7.57373 8.24431 7.46196 8.57334 7.38307C8.99269 7.27788 9.42495 7.22528 9.85076 7.22528C12.825 7.22528 15.2379 9.68411 15.2379 12.7149C15.2379 15.7457 12.825 18.2045 9.85076 18.2045C6.88302 18.1979 4.47011 15.7391 4.47011 12.7083Z"/>
			<path d="M6.67007 4.23369C6.82491 4.23369 6.95394 4.1022 6.95394 3.94441C6.95394 3.78663 6.82491 3.65514 6.67007 3.65514C6.1991 3.65514 5.81846 3.26725 5.81846 2.78732C5.81846 2.62953 5.68943 2.49805 5.53459 2.49805C5.37975 2.49805 5.25072 2.62953 5.25072 2.78732C5.25072 3.26725 4.87007 3.65514 4.39911 3.65514C4.24427 3.65514 4.11523 3.78663 4.11523 3.94441C4.11523 4.1022 4.24427 4.23369 4.39911 4.23369C4.87007 4.23369 5.25072 4.62158 5.25072 5.10151C5.25072 5.25929 5.37975 5.39078 5.53459 5.39078C5.68943 5.39078 5.81846 5.25929 5.81846 5.10151C5.81846 4.62158 6.1991 4.23369 6.67007 4.23369ZM5.24427 3.94441C5.35394 3.85895 5.45717 3.76033 5.53459 3.64857C5.61846 3.76033 5.71523 3.86552 5.82491 3.94441C5.71523 4.02988 5.61201 4.1285 5.53459 4.24026C5.45717 4.1285 5.35394 4.02988 5.24427 3.94441Z"/>
			<path d="M16.0944 15.6005C15.9396 15.6005 15.8105 15.7319 15.8105 15.8897C15.8105 16.0475 15.9396 16.179 16.0944 16.179C16.5654 16.179 16.946 16.5669 16.946 17.0468C16.946 17.2046 17.0751 17.3361 17.2299 17.3361C17.3847 17.3361 17.5138 17.2046 17.5138 17.0468C17.5138 16.5669 17.8944 16.179 18.3654 16.179C18.5202 16.179 18.6493 16.0475 18.6493 15.8897C18.6493 15.7319 18.5202 15.6005 18.3654 15.6005C17.8944 15.6005 17.5138 15.2126 17.5138 14.7326C17.5138 14.5748 17.3847 14.4434 17.2299 14.4434C17.0751 14.4434 16.946 14.5748 16.946 14.7326C16.9396 15.2126 16.5589 15.6005 16.0944 15.6005ZM17.5202 15.8897C17.4105 15.9752 17.3073 16.0738 17.2299 16.1856C17.146 16.0738 17.0493 15.9686 16.9396 15.8897C17.0493 15.8043 17.1525 15.7056 17.2299 15.5939C17.3073 15.7056 17.4041 15.8043 17.5202 15.8897Z"/>
			<path d="M9.85752 16.4628C9.85752 15.9829 10.2382 15.595 10.7091 15.595C10.864 15.595 10.993 15.4635 10.993 15.3057C10.993 15.148 10.864 15.0165 10.7091 15.0165C10.2382 15.0165 9.85752 14.6286 9.85752 14.1486C9.85752 13.9909 9.72849 13.8594 9.57365 13.8594C9.41881 13.8594 9.28978 13.9909 9.28978 14.1486C9.28978 14.6286 8.90913 15.0165 8.43817 15.0165C8.28333 15.0165 8.1543 15.148 8.1543 15.3057C8.1543 15.4635 8.28333 15.595 8.43817 15.595C8.90913 15.595 9.28978 15.9829 9.28978 16.4628C9.28978 16.6206 9.41881 16.7521 9.57365 16.7521C9.72849 16.7521 9.85752 16.6272 9.85752 16.4628ZM9.28333 15.3123C9.393 15.2268 9.49623 15.1282 9.57365 15.0165C9.65752 15.1282 9.75429 15.2334 9.86397 15.3123C9.75429 15.3978 9.65107 15.4964 9.57365 15.6082C9.48978 15.4964 9.393 15.3912 9.28333 15.3123Z"/>
			<path d="M12.1225 13.2873C12.2773 13.2873 12.4064 13.1558 12.4064 12.998C12.4064 12.5181 12.787 12.1302 13.258 12.1302C13.4128 12.1302 13.5418 11.9987 13.5418 11.8409C13.5418 11.6831 13.4128 11.5516 13.258 11.5516C12.787 11.5516 12.4064 11.1637 12.4064 10.6838C12.4064 10.526 12.2773 10.3945 12.1225 10.3945C11.9676 10.3945 11.8386 10.526 11.8386 10.6838C11.8386 11.1637 11.458 11.5516 10.987 11.5516C10.8322 11.5516 10.7031 11.6831 10.7031 11.8409C10.7031 11.9987 10.8322 12.1302 10.987 12.1302C11.458 12.1302 11.8386 12.5181 11.8386 12.998C11.8386 13.1558 11.9676 13.2873 12.1225 13.2873ZM11.8322 11.8409C11.9418 11.7554 12.0451 11.6568 12.1225 11.5451C12.2064 11.6568 12.3031 11.762 12.4128 11.8409C12.3031 11.9264 12.1999 12.025 12.1225 12.1367C12.0451 12.025 11.9418 11.9264 11.8322 11.8409Z"/>
			<path d="M4.32036 18.4427C4.79133 18.4427 5.17198 18.0548 5.17198 17.5748C5.17198 17.0949 4.79133 16.707 4.32036 16.707C3.8494 16.707 3.46875 17.0949 3.46875 17.5748C3.46875 18.0548 3.8494 18.4427 4.32036 18.4427ZM4.32036 17.2856C4.4752 17.2856 4.60424 17.4171 4.60424 17.5748C4.60424 17.7326 4.4752 17.8641 4.32036 17.8641C4.16553 17.8641 4.03649 17.7326 4.03649 17.5748C4.03649 17.4171 4.15907 17.2856 4.32036 17.2856Z"/>
			<path d="M17.7911 13.4837C18.262 13.4837 18.6427 13.0958 18.6427 12.6159C18.6427 12.1359 18.262 11.748 17.7911 11.748C17.3201 11.748 16.9395 12.1359 16.9395 12.6159C16.9395 13.0958 17.3201 13.4837 17.7911 13.4837ZM17.7911 12.3266C17.9459 12.3266 18.0749 12.4581 18.0749 12.6159C18.0749 12.7737 17.9459 12.9051 17.7911 12.9051C17.6362 12.9051 17.5072 12.7737 17.5072 12.6159C17.5072 12.4581 17.6362 12.3266 17.7911 12.3266Z"/>
			<path d="M15.2442 1.95244C15.7152 1.95244 16.0958 1.56455 16.0958 1.08462C16.0958 0.604686 15.7152 0.216797 15.2442 0.216797C14.7732 0.216797 14.3926 0.604686 14.3926 1.08462C14.3926 1.56455 14.7732 1.95244 15.2442 1.95244ZM15.2442 0.801918C15.399 0.801918 15.5281 0.933406 15.5281 1.09119C15.5281 1.24898 15.399 1.38046 15.2442 1.38046C15.0894 1.38046 14.9603 1.24898 14.9603 1.09119C14.9603 0.926831 15.0829 0.801918 15.2442 0.801918Z"/>
			<path d="M16.657 10.1111C17.2828 10.1111 17.7925 9.59169 17.7925 8.95397C17.7925 8.31625 17.2828 7.79688 16.657 7.79688C16.0312 7.79688 15.5215 8.31625 15.5215 8.95397C15.5279 9.59169 16.0312 10.1111 16.657 10.1111ZM16.657 8.37542C16.9731 8.37542 17.2247 8.63182 17.2247 8.95397C17.2247 9.27611 16.9731 9.53252 16.657 9.53252C16.3408 9.53252 16.0892 9.27611 16.0892 8.95397C16.0892 8.63182 16.3473 8.37542 16.657 8.37542Z"/>
			<path d="M1.489 5.95677C2.11481 5.95677 2.62448 5.43739 2.62448 4.79967C2.62448 4.16196 2.11481 3.64258 1.489 3.64258C0.863193 3.64258 0.353516 4.16196 0.353516 4.79967C0.353516 5.43739 0.863193 5.95677 1.489 5.95677ZM1.489 4.22112C1.80513 4.22112 2.05674 4.47753 2.05674 4.79967C2.05674 5.12182 1.80513 5.37822 1.489 5.37822C1.17287 5.37822 0.921257 5.12182 0.921257 4.79967C0.921257 4.47753 1.17932 4.22112 1.489 4.22112Z"/>
			<path d="M11.2772 2.90541C11.2901 3.05663 11.4127 3.16839 11.5547 3.16839C11.9869 3.17496 12.8772 3.26043 13.4837 3.81926C13.8579 4.194 14.0772 4.68708 14.1095 5.21303C14.1159 5.36424 14.245 5.48258 14.3934 5.48258C14.5547 5.48258 14.6837 5.34452 14.6772 5.18016C14.6385 4.50299 14.3482 3.86528 13.8643 3.39192C13.1224 2.70161 12.0772 2.59642 11.5611 2.58984C11.3934 2.58984 11.2579 2.73448 11.2772 2.90541Z"/>
			<path d="M14.3733 12.998C14.2313 12.998 14.1087 13.1098 14.0958 13.2544C14.012 14.0565 13.4958 16.4562 10.3733 17.0019C10.2249 17.0282 10.1216 17.1662 10.141 17.324V17.3306C10.1604 17.4884 10.3087 17.6001 10.47 17.5738C13.9087 16.969 14.541 14.2603 14.6571 13.3202C14.67 13.1493 14.541 12.998 14.3733 12.998Z"/>
		</g>
	</symbol>

	<symbol id="games" viewBox="0 0 19 19">
		<g clip-path="url(#clip0_90_7282)">
			<path d="M18.1208 0.101562H8.14016C7.73111 0.101562 7.38343 0.428796 7.38343 0.85829V7.40296H0.838759C0.429717 7.40296 0.0820312 7.7302 0.0820312 8.15969V10.4299V10.5117V18.1812C0.0820312 18.5903 0.409265 18.9379 0.838759 18.9379H10.8398C11.2489 18.9379 11.5966 18.6107 11.5966 18.1812V11.6365H18.1412C18.5503 11.6365 18.898 11.3093 18.898 10.8798V5.70544V5.25549V0.878742C18.898 0.449248 18.5503 0.101562 18.1208 0.101562ZM10.8603 8.13924V18.1403H0.859211V10.4912V10.4094V8.13924H10.8603ZM18.1412 10.8594H11.5966V8.13924C11.5966 7.7302 11.2693 7.38251 10.8398 7.38251H8.14016V0.837838H18.1412V5.23504V5.68499V10.8594Z"/>
			<path d="M10.8601 19H0.858988C0.38859 19 0 18.6114 0 18.141V8.13994C0 7.66954 0.38859 7.28095 0.858988 7.28095H7.3014V0.858988C7.3014 0.38859 7.68999 0 8.16039 0H18.141C18.6319 0 19.0205 0.38859 19.0205 0.87944V10.8601C19.0205 11.3305 18.6319 11.7191 18.1615 11.7191H11.7191V18.1615C11.7191 18.6114 11.3305 19 10.8601 19ZM0.858988 7.50592C0.511302 7.50592 0.204521 7.79225 0.204521 8.16039V18.1615C0.204521 18.5091 0.49085 18.8159 0.858988 18.8159H10.8601C11.2077 18.8159 11.5145 18.5296 11.5145 18.1615V11.5145H18.1615C18.5091 11.5145 18.8159 11.2282 18.8159 10.8601V0.87944C18.8159 0.511303 18.5091 0.204521 18.141 0.204521H8.13993C7.79225 0.204521 7.48547 0.49085 7.48547 0.858988V7.50592H0.858988ZM10.9623 18.2433H0.756728V8.03767H10.9623V18.2433ZM0.961249 18.0387H10.7578V8.2422H0.961249V18.0387ZM18.2433 10.9623H11.4941V8.13994C11.4941 7.79225 11.2077 7.48547 10.8396 7.48547H8.03767V0.736276H18.2433V10.9623ZM11.7191 10.7578H18.0592V0.961249H8.2422V7.3014H10.8601C11.3305 7.3014 11.7191 7.68999 11.7191 8.16039V10.7578Z"/>
			<path d="M3.21089 11.0839C3.61752 11.0839 3.94716 10.7542 3.94716 10.3476C3.94716 9.94097 3.61752 9.61133 3.21089 9.61133C2.80425 9.61133 2.47461 9.94097 2.47461 10.3476C2.47461 10.7542 2.80425 11.0839 3.21089 11.0839Z"/>
			<path d="M3.21158 11.1868C2.76164 11.1868 2.37305 10.8187 2.37305 10.3483C2.37305 9.8779 2.74118 9.50977 3.21158 9.50977C3.68198 9.50977 4.05012 9.8779 4.05012 10.3483C4.05012 10.8187 3.68198 11.1868 3.21158 11.1868ZM3.21158 9.71429C2.8639 9.71429 2.57757 10.0006 2.57757 10.3483C2.57757 10.696 2.8639 10.9823 3.21158 10.9823C3.55927 10.9823 3.8456 10.696 3.8456 10.3483C3.8456 10.0006 3.55927 9.71429 3.21158 9.71429Z"/>
			<path d="M3.21089 13.8651C3.61752 13.8651 3.94716 13.5355 3.94716 13.1289C3.94716 12.7222 3.61752 12.3926 3.21089 12.3926C2.80425 12.3926 2.47461 12.7222 2.47461 13.1289C2.47461 13.5355 2.80425 13.8651 3.21089 13.8651Z"/>
			<path d="M3.21158 13.9681C2.76164 13.9681 2.37305 13.5999 2.37305 13.1296C2.37305 12.6796 2.74118 12.291 3.21158 12.291C3.68198 12.291 4.05012 12.6592 4.05012 13.1296C4.05012 13.5795 3.68198 13.9681 3.21158 13.9681ZM3.21158 12.4955C2.8639 12.4955 2.57757 12.7819 2.57757 13.1296C2.57757 13.4772 2.8639 13.7636 3.21158 13.7636C3.55927 13.7636 3.8456 13.4772 3.8456 13.1296C3.8456 12.7819 3.55927 12.4955 3.21158 12.4955Z"/>
			<path d="M3.21089 16.6483C3.61752 16.6483 3.94716 16.3187 3.94716 15.9121C3.94716 15.5054 3.61752 15.1758 3.21089 15.1758C2.80425 15.1758 2.47461 15.5054 2.47461 15.9121C2.47461 16.3187 2.80425 16.6483 3.21089 16.6483Z"/>
			<path d="M3.21158 16.7513C2.76164 16.7513 2.37305 16.3832 2.37305 15.9128C2.37305 15.4424 2.74118 15.0742 3.21158 15.0742C3.68198 15.0742 4.05012 15.4424 4.05012 15.9128C4.05012 16.3832 3.68198 16.7513 3.21158 16.7513ZM3.21158 15.2787C2.8639 15.2787 2.57757 15.5651 2.57757 15.9128C2.57757 16.2604 2.8639 16.5468 3.21158 16.5468C3.55927 16.5468 3.8456 16.2604 3.8456 15.9128C3.8456 15.5651 3.55927 15.2787 3.21158 15.2787Z"/>
			<path d="M8.50776 11.0839C8.91439 11.0839 9.24404 10.7542 9.24404 10.3476C9.24404 9.94097 8.91439 9.61133 8.50776 9.61133C8.10113 9.61133 7.77148 9.94097 7.77148 10.3476C7.77148 10.7542 8.10113 11.0839 8.50776 11.0839Z"/>
			<path d="M8.50846 11.1868C8.05851 11.1868 7.66992 10.8187 7.66992 10.3483C7.66992 9.8779 8.03806 9.50977 8.50846 9.50977C8.97886 9.50977 9.34699 9.8779 9.34699 10.3483C9.34699 10.8187 8.9584 11.1868 8.50846 11.1868ZM8.50846 9.71429C8.16077 9.71429 7.87444 10.0006 7.87444 10.3483C7.87444 10.696 8.16077 10.9823 8.50846 10.9823C8.85614 10.9823 9.14247 10.696 9.14247 10.3483C9.14247 10.0006 8.85614 9.71429 8.50846 9.71429Z"/>
			<path d="M8.50776 13.8651C8.91439 13.8651 9.24404 13.5355 9.24404 13.1289C9.24404 12.7222 8.91439 12.3926 8.50776 12.3926C8.10113 12.3926 7.77148 12.7222 7.77148 13.1289C7.77148 13.5355 8.10113 13.8651 8.50776 13.8651Z"/>
			<path d="M8.50846 13.9681C8.05851 13.9681 7.66992 13.5999 7.66992 13.1296C7.66992 12.6796 8.03806 12.291 8.50846 12.291C8.97886 12.291 9.34699 12.6592 9.34699 13.1296C9.34699 13.5795 8.9584 13.9681 8.50846 13.9681ZM8.50846 12.4955C8.16077 12.4955 7.87444 12.7819 7.87444 13.1296C7.87444 13.4772 8.16077 13.7636 8.50846 13.7636C8.85614 13.7636 9.14247 13.4772 9.14247 13.1296C9.14247 12.7819 8.85614 12.4955 8.50846 12.4955Z"/>
			<path d="M8.50776 16.6483C8.91439 16.6483 9.24404 16.3187 9.24404 15.9121C9.24404 15.5054 8.91439 15.1758 8.50776 15.1758C8.10113 15.1758 7.77148 15.5054 7.77148 15.9121C7.77148 16.3187 8.10113 16.6483 8.50776 16.6483Z"/>
			<path d="M8.50846 16.7513C8.05851 16.7513 7.66992 16.3832 7.66992 15.9128C7.66992 15.4424 8.03806 15.0742 8.50846 15.0742C8.97886 15.0742 9.34699 15.4424 9.34699 15.9128C9.34699 16.3832 8.9584 16.7513 8.50846 16.7513ZM8.50846 15.2787C8.16077 15.2787 7.87444 15.5651 7.87444 15.9128C7.87444 16.2604 8.16077 16.5468 8.50846 16.5468C8.85614 16.5468 9.14247 16.2604 9.14247 15.9128C9.14247 15.5651 8.85614 15.2787 8.50846 15.2787Z"/>
			<path d="M13.1503 6.58388C13.557 6.58388 13.8866 6.25424 13.8866 5.8476C13.8866 5.44097 13.557 5.11133 13.1503 5.11133C12.7437 5.11133 12.4141 5.44097 12.4141 5.8476C12.4141 6.25424 12.7437 6.58388 13.1503 6.58388Z"/>
			<path d="M13.151 6.68684C12.7011 6.68684 12.3125 6.3187 12.3125 5.8483C12.3125 5.3779 12.6806 5.00977 13.151 5.00977C13.601 5.00977 13.9896 5.3779 13.9896 5.8483C13.9896 6.3187 13.601 6.68684 13.151 6.68684ZM13.151 5.23474C12.8034 5.23474 12.517 5.52107 12.517 5.86875C12.517 6.21644 12.8034 6.50277 13.151 6.50277C13.4987 6.50277 13.7851 6.21644 13.7851 5.86875C13.7851 5.52107 13.4987 5.23474 13.151 5.23474Z"/>
		</g>
	</symbol>

	<symbol id="puzzles" viewBox="0 0 19 19">
		<g>
			<path d="M10.8314 3.51318V5.36183C10.8314 5.60831 10.9561 5.81372 11.164 5.93696C11.3719 6.06021 11.6213 6.06021 11.8292 5.93696C11.9331 5.87534 12.0579 5.83426 12.1826 5.83426C12.5776 5.83426 12.9102 6.16291 12.9102 6.55318C12.9102 6.94345 12.5776 7.2721 12.1826 7.2721C12.0579 7.2721 11.9331 7.23102 11.8292 7.1694C11.6213 7.04615 11.3719 7.04615 11.164 7.1694C10.9561 7.29264 10.8314 7.49804 10.8314 7.74453V10.9078H8.79419C8.7734 10.9078 8.7734 10.9078 8.75261 10.8872C8.75261 10.8667 8.75261 10.8667 8.75261 10.8462C8.85655 10.6407 8.91891 10.3943 8.91891 10.1478C8.91891 9.32615 8.23292 8.64831 7.40141 8.64831C6.88171 8.64831 6.44517 8.8948 6.15414 9.28507C6.17493 9.24399 6.19572 9.18237 6.19572 9.12075C6.21651 8.8948 6.13336 8.66885 5.94627 8.52507C5.84233 8.44291 5.73839 8.31967 5.69681 8.19642C5.59287 7.97048 5.59287 7.74453 5.67602 7.51858C5.75918 7.29264 5.92548 7.12831 6.15414 7.02561C6.27887 6.98453 6.38281 6.94345 6.50753 6.94345C6.86093 6.94345 7.19353 7.14886 7.33904 7.4775C7.40141 7.60075 7.4222 7.74453 7.4222 7.88831C7.40141 8.11426 7.50535 8.34021 7.71322 8.46345C7.90031 8.58669 8.14977 8.62777 8.35764 8.52507L10.8106 7.45696L9.2723 4.00615C9.2723 3.98561 9.2723 3.98561 9.2723 3.96507C9.29309 3.94453 9.29309 3.94453 9.31388 3.94453C9.54255 3.96507 9.792 3.94453 9.99988 3.84183C10.6859 3.55426 10.9977 2.75318 10.6859 2.07534C10.478 1.58237 9.97909 1.27426 9.45939 1.27426C9.2723 1.27426 9.08522 1.31534 8.91891 1.37696C8.71104 1.47967 8.50316 1.62345 8.37843 1.80832C8.35764 1.8494 8.35764 1.8494 8.33686 1.8494C8.31607 1.8494 8.31607 1.8494 8.29528 1.82886L7.54692 0.144531L0.146484 3.34886L3.38937 10.6818L5.82154 9.61372C5.92548 9.57264 5.98784 9.51102 6.07099 9.42886C5.96705 9.63426 5.90469 9.88075 5.90469 10.1272C5.90469 10.3737 5.96705 10.5997 6.07099 10.8256C6.07099 10.8462 6.07099 10.8462 6.07099 10.8667C6.07099 10.8872 6.0502 10.8872 6.02942 10.8872H3.36859V18.898H10.8106H18.9178V11.5034V10.8872V3.49264H10.8314V3.51318ZM5.57209 9.05912L3.70119 9.86021L0.957206 3.6775L7.23511 0.945612L7.73401 2.07534C7.83795 2.30129 8.02504 2.44507 8.27449 2.46561C8.52395 2.48615 8.75261 2.38345 8.87734 2.19859C8.96049 2.09588 9.04364 2.01372 9.16837 1.97264C9.25152 1.93156 9.35546 1.91102 9.45939 1.91102C9.75042 1.91102 9.99988 2.07534 10.1246 2.34237C10.2909 2.7121 10.1246 3.12291 9.75042 3.28723C9.6257 3.32832 9.50097 3.34886 9.37624 3.34886C9.12679 3.32831 8.89813 3.43102 8.7734 3.61588C8.62788 3.80075 8.6071 4.04723 8.69025 4.27318L9.97909 7.14886L8.10819 7.97048C8.10819 7.97048 8.10819 7.97048 8.0874 7.97048C8.06662 7.94994 8.06662 7.94994 8.06662 7.9294C8.0874 7.68291 8.04583 7.45696 7.94189 7.23102C7.69244 6.67642 7.15195 6.32723 6.54911 6.32723C6.34123 6.32723 6.13336 6.36831 5.94627 6.45048C5.57209 6.6148 5.28106 6.90237 5.13554 7.2721C4.99003 7.64183 4.99003 8.05264 5.15633 8.42237C5.26027 8.64831 5.40578 8.83318 5.59287 8.9975C5.61366 9.01804 5.61366 9.01804 5.61366 9.03858C5.59287 9.03858 5.59287 9.05912 5.57209 9.05912ZM11.455 7.74453C11.455 7.72399 11.455 7.72399 11.4758 7.70345C11.4966 7.68291 11.4966 7.70345 11.5174 7.70345C11.7253 7.82669 11.9539 7.88831 12.2034 7.88831C12.9517 7.88831 13.5546 7.29264 13.5546 6.55318C13.5546 5.81372 12.9517 5.21804 12.2034 5.21804C11.9747 5.21804 11.7253 5.27967 11.5174 5.40291C11.4966 5.40291 11.4966 5.40291 11.4758 5.40291C11.455 5.40291 11.455 5.38237 11.455 5.36183V4.1294H18.2734V10.9078H16.1323C16.1115 10.9078 16.1115 10.9078 16.0907 10.8872C16.0907 10.8667 16.0907 10.8667 16.0907 10.8462C16.1115 10.8256 16.1115 10.7845 16.1323 10.764C16.2986 10.5175 16.4025 10.2299 16.4025 9.92183C16.4025 9.10021 15.7373 8.44291 14.9058 8.44291C14.0743 8.44291 13.4091 9.10021 13.4091 9.92183C13.4091 10.2299 13.4922 10.5175 13.6793 10.764C13.7001 10.7845 13.7209 10.8256 13.7209 10.8462C13.7209 10.8667 13.7209 10.8667 13.7209 10.8872C13.7209 10.9078 13.7001 10.9078 13.6793 10.9078H11.455V7.74453ZM3.99222 18.2818V11.5034H6.02942C6.25808 11.5034 6.48675 11.3802 6.59069 11.1953C6.71541 10.9899 6.71541 10.764 6.61147 10.5586C6.54911 10.4353 6.50753 10.2916 6.50753 10.1478C6.50753 9.6548 6.9025 9.26453 7.40141 9.26453C7.90031 9.26453 8.31607 9.6548 8.31607 10.1478C8.31607 10.2916 8.27449 10.4353 8.21213 10.5586C8.10819 10.764 8.10819 11.0105 8.23292 11.1953C8.35764 11.4007 8.56552 11.5034 8.79419 11.5034H10.8106V14.0299C10.8106 14.0505 10.7898 14.071 10.769 14.071H10.7482C10.6235 14.071 10.5196 14.0505 10.4156 13.9683C10.1662 13.804 9.87515 13.7013 9.56333 13.7013C8.73182 13.7013 8.06662 14.3586 8.06662 15.1802C8.06662 16.0018 8.73182 16.6591 9.56333 16.6591C9.87515 16.6591 10.1662 16.577 10.4156 16.3921C10.5196 16.3305 10.6235 16.2894 10.7482 16.2894H10.769C10.7898 16.2894 10.8106 16.3099 10.8106 16.3305V18.2818H3.99222ZM18.2734 18.2818H11.4342V16.3716C11.4342 16.0018 11.1432 15.7143 10.769 15.7143H10.7482C10.4988 15.7143 10.2701 15.7759 10.083 15.9197C9.93751 16.0224 9.77121 16.0634 9.58412 16.0634C9.106 16.0634 8.71104 15.6732 8.71104 15.2007C8.71104 14.7283 9.106 14.338 9.58412 14.338C9.77121 14.338 9.93751 14.3997 10.083 14.4818C10.2909 14.6256 10.5196 14.6872 10.7482 14.6872H10.769C11.1432 14.6872 11.4342 14.3997 11.4342 14.0299V11.524H13.6585C13.8872 11.524 14.0951 11.4007 14.2198 11.2159C14.3445 11.0105 14.3653 10.7845 14.2614 10.5791C14.2406 10.538 14.199 10.4764 14.1782 10.4148C14.0743 10.271 14.0327 10.1067 14.0327 9.92183C14.0327 9.4494 14.4277 9.05912 14.9058 9.05912C15.3839 9.05912 15.7789 9.4494 15.7789 9.92183C15.7789 10.1067 15.7165 10.271 15.6334 10.4148C15.5918 10.4764 15.571 10.5175 15.5502 10.5586C15.4463 10.764 15.4671 11.0105 15.571 11.1953C15.6957 11.4007 15.9036 11.5034 16.1323 11.5034H18.2942L18.2734 18.2818Z"/>
			<path d="M19 19H3.26368V10.7838H3.32604L0 3.30703L7.60831 0L8.35667 1.68432C8.50219 1.52 8.66849 1.39676 8.87637 1.29405C9.06346 1.21189 9.25055 1.17081 9.45842 1.17081C10.0405 1.17081 10.5602 1.49946 10.7888 2.03351C10.9551 2.3827 10.9551 2.77297 10.8096 3.12216C10.6641 3.47135 10.3939 3.75892 10.0405 3.92324C9.8326 4.00541 9.62473 4.04649 9.39606 4.04649L10.8512 7.31243C10.9136 7.20973 10.9967 7.12757 11.1214 7.06595C11.3501 6.92216 11.6619 6.92216 11.8906 7.06595C11.9945 7.12757 12.0985 7.14811 12.2024 7.14811C12.5558 7.14811 12.826 6.88108 12.826 6.53189C12.826 6.1827 12.5558 5.91568 12.2024 5.91568C12.0985 5.91568 11.9945 5.93622 11.8906 5.99784C11.6619 6.14162 11.3501 6.14162 11.1214 5.99784C10.872 5.85405 10.7265 5.60757 10.7265 5.34054V3.38919H19V19ZM10.9136 18.7946H18.8129V3.61514H10.9344V5.36108C10.9344 5.56649 11.0383 5.75135 11.2254 5.83351C11.3917 5.93622 11.6203 5.93622 11.7867 5.83351C11.9114 5.75135 12.0569 5.73081 12.2024 5.73081C12.6597 5.73081 13.0339 6.10054 13.0339 6.55243C13.0339 7.00432 12.6597 7.37405 12.2024 7.37405C12.0569 7.37405 11.9114 7.33297 11.7867 7.27135C11.6203 7.16865 11.3917 7.16865 11.2254 7.27135C11.0591 7.37405 10.9344 7.55892 10.9344 7.74378V11.0097H8.814C8.75164 11.0097 8.71006 10.9892 8.68928 10.9481C8.66849 10.907 8.66849 10.8454 8.68928 10.8043C8.79322 10.5989 8.85558 10.373 8.85558 10.1676C8.85558 9.38703 8.21116 8.77081 7.44201 8.77081C6.98468 8.77081 6.54814 8.99676 6.29869 9.36649L6.23632 9.44865L6.19475 9.53081C6.09081 9.73622 6.02845 9.96216 6.02845 10.1881C6.02845 10.4141 6.09081 10.64 6.19475 10.8249C6.21554 10.8659 6.21554 10.9276 6.19475 10.9686C6.17396 11.0097 6.13239 11.0303 6.07002 11.0303H3.47155V18.8357L10.9136 18.7946ZM3.3884 10.8043H5.92451C5.84136 10.5989 5.77899 10.373 5.77899 10.147C5.77899 10.0854 5.77899 10.0238 5.77899 9.96216L5.73742 10.0238L5.79978 9.90054C5.79978 9.83892 5.82057 9.7773 5.84136 9.73622L3.3884 10.8043ZM8.89715 10.8043H10.7265V7.74378C10.7265 7.7027 10.7265 7.66162 10.7473 7.6L8.41904 8.60649C8.3151 8.64757 8.19037 8.66811 8.08643 8.66811C8.6477 8.91459 9.04267 9.48973 9.04267 10.1265C9.04267 10.373 9.00109 10.5989 8.89715 10.8043ZM0.270241 3.40973L3.45077 10.5578L5.77899 9.55135C5.86214 9.51027 5.92451 9.46919 5.98687 9.40757L6.04923 9.32541L6.07002 9.24324C6.09081 9.20216 6.09081 9.16108 6.1116 9.09946C6.13238 8.91459 6.07002 8.70919 5.90372 8.58595C5.77899 8.48324 5.67505 8.36 5.61269 8.21622C5.50875 7.96973 5.50875 7.7027 5.5919 7.45622C5.69584 7.20973 5.88293 7.00432 6.13238 6.90162C6.25711 6.84 6.40263 6.81946 6.52735 6.81946C6.92232 6.81946 7.2965 7.0454 7.44201 7.41513C7.50438 7.55892 7.52516 7.72324 7.52516 7.88757C7.50438 8.09297 7.60831 8.2573 7.75383 8.38054C7.92013 8.48324 8.12801 8.50378 8.29431 8.44216L10.6225 7.43568L9.12582 4.06703C9.14661 3.98486 9.14661 3.94378 9.18818 3.9027C9.22976 3.84108 9.29212 3.84108 9.31291 3.84108C9.54158 3.86162 9.77024 3.84108 9.95733 3.73838C10.2691 3.61514 10.4978 3.36865 10.6225 3.06054C10.7473 2.75243 10.7265 2.42378 10.6018 2.11568C10.3939 1.66378 9.95733 1.37622 9.45842 1.37622C9.29212 1.37622 9.12582 1.4173 8.95952 1.47892C8.75164 1.56108 8.58534 1.70486 8.46061 1.86919C8.41904 1.93081 8.35667 1.93081 8.33589 1.93081C8.27352 1.93081 8.23195 1.88973 8.21116 1.84865L7.50438 0.267027L0.270241 3.40973ZM6.54814 7.02486C6.4442 7.02486 6.34026 7.04541 6.23632 7.08649C6.04923 7.16865 5.88293 7.33297 5.82057 7.51784C5.73742 7.72324 5.73742 7.92865 5.84136 8.11351C5.90372 8.23676 5.96608 8.33946 6.07002 8.40108C6.23632 8.52432 6.34026 8.72973 6.36105 8.91459C6.38184 8.89405 6.42341 8.87351 6.4442 8.83243L6.63129 8.60649L6.54814 8.75027C6.88074 8.52432 7.31729 8.44216 7.71225 8.50378C7.69147 8.50378 7.69147 8.48324 7.67068 8.48324C7.44201 8.31892 7.31729 8.07243 7.33807 7.80541C7.33807 7.68216 7.31729 7.55892 7.27571 7.43568C7.15098 7.20973 6.85996 7.02486 6.54814 7.02486ZM18.3764 18.3838H11.3085V16.3708C11.3085 16.0627 11.0591 15.8162 10.7473 15.8162H10.7265C10.4978 15.8162 10.2899 15.8778 10.1028 16.0011C9.93654 16.1038 9.74945 16.1654 9.54158 16.1654C9.00109 16.1654 8.56455 15.7341 8.56455 15.2C8.56455 14.6659 9.00109 14.2346 9.54158 14.2346C9.74945 14.2346 9.93654 14.2962 10.1028 14.3989C10.2899 14.5222 10.4978 14.5838 10.7265 14.5838H10.7473C11.0591 14.5838 11.3085 14.3373 11.3085 14.0292V11.4205H13.6368C13.8446 11.4205 14.0109 11.3178 14.1149 11.1535C14.2188 10.9892 14.2188 10.7838 14.1357 10.6195C14.1149 10.5784 14.0941 10.5168 14.0525 10.4757C13.9486 10.3114 13.8862 10.1265 13.8862 9.92108C13.8862 9.38703 14.3228 8.95568 14.8632 8.95568C15.4037 8.95568 15.8403 9.38703 15.8403 9.92108C15.8403 10.1265 15.7779 10.3114 15.674 10.4757C15.6324 10.5168 15.6116 10.5784 15.5908 10.6195C15.5077 10.8043 15.5077 10.9892 15.6116 11.1535C15.7155 11.3178 15.8818 11.4205 16.0897 11.4205H18.3556V18.3838H18.3764ZM11.5372 18.1784H18.1893V11.6054H16.1313C15.861 11.6054 15.6116 11.4822 15.4661 11.2357C15.3206 11.0097 15.2998 10.7427 15.4245 10.4962C15.4453 10.4346 15.4869 10.3935 15.5284 10.3319C15.6116 10.2086 15.6532 10.0649 15.6532 9.90054C15.6532 9.46919 15.2998 9.14054 14.884 9.14054C14.4683 9.14054 14.1149 9.48973 14.1149 9.90054C14.1149 10.0649 14.1565 10.2086 14.2396 10.3319C14.2812 10.3935 14.302 10.4551 14.3435 10.4962C14.4683 10.7427 14.4475 11.0097 14.302 11.2357C14.1565 11.4616 13.9278 11.6054 13.6368 11.6054H11.5372V14.0086C11.5372 14.4195 11.1838 14.7686 10.7681 14.7686H10.7473C10.477 14.7686 10.2276 14.6865 10.0197 14.5427C9.89497 14.4605 9.74945 14.4195 9.58315 14.4195C9.14661 14.4195 8.814 14.7686 8.814 15.1795C8.814 15.5903 9.1674 15.9395 9.58315 15.9395C9.74945 15.9395 9.89497 15.8984 10.0197 15.8162C10.2484 15.6724 10.477 15.5903 10.7473 15.5903H10.7681C11.1838 15.5903 11.5372 15.9395 11.5372 16.3503V18.1784ZM10.9136 18.3838H3.88731V11.4H6.02845C6.23632 11.4 6.40263 11.2973 6.50656 11.133C6.6105 10.9686 6.6105 10.7632 6.52735 10.5784C6.4442 10.4346 6.42341 10.2908 6.42341 10.1265C6.42341 9.57189 6.88074 9.14054 7.42123 9.14054C7.98249 9.14054 8.41904 9.59243 8.41904 10.1265C8.41904 10.2908 8.37746 10.4346 8.3151 10.5784C8.23195 10.7427 8.23195 10.9481 8.33589 11.133C8.43982 11.2973 8.62691 11.4 8.814 11.4H10.9136V14.0292C10.9136 14.1114 10.8512 14.173 10.7681 14.173H10.7473C10.6018 14.173 10.477 14.1319 10.3731 14.0497C10.1444 13.8854 9.87418 13.8032 9.58315 13.8032C8.814 13.8032 8.19037 14.4195 8.19037 15.1795C8.19037 15.9395 8.814 16.5557 9.58315 16.5557C9.87418 16.5557 10.1444 16.4735 10.3731 16.3092C10.4978 16.227 10.6225 16.1859 10.7473 16.1859H10.7681C10.8512 16.1859 10.9136 16.2476 10.9136 16.3297V18.3838ZM4.09519 18.1784H10.7057V16.4324C10.6225 16.4324 10.5602 16.453 10.477 16.5146C10.2068 16.6995 9.89497 16.7816 9.56236 16.7816C8.66849 16.7816 7.96171 16.0627 7.96171 15.2C7.96171 14.3168 8.68928 13.6184 9.56236 13.6184C9.89497 13.6184 10.2068 13.7211 10.477 13.8854C10.5602 13.9265 10.6225 13.9676 10.7057 13.9676V11.6259H8.814C8.54376 11.6259 8.29431 11.4822 8.1488 11.2562C8.00328 11.0303 8.00328 10.7427 8.12801 10.5168C8.19037 10.4141 8.21116 10.2908 8.21116 10.147C8.21116 9.71568 7.85777 9.36649 7.42123 9.36649C6.98468 9.36649 6.63129 9.71568 6.63129 10.147C6.63129 10.2703 6.65208 10.3935 6.71444 10.5168C6.83917 10.7632 6.83917 11.0303 6.69365 11.2562C6.54814 11.4822 6.29869 11.6259 6.02845 11.6259H4.09519V18.1784ZM18.3764 11.0097H16.1313C16.0689 11.0097 16.0274 10.9892 16.0066 10.9481C15.9858 10.907 15.965 10.8454 16.0066 10.8043C16.0274 10.7838 16.0481 10.7427 16.0689 10.7222C16.2352 10.4962 16.3184 10.2292 16.3184 9.94162C16.3184 9.18162 15.6947 8.5654 14.9256 8.5654C14.1565 8.5654 13.5328 9.18162 13.5328 9.94162C13.5328 10.2292 13.616 10.4962 13.7823 10.7222C13.8031 10.7632 13.8239 10.7838 13.8446 10.8249C13.8654 10.8659 13.8654 10.9276 13.8446 10.9686C13.8239 11.0097 13.7823 11.0303 13.7407 11.0303H11.4125V7.74378C11.4125 7.68216 11.4333 7.64108 11.4956 7.62054C11.5372 7.6 11.5996 7.6 11.6411 7.62054C11.8282 7.72324 12.0361 7.78486 12.2648 7.78486C12.9508 7.78486 13.512 7.23027 13.512 6.55243C13.512 5.87459 12.9508 5.32 12.2648 5.32C12.0361 5.32 11.8282 5.38162 11.6411 5.48432C11.5996 5.50486 11.5372 5.50486 11.4956 5.48432C11.454 5.46378 11.4125 5.4227 11.4125 5.36108V4.02595H18.4387V11.0097H18.3764ZM14.884 8.33946C15.7779 8.33946 16.4847 9.05838 16.4847 9.92108C16.4847 10.2292 16.4015 10.5373 16.2144 10.8043H18.1477V4.23135H11.558V5.25838C11.7659 5.15568 11.9737 5.11459 12.2024 5.11459C13.0131 5.11459 13.6575 5.75135 13.6575 6.55243C13.6575 7.35351 13.0131 7.99027 12.2024 7.99027C11.9737 7.99027 11.7659 7.94919 11.558 7.84649V10.8043H13.5536C13.3873 10.5373 13.2834 10.2497 13.2834 9.92108C13.2834 9.03784 14.0109 8.33946 14.884 8.33946ZM3.65864 10.0032L0.83151 3.61514L7.27571 0.821622L7.81619 2.03351C7.89934 2.21838 8.06565 2.34162 8.27352 2.36216C8.4814 2.3827 8.66849 2.30054 8.79322 2.13622C8.87637 2.01297 9.00109 1.93081 9.12582 1.86919C9.22976 1.82811 9.35449 1.80757 9.45842 1.80757C9.79103 1.80757 10.0821 1.99243 10.2276 2.30054C10.4147 2.71135 10.2276 3.20432 9.79103 3.38919C9.6663 3.45081 9.5 3.47135 9.37527 3.45081C9.1674 3.43027 8.98031 3.51243 8.85558 3.67676C8.73085 3.84108 8.71006 4.04649 8.79322 4.23135L10.1236 7.18919L8.10722 8.05189C8.08643 8.05189 8.04486 8.05189 8.02407 8.03135C7.98249 8.01081 7.96171 7.94919 7.96171 7.90811C7.98249 7.68216 7.94092 7.45622 7.83698 7.25081C7.60831 6.7373 7.10941 6.40865 6.52735 6.40865C6.34026 6.40865 6.13239 6.44973 5.96608 6.53189C5.61269 6.67568 5.34245 6.96324 5.21772 7.31243C5.07221 7.66162 5.093 8.05189 5.23851 8.38054C5.32166 8.58595 5.46718 8.77081 5.65427 8.91459C5.69584 8.95568 5.71663 8.99676 5.71663 9.03784C5.71663 9.09946 5.67505 9.14054 5.63348 9.16108L3.65864 10.0032ZM1.10175 3.71784L3.76258 9.73622L5.44639 9.0173C5.28009 8.87351 5.13457 8.68865 5.05142 8.48324C4.88512 8.09297 4.86433 7.66162 5.03063 7.25081C5.19694 6.86054 5.48796 6.53189 5.88293 6.36757C6.09081 6.28541 6.31947 6.22378 6.52735 6.22378C7.17177 6.22378 7.75383 6.59351 8.02407 7.18919C8.10722 7.39459 8.16958 7.62054 8.16958 7.84649L9.85339 7.12757L8.60613 4.33405C8.50219 4.08757 8.52298 3.8 8.68928 3.57405C8.85558 3.34811 9.12582 3.24541 9.39606 3.26595C9.5 3.28649 9.60394 3.26595 9.70788 3.22486C10.0197 3.08108 10.1652 2.73189 10.0197 2.42378C9.91576 2.19784 9.68709 2.05405 9.45842 2.05405C9.37527 2.05405 9.29212 2.07459 9.20897 2.11568C9.10503 2.15676 9.02188 2.21838 8.95952 2.32108C8.79322 2.54703 8.52298 2.64973 8.25274 2.62919C7.98249 2.60865 7.73304 2.42378 7.6291 2.1773L7.17177 1.15027L1.10175 3.71784Z"/>
		</g>
	</symbol>

	<symbol id="boks" viewBox="0 0 19 19">
		<g clip-path="url(#clip0_90_7292)">
			<path d="M9.276 3.67499C9.07126 3.48604 8.82557 3.38107 8.5594 3.36007C8.66178 3.12913 8.66178 2.83521 8.66178 2.62527V2.52029C8.66178 2.1004 8.53893 1.63853 8.29324 1.21864C7.88376 0.525818 7.22859 0.168912 6.36867 0.147918C5.32449 0.126923 4.13699 0.336868 2.76522 0.756757C0.165005 1.26062 0.144531 3.98991 0.144531 4.0319C0.451643 8.27278 2.64238 9.93134 2.72427 9.99433C2.72427 9.99433 2.74475 10.0153 2.76522 10.0153C2.76522 10.0573 2.76522 10.0783 2.76522 10.1203L3.2566 13.8993C3.29755 14.1302 3.48182 14.2982 3.70703 14.2982C3.72751 14.2982 3.74798 14.2982 3.76845 14.2982L8.35466 13.6684C8.60035 13.6264 8.78462 13.3954 8.74367 13.1435L8.25229 9.36449C8.25229 9.30151 8.21134 9.23853 8.19087 9.17554C9.09173 8.46173 9.68548 7.16007 9.7469 5.83742V5.79543C9.78785 5.1446 9.8288 4.17886 9.276 3.67499ZM8.37514 13.1855C8.37514 13.2275 8.35466 13.2695 8.31371 13.2695L3.72751 13.8993C3.68656 13.8993 3.66608 13.8783 3.66608 13.8363L3.1747 10.0573C3.1747 10.0363 3.1747 10.0153 3.19518 10.0153C3.19518 10.0153 3.21565 9.99433 3.23613 9.99433L7.84281 9.36449C7.88376 9.36449 7.90423 9.38549 7.90423 9.42748L8.37514 13.1855ZM9.3579 5.77444V5.81643C9.31695 6.86615 8.82557 8.23079 7.82234 8.9446C7.80186 8.9446 7.76091 8.9446 7.74044 8.9446L3.15423 9.57444C3.07233 9.57444 3.01091 9.61643 2.94949 9.65841C2.84712 9.57444 0.820178 7.97886 0.53354 4.0109C0.53354 3.90593 0.554014 1.57554 2.84712 1.13466H2.86759C4.21889 0.735763 5.34496 0.525818 6.36867 0.546813C7.10574 0.567807 7.63807 0.840735 7.96565 1.40759C8.1704 1.76449 8.29324 2.14239 8.27277 2.4993V2.60427C8.27277 2.81422 8.27277 3.15013 8.14992 3.2551C8.12945 3.27609 8.10897 3.29709 8.10897 3.31808C8.0066 3.31808 7.88376 3.31808 7.78139 3.33908C7.69949 3.33908 7.63807 3.33908 7.55617 3.36007C6.88053 3.38107 6.24583 3.46504 5.7135 3.54902H5.69302C5.36544 3.61201 4.93548 3.69598 4.73074 4.07388C4.58742 4.36781 4.60789 4.7667 4.75121 5.1446C3.05186 5.5225 2.51953 5.1656 2.45811 4.97665C2.45811 4.87167 2.35574 4.80869 2.25337 4.82969C2.151 4.85068 2.0691 4.95565 2.11005 5.06062C2.11005 5.10261 2.17147 5.29156 2.41716 5.45952C2.66285 5.62748 3.03139 5.71145 3.48182 5.71145C3.8913 5.71145 4.38268 5.64847 4.97643 5.5225C5.0788 5.66946 5.20164 5.81643 5.32449 5.9004C5.93871 6.2993 6.40962 5.98438 6.79863 5.73245C7.04432 5.56449 7.26953 5.41753 7.5357 5.41753C7.63807 5.41753 7.74044 5.33355 7.74044 5.20759C7.74044 5.10261 7.65854 4.99764 7.5357 4.99764C7.16716 4.99764 6.86005 5.20759 6.59389 5.37554C6.1844 5.64847 5.91824 5.77444 5.54971 5.5435C5.22212 5.33355 4.93548 4.59875 5.11975 4.26283C5.22212 4.05289 5.54971 3.98991 5.79539 3.94792H5.81587C6.3482 3.84295 6.94195 3.77996 7.59712 3.75897C7.67902 3.75897 7.74044 3.75897 7.82234 3.73797C8.27277 3.71698 8.74367 3.67499 9.03031 3.96891C9.41932 4.34681 9.37837 5.20759 9.3579 5.77444Z"/>
			<path d="M3.70582 14.4666C3.39871 14.4666 3.15302 14.2357 3.11207 13.9208L2.62069 10.1418C2.62069 10.1208 2.62069 10.1208 2.62069 10.0998C2.2931 9.82685 0.286638 8.08431 0 4.05337C0 4.01138 0.0409484 1.17713 2.68211 0.610275L2.70259 0.589281H2.74353C4.13578 0.190386 5.32328 -0.0195591 6.36746 0.00143541C7.28879 0.0224299 7.98491 0.40033 8.41487 1.13514C8.68103 1.57602 8.80388 2.05889 8.80388 2.52077V2.60475C8.80388 2.77271 8.80388 3.00365 8.74246 3.23458C8.98815 3.29757 9.19289 3.40254 9.35668 3.5705C9.95043 4.13735 9.90948 5.12409 9.86853 5.79591V5.8379C9.80711 7.16055 9.23384 8.44121 8.35345 9.21801C8.37392 9.26 8.37392 9.30199 8.37392 9.34398L8.8653 13.123C8.90625 13.4589 8.68103 13.7738 8.35345 13.8158L3.76724 14.4456C3.76724 14.4456 3.72629 14.4666 3.70582 14.4666ZM2.78448 0.904198C0.327586 1.38707 0.286638 4.01138 0.286638 4.05337C0.573276 8.16829 2.72306 9.80585 2.80496 9.86884L2.90733 9.93182L2.88685 10.0368C2.88685 10.0578 2.88685 10.0788 2.88685 10.0998L3.37823 13.8788C3.39871 14.0467 3.5625 14.1727 3.74677 14.1517L8.33297 13.5219C8.49677 13.5009 8.61961 13.3329 8.59914 13.144L8.10776 9.36497C8.10776 9.32298 8.08728 9.28099 8.06681 9.239L8.00539 9.13403L8.10776 9.05005C8.96767 8.35724 9.54095 7.11856 9.60237 5.81691V5.77492C9.62284 5.16608 9.66379 4.24232 9.17241 3.78044C9.00862 3.63348 8.80388 3.52851 8.53771 3.48652L8.35345 3.46552L8.43534 3.27657C8.53771 3.06663 8.51724 2.7937 8.51724 2.60475V2.52077C8.51724 2.12188 8.3944 1.68099 8.16918 1.30309C7.78017 0.652264 7.18642 0.316353 6.34698 0.316353C5.32328 0.295358 4.17672 0.484308 2.78448 0.904198ZM3.70582 14.0467C3.60345 14.0467 3.52155 13.9628 3.50108 13.8578L3.0097 10.0788C3.0097 10.0158 3.0097 9.95282 3.05065 9.91083C3.07112 9.86884 3.13254 9.82685 3.19397 9.82685L7.80065 9.19701C7.92349 9.19701 8.02586 9.28099 8.02586 9.38597L8.51724 13.165C8.51724 13.228 8.51724 13.2909 8.47629 13.3329C8.43534 13.3749 8.3944 13.4169 8.33297 13.4169L3.70582 14.0467ZM3.29634 10.1208L3.76724 13.7528L8.21013 13.144L7.73922 9.51193L3.29634 10.1208ZM2.94828 9.84784L2.86638 9.78486C2.64116 9.59591 0.675646 7.97934 0.389009 4.03237C0.389009 3.90641 0.429957 1.47105 2.80496 1.00917H2.82543C4.1972 0.589281 5.34375 0.40033 6.34698 0.421325C7.16595 0.421325 7.71875 0.715248 8.08728 1.34508C8.3125 1.72298 8.43534 2.14287 8.41487 2.52077V2.62574C8.41487 2.94066 8.41487 3.25558 8.2306 3.40254C8.2306 3.40254 8.2306 3.42353 8.21013 3.42353L8.18965 3.48652H8.10776C8.00539 3.48652 7.88254 3.48652 7.78017 3.50751C7.69828 3.50751 7.63685 3.50751 7.55496 3.52851C6.87931 3.5495 6.26509 3.61249 5.73276 3.71746L5.69181 3.5705L5.71228 3.71746C5.40517 3.78044 5.01616 3.84342 4.85237 4.15834C4.72953 4.38928 4.75 4.74619 4.89332 5.10309L4.95474 5.27105L4.79095 5.31304C2.64116 5.77492 2.35453 5.12409 2.33405 5.0611C2.31358 5.01912 2.2931 4.99812 2.27263 5.01911C2.25216 5.01911 2.23168 5.04011 2.23168 5.04011C2.23168 5.04011 2.21121 5.0611 2.23168 5.0821C2.23168 5.10309 2.27263 5.25005 2.47737 5.37602C2.90733 5.66994 3.74677 5.66994 4.93427 5.39702L5.03664 5.37602L5.09806 5.46C5.20043 5.60696 5.3028 5.71193 5.40517 5.79591C5.9375 6.15282 6.34698 5.87989 6.71552 5.62795C6.98168 5.46 7.22737 5.29204 7.51401 5.29204C7.53448 5.29204 7.55496 5.29204 7.55496 5.27105C7.55496 5.27105 7.57543 5.25005 7.57543 5.22906C7.57543 5.18707 7.55496 5.16608 7.51401 5.16608C7.18642 5.16608 6.92026 5.35503 6.65409 5.52298C6.26509 5.77492 5.91703 6.00586 5.44612 5.69094C5.07759 5.439 4.75 4.62022 4.95474 4.22133C5.09806 3.9484 5.46659 3.88541 5.73276 3.84342C6.26509 3.73845 6.87931 3.67547 7.55496 3.65447C7.5959 3.65447 7.65733 3.65447 7.69827 3.65447H7.78017C8.2306 3.63348 8.74246 3.59149 9.09052 3.9274C9.54095 4.34729 9.5 5.25005 9.47952 5.8379V5.87989C9.43858 6.9716 8.92672 8.37823 7.90302 9.13403L7.86207 9.15503H7.82112C7.80065 9.15503 7.78017 9.15503 7.7597 9.15503L3.17349 9.78486C3.13254 9.78486 3.07112 9.80586 3.03017 9.84784H2.94828ZM2.86638 1.2821C0.716595 1.70199 0.696121 3.9274 0.696121 4.01138C0.94181 7.51746 2.60022 9.15503 2.98922 9.46994C3.05065 9.44895 3.09159 9.42795 3.15302 9.42795L7.73922 8.79812C7.7597 8.79812 7.78017 8.79812 7.80065 8.79812C8.72198 8.1053 9.19289 6.80365 9.23384 5.79591V5.75392C9.25431 5.22906 9.29526 4.41028 8.92672 4.07436C8.68103 3.84342 8.25108 3.86442 7.82112 3.88541H7.73922C7.6778 3.88541 7.63685 3.88541 7.57543 3.88541C6.92026 3.90641 6.30603 3.96939 5.81465 4.07436H5.79418C5.58944 4.11635 5.28233 4.15834 5.2209 4.3053C5.07759 4.57823 5.34375 5.22906 5.60991 5.39702C5.91703 5.58597 6.08082 5.50199 6.51078 5.22906C6.77694 5.0611 7.125 4.83016 7.53448 4.83016C7.71875 4.83016 7.88254 4.97713 7.88254 5.18707C7.88254 5.27105 7.84159 5.37602 7.78017 5.439C7.71875 5.50199 7.63685 5.54398 7.53448 5.54398C7.32974 5.54398 7.125 5.66994 6.87931 5.8379C6.4903 6.08983 5.9375 6.44674 5.26185 6.00586C5.13901 5.92188 5.01616 5.81691 4.91379 5.66994C3.68534 5.94287 2.82543 5.90088 2.33405 5.58597C2.04741 5.39702 1.98599 5.16608 1.96552 5.10309C1.94504 5.01911 1.96552 4.91414 2.00647 4.83016C2.04741 4.74619 2.12931 4.7042 2.23168 4.6832C2.39547 4.64121 2.57974 4.74619 2.62069 4.93514C2.66164 5.01912 3.11207 5.31304 4.58621 5.01911C4.46336 4.64121 4.48384 4.26331 4.62715 3.99039C4.85237 3.5495 5.36422 3.46552 5.69181 3.40254H5.71228C6.26509 3.29757 6.89978 3.23458 7.57543 3.21359C7.63685 3.21359 7.71875 3.21359 7.78017 3.1926C7.86207 3.1926 7.96444 3.1926 8.04634 3.1716L8.06681 3.15061C8.14871 3.08762 8.14871 2.73072 8.14871 2.60475V2.52077C8.14871 2.18486 8.04634 1.82795 7.86207 1.51304C7.55496 0.988176 7.06358 0.736242 6.36746 0.715248C5.3847 0.694253 4.25862 0.883203 2.90733 1.2821H2.86638Z"/>
			<path d="M7.10427 12.7438C7.0838 12.8488 7.0019 12.8908 6.92001 12.8908C6.89953 12.8908 6.89953 12.8908 6.87906 12.8908L5.8144 12.6389L4.91354 13.2477C4.87259 13.2687 4.85212 13.2897 4.81117 13.2897C4.74975 13.2897 4.68833 13.2477 4.64738 13.1847C4.58595 13.1008 4.60643 12.9748 4.7088 12.9118L5.2616 12.5549L4.72927 12.4289C4.6269 12.4079 4.56548 12.303 4.58595 12.198C4.60643 12.093 4.7088 12.03 4.81117 12.051L5.73251 12.261L6.55147 11.7151C6.65384 11.6521 6.75621 11.6731 6.81764 11.7781C6.87906 11.8621 6.85858 11.988 6.75621 12.051L6.26483 12.3659L6.96096 12.5129C7.06333 12.5339 7.12475 12.6389 7.10427 12.7438Z"/>
			<path d="M4.81096 13.4153C4.68812 13.4153 4.58575 13.3523 4.52432 13.2474C4.48338 13.1634 4.4629 13.0794 4.48338 12.9954C4.50385 12.9115 4.56527 12.8275 4.62669 12.7645L4.89286 12.5965L4.68812 12.5545C4.50385 12.5126 4.381 12.3236 4.42195 12.1347C4.44243 12.0507 4.50385 11.9667 4.56527 11.9247C4.64717 11.8827 4.72907 11.8617 4.81096 11.8827L5.67088 12.0717L6.44889 11.5678C6.53079 11.5258 6.61269 11.5048 6.71506 11.5258C6.79695 11.5468 6.87885 11.6098 6.9198 11.6728C6.96075 11.7568 6.98122 11.8407 6.96075 11.9247C6.94027 12.0087 6.87885 12.0927 6.81743 12.1556L6.61269 12.2816L6.96075 12.3656C7.14501 12.4076 7.26786 12.5965 7.22691 12.7855C7.18596 12.9534 7.06312 13.0584 6.89933 13.0584C6.87885 13.0584 6.85838 13.0584 6.81743 13.0584L5.83467 12.8065L4.99523 13.3523C4.93381 13.3943 4.87238 13.4153 4.81096 13.4153ZM4.77001 12.1556C4.74954 12.1556 4.74954 12.1556 4.74954 12.1556C4.74954 12.1556 4.72907 12.1766 4.72907 12.1976C4.72907 12.2186 4.72907 12.2396 4.72907 12.2396C4.72907 12.2396 4.74954 12.2606 4.77001 12.2606L5.6504 12.4706L4.77001 13.0164C4.74954 13.0374 4.74954 13.0374 4.74954 13.0584C4.74954 13.0584 4.74954 13.0794 4.74954 13.1004C4.77001 13.1214 4.79049 13.1424 4.83144 13.1214L5.77325 12.5126L6.89933 12.7645C6.94027 12.7645 6.96075 12.7435 6.96075 12.7225C6.96075 12.7015 6.94027 12.6595 6.9198 12.6595L5.89609 12.4286L6.67411 11.9247C6.69458 11.9037 6.69458 11.9037 6.69458 11.8827C6.69458 11.8827 6.69458 11.8617 6.69458 11.8407C6.67411 11.8197 6.67411 11.8197 6.65364 11.8197C6.65364 11.8197 6.63316 11.8197 6.61269 11.8197L5.75277 12.3866L4.77001 12.1556Z"/>
			<path d="M6.90014 11.1472C6.87967 11.2521 6.79777 11.2941 6.71587 11.2941C6.6954 11.2941 6.6954 11.2941 6.67492 11.2941L5.61027 11.0422L4.70941 11.63C4.66846 11.651 4.64798 11.672 4.60703 11.672C4.54561 11.672 4.48419 11.63 4.44324 11.5671C4.38182 11.4831 4.40229 11.3571 4.50466 11.2941L5.07794 10.9372L4.50466 10.8113C4.40229 10.7903 4.34087 10.6853 4.36134 10.5803C4.38182 10.4753 4.48419 10.4124 4.58656 10.4334L5.5079 10.6433L6.34734 10.0764C6.42923 10.0135 6.55208 10.0345 6.6135 10.1394C6.67492 10.2234 6.65445 10.3494 6.55208 10.4124L6.0607 10.7273L6.75682 10.8742C6.85919 10.9162 6.92061 11.0422 6.90014 11.1472Z"/>
			<path d="M4.58555 11.8191C4.46271 11.8191 4.36034 11.7561 4.29891 11.6512C4.19654 11.4832 4.23749 11.2733 4.40128 11.1683L4.66745 11.0003L4.46271 10.9584C4.38081 10.9374 4.29891 10.8744 4.25796 10.8114C4.21702 10.7274 4.19654 10.6434 4.21702 10.5385C4.25796 10.3495 4.44223 10.2445 4.6265 10.2655L5.48641 10.4545L6.26443 9.95062C6.34633 9.90863 6.42822 9.88763 6.51012 9.90863C6.59202 9.92962 6.67391 9.9926 6.71486 10.0556C6.81723 10.2025 6.77628 10.4335 6.61249 10.5385L6.40775 10.6644L6.75581 10.7484C6.94008 10.7904 7.06292 10.9793 7.02197 11.1683C6.98103 11.3363 6.85818 11.4412 6.69439 11.4412C6.67391 11.4412 6.65344 11.4412 6.61249 11.4412L5.60926 11.2103L4.76982 11.7561C4.72887 11.7981 4.66745 11.8191 4.58555 11.8191ZM4.5446 10.5595C4.52413 10.5595 4.50365 10.5804 4.48318 10.6014C4.48318 10.6224 4.48318 10.6434 4.48318 10.6434C4.48318 10.6434 4.50365 10.6644 4.52413 10.6644L5.40452 10.8744L4.5446 11.4412C4.52413 11.4622 4.50365 11.4832 4.52413 11.5252C4.5446 11.5462 4.56508 11.5672 4.58555 11.5462L5.52736 10.9374L6.65344 11.1893C6.69439 11.1893 6.71486 11.1683 6.71486 11.1473C6.71486 11.1263 6.69439 11.0843 6.67391 11.0843L5.65021 10.8534L6.4487 10.3495C6.46917 10.3285 6.48965 10.3075 6.46917 10.2655C6.4487 10.2445 6.4487 10.2445 6.42822 10.2445C6.42822 10.2445 6.40775 10.2445 6.38728 10.2445L5.50689 10.8114L4.5446 10.5595C4.56508 10.5595 4.56508 10.5595 4.5446 10.5595Z"/>
			<path d="M16.8517 5.68949C15.6642 5.05966 14.5381 4.63977 13.4939 4.45082C12.1631 4.21988 11.2008 4.84971 10.6889 6.31933C10.6889 6.31933 10.5456 6.84419 10.5866 7.22209C10.3204 7.22209 10.0542 7.24308 9.78808 7.45303C9.15338 7.9359 8.88722 8.94363 9.01006 10.4132C9.09196 11.505 9.41954 12.3447 9.95187 12.9326C9.91092 12.9746 9.86998 13.0376 9.8495 13.1005L9.01006 15.6829L8.96911 15.8088L8.68248 16.7116C8.64153 16.8376 8.662 16.9635 8.70295 17.0685C8.76437 17.1735 8.84627 17.2574 8.96911 17.2994L13.3711 18.811C13.412 18.832 13.4734 18.832 13.5144 18.832C13.7191 18.832 13.8829 18.7061 13.9443 18.5171L15.1523 14.9061C15.1523 14.8641 15.1728 14.8431 15.1728 14.8011C15.1933 14.8011 15.1933 14.8011 15.2137 14.7801C15.3161 14.7381 17.773 13.5204 18.8376 9.40551C18.8376 9.38452 19.3086 6.69723 16.8517 5.68949ZM13.5963 18.3911C13.5758 18.4331 13.5348 18.4541 13.5144 18.4331L9.11243 16.9215C9.09196 16.9215 9.07148 16.9005 9.07148 16.8795C9.07148 16.8795 9.05101 16.8586 9.07148 16.8376L9.31717 16.0608L13.842 17.6353L13.5963 18.3911ZM13.9648 17.2784L9.44002 15.7039L9.86998 14.3602L14.3948 15.9348L13.9648 17.2784ZM14.7838 14.7801L14.5381 15.5569L10.0133 13.9823L10.2385 13.2265C10.259 13.1845 10.2795 13.1845 10.2999 13.1845H10.3204L14.7223 14.6961C14.7428 14.6961 14.7633 14.7171 14.7633 14.7381C14.7838 14.7171 14.7838 14.7381 14.7838 14.7801ZM18.4486 9.32154C17.9368 11.274 17.0973 12.5547 16.3808 13.3315C15.6846 14.0663 15.1114 14.3812 15.0499 14.4232C15.009 14.3602 14.9476 14.3182 14.8657 14.2972L10.4637 12.7856C10.4433 12.7856 10.4023 12.7646 10.3818 12.7646C9.82903 12.2398 9.50144 11.442 9.41955 10.3713C9.31717 9.04861 9.52192 8.16684 10.0338 7.76794C10.218 7.62098 10.4228 7.62098 10.6889 7.62098H10.7913C10.8527 7.62098 10.8937 7.62098 10.9551 7.62098L10.9346 7.22209C10.9551 7.22209 10.9756 6.59225 11.037 6.44529C11.4874 5.14363 12.2655 4.61877 13.412 4.82872C14.4357 5.01767 15.5208 5.41656 16.6674 6.0254H16.6879H16.7083C18.8376 6.94916 18.4486 9.23756 18.4486 9.32154Z"/>
			<path d="M13.5336 18.9992C13.4722 18.9992 13.4108 18.9782 13.3494 18.9572L8.94742 17.4456C8.8041 17.4037 8.66078 17.2777 8.59936 17.1307C8.53794 16.9838 8.51746 16.8158 8.55841 16.6688L9.74591 13.0368C9.76639 12.9948 9.76639 12.9738 9.78686 12.9318C9.27501 12.323 8.9679 11.4832 8.886 10.4125C8.76315 8.8799 9.04979 7.83017 9.72544 7.32631C9.97113 7.13736 10.2168 7.09537 10.442 7.07437C10.442 6.69647 10.5444 6.27658 10.5444 6.25559C11.0767 4.702 12.1004 4.03017 13.5132 4.28211C14.5778 4.47106 15.7039 4.89095 16.8709 5.52078L16.8914 5.54178C19.4711 6.5915 18.9593 9.38377 18.9388 9.42576C17.9151 13.4147 15.6015 14.7164 15.2739 14.8843C15.2739 14.9053 15.2739 14.9053 15.2535 14.9263L14.066 18.5584C14.025 18.8103 13.7998 18.9992 13.5336 18.9992ZM9.13169 15.8501L8.82458 16.7738C8.8041 16.8578 8.8041 16.9418 8.84505 17.0048C8.886 17.0887 8.94742 17.1307 9.02932 17.1727L13.4313 18.6843C13.5951 18.7473 13.7793 18.6423 13.8407 18.4744L15.0282 14.8423C15.0282 14.8213 15.0487 14.8003 15.0487 14.7793V14.6744L15.1716 14.6324C15.2535 14.5904 17.6489 13.4147 18.6931 9.36277C18.6931 9.34178 19.1435 6.78045 16.8095 5.8147H16.789C15.622 5.18487 14.5164 4.76498 13.4722 4.59702C12.2233 4.36609 11.3019 4.99592 10.831 6.38156C10.7901 6.50752 10.7082 6.92741 10.7491 7.22133L10.7696 7.38929H10.6058C10.3806 7.38929 10.1349 7.41028 9.88923 7.57824C9.29548 8.04012 9.04979 8.98487 9.17264 10.4125C9.25453 11.4622 9.56165 12.281 10.094 12.8479L10.1963 12.9528L10.1144 13.0578C10.094 13.0998 10.0735 13.1208 10.053 13.1628L9.13169 15.8501ZM13.5336 18.5793C13.5132 18.5793 13.4927 18.5793 13.4517 18.5584L9.04979 17.0677C8.98837 17.0468 8.94742 17.0048 8.92695 16.9418C8.90647 16.8998 8.90647 16.8368 8.92695 16.7948L9.23406 15.8711L14.025 17.5506L13.7384 18.4324C13.7179 18.4954 13.6769 18.5374 13.636 18.5584C13.5951 18.5793 13.5746 18.5793 13.5336 18.5793ZM13.5541 18.2854C13.5541 18.3064 13.5541 18.3064 13.5541 18.2854V18.2854ZM9.23406 16.8158L13.4927 18.2644L13.6565 17.7396L9.41833 16.249L9.23406 16.8158ZM14.0455 17.4456L9.25453 15.7661L9.78686 14.1495L14.5778 15.8291L14.0455 17.4456ZM9.62307 15.5981L13.8612 17.0887L14.2093 16.039L9.97113 14.5484L9.62307 15.5981ZM14.6188 15.7451L9.82781 14.0655L10.1144 13.1838C10.1554 13.0998 10.2373 13.0368 10.3192 13.0368C10.3397 13.0368 10.3601 13.0368 10.4011 13.0578L14.7826 14.5484C14.844 14.5694 14.8849 14.6114 14.9054 14.6534C14.9259 14.6954 14.9463 14.7584 14.9259 14.8213L14.6188 15.7451ZM10.1759 13.8766L14.414 15.3672L14.5983 14.8003L10.3397 13.3517L10.1759 13.8766ZM15.0078 14.5904L14.9463 14.5274C14.9054 14.4854 14.8644 14.4644 14.8235 14.4434L10.4216 12.9318C10.4011 12.9318 10.3806 12.9108 10.3601 12.9108H10.3192L10.2782 12.8898C9.70497 12.344 9.3569 11.5042 9.27501 10.4125C9.17264 9.02686 9.39785 8.1031 9.95065 7.68321C10.1759 7.51526 10.442 7.51526 10.6877 7.51526H10.7901H10.8106L10.7901 7.11636H10.8106C10.8106 7.09537 10.8106 7.05338 10.8106 7.01139C10.831 6.73846 10.8515 6.52852 10.8925 6.42354C11.3634 5.0799 12.2028 4.49205 13.4108 4.72299C14.455 4.91194 15.5606 5.31084 16.7071 5.94067L16.7481 5.96167C18.9183 6.86443 18.6112 9.11084 18.5703 9.36277V9.38377C18.0379 11.4412 17.1371 12.7429 16.4614 13.4567C15.7653 14.2125 15.1511 14.5484 15.0897 14.5694L15.0078 14.5904ZM10.442 12.6379C10.4625 12.6379 10.483 12.6589 10.5035 12.6589L14.9054 14.1705C14.9668 14.1915 15.0078 14.2125 15.0692 14.2545C15.2535 14.1495 15.7244 13.8346 16.2772 13.2467C16.9119 12.5539 17.7922 11.2943 18.3041 9.29979C18.3451 9.04785 18.6112 7.03238 16.6662 6.2136C16.6457 6.2136 16.6457 6.2136 16.6252 6.19261C16.6252 6.19261 16.6047 6.19261 16.5843 6.17161C15.4787 5.56277 14.3935 5.16388 13.3903 4.99592C12.3052 4.80697 11.6091 5.28984 11.1791 6.50752C11.1586 6.57051 11.1177 6.86443 11.1177 7.01139C11.1177 7.11636 11.0972 7.17935 11.0972 7.22133L11.1177 7.7462H10.9744C10.9129 7.7462 10.8515 7.7462 10.7901 7.7462H10.6877C10.4216 7.7462 10.2578 7.7462 10.1144 7.85117C9.64354 8.20808 9.4388 9.04785 9.54117 10.3285C9.62307 11.3782 9.93018 12.134 10.442 12.6379Z"/>
			<path d="M9.03118 15.6836L8.99023 15.8096C8.99023 15.7886 8.99023 15.7676 8.99023 15.7466C9.01071 15.7256 9.01071 15.7046 9.03118 15.6836Z"/>
			<path d="M8.8457 16.6703V15.8095C8.8457 15.7675 8.8457 15.7255 8.86618 15.6835C8.88665 15.6416 8.90713 15.5996 8.9276 15.5786L9.41898 15.0117L8.8457 16.6703Z"/>
		</g>
	</symbol>

	<symbol id="toys" viewBox="0 0 19 19">
		<g>
			<path d="M4.25503 18.113C3.16282 18.113 2.27539 17.3085 2.27539 16.3182C2.27539 15.328 3.16282 14.5234 4.25503 14.5234C5.34725 14.5234 6.23467 15.328 6.23467 16.3182C6.23467 17.3085 5.34725 18.113 4.25503 18.113ZM4.25503 15.1423C3.54964 15.1423 2.95803 15.6581 2.95803 16.3182C2.95803 16.9577 3.52689 17.4941 4.25503 17.4941C4.96042 17.4941 5.55204 16.9784 5.55204 16.3182C5.55204 15.6581 4.98318 15.1423 4.25503 15.1423Z"/>
			<path d="M14.7218 18.113C13.6296 18.113 12.7422 17.3085 12.7422 16.3182C12.7422 15.328 13.6296 14.5234 14.7218 14.5234C15.814 14.5234 16.7015 15.328 16.7015 16.3182C16.7015 17.3085 15.814 18.113 14.7218 18.113ZM14.7218 15.1423C14.0164 15.1423 13.4248 15.6581 13.4248 16.3182C13.4248 16.9577 13.9937 17.4941 14.7218 17.4941C15.4272 17.4941 16.0188 16.9784 16.0188 16.3182C16.0188 15.6581 15.45 15.1423 14.7218 15.1423Z"/>
			<path d="M4.25458 18.9994C3.50368 18.9994 2.73003 18.7312 2.16116 18.2155C1.00069 17.1633 1.00069 15.4717 2.16116 14.4196L4.5959 12.2122C4.57314 11.9853 4.55039 11.779 4.55039 11.5933C4.55039 11.0982 4.61865 10.6237 4.75518 10.1492L1.22823 8.78767H1.20548C0.727632 8.602 0.340805 8.25129 0.136015 7.81807C-0.0687757 7.38484 -0.0687757 6.88973 0.136015 6.4565C0.340805 6.02328 0.727632 5.67257 1.20548 5.48691C1.68332 5.30124 2.22943 5.30124 2.70727 5.48691L6.43901 6.88973C6.50727 6.91036 6.55278 6.95162 6.57554 6.99288C7.25817 7.8387 8.30488 8.31318 9.4426 8.31318C10.5803 8.31318 11.627 7.8387 12.3097 6.99288C12.3552 6.95162 12.4007 6.91036 12.4462 6.88973L16.1779 5.48691C17.1791 5.11557 18.3396 5.5488 18.7492 6.4565C18.954 6.88973 18.954 7.38484 18.7492 7.81807C18.5444 8.25129 18.1576 8.602 17.6797 8.78767C17.6797 8.78767 17.6797 8.78767 17.657 8.78767L14.1073 10.1286C14.2438 10.6031 14.3121 11.0982 14.3121 11.5727C14.3121 11.779 14.2893 11.9853 14.2666 12.1916L16.724 14.4196C17.8845 15.4717 17.8845 17.1633 16.724 18.2155C15.5636 19.2676 13.6977 19.2676 12.56 18.2155C12.56 18.2155 12.56 18.2155 12.5372 18.1948L10.6258 16.4619C9.82943 16.6682 8.98751 16.6682 8.1911 16.4619L6.25697 18.2155C5.77913 18.7312 5.02823 18.9994 4.25458 18.9994ZM2.66176 14.8528C1.77434 15.6574 1.77434 16.9777 2.66176 17.7822C3.54919 18.5868 4.98272 18.5868 5.87015 17.7822L7.94081 15.9049C8.03182 15.8224 8.16835 15.8018 8.28212 15.8224C9.07853 16.07 9.89769 16.07 10.6941 15.8224C10.8079 15.7811 10.9444 15.8224 11.0354 15.9049L13.1061 17.7822C13.9935 18.5868 15.427 18.5868 16.3145 17.7822C17.2019 16.9777 17.2019 15.678 16.3145 14.8734L13.766 12.5216C13.6977 12.4598 13.6522 12.3566 13.6749 12.2535C13.7204 12.0059 13.7432 11.7583 13.7432 11.5521C13.7432 11.0363 13.6522 10.5206 13.4701 10.0254C13.4246 9.88104 13.4929 9.716 13.6749 9.65411L17.5204 8.21003C17.5204 8.21003 17.5204 8.21003 17.5432 8.21003C17.8618 8.08625 18.1121 7.85933 18.2258 7.57051C18.3624 7.28169 18.3624 6.97225 18.2258 6.6628C17.9528 6.06454 17.2019 5.77572 16.542 6.02328L12.8785 7.40547C12.0821 8.35444 10.8306 8.91144 9.51087 8.91144C8.1911 8.91144 6.93961 8.35444 6.1432 7.40547L2.47973 6.02328C2.16116 5.8995 1.81985 5.8995 1.47853 6.02328C1.13721 6.14706 0.909667 6.39462 0.77314 6.68343C0.636614 6.97225 0.636614 7.28169 0.77314 7.59114C0.909667 7.87996 1.13721 8.10688 1.45578 8.21003L5.30128 9.65411C5.46057 9.716 5.55158 9.88104 5.50608 10.0254C5.32404 10.5206 5.23302 11.0363 5.23302 11.5521C5.23302 11.7583 5.25578 11.9853 5.30128 12.2535C5.32404 12.3566 5.27853 12.4391 5.21027 12.5216L2.66176 14.8528Z"/>
			<path d="M9.48696 8.91205C7.14325 8.91205 5.23187 7.17915 5.23187 5.05429C5.23187 4.86862 5.25462 4.66232 5.27738 4.47666C4.43546 4.06406 3.91211 3.2595 3.91211 2.39305C3.91211 1.07275 5.09534 0 6.55163 0C7.50732 0 8.39474 0.474484 8.84983 1.23779C9.28217 1.1759 9.7145 1.1759 10.1241 1.23779C10.5792 0.474484 11.4666 0 12.4223 0C13.8786 0 15.0618 1.07275 15.0618 2.39305C15.0618 3.2595 14.5385 4.06406 13.6965 4.47666C13.7193 4.66232 13.7421 4.86862 13.7421 5.05429C13.7648 7.17915 11.8534 8.91205 9.48696 8.91205ZM6.55163 0.618893C5.48217 0.618893 4.59474 1.40282 4.59474 2.39305C4.59474 3.09446 5.07259 3.73398 5.77798 4.0228C5.93726 4.08469 6.00552 4.2291 5.98277 4.37351C5.93726 4.60043 5.89175 4.82736 5.89175 5.05429C5.89175 6.84908 7.50732 8.29316 9.4642 8.29316C11.4438 8.29316 13.0367 6.82845 13.0367 5.05429C13.0367 4.82736 13.0139 4.60043 12.9456 4.37351C12.9001 4.2291 12.9912 4.08469 13.1504 4.0228C13.8786 3.75461 14.3337 3.11509 14.3337 2.39305C14.3337 1.42345 13.469 0.618893 12.3768 0.618893C11.6031 0.618893 10.8977 1.05212 10.5792 1.69164C10.5109 1.83605 10.3516 1.89794 10.1923 1.87731C9.69175 1.77416 9.1684 1.77416 8.6678 1.87731C8.50852 1.91857 8.34924 1.83605 8.28097 1.69164C8.03067 1.05212 7.32528 0.618893 6.55163 0.618893Z"/>
			<path d="M12.9922 3.75621C12.8785 3.75621 12.7419 3.69432 12.6964 3.59117C12.3551 2.97228 11.7862 2.45653 11.1036 2.14709C10.9443 2.06457 10.8761 1.89953 10.9443 1.73449C11.2174 1.19812 11.7862 0.888672 12.4234 0.888672C13.3335 0.888672 14.0844 1.56945 14.0844 2.37401C14.0844 2.95165 13.7204 3.46739 13.1515 3.71495C13.106 3.75621 13.0377 3.75621 12.9922 3.75621ZM11.7407 1.77575C12.2868 2.0852 12.7647 2.51842 13.106 3.01354C13.288 2.8485 13.4018 2.62157 13.4018 2.39464C13.4018 1.92016 12.9695 1.52819 12.4234 1.52819C12.1731 1.50756 11.9228 1.61071 11.7407 1.77575Z"/>
			<path d="M5.98352 3.75511C5.93801 3.75511 5.89251 3.75511 5.847 3.73448C5.27813 3.48692 4.91406 2.95055 4.91406 2.39355C4.91406 1.56836 5.66496 0.908203 6.55238 0.908203C7.18951 0.908203 7.75837 1.23828 8.03143 1.75402C8.09969 1.89843 8.03143 2.0841 7.87214 2.16662C7.18951 2.47606 6.62065 2.99181 6.27933 3.6107C6.23382 3.69322 6.12005 3.75511 5.98352 3.75511ZM6.55238 1.50647C6.02903 1.50647 5.5967 1.89843 5.5967 2.37292C5.5967 2.62047 5.71047 2.82677 5.89251 2.99181C6.23382 2.49669 6.71167 2.06347 7.25777 1.75402C7.05298 1.60961 6.82544 1.50647 6.55238 1.50647Z"/>
			<path d="M9.4871 15.2647C7.50746 15.2647 5.86914 13.6143 5.86914 11.572C5.86914 10.066 6.75657 8.72509 8.12183 8.14746C8.1901 8.1062 8.28112 8.1062 8.37213 8.12683C9.10028 8.33313 9.87393 8.33313 10.6021 8.12683C10.6931 8.1062 10.7841 8.1062 10.8524 8.14746C12.2176 8.72509 13.1051 10.066 13.1051 11.572C13.1051 13.6143 11.4895 15.2647 9.4871 15.2647ZM8.30387 8.76635C7.23441 9.26147 6.57453 10.3548 6.57453 11.572C6.57453 13.2636 7.89429 14.6458 9.50986 14.6458C11.1254 14.6458 12.4452 13.2636 12.4452 11.572C12.4452 10.3548 11.7626 9.26147 10"/>
			<path d="M9.48913 6.51915C9.17057 6.51915 8.852 6.35411 8.64721 6.08593L8.57895 5.98278C8.32865 5.67333 8.26039 5.34326 8.41967 5.0957C8.53344 4.8894 8.78374 4.76562 9.1023 4.76562H9.89871C10.2173 4.76562 10.4676 4.8894 10.5813 5.0957C10.7179 5.34326 10.6496 5.6527 10.4221 5.98278L10.3538 6.0653C10.1263 6.35411 9.83045 6.51915 9.48913 6.51915ZM9.01129 5.40515C9.01129 5.44641 9.03404 5.52893 9.12506 5.63207L9.19332 5.71459C9.3526 5.92089 9.6029 5.92089 9.76218 5.71459L9.83045 5.63207C9.92147 5.5083 9.94422 5.44641 9.94422 5.40515C9.92147 5.40515 9.89871 5.40515 9.87596 5.40515H9.1023C9.05679 5.40515 9.03404 5.40515 9.01129 5.40515Z"/>
			<path d="M9.4878 7.69518C9.30577 7.69518 9.14648 7.55077 9.14648 7.38574V6.20984C9.14648 6.0448 9.30577 5.90039 9.4878 5.90039C9.66984 5.90039 9.82912 6.0448 9.82912 6.20984V7.38574C9.82912 7.55077 9.69259 7.69518 9.4878 7.69518Z"/>
			<path d="M9.48717 7.73687C8.69076 7.73687 7.96261 7.44805 7.39375 6.95294C7.32549 6.89105 7.30273 6.80853 7.30273 6.72601C7.30273 6.64349 7.32549 6.56097 7.39375 6.49908C7.53028 6.37531 7.73507 6.37531 7.8716 6.49908C8.30393 6.89105 8.87279 7.09735 9.48717 7.09735C10.1015 7.09735 10.6704 6.89105 11.1027 6.49908C11.2393 6.37531 11.4441 6.37531 11.5806 6.49908C11.6488 6.56097 11.6716 6.64349 11.6716 6.72601C11.6716 6.80853 11.6488 6.89105 11.5806 6.95294C11.0345 7.44805 10.2836 7.73687 9.48717 7.73687Z"/>
			<path d="M8.85101 4.16772H7.87257C7.69053 4.16772 7.53125 4.02331 7.53125 3.85827C7.53125 3.69324 7.69053 3.54883 7.87257 3.54883H8.85101C9.03305 3.54883 9.19233 3.69324 9.19233 3.85827C9.19233 4.02331 9.03305 4.16772 8.85101 4.16772Z"/>
			<path d="M11.1264 4.16772H10.148C9.96592 4.16772 9.80664 4.02331 9.80664 3.85827C9.80664 3.69324 9.96592 3.54883 10.148 3.54883H11.1264C11.3084 3.54883 11.4677 3.69324 11.4677 3.85827C11.4677 4.02331 11.3084 4.16772 11.1264 4.16772Z"/>
		</g>
	</symbol>

	<symbol id="search" viewBox="0 0 20 20">
		<g>
			<path d="M8.36554 16.359C10.1393 16.3586 11.8619 15.7511 13.2591 14.6331L17.6521 19.1277L19.0651 17.682L14.6722 13.1874C15.7654 11.7577 16.3596 9.99476 16.36 8.17949C16.36 3.66952 12.7735 0 8.36554 0C3.9576 0 0.371094 3.66952 0.371094 8.17949C0.371094 12.6895 3.9576 16.359 8.36554 16.359ZM8.36554 2.04487C11.6722 2.04487 14.3614 4.79625 14.3614 8.17949C14.3614 11.5627 11.6722 14.3141 8.36554 14.3141C5.05884 14.3141 2.36971 11.5627 2.36971 8.17949C2.36971 4.79625 5.05884 2.04487 8.36554 2.04487Z"/>
		</g>
	</symbol>

	<symbol id="arrow" viewBox="0 0 9 15">
		<g>
			<path fill-rule="evenodd" clip-rule="evenodd" d="M1.70711 14.7071L8.07107 8.34315C8.46159 7.95262 8.46159 7.31946 8.07107 6.92893L1.70711 0.564971C1.31658 0.174446 0.683418 0.174446 0.292893 0.564971C-0.0976311 0.955496 -0.0976311 1.58866 0.292893 1.97919L5.94975 7.63604L0.292893 13.2929C-0.0976311 13.6834 -0.0976311 14.3166 0.292893 14.7071C0.683418 15.0976 1.31658 15.0976 1.70711 14.7071Z"/>
		</g>
	</symbol>

	<symbol id="instagram" viewBox="0 0 40 40">
		<g>
			<path fill-rule="evenodd" clip-rule="evenodd" d="M20 40C8.95364 40 0 31.0455 0 20C0 8.95455 8.95364 0 20 0C31.0455 0 40 8.95455 40 20C40 31.0455 31.0455 40 20 40ZM20 1.35727C9.70364 1.35727 1.35727 9.70364 1.35727 20C1.35727 30.2955 9.70364 38.6427 20 38.6427C30.2955 38.6427 38.6418 30.2955 38.6418 20C38.6418 9.70364 30.2955 1.35727 20 1.35727ZM23.7 29H16.3045C14.7882 29 13.4773 28.5064 12.5145 27.5718C11.5227 26.6091 10.9991 25.2691 10.9991 23.6955V16.2609C10.9991 13.1136 13.1145 10.9982 16.2636 10.9982H23.7409C25.2782 10.9982 26.5964 11.5073 27.5536 12.4718C28.5036 13.4282 29.0055 14.7391 29.0055 16.2609V23.7373C29.0055 25.3 28.4927 26.6273 27.5218 27.5755C26.5673 28.5073 25.2455 29 23.7 29ZM27.3482 16.2609C27.3482 15.1855 27.0127 14.2791 26.3773 13.6391C25.7382 12.9955 24.8273 12.6555 23.7409 12.6555H16.2636C15.1709 12.6555 14.2591 12.9873 13.6273 13.6164C12.9918 14.2473 12.6564 15.1627 12.6564 16.2609V23.6955C12.6564 24.8109 13.0064 25.74 13.6691 26.3827C14.3164 27.0109 15.2282 27.3427 16.3045 27.3427H23.7C24.8036 27.3427 25.7245 27.0136 26.3636 26.39C27.0073 25.7609 27.3482 24.8436 27.3482 23.7373V16.2609ZM24.8091 16.2555C24.2282 16.2555 23.7573 15.7845 23.7573 15.2036C23.7573 14.6227 24.2282 14.1518 24.8091 14.1518C25.39 14.1518 25.8609 14.6227 25.8609 15.2036C25.8609 15.7845 25.39 16.2555 24.8091 16.2555ZM20.0018 24.5791C17.4482 24.5791 15.37 22.5018 15.37 19.9482C15.37 17.3945 17.4482 15.3173 20.0018 15.3173C22.5564 15.3173 24.6345 17.3945 24.6345 19.9482C24.6345 22.5018 22.5564 24.5791 20.0018 24.5791ZM20.0018 16.9736C18.3618 16.9736 17.0273 18.3082 17.0273 19.9482C17.0273 21.5882 18.3618 22.9227 20.0018 22.9227C21.6427 22.9227 22.9773 21.5882 22.9773 19.9482C22.9773 18.3082 21.6427 16.9736 20.0018 16.9736Z"/>
		</g>
	</symbol>

	<symbol id="facebook" viewBox="0 0 40 40">
		<g>
			<path fill-rule="evenodd" clip-rule="evenodd" d="M19.9352 39.973C8.92246 39.973 -0.00390625 31.0257 -0.00390625 19.9885C-0.00390625 8.95118 8.92246 0.00390625 19.9352 0.00390625C30.947 0.00390625 39.8734 8.95118 39.8734 19.9885C39.8734 31.0257 30.947 39.973 19.9352 39.973ZM19.9352 1.36027C9.66973 1.36027 1.34882 9.70027 1.34882 19.9885C1.34882 30.2766 9.66973 38.6166 19.9352 38.6166C30.1997 38.6166 38.5206 30.2766 38.5206 19.9885C38.5206 9.70027 30.1997 1.36027 19.9352 1.36027ZM22.9234 17.3639L22.6897 19.7448H20.8852C20.8852 22.7639 20.8852 26.4821 20.8852 26.4821H18.2106C18.2106 26.4821 18.2106 22.8003 18.2106 19.7448H16.9388V17.3639H18.2106V15.8239C18.2106 14.7212 18.7106 12.9975 20.9097 12.9975L22.8897 13.0057V15.3166C22.8897 15.3166 21.6861 15.3166 21.4525 15.3166C21.2179 15.3166 20.8852 15.4394 20.8852 15.9648V17.3639H22.9234Z"/>
		</g>
	</symbol>

	<symbol id="youtube" viewBox="0 0 40 40">
		<g>
			<path fill-rule="evenodd" clip-rule="evenodd" d="M20 40C8.95364 40 0 31.0455 0 20C0 8.95455 8.95364 0 20 0C31.0455 0 40 8.95455 40 20C40 31.0455 31.0455 40 20 40ZM20 1.35727C9.70364 1.35727 1.35727 9.70364 1.35727 20C1.35727 30.2955 9.70364 38.6427 20 38.6427C30.2955 38.6427 38.6427 30.2955 38.6427 20C38.6427 9.70364 30.2955 1.35727 20 1.35727ZM23.36 24.5455H16.64C13.3318 24.5455 12.7273 23.2755 12.7273 20.7755V18.3155C12.7273 17.0245 12.7273 16.0918 13.2373 15.4591C13.76 14.81 14.7455 14.5455 16.64 14.5455H23.36C25.2109 14.5455 26.1809 14.7936 26.7055 15.4036C27.2327 16.0164 27.2727 16.9545 27.2727 18.3155V20.7755C27.2727 22.3345 27.0209 23.2364 26.4309 23.7873C25.8545 24.3255 24.9655 24.5455 23.36 24.5455ZM22.0645 19.0718L19.0127 17.5236C18.8673 17.45 18.6927 17.4555 18.5527 17.5391C18.4127 17.6218 18.3273 17.7709 18.3273 17.9309V21.0364C18.3273 21.1973 18.4127 21.3455 18.5536 21.4291C18.6282 21.4727 18.7118 21.4955 18.7964 21.4955C18.8709 21.4955 18.9455 21.4782 19.0136 21.4427L22.0655 19.8845C22.22 19.8055 22.3173 19.6491 22.3173 19.4782C22.3173 19.3073 22.2191 19.1509 22.0645 19.0718Z"/>
		</g>
	</symbol>
</svg>