<svg width="20" height="18" viewBox="0 0 20 18" fill="none" xmlns="http://www.w3.org/2000/svg">
<path d="M14.7809 7.50159C14.725 7.50159 14.6662 7.50159 14.6103 7.50159C10.2694 7.50159 5.92851 7.50159 1.58762 7.50159C0.840611 7.50159 0.261237 7.92109 0.0612507 8.60166C-0.221084 9.56386 0.50828 10.5319 1.51704 10.5319C5.88145 10.5319 10.2488 10.5319 14.6132 10.5319C14.6691 10.5319 14.725 10.5319 14.8103 10.5319C14.7632 10.5818 14.7397 10.6111 14.7132 10.6375C13.9397 11.409 13.1692 12.1835 12.3928 12.9521C11.6517 13.6855 10.9076 14.413 10.1665 15.1464C9.70179 15.604 9.5665 16.2552 9.80766 16.8185C10.0635 17.414 10.6105 17.7689 11.2752 17.7513C11.6811 17.7396 12.0222 17.5753 12.3075 17.2878C13.6721 15.9237 15.0397 14.5597 16.4072 13.1985C17.4424 12.1688 18.4836 11.148 19.5188 10.1212C20.1599 9.48759 20.1599 8.54299 19.5217 7.90642C17.1189 5.50973 14.7162 3.1101 12.3104 0.716349C11.8899 0.296854 11.3723 0.153112 10.7958 0.31739C10.2194 0.481667 9.85472 0.865959 9.72826 1.45267C9.62238 1.9543 9.73708 2.41486 10.0988 2.78155C11.0664 3.76135 12.0457 4.72941 13.0192 5.70041C13.5751 6.25484 14.128 6.80928 14.6867 7.35785C14.722 7.39305 14.7838 7.40479 14.8338 7.42825C14.8191 7.45465 14.7985 7.47812 14.7809 7.50159Z" fill="black"/>
</svg>
