<svg width="114" height="18" fill="none" xmlns="http://www.w3.org/2000/svg"><path d="M33.745 4.557v9.753h-2.906v-.917c-.64.741-1.588 1.19-2.886 1.19-2.537 0-4.629-2.243-4.629-5.15 0-2.906 2.092-5.15 4.63-5.15 1.297 0 2.246.45 2.885 1.19v-.916h2.906zm-2.906 4.876c0-1.463-.968-2.38-2.305-2.38-1.336 0-2.304.917-2.304 2.38 0 1.463.968 2.38 2.304 2.38 1.337 0 2.305-.917 2.305-2.38zm11.444-5.07V7.68c-1.2-.194-2.905.293-2.905 2.225v4.409h-2.905V4.557h2.905v1.736c.388-1.307 1.685-1.93 2.905-1.93zm5.926 3.003v3.453c0 .838.716.917 1.994.838v2.653c-3.796.39-4.9-.76-4.9-3.492V7.367h-1.55v-2.81h1.55V2.704l2.906-.878v2.731h1.995v2.81H48.21v-.001zM58.086.07h2.905v14.24h-2.905V.07zm10.556 11.9c.794 0 1.472-.312 1.86-.74l2.323 1.346c-.949 1.326-2.382 2.009-4.222 2.009-3.312 0-5.365-2.243-5.365-5.15 0-2.906 2.092-5.15 5.152-5.15 2.828 0 4.92 2.204 4.92 5.15 0 .41-.039.8-.116 1.17h-6.876c.368 1.014 1.259 1.365 2.324 1.365zm1.782-3.55c-.31-1.131-1.182-1.54-2.053-1.54-1.105 0-1.84.545-2.112 1.54h4.165zm19.658-.098v5.988h-2.906V8.575c0-.976-.465-1.6-1.395-1.6-.968 0-1.51.684-1.51 1.834v5.501h-2.906V8.575c0-.976-.465-1.6-1.394-1.6-.97 0-1.511.684-1.511 1.834v5.501h-2.905V4.557h2.905v.897c.445-.663 1.297-1.17 2.595-1.17 1.142 0 1.995.467 2.537 1.287.542-.78 1.433-1.288 2.808-1.288 2.23 0 3.682 1.6 3.682 4.039zm2.109 1.111c0-2.906 2.286-5.15 5.133-5.15s5.133 2.244 5.133 5.15c0 2.907-2.286 5.15-5.133 5.15s-5.133-2.243-5.133-5.15zm7.36 0c0-1.385-.968-2.302-2.227-2.302-1.258 0-2.227.917-2.227 2.302s.968 2.302 2.227 2.302 2.228-.917 2.228-2.302zM114 8.323v5.989h-2.905v-5.56c0-1.21-.756-1.775-1.686-1.775-1.065 0-1.801.624-1.801 2.01v5.325h-2.905V4.558h2.905v.917c.523-.722 1.492-1.19 2.77-1.19 1.956 0 3.622 1.404 3.622 4.038z" fill="#fff"/><path d="M14.485 1.184H8.586c-4.59 0-8.313 3.748-8.313 8.372v5.942a2.429 2.429 0 002.414 2.43h5.899c4.591 0 8.312-3.748 8.312-8.372v-5.94c.001-1.338-1.085-2.432-2.413-2.432z" fill="#F8E015"/></svg>