<svg width="284" height="363" viewBox="0 0 284 363" fill="none" xmlns="http://www.w3.org/2000/svg">
<g opacity="0.5">
<path d="M113.563 273.427C113.611 274.617 113.754 275.807 113.706 276.998C113.706 279.283 113.611 281.569 113.658 283.807C113.754 287.331 113.897 290.807 114.087 294.33C114.182 295.664 114.563 296.902 114.754 298.235C115.087 300.759 115.42 303.282 115.801 305.854C115.801 306.044 115.849 306.282 115.849 306.473C115.801 307.378 115.42 307.568 114.658 307.092C113.992 306.711 113.468 306.187 112.897 305.806C112.468 305.473 111.992 305.092 111.516 304.806C109.182 303.33 106.849 301.854 104.516 300.378C103.611 299.759 102.802 299.045 101.945 298.473C99.9448 297.045 97.8972 295.664 95.8497 294.188C94.0403 292.854 92.1832 291.473 90.5166 289.902C86.8501 286.426 83.1836 282.95 79.2314 279.855C76.7077 277.807 74.3268 275.712 71.8031 273.665C68.6128 270.951 65.4224 268.332 62.2321 265.617C61.613 265.094 61.1369 264.522 60.5179 263.998C59.756 263.332 58.9465 262.618 58.1846 261.951C57.8513 261.618 57.4704 261.332 57.2323 260.999C56.5656 260.237 56.8037 259.618 57.7561 259.427C58.7084 259.237 59.7084 259.189 60.7083 259.046C63.3273 258.522 65.8986 258.237 68.5175 257.903C70.9936 257.618 73.6125 257.57 75.9934 256.427C77.3267 255.761 78.8028 255.523 80.2313 255.142C81.136 254.904 81.3741 254.38 81.4694 253.523C81.5646 251.428 81.6598 249.332 81.8979 247.19C82.0408 245.618 82.4217 243.999 82.6598 242.428C82.9931 240.476 83.3264 238.523 83.755 236.571C83.8978 235.666 84.5169 235.333 85.2787 235.714C85.5644 235.809 85.7549 236.095 85.9454 236.381C86.7549 237.666 87.4691 238.952 88.3738 240.142C90.7071 243.142 93.1831 245.999 95.564 248.951C95.8497 249.332 96.2306 249.428 96.6592 249.19C96.8973 249.047 97.0878 248.951 97.3258 248.809C100.373 247.094 103.564 245.809 106.849 244.714C108.278 244.237 109.659 243.523 111.04 242.904C111.849 242.571 112.659 242.237 113.468 241.999C114.373 241.761 114.611 241.999 114.563 242.904C114.42 244.952 114.23 246.952 114.135 248.951C114.039 250.951 114.087 252.999 114.039 255.046C113.944 258.951 113.849 262.856 113.706 266.808C113.658 269.046 113.611 271.284 113.611 273.474C113.611 273.379 113.563 273.427 113.563 273.427ZM113.992 302.902C114.135 302.854 114.182 302.806 114.325 302.759C114.087 300.711 114.039 298.664 113.611 296.616C112.754 292.807 112.849 288.997 112.659 285.188C112.563 283.283 112.801 281.331 112.849 279.379C112.849 277.093 112.706 274.76 112.754 272.427C112.754 268.808 112.897 265.141 112.992 261.522C113.039 259.38 113.182 257.237 113.039 255.094C112.897 252.666 112.897 250.285 113.087 247.904C113.182 246.475 113.182 245.142 113.23 243.761C112.992 243.714 112.897 243.714 112.849 243.761C110.801 244.666 108.706 245.618 106.611 246.475C105.802 246.809 104.849 246.999 104.04 247.332C100.183 249.094 96.3259 250.856 92.4689 252.713C91.1832 253.332 89.9452 254.094 88.6595 254.808C88.85 255.189 88.9452 255.475 89.0881 255.808C90.2785 258.142 91.3737 260.475 92.6117 262.76C93.6117 264.617 94.6593 266.427 95.6592 268.284C96.0878 268.998 96.564 269.76 96.9925 270.474C97.9449 272.284 98.8496 274.046 99.8495 275.807C100.945 277.76 102.23 279.712 103.278 281.712C104.468 284.045 105.802 286.331 107.325 288.521C107.897 289.378 108.278 290.426 108.706 291.426C108.992 292.092 109.182 292.759 109.516 293.378C110.182 294.711 110.897 295.997 111.563 297.33C112.182 298.521 112.754 299.759 113.325 300.997C113.42 301.664 113.658 302.283 113.992 302.902ZM58.8989 260.76C60.0417 261.903 61.1369 262.998 62.2797 263.951C64.3748 265.855 66.5176 267.808 68.6604 269.665C70.2793 271.093 72.0888 272.427 73.7554 273.808C76.0886 275.76 78.4219 277.712 80.8027 279.712C82.8026 281.426 84.8502 283.093 86.8025 284.855C88.7072 286.569 90.469 288.426 92.3737 290.14C93.5165 291.188 94.8021 292.092 96.0878 292.997C97.5163 294.045 99.0877 294.95 100.516 295.997C103.135 297.854 105.659 299.711 108.278 301.568C109.182 302.187 110.182 302.711 111.23 303.282C111.278 303.235 111.373 303.14 111.42 303.092C111.278 302.759 111.087 302.473 110.944 302.14C110.468 301.378 109.944 300.664 109.421 299.854C107.897 297.378 106.421 294.95 104.849 292.521C104.468 291.854 103.945 291.235 103.516 290.616C102.278 288.807 101.04 286.997 99.8019 285.188C98.6591 283.474 97.5163 281.76 96.3259 280.093C94.2783 277.284 92.2784 274.427 90.7071 271.331C89.7071 269.379 88.6119 267.522 87.5167 265.57C86.4215 263.617 85.2787 261.713 84.1359 259.808C83.4217 258.618 82.8026 257.427 82.136 256.284C81.9455 255.904 81.6598 255.808 81.2313 255.951C79.8504 256.38 78.4695 256.808 77.041 257.189C75.0411 257.761 73.1364 258.618 70.946 258.713C69.4699 258.761 67.9461 259.046 66.3748 259.284C63.9939 259.665 61.613 260.141 59.1846 260.57C59.137 260.522 59.0893 260.57 58.8989 260.76ZM111.468 300.759C111.516 300.711 111.611 300.616 111.659 300.568C111.182 299.616 110.611 298.664 110.135 297.711C109.182 295.807 108.23 293.997 107.468 291.997C107.04 290.997 106.659 290.045 106.087 289.093C105.135 287.569 104.183 286.14 103.278 284.569C102.516 283.331 101.945 281.998 101.183 280.76C99.8972 278.426 98.4686 276.141 97.183 273.808C96.3735 272.331 95.564 270.855 94.6593 269.379C93.945 268.093 93.0403 266.903 92.326 265.617C90.6594 262.522 89.1357 259.38 87.4691 256.284C87.2786 255.904 87.0406 255.475 86.7072 255.142C86.0882 254.523 85.8025 253.951 86.2787 253.094C86.3739 252.904 86.3263 252.666 86.2787 252.523C86.0406 251.047 85.8501 249.618 85.612 248.142C85.2787 245.999 84.8502 243.856 84.4692 241.666C84.4216 241.428 84.374 241.285 84.3264 241.047C83.755 242.856 83.2788 244.666 83.0883 246.475C82.8502 248.047 82.8979 249.713 82.6598 251.285C82.3741 253.38 82.8026 255.332 83.9454 257.046C84.1835 257.38 84.4216 257.713 84.6121 258.094C86.5168 261.522 88.4214 265.046 90.3261 268.474C92.5165 272.379 94.6593 276.236 97.3735 279.807C99.5638 282.76 101.469 285.902 103.564 288.95C105.468 291.807 107.421 294.711 109.278 297.616C110.135 298.664 110.801 299.711 111.468 300.759ZM94.6117 249.999C91.707 246.428 88.9452 243.095 86.1358 239.618C86.0882 244.237 87.231 248.428 87.9453 252.856C90.1357 251.904 92.2308 250.951 94.6117 249.999Z" fill="#738CA8"/>
<path d="M96.2771 257.283C96.0866 256.997 95.8962 256.712 95.8486 256.473C95.6105 255.759 95.42 255.093 95.1819 254.378C95.0867 253.997 95.0867 253.616 95.5152 253.474C95.9914 253.283 96.1819 253.569 96.3723 253.95C96.658 254.712 96.9437 255.474 97.1818 256.283C97.2771 256.854 96.8009 257.045 96.2771 257.283Z" fill="#738CA8"/>
<path d="M92.8492 254.712C92.9921 254.569 93.1349 254.236 93.4206 254.141C93.5635 254.093 93.9444 254.379 94.0396 254.569C94.373 255.569 94.7063 256.569 94.992 257.617C95.0396 257.76 94.8491 258.045 94.7063 258.188C94.6111 258.283 94.373 258.141 94.1825 258.045C94.0873 258.045 93.992 257.855 93.992 257.76C93.4682 256.855 93.1825 255.903 92.8492 254.712Z" fill="#738CA8"/>
<path d="M96.7535 252.998C97.4201 252.617 97.801 252.617 98.0391 253.236C98.2296 253.712 98.4677 254.141 98.6581 254.522C98.8962 254.95 98.6105 255.236 98.2772 255.379C97.8963 255.569 97.6582 255.331 97.4677 255.046C97.3725 254.855 97.2296 254.617 97.182 254.379C96.9916 253.998 96.8963 253.522 96.7535 252.998Z" fill="#738CA8"/>
<path d="M110.516 282.666C110.992 282.666 111.278 283.142 110.992 283.523C110.659 284.047 110.135 284.476 109.659 284.952C109.611 285 109.183 284.857 109.088 284.761C108.897 284.19 109.754 282.857 110.373 282.714C110.469 282.619 110.516 282.666 110.516 282.666Z" fill="#738CA8"/>
<path d="M110.375 287.189C109.899 286.523 109.899 286.523 111.184 284.666C111.708 284.713 112.089 284.904 111.708 285.475C111.327 286.047 110.804 286.57 110.375 287.189Z" fill="#738CA8"/>
<path d="M99.0881 251.333C99.7071 251.285 100.279 251.761 100.279 252.238C100.279 252.428 99.9928 252.714 99.8023 252.809C99.3738 252.952 98.7548 252.428 98.8024 251.999C98.8024 251.714 99.0405 251.476 99.0881 251.333Z" fill="#738CA8"/>
<path d="M67.1849 265.427C65.804 264.713 64.7564 263.665 63.8993 262.427C63.8041 262.237 63.8517 261.808 63.9945 261.665C64.1374 261.522 64.4707 261.57 64.7564 261.665C64.8992 261.713 65.0897 261.903 65.2326 262.046C65.9468 262.856 66.6135 263.713 67.2325 264.522C67.423 264.713 67.423 264.998 67.4706 265.236C67.3753 265.332 67.2325 265.379 67.1849 265.427Z" fill="#738CA8"/>
<path d="M95.7062 291.188C95.611 291.093 95.3253 290.997 95.1824 290.759C94.7539 290.045 94.373 289.283 93.9444 288.474C93.7539 288.188 93.6111 287.855 94.0396 287.617C94.4206 287.331 94.7063 287.521 94.992 287.902C95.4681 288.664 95.9443 289.426 96.3729 290.236C96.5633 290.712 96.3253 291.14 95.7062 291.188Z" fill="#738CA8"/>
<path d="M96.7526 288.33C97.4192 289.282 97.9906 290.139 98.562 291.092C98.6573 291.282 98.7049 291.615 98.562 291.758C98.4192 291.901 98.1335 291.996 97.943 291.901C97.0859 291.615 96.086 289.377 96.4193 288.473C96.5145 288.473 96.5145 288.473 96.7526 288.33Z" fill="#738CA8"/>
<path d="M101.418 293.281C100.656 293.758 100.227 293.424 99.8941 292.996C99.7037 292.71 99.4656 292.377 99.3227 292.043C99.2751 291.805 99.3703 291.52 99.418 291.281C99.7513 291.329 100.18 291.281 100.275 291.472C100.656 291.948 100.942 292.615 101.418 293.281Z" fill="#738CA8"/>
<path d="M69.1841 266.284C68.9937 266.76 68.7556 267.188 68.1366 266.95C67.9937 266.903 67.8985 266.331 67.9937 266.141C68.1366 265.712 68.5651 265.76 69.1841 266.284Z" fill="#738CA8"/>
<path d="M69.4232 268.046C69.8041 267.761 69.9946 267.475 70.2803 267.38C70.4232 267.332 70.6613 267.57 70.8517 267.665C70.6613 267.951 70.5184 268.284 70.2803 268.522C70.2327 268.57 69.8518 268.284 69.4232 268.046Z" fill="#738CA8"/>
<path d="M90.6122 249.43C90.4693 249.383 90.2788 249.383 90.2312 249.335C89.6598 248.859 89.136 248.335 88.6122 247.811C88.517 247.716 88.5646 247.383 88.6122 247.145C88.8979 247.145 89.1836 247.05 89.3741 247.145C89.8979 247.573 90.3741 247.954 90.8502 248.43C90.9931 248.573 91.0407 248.811 90.9931 248.954C90.9455 249.192 90.755 249.288 90.6122 249.43Z" fill="#738CA8"/>
<path d="M90.3253 247.048C89.8492 247.048 88.6587 246.143 88.5159 245.714C88.373 245.286 88.7064 244.857 89.1349 245.095C89.7539 245.429 90.2777 245.857 90.7539 246.333C91.0396 246.619 90.7539 247 90.3253 247.048Z" fill="#738CA8"/>
<g opacity="0.5">
<path d="M82.1387 229.814C81.9006 228.91 81.6149 228.053 81.3768 227.243" stroke="#738CA8" stroke-width="2.50716" stroke-linecap="round" stroke-linejoin="round"/>
<path d="M79.3734 222.09C73.326 208.234 63.8502 198.758 66.3263 178.568C69.3738 153.998 113.467 114.476 154.989 152.95" stroke="#738CA8" stroke-width="2.50716" stroke-linecap="round" stroke-linejoin="round" stroke-dasharray="7.9 7.9"/>
<path d="M156.986 154.865C157.605 155.484 158.224 156.103 158.891 156.77" stroke="#738CA8" stroke-width="2.50716" stroke-linecap="round" stroke-linejoin="round"/>
</g>
<path d="M195.045 186.552C195.045 186.552 218.673 211.229 239.857 214.008C275.132 218.671 323.125 152.515 263.638 132.222C205.293 112.308 180.615 88.775 187.118 69.6252C196.586 41.4247 243.586 37.596 257.531 74.6191C271.476 111.737 233.344 107.269 234.038 87.9367C234.733 68.6048 257.858 45.9555 287.269 55.3408" stroke="#738CA8" stroke-width="2.50716" stroke-miterlimit="10" stroke-linecap="round" stroke-linejoin="round" stroke-dasharray="8.02 8.02"/>
<g opacity="0.5">
<path d="M288.746 104.43C288.65 105.002 288.65 105.383 288.508 105.716C287.698 107.573 286.984 109.43 286.079 111.192C285.698 111.954 285.889 112.43 286.412 113.049C287.365 114.192 288.222 115.43 288.984 116.668C289.603 117.668 289.269 118.287 288.031 118.287C286.793 118.287 285.508 118.334 284.222 118.192C283.174 118.096 282.46 118.334 281.936 119.334C281.413 120.334 280.794 121.239 280.079 122.144C279.651 122.668 279.127 123.191 278.556 123.572C277.937 124.001 277.508 123.763 277.318 123.001C276.937 121.382 276.46 119.763 276.079 118.144C275.889 117.192 275.365 116.763 274.508 116.382C272.842 115.668 271.223 114.811 269.699 113.858C267.889 112.811 267.937 112.001 269.699 110.811C269.984 110.621 270.365 110.43 270.699 110.287C271.175 110.097 271.651 109.906 272.08 109.668C274.413 108.573 274.841 107.859 274.508 105.335C274.318 103.811 274.508 102.478 275.27 101.145C275.794 100.24 276.413 100.192 276.984 100.954C277.794 102.049 278.603 103.24 279.365 104.383C279.556 104.668 279.651 105.049 279.889 105.383C280.555 106.621 280.698 106.668 282.079 106.145C283.651 105.621 285.222 105.002 286.841 104.526C287.508 104.43 288.031 104.478 288.746 104.43ZM286.889 106.002C286.365 106.145 286.127 106.097 285.936 106.192C284.651 106.716 283.365 107.24 282.079 107.859C280.508 108.573 280.127 108.478 279.365 106.954C278.698 105.716 277.984 104.43 277.222 103.192C277.127 103.002 276.841 102.907 276.413 102.573C276.318 103.24 276.175 103.668 276.222 104.097C276.222 105.049 276.27 106.049 276.27 107.002C276.27 107.954 275.937 108.859 275.08 109.43C274.222 110.001 273.222 110.525 272.27 111.001C271.651 111.335 270.984 111.525 270.556 112.335C270.889 112.573 271.127 112.811 271.461 112.954C273.175 113.811 274.889 114.668 276.603 115.43C277.127 115.668 277.556 116.001 277.603 116.62C277.841 118.001 278.127 119.334 278.46 120.715C278.508 121.049 278.651 121.382 278.889 122.001C279.746 120.668 280.508 119.525 281.127 118.334C282.127 116.573 282.365 116.62 284.698 116.858C284.889 116.858 285.031 117.001 285.222 117.001C285.984 117.096 286.746 117.192 287.65 116.668C286.984 115.906 286.412 115.239 285.841 114.573C285.508 114.144 285.031 113.763 284.698 113.335C284.27 112.906 284.222 112.382 284.46 111.763C285.127 110.24 285.746 108.763 286.412 107.335C286.603 106.954 286.65 106.621 286.889 106.002Z" fill="#FF0000"/>
</g>
<g opacity="0.5">
<path d="M54.3276 219.807C53.8038 220.045 53.5181 220.331 53.1847 220.379C51.2801 220.95 49.3754 221.521 47.3755 221.998C46.5184 222.188 46.2803 222.617 46.1374 223.426C45.8517 224.855 45.4232 226.331 44.947 227.759C44.5661 228.902 43.8994 228.997 43.1375 228.045C42.3281 227.045 41.5662 226.093 40.8043 225.045C40.2329 224.188 39.6139 223.759 38.4711 223.95C37.3759 224.188 36.2331 224.283 35.1379 224.331C34.4712 224.331 33.757 224.283 33.0904 224.093C32.3761 223.855 32.2809 223.378 32.757 222.807C33.8046 221.474 34.7569 220.141 35.8045 218.807C36.3759 218.045 36.4712 217.379 36.2331 216.474C35.7569 214.76 35.376 212.95 35.1379 211.189C34.8522 209.093 35.4712 208.665 37.4711 209.236C37.8521 209.331 38.1854 209.474 38.4711 209.665C38.9473 209.855 39.3758 210.189 39.852 210.379C42.1376 211.522 42.9947 211.427 44.8041 209.522C45.8041 208.427 47.0422 207.665 48.5659 207.474C49.5659 207.332 50.042 207.712 49.8039 208.712C49.4706 210.093 49.0421 211.379 48.6135 212.76C48.5183 213.141 48.3278 213.427 48.1373 213.807C47.5659 215.141 47.6612 215.236 48.8992 215.998C50.3277 216.855 51.7562 217.712 53.1848 218.664C53.5657 218.855 53.8514 219.331 54.3276 219.807ZM51.9467 219.331C51.5182 218.998 51.3277 218.807 51.1372 218.712C49.8992 218.045 48.6611 217.379 47.4707 216.76C45.8993 215.95 45.8041 215.665 46.4231 214.093C46.9945 212.76 47.4707 211.427 47.9945 210.046C48.0897 209.855 47.9945 209.57 47.9945 208.998C47.4231 209.379 46.9945 209.522 46.7088 209.808C45.947 210.379 45.1851 211.046 44.4708 211.665C43.709 212.331 42.8042 212.569 41.8519 212.284C40.8519 211.95 39.852 211.522 38.8996 211.046C38.233 210.76 37.6616 210.379 36.8045 210.569C36.8045 210.95 36.8045 211.331 36.8997 211.617C37.3283 213.474 37.7568 215.331 38.1854 217.188C38.3282 217.807 38.3282 218.283 37.9473 218.76C37.0426 219.855 36.1855 220.902 35.2807 221.998C35.0903 222.283 34.8998 222.569 34.6141 223.14C36.2331 222.95 37.5664 222.855 38.852 222.617C40.8995 222.283 40.9948 222.474 42.2804 224.426C42.3757 224.617 42.4233 224.759 42.5185 224.95C42.9471 225.569 43.328 226.236 44.2804 226.616C44.4708 225.664 44.6137 224.759 44.8041 223.902C44.8994 223.331 44.947 222.807 45.0422 222.236C45.0899 221.617 45.4708 221.236 46.0898 221.093C47.6612 220.664 49.2325 220.236 50.8039 219.807C50.9944 219.712 51.3277 219.569 51.9467 219.331Z" fill="#FF0000"/>
</g>
<g opacity="0.5">
<path d="M54.4694 267.853C54.0885 268.043 53.898 268.234 53.6599 268.281C52.279 268.71 50.9457 269.186 49.6125 269.567C49.0411 269.758 48.8506 270.043 48.7554 270.615C48.5649 271.662 48.3268 272.662 48.0411 273.71C47.803 274.519 47.3268 274.614 46.7554 273.948C46.184 273.281 45.565 272.567 45.0412 271.853C44.6127 271.234 44.1365 270.948 43.3746 271.138C42.6128 271.329 41.8033 271.377 41.0414 271.472C40.5652 271.472 40.0414 271.424 39.5653 271.329C39.0415 271.186 38.9939 270.853 39.3272 270.424C39.9938 269.472 40.6605 268.424 41.3747 267.52C41.8033 266.996 41.7556 266.472 41.6128 265.853C41.2319 264.615 40.9462 263.377 40.7081 262.091C40.47 260.615 40.8985 260.282 42.3271 260.663C42.5651 260.71 42.8508 260.806 43.0889 260.948C43.4222 261.091 43.7556 261.234 44.0413 261.425C45.7079 262.139 46.3269 262.091 47.5173 260.71C48.2316 259.901 49.0411 259.377 50.1362 259.139C50.8505 258.996 51.1362 259.282 51.041 259.948C50.8505 260.901 50.5648 261.853 50.2791 262.805C50.2315 263.044 50.0886 263.282 49.9934 263.567C49.6125 264.52 49.7077 264.615 50.6124 265.139C51.66 265.71 52.7076 266.281 53.7075 266.901C53.8504 267.234 54.1361 267.52 54.4694 267.853ZM52.7076 267.615C52.3742 267.377 52.279 267.281 52.1362 267.234C51.2314 266.805 50.3743 266.329 49.422 265.948C48.2792 265.472 48.1839 265.186 48.6125 264.091C48.9934 263.139 49.3268 262.139 49.6125 261.186C49.6601 261.044 49.6125 260.806 49.6125 260.425C49.2315 260.71 48.9458 260.806 48.7077 261.044C48.1839 261.472 47.6602 261.996 47.1364 262.425C46.6126 262.853 45.9936 263.091 45.2793 262.948C44.5651 262.71 43.8508 262.472 43.1365 262.139C42.6604 261.948 42.2318 261.71 41.6128 261.853C41.6128 262.139 41.6604 262.377 41.708 262.615C42.0413 263.901 42.4223 265.234 42.8032 266.567C42.8985 266.948 42.9461 267.281 42.6604 267.662C42.0413 268.472 41.4699 269.234 40.8509 270.043C40.7081 270.281 40.6128 270.472 40.3748 270.9C41.5176 270.71 42.4699 270.615 43.3746 270.377C44.8031 270.091 44.8508 270.234 45.8507 271.615C45.9459 271.71 45.946 271.9 46.0412 271.996C46.3745 272.424 46.6602 272.9 47.3745 273.138C47.5173 272.424 47.5649 271.805 47.6602 271.234C47.7078 270.805 47.7078 270.424 47.803 270.043C47.8506 269.615 48.1363 269.329 48.5649 269.186C49.6601 268.853 50.8029 268.472 51.8981 268.139C52.0885 267.853 52.3266 267.805 52.7076 267.615Z" fill="#FF0000"/>
</g>
<g opacity="0.5">
<path d="M179.75 79.8142C179.226 79.9571 178.941 80.1476 178.655 80.1476C176.846 80.338 175.036 80.5285 173.227 80.6237C172.417 80.6714 172.179 81.0047 171.893 81.6713C171.417 82.9094 170.798 84.0998 170.132 85.3378C169.608 86.2426 168.941 86.2425 168.465 85.2902C167.941 84.2902 167.322 83.2903 166.941 82.2427C166.56 81.3856 166.036 80.8618 165.037 80.9094C164.037 80.957 163.037 80.8142 162.037 80.6713C161.465 80.5761 160.799 80.3857 160.227 80.1C159.608 79.7666 159.656 79.3381 160.18 78.9095C161.275 77.9096 162.37 76.8144 163.513 75.862C164.179 75.2906 164.322 74.6716 164.275 73.8621C164.179 72.2431 164.132 70.5765 164.179 68.9099C164.275 67.0053 164.894 66.6719 166.56 67.5767C166.894 67.7195 167.132 67.9576 167.417 68.1481C167.798 68.4338 168.179 68.7195 168.56 69.0052C170.417 70.3861 171.227 70.4337 173.084 69.0528C174.179 68.2433 175.369 67.8147 176.75 67.8624C177.655 67.91 177.988 68.3385 177.655 69.148C177.179 70.2908 176.512 71.4336 175.893 72.5288C175.703 72.8145 175.512 73.1002 175.322 73.3859C174.608 74.4811 174.655 74.624 175.655 75.5287C176.798 76.5763 177.893 77.5762 179.036 78.6238C179.179 78.7667 179.369 79.2428 179.75 79.8142ZM177.655 78.9571C177.369 78.5762 177.227 78.4334 177.084 78.2905C176.084 77.481 175.131 76.7191 174.084 75.9573C172.846 75.0049 172.751 74.7192 173.608 73.3859C174.322 72.2908 174.989 71.1479 175.703 70.0527C175.798 69.8623 175.798 69.5766 175.893 69.1004C175.322 69.2909 174.941 69.3861 174.56 69.5766C173.75 70.0051 173.036 70.4337 172.227 70.8622C171.417 71.2908 170.608 71.4336 169.798 71.0051C168.941 70.5289 168.132 70.0051 167.37 69.4337C166.846 69.1004 166.37 68.6242 165.56 68.6719C165.513 69.0052 165.465 69.3385 165.465 69.6242C165.56 71.3384 165.608 73.1002 165.703 74.8145C165.751 75.3382 165.656 75.8144 165.227 76.1477C164.227 76.9572 163.322 77.7667 162.322 78.5762C162.084 78.8143 161.894 79.0048 161.513 79.4809C162.941 79.5762 164.179 79.6714 165.37 79.719C167.275 79.719 167.322 79.9571 168.132 81.9094C168.179 82.0523 168.179 82.2427 168.227 82.3856C168.513 83.0522 168.751 83.6712 169.56 84.195C169.893 83.3855 170.179 82.6237 170.465 81.8618C170.655 81.3856 170.751 80.9094 170.941 80.4333C171.132 79.8619 171.512 79.6714 172.084 79.5762C173.56 79.4333 174.989 79.3381 176.465 79.1952C176.798 79.1476 177.084 79.0524 177.655 78.9571Z" fill="#FF0000"/>
</g>
<g opacity="0.5">
<path d="M287.794 75.0032C287.413 75.1937 287.222 75.3842 286.984 75.4318C285.603 75.8604 284.27 76.3365 282.937 76.7175C282.365 76.9079 282.175 77.1936 282.08 77.765C281.889 78.8126 281.651 79.8126 281.365 80.8602C281.127 81.6696 280.651 81.7649 280.08 81.0982C279.508 80.4316 278.889 79.7173 278.365 79.0031C277.937 78.3841 277.461 78.0984 276.699 78.2888C275.937 78.4793 275.127 78.5269 274.366 78.6222C273.889 78.6222 273.366 78.5745 272.889 78.4793C272.366 78.3364 272.318 78.0031 272.651 77.5746C273.318 76.6222 273.985 75.5747 274.699 74.6699C275.127 74.1461 275.08 73.6224 274.937 73.0033C274.556 71.7653 274.27 70.5273 274.032 69.2416C273.794 67.7655 274.223 67.4321 275.651 67.8131C275.889 67.8607 276.175 67.9559 276.413 68.0988C276.746 68.2416 277.08 68.3845 277.365 68.5749C279.032 69.2892 279.651 69.2416 280.842 67.8607C281.556 67.0512 282.365 66.5274 283.46 66.2893C284.175 66.1465 284.46 66.4322 284.365 67.0988C284.175 68.0512 283.889 69.0035 283.603 69.9558C283.556 70.1939 283.413 70.432 283.318 70.7177C282.937 71.6701 283.032 71.7653 283.937 72.2891C284.984 72.8605 286.032 73.4319 287.032 74.0509C287.175 74.3842 287.46 74.6699 287.794 75.0032ZM286.032 74.7652C285.698 74.5271 285.603 74.4318 285.46 74.3842C284.556 73.9557 283.699 73.4795 282.746 73.0986C281.603 72.6224 281.508 72.3367 281.937 71.2415C282.318 70.2892 282.651 69.2892 282.937 68.3369C282.984 68.194 282.937 67.9559 282.937 67.575C282.556 67.8607 282.27 67.9559 282.032 68.194C281.508 68.6226 280.984 69.1463 280.461 69.5749C279.937 70.0035 279.318 70.2415 278.604 70.0987C277.889 69.8606 277.175 69.6225 276.461 69.2892C275.985 69.0987 275.556 68.8607 274.937 69.0035C274.937 69.2892 274.985 69.5273 275.032 69.7654C275.366 71.051 275.746 72.3843 276.127 73.7176C276.223 74.0985 276.27 74.4318 275.985 74.8128C275.366 75.6223 274.794 76.3841 274.175 77.1936C274.032 77.4317 273.937 77.6222 273.699 78.0507C274.842 77.8603 275.794 77.765 276.699 77.527C278.127 77.2413 278.175 77.3841 279.175 78.765C279.27 78.8602 279.27 79.0507 279.365 79.1459C279.699 79.5745 279.984 80.0506 280.699 80.2887C280.842 79.5745 280.889 78.9555 280.984 78.3841C281.032 77.9555 281.032 77.5746 281.127 77.1936C281.175 76.7651 281.461 76.4794 281.889 76.3365C282.984 76.0032 284.127 75.6223 285.222 75.2889C285.413 75.0032 285.651 74.9556 286.032 74.7652Z" fill="#FF0000"/>
</g>
<g opacity="0.5">
<path d="M237.939 22.8645C237.748 23.2455 237.701 23.4835 237.558 23.7216C236.701 24.8644 235.891 26.0549 234.986 27.1501C234.605 27.6262 234.653 27.9595 234.891 28.4833C235.367 29.4357 235.748 30.388 236.082 31.388C236.32 32.1975 235.986 32.5308 235.177 32.3879C234.32 32.1975 233.415 31.9594 232.606 31.7213C231.891 31.4832 231.368 31.5308 230.844 32.1498C230.32 32.7689 229.701 33.2927 229.129 33.7688C228.749 34.0545 228.272 34.3402 227.844 34.4831C227.368 34.6736 227.13 34.4355 227.082 33.9117C227.082 32.7689 227.034 31.5784 227.034 30.3404C227.034 29.6738 226.796 29.2452 226.225 28.8643C225.225 28.0548 224.225 27.2453 223.32 26.3406C222.273 25.293 222.415 24.7692 223.796 24.2454C224.082 24.1502 224.32 24.1026 224.558 24.055C224.939 23.9597 225.273 23.9121 225.606 23.8645C227.415 23.4835 227.796 23.1026 228.034 21.2455C228.13 20.198 228.51 19.2456 229.272 18.4837C229.796 17.96 230.225 18.0076 230.51 18.6742C230.939 19.5789 231.225 20.5313 231.558 21.436C231.653 21.7217 231.701 21.9598 231.748 22.1979C231.987 23.1978 232.129 23.2455 233.129 23.1026C234.32 22.9598 235.51 22.8169 236.701 22.7693C237.082 22.6741 237.415 22.8169 237.939 22.8645ZM236.367 23.674C235.986 23.674 235.844 23.6264 235.653 23.6264C234.653 23.7692 233.701 23.9597 232.701 24.1026C231.51 24.3407 231.272 24.1978 230.987 23.055C230.748 22.055 230.415 21.0551 230.129 20.1027C230.082 19.9599 229.939 19.817 229.653 19.5313C229.463 20.0075 229.32 20.2456 229.272 20.5789C229.082 21.2455 228.987 21.9122 228.796 22.5788C228.653 23.2931 228.225 23.8169 227.606 24.0549C226.891 24.293 226.13 24.4835 225.415 24.6263C224.939 24.7216 224.415 24.7692 224.034 25.2454C224.225 25.4358 224.368 25.6739 224.511 25.8168C225.558 26.6739 226.606 27.531 227.653 28.3881C227.987 28.6262 228.177 28.9119 228.177 29.3881C228.13 30.388 228.082 31.388 228.082 32.3403C228.082 32.626 228.13 32.8641 228.177 33.2927C228.987 32.4832 229.701 31.8641 230.32 31.1499C231.32 30.0547 231.51 30.1499 233.034 30.7213C233.177 30.7689 233.272 30.8642 233.415 30.9118C233.939 31.0547 234.463 31.2927 235.129 31.1023C234.796 30.4832 234.51 29.9118 234.225 29.3404C234.034 28.9595 233.844 28.6738 233.653 28.2929C233.463 27.9119 233.463 27.531 233.748 27.1501C234.463 26.2453 235.129 25.293 235.843 24.3883C235.986 24.2454 236.129 24.0073 236.367 23.674Z" fill="#FF0000"/>
</g>
<g opacity="0.5">
<path d="M146.418 320.943C146.132 321.229 145.989 321.467 145.751 321.61C144.561 322.419 143.37 323.229 142.18 323.943C141.656 324.276 141.609 324.61 141.609 325.181C141.704 326.229 141.751 327.324 141.751 328.371C141.751 329.228 141.275 329.419 140.561 328.99C139.799 328.514 139.037 328.038 138.371 327.467C137.799 326.99 137.275 326.848 136.561 327.276C135.895 327.657 135.133 327.943 134.371 328.228C133.895 328.419 133.418 328.514 132.942 328.514C132.371 328.514 132.276 328.228 132.419 327.705C132.799 326.562 133.18 325.419 133.609 324.324C133.847 323.705 133.752 323.229 133.371 322.657C132.657 321.562 132.038 320.467 131.466 319.324C130.8 317.991 131.133 317.562 132.609 317.515C132.895 317.515 133.133 317.562 133.418 317.562C133.752 317.61 134.133 317.705 134.466 317.753C136.275 318.038 136.847 317.753 137.609 316.134C138.085 315.181 138.752 314.419 139.704 313.943C140.371 313.658 140.704 313.8 140.799 314.467C140.847 315.467 140.847 316.419 140.847 317.467C140.847 317.753 140.799 317.991 140.752 318.229C140.704 319.229 140.752 319.276 141.799 319.562C142.942 319.848 144.085 320.134 145.275 320.467C145.656 320.467 145.942 320.657 146.418 320.943ZM144.704 321.133C144.37 320.991 144.18 320.895 144.037 320.848C143.085 320.657 142.085 320.514 141.132 320.324C139.894 320.134 139.752 319.991 139.847 318.753C139.942 317.705 139.99 316.705 140.037 315.705C140.037 315.515 139.894 315.372 139.799 314.991C139.466 315.324 139.228 315.562 139.085 315.8C138.704 316.372 138.371 316.991 137.99 317.562C137.609 318.134 137.085 318.562 136.371 318.515C135.609 318.515 134.847 318.419 134.085 318.324C133.561 318.276 133.133 318.134 132.561 318.419C132.657 318.705 132.704 318.943 132.847 319.086C133.561 320.276 134.228 321.419 134.942 322.61C135.18 322.943 135.276 323.324 135.085 323.705C134.704 324.657 134.371 325.562 133.99 326.514C133.895 326.705 133.895 326.99 133.752 327.419C134.799 326.943 135.656 326.562 136.514 326.086C137.799 325.371 137.942 325.514 139.228 326.609C139.323 326.705 139.371 326.848 139.513 326.895C139.942 327.228 140.371 327.562 141.132 327.657C141.085 326.943 140.942 326.324 140.894 325.705C140.847 325.276 140.752 324.895 140.656 324.514C140.609 324.086 140.752 323.752 141.132 323.467C142.132 322.848 143.085 322.181 144.037 321.514C144.085 321.562 144.323 321.419 144.704 321.133Z" fill="#FF0000"/>
</g>
<g opacity="0.5">
<path d="M236.081 256.616C235.7 256.806 235.462 256.949 235.224 256.997C233.843 257.33 232.463 257.759 231.082 257.997C230.463 258.14 230.272 258.425 230.177 258.997C229.939 259.997 229.653 261.044 229.225 262.044C228.939 262.806 228.463 262.901 227.891 262.235C227.367 261.52 226.796 260.854 226.32 260.092C225.891 259.473 225.463 259.14 224.653 259.282C223.844 259.425 223.034 259.473 222.272 259.473C221.796 259.473 221.273 259.425 220.796 259.235C220.273 259.092 220.273 258.711 220.606 258.282C221.368 257.33 222.082 256.425 222.844 255.473C223.272 254.949 223.32 254.425 223.177 253.806C222.891 252.568 222.653 251.283 222.511 249.997C222.368 248.521 222.796 248.188 224.225 248.664C224.51 248.759 224.701 248.854 224.939 248.997C225.272 249.14 225.558 249.33 225.891 249.569C227.51 250.426 228.129 250.378 229.415 249.092C230.177 248.33 231.034 247.854 232.129 247.711C232.843 247.664 233.177 247.902 232.939 248.616C232.653 249.569 232.32 250.473 232.034 251.426C231.939 251.711 231.796 251.854 231.701 252.14C231.272 253.045 231.32 253.187 232.224 253.711C233.224 254.33 234.224 255.044 235.177 255.711C235.558 255.902 235.748 256.187 236.081 256.616ZM234.367 256.235C234.082 255.949 233.986 255.854 233.843 255.806C232.986 255.33 232.082 254.806 231.224 254.33C230.129 253.711 230.034 253.521 230.558 252.426C230.986 251.521 231.367 250.568 231.748 249.616C231.796 249.473 231.748 249.235 231.748 248.854C231.32 249.092 231.034 249.188 230.796 249.426C230.225 249.807 229.701 250.33 229.129 250.711C228.606 251.14 227.939 251.33 227.225 251.092C226.51 250.854 225.796 250.521 225.129 250.14C224.701 249.902 224.272 249.664 223.653 249.711C223.653 249.997 223.606 250.235 223.653 250.473C223.939 251.807 224.225 253.14 224.463 254.425C224.558 254.806 224.558 255.187 224.225 255.521C223.558 256.283 222.939 256.997 222.272 257.759C222.082 257.949 221.987 258.14 221.749 258.568C222.891 258.473 223.844 258.378 224.796 258.282C226.272 258.044 226.272 258.235 227.177 259.616C227.272 259.711 227.272 259.901 227.32 259.949C227.606 260.425 227.891 260.901 228.558 261.187C228.701 260.473 228.844 259.854 228.939 259.282C229.034 258.901 229.082 258.473 229.129 258.14C229.177 257.711 229.463 257.425 229.939 257.33C231.082 257.044 232.177 256.806 233.32 256.521C233.701 256.425 233.939 256.378 234.367 256.235Z" fill="#FF0000"/>
</g>
<g opacity="0.5">
<path d="M157.514 272.519C157.419 273.091 157.419 273.472 157.276 273.805C156.467 275.662 155.753 277.519 154.895 279.329C154.515 280.091 154.705 280.567 155.229 281.186C156.181 282.329 157.038 283.567 157.8 284.805C158.419 285.805 158.086 286.424 156.848 286.424C155.61 286.424 154.324 286.471 153.038 286.328C151.991 286.233 151.277 286.471 150.753 287.471C150.229 288.471 149.61 289.376 148.896 290.281C148.467 290.804 147.943 291.328 147.372 291.709C146.753 292.138 146.324 291.9 146.134 291.138C145.753 289.519 145.277 287.9 144.896 286.281C144.658 285.376 144.182 284.9 143.325 284.519C141.658 283.805 140.039 282.948 138.468 282.043C136.658 280.995 136.706 280.186 138.468 278.995C138.753 278.805 139.134 278.614 139.468 278.472C139.944 278.281 140.42 278.091 140.848 277.853C143.182 276.757 143.61 276.043 143.277 273.519C143.086 271.996 143.277 270.662 144.039 269.329C144.563 268.424 145.134 268.329 145.753 269.139C146.562 270.234 147.372 271.424 148.134 272.567C148.324 272.853 148.42 273.234 148.658 273.567C149.324 274.805 149.467 274.853 150.848 274.329C152.467 273.757 153.991 273.186 155.61 272.71C156.229 272.567 156.848 272.615 157.514 272.519ZM155.657 274.091C155.134 274.234 154.895 274.186 154.705 274.281C153.419 274.805 152.134 275.329 150.848 275.948C149.229 276.71 148.943 276.614 148.134 275.043C147.467 273.805 146.753 272.519 145.991 271.281C145.896 271.091 145.61 270.996 145.182 270.662C145.086 271.329 144.943 271.758 144.991 272.186C144.991 273.138 145.039 274.138 145.039 275.091C145.039 276.043 144.705 276.948 143.848 277.519C142.991 278.091 141.991 278.614 141.039 279.091C140.42 279.424 139.753 279.614 139.325 280.424C139.658 280.662 139.896 280.9 140.229 281.043C141.944 281.9 143.658 282.757 145.372 283.519C145.896 283.757 146.324 284.09 146.42 284.662C146.658 286.043 146.943 287.376 147.277 288.757C147.324 289.09 147.515 289.376 147.705 290.042C148.562 288.709 149.324 287.566 149.943 286.376C150.896 284.567 151.181 284.662 153.515 284.9C153.705 284.9 153.848 285.043 154.038 285.043C154.8 285.138 155.562 285.233 156.467 284.709C155.8 283.948 155.229 283.281 154.657 282.614C154.276 282.233 153.848 281.805 153.515 281.376C153.086 280.948 153.038 280.424 153.276 279.805C153.943 278.281 154.562 276.805 155.181 275.329C155.324 275.091 155.419 274.71 155.657 274.091Z" fill="#FF0000"/>
</g>
</g>
</svg>
