<svg width="19" height="19" fill="none" xmlns="http://www.w3.org/2000/svg"><g clip-path="url(#clip0_90_7282)" fill="#222"><path d="M18.12.102H8.14a.755.755 0 00-.757.756v6.545H.84a.755.755 0 00-.757.757v10.022c0 .408.327.756.757.756h10c.41 0 .758-.327.758-.757v-6.545h6.544c.41 0 .757-.327.757-.756V.879a.777.777 0 00-.777-.777zm-7.26 8.037V18.14h-10v-10h10zm7.281 2.72h-6.544V8.14a.755.755 0 00-.757-.756h-2.7V.838h10.001v10.021z"/><path d="M10.86 19h-10a.864.864 0 01-.86-.859V8.14c0-.47.389-.86.859-.86h6.442V.86c0-.47.389-.859.86-.859h9.98c.49 0 .88.389.88.88v9.98c0 .47-.39.86-.86.86H11.72v6.441a.86.86 0 01-.859.839zM.86 7.506a.659.659 0 00-.654.654v10.002c0 .347.286.654.654.654h10a.659.659 0 00.655-.654v-6.647h6.646a.659.659 0 00.655-.655V.88a.68.68 0 00-.675-.675H8.14a.659.659 0 00-.655.654v6.647H.86zm10.103 10.737H.757V8.038h10.205v10.205zm-10-.204h9.796V8.242H.96v9.797zm17.281-7.077h-6.749V8.14a.66.66 0 00-.654-.655H8.038V.736h10.205v10.226zm-6.524-.204h6.34V.96H8.242V7.3h2.618c.47 0 .86.389.86.86v2.597z"/><path d="M3.21 11.084a.736.736 0 100-1.473.736.736 0 000 1.473z"/><path d="M3.212 11.187a.842.842 0 01-.839-.839.83.83 0 01.839-.838.83.83 0 01.838.838.83.83 0 01-.838.839zm0-1.473a.637.637 0 00-.634.634c0 .348.286.634.634.634a.637.637 0 00.634-.634.637.637 0 00-.634-.634zm-.002 4.151a.736.736 0 10.001-1.472.736.736 0 000 1.472z"/><path d="M3.212 13.968a.842.842 0 01-.839-.838c0-.45.368-.839.839-.839a.83.83 0 01.838.839c0 .45-.368.838-.838.838zm0-1.473a.637.637 0 00-.634.635c0 .347.286.634.634.634a.637.637 0 00.634-.634.637.637 0 00-.634-.635zm-.002 4.153a.736.736 0 10.001-1.472.736.736 0 000 1.472z"/><path d="M3.212 16.751a.842.842 0 01-.839-.838.83.83 0 01.839-.839.83.83 0 01.838.839.83.83 0 01-.838.838zm0-1.472a.637.637 0 00-.634.634c0 .347.286.634.634.634a.637.637 0 00.634-.634.637.637 0 00-.634-.634zm5.296-4.195a.736.736 0 100-1.473.736.736 0 000 1.473z"/><path d="M8.508 11.187a.842.842 0 01-.838-.839.83.83 0 01.838-.838.83.83 0 01.839.838c0 .47-.389.839-.839.839zm0-1.473a.637.637 0 00-.634.634c0 .348.287.634.634.634a.637.637 0 00.634-.634.637.637 0 00-.634-.634zm0 4.151a.736.736 0 100-1.472.736.736 0 000 1.472z"/><path d="M8.508 13.968a.842.842 0 01-.838-.838c0-.45.368-.839.838-.839a.83.83 0 01.839.839c0 .45-.389.838-.839.838zm0-1.473a.637.637 0 00-.634.635c0 .347.287.634.634.634a.637.637 0 00.634-.634.637.637 0 00-.634-.635zm0 4.153a.736.736 0 100-1.472.736.736 0 000 1.472z"/><path d="M8.508 16.751a.842.842 0 01-.838-.838.83.83 0 01.838-.839.83.83 0 01.839.839c0 .47-.389.838-.839.838zm0-1.472a.637.637 0 00-.634.634c0 .347.287.634.634.634a.637.637 0 00.634-.634.637.637 0 00-.634-.634zm4.642-8.695a.736.736 0 100-1.473.736.736 0 000 1.473z"/><path d="M13.151 6.687a.842.842 0 01-.838-.839.83.83 0 01.838-.838c.45 0 .839.368.839.838s-.389.839-.839.839zm0-1.452a.637.637 0 00-.634.634c0 .347.286.634.634.634a.637.637 0 00.634-.634.637.637 0 00-.634-.634z"/></g><defs><clipPath id="clip0_90_7282"><path fill="#fff" d="M0 0h19v19H0z"/></clipPath></defs></svg>