<svg width="545" height="380" viewBox="0 0 545 380" fill="none" xmlns="http://www.w3.org/2000/svg">
<g opacity="0.5">
<g opacity="0.5">
<path opacity="0.5" d="M40.0371 203.957C40.6578 203.202 40.9789 202.646 41.4685 202.28C44.2161 200.251 46.8246 198.141 49.631 196.331C50.8295 195.54 50.9528 194.684 50.7099 193.339C50.2827 190.867 50.0749 188.337 50.0061 185.887C49.9452 183.905 50.9538 183.282 52.7616 184.326C54.5693 185.369 56.4868 186.384 58.2436 187.676C59.693 188.698 60.9367 188.953 62.5445 187.934C64.1523 186.916 65.8189 186.116 67.6246 185.398C68.6919 184.994 69.8983 184.671 71.0539 184.596C72.3189 184.492 72.7439 185.201 72.3799 186.474C71.5709 189.159 70.9019 191.925 70.0929 194.61C69.5683 196.161 69.9719 197.229 70.9019 198.507C72.7339 200.955 74.3749 203.572 75.7969 206.247C77.5559 209.302 76.8039 210.444 73.2279 210.697C72.6499 210.734 71.9339 210.691 71.3259 210.619C70.4709 210.495 69.6146 210.372 68.7881 210.358C64.4579 209.99 63.23 210.672 61.5891 214.638C60.5826 217.024 59.1805 218.81 56.944 220.114C55.4165 220.994 54.4725 220.542 54.2804 218.947C54.0217 216.666 53.8433 214.245 53.6942 211.934C53.657 211.356 53.839 210.72 53.7724 210.032C53.8427 207.663 53.6742 207.473 51.2163 207.073C48.4803 206.514 45.6639 206.093 42.8985 205.423C41.8448 205 41.1201 204.489 40.0371 203.957ZM44.0734 203.228C44.9587 203.461 45.2662 203.731 45.6246 203.752C47.9434 204.071 50.2623 204.39 52.6614 204.57C55.5581 204.852 56.034 205.312 55.8619 208.18C55.7916 210.549 55.7507 213.029 55.8195 215.479C55.798 215.837 56.1349 216.217 56.4796 217.065C57.1807 216.172 57.7506 215.667 58.0423 215.001C58.8452 213.61 59.6186 212.11 60.4215 210.719C61.2243 209.329 62.4738 208.289 64.207 208.177C65.9402 208.065 67.8419 208.143 69.634 208.251C70.8189 208.286 71.9529 208.57 73.2609 207.749C72.9749 207.121 72.8279 206.572 72.4619 206.083C70.6809 203.386 68.9008 200.689 67.0401 198.132C66.476 197.342 66.1312 196.494 66.5835 195.55C67.4 193.333 68.1068 191.146 68.7843 188.848C68.9958 188.321 69.0682 187.714 69.2424 186.61C66.8668 187.834 64.7909 188.86 62.8835 190.077C59.9381 191.806 59.6306 191.536 56.4243 189.221C56.1462 189.061 56.0581 188.732 55.7799 188.571C54.7478 187.79 53.7156 187.009 51.953 187.011C52.2841 188.685 52.5564 190.14 52.8288 191.595C52.9542 192.502 53.3283 193.46 53.4538 194.367C53.7182 195.354 53.3462 196.159 52.4767 196.862C50.2187 198.525 48.0704 200.158 45.8927 201.682C45.2935 202.078 44.9429 202.524 44.0734 203.228Z" fill="#FF0000"/>
</g>
<g opacity="0.5">
<path opacity="0.5" d="M479.597 233.11C480.563 233.204 481.221 233.028 481.747 233.239C485.01 234.011 488.273 234.782 491.595 235.773C493.007 236.217 493.716 235.792 494.607 234.731C496.228 232.885 498.099 231.091 499.998 229.407C501.518 228.059 502.572 228.482 502.881 230.515C503.22 232.658 503.53 234.691 503.759 236.863C503.871 238.596 504.414 239.743 506.243 240.429C508.043 241.004 509.792 241.829 511.431 242.682C512.404 243.244 513.407 243.916 514.22 244.756C515.062 245.706 514.8 246.482 513.623 246.915C510.969 247.978 508.455 249.122 505.801 250.186C504.324 250.817 503.623 251.71 503.208 253.232C502.458 256.136 501.489 259.099 500.352 261.873C499.002 265.173 497.737 265.277 495.299 262.756C494.823 262.296 494.457 261.807 494.2 261.288C493.665 260.608 493.32 259.76 492.786 259.08C490.412 255.485 489.08 254.901 484.832 256.157C482.449 256.913 479.999 256.982 477.613 255.976C476.033 255.341 475.658 254.384 476.849 253.124C478.5 251.389 480.21 249.873 481.999 248.218C482.46 247.742 482.979 247.485 483.578 247.089C485.536 245.624 485.477 245.405 484.312 243.249C482.949 240.793 481.585 238.337 480.302 235.742C479.907 235.143 479.891 234.207 479.597 233.11ZM482.672 235.813C483.017 236.661 483.134 237.099 483.332 237.399C484.578 239.416 485.824 241.433 487.04 243.341C488.652 245.847 488.55 246.345 486.322 248.117C484.363 249.583 482.544 251.128 480.615 252.703C480.316 252.901 480.214 253.398 479.732 254.232C480.888 254.158 481.634 254.311 482.292 254.134C483.886 253.942 485.56 253.611 487.125 253.309C488.8 252.978 490.321 253.393 491.471 254.613C492.65 255.943 493.749 257.412 494.738 258.91C495.471 259.889 495.984 260.927 497.396 261.372C497.717 260.815 498.038 260.259 498.14 259.762C499.08 256.689 500.02 253.616 500.96 250.543C501.273 249.518 501.674 248.823 502.632 248.449C504.876 247.613 507.011 246.805 509.255 245.969C509.774 245.712 510.293 245.456 511.192 244.862C508.668 243.776 506.641 242.791 504.563 242.054C501.292 240.815 501.313 240.457 501.082 236.522C501.103 236.164 501.154 235.915 501.176 235.556C501.072 234.291 501.078 232.997 500.008 231.638C498.927 232.868 497.956 234.068 496.955 235.159C496.334 235.913 495.823 236.638 495.203 237.392C494.611 238.256 493.734 238.491 492.709 238.178C490.054 237.479 487.398 236.78 484.742 236.081C484.384 236.059 483.777 235.987 482.672 235.813Z" fill="#FF0000"/>
</g>
<g opacity="0.5">
<path opacity="0.5" d="M2.11252 133.483C2.82932 133.526 3.26793 133.409 3.65573 133.54C6.03343 134.078 8.38163 134.507 10.6496 135.075C11.6445 135.278 12.1635 135.022 12.7843 134.268C13.9455 132.899 15.1362 131.639 16.4365 130.351C17.4666 129.369 18.2421 129.632 18.5145 131.087C18.7869 132.542 19.0886 134.107 19.2513 135.591C19.3552 136.856 19.8096 137.675 21.0827 138.039C22.3557 138.403 23.5778 139.016 24.7706 139.519C25.4659 139.921 26.1906 140.432 26.8056 140.972C27.45 141.623 27.2385 142.149 26.3905 142.494C24.6143 143.323 22.7577 144.29 20.952 145.009C19.8847 145.413 19.5127 146.218 19.1994 147.242C18.7119 149.371 18.0854 151.42 17.3492 153.498C16.4524 155.854 15.5457 155.979 13.7809 154.219C13.4734 153.949 13.1365 153.569 12.9093 153.159C12.543 152.67 12.1767 152.18 11.9201 151.661C10.0887 149.213 9.14472 148.761 6.24232 149.774C4.51692 150.354 2.89343 150.436 1.09353 149.86C-0.0698744 149.467 -0.246174 148.809 0.454926 147.916C1.53583 146.686 2.75592 145.536 3.97592 144.386C4.24622 144.079 4.65553 143.851 5.03543 143.514C6.39453 142.445 6.33572 142.226 5.45622 140.698C4.40832 138.981 3.36033 137.263 2.42213 135.516C2.38483 134.938 2.31822 134.251 2.11252 133.483ZM4.37472 135.346C4.66062 135.974 4.71943 136.194 4.88793 136.384C5.84773 137.772 6.69783 139.19 7.76723 140.549C9.03453 142.208 8.93272 142.705 7.38362 143.943C6.02452 145.013 4.69483 146.192 3.47483 147.341C3.28483 147.51 3.15373 147.898 2.83253 148.454C3.62963 148.358 4.12703 148.46 4.67543 148.313C5.80152 148.129 7.00792 147.805 8.13402 147.621C9.26012 147.437 10.3647 147.611 11.2872 148.422C12.1295 149.372 12.9717 150.321 13.7336 151.41C14.2684 152.09 14.6934 152.799 15.7177 153.112C15.9586 152.695 16.0898 152.307 16.221 151.919C16.8181 149.761 17.3859 147.493 17.9536 145.225C18.1357 144.589 18.3472 144.062 19.0855 143.746C20.6718 143.086 22.1485 142.455 23.7348 141.795C24.1441 141.568 24.4437 141.37 25.1526 140.945C23.3234 140.26 21.8525 139.596 20.3307 139.181C18.004 138.394 18.0549 138.145 17.7589 135.286C17.7001 135.066 17.8607 134.788 17.8019 134.569C17.6765 133.662 17.6607 132.726 16.8185 131.776C16.0078 132.699 15.4164 133.563 14.7956 134.317C14.3648 134.902 14.0437 135.458 13.5835 135.934C13.1527 136.52 12.4946 136.696 11.7484 136.544C9.86833 136.107 7.87842 135.7 5.99822 135.263C5.58892 135.491 5.20112 135.359 4.37472 135.346Z" fill="#FF0000"/>
</g>
<g opacity="0.5">
<path opacity="0.5" d="M519.894 162.835C520.61 162.878 521.049 162.76 521.437 162.892C523.815 163.43 526.163 163.859 528.431 164.426C529.426 164.63 529.945 164.373 530.565 163.619C531.727 162.25 532.917 160.991 534.218 159.702C535.248 158.721 536.023 158.983 536.296 160.438C536.568 161.893 536.87 163.458 537.033 164.943C537.136 166.208 537.591 167.027 538.864 167.391C540.137 167.755 541.359 168.368 542.552 168.871C543.247 169.272 543.972 169.783 544.587 170.324C545.231 170.974 545.02 171.501 544.172 171.846C542.395 172.674 540.539 173.642 538.733 174.361C537.666 174.764 537.294 175.569 536.981 176.594C536.493 178.723 535.867 180.771 535.13 182.849C534.234 185.205 533.327 185.331 531.562 183.57C531.255 183.3 530.918 182.92 530.69 182.511C530.324 182.021 529.958 181.532 529.701 181.013C527.87 178.565 526.926 178.112 524.024 179.125C522.298 179.705 520.675 179.787 518.875 179.212C517.711 178.818 517.535 178.16 518.236 177.267C519.317 176.037 520.537 174.887 521.757 173.738C522.027 173.43 522.437 173.203 522.817 172.866C524.176 171.797 524.117 171.577 523.237 170.05C522.189 168.332 521.142 166.615 520.203 164.868C520.276 164.261 520.099 163.603 519.894 162.835ZM522.266 164.668C522.552 165.297 522.61 165.516 522.779 165.706C523.739 167.094 524.589 168.512 525.658 169.871C526.925 171.53 526.824 172.027 525.274 173.265C523.915 174.335 522.586 175.514 521.366 176.664C521.176 176.832 521.045 177.22 520.723 177.776C521.52 177.68 522.018 177.782 522.566 177.635C523.692 177.451 524.899 177.127 526.025 176.943C527.151 176.759 528.256 176.933 529.178 177.744C530.02 178.694 530.863 179.644 531.625 180.732C532.159 181.412 532.584 182.121 533.609 182.434C533.849 182.017 533.981 181.629 534.112 181.241C534.709 179.083 535.277 176.815 535.845 174.547C536.027 173.911 536.238 173.384 536.976 173.068C538.563 172.408 540.039 171.778 541.626 171.117C542.035 170.89 542.335 170.692 543.044 170.267C541.214 169.582 539.743 168.918 538.222 168.503C535.895 167.716 535.946 167.467 535.65 164.608C535.591 164.389 535.752 164.11 535.693 163.891C535.567 162.984 535.552 162.048 534.709 161.098C533.899 162.021 533.307 162.885 532.687 163.639C532.256 164.224 531.935 164.781 531.474 165.257C531.044 165.842 530.386 166.019 529.639 165.866C527.759 165.429 525.769 165.022 523.889 164.585C523.37 164.842 522.982 164.711 522.266 164.668Z" fill="#FF0000"/>
</g>
<g opacity="0.5">
<path opacity="0.5" d="M178.437 331.792C179.322 332.025 179.9 331.988 180.317 332.229C183.12 333.476 185.923 334.723 188.645 336.11C189.867 336.723 190.496 336.437 191.475 335.704C193.214 334.298 195.121 333.081 197.139 331.836C198.666 330.956 199.64 331.518 199.532 333.31C199.454 335.212 199.515 337.194 199.188 339.045C199.021 340.617 199.345 341.824 200.845 342.597C202.345 343.371 203.685 344.422 205.025 345.474C205.779 346.095 206.592 346.935 207.185 347.834C207.808 348.842 207.377 349.428 206.251 349.612C203.809 350.149 201.286 350.825 198.815 351.252C197.36 351.524 196.629 352.308 196.016 353.53C194.79 355.974 193.455 358.448 191.98 360.841C190.236 363.542 189.051 363.507 187.38 360.781C187.014 360.291 186.867 359.743 186.61 359.224C186.295 358.486 185.979 357.747 185.664 357.009C184.117 353.427 182.975 352.675 179.099 353.126C176.817 353.385 174.718 353.007 172.742 351.773C171.461 350.941 171.335 350.034 172.504 349.133C174.163 347.866 176.1 346.759 177.927 345.682C178.446 345.425 178.965 345.169 179.484 344.912C181.45 343.915 181.501 343.666 180.804 341.502C180.018 339.009 179.262 336.626 178.476 334.133C178.388 333.804 178.512 332.948 178.437 331.792ZM180.774 334.81C180.87 335.607 180.958 335.936 181.046 336.265C181.824 338.29 182.572 340.206 183.459 342.201C184.464 344.635 184.363 345.133 181.987 346.357C180.021 347.354 178.084 348.461 176.118 349.458C175.818 349.656 175.577 350.073 175.037 350.688C176.032 350.892 176.668 351.074 177.385 351.117C178.928 351.173 180.333 351.15 181.876 351.206C183.419 351.263 184.722 351.737 185.542 353.045C186.392 354.463 187.133 355.91 187.764 357.387C188.247 358.315 188.541 359.412 189.763 360.025C190.114 359.578 190.464 359.132 190.705 358.714C192.011 356.131 193.427 353.518 194.733 350.935C195.105 350.13 195.646 349.515 196.553 349.39C198.695 349.051 200.699 348.631 202.841 348.292C203.389 348.145 203.828 348.028 204.786 347.654C202.78 346.31 201.053 345.128 199.355 344.054C196.573 342.449 196.705 342.061 197.169 338.528C197.219 338.279 197.38 338.001 197.431 337.752C197.576 336.538 197.75 335.433 197.01 333.986C195.84 334.887 194.781 335.759 193.721 336.63C193.042 337.165 192.501 337.78 191.822 338.315C191.062 338.989 190.345 338.946 189.431 338.603C187.155 337.567 184.989 336.502 182.713 335.466C182.186 335.255 181.688 335.153 180.774 334.81Z" fill="#FF0000"/>
</g>
<g opacity="0.5">
<path opacity="0.5" d="M16.6202 247.729C17.337 247.772 17.7758 247.655 18.1635 247.786C20.5412 248.325 22.8894 248.753 25.1574 249.321C26.1523 249.525 26.6713 249.268 27.2921 248.514C28.4533 247.145 29.644 245.885 30.9443 244.597C31.9744 243.615 32.7499 243.878 33.0223 245.333C33.2946 246.788 33.5964 248.353 33.7591 249.837C33.863 251.102 34.3174 251.921 35.5905 252.285C36.8635 252.649 38.0857 253.262 39.2784 253.766C39.9737 254.167 40.6984 254.678 41.3134 255.219C41.9578 255.869 41.7463 256.396 40.8983 256.74C39.1221 257.569 37.2655 258.537 35.4599 259.255C34.3925 259.659 34.0205 260.464 33.7072 261.488C33.2197 263.617 32.5932 265.666 31.857 267.744C30.9602 270.1 30.0534 270.225 28.2887 268.465C27.9812 268.195 27.6443 267.815 27.4171 267.405C27.0508 266.916 26.6845 266.426 26.4279 265.907C24.5965 263.459 23.6525 263.007 20.7501 264.02C19.0248 264.6 17.4012 264.682 15.6013 264.106C14.4379 263.713 14.2616 263.055 14.9627 262.162C16.0436 260.932 17.2637 259.782 18.4837 258.632C18.7539 258.325 19.1633 258.097 19.5432 257.761C20.9023 256.691 20.8435 256.472 19.964 254.944C18.9161 253.227 17.8681 251.509 16.9299 249.762C17.0023 249.155 16.8259 248.497 16.6202 247.729ZM18.9921 249.562C19.2781 250.191 19.3369 250.41 19.5053 250.6C20.4651 251.989 21.3152 253.407 22.3847 254.766C23.6519 256.425 23.5501 256.922 22.0011 258.16C20.642 259.229 19.3123 260.408 18.0923 261.558C17.9023 261.727 17.7711 262.114 17.45 262.671C18.2471 262.575 18.7445 262.676 19.2929 262.529C20.419 262.345 21.6254 262.022 22.7515 261.838C23.8776 261.654 24.9822 261.828 25.9047 262.639C26.7469 263.588 27.5892 264.538 28.3511 265.627C28.8859 266.307 29.3109 267.015 30.3352 267.329C30.5761 266.912 30.7073 266.524 30.8384 266.136C31.4356 263.978 32.0034 261.71 32.5711 259.442C32.7532 258.805 32.9647 258.278 33.703 257.963C35.2893 257.303 36.7659 256.672 38.3522 256.012C38.7615 255.785 39.0612 255.587 39.7701 255.162C37.9408 254.477 36.47 253.813 34.9482 253.398C32.6214 252.611 32.6723 252.362 32.3764 249.502C32.3176 249.283 32.4782 249.005 32.4194 248.786C32.294 247.879 32.2782 246.943 31.436 245.993C30.6252 246.915 30.0339 247.779 29.4131 248.533C28.9823 249.119 28.6612 249.675 28.201 250.151C27.7701 250.737 27.1121 250.913 26.3659 250.76C24.4857 250.324 22.4959 249.917 20.6157 249.48C20.0967 249.737 19.7089 249.605 18.9921 249.562Z" fill="#FF0000"/>
</g>
<g opacity="0.5">
<path opacity="0.5" d="M45.4609 365.894C46.0602 365.499 46.3305 365.191 46.7398 364.964C48.9547 364.018 51.1403 362.962 53.3847 362.126C54.3423 361.752 54.5538 361.225 54.6477 360.259C54.7553 358.467 55.0019 356.755 55.3582 355.014C55.693 353.632 56.4607 353.426 57.5222 354.317C58.6132 355.318 59.7336 356.428 60.7148 357.458C61.5571 358.408 62.3621 358.78 63.6487 358.318C64.9354 357.855 66.2809 357.612 67.5167 357.399C68.3138 357.303 69.2499 357.287 69.9961 357.44C70.8521 357.563 70.9991 358.111 70.6271 358.916C69.6634 360.585 68.7294 362.363 67.6857 364.171C67.1237 365.144 67.11 365.971 67.6233 367.009C68.4009 369.034 69.1786 371.059 69.737 373.143C70.3831 375.556 69.7333 376.2 67.2754 375.801C66.7779 375.699 66.3902 375.568 66.0024 375.436C65.3658 375.254 64.839 375.043 64.3121 374.831C61.3488 373.862 60.4715 374.097 58.5583 376.608C57.5361 378.058 56.1769 379.127 54.4222 379.597C53.2158 379.92 52.6302 379.49 52.775 378.275C52.9119 376.593 53.2976 374.962 53.5736 373.36C53.6754 372.862 53.8066 372.474 53.9378 372.086C54.4332 370.426 54.2647 370.236 52.6842 369.601C50.8255 368.806 48.9668 368.011 47.1884 367.077C46.5519 366.895 46.1856 366.406 45.4609 365.894ZM48.4378 366.037C48.9941 366.358 49.1625 366.548 49.4407 366.709C51.0212 367.343 52.5724 367.868 54.1529 368.502C56.0919 369.158 56.3191 369.568 55.7728 371.477C55.2775 373.138 54.9212 374.879 54.5355 376.511C54.4846 376.759 54.5728 377.088 54.7491 377.746C55.4286 377.212 55.838 376.984 56.1885 376.538C57.0286 375.725 57.7297 374.832 58.5698 374.019C59.3805 373.097 60.4479 372.693 61.5525 372.867C62.7961 373.122 64.0692 373.486 65.2325 373.879C66.0081 374.142 66.8131 374.514 67.7708 374.14C67.6532 373.701 67.6453 373.233 67.5572 372.904C66.7501 370.769 65.943 368.635 65.1359 366.5C64.8499 365.871 64.8127 365.294 65.2141 364.598C66.1266 363.178 67.0392 361.758 67.842 360.368C68.0829 359.95 68.2141 359.563 68.5058 358.897C66.6414 359.396 65.0766 359.698 63.5706 360.219C61.1872 360.975 60.9893 360.676 59.2461 358.557C59.0776 358.367 59.0189 358.148 58.8504 357.958C58.206 357.307 57.6419 356.518 56.5079 356.234C56.4728 357.419 56.4082 358.494 56.3437 359.57C56.3007 360.286 56.3379 360.864 56.2949 361.581C56.2519 362.298 55.9307 362.854 55.1924 363.169C53.3867 363.888 51.6105 364.717 49.8048 365.436C49.4758 365.524 49.0665 365.751 48.4378 366.037Z" fill="#FF0000"/>
</g>
<g opacity="0.5">
<path opacity="0.5" d="M430.39 7.7944C431.049 7.6181 431.458 7.3909 431.926 7.383C434.347 7.2046 436.767 7.0261 439.108 6.9868C440.153 6.9416 440.504 6.4951 440.986 5.6607C441.73 4.0508 442.584 2.4115 443.467 0.881804C444.189 -0.369696 445.045 -0.246399 445.727 0.981501C446.438 2.3191 447.149 3.6567 447.641 5.053C448.073 6.23 448.718 6.8802 450.122 6.8566C451.417 6.8623 452.77 7.0874 454.123 7.3126C454.979 7.4359 455.755 7.6982 456.45 8.0997C457.284 8.5814 457.183 9.0788 456.532 9.7232C455.013 11.0708 453.493 12.4184 451.944 13.6563C451.075 14.3594 450.812 15.135 450.887 16.2905C451.006 18.4918 450.987 20.6129 450.858 22.7633C450.707 25.2721 449.859 25.6169 447.664 24.442C447.247 24.2011 446.939 23.9309 446.522 23.69C446.075 23.3395 445.599 22.8793 445.153 22.5288C442.752 20.5862 441.676 20.5216 439.199 22.2433C437.701 23.2325 436.085 23.783 434.293 23.6754C433.079 23.5306 432.713 23.041 433.136 21.9873C433.909 20.487 434.712 19.0964 435.595 17.5668C435.836 17.1496 436.106 16.8421 436.376 16.5346C437.289 15.1146 437.259 15.005 435.971 13.7046C434.543 12.324 433.115 10.9434 431.658 9.4531C431.102 9.132 430.845 8.613 430.39 7.7944ZM433.054 8.9614C433.42 9.451 433.618 9.7507 433.787 9.9406C435.017 11.0216 436.356 12.0732 437.586 13.1542C439.234 14.476 439.322 14.805 438.139 16.5325C437.117 17.9819 436.204 19.4018 435.292 20.8218C435.131 21.0999 435.219 21.429 435.037 22.0655C435.805 21.8598 436.353 21.7128 436.763 21.4856C437.801 20.9724 438.809 20.3495 439.847 19.8363C440.885 19.3231 442.011 19.1389 443.014 19.8106C444.126 20.4529 445.159 21.2342 446.191 22.0156C446.915 22.5267 447.421 23.0965 448.496 23.1611C448.598 22.6636 448.729 22.2758 448.641 21.9468C448.601 19.6064 448.591 17.3757 448.552 15.0353C448.485 14.3479 448.668 13.7114 449.267 13.3157C450.626 12.2463 451.875 11.2062 453.234 10.1368C453.534 9.9389 453.775 9.5217 454.345 9.0164C452.414 8.8286 450.841 8.6622 449.188 8.635C446.709 8.594 446.62 8.265 445.666 5.582C445.608 5.3626 445.659 5.1139 445.49 4.9239C445.145 4.076 444.801 3.228 443.768 2.4466C443.236 3.5297 442.923 4.554 442.47 5.498C442.178 6.1639 441.996 6.8005 441.814 7.437C441.523 8.1029 441.033 8.4692 440.236 8.5652C438.254 8.6261 436.301 8.7967 434.349 8.9672C434.319 8.8575 433.851 8.8654 433.054 8.9614Z" fill="#FF0000"/>
</g>
<g opacity="0.5">
<path opacity="0.5" d="M245.233 26.1391C245.95 26.1821 246.418 26.1743 246.806 26.3054C249.103 26.9829 251.481 27.5213 253.698 28.3378C254.722 28.651 255.241 28.3944 255.862 27.6403C257.052 26.3809 258.353 25.0921 259.821 23.9933C260.881 23.1217 261.657 23.3841 261.929 24.8392C262.092 26.3237 262.364 27.7788 262.417 29.2927C262.521 30.5579 262.866 31.4059 264.168 31.8797C265.47 32.3536 266.693 32.9665 267.805 33.6088C268.5 34.0102 269.225 34.5213 269.76 35.2008C270.404 35.851 270.083 36.4072 269.235 36.752C267.32 37.5003 265.514 38.2192 263.599 38.9675C262.531 39.3711 262.02 40.0958 261.707 41.1201C261.08 43.1687 260.344 45.2467 259.469 47.2444C258.433 49.5203 257.526 49.6457 255.842 47.7461C255.505 47.3662 255.307 47.0666 255.08 46.6573C254.714 46.1677 254.457 45.6487 254.171 45.0201C252.53 42.4037 251.586 41.9513 248.624 42.7448C246.87 43.215 245.217 43.1877 243.497 42.473C242.414 41.9404 242.128 41.3117 243.078 40.4695C244.298 39.3198 245.547 38.2797 246.767 37.13C247.147 36.7931 247.476 36.7049 247.856 36.368C249.245 35.4083 249.296 35.1595 248.416 33.632C247.478 31.8851 246.62 29.9992 245.791 28.2229C245.396 27.6236 245.358 27.0459 245.233 26.1391ZM247.415 28.1405C247.591 28.7985 247.65 29.0179 247.818 29.2078C248.668 30.6257 249.548 32.1532 250.398 33.5711C251.475 35.3983 251.454 35.7567 249.766 36.9143C248.377 37.8741 247.018 38.9435 245.659 40.0129C245.469 40.1814 245.338 40.5692 245.017 41.1254C245.843 41.1391 246.341 41.2409 246.889 41.0939C248.045 41.0194 249.251 40.6962 250.407 40.6216C251.533 40.4374 252.667 40.7213 253.509 41.6711C254.351 42.6209 255.113 43.7097 255.765 44.828C256.19 45.5369 256.615 46.2459 257.559 46.6982C257.8 46.281 258.07 45.9735 258.202 45.5857C258.909 43.398 259.615 41.2103 260.352 39.1323C260.534 38.4958 260.855 37.9396 261.622 37.7339C263.238 37.1834 264.744 36.6623 266.36 36.1118C266.799 35.9943 267.098 35.7965 267.807 35.3714C266.058 34.547 264.587 33.8832 263.116 33.2194C260.76 32.3227 260.921 32.0445 260.764 29.2655C260.705 29.0461 260.866 28.768 260.836 28.6583C260.821 27.7222 260.805 26.786 260.072 25.8068C259.262 26.7294 258.531 27.5128 257.91 28.2669C257.45 28.7428 257.019 29.3285 256.669 29.775C256.238 30.3606 255.58 30.537 254.804 30.2746C252.895 29.7283 251.095 29.1527 249.185 28.6064C248.549 28.4244 248.161 28.2932 247.415 28.1405Z" fill="#FF0000"/>
</g>
<g opacity="0.5">
<path opacity="0.5" d="M373.363 69.1527C373.984 68.3987 374.305 67.8427 374.795 67.4767C377.542 65.4467 380.151 63.3377 382.928 61.4177C384.126 60.6266 384.25 59.7708 384.007 58.4253C383.58 55.9537 383.372 53.4234 383.303 50.9733C383.242 48.9914 384.251 48.3685 386.059 49.4122C387.866 50.4559 389.784 51.4702 391.541 52.7627C392.99 53.7849 394.234 54.0394 395.841 53.0208C397.449 52.0023 399.116 51.2031 400.922 50.4842C401.989 50.0806 403.195 49.7574 404.351 49.6828C405.616 49.5789 406.041 50.2879 405.677 51.5609C404.868 54.2461 404.199 57.0115 403.39 59.6967C402.975 61.2187 403.269 62.3147 404.199 63.5937C406.031 66.0417 407.672 68.6587 409.204 71.3037C410.963 74.3587 410.211 75.5007 406.635 75.7537C406.057 75.7917 405.34 75.7487 404.733 75.6757C403.877 75.5527 403.021 75.4287 402.195 75.4157C397.865 75.0477 396.637 75.7297 394.996 79.6957C393.989 82.0807 392.587 83.8677 390.351 85.1717C388.823 86.0517 387.909 85.7087 387.687 84.0047C387.428 81.7227 387.25 79.3027 387.101 76.9917C387.064 76.4137 387.246 75.7767 387.179 75.0897C387.249 72.7197 387.081 72.5297 384.623 72.1307C381.777 71.6007 379.071 71.1497 376.305 70.4807C375.281 70.1667 374.417 69.5757 373.363 69.1527ZM377.4 68.4237C378.285 68.6567 378.593 68.9267 378.951 68.9487C381.27 69.2677 383.589 69.5867 385.988 69.7667C388.994 70.0187 389.331 70.3987 389.188 73.3757C389.118 75.7457 389.077 78.2247 389.146 80.6747C389.124 81.0337 389.461 81.4137 389.806 82.2617C390.507 81.3687 391.077 80.8627 391.369 80.1967C392.172 78.8067 392.945 77.3067 393.748 75.9157C394.551 74.5247 395.8 73.4847 397.533 73.3737C399.267 73.2617 401.168 73.3397 402.96 73.4467C404.145 73.4827 405.279 73.7667 406.587 72.9457C406.301 72.3167 406.154 71.7687 405.788 71.2787C404.008 68.5827 402.227 65.8857 400.366 63.3277C399.802 62.5387 399.458 61.6907 399.8 60.7757C400.617 58.559 401.324 56.3713 402.001 54.074C402.212 53.5471 402.175 52.9694 402.459 51.8354C400.084 53.0596 398.008 54.0861 396.1 55.3024C393.184 57.1417 392.847 56.7618 389.641 54.4471C389.363 54.2866 389.275 53.9575 388.997 53.797C387.964 53.0156 386.932 52.2343 385.17 52.2364C385.501 53.9109 385.773 55.366 386.045 56.8211C386.281 57.6985 386.545 58.6856 386.67 59.5923C386.935 60.5794 386.563 61.3847 385.693 62.0877C383.435 63.7507 381.287 65.3837 379.139 67.0177C378.729 67.2447 378.269 67.7207 377.4 68.4237Z" fill="#FF0000"/>
</g>
<g clip-path="url(#clip0_20_26)">
<path opacity="0.5" d="M246.867 161.615C246.867 161.615 233.145 105.579 204.573 83.6127C157.026 46.9833 31.3611 103.107 101.092 183.044C169.475 261.462 185.69 316.713 160.096 339.204C122.565 372.418 50.7683 338.289 61.5578 272.393C72.4275 206.358 124.307 245.118 107.036 272.785C89.7643 300.452 36.9746 314.009 1.95361 275.434" stroke="#738CA8" stroke-width="2.50716" stroke-miterlimit="10" stroke-linecap="round" stroke-linejoin="round" stroke-dasharray="8.02 8.02"/>
</g>
</g>
<defs>
<clipPath id="clip0_20_26">
<rect width="249" height="283" fill="white" transform="translate(0 70.6309)"/>
</clipPath>
</defs>
</svg>
