<svg width="18" height="18" viewBox="0 0 18 18" fill="none" xmlns="http://www.w3.org/2000/svg">
<path d="M15.5102 12.5281C14.4228 11.5981 13.3193 11.0347 12.2452 11.9633L11.6039 12.5246C11.1347 12.932 10.2622 14.8356 6.88913 10.9553C3.51672 7.07999 5.52359 6.47659 5.99352 6.07269L6.63836 5.51074C7.70677 4.58 7.30357 3.40834 6.53299 2.20225L6.06798 1.47171C5.29389 0.268434 4.45096 -0.52181 3.37974 0.407517L2.80093 0.913273C2.32749 1.25817 1.0041 2.37926 0.683081 4.50906C0.296739 7.06453 1.51547 9.99089 4.30767 13.2017C7.09635 16.414 9.82673 18.0275 12.4131 17.9994C14.5626 17.9762 15.8607 16.8228 16.2667 16.4035L16.8476 15.897C17.916 14.9684 17.2522 14.0229 16.1641 13.0908L15.5102 12.5281Z" fill="white"/>
</svg>
