<svg width="129" height="127" viewBox="0 0 129 127" fill="none" xmlns="http://www.w3.org/2000/svg">
<g opacity="0.4">
<path fill-rule="evenodd" clip-rule="evenodd" d="M75.6173 42.912C75.6262 43.0263 75.6 43.1406 75.5422 43.2395C75.4843 43.3385 75.3976 43.4174 75.2937 43.4658C75.1897 43.5141 75.0734 43.5295 74.9605 43.51C74.8475 43.4904 74.7432 43.4368 74.6616 43.3563C74.238 42.8699 75.0487 41.9849 75.6173 42.912Z" fill="white"/>
<path fill-rule="evenodd" clip-rule="evenodd" d="M84.5785 50.1487C86.4569 51.5863 84.3794 54.0318 82.732 53.0993C81.8208 52.5898 81.3125 51.2522 82.0391 50.4305C82.1836 50.2402 82.3654 50.0813 82.5732 49.9634C82.7811 49.8455 83.0108 49.7712 83.2483 49.7448C83.4859 49.7184 83.7262 49.7406 83.9549 49.8101C84.1836 49.8795 84.3957 49.9947 84.5785 50.1487ZM84.2057 52.0049C84.878 51.2008 83.3907 50.2581 82.5958 51.2983C82.5811 51.4888 82.6254 51.6792 82.7226 51.8437C82.8199 52.0081 82.9654 52.1386 83.1395 52.2174C83.3135 52.2962 83.5076 52.3195 83.6953 52.2841C83.883 52.2488 84.0553 52.1564 84.1888 52.0197L84.2057 52.0049Z" fill="white"/>
<path fill-rule="evenodd" clip-rule="evenodd" d="M65.4271 50.4309C66.308 50.3003 67.1688 50.3066 67.5312 51.2939C68.0941 52.8426 65.7778 53.9745 64.8201 52.6006C64.7038 52.4219 64.627 52.2204 64.5947 52.0097C64.5625 51.799 64.5755 51.5837 64.6329 51.3784C64.6904 51.1731 64.7909 50.9825 64.9279 50.8191C65.0648 50.6557 65.235 50.5233 65.4271 50.4309ZM65.4408 51.7715C65.4513 51.9107 65.51 52.0418 65.6068 52.1423C65.7035 52.2429 65.8323 52.3066 65.9709 52.3224C66.1095 52.3383 66.2494 52.3054 66.3663 52.2293C66.4833 52.1532 66.5701 52.0388 66.6118 51.9056C66.5801 51.2867 65.8713 51.158 65.4408 51.7715Z" fill="white"/>
<path fill-rule="evenodd" clip-rule="evenodd" d="M39.848 19.6159C39.9331 19.8882 39.9481 20.1776 39.8915 20.4572C39.835 20.7368 39.7088 20.9977 39.5246 21.2156C39.3405 21.4335 39.1043 21.6014 38.838 21.7037C38.5717 21.806 38.2839 21.8395 38.0012 21.801C37.0278 21.654 36.1323 20.2258 36.7792 19.404C36.9612 19.1571 37.2026 18.9601 37.481 18.8313C37.7594 18.7026 38.0658 18.6461 38.3718 18.6672C38.6778 18.6884 38.9735 18.7864 39.2316 18.9522C39.4896 19.1181 39.7017 19.3463 39.848 19.6159ZM38.9802 20.1727C38.7252 19.4001 37.8113 19.7783 37.4934 20.2242C37.523 20.404 37.6171 20.5669 37.7581 20.6824C37.8991 20.7979 38.0773 20.8581 38.2594 20.8518C38.4416 20.8455 38.6152 20.7731 38.7479 20.6481C38.8805 20.5231 38.9631 20.3541 38.9802 20.1727Z" fill="white"/>
<path fill-rule="evenodd" clip-rule="evenodd" d="M51.4257 40.0602C51.5663 40.4974 51.5443 40.9706 51.3637 41.3928C51.1832 41.815 50.8562 42.1579 50.4429 42.3581C48.8194 43.2348 46.9214 40.8496 48.0662 39.5145C48.9932 38.409 50.4473 38.7539 51.4257 40.0602ZM50.4207 40.448C50.0757 39.8235 49.2375 39.7975 48.6164 40.4776C48.5597 42.0686 50.9973 41.567 50.3889 40.4458L50.4207 40.448Z" fill="white"/>
<path fill-rule="evenodd" clip-rule="evenodd" d="M69.8738 63.0096C71.9027 63.5006 74.142 66.255 72.2401 68.1598C71.798 68.5883 71.2503 68.8921 70.6527 69.0404C70.0552 69.1887 69.429 69.1761 68.8378 69.004C68.924 71.9127 64.2453 74.5348 62.4248 71.0279C59.8871 73.8244 55.6224 74.7633 53.8405 71.0039C51.9628 71.9428 49.1168 69.7366 50.1269 67.5044C49.1466 67.3038 47.9369 67.1139 47.3578 65.8777C46.1265 63.2302 51.1034 61.2933 52.8491 61.5733C50.3297 58.7943 55.5602 57.3427 57.1495 58.117C57.3281 57.5407 57.6977 57.0423 58.1974 56.7041C58.697 56.3659 59.297 56.208 59.8984 56.2563C60.4999 56.3047 61.0669 56.5564 61.5062 56.9701C61.9454 57.3838 62.2306 57.9347 62.3149 58.5322C64.4108 57.5127 68.6226 56.8785 70.7228 58.7992C72.2338 60.1689 71.5029 61.8994 69.8738 63.0096ZM64.2345 71.3814C65.2195 71.9758 66.9977 71.3224 67.5168 69.9654C67.7951 69.2456 67.3403 68.5178 67.9581 68.0395C68.576 67.5611 69.5954 68.1951 70.3121 67.9788C70.816 67.8535 71.264 67.5647 71.5863 67.1577C72.4032 66.0285 70.8689 64.6892 69.8356 64.2563C69.1736 63.9873 68.1315 63.9898 67.9358 63.5137C67.6242 62.7905 69.3339 62.2068 69.9254 61.4927C71.6599 59.3956 67.8311 58.8706 66.7143 58.7988C65.5089 58.6623 64.2885 58.8321 63.1661 59.2928C62.5219 59.6151 62.0348 60.2779 61.5384 59.8449C61.042 59.4119 61.3554 58.1842 60.4392 57.4404C60.2089 57.281 59.9492 57.1691 59.6751 57.1112C58.6565 57.0036 58.0105 58.0435 57.6428 58.9804C56.2366 58.9418 54.1184 58.3595 53.091 60.1493C53.078 60.8767 55.1613 61.5788 54.477 62.4034C54.0829 62.876 51.9008 62.7571 51.5718 62.8248C50.6718 63.0019 47.4594 64.0985 48.3985 65.5881C49.1408 66.7718 51.2082 65.8566 51.6811 66.708C51.9501 67.1997 51.3026 67.4155 51.0827 67.9053C50.9957 68.2124 50.9965 68.5377 51.0848 68.8444C51.173 69.1511 51.3454 69.427 51.5823 69.6408C51.8192 69.8547 52.1112 69.9979 52.4254 70.0544C52.7395 70.1109 53.0631 70.0784 53.3597 69.9605C53.5464 69.798 53.1065 69.0074 53.8079 68.7049C54.5093 68.4025 54.55 69.66 54.7301 70.2094C55.7375 73.2508 59.5793 72.7399 61.3387 70.5116C61.6876 70.0785 61.742 69.4443 62.4007 69.2984C63.5324 69.9241 63.3334 70.8035 64.2571 71.3617L64.2345 71.3814Z" fill="white"/>
<path fill-rule="evenodd" clip-rule="evenodd" d="M25.4308 32.5512C26.9087 32.0897 28.7325 31.3172 29.9527 32.6615C31.7452 34.6513 28.1526 36.8646 26.3387 36.8032C27.7895 37.6583 29.2421 39.7948 28.6733 41.0261C27.7484 43.0249 24.8651 41.3585 23.5198 39.7451C23.4024 40.7524 23.3892 43.0216 21.6057 43.5204C19.448 44.1263 18.5653 40.2801 19.1527 38.9331C17.5808 40.0633 15.6743 40.6493 14.5118 39.3144C12.7293 37.3359 15.7162 34.0387 18.1307 34.333C16.5554 33.0493 14.7302 30.6106 16.0074 29.3591C17.5196 27.8634 20.0706 30.416 21.041 32.3756C21.103 30.9392 22.532 27.3377 24.8706 27.4992C27.2093 27.6607 26.7012 31.246 25.4308 32.5512ZM25.2774 28.8457C25.1631 28.7058 25.0087 28.6043 24.835 28.5547C23.3497 28.2767 22.2193 30.9418 22.0468 31.9772C21.8742 33.0126 21.7615 34.4137 22.4361 34.423C23.8917 32.6682 26.0893 30.7147 25.2774 28.8457ZM28.078 32.9414C26.6996 32.8089 24.1911 34.0286 23.0207 35.4257C23.5906 35.7946 24.5836 35.7356 25.4741 35.6961C26.834 35.6359 28.3416 35.437 29.3421 33.959C29.2971 33.6619 29.1422 33.3926 28.9082 33.2041C28.6741 33.0157 28.3779 32.9219 28.078 32.9414ZM24.5568 39.2798C25.0946 39.806 26.9786 41.2387 27.5622 40.641C27.9195 40.2404 27.2451 38.9976 26.9827 38.6392C25.8356 37.0821 24.0523 36.8845 22.8432 36.7638C23.271 37.6916 23.8501 38.5419 24.5568 39.2798ZM16.7585 30.1075C16.6436 31.5403 18.1761 33.0602 19.4302 33.838C20.0065 34.1914 20.6476 34.6079 21.1355 34.4714C20.4279 32.9393 18.6302 29.6413 16.7585 30.1075ZM21.4724 35.5208C21.6541 35.6609 21.8309 35.7954 22.0296 35.6124C22.3243 35.1171 21.3958 35.0902 21.4724 35.5208ZM21.3353 36.5055C20.2687 38.1702 19.1991 40.8024 21.1813 42.5076C23.2927 41.4944 22.4943 37.8136 21.3523 36.4907L21.3353 36.5055ZM15.5908 36.316C15.1373 36.8004 14.7021 37.9453 15.2291 38.5505C16.6034 40.1287 19.6331 37.2119 20.2649 35.6075C18.9524 35.368 17.077 34.7334 15.6077 36.3013L15.5908 36.316Z" fill="white"/>
<path fill-rule="evenodd" clip-rule="evenodd" d="M34.0843 39.7345C34.7531 40.0571 33.9659 40.8321 33.571 40.4699C33.176 40.1077 33.5705 39.4757 34.0843 39.7345Z" fill="white"/>
<path fill-rule="evenodd" clip-rule="evenodd" d="M56.1181 81.0817C57.7254 82.2878 56.1254 84.5165 54.6062 83.6514C53.8093 83.1817 53.0985 81.543 54.3916 80.7551C54.682 80.6482 54.9959 80.6222 55.3 80.6797C55.604 80.7372 55.8868 80.8761 56.1181 81.0817ZM54.7011 81.7387C54.2412 82.5469 55.8353 83.4067 55.9002 82.2362C55.5019 81.7675 55.1043 81.5964 54.6841 81.7535L54.7011 81.7387Z" fill="white"/>
<path fill-rule="evenodd" clip-rule="evenodd" d="M28.5969 52.3117C28.7151 52.4474 28.6598 52.5552 28.62 52.6695C28.5802 52.7837 28.3708 52.7373 28.2566 52.6975C28.1424 52.6577 28.1937 52.4539 28.2285 52.3341C28.2634 52.2142 28.4721 52.2711 28.5969 52.3117Z" fill="white"/>
<path fill-rule="evenodd" clip-rule="evenodd" d="M39.9469 66.5667C40.2169 66.7759 40.4075 67.0711 40.487 67.4033C40.5665 67.7356 40.5303 68.085 40.3842 68.3938C38.9349 71.0582 35.6592 67.3764 38.432 66.2548C38.689 66.1643 38.9659 66.1455 39.2328 66.2005C39.4997 66.2554 39.7465 66.382 39.9469 66.5667ZM38.6235 67.3313C38.4594 67.4741 38.6006 67.739 38.3235 67.9804C39.663 69.5987 39.8564 66.3372 38.6065 67.346L38.6235 67.3313Z" fill="white"/>
<path fill-rule="evenodd" clip-rule="evenodd" d="M28.0702 53.147C27.935 53.3344 27.9972 53.2802 27.7987 53.3835C27.6604 53.3845 27.5353 53.1951 27.4072 53.0481C27.4551 52.9036 27.5566 52.7831 27.6909 52.7115C27.7872 52.7437 27.8731 52.8011 27.9398 52.8776C28.0065 52.9542 28.0515 53.0472 28.0702 53.147Z" fill="white"/>
<path fill-rule="evenodd" clip-rule="evenodd" d="M26.9853 53.2257C27.1331 53.3954 27.369 53.5978 27.3573 53.7671L27.0858 54.0035C26.9565 53.9617 26.8442 53.8793 26.7656 53.7685C26.6871 53.6577 26.6464 53.5244 26.6498 53.3886C26.7779 53.2274 26.8749 53.3617 26.9853 53.2257Z" fill="white"/>
<path fill-rule="evenodd" clip-rule="evenodd" d="M26.5876 54.5389C26.4914 54.6227 26.4154 54.5696 26.3234 54.6696C26.1583 54.6041 26.0218 54.4822 25.9382 54.3255C25.8546 54.1688 25.8293 53.9876 25.8668 53.814C26.2788 53.5447 26.671 54.1779 26.5876 54.5389Z" fill="white"/>
<path fill-rule="evenodd" clip-rule="evenodd" d="M25.8603 55.3596C25.7641 55.4433 25.6881 55.3902 25.5954 55.5008C25.2495 55.2748 24.8521 54.7158 25.0032 54.3754C25.4224 54.08 25.9866 55.0706 25.8603 55.3596Z" fill="white"/>
<path fill-rule="evenodd" clip-rule="evenodd" d="M25.3369 56.2006C24.701 56.5554 24.0784 55.178 24.2014 54.7824C24.8014 54.4092 25.1946 55.7973 25.3369 56.2006Z" fill="white"/>
<path fill-rule="evenodd" clip-rule="evenodd" d="M73.3926 76.7374C74.8815 77.8875 72.6877 79.7084 71.6834 78.3152C71.5278 78.082 71.4605 77.8009 71.4937 77.5225C71.5268 77.2441 71.6582 76.9867 71.8642 76.7965C72.0703 76.6063 72.3374 76.4959 72.6175 76.485C72.8977 76.4742 73.1725 76.5637 73.3926 76.7374ZM72.3535 77.5428C72.344 77.6804 72.5094 77.8247 72.6375 77.9718C73.2319 77.8321 72.7897 77.1529 72.3485 77.5371L72.3535 77.5428Z" fill="white"/>
<path fill-rule="evenodd" clip-rule="evenodd" d="M30.8049 67.1163C30.4131 67.169 29.5356 66.481 29.6532 66.0107C30.0821 65.7267 31.1996 66.7129 30.8049 67.1163Z" fill="white"/>
<path fill-rule="evenodd" clip-rule="evenodd" d="M6.93901 39.7099C6.98426 39.6705 6.98989 39.6656 7.04481 39.7172C7.86283 40.7113 8.6128 41.7595 9.28959 42.8547C9.9372 43.7926 11.2316 45.1419 10.7318 45.8357C10.232 46.5296 8.23273 45.7642 7.25754 45.4895C6.67864 45.3272 6.05099 45.1776 5.50876 45.0231C4.93082 44.8957 4.36327 44.725 3.8109 44.5125C2.70484 43.8035 1.64348 43.0271 0.632812 42.1877C-5.63912 37.7035 -11.9847 33.0547 -18.4628 28.3224C-19.4447 27.6059 -21.1252 26.6127 -21.4913 25.9867C-22.1755 24.7326 -20.2392 21.7137 -18.591 22.0189C-18.0041 22.3047 -17.4603 22.6715 -16.9757 23.1087C-9.96228 27.9419 -3.32364 32.5045 3.68078 37.5444C4.75718 38.278 6.0195 39.1679 6.93901 39.7099ZM4.40216 43.6495C5.28172 44.0771 6.16224 44.106 7.06516 44.5033C7.39327 43.9093 7.25575 43.2831 8.11297 42.7256C7.61786 42.0428 7.21305 41.3609 6.71302 40.6725C6.13922 40.9751 5.63669 41.3968 5.23913 41.9094C4.84156 42.422 4.55815 43.0136 4.40782 43.6446L4.40216 43.6495ZM-18.9575 23.0144C-19.4551 23.1623 -19.8928 23.4646 -20.2071 23.8778C-20.5214 24.291 -20.696 24.7935 -20.7058 25.3126C-20.5476 25.2544 -20.4192 25.5503 -20.2561 25.4978C-20.1409 25.1389 -19.7183 24.562 -19.3423 24.891C-19.2175 25.2399 -19.77 25.542 -19.8259 25.889C-19.6434 26.0186 -19.4909 26.2737 -19.2825 26.1817C-19.2909 25.8409 -18.7015 25.1586 -18.3777 25.7817C-18.5765 26.0173 -18.7334 26.2851 -18.8418 26.5737C-18.7041 26.8118 -18.5437 26.7219 -18.4059 26.96C-18.2213 26.7494 -17.9707 26.1235 -17.5857 26.2457L-17.433 26.4211C-17.3267 26.8059 -18.1622 27.1257 -17.5966 27.5581C-17.3251 27.3217 -16.9289 26.5888 -16.5893 27.0589C-16.4722 27.3647 -16.9469 27.619 -17.1099 27.9001C-16.9966 28.0302 -16.8709 27.9804 -16.7676 28.1789C-16.5653 27.943 -16.156 27.328 -15.8611 27.678C-15.7214 27.9641 -16.1157 28.208 -16.2194 28.4773L-15.9337 28.8054C-15.83 28.5361 -15.3096 27.7746 -14.9706 28.2552C-14.8796 28.5539 -15.3756 28.8067 -15.3904 29.0981C-15.2386 29.3637 -15.0642 29.3013 -14.9053 29.5409C-14.6847 29.3488 -14.6925 29.0772 -14.4485 28.8548C-14.2933 28.8389 -14.1351 28.7807 -13.9915 28.9342C-13.902 29.254 -14.2984 29.5297 -14.362 29.8336C-14.2792 29.9634 -14.1716 30.0755 -14.0454 30.1635C-13.9192 30.2516 -13.7769 30.314 -13.6265 30.347C-13.6428 30.0428 -13.1439 29.4393 -12.821 29.8444C-12.773 30.1507 -13.1491 30.4384 -13.1914 30.7438C-12.999 30.9115 -12.7968 31.0675 -12.5857 31.211C-12.4521 30.9934 -12.2937 30.792 -12.1137 30.6109C-12.0004 30.741 -11.8327 30.5453 -11.7132 30.7396C-11.5937 30.9339 -12.0418 31.2645 -12.0714 31.5389C-11.8793 31.7595 -11.6452 31.8342 -11.4418 32.0449C-11.2608 31.8873 -10.9581 31.2755 -10.6872 31.5866C-10.4163 31.8978 -10.8726 32.1161 -10.8493 32.3942C-10.6443 32.6069 -10.4145 32.7941 -10.1648 32.9518C-9.98923 32.7194 -9.6876 32.2777 -9.42234 32.5937C-9.30797 32.8621 -9.61122 33.0964 -9.62876 33.3503C-9.44559 33.4693 -9.271 33.6355 -9.09275 33.7489C-8.93745 33.4247 -8.53818 32.8781 -8.19522 33.4546C-8.35193 33.6629 -8.49322 33.8824 -8.61801 34.1113C-8.49853 34.3056 -8.35441 34.2199 -8.23711 34.4459C-7.93732 34.1849 -7.59826 33.7404 -7.33958 34.1517C-7.17084 34.4026 -7.66877 34.6074 -7.71313 34.8649C-7.54947 34.8815 -7.38837 35.0893 -7.22636 35.2069C-7.13074 35.054 -6.84536 34.6165 -6.61147 34.7708C-6.23254 35.0575 -6.63107 35.2852 -6.72268 35.534C-6.58376 35.6448 -6.43358 35.7407 -6.2746 35.8201C-6.09687 35.556 -5.8173 35.2032 -5.53215 35.4621C-5.4269 35.7086 -5.60737 35.9354 -5.78784 36.1621C-5.64518 36.4059 -5.48845 36.3689 -5.34707 36.5541C-5.20035 36.2772 -4.96365 35.8522 -4.59731 36.0902C-4.42894 36.5005 -5.13545 36.877 -4.51806 37.1749C-4.40601 36.938 -4.17844 36.4912 -3.85881 36.7898C-3.53919 37.0883 -4.15574 37.3169 -3.8093 37.6119C-3.6606 37.6913 -3.42261 37.0166 -3.14512 37.2325C-2.86763 37.4484 -3.14844 37.7426 -3.25064 37.9907C-3.08698 38.1464 -2.90539 38.2821 -2.7097 38.3949C-2.61974 38.247 -2.37395 37.844 -2.16762 38.0124C-1.80985 38.2976 -2.1872 38.5267 -2.16807 38.7885C-1.98582 38.9978 -1.84039 38.9706 -1.68861 39.2363C-1.51911 39.1683 -1.2054 38.3978 -0.839631 38.875C-0.809917 39.1375 -1.05533 39.3811 -1.05171 39.6365C-0.864534 39.8515 -0.713443 39.8193 -0.566593 40.0794C-0.45947 39.8369 -0.0770117 39.2254 0.244619 39.5719C0.56625 39.9184 -0.0834958 40.1659 -0.0249593 40.473C0.162057 40.4593 0.305097 40.852 0.523319 40.7713C0.622243 40.4167 1.05559 40.0691 1.35933 40.5207C1.28049 40.7386 1.00058 40.9425 0.936513 41.1773C1.08921 41.3527 1.23463 41.3255 1.37728 41.5693C1.55263 41.4166 1.44866 41.2286 1.71433 41.0769C1.84897 41.1287 1.99021 41.0853 2.11316 41.3064C2.23611 41.5276 1.90693 41.6749 1.9206 41.862C2.06221 42.082 2.27347 42.2482 2.52064 42.334C2.48874 42.1032 2.77485 41.6552 3.07662 41.7505C3.52797 42.1431 2.84209 42.452 3.03308 42.8426C3.27046 42.9456 3.47717 43.1082 3.63313 43.3147C4.05285 42.0651 4.79989 40.951 5.79643 40.0882C-2.50938 34.5704 -10.729 28.7289 -18.9518 23.0095L-18.9575 23.0144ZM8.12864 44.7309C8.57985 44.8421 9.03751 44.9252 9.49901 44.9798C9.30328 44.5037 8.86419 44.0109 8.62614 43.5319C8.41482 43.6392 8.24894 43.8186 8.1587 44.0377C8.06845 44.2568 8.05981 44.501 8.1343 44.726L8.12864 44.7309Z" fill="white"/>
<path fill-rule="evenodd" clip-rule="evenodd" d="M31.4709 68.6556C31.0306 68.9495 30.2443 68.1721 29.7424 67.6643C29.4764 67.3589 28.9207 66.9377 29.1995 66.5955C29.5881 66.3565 29.8049 66.9137 30.0851 67.167C30.63 67.6672 31.5399 68.1181 31.4709 68.6556Z" fill="white"/>
<path fill-rule="evenodd" clip-rule="evenodd" d="M48.0267 89.6969C47.9683 89.7993 47.8827 89.8836 47.7793 89.9402C47.6759 89.9969 47.5588 90.0238 47.441 90.0179C47.2975 89.8801 47.1858 89.7128 47.1134 89.5275C47.209 89.3746 47.3988 89.09 47.6055 89.099C47.7263 89.1468 47.8304 89.2289 47.9053 89.3351C47.9801 89.4413 48.0223 89.567 48.0267 89.6969Z" fill="white"/>
<path fill-rule="evenodd" clip-rule="evenodd" d="M31.2384 69.8198C30.4447 69.765 28.8391 68.4579 28.7693 67.544C29.1099 67.307 29.2409 67.7201 29.512 67.9515C30.2204 68.548 31.2655 69.1199 31.2384 69.8198Z" fill="white"/>
<path fill-rule="evenodd" clip-rule="evenodd" d="M28.1428 68.4779C28.5727 68.1036 28.8842 68.8269 29.1342 69.0568C29.5645 69.3761 29.9685 69.7294 30.3425 70.1131C29.7817 70.9197 28.2646 69.1775 28.1428 68.4779Z" fill="white"/>
<path fill-rule="evenodd" clip-rule="evenodd" d="M11.1381 52.2651C11.698 50.6238 12.5507 53.4418 11.1381 52.2651V52.2651Z" fill="white"/>
<path fill-rule="evenodd" clip-rule="evenodd" d="M28.6487 73.0342C28.2189 73.4085 27.2917 72.5151 26.7532 71.9995C26.4773 71.6827 25.8871 71.222 26.2668 70.8814C26.6708 70.7285 26.8311 71.2552 27.0959 71.5021C27.6465 71.9973 28.5317 72.42 28.6487 73.0342Z" fill="white"/>
<path fill-rule="evenodd" clip-rule="evenodd" d="M42.7332 84.3138C44.242 85.7152 41.8239 88.0894 40.3573 86.7707C40.175 86.6212 40.0246 86.4364 39.9152 86.2275C39.8059 86.0187 39.7397 85.7899 39.7207 85.5549C39.7017 85.3198 39.7302 85.0834 39.8046 84.8597C39.879 84.6359 39.9978 84.4294 40.1537 84.2526C40.325 84.0833 40.5286 83.9502 40.7525 83.8614C40.9763 83.7725 41.2157 83.7296 41.4565 83.7354C41.6972 83.7411 41.9344 83.7952 42.1537 83.8946C42.3731 83.994 42.5702 84.1366 42.7332 84.3138ZM41.07 86.15C41.4616 86.1771 41.7847 86.194 42.0628 85.8624C42.6996 85.1089 41.3944 84.4552 40.6421 85.1103C40.6244 85.3053 40.654 85.5017 40.7286 85.6827C40.8031 85.8637 40.9202 86.024 41.07 86.15Z" fill="white"/>
<path fill-rule="evenodd" clip-rule="evenodd" d="M24.8692 72.3836C25.622 72.106 26.268 73.4531 26.9819 73.8161C26.6444 74.7763 25.1322 73.0397 24.8692 72.3836Z" fill="white"/>
<path fill-rule="evenodd" clip-rule="evenodd" d="M33.0693 81.2052C33.0397 81.2984 32.9846 81.3814 32.9103 81.445C32.836 81.5085 32.7455 81.5501 32.6489 81.565C32.5523 81.5799 32.4534 81.5674 32.3634 81.5292C32.2735 81.4909 32.196 81.4283 32.1397 81.3483C32.1461 81.2265 32.1367 81.1043 32.1117 80.9849C32.4699 80.4939 32.9413 80.7498 33.0693 81.2052Z" fill="white"/>
<path fill-rule="evenodd" clip-rule="evenodd" d="M24.9886 75.4535C24.6083 75.725 23.8419 74.8905 23.9748 74.5063C24.3275 74.2489 25.3232 75.0726 24.9886 75.4535Z" fill="white"/>
<path fill-rule="evenodd" clip-rule="evenodd" d="M25.6006 76.9375C24.9069 77.283 23.5573 75.7332 23.4721 75.0415C23.9124 74.7476 24.2768 75.4745 24.6499 75.8458C25.023 76.2172 25.7716 76.54 25.6006 76.9375Z" fill="white"/>
<path fill-rule="evenodd" clip-rule="evenodd" d="M3.11484 51.8904C3.33125 52.0443 3.5029 52.253 3.61228 52.495C3.72166 52.737 3.76487 53.0037 3.73744 53.2678C3.11669 55.5588 -0.815884 53.3042 1.45763 51.7919C1.70756 51.6275 2.00393 51.5482 2.30258 51.566C2.60122 51.5837 2.88614 51.6975 3.11484 51.8904ZM1.71624 52.8199C1.73545 52.9327 1.78542 53.0381 1.86063 53.1244C1.93584 53.2107 2.03341 53.2746 2.14258 53.3091C2.25174 53.3435 2.36827 53.3472 2.4794 53.3198C2.59052 53.2923 2.69192 53.2347 2.77244 53.1533C2.76498 53.0305 2.71516 52.9048 2.74436 52.7899C2.60144 52.6629 2.41544 52.5953 2.22436 52.6009C2.03327 52.6064 1.85152 52.6848 1.71624 52.8199Z" fill="white"/>
<path fill-rule="evenodd" clip-rule="evenodd" d="M25.5331 78.064C24.8618 78.1611 22.9302 76.5711 23.1205 75.739C23.4842 75.6312 23.5905 76.0159 23.856 76.2522C24.4784 76.7843 25.4986 77.4077 25.5331 78.064Z" fill="white"/>
<path fill-rule="evenodd" clip-rule="evenodd" d="M38.7803 98.1199C38.6588 98.1425 38.5334 98.1182 38.4292 98.0519C38.3251 97.9855 38.2499 97.8821 38.2191 97.7625C38.1882 97.643 38.2038 97.5161 38.2628 97.4076C38.3219 97.2992 38.4198 97.2171 38.537 97.1781C38.6584 97.1555 38.7838 97.1798 38.888 97.2462C38.9922 97.3125 39.0673 97.4159 39.0982 97.5354C39.1291 97.655 39.1134 97.7819 39.0544 97.8903C38.9954 97.9988 38.8974 98.0809 38.7803 98.1199Z" fill="white"/>
<path fill-rule="evenodd" clip-rule="evenodd" d="M21.6638 80.3647C21.2468 80.1929 20.891 79.8997 20.6427 79.5233C20.8455 78.8196 22.4861 79.927 21.6638 80.3647Z" fill="white"/>
<path fill-rule="evenodd" clip-rule="evenodd" d="M27.8426 87.0125C27.6251 87.6993 26.7216 87.2328 26.8866 86.6913C27.2655 86.1327 27.8367 86.5602 27.8426 87.0125Z" fill="white"/>
<path fill-rule="evenodd" clip-rule="evenodd" d="M22.1005 81.4256C21.532 81.6521 20.0071 80.4835 20.3143 79.8083C20.8704 80.07 22.0654 80.7799 22.1005 81.4256Z" fill="white"/>
<path fill-rule="evenodd" clip-rule="evenodd" d="M22.0661 82.7107C21.5292 82.591 21.0306 82.3392 20.6156 81.9782C20.2005 81.6172 19.882 81.1584 19.6889 80.6433C20.0882 80.4051 20.305 80.8826 20.636 81.1712C21.1824 81.6502 22.2665 82.1185 22.0661 82.7107Z" fill="white"/>
<path fill-rule="evenodd" clip-rule="evenodd" d="M19.8078 83.4281C19.3633 83.7057 18.3391 82.9864 18.4306 82.5089C18.8977 82.2116 19.73 82.9389 19.8078 83.4281Z" fill="white"/>
<path fill-rule="evenodd" clip-rule="evenodd" d="M18.3656 84.9704C17.9678 85.4958 17.075 84.7218 17.2297 84.3284C17.625 83.9942 18.1887 84.6073 18.3656 84.9704Z" fill="white"/>
<path fill-rule="evenodd" clip-rule="evenodd" d="M18.581 86.3236C17.9948 86.5755 17.2176 85.8201 16.8599 85.2265C17.4367 84.8038 18.5553 85.8487 18.581 86.3236Z" fill="white"/>
<path fill-rule="evenodd" clip-rule="evenodd" d="M18.4099 87.34C17.6905 87.5189 16.7853 86.6164 16.273 86.0281C16.6038 85.4715 18.3768 86.7423 18.4099 87.34Z" fill="white"/>
<path fill-rule="evenodd" clip-rule="evenodd" d="M31.364 92.0244C33.2875 93.5022 30.5791 95.6916 29.2771 94.6075C27.5729 93.1873 29.6927 90.7447 31.364 92.0244ZM29.5332 93.1313C29.3231 94.2492 31.1093 94.0961 31.0306 93.0805C30.5712 92.4959 30.0715 92.573 29.5332 93.1313Z" fill="white"/>
<path fill-rule="evenodd" clip-rule="evenodd" d="M15.7266 86.6923C16.5652 86.2505 17.2752 87.6711 18.0615 87.8318C18.3187 89.1893 16.0477 87.278 15.7266 86.6923Z" fill="white"/>
<path fill-rule="evenodd" clip-rule="evenodd" d="M17.2824 88.7986C16.5864 88.9472 15.2752 87.8413 15.1328 87.2094C15.6652 87.0442 17.1761 88.1055 17.2824 88.7986Z" fill="white"/>
<path fill-rule="evenodd" clip-rule="evenodd" d="M14.1017 87.9195C14.7931 87.3771 15.3531 88.6598 16.0065 88.6677C16.2364 89.8798 14.4014 88.5834 14.1017 87.9195Z" fill="white"/>
<path fill-rule="evenodd" clip-rule="evenodd" d="M14.594 91.1374C14.0402 91.3809 13.1023 90.5665 12.9238 89.996C13.4768 89.7631 14.589 90.5948 14.594 91.1374Z" fill="white"/>
<path fill-rule="evenodd" clip-rule="evenodd" d="M14.9998 92.8139C14.5387 92.9468 13.9027 92.4563 13.385 92.1016C12.8672 91.7469 12.1227 91.2116 12.1437 90.6761C12.5281 90.4209 13.0601 91.0318 13.5348 91.3942C14.2245 91.8778 15.0818 92.1656 14.9998 92.8139Z" fill="white"/>
<path fill-rule="evenodd" clip-rule="evenodd" d="M14.8008 93.9414C14.3014 94.1675 13.5585 93.5314 13.0085 93.1053C12.4584 92.6792 11.5391 92.0575 11.6809 91.4665C12.1758 91.3837 12.64 91.974 13.1591 92.3873C13.8507 92.9189 14.7368 93.2512 14.8008 93.9414Z" fill="white"/>
<path fill-rule="evenodd" clip-rule="evenodd" d="M13.6677 94.8215C12.9677 94.3253 12.3176 93.7623 11.7263 93.1404C11.4505 92.8237 10.6049 92.3665 11.2466 91.9271C11.7516 92.3128 12.1935 92.8431 12.7898 93.3681C13.3862 93.8931 14.4353 94.2526 13.6677 94.8215Z" fill="white"/>
<path fill-rule="evenodd" clip-rule="evenodd" d="M13.0818 95.2489C12.6811 95.5083 12.0493 95.0341 11.5655 94.6498C11.0817 94.2655 10.0766 93.4996 10.2396 92.9101C10.8036 92.8268 11.285 93.6309 11.8582 94.1065C12.4315 94.582 13.1151 94.6132 13.0818 95.2489Z" fill="white"/>
<path fill-rule="evenodd" clip-rule="evenodd" d="M11.3493 94.927C10.7045 95.4885 9.79851 94.2882 9.57158 93.8792L9.84875 93.6378C10.3247 94.0588 11.2207 94.4024 11.3493 94.927Z" fill="white"/>
<path fill-rule="evenodd" clip-rule="evenodd" d="M10.8676 97.5679C10.466 97.9177 9.80939 97.4948 9.34215 97.2552C8.87491 97.0156 8.09262 96.6427 8.18554 96.144C8.51361 95.8583 9.00362 96.3068 9.39678 96.5413C9.96659 96.7525 10.4729 97.1059 10.8676 97.5679Z" fill="white"/>
<path fill-rule="evenodd" clip-rule="evenodd" d="M10.8253 98.8456C10.2582 99.051 9.35781 98.4625 8.67511 98.0325C7.99242 97.6026 6.84356 97.0714 7.19741 96.3356C8.39206 96.8966 9.54359 98.0819 10.7529 98.4312C10.9006 98.6009 10.8771 98.7109 10.8253 98.8456Z" fill="white"/>
<path fill-rule="evenodd" clip-rule="evenodd" d="M10.3399 99.8435C9.64305 100.003 8.68726 99.2934 7.89747 98.7976C7.56634 98.5886 7.09363 98.2742 6.71397 97.9981C6.33431 97.722 5.63516 97.376 6.07018 96.9276C6.81704 97.2053 7.50883 97.6131 8.11353 98.132C8.78988 98.6348 9.51756 99.0647 10.2844 99.4143C10.4632 99.5968 10.3917 99.7088 10.3399 99.8435Z" fill="white"/>
<path fill-rule="evenodd" clip-rule="evenodd" d="M5.17982 97.9939C5.9111 97.8743 6.51749 98.6392 7.16352 99.0612C7.8285 99.5183 8.54463 99.8961 9.29736 100.187C9.45763 101.33 7.76147 100.102 6.97095 99.6168C6.18043 99.1316 5.03233 98.5898 5.17982 97.9939Z" fill="white"/>
<path fill-rule="evenodd" clip-rule="evenodd" d="M23.3274 104.12C25.073 105.634 22.504 107.96 21.1171 106.334C20.8723 106.052 20.7237 105.699 20.693 105.327C20.6623 104.955 20.751 104.583 20.9464 104.264C21.0886 104.091 21.2649 103.95 21.4643 103.848C21.6638 103.746 21.882 103.687 22.1055 103.673C22.329 103.66 22.5528 103.692 22.7631 103.769C22.9733 103.846 23.1654 103.966 23.3274 104.12ZM21.6728 104.984C21.2933 105.554 22.3355 106.396 22.858 105.683C22.9356 105.537 22.9522 105.367 22.9043 105.209C22.8564 105.051 22.7478 104.919 22.6024 104.841C22.4593 104.739 22.2822 104.697 22.1086 104.724C21.935 104.751 21.7787 104.844 21.6728 104.984Z" fill="white"/>
<path fill-rule="evenodd" clip-rule="evenodd" d="M7.76 100.958C7.31186 101.289 6.48048 100.779 5.84631 100.416C5.21214 100.054 4.30593 99.5498 4.19724 98.9681C4.74774 98.6181 5.32385 99.3596 5.93959 99.7583C6.66316 100.212 7.52999 100.363 7.76 100.958Z" fill="white"/>
<path fill-rule="evenodd" clip-rule="evenodd" d="M6.74574 110.286C5.44969 109.345 8.0473 108.913 7.27979 110.019C7.12049 110.248 6.99005 110.212 6.74574 110.286Z" fill="white"/>
<path fill-rule="evenodd" clip-rule="evenodd" d="M91.9594 -12.0049C88.7643 -8.07878 84.8382 -4.19256 81.2727 -0.29207C85.2988 0.0310233 89.1194 1.61988 92.1874 4.24697C94.8639 6.52114 97.4013 9.73201 99.8713 12.8425C100.566 13.7198 102.26 15.1979 101.834 15.7585C101.542 16.1318 100.398 15.8454 99.8896 15.8103C95.3691 15.6789 90.8726 15.5863 86.4461 15.4029C90.9575 22.2854 91.3625 28.8153 89.592 35.3597C89.3065 36.4521 88.9572 37.5268 88.5457 38.5782C88.117 39.6279 87.7471 40.9048 86.792 41.6469C83.656 38.5595 80.2104 34.1801 77.1673 30.5941C75.6354 34.4543 72.9661 38.002 68.5766 41.8243C65.7597 44.2034 62.6303 46.1857 59.2755 47.7157C58.3848 48.1433 56.8484 48.8346 56.3145 48.1758C55.7805 47.5169 56.9628 44.9457 57.1472 44.2779C58.2545 40.3299 59.4717 36.4852 60.5773 32.6381C52.8231 34.9149 45.3905 33.0725 37.8164 29.5829C37.0693 29.2389 34.9948 28.4098 34.806 27.6791C34.5481 26.6405 37.5968 25.8356 38.2438 25.5507C42.2523 23.7808 46.0113 22.1584 49.9043 20.5984C48.597 19.6132 47.3656 18.5312 46.2204 17.3616C45.8452 16.8846 45.4272 16.4429 44.9718 16.0419C44.5082 15.7494 42.6347 16.0879 41.7759 16.1296C27.8773 16.9241 14.2535 17.5887 0.285892 18.304C-0.66396 18.3553 -1.71763 18.4474 -2.91161 18.4925C-3.75345 18.5194 -5.67251 18.7484 -6.04925 18.43C-6.65622 17.9043 -6.63373 15.5773 -6.06808 15.0847C-5.66081 14.7301 -3.8454 14.7704 -3.01341 14.7321C12.1029 14.0111 27.635 13.1965 42.5292 12.6888C40.5507 9.11706 39.0674 5.29271 38.1203 1.32098C37.8992 0.518892 36.9253 -1.77591 37.7904 -2.37008C38.336 -2.72581 40.744 -1.18258 41.2824 -0.895526C44.803 1.01163 48.2413 3.10981 51.6802 4.9688C51.6127 2.78975 51.2935 0.561433 51.6706 -1.66664C52.1196 -3.92145 52.7722 -6.13087 53.6204 -8.26777C54.7581 -11.3471 56.1338 -14.7928 59.4294 -17.941C60.5163 -18.9771 62.2182 -20.4491 62.9099 -19.9176C63.3036 -19.614 63.2575 -18.6389 63.3521 -18.0848C64.0687 -13.8354 64.621 -9.59204 65.2517 -5.40705C71.0085 -11.5539 78.7289 -12.6475 84.948 -12.941C85.9938 -12.9963 87.0825 -12.9796 88.1882 -12.9777C89.2664 -13.0618 90.351 -13.003 91.4138 -12.8028C91.5771 -12.7441 91.7177 -12.6353 91.8157 -12.4921C91.9137 -12.3488 91.964 -12.1783 91.9594 -12.0049ZM78.0564 -10.8385C75.0915 -10.2458 71.7662 -9.43883 68.5602 -6.89575C67.4238 -6.09482 66.4186 -5.1222 65.5807 -4.01272C65.1075 -3.24263 65.0402 -1.65237 64.8889 -0.615509C64.3441 2.96197 64.36 6.34956 65.8594 9.88747C65.9086 9.94404 65.9776 10.0232 65.9603 9.88914C65.965 8.54973 66.2957 7.23159 66.9239 6.04862C67.5521 4.86564 68.4589 3.85337 69.5659 3.09929C71.1878 1.97747 72.9832 1.1298 74.88 0.590173C75.7351 0.34302 76.6079 0.161627 77.4906 0.0474905C78.2205 -0.0509613 79.5878 0.0115542 80.0817 -0.289262C80.5624 -0.702692 80.9912 -1.17293 81.3586 -1.68966C84.418 -5.18917 87.2669 -8.33637 90.2772 -11.6638C86.1835 -12.0299 82.0579 -11.7588 78.0473 -10.8604L78.0564 -10.8385ZM93.0947 6.65946C87.3877 0.768225 79.731 -0.600582 73.1214 2.49956C71.5998 3.20787 70.1372 3.75546 68.8263 5.1854C67.2919 6.84977 66.5849 8.61913 67.0237 10.7334C67.4248 10.6229 67.7993 10.9731 68.1996 10.8731C68.8083 10.2132 69.4873 9.6219 70.2247 9.10976C75.4137 6.1029 81.0928 9.78061 85.7095 14.5227C90.129 14.6524 94.8972 14.7372 99.2653 14.8422C99.4671 14.8455 99.8382 14.8605 99.9939 14.6851C97.4978 11.8759 95.6117 9.24159 93.0855 6.63756L93.0947 6.65946ZM61.8748 -18.4793C57.0314 -14.5501 55.5378 -10.4746 53.9351 -5.89624C52.9855 -3.22095 52.5449 -0.391605 52.6359 2.44575C52.6727 3.2989 52.7163 4.8224 53.0073 5.30501C53.5611 6.21514 54.7434 6.95602 55.6209 7.64395C57.6263 9.30962 59.8745 10.6589 62.2877 11.6451C62.6606 11.7878 63.5086 12.1334 63.5232 11.9218C62.604 10.9883 61.893 9.87063 61.4372 8.64237C60.9814 7.41411 60.791 6.10318 60.8788 4.79601C61.2959 1.50272 62.5382 -1.63181 64.4906 -4.31661C63.747 -9.0995 62.966 -13.8797 62.0898 -18.6664L61.8748 -18.4793ZM88.1495 21.2993C86.8442 17.7217 84.154 13.1818 80.337 11.5625C77.8375 10.4968 74.4527 10.2417 72.1394 11.8682C71.4724 12.398 70.8776 13.0129 70.3704 13.6972C71.1772 13.9495 71.9642 14.2616 72.7248 14.6307C76.1649 16.8566 76.9086 20.7144 77.3672 23.3883C77.6422 24.9593 77.698 26.5609 77.5329 28.1472C77.4731 28.7066 77.1928 29.3784 77.3761 29.726C77.7267 30.1579 78.1092 30.5628 78.5205 30.9374C81.2592 34.0824 83.9617 36.9804 86.6305 40.1366C89.3951 34.2084 90.4578 27.6736 88.1157 21.2492L88.1495 21.2993ZM74.6309 9.20139C75.3293 9.24962 76.2439 9.78595 76.8144 9.60738C76.0965 9.45679 75.1522 8.96627 74.607 9.16253L74.6309 9.20139ZM71.7773 9.56783C72.6987 9.62084 73.855 10.2749 74.6451 9.76591C73.7085 9.54706 72.5515 8.9036 71.7534 9.52897L71.7773 9.56783ZM62.8023 1.80817C63.2977 0.933306 63.6421 -0.018871 63.8208 -1.00827C63.2895 -0.162241 62.9349 0.782591 62.7784 1.7693L62.8023 1.80817ZM69.8651 10.4672C70.7821 10.5837 71.9415 11.1156 72.7541 10.3583C71.7699 10.2904 70.8674 9.42528 69.8412 10.4283L69.8651 10.4672ZM61.9346 6.44258C62.4739 4.86898 63.5903 3.32991 63.4996 1.71812C62.4425 3.24533 61.6648 4.80777 61.9346 6.44258ZM68.8883 11.447C69.4418 11.8999 70.0598 11.6502 70.6132 11.8745C70.7816 11.6682 71.2379 11.4498 71.2201 11.2465C70.4775 11.376 69.512 10.5757 68.894 11.4421L68.8883 11.447ZM62.6718 9.1623C63.0404 7.59817 64.0099 5.79908 63.4559 4.352C62.9964 5.92579 61.53 7.45133 62.6775 9.15737L62.6718 9.1623ZM69.701 12.3803C69.7416 12.5281 69.8016 12.6699 69.8793 12.802C70.0153 12.6828 70.1145 12.5274 70.1654 12.3539C70.0114 12.4284 69.8664 12.2961 69.7067 12.3754L69.701 12.3803ZM71.8209 15.2487C72.2446 16.2721 72.327 17.5431 73.5455 18.4513C72.913 17.3709 73.2111 15.7488 71.8265 15.2438L71.8209 15.2487ZM74.993 20.6619C75.0423 20.7184 75.1112 20.7976 75.0939 20.6635C74.8765 19.5001 74.9053 18.0827 73.6498 17.0178C74.1979 18.2412 74.2579 19.4521 74.9987 20.6569L74.993 20.6619ZM70.1156 14.6153C70.61 15.3086 70.8253 16.424 71.7166 16.6822C71.3114 15.8515 71.2886 14.4889 70.1212 14.6103L70.1156 14.6153ZM63.0691 10.0297C63.4015 10.2972 63.4511 10.811 63.8326 10.9065C64.0163 9.63259 64.6134 8.37666 63.9441 7.05983C63.603 8.03453 63.3109 9.02572 63.0691 10.0297ZM65.8674 14.2368C66.2743 14.5244 66.7674 14.6641 67.2648 14.6327C67.7621 14.6013 68.2338 14.4007 68.6013 14.0641C69.3832 13.1346 68.143 11.8474 67.0214 11.6902C65.7036 11.9129 65.0254 13.4184 65.8757 14.2693L65.8674 14.2368ZM69.0367 15.2265C69.3768 15.2288 69.6977 15.5859 70.037 15.5987C69.8437 15.3118 69.6761 15.0085 69.5361 14.6922C69.4043 14.9064 69.0159 15.0656 69.045 15.259L69.0367 15.2265ZM64.9966 11.9119C64.7416 11.1394 65.5072 10.214 64.6952 9.57846C64.6955 10.344 63.7844 11.6049 65.0049 11.9444L64.9966 11.9119ZM65.5962 11.3898L65.8168 11.1977C65.7478 11.1185 65.6394 10.994 65.5681 11.0263C65.6637 11.1818 65.523 11.2943 65.6045 11.4223L65.5962 11.3898ZM68.8043 40.1441C72.0685 37.1425 75.4496 33.0645 76.0472 29.799C76.336 28.2347 75.9036 26.4132 75.4287 24.6686C74.5879 21.6014 72.2449 17.3461 68.8915 16.0193C69.6605 20.5115 70.1743 25.773 65.5756 29.7775C64.4036 30.7969 63.0738 31.619 61.6382 32.2116C60.2038 37.2003 58.8329 42.1934 57.4669 47.1921C61.1046 45.556 65.2925 43.421 68.8127 40.1766L68.8043 40.1441ZM67.4899 18.5328C67.4441 17.578 68.2381 16.6281 67.7445 15.6158C67.3613 16.5463 66.9548 17.7356 67.4899 18.5328ZM66.5096 15.6368C66.6325 15.8917 66.7334 16.1565 66.8112 16.4285C66.949 16.2004 67.0205 15.9384 67.0176 15.6719C66.8282 15.797 66.6742 15.5631 66.4983 15.6467L66.5096 15.6368ZM63.7753 13.045C63.9723 13.2713 64.1663 13.3112 64.3483 13.6003C64.3936 13.5609 64.4558 13.5067 64.5107 13.5583C64.6691 13.4204 64.606 13.2565 64.5901 13.1013C64.2858 13.1972 64.0302 12.9722 63.7209 13.0625L63.7753 13.045ZM67.6107 22.018C67.9965 21.3919 68.2452 20.6911 68.3404 19.9619C68.4357 19.2326 68.3753 18.4914 68.1634 17.7872C68.1114 19.1552 67.3519 20.7615 67.6015 21.9961L67.6107 22.018ZM64.5233 15.3774C64.7924 15.2524 65.0274 15.5451 65.2938 15.3827C65.4312 15.1636 65.2187 14.931 64.9653 14.6742C64.8067 14.8919 64.5246 15.1276 64.5142 15.3555L64.5233 15.3774ZM61.2891 12.3257C61.8322 12.9498 62.4294 13.5248 63.0736 14.0438C63.3073 13.9979 63.5351 13.9263 63.7529 13.8303C63.0981 13.0876 62.2373 12.5563 61.2799 12.3038L61.2891 12.3257ZM62.7307 21.1653C58.9193 24.0068 54.1694 23.3492 50.8005 21.1707C45.9859 23.3741 41.1939 25.5578 36.3705 27.5798C42.0035 30.7705 48.4564 32.7101 54.5398 32.5348C56.4838 32.483 59.8224 32.3308 61.6529 30.7666C66.2861 26.8016 67.586 20.8361 65.7752 16.4952C65.3107 18.3447 64.2346 19.9828 62.7216 21.1434L62.7307 21.1653ZM64.8529 16.5325C65.526 15.9463 63.7603 15.4948 63.4613 16.5906C63.931 16.4103 64.469 16.8569 64.8438 16.5106L64.8529 16.5325ZM55.3832 12.6249C54.1571 11.1763 53.1615 9.54751 52.4313 7.79579C52.2983 7.23475 52.1118 6.68778 51.8742 6.16242C51.3664 5.80367 50.8176 5.50696 50.2393 5.27864C46.2409 3.13114 42.4579 1.17398 38.6279 -0.871512C40.218 4.89489 41.9003 12.4805 48.4794 18.0598C49.2308 18.8187 50.0865 19.4668 51.0206 19.9844C51.9393 20.1441 52.879 20.1406 53.7964 19.9741C57.5739 19.5262 61.0598 17.7208 63.6051 14.8939C63.639 14.8644 63.673 14.8348 63.6173 14.7938C60.7252 15.6414 57.6884 15.2721 55.3832 12.6249ZM58.6777 11.1086C59.5545 12.1155 60.1653 13.1253 61.0357 14.1476C61.4451 14.2323 61.8681 14.2271 62.2754 14.1323C61.0788 13.215 59.9345 11.3868 58.6891 11.0988L58.6777 11.1086ZM61.9153 17.8076C62.5608 17.8521 64.4168 18.613 64.5324 17.1696C63.6798 17.2755 62.859 16.7669 61.8983 17.8223L61.9153 17.8076ZM67.1508 24.5966C68.2387 23.7786 68.2203 22.8895 68.2606 21.9991C67.7582 22.7973 67.3873 23.6709 67.1621 24.5867L67.1508 24.5966ZM56.2089 9.59843C57.3845 11.0512 57.9569 12.4624 58.978 13.9205C59.3088 13.9805 60.1376 14.3727 60.1546 14.0496C58.9064 12.5705 57.7307 10.2724 56.2203 9.58859L56.2089 9.59843ZM59.8162 19.2575C60.8933 19.2892 61.9679 19.3794 63.0352 19.5277C63.1848 19.2084 63.7253 18.9267 63.6633 18.5928C62.4368 18.6463 60.9692 18.0346 59.8275 19.2476L59.8162 19.2575ZM53.5968 7.5467C54.4392 9.35927 55.9011 12.0546 57.926 13.2949C56.573 11.4099 55.5157 8.85944 53.5855 7.55655L53.5968 7.5467ZM65.1478 28.6582C66.209 27.6755 67.0311 26.4629 67.5511 25.1134C66.3594 26.2804 65.8838 27.4703 65.1365 28.668L65.1478 28.6582ZM56.7134 20.5371C58.6082 20.4287 60.4009 21.7221 62.3945 20.1054C60.5536 19.8188 58.4567 19.4666 56.7134 20.5371ZM53.5318 21.1892C55.4243 22.0376 57.6307 22.3442 59.4774 21.3925C57.4826 21.4089 55.539 20.6846 53.5219 21.1779L53.5318 21.1892ZM42.7035 14.1681C42.3943 13.9501 42.6111 13.5823 42.3184 13.5089C42.2058 13.6765 42.1174 13.495 42.0099 13.5886C42.065 13.665 42.0911 13.7586 42.0837 13.8525C42.0762 13.9464 42.0356 14.0347 41.9691 14.1014C41.582 14.3193 41.5455 13.615 41.3395 13.5954C41.1336 13.5759 41.3027 13.9756 41.0468 14.1387C40.7794 14.1628 40.6502 13.8774 40.4977 13.6223C40.3627 13.6616 40.2237 13.6859 40.0833 13.6948C40.241 13.8758 40.1072 14.042 39.9474 14.2011C39.5135 14.1711 39.675 13.6028 39.2063 13.6927C39.0366 13.8404 39.2464 14.0357 38.9702 14.1867C38.9061 14.1132 38.8297 14.2196 38.7585 14.1721C38.6389 14.0497 38.5458 13.9039 38.4851 13.7439C37.9722 13.7031 38.0605 13.9644 37.7304 14.2021C37.4306 14.1548 37.4591 13.7421 37.1944 13.8036C36.9296 13.865 37.0836 14.099 36.8517 14.3009C36.4574 14.2365 36.4084 13.7918 36.0088 13.8812C35.8052 14.0585 36.0467 14.2559 35.7161 14.4245C35.4106 14.3821 35.3921 14.1895 35.2875 13.9324C35.1461 14.0555 35.0383 14.0002 34.9241 13.9604C34.7148 14.1427 34.9987 14.3431 34.7266 14.5103C34.677 14.5292 34.6238 14.537 34.5709 14.5334C34.5179 14.5297 34.4664 14.5146 34.4198 14.4892C34.2134 14.3207 34.3563 14.1764 34.2028 14.0116C33.9995 14.0694 33.7873 14.089 33.5769 14.0694C33.3676 14.2517 33.542 14.4976 33.2342 14.5668C33.0282 14.5472 32.9244 14.2795 32.8499 14.1255C32.6142 14.1518 32.375 14.1512 32.1287 14.1767C32.1869 14.3349 32.2133 14.4909 32.0493 14.6338C31.8853 14.7766 31.5538 14.4188 31.5642 14.1909C31.267 14.2608 30.9822 14.1507 30.6636 14.2988C30.8212 14.4798 30.6931 14.6411 30.5276 14.8051C30.1792 14.7704 30.2715 14.511 30.0351 14.2395C29.7987 14.2931 29.5554 14.3104 29.3138 14.2907C29.1737 14.4724 29.3673 14.6718 29.0211 14.834C28.8151 14.8145 28.6606 14.5114 28.5926 14.3419C28.3012 14.3271 28.0018 14.4287 27.7212 14.3349C27.5232 14.5073 27.6899 14.7102 27.4228 14.8831C27.1557 15.056 27.0001 14.6147 26.9943 14.391C26.6684 14.4388 26.3398 14.4659 26.0105 14.4719C26.2112 14.6453 25.9942 14.7844 25.8253 14.9216C25.729 14.8894 25.643 14.832 25.5764 14.7554C25.5097 14.6789 25.4647 14.5859 25.446 14.4861C25.2558 14.4621 25.0627 14.4803 24.8804 14.5394C24.6981 14.5984 24.531 14.697 24.391 14.8279C23.8833 14.4047 23.464 14.4715 23.2481 15.0573C23.0049 14.9608 22.8732 14.8666 22.8639 14.6161C22.403 14.6693 21.9942 14.5082 21.7507 15.1081C21.4945 15.1223 21.4041 14.8927 21.2713 14.6603C20.9781 14.8261 20.7217 14.6117 20.4199 14.8247C20.5677 14.9944 20.441 15.1346 20.3299 15.2811C20.0086 15.3918 19.8895 15.038 19.7864 14.7597C19.5642 14.7444 19.3332 14.8561 19.1161 14.7666C18.976 14.9483 18.9201 15.2954 18.624 15.1952C18.5041 15.1016 18.4226 14.9674 18.3949 14.8178C18.0052 14.9185 17.6421 14.7871 17.2536 14.9463C17.4014 15.116 17.2275 15.2476 17.0684 15.3961C16.7735 15.3544 16.7761 15.1632 16.6398 14.9039C16.2184 15.0024 15.8123 14.8787 15.3837 15.0032C15.5794 15.1709 15.3625 15.3101 15.1984 15.453C14.9036 15.4113 14.9428 15.228 14.6493 14.9366C14.2608 15.0958 13.895 14.927 13.508 15.0651C13.6804 15.2631 13.5614 15.4463 13.3155 15.6207C13.2662 15.5641 13.2168 15.5873 13.1661 15.5519C12.9238 15.365 13.0519 15.2037 12.8943 15.0227C12.508 15.1502 12.1427 15.0505 11.753 15.1512C11.9008 15.3209 11.7798 15.4561 11.6736 15.6083C11.3496 15.6816 11.2317 15.3864 11.1245 15.0919C10.7702 15.181 10.4032 15.2078 10.0398 15.1711C9.84179 15.3435 10.1439 15.5877 9.89722 15.7726C9.84791 15.7931 9.79455 15.8019 9.7413 15.7982C9.68805 15.7945 9.63636 15.7785 9.59033 15.7515C9.3424 15.5695 9.47615 15.4033 9.31852 15.2223C8.97709 15.2587 8.63337 15.2687 8.2904 15.2523C8.08677 15.4296 8.41791 15.6386 8.09787 15.8079C8.05847 15.7626 7.99352 15.7794 7.94115 15.8449C7.77936 15.6943 7.65075 15.5116 7.56353 15.3085C6.94684 15.3084 6.79027 15.2657 6.54389 15.9079C6.44269 15.9407 6.33277 15.9331 6.23703 15.8867C6.0597 15.6831 6.34014 15.5483 6.06612 15.3592C5.83292 15.5026 5.62877 15.3024 5.39412 15.467C5.32166 15.6693 5.51943 15.885 5.15068 16.0669C5.10142 16.0103 5.04631 16.0384 4.99559 16.003C4.75331 15.8161 4.87651 15.6492 4.72381 15.4739C4.50085 15.4691 4.27715 15.4749 4.05912 15.4758C3.88942 15.6236 4.00891 15.8179 3.7115 15.9675C3.61036 15.9189 3.5202 15.8502 3.44651 15.7656C3.37283 15.681 3.31718 15.5822 3.28297 15.4754C3.05332 15.5652 2.80176 15.5831 2.56172 15.5265C2.38072 15.6842 2.52778 15.8645 2.31995 16.0255C2.20196 16.0139 2.09106 15.9637 2.00442 15.8828C1.91777 15.8019 1.86014 15.6947 1.84047 15.5777C1.37539 15.6147 1.30918 15.573 0.984918 16.0343C0.862556 15.892 0.706312 15.7828 0.530624 15.7168C0.35493 15.6508 0.165444 15.63 -0.0203605 15.6566C-0.183859 15.8685 -0.0426719 16.1335 -0.41397 16.1982C-0.557437 16.0604 -0.669212 15.8931 -0.741593 15.7078C-1.04278 15.7208 -1.34239 15.7588 -1.63728 15.8213C-1.6581 15.9688 -1.43057 16.1387 -1.62143 16.285L-1.83638 16.4722C-2.14161 16.3501 -2.20581 16.0479 -2.25595 15.7733C-2.57799 15.8386 -2.90633 15.8676 -3.23483 15.8599C-3.19428 15.935 -3.1806 16.0218 -3.19607 16.1058C-3.21154 16.1898 -3.25523 16.266 -3.3199 16.3218C-3.58557 16.4736 -3.80976 16.1019 -3.79934 15.8741C-4.00825 15.8968 -4.21496 15.8879 -4.42534 15.9318C-4.36222 16.0957 -4.34074 16.246 -4.50477 16.3889C-4.66882 16.5317 -4.95796 16.1768 -5.11046 15.9217C-5.33215 15.9755 -5.54926 15.8861 -5.78245 16.0295C-5.73907 16.4791 -5.73801 16.9257 -5.66781 17.3718C10.8718 16.5949 27.4246 15.6275 43.951 15.0411C43.4955 14.6322 43.3284 13.972 42.9141 13.7361C42.9413 13.7765 42.957 13.8234 42.9597 13.872C42.9623 13.9206 42.9518 13.969 42.9292 14.0121C42.9066 14.0552 42.8728 14.0914 42.8314 14.1169C42.7899 14.1424 42.7423 14.1561 42.6937 14.1568L42.7035 14.1681Z" fill="white"/>
<path fill-rule="evenodd" clip-rule="evenodd" d="M32.545 66.5653C33.2351 68.043 33.7376 69.7737 32.241 70.9675C31.4855 71.4691 30.5738 71.68 29.6748 71.5611C30.7333 73.5534 28.2674 75.8499 26.3426 75.2385C27.8389 77.4365 26.025 80.9157 23.2786 80.1146C23.5005 81.4431 23.9189 83.237 22.5758 84.2872C21.6709 84.9956 20.6702 84.783 19.6787 84.8208C20.7933 87.0031 19.012 91.0108 15.9866 90.6317C17.0004 92.7326 16.0798 96.5181 12.7295 96.8396C12.7547 98.399 13.0408 100.338 11.2638 101.667C6.56454 105.202 0.607586 100.006 -4.11162 95.0544C-10.1203 88.7596 -15.7139 80.9198 -15.2977 75.3557C-15.174 73.796 -14.377 71.5703 -12.3253 71.0368C-11.1205 70.8285 -9.88202 71.099 -8.87391 71.7909C-8.19679 69.5303 -5.19568 68.2596 -3.49163 68.8345C-3.91191 66.0676 -0.476727 64.7472 1.5215 64.7576C1.88841 64.7564 2.89879 65.0601 3.04932 64.9588C3.14394 64.6729 3.22262 64.3819 3.28496 64.0873C4.10731 61.8793 6.8434 61.6748 8.40003 62.2289C8.52033 59.7173 11.9684 58.5944 13.6421 60.071C13.8233 59.5253 13.6304 59.0867 13.8417 58.6441C14.6092 56.9215 16.9249 56.9538 18.1948 57.3498C18.5482 55.3115 21.3104 54.4975 22.6813 55.4321C22.5104 53.1343 25.7127 51.7978 27.7156 51.0483C30.1946 50.2 32.7161 49.4816 35.2699 48.8959C36.5449 48.6012 37.9796 48.2271 39.0071 48.4363C40.6793 48.7804 41.1663 50.1963 40.9434 51.6535C40.6065 53.8365 39.5727 55.9501 38.6212 58.4894C38.193 59.6082 37.8557 60.797 37.4551 61.9017C36.8372 63.6134 36.419 65.2805 34.5108 66.5841C33.8582 66.6749 33.1958 66.6685 32.545 66.5653ZM39.8148 50.289C38.5241 48.8867 36.8449 49.7224 35.3052 50.0786C34.0951 50.3565 32.8497 50.6851 31.7511 50.9655C29.2511 51.6009 26.6295 51.994 24.5761 53.5534C24.3672 53.6928 24.1772 53.8583 24.0104 54.046C22.9458 55.4504 25.3059 58.766 26.648 60.5014C28.4882 62.8773 30.5098 64.9361 32.568 65.5408C31.7333 64.9249 29.8096 63.8352 29.7818 62.7753C30.1769 62.5208 30.3675 63.0709 30.5681 63.2443C31.704 64.1946 33.0338 65.4932 34.2294 65.3472C33.669 64.8407 32.1639 64.54 32.2947 63.5709C32.6238 63.4235 32.7774 63.8168 33.0374 63.9783C33.5574 64.3013 34.6067 65.1181 34.9494 64.6208C34.7365 64.2392 33.5692 64.0523 33.5491 63.3438C34.1488 63.0503 34.6804 63.8207 35.2421 64.0774C35.3722 63.9641 35.2772 63.8778 35.4693 63.7901C35.3307 63.334 34.7618 63.4116 34.4482 62.9487C34.5311 62.8268 34.4121 62.7017 34.6269 62.5942C35.0257 62.5154 35.3778 63.1139 35.7766 63.0352C35.7126 62.9616 35.8413 62.8695 35.8471 62.7848C35.7751 62.5193 35.2472 62.5414 35.0181 62.164C35.1199 62.0754 34.9763 61.9219 35.1911 61.8144C35.4058 61.707 35.8218 62.1504 36.1471 62.1357C36.1143 61.9952 36.2557 61.8721 36.2758 61.7352C36.0344 61.458 35.3931 61.4297 35.5107 60.9593C35.8453 60.5784 36.123 61.0229 36.4388 61.1457C36.6028 61.0029 36.5503 60.8397 36.624 60.696C36.3728 60.4075 36.0933 60.452 35.8393 60.1261C35.9468 60.0325 35.7791 59.92 35.9664 59.8266C36.2379 59.5901 36.4995 59.9591 36.787 60.1065C36.951 59.9637 36.9268 59.7759 37.0231 59.6124C36.7571 59.307 36.0355 59.2093 36.3655 58.743C36.6954 58.2767 36.9566 59.1134 37.2936 58.9294C37.7518 58.5304 36.4405 58.3495 36.9075 57.8235C37.179 57.5871 37.4021 58.1288 37.6641 58.0299C38.0668 57.5102 36.8434 57.4416 37.2836 56.9191C37.5425 56.634 37.7444 57.1742 37.9975 56.9737C38.105 56.8801 38.0355 56.7318 38.1762 56.6192C37.9446 56.3534 37.3656 56.2709 37.7123 55.8695C37.9938 55.5646 38.2047 56.2065 38.4828 55.8748C38.7609 55.5432 37.655 55.3126 38.0384 54.9191C38.4218 54.5256 38.4992 55.1742 38.7531 54.9632C39.2149 54.5113 37.8992 54.3938 38.3669 53.8573C38.6319 53.7161 38.8544 54.1886 39.1301 53.9685C39.4396 53.4901 38.4439 53.5117 38.6242 53.0563C38.8046 52.6009 39.1679 53.1896 39.457 53.0075C39.8122 52.5589 38.8626 52.5305 39.007 52.0567C39.2754 51.634 39.478 52.1637 39.7339 52.0006C39.9651 51.5009 39.0506 51.5015 39.1837 51.0376C39.4251 50.698 39.6276 50.9991 39.8556 50.9298C39.8562 50.6906 39.7741 50.4935 39.8345 50.3116L39.8148 50.289ZM26.7512 62.2417C25.3464 60.7199 24.5057 58.8064 23.3355 57.4284C22.2765 56.2123 20.5121 55.5109 19.4608 56.9535C18.5979 58.1326 19.9921 59.6537 21.1372 61.1628C23.193 63.9577 26.3157 68.4689 28.9049 70.0831C29.756 70.6151 31.2875 70.7634 32.0605 69.7323C32.8335 68.7011 31.7765 67.2246 31.1931 65.9722C29.5059 65.0153 28.0073 63.7588 26.7708 62.2643L26.7512 62.2417ZM15.0422 58.8121C13.874 60.1774 16.5905 63.7197 18.2093 65.7613C19.095 66.8698 19.8101 67.5996 20.6212 68.6339C23.0468 71.6935 25.7511 75.0275 27.9608 73.9786C27.4376 73.7413 26.9719 73.3936 26.5957 72.9593C26.1761 72.5688 25.3674 72.0398 25.7672 71.5624C26.6161 71.8177 27.375 73.146 28.2026 73.4796C28.4084 73.5789 28.0912 74.0142 28.3824 73.8004C28.6807 73.5639 28.8812 73.2255 28.9454 72.8502C29.0095 72.475 28.9329 72.0893 28.7302 71.767C28.4108 72.5424 26.5192 70.7584 26.6437 70.0333C27.3979 70.0429 28.0573 71.3484 28.799 71.6176C28.1556 70.6959 27.045 70.0717 26.1378 69.1212C23.1493 65.9749 19.6341 61.5268 18.1813 58.5451C17.2187 58.3191 15.8807 57.8333 15.0422 58.8121ZM21.9962 77.2828C22.6521 77.4078 23.2611 78.2899 23.9095 78.6005C23.9956 78.8935 23.5079 78.9502 23.5183 79.0307C23.9833 78.9937 24.4352 79.1471 24.9098 78.9726C24.3444 78.6144 23.8052 78.2165 23.2961 77.7819C22.9568 77.4608 22.3011 76.9477 22.6613 76.5047C23.1082 76.424 23.3241 76.9917 23.6381 77.2952C24.0521 77.6906 24.6808 77.9786 25.0031 78.3145C25.1558 78.4899 25.1483 78.6754 25.3381 78.6992C25.7612 78.105 25.9639 77.3819 25.9113 76.6543C25.8587 75.9268 25.554 75.2404 25.0498 74.7133C24.5031 74.0854 23.5932 73.6345 22.914 72.923C20.1802 70.0744 17.6753 67.0145 15.4227 63.7719C14.9697 62.9897 14.4716 62.2346 13.9308 61.5104C13.0389 60.646 11.1246 60.0354 10.0561 61.0355C8.61912 62.3663 10.6102 65.0982 11.5298 66.4855C14.3431 70.8585 19.5971 77.6115 23.3754 78.8666C22.8989 78.6849 21.6489 77.9234 21.9842 77.3032L21.9962 77.2828ZM19.1191 81.6083C19.9556 81.7352 20.7048 82.9725 21.537 83.1628C21.8683 83.292 21.4035 83.7863 21.7095 83.5894C22.8837 82.9847 22.8908 80.5716 22.1845 79.7148C21.566 79.2076 20.9099 78.7482 20.2219 78.3405C15.396 74.3074 11.4691 69.3075 8.69436 63.6634C6.69483 62.1324 3.43277 63.6403 4.35172 66.1918C5.12826 67.8941 6.10434 69.498 7.25939 70.9699C8.36417 72.5242 9.59701 74.2255 10.8718 75.7808C13.9963 79.5745 17.886 84.1441 21.2139 83.6828C21.2139 83.6828 21.3134 83.7056 21.2705 83.6335C20.8199 83.5386 18.8821 82.4213 19.107 81.6287L19.1191 81.6083ZM-2.10522 67.3886C-3.08204 68.9851 -0.778308 71.9619 0.581688 73.9006C2.28064 76.3199 4.05894 78.5905 5.66706 80.6314C7.43188 82.9412 9.39897 85.0893 11.5449 87.0501C13.2772 88.5254 15.934 90.4686 17.781 89.1289C19.0462 88.2062 19.4827 85.6579 18.6125 84.5558C18.2897 84.2721 17.9258 84.039 17.5331 83.8645C14.8558 82.2176 12.2684 79.2691 9.92359 76.348C7.9576 74.013 6.15451 71.5455 4.52715 68.9631C4.07456 68.2035 3.54723 66.8327 3.21155 66.4586C2.20306 65.3576 -1.17165 65.8794 -2.11727 67.409L-2.10522 67.3886ZM5.46095 82.1536C2.69369 78.8791 0.133255 75.4352 -2.20545 71.8421C-2.49149 71.3651 -2.68881 70.3733 -3.11133 70.0251C-3.40852 69.7866 -4.40418 69.8082 -5.11011 69.9455C-9.77478 70.8249 -7.15152 75.3336 -5.32619 78.3092C-3.86344 80.6564 -2.25402 82.909 -0.507538 85.0535C3.337 89.891 7.49037 95.1061 11.357 95.6975C12.0406 95.8302 12.7451 95.808 13.4189 95.6325C15.8597 94.7006 15.6841 92.3174 14.9066 90.488C15.0198 90.3895 14.7687 90.3297 14.7072 90.3733C11.4442 89.0474 8.28189 85.7243 5.44893 82.174L5.46095 82.1536ZM9.02345 96.0786C4.99216 94.0989 1.36362 89.2125 -1.93636 85.0345C-4.42033 81.8965 -6.73625 78.7115 -8.09012 75.6834C-8.53229 74.6959 -8.62534 72.8872 -9.36168 72.4642C-10.532 71.7827 -12.3764 71.4692 -13.5715 73.1464C-14.9187 75.0257 -14.0402 78.239 -13.0249 80.627C-10.136 87.3709 -0.385799 99.0704 5.60939 101.249C7.08137 101.798 9.66344 101.976 11.0752 100.239C11.8254 99.3077 11.6558 98.2221 11.4586 96.9219C10.6042 96.5918 9.81341 96.4947 9.01139 96.099L9.02345 96.0786Z" fill="white"/>
</g>
</svg>
