<svg width="96" height="108" viewBox="0 0 96 108" fill="none" xmlns="http://www.w3.org/2000/svg">
<g opacity="0.4">
<path fill-rule="evenodd" clip-rule="evenodd" d="M79.6369 -7.28473C78.3669 -5.86344 75.9922 -3.84014 75.8802 -1.85031C77.9992 -0.206188 80.0908 0.789143 79.5541 2.97708C78.8984 5.68589 76.4039 4.97127 74.4219 3.91418C73.4486 3.40245 72.4112 2.79896 71.7089 3.20718C69.944 4.25554 70.0055 7.4389 68.6359 8.73478C66.6457 8.68069 62.6465 6.11607 62.4111 4.06623C62.2636 2.61874 64.1073 1.43933 63.9645 -0.0437951C63.3925 -1.32215 60.7871 -2.13105 59.8517 -1.13352C59.4458 -0.719097 59.4157 0.230289 58.8306 0.79523C57.5123 2.08696 55.0313 0.605644 53.2289 -1.04776C52.5903 -1.62438 51.7172 -2.48548 51.909 -3.25781C52.1327 -4.16369 53.2276 -4.99533 53.9092 -5.66C54.5907 -6.32468 55.3746 -6.96869 56.032 -7.69815C55.825 -8.49735 54.904 -8.79924 54.2714 -9.25546C52.7622 -10.3521 51.2833 -11.6804 51.6644 -13.1783C52.1867 -15.2013 54.9177 -16.0434 56.7827 -14.7842C57.3022 -14.4334 57.6948 -13.7222 58.2641 -13.5027C60.19 -12.7646 61.3686 -17.5835 62.4287 -18.5647C63.4566 -18.9955 64.8247 -18.1493 66.0709 -17.4242C67.3171 -16.6991 69.124 -15.4402 69.1645 -14.3656C69.205 -13.291 68.1301 -12.8337 67.6622 -11.7242C67.5028 -11.2871 67.4988 -10.8084 67.6509 -10.3687C67.8029 -9.92899 68.1017 -9.55501 68.4971 -9.30969C68.8924 -9.06437 69.3601 -8.96265 69.8217 -9.02164C70.2832 -9.08063 70.7103 -9.29671 71.0312 -9.63358C71.5247 -10.1634 71.5605 -10.9344 72.1384 -11.4169C73.917 -12.9021 78.7551 -9.325 79.6369 -7.28473ZM62.973 -17.8771C61.8006 -15.6239 60.4751 -11.5927 57.9792 -12.4344C57.2362 -12.684 56.5417 -13.6087 55.6613 -13.9995C55.4121 -14.1309 55.1384 -14.2093 54.8574 -14.2298C54.5764 -14.2503 54.2942 -14.2124 54.0286 -14.1185C53.763 -14.0246 53.5197 -13.8767 53.314 -13.6842C53.1083 -13.4916 52.9447 -13.2586 52.8335 -12.9997C52.1381 -11.1226 57.9954 -9.51434 57.0941 -7.50465C56.8094 -7.09158 56.4655 -6.7226 56.0735 -6.40955C54.9459 -5.34719 53.8942 -4.20712 52.9261 -2.9977C53.9928 -1.70528 56.4869 0.589702 58.0157 -0.123472C58.2765 -0.894333 58.6926 -1.60349 59.2384 -2.20706C60.8624 -3.56385 64.6339 -2.44271 65.1517 -0.279757C65.2515 0.517857 65.0727 1.32545 64.6456 2.00643C64.2558 2.71295 63.6514 3.14851 63.665 3.87525C63.6609 5.31738 66.7411 6.87355 68.0614 7.50323C69.0887 5.66591 69.4937 2.38054 71.7815 1.85017C72.6966 1.64381 73.8497 2.27696 75.074 2.94842C76.0917 3.48047 77.5902 4.13348 78.2313 3.1409C78.3902 2.77357 78.4309 2.3659 78.3477 1.97442C78.2646 1.58293 78.0617 1.227 77.7672 0.955966C76.9273 0.117367 75.5564 -0.236197 75.0219 -1.08191C73.8031 -3.03947 76.8941 -5.5779 78.3596 -7.27444C77.0598 -8.72427 74.6675 -10.5238 72.922 -10.4806C71.3122 -5.49715 64.8405 -8.36393 66.5097 -12.0854C66.8802 -12.9213 67.5109 -13.2809 68.0043 -14.1696C67.4033 -15.836 64.5994 -16.9826 62.973 -17.8771Z" fill="white"/>
<path fill-rule="evenodd" clip-rule="evenodd" d="M83.7177 6.53482C87.3016 7.73288 82.8006 12.3738 81.137 9.10746C80.401 7.66987 82.1002 6.04382 83.7177 6.53482ZM83.7305 7.76531C83.0875 7.19535 82.4376 7.78442 81.8968 8.39866C82.3993 10.1246 84.7594 8.68304 83.7305 7.76531Z" fill="white"/>
<path fill-rule="evenodd" clip-rule="evenodd" d="M-14.0045 76.0876C-12.8794 75.9831 -11.7462 78.1691 -10.6612 79.1174C-10.1469 79.5675 -8.89317 80.556 -8.3306 80.4354C-7.95288 80.3631 -7.64751 79.5433 -7.39838 79.1978C-7.14298 78.7618 -6.76594 78.4099 -6.31346 78.1852C-4.3927 77.5181 -1.92543 78.9888 -1.80488 80.6685C-1.64414 82.8303 -3.66938 82.6696 -3.82207 84.4055C-4.03103 86.7361 -0.326183 87.7085 0.0595741 89.3802C0.421223 90.9152 -0.832455 92.2733 -1.41109 93.0288C-1.98973 93.7842 -3.2515 95.5121 -4.75435 95.3594C-6.2572 95.2067 -6.76351 93.0288 -9.02983 93.0288C-9.31547 93.0097 -9.60123 93.0638 -9.86003 93.1862C-10.1188 93.3086 -10.3421 93.4951 -10.5085 93.728C-10.9425 94.829 -9.70489 95.8255 -9.26288 96.2916C-8.55566 96.9989 -7.76001 97.6338 -7.78412 98.783C-7.8243 100.31 -9.23073 101.194 -10.1148 101.813C-10.9988 102.432 -12.6463 103.806 -13.5384 103.758C-14.6796 103.693 -15.3546 102.15 -15.869 101.499C-16.5681 100.631 -17.2432 99.434 -18.4326 99.5625C-19.4854 99.6751 -19.7426 101.17 -20.6909 101.58C-23.1019 102.616 -26.0915 100.495 -25.8183 98.0035C-25.6805 97.3184 -25.294 96.7087 -24.7334 96.2916C-24.3637 95.938 -23.5439 95.4317 -23.4877 94.821C-23.3913 93.7842 -24.5968 92.8841 -25.3522 92.1769C-25.9148 91.6465 -27.5703 90.8107 -27.6828 90.0793C-27.8435 89.0346 -26.413 87.2424 -25.971 86.6557C-25.32 85.7798 -24.3637 84.3734 -23.335 84.1724C-20.707 83.6501 -20.1204 87.2424 -17.7094 86.9692C-17.3492 86.9034 -17.0251 86.709 -16.7975 86.4223C-16.5699 86.1355 -16.4541 85.7758 -16.4717 85.4101C-16.4717 83.4652 -19.3006 83.3366 -19.3408 81.1346C-19.28 80.3491 -18.9509 79.6085 -18.4085 79.037C-17.7978 78.2736 -15.4431 76.2162 -14.0045 76.0876ZM-14.8564 77.7994C-14.6072 85.5387 -14.567 93.6717 -14.4706 101.347C-14.2215 101.556 -13.8277 102.391 -13.6187 102.15C-13.6991 93.8887 -13.7473 85.5949 -13.9241 77.4297C-13.9241 77.3815 -13.9241 77.3413 -14.0045 77.3574C-14.2938 77.4779 -14.5831 77.6628 -14.8564 77.7994ZM-11.9069 99.8679C-11.9069 94.9335 -12.0596 90.224 -12.0596 85.402C-12.0596 83.4733 -11.7301 81.0703 -12.14 79.5755C-12.3168 78.9326 -12.7106 78.6834 -13.1526 78.1771C-13.1526 78.0968 -13.249 78.1128 -13.2249 78.2575C-13.0803 86.1977 -12.8311 94.0253 -12.6865 101.957C-11.6337 101.813 -11.9069 100.631 -11.9069 99.8679ZM-16.8012 79.2701C-16.6469 80.4829 -16.5691 81.7042 -16.5681 82.9268C-16.1316 83.4259 -15.7415 83.9639 -15.4029 84.5341C-15.3329 82.4084 -15.3865 80.2805 -15.5636 78.161C-15.9252 78.595 -16.5119 78.7959 -16.8012 79.2701ZM-6.08036 79.1978C-6.27324 83.6099 -6.23306 88.2631 -6.23306 92.86C-6.02411 93.077 -5.47764 93.744 -5.30083 93.4788C-5.23118 88.7265 -5.20436 83.934 -5.22044 79.1013C-5.51063 79.0765 -5.80288 79.1093 -6.08036 79.1978ZM-4.47304 82.9268C-3.90244 82.2276 -4.14355 80.7167 -4.0873 79.5032C-4.3284 79.5032 -4.4409 79.3344 -4.63378 79.2701C-4.52127 80.4595 -4.77845 82.0106 -4.44091 82.9268H-4.47304ZM-18.1353 80.9015C-18.2076 81.5846 -17.637 82.2999 -17.2754 82.2276C-17.3236 81.3275 -17.1629 80.2104 -17.4361 79.7362C-17.5647 80.1622 -18.0629 80.3309 -18.1272 80.9015H-18.1353ZM-11.2158 92.5627C-10.838 92.5064 -10.7095 92.1849 -10.3639 92.0965C-10.5246 88.4158 -10.5568 84.5903 -10.4362 80.8453C-10.7206 80.5165 -11.064 80.2439 -11.4488 80.0416C-11.4327 84.293 -11.2158 88.3274 -11.2077 92.5627H-11.2158ZM-8.1056 81.9141C-8.45922 83.2723 -8.0574 85.2333 -8.02526 86.9692C-7.99311 88.7051 -7.88861 90.4571 -7.95291 92.0162C-7.63426 92.1279 -7.32293 92.2594 -7.02068 92.41C-7.09301 88.2149 -6.77957 83.9956 -6.85994 80.0497C-6.92423 80.8372 -7.90468 81.2069 -8.09756 81.9141H-8.1056ZM-3.36398 81.6811C-2.94608 81.2873 -2.80949 80.3229 -3.44438 80.0738C-3.47284 80.6121 -3.43504 81.1519 -3.33185 81.6811H-3.36398ZM-9.79327 81.448C-9.72898 85.0243 -9.97812 88.8819 -9.39949 91.8956H-8.70031C-8.50743 88.681 -8.81282 85.2172 -8.70031 81.7936C-9.11017 81.657 -9.33519 81.3355 -9.79327 81.2471V81.448ZM-22.8528 85.5708C-22.4268 87.9818 -22.909 90.7544 -22.6197 93.1815C-22.4574 93.6929 -22.3259 94.2135 -22.2259 94.7406C-22.2259 95.0942 -22.4108 95.4076 -22.459 95.8255C-22.5356 96.7315 -22.5625 97.641 -22.5394 98.5499C-22.5394 99.2893 -22.8207 100.72 -21.7357 100.567C-21.6071 95.7452 -21.6473 90.3767 -21.8964 85.6431C-22.1616 85.5708 -22.7965 85.0886 -22.8689 85.5708H-22.8528ZM-24.0181 86.1896C-24.0181 88.0943 -23.9699 89.8784 -23.9377 91.7108C-23.769 91.8554 -23.4395 92.5787 -23.3189 92.2492C-23.2346 90.0445 -23.3124 87.8365 -23.552 85.6431C-23.6966 85.8521 -23.8976 86.0289 -24.0342 86.1896H-24.0181ZM-16.3994 87.9014C-16.7691 89.3802 -16.319 91.534 -16.319 93.4226V99.0964C-16.0699 99.3215 -15.5797 100.093 -15.3868 99.9001C-15.3868 95.3273 -15.2421 90.7625 -15.4671 86.3021C-15.451 86.937 -16.2628 87.2987 -16.4155 87.9014H-16.3994ZM-4.34447 94.1941C-3.62118 94.1137 -3.75778 93.286 -3.7176 92.4823C-3.6533 90.9955 -3.35598 88.5845 -3.64529 87.4353C-3.78192 86.8968 -4.38466 86.6316 -4.49717 86.27C-4.44092 88.8819 -4.69806 91.8313 -4.36856 94.1941H-4.34447ZM-20.2087 99.4018C-20.3936 95.496 -20.2087 91.1884 -20.3614 87.2746C-20.6266 87.1862 -20.9963 86.4709 -21.1651 86.7361C-21.1008 91.2313 -20.9963 95.6862 -20.8517 100.101C-20.6829 100.133 -20.4418 99.5786 -20.2087 99.4018ZM-25.0307 89.0667C-25.0307 89.8704 -25.2557 91.0116 -24.645 91.0839C-24.603 89.744 -24.6299 88.4028 -24.7253 87.0656C-25.2638 87.4192 -25.0789 88.1988 -25.0307 89.0667ZM-19.5176 98.5499C-19.2042 98.5499 -19.1238 98.3651 -18.8184 98.3892C-18.6336 95.1022 -18.8184 91.4777 -18.738 88.0541C-19.0876 87.9598 -19.4269 87.8306 -19.7506 87.6684C-19.6221 91.2366 -19.5899 94.9174 -19.5256 98.5499H-19.5176ZM-2.96215 93.0288C-2.34333 92.643 -2.0942 89.4846 -2.41567 88.5202C-2.51211 88.2309 -2.88181 88.0782 -3.0345 87.9818C-2.99432 89.6373 -3.147 91.5018 -2.9702 93.0288H-2.96215ZM-18.1192 88.2068C-18.0308 91.542 -18.1192 95.0219 -17.9585 98.3088C-17.6547 98.412 -17.3428 98.4899 -17.0262 98.5419V88.0541H-17.187C-17.3718 88.239 -17.9424 88.03 -18.1272 88.2149L-18.1192 88.2068ZM-26.3568 89.7579C-26.1892 89.9942 -25.9402 90.1603 -25.6576 90.224C-25.7621 89.7016 -25.6575 88.9864 -25.8102 88.5122C-25.9388 89.0024 -26.2442 89.2918 -26.3648 89.7659L-26.3568 89.7579ZM-1.63614 91.2366C-1.19413 90.5937 -0.776232 89.348 -1.79688 89.0587C-1.64419 89.6856 -1.82903 90.6499 -1.64418 91.2447L-1.63614 91.2366ZM-10.0344 100.021C-9.90315 99.0338 -9.95492 98.0312 -10.1871 97.0632C-10.38 96.581 -10.9907 96.2595 -11.1193 96.2595C-10.9104 97.6579 -11.1917 99.5465 -10.8863 100.848C-10.7256 100.591 -10.1871 100.535 -10.0424 100.029L-10.0344 100.021ZM-23.327 100.173C-23.3752 98.9759 -23.2385 97.5614 -23.327 96.597C-23.9056 97.1275 -23.9699 99.6911 -23.335 100.181L-23.327 100.173ZM-24.3315 99.1607C-24.3878 98.6946 -24.2351 98.0276 -24.4119 97.682C-24.5332 97.9138 -24.5904 98.1738 -24.5777 98.4352C-24.565 98.6965 -24.4828 98.9498 -24.3396 99.1688L-24.3315 99.1607ZM-9.33518 99.5545C-9.22728 99.4269 -9.14561 99.2793 -9.09488 99.1201C-9.04414 98.9609 -9.02536 98.7932 -9.03955 98.6267C-9.05373 98.4602 -9.10064 98.2982 -9.17758 98.1499C-9.25452 98.0015 -9.35994 97.8698 -9.48788 97.7624C-9.50124 98.3658 -9.45277 98.969 -9.34323 99.5625L-9.33518 99.5545Z" fill="white"/>
<path fill-rule="evenodd" clip-rule="evenodd" d="M4.03125 80.984C4.52148 80.2446 4.83493 79.6258 5.50196 79.3767C9.07022 77.9221 9.34349 84.2469 5.58236 83.186C4.60189 82.8887 4.3929 82.0127 4.03125 80.984ZM5.19657 81.4501C5.19657 83.0574 8.33087 81.9404 6.98072 80.4375C6.79762 80.3669 6.60111 80.3378 6.4054 80.3523C6.20968 80.3668 6.01959 80.4246 5.84891 80.5215C5.67822 80.6183 5.53119 80.7519 5.41838 80.9125C5.30557 81.0731 5.22981 81.2567 5.19657 81.4501Z" fill="white"/>
<path fill-rule="evenodd" clip-rule="evenodd" d="M90.9125 31.1115C93.0744 30.7337 92.7449 33.6912 91.0652 33.6751C89.7874 33.6591 89.0239 31.441 90.9125 31.1115ZM90.9125 32.6625C91.2822 32.6625 91.4751 32.55 91.459 32.1964C91.0813 31.8991 90.4785 32.3652 90.9125 32.6625Z" fill="white"/>
<path fill-rule="evenodd" clip-rule="evenodd" d="M84.5401 40.8277C84.5 42.6038 84.8294 44.2112 86.5573 44.0906C88.1646 43.9781 88.3655 42.0172 89.6675 41.8323C91.2185 41.6234 92.4321 43.1744 93.2438 43.9379C94.2309 44.8548 95.0929 45.8979 95.8074 47.04C95.1726 48.0044 94.1439 48.4223 93.0911 49.218C92.3838 49.7484 90.5756 50.8253 90.5997 51.6289C90.6238 52.4326 92.7937 53.7828 93.1634 54.3453C94.7707 56.7563 92.9062 59.971 89.8202 58.3154C88.7915 57.7609 88.0602 56.4268 86.7904 56.4509C85.8099 56.4509 84.958 57.7207 84.3071 58.6208C83.9695 59.095 82.8926 60.9514 82.1292 61.0318C81.3657 61.1122 80.6504 60.3728 80.1843 60.0192C79.5735 59.5611 79.0672 59.2798 78.4725 58.7815C77.6688 58.1145 76.2062 56.8045 76.4553 55.3579C76.6562 54.2007 78.3921 53.6863 78.5529 52.3281C78.6094 51.8792 78.5282 51.4236 78.3201 51.0218C78.112 50.62 77.7868 50.2908 77.3875 50.0779C75.523 49.3305 74.8882 51.1066 73.4255 52.0147C72.3397 52.1139 71.2491 51.8861 70.2938 51.3605C69.3386 50.8349 68.5624 50.0355 68.0651 49.0653C67.569 48.4031 67.2483 47.6263 67.1328 46.807C67.2132 45.7542 68.7964 45.055 69.7688 44.4764C70.5725 44.0183 72.4611 43.0619 72.4932 42.2261C72.5414 41.0528 70.2671 39.9759 69.7688 39.1159C69.4006 38.5307 69.2484 37.8351 69.3386 37.1495C69.4289 36.4639 69.7559 35.8314 70.2631 35.3614C70.7703 34.8914 71.4258 34.6134 72.1163 34.5755C72.8067 34.5376 73.4887 34.7422 74.0443 35.1539C75.0248 35.7888 75.3945 37.2193 76.5357 37.2514C77.5242 37.2514 78.143 36.0701 78.7859 35.2262C79.8628 33.9002 80.779 32.5741 82.6756 33.5225C83.8651 34.1091 87.3128 36.1344 87.1038 38.1033C86.9431 39.6142 85.2313 39.574 84.5401 40.8277ZM83.3748 57.7689C82.8042 54.1283 82.6114 50.1904 82.2819 46.2685C81.9524 42.3467 81.3817 38.2319 81.3496 34.527C81.3496 34.4386 81.2531 34.4065 81.1969 34.3743C79.686 35.0816 80.2486 36.5764 80.3932 38.4971C81.012 45.3524 81.6228 52.6817 82.2577 59.0869C82.6596 58.9583 83.0534 58.2029 83.3748 57.7689ZM84.074 56.7563C85.167 56.4509 84.8054 54.6748 84.6928 53.0273C84.5482 50.8655 84.4437 49.3064 84.3071 47.2008C84.3191 46.2099 84.2411 45.22 84.074 44.2433C83.8008 43.3191 83.0774 42.6762 83.1417 41.4466C83.1417 40.7634 83.6641 40.3214 83.7606 39.6624C83.9615 38.2801 83.3186 36.8818 83.5275 35.6441C83.0721 35.2205 82.5475 34.8781 81.9765 34.6315C82.6596 42.0332 83.3587 49.3867 84.074 56.7563ZM71.1672 36.1585C71.3199 37.0988 71.3601 38.1515 71.4806 39.1159C71.7459 39.2284 72.1959 39.9196 72.3405 39.6624C72.1316 38.4168 72.22 36.8737 71.8744 35.7727C71.6655 35.9254 71.2717 35.9013 71.1672 36.1585ZM73.1121 40.7474C73.4014 41.6234 74.2211 42.4511 73.3451 43.311C73.6264 45.3925 73.7711 47.6026 74.0443 49.6841C74.3922 49.5386 74.6908 49.2958 74.9042 48.9849C74.5506 44.8219 74.1568 40.7152 73.8112 36.5523C73.4912 36.2355 73.0866 36.0178 72.6459 35.9254C72.9593 37.4926 72.6459 39.3249 73.1121 40.7474ZM84.4597 39.1963C84.6446 38.9311 85.0143 38.8668 85.1589 38.5695C85.0227 37.9063 84.9714 37.2284 85.0062 36.5523C84.6607 36.4317 84.516 36.1102 84.1544 36.0058C84.191 37.0745 84.293 38.14 84.4597 39.1963ZM78.1671 37.7658C78.8663 42.1216 78.9708 46.6463 79.5655 50.9057C79.6661 51.262 79.744 51.6244 79.7985 51.9906C79.7985 52.4648 79.5896 52.9068 79.5655 53.389C79.4771 54.9963 79.9673 56.6036 79.9512 58.2109C80.3531 58.4922 81.0281 59.2959 81.3496 59.1432C80.6986 51.5084 80.2325 43.6807 79.4851 36.1344C79.0752 36.7371 78.6412 37.2595 78.1671 37.7658ZM70.6046 37.7658C70.6046 38.4168 70.7975 37.2675 70.6046 37.2273C70.5162 37.4925 70.6046 37.5086 70.6046 37.7658ZM85.7617 38.1596C85.9144 37.9426 85.842 37.4363 85.6009 37.3559C85.7697 37.5729 85.609 38.039 85.7858 38.1837L85.7617 38.1596ZM75.6517 48.8081C76.0103 48.7298 76.3783 48.7027 76.7446 48.7277C76.4955 45.272 76.1901 41.8725 75.941 38.3926C75.4196 38.1295 74.9244 37.8173 74.4622 37.4604C74.9042 41.2617 75.2819 45.055 75.6757 48.8322L75.6517 48.8081ZM76.5839 38.473C76.8732 41.9609 77.2187 45.4006 77.5161 48.9206C78.0546 48.9206 78.2474 49.3385 78.6814 49.4671C78.2957 45.7622 77.9501 42.0172 77.5965 38.2801H77.4438C77.1855 38.4155 76.8995 38.4897 76.608 38.4971L76.5839 38.473ZM90.5033 49.893C90.7605 49.6118 91.1784 49.4832 91.3552 49.0894C91.2186 47.2329 91.1141 45.3443 90.9694 43.4637C90.6836 43.2145 90.3321 43.0526 89.9568 42.9976C89.9477 45.3162 90.1386 47.6313 90.5274 49.9171L90.5033 49.893ZM88.6308 47.5624C88.8799 50.4717 89.1853 53.6863 89.3299 56.3464C89.6675 56.6277 89.9005 57.0215 90.4229 57.1501C89.9407 55.8723 90.3667 54.1605 89.9568 52.8746C89.8202 52.4406 89.4344 52.2317 89.4103 51.7816C89.3862 51.3316 89.6755 50.978 89.7237 50.6163C89.9889 48.4706 89.1049 46.0596 89.2576 43.5441C88.0763 44.2996 88.5102 45.8024 88.6549 47.5865L88.6308 47.5624ZM72.5575 43.9861C72.3169 44.2519 72.0242 44.4653 71.6976 44.613C71.9789 46.6302 72.0592 48.8563 72.3968 50.8253C72.6668 50.8569 72.9404 50.8323 73.2004 50.753C73.2181 48.4901 73.0081 46.2311 72.5736 44.0102L72.5575 43.9861ZM91.982 48.6474C92.3965 48.5523 92.7589 48.3021 92.9946 47.9482C93.0589 47.2892 92.9223 46.1641 92.9143 45.3122C92.5604 44.8658 92.1435 44.4732 91.6766 44.1469C91.7409 45.722 91.974 47.0963 91.9981 48.6715L91.982 48.6474ZM85.6894 55.4946C86.0028 55.4463 86.1475 55.2213 86.5413 55.2615C86.4046 51.8781 86.1715 48.5831 86.0028 45.2318C85.5888 45.1995 85.189 45.0671 84.8375 44.846C85.1348 48.4143 85.4482 51.9343 85.7054 55.5187L85.6894 55.4946ZM86.6779 45.3363C86.9029 48.6795 87.144 52.0147 87.377 55.3579C87.9155 55.3579 88.1807 55.7196 88.6227 55.8241C88.3093 52.2237 88.2048 48.4223 87.7628 44.9425C87.4815 45.1997 87.0315 45.2318 86.6779 45.3363ZM70.3555 45.5693C70.6246 47.1386 70.8071 48.7216 70.902 50.3109C71.1833 50.3833 71.3842 50.552 71.7056 50.6163C71.5288 48.7518 71.4565 46.7829 71.1672 44.9907C70.9261 45.2961 70.5002 45.3041 70.3153 45.5693H70.3555ZM68.4107 46.8874C68.6206 47.4834 68.8899 48.0568 69.2143 48.5991C69.4715 49.009 70.018 49.8046 70.2992 49.6841C70.034 48.5027 70.034 47.0481 69.7608 45.8747C69.2465 46.2042 68.7964 46.5337 68.3704 46.8874H68.4107ZM93.7501 47.5865C94.0715 47.5464 94.1198 47.2329 94.4493 47.2008C94.2665 46.8037 93.9908 46.4563 93.6456 46.1882C93.6161 46.6552 93.6376 47.1241 93.7099 47.5865H93.7501ZM91.2668 57.5359C91.3772 57.5834 91.4962 57.6079 91.6164 57.6079C91.7366 57.6079 91.8555 57.5834 91.966 57.5359C92.0062 56.1616 92.0704 54.1123 90.873 53.7265C90.8488 55.1088 91.1944 56.1696 91.2266 57.5359H91.2668ZM77.6608 55.8241C77.6608 56.6277 78.6734 57.1581 79.2199 57.6886C79.2381 56.5421 79.1331 55.397 78.9065 54.273C78.5368 54.9159 77.6367 55.0927 77.6206 55.8241H77.6608Z" fill="white"/>
<path fill-rule="evenodd" clip-rule="evenodd" d="M56.736 66.4746C58.922 66.0888 58.3433 69.199 56.6556 69.0463C56.3503 68.989 56.0756 68.8245 55.8809 68.5823C55.6863 68.3402 55.5847 68.0365 55.5944 67.726C55.6041 67.4155 55.7245 67.1187 55.9338 66.8892C56.1432 66.6597 56.4277 66.5127 56.736 66.4746ZM56.8164 68.0819C56.9369 67.9212 57.2343 67.9372 57.2021 67.6158C57.1811 67.5631 57.1496 67.5154 57.1096 67.4753C57.0695 67.4352 57.0217 67.4037 56.9691 67.3827C56.6798 67.4791 56.3663 67.9533 56.8164 68.106V68.0819Z" fill="white"/>
<path fill-rule="evenodd" clip-rule="evenodd" d="M53.2364 75.1835C54.2892 74.9665 55.2777 77.0802 55.8805 77.6668C56.4832 78.2535 57.5923 79.1617 58.6933 78.9688C59.7943 78.7759 59.9872 77.2409 61.257 76.7989C63.459 75.9952 66.6013 78.3178 65.4521 80.9136C64.986 81.9745 63.3304 82.6897 63.2742 83.7907C63.1697 85.9526 66.8665 86.5393 67.1639 88.452C67.3005 89.336 66.6254 90.3004 66.1513 91.0157C65.6771 91.7309 65.1306 92.6632 64.7529 93.1213C64.2386 93.7401 63.5956 94.592 62.6553 94.592C61.048 94.592 60.0515 91.2166 57.6003 92.1086C57.3891 92.2116 57.2057 92.364 57.0658 92.5528C56.9259 92.7417 56.8336 92.9615 56.7967 93.1936C56.5395 95.4519 59.6014 95.3072 59.5934 97.6298C59.5934 99.5264 57.1824 100.925 55.9367 101.897C55.4063 102.315 55.1331 102.87 54.3294 102.838C53.3811 102.789 52.3283 100.909 51.613 100.193C50.8978 99.4782 49.8048 98.3451 48.6556 98.5862C47.8519 98.7388 47.3456 100.668 46.3249 100.997C45.7276 101.161 45.0965 101.157 44.5016 100.984C43.9068 100.811 43.3715 100.476 42.9552 100.018C42.5389 99.559 42.2579 98.9938 42.1434 98.385C42.0289 97.7762 42.0854 97.1476 42.3066 96.569C42.7085 95.5563 43.914 95.1867 44.0184 94.158C44.1711 92.7516 42.821 92.0524 42.0736 91.3612C41.4869 90.8228 39.8796 89.8021 39.743 89.0306C39.5742 88.0662 40.4984 87.0295 40.9886 86.3142C41.8646 85.0123 42.8451 83.2041 44.8703 83.2764C46.8955 83.3487 47.1607 85.6151 48.8404 85.9204C49.1659 85.9956 49.5046 85.9926 49.8287 85.9116C50.1528 85.8305 50.4531 85.6738 50.7049 85.4543C51.5086 84.3935 50.4879 83.0433 49.845 82.3442C49.202 81.645 48.101 80.8735 48.2376 79.5474C48.3261 78.5107 49.4512 77.7311 50.3352 77.0641C51.1896 76.3802 52.1042 75.7749 53.0677 75.2559C53.14 75.2318 53.1641 75.1916 53.2364 75.1835ZM62.7116 85.6713C62.2484 85.1305 61.9996 84.4385 62.0124 83.7265C62.1089 82.0548 64.56 81.3155 64.4957 79.7081C64.4555 78.7357 63.1375 77.6829 61.7793 77.924C60.7185 78.1169 60.397 79.7081 59.2157 80.0216C57.3833 80.5118 56.1377 79.2179 55.4063 78.4705C54.6977 77.7719 54.0472 77.0166 53.4614 76.2122C52.5738 76.6344 51.7378 77.1575 50.9701 77.7713C50.3352 78.2776 49.2422 79.0491 49.2663 79.7885C49.2904 80.5279 50.1664 81.1065 50.5844 81.5003C51.1542 81.9865 51.6051 82.5968 51.9023 83.2844C52.8587 85.9847 50.295 88.0502 47.7876 86.8607C46.8634 86.4268 46.0356 84.5703 44.7578 84.5301C43.713 84.5301 43.0139 85.5909 42.4995 86.2419C41.8591 86.9859 41.3361 87.8233 40.9485 88.7252C42.4915 90.5576 44.6614 91.2487 45.1436 93.4668C45.5936 95.5242 43.8175 95.6769 43.3594 97.1235C43.2307 97.4914 43.2082 97.8881 43.2947 98.2682C43.3811 98.6483 43.5729 98.9963 43.8481 99.2723C44.1233 99.5483 44.4707 99.7412 44.8505 99.8288C45.2303 99.9164 45.6272 99.8952 45.9955 99.7675C46.9759 99.3979 46.9759 97.7986 48.2537 97.5092C48.9423 97.3918 49.6504 97.5018 50.2709 97.8227C51.8782 98.6263 52.915 100.635 54.241 101.704C55.776 100.507 57.6003 99.5747 58.4361 97.6861C57.9298 96.1993 56.4591 96.0787 55.8724 94.8089C55.5427 94.1441 55.4849 93.3769 55.7115 92.6702C55.9381 91.9635 56.4311 91.3729 57.086 91.0237C59.2317 90.1236 61.5222 92.2935 62.7598 93.3624C64.1468 92.0693 65.2569 90.5082 66.0227 88.7734C65.1226 87.5117 63.5876 86.8527 62.7116 85.6713Z" fill="white"/>
<path fill-rule="evenodd" clip-rule="evenodd" d="M59.9239 85.207C60.2052 86.2196 60.3016 87.827 60.4623 88.703C59.3051 88.7994 59.4658 86.1554 59.6105 85.207H59.9239Z" fill="white"/>
<path fill-rule="evenodd" clip-rule="evenodd" d="M61.6256 85.9871C61.722 87.0801 61.9953 88.3981 62.0194 89.3304C60.8541 89.1777 61.1032 86.8471 61.2157 85.9068C61.4568 85.8425 61.4407 86.0193 61.6256 85.9871Z" fill="white"/>
<path fill-rule="evenodd" clip-rule="evenodd" d="M63.1864 87.2324C63.3551 87.8914 63.6766 89.4586 63.1864 90.0292C62.4792 89.7157 62.8006 87.9879 62.7926 87.2324H63.1864Z" fill="white"/>
<path fill-rule="evenodd" clip-rule="evenodd" d="M75.6214 88.5481C77.7913 88.2026 77.6065 91.3288 75.8545 91.4253C75.1473 91.4253 74.0784 90.8788 74.0704 90.0269C74.0623 89.175 74.9062 88.6607 75.6214 88.5481ZM76.2402 89.8661C76.1518 89.3598 75.1955 89.5447 75.2357 90.2599C75.742 90.6216 76.3206 90.3162 76.2402 89.8661Z" fill="white"/>
<path fill-rule="evenodd" clip-rule="evenodd" d="M38.0802 105.258C38.3818 105.197 38.6953 105.244 38.9657 105.391C39.2361 105.538 39.4461 105.776 39.5589 106.062C40.0572 108.184 36.4648 108.626 36.6015 106.448C36.6497 105.668 37.2685 105.347 38.0802 105.258ZM37.6141 106.737C37.9436 107.035 38.5945 106.874 38.5463 106.351C38.4613 106.306 38.3671 106.279 38.2707 106.274C38.1742 106.269 38.0779 106.286 37.9886 106.323C37.8994 106.36 37.8194 106.416 37.7547 106.488C37.6899 106.56 37.6418 106.645 37.6141 106.737Z" fill="white"/>
<path fill-rule="evenodd" clip-rule="evenodd" d="M25.262 -3.9749C25.7201 -1.56391 26.9819 2.7196 24.2574 3.48308C22.7225 3.91706 20.5285 3.12142 20.4481 4.72875C20.3999 5.70921 21.5652 6.26374 22.6983 6.33607C23.502 6.4084 24.2093 6.12712 24.7959 6.33607C26.4595 6.93078 26.0496 9.49446 25.8085 11.3911C27.1988 11.6804 29.7625 12.3073 30.9359 11.3911C30.6224 9.54268 30.7993 7.87107 32.1816 7.42906C32.7108 7.25428 33.2759 7.21728 33.8234 7.32159C34.371 7.4259 34.8829 7.66807 35.3108 8.02521C35.7387 8.38235 36.0685 8.84266 36.2691 9.3627C36.4696 9.88273 36.5343 10.4453 36.457 10.9973C36.7528 11.363 37.1365 11.6477 37.5722 11.8248C38.0079 12.0019 38.4814 12.0656 38.9484 12.0099C40.0735 12.0099 41.4397 11.2063 42.4443 11.7769C43.248 12.2671 42.9988 14.2843 43.0631 15.2728C43.1274 16.2613 43.4811 17.9972 42.8301 18.7768C42.0264 19.6929 40.4191 19.0018 39.1814 19.3152C38.8519 19.3956 37.8635 19.8376 37.8554 20.5609C37.8474 21.2842 38.8761 21.5494 40.0333 21.7262C41.8255 21.9994 42.9185 22.4334 43.0631 24.2175C43.2078 26.0017 42.4925 27.3277 42.364 29.0395C40.7004 29.6905 38.3456 28.8948 36.5374 29.2002C36.0472 30.3495 36.5374 30.9281 36.3043 31.7639C35.565 34.2794 31.2252 33.7811 30.5501 31.6836C30.3572 31.0808 30.6385 29.9798 30.3171 29.4333C29.6661 28.3082 26.6765 29.0958 25.5755 29.1199C26.0094 31.4746 26.2264 33.8615 24.6432 34.7455C23.3895 35.4286 20.1186 34.3919 20.4481 36.6904C20.5767 37.5905 21.6777 37.6306 22.9314 37.703C24.362 37.7833 25.471 38.0887 25.8889 39.1014C26.4193 40.3952 25.9692 42.6535 25.6558 44.2287C25.2277 45.7999 25.0168 47.4223 25.029 49.0507C27.0542 49.8543 29.5858 49.0507 30.3171 51.1482C30.4497 51.5468 30.4927 51.9698 30.443 52.3869C30.3933 52.804 30.252 53.205 30.0294 53.5612C29.8068 53.9175 29.5082 54.2201 29.1551 54.4476C28.8019 54.6751 28.4029 54.8218 27.9864 54.8772C27.1828 54.9656 26.4354 54.4272 25.6558 54.6442C23.4538 55.2549 25.913 59.2009 24.8521 60.5511C7.36448 60.7198 -10.7902 60.5912 -28.1895 60.6314C-27.7877 59.0804 -27.0402 57.0069 -27.643 55.1906C-29.7727 54.6442 -32.7302 55.1103 -33.0838 52.9324C-33.1756 52.4281 -33.1043 51.9077 -32.8804 51.4467C-32.6564 50.9857 -32.2913 50.6081 -31.8381 50.3687C-30.93 50.0472 -30.0058 50.449 -29.2744 50.2883C-27.0081 49.7981 -27.6671 46.937 -28.0288 44.3814C-30.9139 44.5421 -31.8703 42.7741 -32.1515 40.3631C-32.3818 40.1289 -32.6677 39.9568 -32.9825 39.8629C-33.2973 39.7691 -33.6307 39.7564 -33.9516 39.8262C-34.2726 39.896 -34.5707 40.046 -34.818 40.2622C-35.0654 40.4783 -35.254 40.7536 -35.3662 41.0623C-35.5671 41.6972 -35.2938 42.549 -35.5992 43.2322C-35.985 44.1162 -37.2065 44.3091 -38.396 44.3252C-39.5854 44.3412 -41.0239 44.3251 -41.4258 43.4652C-41.5061 28.8788 -41.466 13.7298 -41.2731 -0.832577C-40.3328 -2.21487 -39.4648 -3.4686 -37.536 -3.7097C-34.5143 -4.08742 -31.3238 -3.63737 -28.1332 -3.79007C-19.1081 -4.21601 -8.84533 -3.45253 0.0833473 -3.8624C8.57001 -4.28834 17.0406 -3.76594 25.262 -3.9749ZM-40.2605 -0.631662C-40.2605 3.38664 -40.1158 7.21206 -40.1801 11.2625C-39.4327 11.6804 -37.2628 12.476 -36.6038 11.3348C-36.3145 10.8366 -36.5234 10.1695 -36.4511 9.62304C-36.3792 8.9472 -36.0773 8.31659 -35.596 7.83673C-35.1147 7.35687 -34.4831 7.05689 -33.8071 6.98703C-33.4316 6.9673 -33.0562 7.02891 -32.7067 7.16761C-32.3571 7.30632 -32.0417 7.51884 -31.7818 7.79069C-31.1148 8.68276 -31.5407 10.1615 -31.4764 11.5277C-30.7692 11.9858 -29.4191 11.801 -28.2618 11.8331C-28.8485 9.71948 -28.969 7.16384 -27.1769 6.31196C-25.9071 5.71725 -22.9577 6.38429 -23.0541 4.70464C-23.1586 2.86425 -26.3571 4.19832 -27.643 3.46699C-29.403 2.45438 -28.0368 -0.800438 -27.8761 -2.67297C-32.3926 -2.42383 -38.7094 -4.03115 -40.2605 -0.631662ZM8.55392 -2.72923C7.71633 -1.32779 7.36067 0.309379 7.5413 1.93202C9.30132 2.92856 12.7571 1.68287 13.1669 4.02956C13.6009 6.70576 10.5872 7.82284 8.11192 7.29243C7.68598 8.50596 8.16817 10.057 8.26461 11.2625C11.1337 10.9169 14.1152 10.9491 14.8707 13.127C15.1198 13.8262 14.8707 14.6218 15.2645 15.2246C15.3981 15.3986 15.566 15.5434 15.7577 15.6502C15.9495 15.7569 16.1611 15.8232 16.3794 15.845C16.5978 15.8668 16.8183 15.8437 17.0273 15.7771C17.2364 15.7105 17.4296 15.6018 17.5951 15.4576C17.9809 14.9513 17.6996 14.3325 17.9086 13.5128C18.5354 11.0375 21.6456 10.8768 24.6673 11.3348C24.812 10.1374 25.0451 8.30505 24.4343 7.45317C21.9429 7.63801 20.0061 7.33261 19.3792 5.58062C19.1846 4.97209 19.2395 4.31121 19.5319 3.74313C19.8242 3.17504 20.33 2.74622 20.9383 2.55083C22.0795 2.16507 23.8797 2.77586 24.5146 1.93202C25.4147 0.718491 24.2334 -1.68448 24.2816 -2.8096C19.0256 -2.77746 13.8259 -2.68905 8.55392 -2.72923ZM-27.1206 2.31776C-24.7096 2.31776 -22.3468 2.31777 -21.9129 4.18226C-21.4789 6.04676 -23.0701 6.98703 -24.4765 7.13973C-25.5052 7.25224 -26.4134 6.87453 -27.1206 7.5255C-27.9966 8.32916 -27.5948 10.499 -27.2733 11.4956C-24.7418 11.6724 -20.844 10.8848 -20.2011 12.8939C-19.7832 14.2039 -20.5145 15.6505 -19.1161 15.8434C-17.7178 16.0363 -16.3274 14.3084 -16.8578 12.5002C-15.7086 11.142 -12.5502 11.4715 -10.4286 11.6965C-10.3643 10.3383 -9.96243 8.73901 -10.5813 7.88713C-11.2001 7.03525 -12.277 7.46923 -13.5387 7.26027C-14.152 7.17369 -14.712 6.86461 -15.1122 6.39186C-15.5123 5.91912 -15.7246 5.31576 -15.7086 4.69662C-15.5849 4.18828 -15.3238 3.72372 -14.9539 3.35378C-14.5839 2.98384 -14.1194 2.72274 -13.6111 2.59905C-12.6949 2.43028 -11.7144 3.03302 -10.967 2.51868C-9.89009 1.78734 -10.7259 -1.42731 -10.734 -2.76138L-26.5018 -2.76138C-26.9599 -1.38712 -27.5707 0.822951 -27.1206 2.31776ZM-9.39989 -2.50421C-9.55259 -0.358431 -8.70874 2.03648 -9.94638 3.32234C-11.0313 4.4555 -14.5192 3.09732 -14.4549 5.03414C-14.3987 6.4968 -11.8752 5.83781 -10.6456 6.35216C-8.80518 7.1076 -8.94178 9.29355 -9.1668 11.7929C-7.79254 11.8733 -4.15199 12.4439 -3.87875 10.9411C-3.7582 10.2499 -4.28054 9.71145 -4.19213 9.07656C-3.81441 6.44858 1.16829 7.05937 1.63441 9.46232C1.73085 9.96863 1.56208 10.5232 1.63441 11.0696C2.73542 12.1546 5.44373 11.5599 7.07516 11.3831C6.85014 9.77574 5.96611 6.37626 7.87882 6.01461C8.4896 5.9021 9.22095 6.22357 9.89602 6.17535C10.1666 6.19309 10.4378 6.15286 10.6915 6.05736C10.9453 5.96185 11.1758 5.81328 11.3675 5.62156C11.5592 5.42984 11.7078 5.19941 11.8033 4.94565C11.8988 4.6919 11.939 4.42066 11.9213 4.15011C10.547 2.88032 7.90297 4.1903 6.71355 2.75175C5.66879 1.48196 6.61712 -1.02548 6.86625 -2.76138L-9.3195 -2.76138C-9.41594 -2.7212 -9.40793 -2.60867 -9.39989 -2.49616V-2.50421ZM-32.248 12.1063C-33.2043 10.8687 -31.5488 7.98357 -33.7267 8.14431C-35.5349 8.27289 -34.9241 10.3624 -35.334 11.7206C-35.8966 13.4565 -38.5487 13.3279 -40.156 12.6529V28.5814C-38.1709 28.3725 -35.8886 28.1796 -35.4144 29.6744C-35.1492 30.4781 -35.551 31.5309 -35.101 32.1577C-34.7859 32.4871 -34.3672 32.6981 -33.9149 32.7552C-33.4627 32.8122 -33.0046 32.7119 -32.6176 32.4711C-31.8622 31.9407 -32.2319 30.6709 -31.9908 29.9798C-31.4925 28.5653 -29.6522 28.4769 -28.0288 28.3725C-27.7957 26.8616 -27.418 24.6113 -28.1815 23.3978C-30.3112 23.0924 -31.9747 22.8915 -32.4569 21.1475C-32.8347 19.7894 -32.3203 18.5437 -31.372 18.1901C-30.4236 17.8365 -28.2779 18.7687 -27.7153 17.8043C-26.992 16.5587 -28.3181 14.0191 -28.0288 12.7493C-29.8129 12.7493 -31.5006 13.0868 -32.248 12.1144V12.1063ZM-1.78115 8.53007C-3.70994 8.68277 -2.40804 10.049 -2.71343 11.4072C-2.82614 11.7096 -3.00304 11.984 -3.23195 12.2116C-3.46087 12.4391 -3.73633 12.6143 -4.03944 12.7252C-5.34941 13.352 -7.39074 13.1752 -9.39989 13.0386C-9.45615 14.6459 -10.2036 16.7033 -9.55259 18.0133C-8.62035 18.399 -7.72024 17.9008 -6.83621 18.0133C-6.22801 18.0888 -5.65934 18.355 -5.21177 18.7737C-4.76421 19.1924 -4.4607 19.7421 -4.34483 20.3439C-4.04748 22.8192 -6.75584 23.221 -9.08646 23.4541C-9.80975 24.6194 -9.32756 26.6687 -9.2472 28.1957C-7.10946 28.1073 -4.6663 27.7617 -3.34026 28.8145C-2.39997 29.5619 -2.53662 30.8477 -2.40803 32.2381C-1.96687 32.4871 -1.45845 32.5909 -0.954975 32.5346C-0.4515 32.4784 0.0214386 32.2649 0.39674 31.9246C0.935192 31.2335 0.549446 30.4539 0.862877 29.594C1.61832 27.5125 4.50346 27.6492 7.3886 27.8822C7.3886 26.5723 8.40125 24.2175 7.469 23.221C6.53675 22.2245 4.1418 22.996 3.11312 22.4173C2.70322 22.1822 2.38203 21.8188 2.19904 21.3831C2.01606 20.9474 1.98142 20.4637 2.1005 20.0064C2.25694 19.5827 2.51686 19.205 2.85653 18.9074C3.1962 18.6098 3.60488 18.4019 4.04539 18.3026C4.84905 18.1017 5.78934 18.4955 6.60907 18.0695C8.01548 17.3302 7.58952 14.445 7.2359 12.6287C4.33469 12.9663 -0.45512 13.5851 0.46909 9.67126C0.227959 9.30002 -0.107449 8.99952 -0.502819 8.80042C-0.89819 8.60132 -1.33932 8.5108 -1.78115 8.53812V8.53007ZM35.4445 11.3268C35.2998 10.8768 35.4444 10.3383 35.2917 9.84806C35.0602 9.41891 34.7092 9.06606 34.2813 8.83216C33.8535 8.59825 33.367 8.49333 32.8808 8.53007C31.3699 8.7551 32.4709 10.7643 32.0289 11.9537C31.3538 13.7378 27.7695 12.91 25.4951 12.8056C25.6398 13.9468 24.0646 17.0971 25.4228 17.9329C26.2264 18.4472 27.4078 17.7079 28.3722 17.8606C28.9916 18.0085 29.5304 18.3888 29.8774 18.9228C30.2244 19.4567 30.353 20.1036 30.2367 20.7296C30.0835 21.4444 29.6942 22.0867 29.1315 22.5533C28.5687 23.0198 27.8653 23.2833 27.1346 23.3014C26.477 23.2214 25.8098 23.3013 25.1897 23.5344C24.7316 24.9408 25.3585 26.4919 25.4228 27.8822C28.5249 27.4482 32.487 27.2072 31.7154 31.3058C32.0332 31.7234 32.4743 32.0304 32.9763 32.1833C33.4782 32.3362 34.0156 32.3273 34.5122 32.1577C35.6534 31.6835 34.9863 29.1118 35.7578 28.4287C37.0919 27.2474 39.2859 28.7823 41.279 28.3484C41.0379 27.0545 42.6613 24.5229 41.5121 23.3737C40.845 22.7067 39.3502 23.0522 38.2412 22.6745C37.7178 22.5047 37.2731 22.1522 36.9883 21.6815C36.7034 21.2107 36.5976 20.6532 36.6901 20.1108C37.1482 18.182 39.5511 18.0133 41.8175 18.0133C42.364 16.4059 41.8818 13.995 41.3513 12.7252C38.7957 13.2235 36.0793 13.2797 35.4445 11.3348V11.3268ZM19.2024 13.4244C18.7283 14.228 19.0658 15.1683 18.8167 15.755C18.6828 16.0395 18.4882 16.2913 18.2467 16.4926C18.0051 16.6939 17.7223 16.8399 17.4183 16.9203C17.0714 17.0411 16.7037 17.0906 16.3373 17.0656C15.9708 17.0407 15.6132 16.942 15.2859 16.7753C14.9586 16.6087 14.6684 16.3775 14.4327 16.0959C14.197 15.8142 14.0207 15.4877 13.9143 15.1362C13.7777 14.5897 13.9786 13.8905 13.6089 13.2717C12.8856 12.0662 10.2818 12.2028 8.47358 12.4198C9.02007 15.0558 8.9718 18.3347 7.07516 19.1786C5.77323 19.7572 3.05686 19.05 3.26582 20.7296C3.3944 21.9753 6.66529 21.3967 7.77435 22.0557C9.61473 23.1406 8.57803 25.8168 8.40122 27.9626C9.74334 27.9626 12.0418 28.3082 12.9821 27.5688C13.609 27.0786 13.5125 26.066 13.842 25.3989C14.0233 25.0374 14.2861 24.7229 14.6096 24.4803C14.9332 24.2376 15.3087 24.0734 15.7065 24.0006C18.6238 23.5505 19.1542 25.9213 19.5159 28.1957C20.9866 28.6055 22.7305 28.0992 24.2574 28.043C24.153 26.0177 23.0841 23.8237 24.3298 22.5941C25.1335 21.7905 26.9417 22.4254 28.0668 21.7905C28.3632 21.6375 28.6129 21.4075 28.7897 21.1247C28.9665 20.8418 29.0638 20.5166 29.0714 20.1832C28.983 18.4231 27.0542 19.3795 25.8567 19.3232C22.8591 19.1143 23.719 15.2406 24.2977 12.5644C22.3769 12.1546 19.9257 12.1948 19.2024 13.4324V13.4244ZM-26.8875 12.7252C-26.8875 14.7183 -25.6981 17.4507 -26.9679 18.7928C-27.9484 19.8295 -29.4593 19.2429 -31.0827 19.3313C-31.2194 19.5035 -31.3166 19.7036 -31.3675 19.9176C-31.4184 20.1315 -31.4218 20.354 -31.3773 20.5693C-31.3329 20.7847 -31.2417 20.9877 -31.1103 21.164C-30.9788 21.3403 -30.8103 21.4855 -30.6165 21.5896C-29.8129 22.1119 -28.6074 21.8789 -27.8198 22.2084C-26.0517 22.9558 -26.5982 26.3312 -26.8072 28.4287C-25.0954 28.4287 -22.5317 29.144 -21.2941 28.1957C-21.6236 26.1142 -21.1815 24.1774 -19.2688 24.0006C-17.8303 23.88 -15.9015 24.9891 -15.7729 26.4839C-15.7327 26.958 -16.0703 27.2875 -15.8533 27.8019C-14.8808 28.8306 -12.0841 28.2117 -10.4848 28.1957C-10.4848 25.9695 -11.2885 23.229 -9.55259 22.3611C-8.33103 21.7342 -5.59858 22.3611 -5.53429 20.7538C-5.55256 20.4485 -5.65752 20.1548 -5.83688 19.9071C-6.01625 19.6594 -6.26253 19.468 -6.54686 19.3554C-7.27819 19.05 -8.11403 19.492 -9.03824 19.4358C-11.8269 19.267 -11.0313 15.4978 -10.5893 12.91C-12.1163 12.7734 -14.1817 12.5725 -15.564 12.9824C-15.2586 15.088 -17.1713 17.3543 -19.293 17.1051C-20.9003 16.9122 -21.6557 15.1201 -21.3905 13.2154C-22.7165 12.4198 -24.8944 12.7814 -26.8875 12.7332V12.7252ZM18.1898 28.276C17.796 27.1589 18.1255 26.0981 17.3862 25.5516C17.0042 25.2691 16.534 25.1323 16.0601 25.1658C14.718 25.2623 14.9029 26.7732 14.4528 27.6492C13.4402 29.5699 11.3105 29.2083 8.39318 29.2083C8.63428 30.3816 7.38862 32.2702 8.16013 33.4757C8.69859 34.3276 11.1256 33.7892 12.1784 34.2794C13.4804 34.85 13.6571 36.7546 12.7972 37.8557C11.7766 39.1576 10.1934 39.254 8.36909 39.1817C7.46899 40.0255 7.99136 42.0347 8.05566 43.4491C11.0774 42.9911 13.7617 42.983 14.8948 44.8475C15.4333 45.7316 15.4332 47.0817 16.2208 47.3389C18.2621 48.014 17.5871 44.7913 18.6318 43.7626C19.9096 42.5089 22.2644 43.1598 24.6191 43.2161C24.6995 42.0267 25.1174 40.3872 24.6191 39.3344C22.8591 38.595 20.6008 39.1174 19.6444 37.8557C18.6881 36.5939 19.4355 34.641 20.7294 34.0463C21.6054 33.6445 23.1404 34.2713 24.0726 33.6605C25.1736 32.9453 24.4745 30.4459 24.3861 29.3047C21.8626 29.3449 18.9051 30.3012 18.1898 28.2841V28.276ZM-17.0186 26.4839C-17.5088 25.7766 -18.3205 24.9971 -19.3492 25.2382C-20.8199 25.5838 -19.6546 27.4724 -20.1529 28.7421C-20.8681 30.6629 -25.0391 29.6342 -26.992 29.594C-27.0483 30.9603 -27.5144 32.8087 -26.992 34.0222C-25.24 34.2633 -23.1746 33.6847 -22.2504 35.0348C-22.0323 35.3781 -21.8975 35.7677 -21.857 36.1724C-21.8166 36.5772 -21.8715 36.9858 -22.0173 37.3654C-22.612 38.9728 -24.4284 39.1898 -26.6786 39.0772C-27.4823 39.9452 -27.0402 41.8418 -26.9117 43.0956C-24.6614 43.1759 -21.937 42.2919 -20.7717 43.8992C-20.1529 44.7029 -20.4181 45.9405 -19.6064 46.704C-19.4065 46.9109 -19.1646 47.0724 -18.8969 47.1778C-18.6292 47.2831 -18.3421 47.3297 -18.0548 47.3145C-17.7676 47.2992 -17.4869 47.2225 -17.2319 47.0895C-16.9769 46.9564 -16.7534 46.7701 -16.5766 46.5432C-16.673 44.9359 -16.9784 43.4732 -15.6443 43.0473C-14.3102 42.6214 -12.3011 43.3768 -10.5893 43.2C-10.5089 41.9624 -10.1553 40.1059 -10.8223 39.238C-13.0485 39.1255 -15.5318 39.1415 -15.7167 36.9073C-15.7855 36.2863 -15.6374 35.6606 -15.2976 35.1362C-14.9578 34.6119 -14.4471 34.2211 -13.8522 34.0303C-12.7833 33.757 -11.5376 34.3196 -10.6375 33.6445C-10.1553 32.656 -10.1714 30.8076 -10.3241 29.4494C-13.3137 29.5699 -17.9267 30.4138 -17.0186 26.4919V26.4839ZM2.41394 29.4413C1.77101 29.9717 2.06033 31.2174 1.71476 32.0773C1.15219 33.4757 -1.966 34.6892 -3.34026 33.0096C-3.95104 32.2622 -3.2358 30.7192 -3.95909 29.9075C-4.85919 28.8868 -7.32644 29.4333 -9.08646 29.361C-8.88554 32.2863 -8.90162 34.8982 -11.4974 35.1875C-12.1712 35.1272 -12.849 35.1272 -13.5227 35.1875C-13.8697 35.3214 -14.1559 35.5774 -14.3275 35.9074C-14.4992 36.2374 -14.5445 36.6187 -14.4549 36.9797C-14.1174 38.378 -11.9876 37.5262 -10.5652 37.9843C-8.8614 38.5388 -9.09451 41.1266 -9.39989 43.1197C-7.84883 43.2884 -5.53425 43.7304 -4.03944 43.192C-3.59742 42.3883 -3.87872 41.6972 -3.64565 41.0221C-2.84199 38.7236 0.951275 39.2862 1.71476 41.1748C1.87368 41.8376 1.97852 42.5122 2.02819 43.192C3.02473 43.9956 5.24284 43.5456 6.85016 43.5858C6.70551 41.2793 6.22328 38.2816 8.32887 37.9119C8.8834 37.8155 9.5183 38.0887 10.1934 37.9843C11.3506 37.8155 12.4838 36.843 12.1383 35.8144C11.7927 34.7857 9.53436 35.4527 8.32887 35.0107C6.23935 34.2794 6.77782 31.5148 7.24395 29.1038C5.55626 29.0556 3.37833 28.6377 2.41394 29.4494V29.4413ZM-40.1801 29.7467V43.0393C-38.9103 43.0393 -37.4075 43.4331 -36.5235 42.8062C-36.6199 40.2104 -35.0929 38.4182 -32.8748 38.8442C-32.4401 38.9515 -32.0309 39.1437 -31.6709 39.41C-31.3109 39.6762 -31.0072 40.011 -30.7773 40.3952C-30.5362 40.9337 -30.6808 41.8258 -30.3835 42.3401C-30.0861 42.8545 -28.9369 43.0875 -28.1332 43.1438C-28.4949 40.4194 -28.4949 37.9601 -26.2687 37.7753C-25.6338 37.7271 -24.9186 38.0807 -24.1712 37.8557C-23.7712 37.7199 -23.4407 37.4322 -23.2512 37.0547C-23.0617 36.6772 -23.0285 36.2403 -23.1586 35.8385C-23.697 34.7134 -26.5179 35.8947 -27.6671 35.0348C-29.0655 34.0142 -28.1734 31.6273 -28.2055 29.594C-28.678 29.5354 -29.1575 29.5766 -29.6129 29.7151C-30.0684 29.8535 -30.4897 30.0861 -30.8496 30.3977C-30.8496 31.78 -30.9701 32.8087 -32.0149 33.4998C-33.566 34.4883 -36.194 33.7811 -36.5235 31.9487C-36.4964 31.3261 -36.5232 30.7023 -36.6038 30.0843C-37.3994 29.3369 -38.83 29.795 -40.1801 29.7548V29.7467ZM0.862877 43.5054C0.645885 42.9348 0.862865 42.1633 0.549435 41.5606C0.236008 40.9578 -1.64452 40.2827 -2.32764 41.0944C-2.78572 41.6489 -2.44822 42.6374 -2.71343 43.3527C-3.51709 45.5387 -7.01302 44.3975 -9.55259 44.3573C-9.42401 45.9646 -10.6054 47.805 -9.86598 49.2596C-9.12661 50.7142 -7.26215 49.5891 -5.67089 50.2642C-5.40913 50.4007 -5.17748 50.5884 -4.98972 50.8162C-4.80195 51.044 -4.66192 51.3072 -4.57793 51.5902C-3.99125 53.8083 -5.22886 55.4317 -7.3023 55.2389C-7.94523 55.1826 -8.39532 54.5156 -9.2472 54.6201C-10.8545 54.829 -9.96242 57.907 -9.86598 59.442H7.39665C7.58149 58.1883 7.83866 56.3399 7.39665 55.1665C4.98566 55.2067 1.86746 55.2067 1.7228 52.9886C1.72498 52.5509 1.84953 52.1224 2.08245 51.7518C2.31536 51.3811 2.64734 51.0829 3.04082 50.8911C4.08558 50.2562 6.33583 50.4731 7.1636 49.4123C8.17622 48.1184 7.04305 46.262 7.01091 44.7511C4.3749 44.7913 1.58617 45.4422 0.862877 43.5134V43.5054ZM-15.3068 44.0519C-15.9176 44.8555 -15.1782 45.7878 -15.3871 46.7683C-15.5961 47.7487 -17.0427 48.6006 -18.1839 48.5604C-20.3618 48.4801 -21.3986 46.4468 -21.7602 44.5421C-23.0461 43.9555 -25.0632 44.3573 -26.7348 44.3091C-26.0678 47.6523 -26.0999 51.1884 -29.2985 51.542C-30.1022 51.6304 -30.6165 51.3411 -31.3961 51.542C-31.6854 51.8334 -31.8521 52.2245 -31.8622 52.635C-31.6532 54.3227 -28.4065 53.3583 -27.1206 54.1861C-25.5937 55.1665 -26.6304 57.9472 -26.8072 59.4741H-10.7983C-11.3287 56.9748 -11.7787 53.72 -9.2472 53.5673C-8.00152 53.4869 -6.95676 54.6361 -6.03255 53.8003C-5.79728 53.474 -5.66406 53.0853 -5.64975 52.6833C-5.63545 52.2814 -5.74067 51.8842 -5.95216 51.542C-6.47454 51.0839 -7.51129 51.542 -8.44353 51.3893C-9.15664 51.3394 -9.82895 51.0383 -10.341 50.5394C-10.8531 50.0406 -11.1717 49.3765 -11.2403 48.6649C-11.3367 47.2585 -10.7581 45.7878 -10.7741 44.1564C-12.3493 44.1965 -13.8441 43.8269 -15.3068 44.0599V44.0519ZM19.5159 44.6707C18.8649 45.386 19.2507 46.278 18.9694 47.0817C18.3506 48.898 15.5297 48.914 14.6135 47.3951C14.1554 46.5915 14.067 45.0645 13.0625 44.5904C11.6802 43.9474 9.93621 44.5904 8.24048 44.6707C8.43336 46.712 9.34953 48.6006 8.08778 50.1919C7.53266 50.755 6.83569 51.1576 6.07059 51.3572C5.0419 51.6385 2.85595 51.6304 2.96042 52.9082C2.96042 53.3503 3.68375 53.7682 4.20613 53.9209C5.31519 54.2423 6.96265 53.7842 7.77435 54.1539C9.3013 54.8451 8.4575 57.7865 8.32088 59.442L24.2735 59.442C23.4699 57.1034 23.3654 53.7039 25.7442 53.4547C26.5479 53.3744 27.215 53.8566 28.0025 53.6878C28.2299 53.6213 28.4413 53.5094 28.6242 53.3589C28.8071 53.2083 28.9575 53.0222 29.0665 52.8119C29.1754 52.6016 29.2405 52.3713 29.258 52.1351C29.2754 51.8989 29.2447 51.6616 29.1679 51.4375C28.6615 50.232 26.2104 50.9634 24.8924 50.4249C22.9475 49.6213 24.0887 46.3343 24.4262 44.4377C22.7627 44.4778 20.4803 43.6099 19.5159 44.6788V44.6707Z" fill="white"/>
<path fill-rule="evenodd" clip-rule="evenodd" d="M39.019 -0.31883C39.3208 -0.383127 39.6336 -0.374354 39.9314 -0.293274C40.2292 -0.212194 40.5032 -0.0611417 40.7308 0.147307C40.9076 0.403267 41.0246 0.695713 41.073 1.00301C41.1214 1.31031 41.1001 1.62458 41.0105 1.92251C40.921 2.22044 40.7656 2.49439 40.5558 2.72409C40.346 2.95378 40.0872 3.13334 39.7986 3.24943C37.8376 3.71555 36.5839 1.45727 37.701 0.219634C38.0607 -0.113453 38.529 -0.304779 39.019 -0.31883ZM38.2153 1.54567C38.2153 2.8476 40.8272 2.19664 39.8227 0.846489C39.1074 0.58128 38.2395 0.942924 38.2395 1.54567H38.2153Z" fill="white"/>
<path fill-rule="evenodd" clip-rule="evenodd" d="M4.17879 32.0856C4.05824 32.8009 3.22241 33.2027 2.70003 33.6448C2.17765 34.0868 1.67943 34.8744 0.988281 34.577C0.988281 33.9019 1.83209 33.6448 2.30625 33.251C2.78041 32.8572 3.30281 32.3187 3.78501 31.9329C4.002 31.9169 4.05021 32.0535 4.17879 32.0856Z" fill="white"/>
<path fill-rule="evenodd" clip-rule="evenodd" d="M4.90045 33.2502C4.78794 33.9253 3.98427 34.303 3.49404 34.7289C3.00381 35.1549 2.55376 35.9666 1.88672 35.5888C2.44928 34.4637 3.7271 34.0619 4.4504 33.0975C4.69953 33.0332 4.75579 33.1859 4.90045 33.2502Z" fill="white"/>
<path fill-rule="evenodd" clip-rule="evenodd" d="M5.67469 34.1817C5.67469 34.7925 4.97553 35.1702 4.58977 35.5078C4.20401 35.8453 3.72182 36.4882 3.19141 36.1266C3.56913 35.1622 4.67015 34.913 5.2086 34.1094C5.40148 34.1174 5.58629 34.1174 5.67469 34.1817Z" fill="white"/>
<path fill-rule="evenodd" clip-rule="evenodd" d="M40.8086 44.2113C41.0414 43.363 41.5611 42.6217 42.2793 42.1137C42.6091 41.9262 42.9771 41.8158 43.3556 41.7907C43.7342 41.7656 44.1136 41.8264 44.4653 41.9686C44.817 42.1108 45.132 42.3308 45.3867 42.612C45.6414 42.8932 45.8291 43.2284 45.936 43.5924C46.4664 46.2767 43.1311 47.7876 41.5801 46.0034C41.2459 45.4422 40.9866 44.8397 40.8086 44.2113ZM41.9498 44.5649C41.998 46.4133 45.1162 45.9472 44.8269 43.9461C44.8085 43.7791 44.7527 43.6184 44.6636 43.4759C44.5745 43.3335 44.4544 43.213 44.3123 43.1234C44.1701 43.0338 44.0097 42.9775 43.8427 42.9585C43.6758 42.9395 43.5067 42.9584 43.3481 43.0138C42.9685 43.0634 42.6191 43.247 42.3627 43.5313C42.1064 43.8156 41.9599 44.1822 41.9498 44.5649Z" fill="white"/>
<path fill-rule="evenodd" clip-rule="evenodd" d="M30.0834 56.7268C31.1201 56.5419 31.6907 56.9438 31.7952 57.5867C32.1166 59.4914 28.7814 59.7807 28.9984 57.659C29.0386 57.217 29.352 56.8634 30.0834 56.7268ZM30.003 57.8197C30.003 58.1894 30.6299 58.2055 30.8067 57.9724C30.7826 57.5224 30.228 57.6751 30.003 57.8197Z" fill="white"/>
</g>
</svg>
