<svg width="296" height="280" viewBox="0 0 296 280" fill="none" xmlns="http://www.w3.org/2000/svg">
<mask id="mask0_90_7072" style="mask-type:alpha" maskUnits="userSpaceOnUse" x="0" y="0" width="296" height="280">
<rect width="296" height="280" rx="20" fill="#34B5E8"/>
</mask>
<g mask="url(#mask0_90_7072)">
<g opacity="0.4">
<path fill-rule="evenodd" clip-rule="evenodd" d="M46.1658 8.62565C45.8475 3.28252 47.6222 -1.2669 51.7695 -5.42836C55.3143 -8.98549 63.4899 -14.7665 67.6094 -12.0274C70.2248 -10.2865 69.8069 -6.75135 69.0782 -4.79362C68.1904 -2.47766 66.8757 -0.348926 65.2026 1.48203C61.7156 5.31547 54.8881 9.11766 49.7111 10.4921C50.9725 12.4454 52.9048 13.2265 54.8174 13.8721C56.7299 14.5177 58.8914 15.3666 59.3135 17.8991C59.5903 19.5413 58.8258 21.6031 58.0882 23.0348C57.1692 24.6809 55.9948 26.1707 54.6089 27.4487C51.5608 30.4051 46.7781 32.1653 42.7866 33.3571C39.0645 34.4641 34.6923 35.2243 30.9561 36.362C26.666 37.6698 21.8842 40.522 20.2046 43.6889C19.4335 45.3568 19.0737 47.1854 19.1553 49.0212C19.1885 50.8803 19.8361 52.7518 20.2387 54.9795C20.9178 58.7495 20.14 62.7264 19.387 66.0129C18.5213 69.5173 17.4366 72.964 16.1393 76.3325C14.902 79.7612 13.3511 83.0685 11.5065 86.2124C12.686 87.4487 11.6994 88.6772 11.1356 90.0606C9.40882 94.3301 7.59411 98.5935 4.84657 102.556C3.25515 104.852 -0.31537 108.63 -3.14931 106.601C-4.6662 103.809 -3.37939 101.717 -2.18887 99.4625C-0.452195 96.2994 1.49117 93.2542 3.62858 90.3469C4.74485 88.7205 6.01735 87.2071 7.42795 85.8282C7.69163 85.5772 8.13478 85.4442 8.48265 85.1782C8.68627 85.0291 8.7972 84.8227 9.01529 84.7426C9.23337 84.6626 9.35755 84.9336 9.51277 84.6954C11.3256 81.6178 12.37 78.6269 13.4769 75.6944C14.5562 72.6324 15.4247 69.5001 16.0761 66.3194C16.5192 64.7556 16.846 63.1612 17.0538 61.5492C17.4576 56.7138 15.523 50.9872 16.0019 46.0494C16.3339 42.5686 18.24 39.8326 21.7255 37.554C29.4391 32.5934 36.4868 33.1183 44.1393 29.9141C48.0608 28.2679 51.9885 25.826 54.0184 22.9074C54.6441 22.0058 55.2446 20.2793 54.3511 19.0031C53.7375 18.1286 52.0732 17.7559 50.9569 17.1315C49.162 16.1219 46.9154 14.55 46.7108 11.9223C44.8206 12.8186 42.2189 13.3399 39.9573 14.6996C38.2141 15.7391 35.4571 17.9142 35.9401 19.4827C36.4741 21.2159 38.6427 22.6302 38.9234 24.5625C39.2682 26.8678 37.2279 29.4843 34.9006 31.1336C32.3167 32.9761 28.8295 33.9632 26.197 34.8243C23.3728 35.7434 20.2962 36.7074 17.5145 38.4266C16.0688 39.3199 14.7526 40.1966 13.5373 41.1031C12.4707 42.0037 11.4958 43.0077 10.6268 44.1002C8.887 45.9731 7.80838 48.3642 7.55584 50.908C7.19953 53.4096 7.21649 55.9469 6.61163 58.345C5.60796 62.0333 3.77868 65.4449 1.26215 68.322C0.846486 68.8171 0.426414 69.3608 -0.0588476 69.8552C-0.618707 70.3095 -1.14958 70.7984 -1.64838 71.319C-1.89166 71.6359 -1.88603 72.156 -2.04165 72.6483C-2.57296 73.9495 -3.24696 75.1879 -4.05128 76.3406C-5.02107 77.883 -6.0655 79.543 -7.10657 81.1242C-8.12202 82.781 -9.25046 84.3658 -10.4839 85.8674C-11.5919 87.1696 -13.5586 89.2845 -15.7403 89.616C-17.1158 89.8172 -18.5867 89.3471 -18.8848 87.5242C-19.1466 85.8816 -18.1801 84.0639 -17.2697 82.5537C-15.3512 79.4725 -12.4412 76.8142 -9.78591 73.8713C-9.22923 73.2534 -8.55247 72.4317 -7.75395 71.7208C-6.95544 71.01 -6.2655 70.0427 -5.43357 69.6907C-4.60164 69.3387 -3.9876 69.959 -3.38629 69.763C-2.76412 69.3995 -2.21344 68.9256 -1.76124 68.3646C1.45403 65.0788 2.67582 60.8145 3.22297 56.7244C3.55164 54.2993 3.69206 51.8535 4.14519 49.5301C4.65158 46.996 5.65215 44.5865 7.08973 42.4391C8.52732 40.2918 10.3738 38.4486 12.5237 37.0148C17.7822 33.3267 23.8685 31.8275 29.3055 29.8272C31.4625 29.0397 36.9544 27.1403 36.0971 24.7981C35.6239 23.5166 34.5865 23.1648 33.9734 22.3054C30.8312 17.712 33.9479 14.0182 38.474 11.8281C40.9914 10.6987 43.6177 10.0102 46.1658 8.62565ZM-18.1591 87.4299C-18.0914 88.9702 -16.4387 89.18 -15.3024 88.7087C-13.1726 87.8285 -12.0194 86.2555 -10.9332 84.8422C-8.30156 81.4735 -6.01627 77.4391 -4.01379 74.1584C-5.19664 74.3318 -6.50352 74.1495 -6.96794 72.417C-9.05425 74.4815 -10.8418 76.6145 -12.9174 78.7271C-12.7464 78.7727 -12.2092 79.1808 -12.543 79.4161C-12.8768 79.6513 -13.0086 79.069 -13.1509 78.977C-15.1104 81.3881 -18.3149 84.368 -18.172 87.4061L-18.1591 87.4299ZM4.08872 101.798C6.70213 97.7342 8.85889 93.394 10.5198 88.8565C9.90727 88.936 9.286 88.8033 8.75934 88.4806C8.23268 88.1579 7.83238 87.6647 7.62501 87.0829C4.31481 90.6895 1.46071 95.1638 -0.940678 99.2536C-2.16165 101.325 -3.68914 103.455 -2.6683 106.07C-0.101719 107.622 2.87307 103.582 4.08872 101.798ZM-3.93273 73.0757C-5.3896 73.5519 -6.2231 71.1968 -4.60367 70.6092C-7.19787 70.4647 -5.96206 74.5939 -3.94242 73.0579L-3.93273 73.0757ZM-2.68338 71.1275C-1.12754 69.7245 0.260982 68.1465 1.45456 66.4249C3.00644 64.343 4.23998 62.0419 5.11467 59.597C6.75124 54.7226 5.58178 49.2572 8.76384 44.8201C10.5408 42.4664 12.7067 40.4335 15.1681 38.8091C17.8946 36.9631 20.8839 35.5385 24.035 34.5835C25.5652 34.129 26.9579 33.6338 28.4306 33.0875C31.5167 31.9569 34.5559 30.7824 36.3985 28.3118C37.1797 27.2718 38.088 26.0551 37.8894 24.7551C37.6129 22.9436 35.3311 21.7601 34.8868 19.9089C34.7597 19.216 34.8696 18.5005 35.1987 17.8776C36.8481 14.4426 42.7937 12.5429 46.4968 11.1462C46.435 10.6643 46.3732 10.1824 46.3087 9.70973C42.4998 11.7332 37.5392 12.713 35.0935 15.5037C34.3491 16.3214 33.8971 17.363 33.8082 18.4652C33.7194 19.5674 33.9987 20.6679 34.6025 21.5943C35.1869 22.5 36.2957 23.0823 36.8518 24.2188C38.6278 27.8697 31.7505 30.1218 28.4102 31.3368C22.9872 33.3064 16.4573 34.9236 11.5899 38.9917C9.55536 40.6821 7.87545 42.7585 6.64694 45.101C4.34972 49.4959 4.91277 54.6522 3.76737 59.3828C2.80214 63.4539 1.22979 67.6394 -3.01645 70.5853C-3.57491 70.9734 -4.47835 71.1796 -4.7834 71.9916C-4.24634 72.8384 -3.26302 71.604 -2.69951 71.0978L-2.68338 71.1275ZM-3.04436 72.5161C-3.327 72.6611 -3.57165 72.8704 -3.75856 73.1273C-3.47749 72.976 -3.2361 72.7605 -3.05404 72.4983L-3.04436 72.5161ZM10.7279 87.9511C11.0249 87.7897 11.5585 87.3843 11.0715 86.9411C10.0924 87.5886 9.27075 86.9118 9.04125 86.0364C7.71785 87.0555 9.67243 88.4014 10.6944 87.9461L10.7279 87.9511ZM63.434 1.86601C65.0746 0.310229 66.4209 -1.52894 67.4081 -3.56301C68.2908 -5.35056 69.3823 -7.75927 68.1828 -9.9386C66.0365 -13.8884 59.7988 -10.4452 56.261 -7.92278C51.0873 -4.23448 48.023 0.107863 47.4 5.07777C47.002 7.77648 47.2274 10.5305 48.0587 13.1286C48.6635 14.808 50.5382 15.8511 51.7494 16.5086C53.1848 17.2672 55.2608 17.5624 55.7292 19.8544C56.409 23.2009 52.7137 26.4244 48.9725 28.6573C45.1955 30.7911 41.132 32.372 36.9061 33.352C33.338 34.2753 28.7574 35.1333 24.9981 36.9221C20.5422 39.0433 17.624 42.0829 17.042 45.415C16.4599 48.7471 17.3575 52.5369 17.8536 56.3524C18.1025 58.1439 18.1643 59.9564 18.038 61.7606C17.8214 63.4818 17.4792 65.1849 17.014 66.8561C15.6689 72.6492 14.0049 78.4925 11.0095 83.8821C10.5567 84.7052 9.54625 85.6773 10.041 86.3471C10.0765 86.4124 10.3138 86.4527 10.2423 86.307C12.1911 83.2382 13.7783 79.9543 14.9721 76.5206C16.2659 73.1832 17.3706 69.7755 18.2811 66.3138C19.0928 63.0647 19.9203 59.1223 19.2891 55.4263C18.9148 53.3216 18.3191 51.3758 18.2406 49.5182C18.1077 47.6807 18.3419 45.8352 18.9296 44.0893C20.2088 40.7092 24.5053 37.7284 28.7235 36.0903C33.067 34.3995 37.0432 34.0007 40.8511 32.9241C44.6589 31.8474 49.6338 30.3982 53.1527 27.5014C55.6096 25.4817 57.3457 23.0843 58.0064 20.5481C58.4135 19.0036 58.7183 17.2993 57.0673 16.0731C54.6834 14.2911 50.9093 14.4954 48.7899 10.9772C47.4975 8.82523 48.347 6.32497 48.8537 4.24172C49.307 2.06337 50.258 0.0194189 51.6325 -1.73032C53.3244 -3.64153 55.2456 -5.33666 57.3527 -6.77729C59.6867 -8.49938 64.4237 -11.6888 66.2425 -9.44591C67.7458 -7.58547 66.0511 -5.12593 65.0934 -3.75931C61.9475 0.673521 55.2424 4.51688 49.2597 7.36767C49.1219 8.08378 49.1172 8.81915 49.246 9.53695C53.7828 8.37191 59.6783 5.44547 63.4006 1.86111L63.434 1.86601ZM64.0317 -4.11331C64.8572 -5.18504 66.4204 -7.33457 65.6057 -8.60748C64.6375 -10.1202 61.5925 -8.40407 59.799 -7.24488C57.9498 -6.04139 56.1879 -4.70869 54.5266 -3.25677C51.211 -0.33965 50.0434 2.76433 49.4664 6.33216C49.407 6.36443 49.4608 6.4352 49.5581 6.35929C55.0279 3.37173 60.9237 -0.0780345 64.0161 -4.12791L64.0317 -4.11331Z" fill="white"/>
<path fill-rule="evenodd" clip-rule="evenodd" d="M-1.40509 104.561C-1.01294 104.263 -0.658165 104.732 -0.370758 104.822C-0.0833523 104.912 0.313952 104.765 0.545947 105.093C0.520864 105.168 0.51425 105.248 0.526681 105.326C0.167038 105.461 -0.229842 105.457 -0.586843 105.316C-0.943845 105.174 -1.23547 104.905 -1.40509 104.561Z" fill="white"/>
<path fill-rule="evenodd" clip-rule="evenodd" d="M-0.41378 103.796C0.165942 103.942 1.04007 103.852 1.32459 104.39C0.627461 104.792 -0.469871 104.457 -0.41378 103.796Z" fill="white"/>
<path fill-rule="evenodd" clip-rule="evenodd" d="M0.557096 102.978C1.13256 103.088 1.74871 103.061 2.24061 103.471C1.89711 104.042 0.363363 103.683 0.557096 102.978Z" fill="white"/>
<path fill-rule="evenodd" clip-rule="evenodd" d="M1.32699 102.337C1.69525 102.137 2.5798 102.264 2.74464 102.751C2.1836 103.064 1.48473 102.882 1.32699 102.337Z" fill="white"/>
<path fill-rule="evenodd" clip-rule="evenodd" d="M2.0997 101.57C2.28246 101.518 2.4765 101.524 2.65589 101.586C2.83528 101.648 2.99149 101.763 3.10368 101.917C2.93888 102.406 1.92405 102.096 2.0997 101.57Z" fill="white"/>
<path fill-rule="evenodd" clip-rule="evenodd" d="M2.68177 100.999C2.74924 100.906 2.84298 100.835 2.9509 100.796C3.05883 100.757 3.176 100.751 3.2873 100.779C3.3986 100.807 3.49895 100.868 3.57538 100.954C3.6518 101.04 3.70081 101.146 3.7161 101.26C3.54413 101.362 3.33889 101.391 3.14514 101.342C2.95138 101.294 2.78481 101.17 2.68177 100.999Z" fill="white"/>
<path fill-rule="evenodd" clip-rule="evenodd" d="M3.39997 100.094C3.57156 100.024 3.76185 100.015 3.93921 100.069C4.11657 100.122 4.27032 100.235 4.37491 100.387C4.20352 100.95 3.23195 100.578 3.39997 100.094Z" fill="white"/>
<path fill-rule="evenodd" clip-rule="evenodd" d="M4.1441 99.3135C4.49651 99.122 4.75269 99.1829 4.9126 99.496C4.81973 99.8773 4.13579 99.7796 4.1441 99.3135Z" fill="white"/>
<path fill-rule="evenodd" clip-rule="evenodd" d="M4.67219 98.5013C4.96324 98.3431 5.21037 98.3166 5.35496 98.6534C5.3015 98.6825 5.27708 98.765 5.29748 98.8308C4.95453 99.0634 4.5783 98.8523 4.67219 98.5013Z" fill="white"/>
<path fill-rule="evenodd" clip-rule="evenodd" d="M5.14502 97.729C5.42586 97.5379 5.64432 97.5577 5.79549 97.8217C5.7349 98.2624 4.93336 98.1748 5.14502 97.729Z" fill="white"/>
<path fill-rule="evenodd" clip-rule="evenodd" d="M12.8895 111.156C12.7823 111.067 12.6956 110.955 12.6351 110.829C12.5746 110.703 12.5417 110.566 12.5387 110.426C12.5357 110.287 12.5625 110.148 12.6175 110.019C12.6724 109.891 12.7542 109.776 12.8573 109.681C14.241 108.391 16.0549 111.021 13.9495 111.55C13.7543 111.573 13.5564 111.549 13.3722 111.481C13.1879 111.412 13.0225 111.301 12.8895 111.156ZM14.0451 110.452C13.3743 109.585 13.2784 111.207 14.0451 110.452V110.452Z" fill="white"/>
<path fill-rule="evenodd" clip-rule="evenodd" d="M4.65915 76.5609C4.55742 76.4245 4.48629 76.2679 4.4506 76.1016C4.41491 75.9353 4.41549 75.7633 4.45232 75.5972C4.48915 75.4312 4.56133 75.275 4.66398 75.1394C4.76664 75.0038 4.89733 74.8919 5.04715 74.8114C6.39545 74.0787 7.72713 75.9632 6.75352 76.8615C6.60557 77.001 6.42806 77.1054 6.2342 77.1668C6.04034 77.2282 5.83514 77.2451 5.63385 77.2162C5.43256 77.1873 5.24037 77.1134 5.07161 76.9999C4.90285 76.8864 4.76187 76.7364 4.65915 76.5609ZM6.22432 76.1566C6.24296 76.0561 6.23377 75.9523 6.19773 75.8566C6.1617 75.7609 6.10018 75.6769 6.01986 75.6136C5.93954 75.5504 5.84346 75.5102 5.74199 75.4976C5.64052 75.485 5.53752 75.5003 5.44413 75.5419C5.06732 76.0236 5.71132 76.4584 6.22432 76.1566Z" fill="white"/>
<path fill-rule="evenodd" clip-rule="evenodd" d="M-1.81869 31.6451C-2.04811 31.3928 -1.98198 31.203 -1.83555 31.0619C-0.856512 30.1452 -0.898812 32.6301 -1.81869 31.6451Z" fill="white"/>
<path fill-rule="evenodd" clip-rule="evenodd" d="M2.75211 38.132C3.20407 37.548 3.84699 38.3064 3.47098 38.6338C3.39264 38.6889 3.29927 38.7185 3.20353 38.7187C3.10778 38.7188 3.01431 38.6895 2.93581 38.6347C2.8573 38.5799 2.79755 38.5023 2.76468 38.4124C2.73182 38.3224 2.72744 38.2246 2.75211 38.132Z" fill="white"/>
<path fill-rule="evenodd" clip-rule="evenodd" d="M23.2684 68.9112C22.1487 67.7425 24.0017 66.8203 24.6586 67.6327C24.8093 67.8198 24.8833 68.0573 24.8654 68.2969C24.8475 68.5365 24.7391 68.7604 24.5623 68.923C24.3854 69.0857 24.1533 69.175 23.913 69.1728C23.6727 69.1706 23.4423 69.0771 23.2684 68.9112ZM24.0955 68.2387C24.0115 68.0843 23.909 68.0939 23.7702 68.1924L23.8638 68.3646L24.0955 68.2387Z" fill="white"/>
<path fill-rule="evenodd" clip-rule="evenodd" d="M22.0186 50.318C21.3054 49.6284 21.5298 48.9371 22.0413 48.59C23.3153 47.7208 24.5776 49.5199 23.4536 50.3537C23.3584 50.4483 23.2451 50.5226 23.1205 50.5721C22.9959 50.6217 22.8625 50.6455 22.7284 50.6422C22.5943 50.6389 22.4623 50.6084 22.3403 50.5527C22.2183 50.497 22.1089 50.4171 22.0186 50.318ZM23.0806 49.4408C22.9483 49.1973 22.7471 49.1528 22.4895 49.3158C22.4969 49.4426 22.4098 49.5514 22.5639 49.7216C22.7985 49.7711 22.9203 49.528 23.0984 49.4312L23.0806 49.4408Z" fill="white"/>
<path fill-rule="evenodd" clip-rule="evenodd" d="M25.766 22.9778C23.7175 24.6448 22.1698 21.2159 24.3368 20.6308C25.4967 20.316 26.6901 21.9602 25.766 22.9778ZM24.2683 21.6374C23.7912 22.1044 24.5989 22.7272 25.115 22.516C25.2049 22.4006 25.2507 22.2568 25.2442 22.1106C25.2377 21.9644 25.1793 21.8253 25.0794 21.7183C24.9796 21.6113 24.8449 21.5434 24.6995 21.5268C24.5541 21.5102 24.4076 21.546 24.2862 21.6277L24.2683 21.6374Z" fill="white"/>
<path fill-rule="evenodd" clip-rule="evenodd" d="M34.047 9.33154C33.9196 9.21427 33.8204 9.06953 33.7571 8.90829C33.6938 8.74705 33.668 8.57354 33.6816 8.40085C33.6952 8.22817 33.748 8.06086 33.8358 7.91155C33.9236 7.76224 34.0443 7.63485 34.1886 7.53903C35.7204 6.42204 37.6439 8.98503 35.3763 9.72481C35.1398 9.78534 34.8914 9.78074 34.6574 9.7115C34.4234 9.64226 34.2125 9.51096 34.047 9.33154ZM35.6051 8.63109C35.5552 8.14276 35.0948 7.94674 34.6368 8.26485C34.412 8.85631 35.1455 8.98857 35.6051 8.63109Z" fill="white"/>
<path fill-rule="evenodd" clip-rule="evenodd" d="M58.3287 50.4529C58.2593 50.4199 58.2001 50.3687 58.1574 50.3047C58.1147 50.2408 58.0902 50.1665 58.0863 50.0897C58.0824 50.0129 58.0994 49.9365 58.1355 49.8686C58.1715 49.8007 58.2253 49.7438 58.2911 49.704C59.2308 49.0549 59.2124 51.0882 58.3287 50.4529Z" fill="white"/>
<path fill-rule="evenodd" clip-rule="evenodd" d="M32.0521 -0.37082C32.0918 -1.24636 33.2593 -0.626779 32.7579 -0.162001C32.5704 0.01681 32.223 0.028681 32.0521 -0.37082Z" fill="white"/>
<path fill-rule="evenodd" clip-rule="evenodd" d="M54.1894 34.9923C54.1009 34.902 54.0314 34.7948 53.985 34.6772C53.9386 34.5596 53.9163 34.4338 53.9193 34.3074C53.9223 34.1809 53.9506 34.0564 54.0026 33.9411C54.0546 33.8258 54.1291 33.7221 54.2218 33.6361C55.5984 32.4034 57.0216 34.7536 55.5365 35.3759C55.3045 35.491 55.0379 35.5155 54.7888 35.4445C54.5397 35.3736 54.326 35.2124 54.1894 34.9923ZM55.4003 34.4882C55.3401 34.0517 54.7676 34.1166 54.7848 34.4457C54.9568 34.5215 55.1249 34.661 55.3825 34.4979L55.4003 34.4882Z" fill="white"/>
<path fill-rule="evenodd" clip-rule="evenodd" d="M39.65 1.15613C39.6074 1.11097 39.5756 1.0566 39.5573 0.99725C39.539 0.937896 39.5346 0.875128 39.5444 0.813789C39.5541 0.752451 39.5779 0.694182 39.6138 0.643471C39.6496 0.592761 39.6967 0.55098 39.7513 0.521325C39.8059 0.491669 39.8665 0.474931 39.9286 0.472428C39.9906 0.469925 40.0524 0.481701 40.1092 0.506865C40.166 0.532029 40.2163 0.569901 40.2561 0.617558C40.2959 0.665216 40.3243 0.721408 40.339 0.78176C40.3369 0.861179 40.3139 0.938632 40.2724 1.00637C40.2309 1.07411 40.1723 1.12974 40.1025 1.16767C40.0327 1.2056 39.9541 1.22451 39.8747 1.22248C39.7952 1.22046 39.7178 1.19757 39.65 1.15613Z" fill="white"/>
<path fill-rule="evenodd" clip-rule="evenodd" d="M68.4952 52.7374C67.3558 50.9946 69.8787 49.2238 71.2194 50.4878C72.0291 51.2557 72.0426 52.8947 71.1439 53.5061C70.1485 54.2086 69.0823 53.6339 68.4952 52.7374ZM70.8882 52.4834C71.7831 51.5817 69.5779 50.0719 69.0737 51.6076C69.0696 51.8196 69.1265 52.0284 69.2376 52.2091C69.3486 52.3899 69.5092 52.5349 69.7002 52.6271C69.8912 52.7193 70.1047 52.7548 70.3153 52.7293C70.5259 52.7038 70.7247 52.6185 70.8882 52.4834Z" fill="white"/>
<path fill-rule="evenodd" clip-rule="evenodd" d="M66.3298 25.1935C66.0335 24.8815 65.8469 24.4816 65.7981 24.0541C65.7493 23.6266 65.841 23.1949 66.0594 22.8242C66.2777 22.4535 66.6109 22.164 67.0084 21.9994C67.4059 21.8349 67.8463 21.8042 68.2627 21.9121C68.6282 22.0409 68.9559 22.2585 69.2165 22.5452C69.4771 22.832 69.6623 23.179 69.7556 23.5551C69.8117 23.8819 69.792 24.2171 69.6979 24.535C69.6039 24.8529 69.438 25.1449 69.2131 25.3885C68.773 25.6633 68.2576 25.7923 67.7399 25.7573C67.2223 25.7223 66.7289 25.525 66.3298 25.1935ZM66.6618 23.7514C66.6179 24.86 68.1989 25.0087 68.9014 24.3193C69.4037 22.6385 66.7171 22.2673 66.6618 23.7514Z" fill="white"/>
<path fill-rule="evenodd" clip-rule="evenodd" d="M61.4985 15.6204C61.7776 15.1995 62.4583 15.2912 62.4508 15.8723C62.1599 16.2996 61.4857 16.2198 61.4985 15.6204Z" fill="white"/>
<path fill-rule="evenodd" clip-rule="evenodd" d="M72.2374 30.9945C72.1761 30.8817 72.0018 30.5609 72.2708 30.3763C73.2175 29.7542 73.0026 31.8789 72.2374 30.9945Z" fill="white"/>
</g>
</g>
</svg>
