<svg width="20" height="18" viewBox="0 0 20 18" fill="none" xmlns="http://www.w3.org/2000/svg">
<path d="M5.21914 10.4984C5.27502 10.4984 5.33384 10.4984 5.38972 10.4984C9.7306 10.4984 14.0715 10.4984 18.4124 10.4984C19.1594 10.4984 19.7388 10.0789 19.9387 9.39834C20.2211 8.43614 19.4917 7.46808 18.483 7.46808C14.1185 7.46808 9.75119 7.46808 5.38678 7.46808C5.3309 7.46808 5.27502 7.46808 5.18973 7.46808C5.23678 7.41821 5.26031 7.38887 5.28678 7.36247C6.06026 6.59095 6.8308 5.8165 7.60722 5.04792C8.34834 4.31454 9.09241 3.58702 9.83354 2.85364C10.2982 2.39601 10.4335 1.74477 10.1923 1.18153C9.93647 0.586028 9.38945 0.231071 8.72479 0.248672C8.31893 0.260406 7.97778 0.424684 7.6925 0.712169C6.32789 2.07626 4.96033 3.44035 3.59278 4.8015C2.55755 5.83117 1.51645 6.85204 0.48122 7.87877C-0.159914 8.51241 -0.159916 9.45701 0.478277 10.0936C2.88106 12.4903 5.28384 14.8899 7.68956 17.2837C8.11012 17.7031 8.62774 17.8469 9.20417 17.6826C9.7806 17.5183 10.1453 17.134 10.2717 16.5473C10.3776 16.0457 10.2629 15.5851 9.90118 15.2184C8.9336 14.2387 7.95425 13.2706 6.98079 12.2996C6.42494 11.7452 5.87204 11.1907 5.31325 10.6422C5.27796 10.6069 5.2162 10.5952 5.1662 10.5717C5.18091 10.5453 5.20149 10.5219 5.21914 10.4984Z" fill="black"/>
</svg>
