<svg width="19" height="19" fill="none" xmlns="http://www.w3.org/2000/svg"><g clip-path="url(#clip0_90_7292)" fill="#222"><path d="M9.276 3.675a1.178 1.178 0 00-.717-.315c.103-.23.103-.525.103-.735V2.52c0-.42-.123-.881-.369-1.301C7.883.526 7.23.169 6.37.148 5.324.127 4.137.337 2.765.757.165 1.26.145 3.99.145 4.032c.307 4.24 2.497 5.9 2.58 5.962 0 0 .02.021.04.021v.105l.492 3.78c.04.23.225.398.45.398h.061l4.587-.63a.467.467 0 00.389-.524l-.492-3.78c0-.062-.04-.125-.061-.188.9-.714 1.494-2.016 1.556-3.339v-.042c.04-.65.082-1.616-.471-2.12zm-.9 9.51c0 .042-.021.085-.062.085l-4.586.63c-.041 0-.062-.022-.062-.064l-.491-3.779c0-.02 0-.042.02-.042 0 0 .02-.02.041-.02l4.607-.63c.04 0 .061.02.061.062l.471 3.758zm.982-7.41v.041c-.041 1.05-.532 2.415-1.536 3.129H7.74l-4.586.63c-.082 0-.143.041-.205.083C2.847 9.574.82 7.978.534 4.011c0-.105.02-2.435 2.313-2.876h.02C4.22.735 5.346.525 6.37.547c.737.02 1.27.294 1.597.86.204.357.327.735.307 1.092v.105c0 .21 0 .546-.123.651-.02.021-.041.042-.041.063-.102 0-.225 0-.328.021-.082 0-.143 0-.225.021-.675.021-1.31.105-1.843.189h-.02c-.328.063-.758.147-.962.525-.144.294-.123.693.02 1.07-1.7.378-2.231.022-2.293-.167 0-.105-.102-.168-.205-.147-.102.02-.184.126-.143.23 0 .043.061.232.307.4.246.167.614.251 1.065.251.41 0 .9-.063 1.494-.189.103.147.226.294.348.378.615.4 1.086.084 1.475-.168.245-.168.47-.314.737-.314a.208.208 0 00.204-.21.208.208 0 00-.204-.21c-.369 0-.676.21-.942.378-.41.272-.676.398-1.044.167-.328-.21-.615-.944-.43-1.28.102-.21.43-.273.675-.315h.02a11.08 11.08 0 011.782-.189c.082 0 .143 0 .225-.021.45-.021.922-.063 1.208.23.39.379.348 1.24.328 1.806z"/><path d="M3.706 14.467c-.307 0-.553-.231-.594-.546l-.491-3.78V10.1C2.293 9.827.287 8.084 0 4.053 0 4.011.04 1.177 2.682.61l.02-.02h.042C4.136.19 5.324-.02 6.367 0c.922.021 1.618.4 2.048 1.134.266.441.389.924.389 1.386v.084c0 .168 0 .399-.062.63.246.063.45.168.615.336.593.566.552 1.553.512 2.225v.042c-.062 1.323-.635 2.603-1.516 3.38.02.042.02.084.02.126l.492 3.779c.041.336-.184.65-.512.693l-4.586.63s-.04.02-.061.02zM2.784.904C.328 1.387.287 4.011.287 4.054c.286 4.114 2.436 5.752 2.518 5.815l.102.063-.02.105v.063l.491 3.779c.02.168.184.294.369.273l4.586-.63c.164-.021.287-.19.266-.378l-.491-3.779a.296.296 0 00-.041-.126l-.062-.105.103-.084c.86-.693 1.433-1.931 1.494-3.233v-.042c.02-.609.062-1.533-.43-1.995a1.202 1.202 0 00-.634-.293l-.185-.021.082-.19c.103-.21.082-.482.082-.671V2.52c0-.4-.123-.84-.348-1.218C7.78.653 7.186.316 6.347.316c-1.024-.02-2.17.168-3.563.588zm.922 13.143c-.103 0-.184-.084-.205-.19L3.01 10.08c0-.063 0-.126.04-.168a.172.172 0 01.144-.084l4.607-.63c.122 0 .225.084.225.189l.491 3.779c0 .063 0 .126-.04.168-.042.042-.083.084-.144.084l-4.627.63zm-.41-3.926l.471 3.632 4.443-.609-.47-3.632-4.444.609zm-.348-.273l-.082-.063C2.641 9.595.676 7.979.39 4.032c0-.126.041-2.561 2.416-3.023h.02C4.197.59 5.344.4 6.347.421c.819 0 1.372.294 1.74.924.226.378.348.798.328 1.176v.105c0 .315 0 .63-.184.777 0 0 0 .02-.02.02l-.021.064h-.082c-.103 0-.225 0-.328.02-.082 0-.143 0-.225.022-.676.02-1.29.083-1.822.188l-.041-.147.02.147c-.307.063-.696.126-.86.441-.122.231-.102.588.041.945l.062.168-.164.042c-2.15.462-2.436-.189-2.457-.252-.02-.042-.04-.063-.061-.042-.02 0-.041.021-.041.021s-.02.021 0 .042c0 .021.04.168.245.294.43.294 1.27.294 2.457.021l.103-.021.061.084c.102.147.205.252.307.336.532.357.942.084 1.31-.168.267-.168.512-.336.799-.336.02 0 .041 0 .041-.021 0 0 .02-.021.02-.042 0-.042-.02-.063-.061-.063-.328 0-.594.189-.86.357-.389.252-.737.483-1.208.168-.368-.252-.696-1.07-.491-1.47.143-.273.512-.336.778-.378a11.364 11.364 0 011.822-.189h.225c.45-.02.962-.063 1.31.273.451.42.41 1.323.39 1.91v.043c-.041 1.092-.553 2.498-1.577 3.254l-.04.021H7.76l-4.587.63a.218.218 0 00-.143.063h-.082zm-.082-8.566c-2.15.42-2.17 2.645-2.17 2.73C.942 7.516 2.6 9.154 2.99 9.47c.062-.021.103-.042.164-.042l4.586-.63h.062c.921-.693 1.392-1.994 1.433-3.002v-.042c.02-.525.061-1.344-.307-1.68-.246-.23-.676-.21-1.106-.189h-.246c-.655.021-1.269.084-1.76.19h-.02c-.206.041-.513.083-.574.23-.143.273.123.924.389 1.092.307.189.47.105.9-.168.267-.168.615-.399 1.024-.399a.35.35 0 01.349.357.39.39 0 01-.103.252.335.335 0 01-.246.105c-.204 0-.409.126-.655.294-.389.252-.941.609-1.617.168a1.319 1.319 0 01-.348-.336c-1.229.273-2.089.23-2.58-.084-.287-.189-.348-.42-.368-.483a.43.43 0 01.04-.273c.041-.084.123-.126.226-.147a.323.323 0 01.389.252c.04.084.491.378 1.965.084-.123-.378-.102-.756.041-1.029.225-.44.737-.524 1.065-.587h.02a12.177 12.177 0 011.863-.19c.062 0 .144 0 .205-.02.082 0 .184 0 .266-.021l.02-.021c.083-.063.083-.42.083-.546V2.52c0-.336-.103-.693-.287-1.008C7.555.988 7.064.736 6.367.715c-.982-.02-2.108.168-3.46.567h-.04z"/><path d="M7.104 12.744c-.02.105-.102.147-.184.147h-.04l-1.066-.252-.9.609c-.041.02-.062.042-.103.042-.061 0-.123-.042-.164-.105a.19.19 0 01.062-.273l.553-.357-.533-.126c-.102-.021-.164-.126-.143-.231a.189.189 0 01.225-.147l.922.21.818-.546c.103-.063.205-.042.267.063a.19.19 0 01-.062.273l-.491.315.696.147c.102.02.164.126.143.23z"/><path d="M4.811 13.415a.325.325 0 01-.287-.168.37.37 0 01-.04-.252.546.546 0 01.143-.23l.266-.168-.205-.042a.357.357 0 01-.266-.42.385.385 0 01.143-.21.346.346 0 01.246-.042l.86.189.778-.504a.382.382 0 01.266-.042.376.376 0 01.205.147.37.37 0 01.04.252.545.545 0 01-.143.23l-.204.127.348.084c.184.042.307.23.266.42-.041.167-.164.272-.328.272h-.082l-.982-.252-.84.546a.325.325 0 01-.184.063zm-.041-1.26h-.02s-.02.022-.02.043v.042s.02.02.04.02l.88.21-.88.546c-.02.021-.02.021-.02.042v.042c.02.021.04.042.081.021l.942-.608 1.126.252c.041 0 .062-.022.062-.043 0-.02-.02-.063-.041-.063l-1.024-.23.778-.504c.02-.021.02-.021.02-.042v-.042c-.02-.021-.02-.021-.04-.021h-.041l-.86.567-.983-.231zm2.13-1.008c-.02.105-.102.147-.184.147h-.041l-1.065-.252-.9.588c-.042.021-.062.042-.103.042-.061 0-.123-.042-.164-.105a.19.19 0 01.062-.273l.573-.357-.573-.126c-.103-.02-.164-.126-.144-.23a.189.189 0 01.226-.148l.92.21.84-.567c.082-.063.205-.042.266.063a.19.19 0 01-.06.273l-.492.315.696.147a.255.255 0 01.143.273z"/><path d="M4.586 11.82a.325.325 0 01-.287-.169.348.348 0 01.102-.483L4.667 11l-.204-.042a.376.376 0 01-.205-.147.41.41 0 01-.041-.272c.041-.19.225-.294.41-.274l.86.19.777-.504a.346.346 0 01.246-.042.376.376 0 01.205.147.352.352 0 01-.103.483l-.204.125.348.084a.357.357 0 01.266.42c-.041.168-.164.273-.328.273h-.082l-1.003-.23-.84.545c-.04.042-.102.063-.183.063zm-.041-1.26c-.02 0-.041.02-.062.041v.042s.02.021.041.021l.88.21-.86.567c-.02.021-.04.042-.02.084.02.021.041.042.062.021l.941-.609 1.126.252c.041 0 .062-.02.062-.042 0-.02-.02-.063-.041-.063l-1.024-.23.799-.504c.02-.021.04-.043.02-.085-.02-.02-.02-.02-.04-.02h-.042l-.88.566-.962-.252c.02 0 .02 0 0 0zm12.307-4.87c-1.188-.63-2.314-1.05-3.358-1.24-1.33-.23-2.293.4-2.805 1.87 0 0-.143.524-.102.902-.267 0-.533.021-.799.231-.635.483-.9 1.49-.778 2.96.082 1.092.41 1.932.942 2.52a.46.46 0 00-.102.168l-.84 2.582-.04.126-.288.903a.528.528 0 00.02.357.488.488 0 00.267.23l4.402 1.512a.34.34 0 00.143.021.444.444 0 00.43-.315l1.208-3.61c0-.043.02-.064.02-.106.021 0 .021 0 .042-.02.102-.043 2.559-1.26 3.624-5.375 0-.021.47-2.709-1.986-3.717zm-3.256 12.7c-.02.042-.061.063-.082.042l-4.402-1.511c-.02 0-.04-.021-.04-.043 0 0-.021-.02 0-.041l.245-.777 4.525 1.574-.246.756zm.369-1.113L9.44 15.704l.43-1.344 4.525 1.575-.43 1.343zm.819-2.498l-.246.777-4.525-1.575.226-.755c.02-.043.04-.043.06-.043h.021l4.402 1.512c.02 0 .041.021.041.042.02-.02.02 0 .02.042zm3.665-5.458c-.512 1.952-1.352 3.233-2.068 4.01-.696.734-1.27 1.05-1.331 1.091a.298.298 0 00-.184-.126l-4.402-1.511c-.02 0-.062-.021-.082-.021-.553-.525-.88-1.323-.962-2.394-.103-1.322.102-2.204.614-2.603.184-.147.389-.147.655-.147h.266l-.02-.399c.02 0 .04-.63.102-.777.45-1.301 1.228-1.826 2.375-1.616 1.024.189 2.109.588 3.255 1.196h.041c2.13.924 1.74 3.213 1.74 3.297z"/><path d="M13.534 19a.585.585 0 01-.185-.043l-4.402-1.511a.577.577 0 01-.348-.315.722.722 0 01-.04-.462l1.187-3.632c.02-.042.02-.063.04-.105-.511-.609-.818-1.449-.9-2.52-.123-1.532.164-2.582.84-3.086.245-.189.49-.23.716-.252 0-.378.102-.797.102-.818.533-1.554 1.556-2.226 2.97-1.974 1.064.19 2.19.609 3.357 1.239l.02.02c2.58 1.05 2.068 3.843 2.048 3.885-1.024 3.989-3.338 5.29-3.665 5.458 0 .021 0 .021-.02.042l-1.188 3.632a.535.535 0 01-.532.441zm-4.402-3.15l-.307.924c-.02.084-.02.168.02.23.041.085.102.127.184.169l4.402 1.511c.164.063.348-.042.41-.21l1.187-3.632c0-.02.02-.042.02-.063v-.105l.124-.042c.082-.042 2.477-1.217 3.521-5.27 0-.02.45-2.582-1.884-3.547h-.02c-1.167-.63-2.273-1.05-3.317-1.218-1.249-.23-2.17.399-2.641 1.785-.04.126-.123.545-.082.84l.02.167h-.163c-.225 0-.471.021-.717.19-.594.461-.84 1.406-.716 2.833.082 1.05.389 1.869.921 2.436l.102.105-.082.105c-.02.042-.04.063-.061.105l-.921 2.687zm4.402 2.73c-.02 0-.041 0-.082-.022l-4.402-1.49a.187.187 0 01-.123-.126.184.184 0 010-.147l.307-.924 4.791 1.68-.287.881a.214.214 0 01-.102.126c-.04.021-.061.021-.102.021zm.02-.295c0 .021 0 .021 0 0zm-4.32-1.47l4.259 1.45.163-.525-4.238-1.491-.184.567zm4.812.63l-4.791-1.679.532-1.617 4.79 1.68-.531 1.617zm-4.423-1.847l4.238 1.49.348-1.049-4.238-1.49-.348 1.05zm4.996.147l-4.791-1.68.286-.881c.041-.084.123-.147.205-.147.02 0 .041 0 .082.02l4.382 1.491a.211.211 0 01.122.105c.02.042.041.105.02.168l-.306.924zm-4.443-1.868l4.238 1.49.184-.567-4.258-1.448-.164.525zm4.832.713l-.062-.063c-.04-.042-.082-.063-.123-.084l-4.401-1.511c-.02 0-.041-.021-.062-.021h-.04l-.042-.021c-.573-.546-.921-1.386-1.003-2.478-.102-1.385.123-2.309.676-2.729.225-.168.491-.168.737-.168h.122l-.02-.399h.02v-.105c.021-.273.041-.482.082-.587.471-1.344 1.31-1.932 2.519-1.701 1.044.189 2.15.588 3.296 1.218l.041.02c2.17.903 1.863 3.15 1.822 3.402v.02c-.532 2.058-1.433 3.36-2.109 4.074-.696.755-1.31 1.091-1.371 1.112l-.082.021zm-4.566-1.952c.02 0 .041.02.062.02l4.401 1.513a.607.607 0 01.164.084c.184-.106.655-.42 1.208-1.008.635-.693 1.515-1.953 2.027-3.947.041-.252.307-2.268-1.638-3.086-.02 0-.02 0-.04-.021 0 0-.021 0-.042-.021-1.105-.61-2.19-1.008-3.194-1.176-1.085-.189-1.78.294-2.21 1.512a2.718 2.718 0 00-.062.503c0 .105-.02.168-.02.21l.02.525h-.43c-.266 0-.43 0-.574.105-.47.357-.675 1.197-.573 2.478.082 1.05.39 1.805.901 2.309z"/><path d="M9.031 15.684l-.04.126v-.063c.02-.021.02-.042.04-.063z"/><path d="M8.846 16.67v-.86c0-.043 0-.085.02-.127a.438.438 0 01.062-.104l.491-.567-.573 1.658z"/></g><defs><clipPath id="clip0_90_7292"><path fill="#fff" d="M0 0h19v19H0z"/></clipPath></defs></svg>