<svg width="19" height="19" fill="none" xmlns="http://www.w3.org/2000/svg"><path d="M15.812 12.708a6.072 6.072 0 00-1.529-4.043c1.607-1.275 2-3.59.916-5.345S11.896.927 10.077 1.854c-1.826.927-2.671 3.103-1.949 5.05a5.565 5.565 0 00-.774.302 3.084 3.084 0 00-3.53-1.289c-1.322.42-2.218 1.683-2.193 3.097.026 1.413.968 2.642 2.31 3.004-.252 2.235.73 4.431 2.555 5.7a5.864 5.864 0 006.142.355c1.955-1.045 3.174-3.116 3.174-5.365zm-3.974-10.69c1.464 0 2.761.954 3.226 2.367a3.493 3.493 0 01-1.187 3.866A5.881 5.881 0 009.85 6.64a5.94 5.94 0 00-1.174.117 3.52 3.52 0 01.341-3.228 3.409 3.409 0 012.82-1.512zM2.199 8.954c0-1.433 1.142-2.597 2.549-2.597 1.406 0 2.548 1.164 2.548 2.597 0 1.434-1.142 2.597-2.548 2.597-1.4 0-2.542-1.163-2.549-2.597zm2.271 3.754c0-.197.013-.394.032-.591.084.006.162.013.246.013a3.11 3.11 0 002.6-1.42 3.22 3.22 0 00.27-2.992 4.85 4.85 0 01.955-.335 5.27 5.27 0 011.278-.158c2.974 0 5.387 2.46 5.387 5.49 0 3.03-2.413 5.49-5.387 5.49-2.968-.007-5.38-2.466-5.38-5.497z" fill="#222"/><path d="M6.67 4.234a.29.29 0 000-.579.859.859 0 01-.852-.868.29.29 0 00-.283-.289.29.29 0 00-.284.29c0 .48-.38.867-.852.867a.29.29 0 000 .579.86.86 0 01.852.868.29.29 0 00.284.289.29.29 0 00.283-.29c0-.48.381-.867.852-.867zm-1.426-.29a1.39 1.39 0 00.29-.295 1.4 1.4 0 00.29.295 1.39 1.39 0 00-.29.296 1.39 1.39 0 00-.29-.296zM16.094 15.6a.29.29 0 000 .579.86.86 0 01.852.868c0 .158.13.29.284.29a.29.29 0 00.284-.29c0-.48.38-.868.851-.868a.29.29 0 000-.578.859.859 0 01-.851-.868.29.29 0 00-.284-.29.29.29 0 00-.284.29.866.866 0 01-.852.867zm1.426.29c-.11.085-.213.184-.29.296a1.39 1.39 0 00-.29-.296c.11-.086.212-.184.29-.296.077.112.174.21.29.296zm-7.662.573c0-.48.38-.868.851-.868a.29.29 0 000-.579.86.86 0 01-.851-.867.29.29 0 00-.284-.29.29.29 0 00-.284.29c0 .48-.38.868-.852.868a.29.29 0 000 .578.86.86 0 01.852.868c0 .158.129.29.284.29a.285.285 0 00.284-.29zm-.575-1.15c.11-.086.213-.185.29-.296.085.111.181.216.291.295a1.39 1.39 0 00-.29.296 1.39 1.39 0 00-.29-.296zm2.84-2.026a.29.29 0 00.283-.289.86.86 0 01.852-.868.29.29 0 000-.578.859.859 0 01-.852-.868.29.29 0 00-.284-.29.29.29 0 00-.283.29.86.86 0 01-.852.868.29.29 0 000 .578.86.86 0 01.852.868c0 .158.129.29.284.29zm-.29-1.446c.109-.086.212-.184.29-.296.083.112.18.217.29.296a1.39 1.39 0 00-.29.296 1.393 1.393 0 00-.29-.296zM4.32 18.443a.859.859 0 00.852-.868c0-.48-.38-.868-.852-.868a.859.859 0 00-.851.868c0 .48.38.868.851.868zm0-1.157a.29.29 0 010 .578.29.29 0 01-.284-.29c0-.157.123-.288.284-.288zm13.471-3.802a.86.86 0 00.852-.868.86.86 0 00-.852-.868.859.859 0 00-.852.868c0 .48.381.868.852.868zm0-1.157a.29.29 0 010 .578.29.29 0 010-.578zM15.244 1.952a.859.859 0 00.852-.867c0-.48-.38-.868-.852-.868a.859.859 0 00-.851.868c0 .48.38.867.851.867zm0-1.15a.29.29 0 010 .578.29.29 0 01-.284-.289c0-.164.123-.29.284-.29zm1.413 9.309c.626 0 1.136-.52 1.136-1.157 0-.638-.51-1.157-1.136-1.157-.626 0-1.136.52-1.136 1.157.007.638.51 1.157 1.136 1.157zm0-1.736a.57.57 0 01.568.579.57.57 0 01-.568.579.57.57 0 01-.568-.579c0-.322.258-.579.568-.579zM1.489 5.957c.626 0 1.135-.52 1.135-1.157 0-.638-.51-1.157-1.135-1.157-.626 0-1.135.519-1.135 1.157 0 .637.51 1.157 1.135 1.157zm0-1.736a.57.57 0 01.568.579.57.57 0 01-.568.578.57.57 0 01-.568-.578c0-.322.258-.579.568-.579zm9.788-1.316a.283.283 0 00.278.263c.432.007 1.322.092 1.929.651.374.375.593.868.626 1.394.006.151.135.27.283.27.162 0 .29-.138.284-.303a2.719 2.719 0 00-.813-1.788c-.742-.69-1.787-.796-2.303-.802a.285.285 0 00-.284.315zm3.096 10.093a.282.282 0 00-.277.256c-.084.803-.6 3.202-3.723 3.748a.287.287 0 00-.232.322v.007c.02.157.168.27.329.243 3.439-.605 4.071-3.314 4.187-4.254.013-.17-.116-.322-.284-.322z" fill="#222"/></svg>