<svg width="40" height="40" fill="none" xmlns="http://www.w3.org/2000/svg"><path fill-rule="evenodd" clip-rule="evenodd" d="M19.935 39.973c-11.013 0-19.939-8.947-19.939-19.985C-.004 8.951 8.922.004 19.936.004c11.011 0 19.937 8.947 19.937 19.984 0 11.038-8.926 19.985-19.938 19.985zm0-38.613C9.67 1.36 1.35 9.7 1.35 19.988c0 10.289 8.32 18.629 18.586 18.629 10.265 0 18.586-8.34 18.586-18.628C38.52 9.7 30.2 1.36 19.935 1.36zm2.988 16.004l-.233 2.38h-1.805v6.738h-2.674v-6.737h-1.272v-2.381h1.272v-1.54c0-1.103.5-2.826 2.699-2.826l1.98.008v2.31h-1.438c-.234 0-.567.123-.567.649v1.399h2.038z" fill="#fff"/></svg>