<svg width="288" height="363" fill="none" xmlns="http://www.w3.org/2000/svg"><g opacity=".5"><path d="M198.427 113.565c1.19.048 2.38.191 3.571.143 2.285 0 4.571-.095 6.809-.048 3.524.096 7 .239 10.523.429 1.334.095 2.572.476 3.905.667 2.524.333 5.047.666 7.619 1.047.19 0 .428.048.619.048.905-.048 1.095-.429.619-1.191-.381-.666-.905-1.19-1.286-1.761-.333-.429-.714-.905-1-1.381l-4.428-7c-.619-.905-1.333-1.714-1.905-2.571-1.428-2-2.809-4.048-4.285-6.095-1.334-1.81-2.715-3.667-4.286-5.333-3.476-3.667-6.952-7.334-10.047-11.286-2.048-2.523-4.143-4.904-6.19-7.428-2.714-3.19-5.333-6.38-8.048-9.571-.523-.619-1.095-1.095-1.619-1.714-.666-.762-1.38-1.572-2.047-2.333-.333-.334-.619-.715-.952-.953-.762-.666-1.381-.428-1.572.524-.19.952-.238 1.952-.381 2.952-.524 2.62-.809 5.19-1.143 7.81-.285 2.476-.333 5.095-1.476 7.475-.666 1.334-.904 2.81-1.285 4.238-.238.905-.762 1.143-1.619 1.238-2.095.096-4.191.19-6.333.429-1.572.143-3.191.524-4.762.762-1.952.333-3.905.666-5.857 1.095-.905.143-1.238.762-.857 1.524.095.285.381.476.667.666 1.285.81 2.571 1.524 3.761 2.429 3 2.333 5.857 4.81 8.809 7.19.381.286.477.667.239 1.095-.143.238-.239.429-.381.667-1.715 3.047-3 6.238-4.095 9.523-.477 1.429-1.191 2.81-1.81 4.191-.333.809-.667 1.618-.905 2.428-.238.905 0 1.143.905 1.095 2.048-.143 4.048-.333 6.047-.428 2-.096 4.048-.048 6.095-.096 3.905-.095 7.81-.19 11.762-.333 2.238-.048 4.476-.095 6.666-.095-.095 0-.047-.048-.047-.048zm29.475.429c-.048.143-.096.19-.143.333-2.048-.238-4.095-.286-6.143-.714-3.809-.857-7.619-.762-11.428-.953-1.905-.095-3.857.143-5.809.191-2.286 0-4.619-.143-6.952-.095-3.619 0-7.286.143-10.905.238-2.142.047-4.285.19-6.428.047-2.428-.142-4.809-.142-7.19.048-1.429.095-2.762.095-4.143.143-.047-.238-.047-.333 0-.381.905-2.048 1.857-4.143 2.714-6.238.334-.809.524-1.762.857-2.571 1.762-3.857 3.524-7.714 5.381-11.571.619-1.286 1.381-2.524 2.095-3.81.381.191.667.286 1 .429 2.334 1.19 4.667 2.286 6.952 3.524 1.857 1 3.667 2.047 5.524 3.047.714.429 1.476.905 2.19 1.334 1.81.952 3.572 1.856 5.333 2.856 1.953 1.096 3.905 2.381 5.905 3.429 2.333 1.19 4.619 2.524 6.809 4.047.857.572 1.905.953 2.905 1.381.666.286 1.333.476 1.952.81 1.333.666 2.619 1.381 3.952 2.047 1.191.619 2.429 1.191 3.667 1.762.667.095 1.286.333 1.905.667zM185.76 58.901c1.143 1.143 2.238 2.238 3.191 3.38 1.904 2.096 3.857 4.239 5.714 6.381 1.428 1.62 2.762 3.429 4.143 5.095 1.952 2.334 3.904 4.667 5.904 7.048 1.714 2 3.381 4.047 5.143 6 1.714 1.904 3.571 3.666 5.285 5.57 1.048 1.143 1.952 2.43 2.857 3.715 1.048 1.428 1.953 3 3 4.428 1.857 2.619 3.714 5.143 5.571 7.762.619.904 1.143 1.904 1.714 2.952l-.19.19c-.333-.142-.619-.333-.952-.476-.762-.476-1.476-1-2.286-1.523-2.476-1.524-4.904-3-7.333-4.572-.667-.381-1.286-.904-1.905-1.333l-5.428-3.714c-1.714-1.143-3.428-2.286-5.095-3.476-2.809-2.048-5.666-4.048-8.762-5.619-1.952-1-3.809-2.095-5.761-3.19-1.953-1.096-3.857-2.238-5.762-3.381-1.19-.714-2.381-1.333-3.524-2-.38-.19-.476-.476-.333-.905.429-1.38.857-2.762 1.238-4.19.572-2 1.429-3.905 1.524-6.095.048-1.476.333-3 .571-4.571.381-2.381.857-4.762 1.286-7.19-.048-.048 0-.096.19-.286zm39.999 52.569l-.191.191c-.952-.477-1.904-1.048-2.857-1.524-1.904-.953-3.714-1.905-5.714-2.667-1-.428-1.952-.809-2.904-1.381-1.524-.952-2.953-1.904-4.524-2.809-1.238-.762-2.571-1.333-3.809-2.095-2.334-1.286-4.619-2.714-6.952-4-1.477-.81-2.953-1.619-4.429-2.524-1.286-.714-2.476-1.619-3.762-2.333-3.095-1.667-6.237-3.19-9.333-4.857-.38-.19-.809-.428-1.142-.762-.619-.619-1.191-.904-2.048-.428-.19.095-.428.047-.571 0-1.476-.239-2.905-.429-4.381-.667-2.143-.333-4.286-.762-6.476-1.143-.238-.047-.381-.095-.619-.143 1.809-.571 3.619-1.047 5.428-1.238 1.572-.238 3.238-.19 4.81-.428 2.095-.286 4.047.143 5.761 1.285.334.239.667.477 1.048.667 3.428 1.905 6.952 3.81 10.38 5.714 3.905 2.19 7.762 4.333 11.333 7.047 2.953 2.19 6.095 4.095 9.143 6.191 2.857 1.904 5.761 3.857 8.666 5.714 1.048.857 2.095 1.523 3.143 2.19zm-50.76-16.856c-3.571-2.905-6.904-5.667-10.381-8.476 4.619-.048 8.81 1.095 13.238 1.81-.952 2.19-1.905 4.285-2.857 6.666z" fill="#738CA8"/><path d="M182.281 96.277c-.286-.19-.571-.38-.809-.428-.715-.239-1.381-.429-2.096-.667-.381-.095-.761-.095-.904.333-.191.476.095.667.476.857.762.286 1.524.572 2.333.81.571.095.762-.381 1-.905zm-2.569-3.426c-.143.143-.476.286-.571.572-.048.142.238.523.428.619 1 .333 2 .666 3.048.952.143.048.428-.143.571-.286.095-.095-.047-.333-.143-.523 0-.096-.19-.191-.285-.191-.905-.524-1.857-.81-3.048-1.143zm-1.714 3.904c-.381.667-.381 1.048.238 1.286.476.19.905.429 1.286.62.428.237.714-.049.857-.382.19-.38-.048-.619-.333-.81-.191-.095-.429-.237-.667-.285-.381-.19-.857-.286-1.381-.429zm29.666 13.765c0 .476.477.762.857.476.524-.333.953-.857 1.429-1.333.048-.048-.095-.476-.19-.571-.572-.191-1.905.666-2.048 1.285-.095.095-.048.143-.048.143zm4.524-.145c-.667-.476-.667-.476-2.524.809.047.524.238.905.809.524.572-.381 1.095-.904 1.715-1.333zM176.331 99.09c-.048.62.428 1.19.905 1.19.19 0 .476-.285.571-.476.143-.428-.381-1.047-.81-1-.285 0-.523.238-.666.286zm14.096-31.903c-.714-1.381-1.762-2.429-3-3.286-.19-.095-.619-.047-.762.095-.143.143-.095.477 0 .762.048.143.238.334.381.477.81.714 1.667 1.38 2.476 2 .191.19.476.19.714.237.096-.095.143-.238.191-.285zm25.761 28.521c-.095-.095-.191-.38-.429-.524-.714-.428-1.476-.81-2.285-1.238-.286-.19-.619-.333-.857.096-.286.38-.096.666.285.952.762.476 1.524.952 2.334 1.38.476.191.904-.047.952-.666zm-2.858 1.046a45.288 45.288 0 002.762 1.81c.19.095.523.143.666 0 .143-.143.238-.429.143-.619-.286-.857-2.524-1.857-3.428-1.524 0 .095 0 .095-.143.333zm4.951 4.668c.477-.762.143-1.191-.285-1.524-.286-.19-.619-.428-.953-.571-.238-.048-.523.047-.762.095.048.333 0 .762.191.857.476.381 1.143.667 1.809 1.143zm-26.995-32.236c.476-.19.904-.429.666-1.048-.047-.142-.619-.238-.809-.142-.429.142-.381.571.143 1.19zm1.762.239c-.285.381-.571.572-.666.857-.048.143.19.381.285.572.286-.19.619-.334.857-.572.048-.047-.238-.428-.476-.857zM174.43 90.614c-.047-.143-.047-.333-.095-.38-.476-.572-1-1.096-1.524-1.62-.095-.095-.428-.047-.666 0 0 .286-.095.572 0 .762.428.524.809 1 1.285 1.476.143.143.381.19.524.143.238-.048.334-.238.476-.38zm-2.382-.284c0-.477-.905-1.667-1.334-1.81-.428-.143-.857.19-.619.619.334.619.762 1.143 1.238 1.619.286.285.667 0 .715-.429z" fill="#738CA8"/><g opacity=".5" stroke="#738CA8" stroke-width="2.507" stroke-linecap="round" stroke-linejoin="round"><path d="M154.812 82.14c-.904-.237-1.761-.523-2.571-.761"/><path d="M147.094 79.377c-13.856-6.047-23.332-15.523-43.522-13.047-24.57 3.048-64.093 47.141-25.618 88.663" stroke-dasharray="7.9 7.9"/><path d="M79.86 156.996l1.906 1.904"/></g><path d="M111.55 195.047s24.677 23.628 27.456 44.812c4.663 35.275-61.493 83.268-81.786 23.781-19.914-58.345-43.447-83.023-62.597-76.52-28.2 9.468-32.029 56.468 4.994 70.413 37.118 13.945 32.65-24.187 13.318-23.493-19.332.695-41.981 23.819-32.596 53.231" stroke="#738CA8" stroke-width="2.507" stroke-miterlimit="10" stroke-linecap="round" stroke-linejoin="round" stroke-dasharray="8.02 8.02"/><path d="M29.428 288.748c.572-.096.953-.096 1.286-.239 1.857-.809 3.714-1.523 5.476-2.428.762-.381 1.238-.19 1.857.333 1.143.953 2.38 1.81 3.619 2.572 1 .619 1.619.285 1.619-.953s.048-2.523-.095-3.809c-.096-1.048.143-1.762 1.143-2.286 1-.523 1.904-1.142 2.809-1.857.524-.428 1.047-.952 1.428-1.523.429-.62.19-1.048-.571-1.239-1.619-.38-3.238-.857-4.857-1.238-.952-.19-1.38-.714-1.762-1.571a35.44 35.44 0 00-2.524-4.809c-1.047-1.81-1.857-1.762-3.047 0-.19.285-.38.666-.524 1-.19.476-.38.952-.619 1.381-1.095 2.333-1.81 2.761-4.333 2.428-1.524-.19-2.857 0-4.19.762-.905.524-.953 1.143-.19 1.714a87.245 87.245 0 003.428 2.381c.285.19.666.286 1 .524 1.238.666 1.285.809.762 2.19-.524 1.572-1.143 3.143-1.62 4.762-.095.667-.047 1.19-.095 1.905zM31 286.891c.143-.524.095-.762.19-.953.524-1.285 1.048-2.571 1.667-3.857.714-1.571.619-1.952-.905-2.714a75.655 75.655 0 01-3.762-2.143c-.19-.095-.285-.381-.619-.809.667-.095 1.095-.238 1.524-.191.952 0 1.952.048 2.905.048.952 0 1.857-.333 2.428-1.191.572-.857 1.095-1.857 1.572-2.809.333-.619.523-1.286 1.333-1.714.238.333.476.571.619.905.857 1.714 1.714 3.428 2.476 5.142.238.524.571.953 1.19 1 1.381.238 2.715.524 4.095.857.334.048.667.191 1.286.429-1.333.857-2.476 1.619-3.666 2.238-1.762 1-1.715 1.238-1.477 3.571 0 .191.143.333.143.524.095.762.19 1.524-.333 2.428a263.265 263.265 0 00-2.095-1.809c-.429-.333-.81-.81-1.238-1.143-.429-.428-.953-.476-1.572-.238-1.523.667-3 1.286-4.428 1.952-.38.191-.714.238-1.333.477zM144.805 54.33c.238-.524.524-.81.572-1.143.571-1.905 1.142-3.81 1.619-5.81.19-.857.619-1.095 1.428-1.238 1.429-.285 2.905-.714 4.333-1.19 1.143-.381 1.238-1.048.286-1.81-1-.809-1.952-1.57-3-2.333-.857-.571-1.286-1.19-1.095-2.333.238-1.095.333-2.238.381-3.333 0-.667-.048-1.381-.238-2.048-.238-.714-.714-.81-1.286-.333-1.333 1.048-2.666 2-4 3.047-.762.572-1.428.667-2.333.429a40.074 40.074 0 00-5.285-1.095c-2.096-.286-2.524.333-1.953 2.333.096.381.238.714.429 1 .19.476.524.905.714 1.38 1.143 2.286 1.048 3.144-.857 4.953-1.095 1-1.857 2.238-2.048 3.762-.142 1 .239 1.476 1.238 1.238 1.381-.333 2.667-.762 4.048-1.19.381-.096.667-.286 1.048-.477 1.333-.571 1.428-.476 2.19.762.857 1.429 1.714 2.857 2.666 4.286.191.38.667.666 1.143 1.143zm-.476-2.381c-.333-.429-.524-.62-.619-.81a288.193 288.193 0 01-1.952-3.666c-.81-1.572-1.095-1.667-2.667-1.048-1.333.572-2.666 1.048-4.047 1.571-.191.096-.476 0-1.048 0 .381-.571.524-1 .81-1.285.571-.762 1.238-1.524 1.857-2.238.666-.762.904-1.667.619-2.62-.334-1-.762-2-1.238-2.951-.286-.667-.667-1.239-.476-2.096.38 0 .761 0 1.047.096l5.571 1.285c.619.143 1.096.143 1.572-.238 1.095-.904 2.142-1.762 3.238-2.666.285-.19.571-.381 1.142-.667-.19 1.619-.285 2.952-.523 4.238-.334 2.047-.143 2.143 1.809 3.428.191.096.333.143.524.239.619.428 1.286.809 1.666 1.761-.952.19-1.857.334-2.714.524-.571.095-1.095.143-1.666.238-.619.048-1 .429-1.143 1.048l-1.286 4.714c-.095.19-.238.524-.476 1.143zM54.382 329.128c.19-.381.381-.572.429-.81.428-1.381.904-2.714 1.285-4.047.19-.572.477-.762 1.048-.857a36.364 36.364 0 003.095-.715c.81-.238.905-.714.238-1.285-.666-.572-1.38-1.191-2.095-1.715-.619-.428-.905-.904-.714-1.666.19-.762.238-1.572.333-2.333 0-.477-.048-1-.143-1.477-.143-.523-.476-.571-.904-.238-.953.667-2 1.334-2.905 2.048-.524.428-1.048.381-1.667.238a33.251 33.251 0 00-3.761-.905c-1.477-.238-1.81.191-1.429 1.619.048.238.143.524.286.762.142.333.285.667.476.952.714 1.667.666 2.286-.714 3.477-.81.714-1.334 1.523-1.572 2.618-.143.715.143 1 .81.905.952-.19 1.904-.476 2.857-.762.238-.047.476-.19.762-.285.952-.381 1.047-.286 1.571.619.571 1.047 1.143 2.095 1.762 3.095.285.19.619.428.952.762zm-.285-1.715c-.239-.333-.334-.428-.382-.571-.428-.905-.904-1.762-1.285-2.714-.476-1.143-.762-1.238-1.857-.81-.953.381-1.953.715-2.905 1-.143.048-.38 0-.762 0 .286-.381.381-.666.62-.904.428-.524.952-1.048 1.38-1.572.429-.524.667-1.143.524-1.857-.238-.714-.476-1.428-.81-2.143-.19-.476-.428-.904-.285-1.523.285 0 .524.047.762.095 1.285.333 2.619.714 3.952 1.095.38.095.714.143 1.095-.143.81-.619 1.571-1.19 2.38-1.809.239-.143.43-.238.858-.476-.19 1.142-.286 2.095-.524 2.999-.285 1.429-.143 1.477 1.238 2.477.096.095.286.095.381.19.429.333.905.619 1.143 1.333-.714.143-1.333.191-1.905.286-.428.048-.81.048-1.19.143-.429.047-.714.333-.857.762-.334 1.095-.714 2.238-1.048 3.333-.238.143-.285.381-.523.809zM192.851 54.471c.19-.38.381-.571.428-.81.429-1.38.905-2.713 1.286-4.047.191-.571.476-.761 1.048-.857a36.359 36.359 0 003.095-.714c.809-.238.905-.714.238-1.286-.667-.571-1.381-1.19-2.095-1.714-.619-.428-.905-.905-.715-1.666.191-.762.239-1.572.334-2.334 0-.476-.048-1-.143-1.476-.143-.524-.476-.571-.905-.238-.952.667-2 1.333-2.904 2.048-.524.428-1.048.38-1.667.238a33.283 33.283 0 00-3.762-.905c-1.476-.238-1.809.19-1.428 1.619.047.238.143.524.285.762.143.333.286.666.477.952.714 1.667.666 2.286-.715 3.476-.809.715-1.333 1.524-1.571 2.62-.143.713.143 1 .809.904.953-.19 1.905-.476 2.857-.762.239-.048.477-.19.762-.286.953-.38 1.048-.285 1.572.62.571 1.047 1.143 2.094 1.762 3.094.333.143.619.429.952.762zm-.238-1.761c-.238-.334-.333-.429-.381-.572-.429-.905-.905-1.762-1.286-2.714-.476-1.143-.762-1.238-1.857-.81-.952.381-1.952.715-2.904 1-.143.048-.381 0-.762 0 .285-.38.381-.666.619-.904.428-.524.952-1.048 1.381-1.572.428-.523.666-1.142.523-1.857-.238-.714-.476-1.428-.809-2.142-.191-.477-.429-.905-.286-1.524a3.7 3.7 0 01.762.095c1.286.333 2.619.714 3.952 1.095.381.095.715.143 1.095-.143.81-.619 1.572-1.19 2.381-1.81.238-.142.429-.237.857-.475-.19 1.142-.285 2.095-.523 3-.286 1.428-.143 1.476 1.238 2.476.095.095.285.095.381.19.428.334.904.62 1.142 1.333-.714.143-1.333.19-1.904.286-.429.048-.81.048-1.191.143-.428.048-.714.333-.857.762-.333 1.095-.714 2.238-1.047 3.333-.286.19-.334.429-.524.81zM4.812 179.75c.143-.524.334-.809.334-1.095.19-1.809.38-3.619.476-5.428.047-.81.38-1.048 1.047-1.334 1.238-.476 2.429-1.095 3.667-1.761.905-.524.905-1.191-.048-1.667-1-.524-2-1.143-3.047-1.524-.857-.381-1.381-.905-1.334-1.904.048-1-.095-2-.238-3a6.642 6.642 0 00-.571-1.81c-.333-.619-.762-.571-1.19-.047-1 1.095-2.096 2.19-3.048 3.333-.571.666-1.19.809-2 .762a56.855 56.855 0 00-4.952-.096c-1.905.096-2.238.715-1.333 2.381.143.334.38.572.571.857l.857 1.143c1.381 1.857 1.429 2.667.048 4.524-.81 1.095-1.238 2.285-1.19 3.666.047.905.476 1.238 1.285.905 1.143-.476 2.286-1.143 3.38-1.762l.858-.571c1.095-.714 1.238-.667 2.143.333 1.047 1.143 2.047 2.238 3.095 3.381.143.143.619.333 1.19.714zm-.857-2.095a5.256 5.256 0 01-.666-.571c-.81-1-1.572-1.953-2.334-3-.952-1.238-1.238-1.333-2.571-.476-1.095.714-2.238 1.381-3.333 2.095-.19.095-.476.095-.953.19.19-.571.286-.952.477-1.333.428-.81.857-1.524 1.285-2.333.429-.81.572-1.619.143-2.429-.476-.857-1-1.666-1.571-2.428-.334-.524-.81-1-.762-1.81.333-.047.667-.095.952-.095 1.714.095 3.476.143 5.19.238.524.048 1-.047 1.334-.476.81-1 1.619-1.905 2.428-2.905.238-.238.429-.428.905-.809.095 1.428.19 2.666.238 3.857 0 1.905.238 1.952 2.19 2.762.143.047.334.047.477.095.666.286 1.285.524 1.81 1.333-.81.333-1.572.619-2.334.905-.476.19-.953.286-1.429.476-.571.191-.762.571-.857 1.143-.143 1.476-.238 2.905-.38 4.381-.048.333-.144.619-.239 1.19zM.003 287.796c.19-.381.381-.572.429-.81.428-1.381.905-2.714 1.285-4.047.19-.572.477-.762 1.048-.857a36.355 36.355 0 003.095-.715c.81-.238.905-.714.238-1.285-.666-.572-1.38-1.191-2.095-1.715-.619-.428-.905-.904-.714-1.666.19-.762.238-1.572.333-2.333 0-.477-.047-1-.143-1.477-.143-.523-.476-.571-.904-.238-.953.667-2 1.334-2.905 2.048-.524.428-1.048.381-1.667.238a33.256 33.256 0 00-3.761-.905c-1.477-.238-1.81.191-1.429 1.619.048.238.143.524.286.762.143.333.285.667.476.952.714 1.667.667 2.286-.714 3.476-.81.715-1.334 1.524-1.572 2.619-.143.715.143 1 .81.905.952-.19 1.904-.476 2.857-.762.238-.047.476-.19.762-.285.952-.381 1.047-.286 1.571.619.571 1.047 1.143 2.095 1.762 3.095.333.143.619.428.952.762zm-.238-1.762c-.238-.334-.333-.429-.38-.572-.43-.904-.905-1.761-1.286-2.714-.477-1.143-.762-1.238-1.858-.809-.952.381-1.952.714-2.904 1-.143.047-.381 0-.762 0 .286-.381.38-.667.619-.905.429-.524.952-1.048 1.38-1.571.43-.524.668-1.143.525-1.858-.238-.714-.476-1.428-.81-2.142-.19-.476-.428-.905-.285-1.524.285 0 .523.048.761.095 1.286.334 2.62.714 3.953 1.095.38.096.714.143 1.095-.142.81-.619 1.571-1.191 2.38-1.81.239-.143.43-.238.858-.476-.19 1.143-.286 2.095-.524 3-.286 1.428-.143 1.476 1.238 2.476.095.095.286.095.38.19.43.334.906.619 1.144 1.334-.715.142-1.334.19-1.905.285-.428.048-.81.048-1.19.143-.429.048-.715.334-.857.762-.334 1.095-.715 2.238-1.048 3.333-.286.191-.333.429-.524.81zm246.178-139.616c.286-.286.524-.429.667-.667.809-1.19 1.619-2.381 2.333-3.571.333-.524.667-.571 1.238-.571 1.048.095 2.143.142 3.19.142.857 0 1.048-.476.619-1.19-.476-.762-.952-1.524-1.523-2.19-.477-.572-.619-1.096-.191-1.81.381-.666.667-1.428.952-2.19.191-.476.286-.953.286-1.429 0-.571-.286-.666-.809-.523-1.143.38-2.286.761-3.381 1.19-.619.238-1.095.143-1.667-.238a33.423 33.423 0 00-3.333-1.905c-1.333-.666-1.762-.333-1.809 1.143 0 .286.047.524.047.809.048.334.143.715.191 1.048.285 1.81 0 2.381-1.619 3.143-.953.476-1.715 1.143-2.191 2.095-.285.667-.143 1 .524 1.095 1 .048 1.952.048 3 .048.286 0 .524-.048.762-.095 1-.048 1.047 0 1.333 1.047.286 1.143.572 2.286.905 3.476 0 .381.19.667.476 1.143zm.19-1.714c-.142-.334-.238-.524-.285-.667-.191-.952-.334-1.952-.524-2.905-.19-1.238-.333-1.38-1.571-1.285a69.204 69.204 0 01-3.048.19c-.19 0-.333-.143-.714-.238.333-.333.571-.571.809-.714.572-.381 1.191-.714 1.762-1.095.572-.381 1-.905.953-1.619 0-.762-.096-1.524-.191-2.286-.048-.524-.19-.952.095-1.524.286.096.524.143.667.286 1.19.714 2.333 1.381 3.524 2.095.333.238.714.334 1.095.143.952-.381 1.857-.714 2.809-1.095.191-.095.476-.095.905-.238-.476 1.047-.857 1.904-1.333 2.762-.715 1.285-.572 1.428.523 2.714.096.095.239.143.286.285.333.429.667.858.762 1.619-.714-.047-1.333-.19-1.952-.238a8.564 8.564 0 01-1.191-.238c-.428-.047-.762.096-1.047.476-.619 1-1.286 1.953-1.953 2.905.048.048-.095.286-.381.667zm-64.519 91.379c.19-.381.333-.619.381-.857.333-1.381.762-2.762 1-4.142.143-.619.428-.81 1-.905 1-.238 2.047-.524 3.047-.952.762-.286.857-.762.191-1.334-.715-.524-1.381-1.095-2.143-1.571-.619-.429-.952-.857-.81-1.667.143-.809.191-1.619.191-2.381 0-.476-.048-1-.238-1.476-.143-.523-.524-.523-.953-.19-.952.762-1.857 1.476-2.809 2.238-.524.428-1.047.476-1.667.333a33.229 33.229 0 00-3.809-.666c-1.476-.143-1.809.285-1.333 1.714.095.285.19.476.333.714.143.333.333.619.572.952.857 1.619.809 2.238-.477 3.524-.761.762-1.238 1.619-1.38 2.714-.048.714.19 1.048.904.81.953-.286 1.857-.619 2.81-.905.285-.095.428-.238.714-.333.905-.429 1.047-.381 1.571.523.619 1 1.334 2 2 2.953.191.381.476.571.905.904zm-.381-1.714c-.286-.286-.381-.381-.429-.524-.476-.857-1-1.761-1.476-2.619-.619-1.095-.809-1.19-1.904-.666-.905.428-1.857.809-2.81 1.19-.143.048-.381 0-.762 0 .238-.428.334-.714.572-.952.381-.572.904-1.095 1.285-1.667.429-.524.619-1.19.381-1.904a11.8 11.8 0 00-.952-2.096c-.238-.428-.476-.857-.429-1.476.286 0 .524-.047.762 0 1.334.286 2.667.572 3.953.81.38.095.761.095 1.095-.238.762-.667 1.476-1.286 2.238-1.953.19-.19.381-.285.809-.523a166.14 166.14 0 01-.286 3.047c-.238 1.476-.047 1.476 1.334 2.381.095.095.285.095.333.143.476.286.952.571 1.238 1.238-.714.143-1.333.286-1.905.381-.38.095-.809.143-1.142.19-.429.048-.715.334-.81.81-.286 1.143-.524 2.238-.809 3.381-.096.381-.143.619-.286 1.047zm16.286-76.853c.572-.095.953-.095 1.286-.238 1.857-.809 3.714-1.523 5.524-2.381.762-.381 1.238-.19 1.857.334a31.333 31.333 0 003.619 2.571c1 .619 1.619.286 1.619-.952s.047-2.524-.096-3.81c-.095-1.047.143-1.761 1.143-2.285 1-.524 1.905-1.143 2.81-1.857.523-.429 1.047-.953 1.428-1.524.429-.619.191-1.048-.571-1.238-1.619-.381-3.238-.857-4.857-1.238-.905-.238-1.381-.714-1.762-1.572-.714-1.666-1.571-3.285-2.476-4.856-1.048-1.81-1.857-1.762-3.048 0-.19.285-.381.666-.523.999-.191.477-.381.953-.619 1.381-1.096 2.334-1.81 2.762-4.334 2.429-1.523-.191-2.857 0-4.19.762-.905.524-1 1.095-.19 1.714a88.014 88.014 0 003.428 2.381c.286.19.667.285 1 .524 1.238.666 1.286.809.762 2.19-.572 1.619-1.143 3.143-1.619 4.762-.143.619-.095 1.238-.191 1.904zm1.572-1.857c.143-.523.095-.762.19-.952.524-1.286 1.048-2.571 1.667-3.857.762-1.619.666-1.905-.905-2.714a75.706 75.706 0 01-3.762-2.143c-.19-.095-.285-.381-.619-.809.667-.096 1.096-.239 1.524-.191.952 0 1.952.048 2.905.048.952 0 1.857-.334 2.428-1.191.572-.857 1.095-1.857 1.572-2.809.333-.619.523-1.286 1.333-1.714.238.333.476.571.619.904.857 1.715 1.714 3.429 2.476 5.143.238.524.571.952 1.143 1.048a62.11 62.11 0 014.095.857c.333.047.619.238 1.285.428-1.333.857-2.476 1.619-3.666 2.238-1.809.953-1.714 1.238-1.476 3.572 0 .19.143.333.143.523.095.762.19 1.524-.334 2.429-.761-.667-1.428-1.238-2.095-1.81-.381-.381-.809-.809-1.238-1.142-.428-.429-.952-.477-1.571-.239-1.524.667-3 1.286-4.476 1.905-.238.143-.619.238-1.238.476z" fill="red" opacity=".5"/></g></svg>