<svg width="288" height="363" viewBox="0 0 288 363" fill="none" xmlns="http://www.w3.org/2000/svg">
<g opacity="0.5">
<path d="M198.427 113.565C199.617 113.613 200.807 113.756 201.998 113.708C204.283 113.708 206.569 113.613 208.807 113.66C212.331 113.756 215.807 113.899 219.33 114.089C220.664 114.184 221.902 114.565 223.235 114.756C225.759 115.089 228.282 115.422 230.854 115.803C231.044 115.803 231.282 115.851 231.473 115.851C232.378 115.803 232.568 115.422 232.092 114.66C231.711 113.994 231.187 113.47 230.806 112.899C230.473 112.47 230.092 111.994 229.806 111.518C228.33 109.184 226.854 106.851 225.378 104.518C224.759 103.613 224.045 102.804 223.473 101.947C222.045 99.9467 220.664 97.8992 219.188 95.8517C217.854 94.0422 216.473 92.1852 214.902 90.5186C211.426 86.852 207.95 83.1855 204.855 79.2333C202.807 76.7096 200.712 74.3288 198.665 71.805C195.951 68.6147 193.332 65.4244 190.617 62.234C190.094 61.615 189.522 61.1388 188.998 60.5198C188.332 59.7579 187.618 58.9485 186.951 58.1866C186.618 57.8533 186.332 57.4723 185.999 57.2342C185.237 56.5676 184.618 56.8057 184.427 57.758C184.237 58.7104 184.189 59.7103 184.046 60.7103C183.522 63.3292 183.237 65.9005 182.903 68.5195C182.618 70.9956 182.57 73.6145 181.427 75.9954C180.761 77.3286 180.523 78.8048 180.142 80.2333C179.904 81.138 179.38 81.3761 178.523 81.4713C176.428 81.5665 174.332 81.6618 172.19 81.8999C170.618 82.0427 168.999 82.4237 167.428 82.6617C165.476 82.9951 163.523 83.3284 161.571 83.7569C160.666 83.8998 160.333 84.5188 160.714 85.2807C160.809 85.5664 161.095 85.7569 161.381 85.9473C162.666 86.7568 163.952 87.4711 165.142 88.3758C168.142 90.709 170.999 93.1851 173.951 95.566C174.332 95.8517 174.428 96.2326 174.19 96.6612C174.047 96.8992 173.951 97.0897 173.809 97.3278C172.094 100.375 170.809 103.566 169.714 106.851C169.237 108.28 168.523 109.661 167.904 111.042C167.571 111.851 167.237 112.66 166.999 113.47C166.761 114.375 166.999 114.613 167.904 114.565C169.952 114.422 171.952 114.232 173.951 114.137C175.951 114.041 177.999 114.089 180.046 114.041C183.951 113.946 187.856 113.851 191.808 113.708C194.046 113.66 196.284 113.613 198.474 113.613C198.379 113.613 198.427 113.565 198.427 113.565ZM227.902 113.994C227.854 114.137 227.806 114.184 227.759 114.327C225.711 114.089 223.664 114.041 221.616 113.613C217.807 112.756 213.997 112.851 210.188 112.66C208.283 112.565 206.331 112.803 204.379 112.851C202.093 112.851 199.76 112.708 197.427 112.756C193.808 112.756 190.141 112.899 186.522 112.994C184.38 113.041 182.237 113.184 180.094 113.041C177.666 112.899 175.285 112.899 172.904 113.089C171.475 113.184 170.142 113.184 168.761 113.232C168.714 112.994 168.714 112.899 168.761 112.851C169.666 110.803 170.618 108.708 171.475 106.613C171.809 105.804 171.999 104.851 172.332 104.042C174.094 100.185 175.856 96.3278 177.713 92.4709C178.332 91.1852 179.094 89.9472 179.808 88.6615C180.189 88.852 180.475 88.9472 180.808 89.09C183.142 90.2805 185.475 91.3757 187.76 92.6137C189.617 93.6137 191.427 94.6612 193.284 95.6612C193.998 96.0898 194.76 96.5659 195.474 96.9945C197.284 97.9468 199.046 98.8515 200.807 99.8515C202.76 100.947 204.712 102.232 206.712 103.28C209.045 104.47 211.331 105.804 213.521 107.327C214.378 107.899 215.426 108.28 216.426 108.708C217.092 108.994 217.759 109.184 218.378 109.518C219.711 110.184 220.997 110.899 222.33 111.565C223.521 112.184 224.759 112.756 225.997 113.327C226.664 113.422 227.283 113.66 227.902 113.994ZM185.76 58.9008C186.903 60.0436 187.998 61.1388 188.951 62.2816C190.855 64.3768 192.808 66.5196 194.665 68.6623C196.093 70.2813 197.427 72.0908 198.808 73.7574C200.76 76.0906 202.712 78.4238 204.712 80.8047C206.426 82.8046 208.093 84.8521 209.855 86.8044C211.569 88.7091 213.426 90.4709 215.14 92.3756C216.188 93.5184 217.092 94.8041 217.997 96.0897C219.045 97.5183 219.95 99.0896 220.997 100.518C222.854 103.137 224.711 105.661 226.568 108.28C227.187 109.184 227.711 110.184 228.282 111.232C228.235 111.28 228.14 111.375 228.092 111.422C227.759 111.28 227.473 111.089 227.14 110.946C226.378 110.47 225.664 109.946 224.854 109.423C222.378 107.899 219.95 106.423 217.521 104.851C216.854 104.47 216.235 103.947 215.616 103.518C213.807 102.28 211.997 101.042 210.188 99.8039C208.474 98.6611 206.76 97.5183 205.093 96.3278C202.284 94.2803 199.427 92.2804 196.331 90.709C194.379 89.7091 192.522 88.6139 190.57 87.5187C188.617 86.4235 186.713 85.2807 184.808 84.1379C183.618 83.4236 182.427 82.8046 181.284 82.138C180.904 81.9475 180.808 81.6618 180.951 81.2332C181.38 79.8523 181.808 78.4714 182.189 77.0429C182.761 75.043 183.618 73.1383 183.713 70.948C183.761 69.4718 184.046 67.9481 184.284 66.3767C184.665 63.9959 185.141 61.615 185.57 59.1865C185.522 59.1389 185.57 59.0913 185.76 58.9008ZM225.759 111.47C225.711 111.518 225.616 111.613 225.568 111.661C224.616 111.184 223.664 110.613 222.711 110.137C220.807 109.184 218.997 108.232 216.997 107.47C215.997 107.042 215.045 106.661 214.093 106.089C212.569 105.137 211.14 104.185 209.569 103.28C208.331 102.518 206.998 101.947 205.76 101.185C203.426 99.8991 201.141 98.4706 198.808 97.1849C197.331 96.3755 195.855 95.566 194.379 94.6612C193.093 93.947 191.903 93.0423 190.617 92.328C187.522 90.6614 184.38 89.1377 181.284 87.4711C180.904 87.2806 180.475 87.0425 180.142 86.7092C179.523 86.0902 178.951 85.8045 178.094 86.2806C177.904 86.3759 177.666 86.3283 177.523 86.2806C176.047 86.0425 174.618 85.8521 173.142 85.614C170.999 85.2807 168.856 84.8521 166.666 84.4712C166.428 84.4236 166.285 84.376 166.047 84.3283C167.856 83.7569 169.666 83.2808 171.475 83.0903C173.047 82.8522 174.713 82.8998 176.285 82.6617C178.38 82.376 180.332 82.8046 182.046 83.9474C182.38 84.1855 182.713 84.4236 183.094 84.614C186.522 86.5187 190.046 88.4234 193.474 90.3281C197.379 92.5185 201.236 94.6612 204.807 97.3754C207.76 99.5658 210.902 101.47 213.95 103.566C216.807 105.47 219.711 107.423 222.616 109.28C223.664 110.137 224.711 110.803 225.759 111.47ZM174.999 94.6136C171.428 91.709 168.095 88.9472 164.618 86.1378C169.237 86.0902 173.428 87.233 177.856 87.9472C176.904 90.1376 175.951 92.2328 174.999 94.6136Z" fill="#738CA8"/>
<path d="M182.281 96.2771C181.995 96.0866 181.71 95.8962 181.472 95.8486C180.757 95.6105 180.091 95.42 179.376 95.1819C178.995 95.0867 178.615 95.0867 178.472 95.5152C178.281 95.9914 178.567 96.1819 178.948 96.3723C179.71 96.658 180.472 96.9437 181.281 97.1818C181.852 97.2771 182.043 96.8009 182.281 96.2771Z" fill="#738CA8"/>
<path d="M179.712 92.8512C179.569 92.994 179.236 93.1369 179.141 93.4226C179.093 93.5654 179.379 93.9464 179.569 94.0416C180.569 94.3749 181.569 94.7082 182.617 94.9939C182.76 95.0416 183.045 94.8511 183.188 94.7082C183.283 94.613 183.141 94.3749 183.045 94.1845C183.045 94.0892 182.855 93.994 182.76 93.994C181.855 93.4702 180.903 93.1845 179.712 92.8512Z" fill="#738CA8"/>
<path d="M177.998 96.7554C177.617 97.4221 177.617 97.803 178.236 98.0411C178.712 98.2315 179.141 98.4696 179.522 98.6601C179.95 98.8982 180.236 98.6125 180.379 98.2792C180.569 97.8982 180.331 97.6601 180.046 97.4697C179.855 97.3744 179.617 97.2316 179.379 97.184C178.998 96.9935 178.522 96.8983 177.998 96.7554Z" fill="#738CA8"/>
<path d="M207.664 110.52C207.664 110.996 208.141 111.282 208.521 110.996C209.045 110.663 209.474 110.139 209.95 109.663C209.998 109.615 209.855 109.187 209.76 109.092C209.188 108.901 207.855 109.758 207.712 110.377C207.617 110.472 207.664 110.52 207.664 110.52Z" fill="#738CA8"/>
<path d="M212.188 110.375C211.521 109.899 211.521 109.899 209.664 111.184C209.711 111.708 209.902 112.089 210.473 111.708C211.045 111.327 211.568 110.804 212.188 110.375Z" fill="#738CA8"/>
<path d="M176.331 99.09C176.283 99.7091 176.759 100.28 177.236 100.28C177.426 100.28 177.712 99.9948 177.807 99.8043C177.95 99.3757 177.426 98.7567 176.997 98.8043C176.712 98.8043 176.474 99.0424 176.331 99.09Z" fill="#738CA8"/>
<path d="M190.427 67.1868C189.713 65.8059 188.665 64.7584 187.427 63.9012C187.237 63.806 186.808 63.8536 186.665 63.9965C186.522 64.1393 186.57 64.4726 186.665 64.7583C186.713 64.9012 186.903 65.0917 187.046 65.2345C187.856 65.9488 188.713 66.6154 189.522 67.2344C189.713 67.4249 189.998 67.4249 190.236 67.4725C190.332 67.3773 190.379 67.2344 190.427 67.1868Z" fill="#738CA8"/>
<path d="M216.188 95.7082C216.093 95.613 215.997 95.3273 215.759 95.1844C215.045 94.7558 214.283 94.3749 213.474 93.9464C213.188 93.7559 212.855 93.613 212.617 94.0416C212.331 94.4225 212.521 94.7082 212.902 94.9939C213.664 95.4701 214.426 95.9463 215.236 96.3748C215.712 96.5653 216.14 96.3272 216.188 95.7082Z" fill="#738CA8"/>
<path d="M213.33 96.7545C214.282 97.4212 215.139 97.9926 216.092 98.564C216.282 98.6592 216.615 98.7068 216.758 98.564C216.901 98.4211 216.996 98.1354 216.901 97.945C216.615 97.0879 214.377 96.0879 213.473 96.4212C213.473 96.5165 213.473 96.5165 213.33 96.7545Z" fill="#738CA8"/>
<path d="M218.281 101.422C218.758 100.66 218.424 100.231 217.996 99.898C217.71 99.7076 217.377 99.4695 217.043 99.3266C216.805 99.279 216.52 99.3743 216.281 99.4219C216.329 99.7552 216.281 100.184 216.472 100.279C216.948 100.66 217.615 100.946 218.281 101.422Z" fill="#738CA8"/>
<path d="M191.286 69.1861C191.762 68.9956 192.19 68.7575 191.952 68.1385C191.905 67.9957 191.333 67.9004 191.143 67.9957C190.714 68.1385 190.762 68.5671 191.286 69.1861Z" fill="#738CA8"/>
<path d="M193.048 69.4252C192.763 69.8061 192.477 69.9966 192.382 70.2823C192.334 70.4251 192.572 70.6632 192.667 70.8537C192.953 70.6632 193.286 70.5203 193.524 70.2823C193.572 70.2346 193.286 69.8537 193.048 69.4252Z" fill="#738CA8"/>
<path d="M174.43 90.6141C174.383 90.4713 174.383 90.2808 174.335 90.2332C173.859 89.6618 173.335 89.138 172.811 88.6142C172.716 88.519 172.383 88.5666 172.145 88.6142C172.145 88.8999 172.05 89.1856 172.145 89.3761C172.573 89.8999 172.954 90.376 173.43 90.8522C173.573 90.995 173.811 91.0427 173.954 90.9951C174.192 90.9474 174.288 90.757 174.43 90.6141Z" fill="#738CA8"/>
<path d="M172.048 90.3292C172.048 89.8531 171.143 88.6626 170.714 88.5198C170.286 88.3769 169.857 88.7103 170.095 89.1388C170.429 89.7578 170.857 90.2816 171.333 90.7578C171.619 91.0435 172 90.7578 172.048 90.3292Z" fill="#738CA8"/>
<g opacity="0.5">
<path d="M154.812 82.1406C153.908 81.9025 153.051 81.6168 152.241 81.3788" stroke="#738CA8" stroke-width="2.50716" stroke-linecap="round" stroke-linejoin="round"/>
<path d="M147.094 79.3773C133.238 73.3299 123.762 63.8541 103.572 66.3302C79.0017 69.3777 39.4795 113.471 77.9541 154.993" stroke="#738CA8" stroke-width="2.50716" stroke-linecap="round" stroke-linejoin="round" stroke-dasharray="7.9 7.9"/>
<path d="M79.8609 156.996C80.48 157.615 81.099 158.234 81.7656 158.9" stroke="#738CA8" stroke-width="2.50716" stroke-linecap="round" stroke-linejoin="round"/>
</g>
<path d="M111.55 195.047C111.55 195.047 136.227 218.675 139.006 239.859C143.669 275.134 77.5135 323.127 57.2202 263.64C37.3062 205.295 13.7731 180.617 -5.37672 187.12C-33.5772 196.588 -37.4059 243.588 -0.38289 257.533C36.7354 271.478 32.2667 233.346 12.9348 234.04C-6.39712 234.735 -29.0464 257.859 -19.6611 287.271" stroke="#738CA8" stroke-width="2.50716" stroke-miterlimit="10" stroke-linecap="round" stroke-linejoin="round" stroke-dasharray="8.02 8.02"/>
<g opacity="0.5">
<path d="M29.4284 288.748C29.9998 288.652 30.3807 288.652 30.714 288.509C32.5711 287.7 34.4281 286.986 36.19 286.081C36.9518 285.7 37.428 285.891 38.047 286.414C39.1898 287.367 40.4279 288.224 41.6659 288.986C42.6659 289.605 43.2849 289.271 43.2849 288.033C43.2849 286.795 43.3325 285.51 43.1897 284.224C43.0944 283.176 43.3325 282.462 44.3325 281.938C45.3324 281.415 46.2372 280.796 47.1419 280.081C47.6657 279.653 48.1895 279.129 48.5704 278.558C48.999 277.938 48.7609 277.51 47.999 277.319C46.38 276.939 44.761 276.462 43.1421 276.081C42.1897 275.891 41.7612 275.367 41.3802 274.51C40.666 272.843 39.8089 271.224 38.8565 269.701C37.809 267.891 36.9995 267.939 35.809 269.701C35.6186 269.986 35.4281 270.367 35.2852 270.701C35.0948 271.177 34.9043 271.653 34.6662 272.082C33.571 274.415 32.8568 274.843 30.3331 274.51C28.8093 274.32 27.476 274.51 26.1428 275.272C25.238 275.796 25.1904 276.415 25.9523 276.986C27.0475 277.796 28.2379 278.605 29.3807 279.367C29.6664 279.557 30.0474 279.653 30.3807 279.891C31.6187 280.557 31.6664 280.7 31.1426 282.081C30.6188 283.653 29.9997 285.224 29.5236 286.843C29.4283 287.51 29.476 288.033 29.4284 288.748ZM30.9997 286.891C31.1426 286.367 31.0949 286.129 31.1902 285.938C31.714 284.653 32.2377 283.367 32.8568 282.081C33.571 280.51 33.4758 280.129 31.9521 279.367C30.714 278.7 29.4283 277.986 28.1903 277.224C27.9998 277.129 27.9046 276.843 27.5713 276.415C28.2379 276.32 28.6665 276.177 29.095 276.224C30.0474 276.224 31.0473 276.272 31.9997 276.272C32.952 276.272 33.8567 275.939 34.4281 275.081C34.9995 274.224 35.5233 273.224 35.9995 272.272C36.3328 271.653 36.5233 270.986 37.3328 270.558C37.5709 270.891 37.8089 271.129 37.9518 271.463C38.8089 273.177 39.666 274.891 40.4279 276.605C40.666 277.129 40.9993 277.558 41.6183 277.605C42.9992 277.843 44.3325 278.129 45.7134 278.462C46.0467 278.51 46.38 278.653 46.999 278.891C45.6658 279.748 44.5229 280.51 43.3325 281.129C41.5707 282.129 41.6183 282.367 41.8564 284.7C41.8564 284.891 41.9993 285.033 41.9993 285.224C42.0945 285.986 42.1897 286.748 41.6659 287.652C40.9041 286.986 40.2374 286.414 39.5708 285.843C39.1422 285.51 38.7613 285.033 38.3327 284.7C37.9042 284.272 37.3804 284.224 36.7614 284.462C35.2376 285.129 33.7615 285.748 32.333 286.414C31.9521 286.605 31.6187 286.652 30.9997 286.891Z" fill="#FF0000"/>
</g>
<g opacity="0.5">
<path d="M144.805 54.3295C145.043 53.8057 145.329 53.52 145.377 53.1867C145.948 51.282 146.519 49.3773 146.996 47.3774C147.186 46.5203 147.615 46.2822 148.424 46.1394C149.853 45.8537 151.329 45.4251 152.757 44.949C153.9 44.568 153.995 43.9014 153.043 43.1395C152.043 42.33 151.091 41.5681 150.043 40.8063C149.186 40.2349 148.757 39.6158 148.948 38.473C149.186 37.3778 149.281 36.235 149.329 35.1398C149.329 34.4732 149.281 33.7589 149.091 33.0923C148.853 32.378 148.377 32.2828 147.805 32.759C146.472 33.8066 145.139 34.7589 143.805 35.8065C143.043 36.3779 142.377 36.4731 141.472 36.235C139.758 35.7589 137.948 35.3779 136.187 35.1398C134.091 34.8541 133.663 35.4732 134.234 37.4731C134.33 37.854 134.472 38.1873 134.663 38.473C134.853 38.9492 135.187 39.3778 135.377 39.8539C136.52 42.1395 136.425 42.9967 134.52 44.8061C133.425 45.8061 132.663 47.0441 132.472 48.5679C132.33 49.5678 132.711 50.044 133.71 49.8059C135.091 49.4726 136.377 49.044 137.758 48.6155C138.139 48.5202 138.425 48.3298 138.806 48.1393C140.139 47.5679 140.234 47.6631 140.996 48.9012C141.853 50.3297 142.71 51.7582 143.662 53.1867C143.853 53.5676 144.329 53.8533 144.805 54.3295ZM144.329 51.9487C143.996 51.5201 143.805 51.3296 143.71 51.1392C143.043 49.9011 142.377 48.6631 141.758 47.4727C140.948 45.9013 140.663 45.8061 139.091 46.4251C137.758 46.9965 136.425 47.4727 135.044 47.9964C134.853 48.0917 134.568 47.9964 133.996 47.9964C134.377 47.425 134.52 46.9965 134.806 46.7108C135.377 45.9489 136.044 45.187 136.663 44.4728C137.329 43.7109 137.567 42.8062 137.282 41.8538C136.948 40.8539 136.52 39.8539 136.044 38.9016C135.758 38.235 135.377 37.6635 135.568 36.8064C135.948 36.8064 136.329 36.8064 136.615 36.9017C138.472 37.3302 140.329 37.7588 142.186 38.1873C142.805 38.3302 143.282 38.3302 143.758 37.9492C144.853 37.0445 145.9 36.1874 146.996 35.2827C147.281 35.0922 147.567 34.9018 148.138 34.6161C147.948 36.235 147.853 37.5683 147.615 38.854C147.281 40.9015 147.472 40.9967 149.424 42.2824C149.615 42.3776 149.757 42.4252 149.948 42.5205C150.567 42.949 151.234 43.33 151.614 44.2823C150.662 44.4728 149.757 44.6156 148.9 44.8061C148.329 44.9013 147.805 44.949 147.234 45.0442C146.615 45.0918 146.234 45.4727 146.091 46.0918C145.662 47.6631 145.234 49.2345 144.805 50.8059C144.71 50.9963 144.567 51.3296 144.329 51.9487Z" fill="#FF0000"/>
</g>
<g opacity="0.5">
<path d="M54.3822 329.128C54.5726 328.747 54.7631 328.556 54.8107 328.318C55.2393 326.937 55.7154 325.604 56.0964 324.271C56.2868 323.699 56.5725 323.509 57.144 323.414C58.1915 323.223 59.1915 322.985 60.2391 322.699C61.0485 322.461 61.1438 321.985 60.4771 321.414C59.8105 320.842 59.0963 320.223 58.382 319.699C57.763 319.271 57.4773 318.795 57.6677 318.033C57.8582 317.271 57.9058 316.461 58.0011 315.7C58.0011 315.223 57.9534 314.7 57.8582 314.223C57.7154 313.7 57.382 313.652 56.9535 313.985C56.0011 314.652 54.9536 315.319 54.0488 316.033C53.5251 316.461 53.0013 316.414 52.3822 316.271C51.1442 315.89 49.9062 315.604 48.6205 315.366C47.1444 315.128 46.8111 315.557 47.192 316.985C47.2396 317.223 47.3348 317.509 47.4777 317.747C47.6205 318.08 47.7634 318.414 47.9539 318.699C48.6681 320.366 48.6205 320.985 47.2396 322.176C46.4301 322.89 45.9063 323.699 45.6682 324.794C45.5254 325.509 45.8111 325.794 46.4777 325.699C47.4301 325.509 48.3824 325.223 49.3348 324.937C49.5728 324.89 49.8109 324.747 50.0966 324.652C51.049 324.271 51.1442 324.366 51.668 325.271C52.2394 326.318 52.8108 327.366 53.4298 328.366C53.7155 328.556 54.0488 328.794 54.3822 329.128ZM54.0965 327.413C53.8584 327.08 53.7631 326.985 53.7155 326.842C53.287 325.937 52.8108 325.08 52.4299 324.128C51.9537 322.985 51.668 322.89 50.5728 323.318C49.6205 323.699 48.6205 324.033 47.6682 324.318C47.5253 324.366 47.2872 324.318 46.9063 324.318C47.192 323.937 47.2872 323.652 47.5253 323.414C47.9539 322.89 48.4776 322.366 48.9062 321.842C49.3348 321.318 49.5728 320.699 49.43 319.985C49.1919 319.271 48.9538 318.557 48.6205 317.842C48.43 317.366 48.1919 316.938 48.3348 316.319C48.6205 316.319 48.8586 316.366 49.0967 316.414C50.3823 316.747 51.7156 317.128 53.0489 317.509C53.4298 317.604 53.7631 317.652 54.1441 317.366C54.9536 316.747 55.7154 316.176 56.5249 315.557C56.763 315.414 56.9535 315.319 57.382 315.081C57.1916 316.223 57.0963 317.176 56.8583 318.08C56.5726 319.509 56.7154 319.557 58.0963 320.557C58.1915 320.652 58.382 320.652 58.4772 320.747C58.9058 321.08 59.382 321.366 59.62 322.08C58.9058 322.223 58.2868 322.271 57.7154 322.366C57.2868 322.414 56.9059 322.414 56.5249 322.509C56.0964 322.556 55.8107 322.842 55.6678 323.271C55.3345 324.366 54.9536 325.509 54.6202 326.604C54.3822 326.747 54.3345 326.985 54.0965 327.413Z" fill="#FF0000"/>
</g>
<g opacity="0.5">
<path d="M192.851 54.4714C193.041 54.0904 193.232 53.8999 193.279 53.6619C193.708 52.281 194.184 50.9477 194.565 49.6144C194.756 49.043 195.041 48.8525 195.613 48.7573C196.66 48.5668 197.66 48.3288 198.708 48.0431C199.517 47.805 199.613 47.3288 198.946 46.7574C198.279 46.186 197.565 45.567 196.851 45.0432C196.232 44.6146 195.946 44.1384 196.136 43.3766C196.327 42.6147 196.375 41.8052 196.47 41.0433C196.47 40.5672 196.422 40.0434 196.327 39.5672C196.184 39.0434 195.851 38.9958 195.422 39.3291C194.47 39.9958 193.422 40.6624 192.518 41.3767C191.994 41.8052 191.47 41.7576 190.851 41.6147C189.613 41.2338 188.375 40.9481 187.089 40.71C185.613 40.4719 185.28 40.9005 185.661 42.329C185.708 42.5671 185.804 42.8528 185.946 43.0909C186.089 43.4242 186.232 43.7575 186.423 44.0432C187.137 45.7098 187.089 46.3288 185.708 47.5193C184.899 48.2335 184.375 49.043 184.137 50.1382C183.994 50.8525 184.28 51.1382 184.946 51.0429C185.899 50.8525 186.851 50.5668 187.803 50.2811C188.042 50.2334 188.28 50.0906 188.565 49.9953C189.518 49.6144 189.613 49.7096 190.137 50.6144C190.708 51.6619 191.28 52.7095 191.899 53.7095C192.232 53.8523 192.518 54.138 192.851 54.4714ZM192.613 52.7095C192.375 52.3762 192.28 52.281 192.232 52.1381C191.803 51.2334 191.327 50.3763 190.946 49.4239C190.47 48.2811 190.184 48.1859 189.089 48.6145C188.137 48.9954 187.137 49.3287 186.185 49.6144C186.042 49.662 185.804 49.6144 185.423 49.6144C185.708 49.2335 185.804 48.9478 186.042 48.7097C186.47 48.1859 186.994 47.6621 187.423 47.1383C187.851 46.6145 188.089 45.9955 187.946 45.2813C187.708 44.567 187.47 43.8527 187.137 43.1385C186.946 42.6623 186.708 42.2338 186.851 41.6148C187.137 41.6148 187.375 41.6624 187.613 41.71C188.899 42.0433 190.232 42.4242 191.565 42.8052C191.946 42.9004 192.28 42.948 192.66 42.6623C193.47 42.0433 194.232 41.4719 195.041 40.8529C195.279 40.71 195.47 40.6148 195.898 40.3767C195.708 41.5195 195.613 42.4719 195.375 43.3766C195.089 44.8051 195.232 44.8527 196.613 45.8527C196.708 45.9479 196.898 45.9479 196.994 46.0431C197.422 46.3765 197.898 46.6622 198.136 47.3764C197.422 47.5193 196.803 47.5669 196.232 47.6621C195.803 47.7097 195.422 47.7097 195.041 47.805C194.613 47.8526 194.327 48.1383 194.184 48.5668C193.851 49.662 193.47 50.8048 193.137 51.9C192.851 52.0905 192.803 52.3286 192.613 52.7095Z" fill="#FF0000"/>
</g>
<g opacity="0.5">
<path d="M4.81229 179.75C4.95514 179.226 5.1456 178.941 5.1456 178.655C5.33607 176.846 5.52655 175.036 5.62178 173.227C5.6694 172.417 6.00272 172.179 6.66935 171.893C7.9074 171.417 9.09783 170.798 10.3359 170.132C11.2406 169.608 11.2406 168.941 10.2883 168.465C9.2883 167.941 8.28833 167.322 7.24076 166.941C6.38365 166.56 5.85986 166.036 5.90748 165.037C5.9551 164.037 5.81224 163.037 5.66939 162.037C5.57416 161.465 5.3837 160.799 5.098 160.227C4.76468 159.608 4.33612 159.656 3.90757 160.18C2.90761 161.275 1.81242 162.37 0.860082 163.513C0.288678 164.179 -0.330349 164.322 -1.13984 164.275C-2.75882 164.179 -4.42541 164.132 -6.09201 164.179C-7.99669 164.275 -8.33002 164.894 -7.4253 166.56C-7.28245 166.894 -7.04435 167.132 -6.85389 167.417C-6.56818 167.798 -6.28247 168.179 -5.99677 168.56C-4.61588 170.417 -4.56827 171.227 -5.94916 173.084C-6.75865 174.179 -7.18721 175.369 -7.13959 176.75C-7.09197 177.655 -6.66343 177.988 -5.85394 177.655C-4.71113 177.179 -3.5683 176.512 -2.47311 175.893C-2.18741 175.703 -1.90171 175.512 -1.61601 175.322C-0.520817 174.608 -0.377966 174.655 0.526758 175.655C1.57433 176.798 2.57428 177.893 3.62186 179.036C3.76471 179.179 4.24088 179.369 4.81229 179.75ZM3.95519 177.655C3.57426 177.369 3.4314 177.227 3.28855 177.084C2.47906 176.084 1.71719 175.131 0.955316 174.084C0.00297482 172.846 -0.282732 172.751 -1.61601 173.608C-2.7112 174.322 -3.85401 174.989 -4.9492 175.703C-5.13967 175.798 -5.42537 175.798 -5.90154 175.893C-5.71108 175.322 -5.61584 174.941 -5.42537 174.56C-4.99682 173.75 -4.56828 173.036 -4.13972 172.227C-3.71117 171.417 -3.56831 170.608 -3.99686 169.798C-4.47303 168.941 -4.99683 168.132 -5.56823 167.37C-5.90155 166.846 -6.37771 166.37 -6.33009 165.56C-5.99678 165.513 -5.66346 165.465 -5.37775 165.465C-3.66354 165.56 -1.90171 165.608 -0.187499 165.703C0.336289 165.751 0.812468 165.656 1.14579 165.227C1.95528 164.227 2.76476 163.322 3.57425 162.322C3.81233 162.084 4.00281 161.894 4.47898 161.513C4.57422 162.941 4.66944 164.179 4.71705 165.37C4.71705 167.275 4.95515 167.322 6.90745 168.132C7.0503 168.179 7.24077 168.179 7.38362 168.227C8.05026 168.513 8.66928 168.751 9.19307 169.56C8.38358 169.893 7.62171 170.179 6.85983 170.465C6.38366 170.655 5.90749 170.751 5.43132 170.941C4.85992 171.132 4.66944 171.512 4.57421 172.084C4.43136 173.56 4.33613 174.989 4.19328 176.465C4.14566 176.798 4.05043 177.084 3.95519 177.655Z" fill="#FF0000"/>
</g>
<g opacity="0.5">
<path d="M0.00324762 287.796C0.193716 287.415 0.384188 287.224 0.431805 286.986C0.860359 285.605 1.33653 284.272 1.71747 282.939C1.90794 282.367 2.19364 282.177 2.76504 282.082C3.81262 281.891 4.81258 281.653 5.86015 281.367C6.66964 281.129 6.76486 280.653 6.09822 280.082C5.43158 279.51 4.71733 278.891 4.00308 278.367C3.38405 277.939 3.09835 277.463 3.28882 276.701C3.47929 275.939 3.52692 275.129 3.62215 274.368C3.62215 273.891 3.57453 273.368 3.4793 272.891C3.33645 272.368 3.00312 272.32 2.57456 272.653C1.62222 273.32 0.574659 273.987 -0.330065 274.701C-0.853852 275.129 -1.37764 275.082 -1.99666 274.939C-3.2347 274.558 -4.47275 274.272 -5.75841 274.034C-7.23453 273.796 -7.56786 274.225 -7.18692 275.653C-7.13931 275.891 -7.04408 276.177 -6.90123 276.415C-6.75838 276.748 -6.61552 277.082 -6.42506 277.367C-5.7108 279.034 -5.75841 279.653 -7.1393 280.843C-7.94879 281.558 -8.47258 282.367 -8.71067 283.462C-8.85352 284.177 -8.56782 284.462 -7.90118 284.367C-6.94884 284.177 -5.9965 283.891 -5.04416 283.605C-4.80608 283.558 -4.56799 283.415 -4.28229 283.32C-3.32995 282.939 -3.23471 283.034 -2.71092 283.939C-2.13952 284.986 -1.56811 286.034 -0.949086 287.034C-0.615767 287.177 -0.330072 287.462 0.00324762 287.796ZM-0.234838 286.034C-0.472923 285.7 -0.568151 285.605 -0.615768 285.462C-1.04432 284.558 -1.52049 283.701 -1.90143 282.748C-2.3776 281.605 -2.66331 281.51 -3.7585 281.939C-4.71084 282.32 -5.7108 282.653 -6.66314 282.939C-6.80599 282.986 -7.04407 282.939 -7.42501 282.939C-7.13931 282.558 -7.04407 282.272 -6.80599 282.034C-6.37743 281.51 -5.85365 280.986 -5.4251 280.463C-4.99655 279.939 -4.75846 279.32 -4.90131 278.605C-5.1394 277.891 -5.37747 277.177 -5.71079 276.463C-5.90126 275.987 -6.13935 275.558 -5.9965 274.939C-5.7108 274.939 -5.47271 274.987 -5.23462 275.034C-3.94896 275.368 -2.61568 275.748 -1.28241 276.129C-0.901469 276.225 -0.568156 276.272 -0.187219 275.987C0.62227 275.368 1.38414 274.796 2.19363 274.177C2.43172 274.034 2.62218 273.939 3.05073 273.701C2.86027 274.844 2.76504 275.796 2.52696 276.701C2.24126 278.129 2.3841 278.177 3.76499 279.177C3.86022 279.272 4.0507 279.272 4.14594 279.367C4.57449 279.701 5.05065 279.986 5.28874 280.701C4.57448 280.843 3.95546 280.891 3.38406 280.986C2.95551 281.034 2.57457 281.034 2.19363 281.129C1.76508 281.177 1.47938 281.463 1.33653 281.891C1.00321 282.986 0.622265 284.129 0.288946 285.224C0.00324261 285.415 -0.0443699 285.653 -0.234838 286.034Z" fill="#FF0000"/>
</g>
<g opacity="0.5">
<path d="M245.943 146.418C246.229 146.132 246.467 145.989 246.61 145.751C247.419 144.561 248.229 143.37 248.943 142.18C249.276 141.656 249.61 141.609 250.181 141.609C251.229 141.704 252.324 141.751 253.371 141.751C254.228 141.751 254.419 141.275 253.99 140.561C253.514 139.799 253.038 139.037 252.467 138.371C251.99 137.799 251.848 137.275 252.276 136.561C252.657 135.895 252.943 135.133 253.228 134.371C253.419 133.895 253.514 133.418 253.514 132.942C253.514 132.371 253.228 132.276 252.705 132.419C251.562 132.799 250.419 133.18 249.324 133.609C248.705 133.847 248.229 133.752 247.657 133.371C246.562 132.657 245.467 132.038 244.324 131.466C242.991 130.8 242.562 131.133 242.515 132.609C242.515 132.895 242.562 133.133 242.562 133.418C242.61 133.752 242.705 134.133 242.753 134.466C243.038 136.276 242.753 136.847 241.134 137.609C240.181 138.085 239.419 138.752 238.943 139.704C238.658 140.371 238.8 140.704 239.467 140.799C240.467 140.847 241.419 140.847 242.467 140.847C242.753 140.847 242.991 140.799 243.229 140.752C244.229 140.704 244.276 140.752 244.562 141.799C244.848 142.942 245.134 144.085 245.467 145.275C245.467 145.656 245.657 145.942 245.943 146.418ZM246.133 144.704C245.991 144.37 245.895 144.18 245.848 144.037C245.657 143.085 245.514 142.085 245.324 141.132C245.134 139.894 244.991 139.752 243.753 139.847C242.705 139.942 241.705 139.99 240.705 140.037C240.515 140.037 240.372 139.894 239.991 139.799C240.324 139.466 240.562 139.228 240.8 139.085C241.372 138.704 241.991 138.371 242.562 137.99C243.134 137.609 243.562 137.085 243.515 136.371C243.515 135.609 243.419 134.847 243.324 134.085C243.276 133.561 243.134 133.133 243.419 132.561C243.705 132.657 243.943 132.704 244.086 132.847C245.276 133.561 246.419 134.228 247.61 134.942C247.943 135.18 248.324 135.276 248.705 135.085C249.657 134.704 250.562 134.371 251.514 133.99C251.705 133.895 251.99 133.895 252.419 133.752C251.943 134.799 251.562 135.656 251.086 136.514C250.371 137.799 250.514 137.942 251.609 139.228C251.705 139.323 251.848 139.371 251.895 139.513C252.228 139.942 252.562 140.371 252.657 141.132C251.943 141.085 251.324 140.942 250.705 140.894C250.276 140.847 249.895 140.752 249.514 140.656C249.086 140.609 248.752 140.752 248.467 141.132C247.848 142.132 247.181 143.085 246.514 144.037C246.562 144.085 246.419 144.323 246.133 144.704Z" fill="#FF0000"/>
</g>
<g opacity="0.5">
<path d="M181.614 236.083C181.804 235.702 181.947 235.464 181.995 235.226C182.328 233.845 182.757 232.464 182.995 231.084C183.138 230.465 183.423 230.274 183.995 230.179C184.995 229.941 186.042 229.655 187.042 229.227C187.804 228.941 187.899 228.465 187.233 227.893C186.518 227.369 185.852 226.798 185.09 226.322C184.471 225.893 184.138 225.465 184.28 224.655C184.423 223.846 184.471 223.036 184.471 222.274C184.471 221.798 184.423 221.274 184.233 220.798C184.09 220.275 183.709 220.275 183.28 220.608C182.328 221.37 181.423 222.084 180.471 222.846C179.947 223.274 179.424 223.322 178.804 223.179C177.566 222.893 176.281 222.655 174.995 222.513C173.519 222.37 173.186 222.798 173.662 224.227C173.757 224.512 173.852 224.703 173.995 224.941C174.138 225.274 174.328 225.56 174.567 225.893C175.424 227.512 175.376 228.131 174.09 229.417C173.329 230.179 172.852 231.036 172.71 232.131C172.662 232.845 172.9 233.179 173.614 232.941C174.567 232.655 175.471 232.322 176.424 232.036C176.709 231.941 176.852 231.798 177.138 231.703C178.043 231.274 178.185 231.322 178.709 232.226C179.328 233.226 180.043 234.226 180.709 235.179C180.9 235.56 181.185 235.75 181.614 236.083ZM181.233 234.369C180.947 234.083 180.852 233.988 180.804 233.845C180.328 232.988 179.804 232.084 179.328 231.226C178.709 230.131 178.519 230.036 177.424 230.56C176.519 230.988 175.567 231.369 174.614 231.75C174.471 231.798 174.233 231.75 173.852 231.75C174.09 231.322 174.186 231.036 174.424 230.798C174.805 230.226 175.328 229.703 175.709 229.131C176.138 228.607 176.328 227.941 176.09 227.227C175.852 226.512 175.519 225.798 175.138 225.131C174.9 224.703 174.662 224.274 174.709 223.655C174.995 223.655 175.233 223.608 175.471 223.655C176.805 223.941 178.138 224.227 179.424 224.465C179.804 224.56 180.185 224.56 180.519 224.227C181.281 223.56 181.995 222.941 182.757 222.274C182.947 222.084 183.138 221.989 183.566 221.751C183.471 222.893 183.376 223.846 183.28 224.798C183.042 226.274 183.233 226.274 184.614 227.179C184.709 227.274 184.899 227.274 184.947 227.322C185.423 227.608 185.899 227.893 186.185 228.56C185.471 228.703 184.852 228.846 184.28 228.941C183.9 229.036 183.471 229.084 183.138 229.131C182.709 229.179 182.423 229.465 182.328 229.941C182.042 231.084 181.804 232.179 181.519 233.322C181.423 233.703 181.376 233.941 181.233 234.369Z" fill="#FF0000"/>
</g>
<g opacity="0.5">
<path d="M197.519 157.516C198.091 157.421 198.472 157.421 198.805 157.278C200.662 156.469 202.519 155.755 204.329 154.897C205.091 154.516 205.567 154.707 206.186 155.231C207.329 156.183 208.567 157.04 209.805 157.802C210.805 158.421 211.424 158.088 211.424 156.85C211.424 155.612 211.471 154.326 211.328 153.04C211.233 151.993 211.471 151.279 212.471 150.755C213.471 150.231 214.376 149.612 215.281 148.898C215.804 148.469 216.328 147.945 216.709 147.374C217.138 146.755 216.9 146.326 216.138 146.136C214.519 145.755 212.9 145.279 211.281 144.898C210.376 144.66 209.9 144.184 209.519 143.326C208.805 141.66 207.948 140.041 207.043 138.47C205.995 136.66 205.186 136.708 203.995 138.47C203.805 138.755 203.614 139.136 203.472 139.469C203.281 139.946 203.091 140.422 202.853 140.85C201.757 143.184 201.043 143.612 198.519 143.279C196.996 143.088 195.662 143.279 194.329 144.041C193.424 144.565 193.329 145.136 194.139 145.755C195.234 146.564 196.424 147.374 197.567 148.136C197.853 148.326 198.234 148.421 198.567 148.66C199.805 149.326 199.853 149.469 199.329 150.85C198.757 152.469 198.186 153.993 197.71 155.612C197.567 156.231 197.615 156.85 197.519 157.516ZM199.091 155.659C199.234 155.136 199.186 154.897 199.281 154.707C199.805 153.421 200.329 152.136 200.948 150.85C201.71 149.231 201.614 148.945 200.043 148.136C198.805 147.469 197.519 146.755 196.281 145.993C196.091 145.898 195.996 145.612 195.662 145.184C196.329 145.088 196.758 144.945 197.186 144.993C198.138 144.993 199.138 145.041 200.091 145.041C201.043 145.041 201.948 144.707 202.519 143.85C203.091 142.993 203.614 141.993 204.091 141.041C204.424 140.422 204.614 139.755 205.424 139.327C205.662 139.66 205.9 139.898 206.043 140.231C206.9 141.946 207.757 143.66 208.519 145.374C208.757 145.898 209.09 146.326 209.662 146.422C211.043 146.66 212.376 146.945 213.757 147.279C214.09 147.326 214.376 147.517 215.042 147.707C213.709 148.564 212.566 149.326 211.376 149.945C209.567 150.898 209.662 151.183 209.9 153.517C209.9 153.707 210.043 153.85 210.043 154.04C210.138 154.802 210.233 155.564 209.709 156.469C208.948 155.802 208.281 155.231 207.614 154.659C207.233 154.278 206.805 153.85 206.376 153.517C205.948 153.088 205.424 153.04 204.805 153.278C203.281 153.945 201.805 154.564 200.329 155.183C200.091 155.326 199.71 155.421 199.091 155.659Z" fill="#FF0000"/>
</g>
</g>
</svg>
