<svg width="284" height="363" fill="none" xmlns="http://www.w3.org/2000/svg"><g opacity=".5"><path d="M113.563 273.427c.048 1.19.191 2.38.143 3.571 0 2.285-.095 4.571-.048 6.809.096 3.524.239 7 .429 10.523.095 1.334.476 2.572.667 3.905.333 2.524.666 5.047 1.047 7.619 0 .19.048.428.048.619-.048.905-.429 1.095-1.191.619-.666-.381-1.19-.905-1.761-1.286-.429-.333-.905-.714-1.381-1l-7-4.428c-.905-.619-1.714-1.333-2.571-1.905-2-1.428-4.048-2.809-6.095-4.285-1.81-1.334-3.667-2.715-5.333-4.286-3.667-3.476-7.333-6.952-11.286-10.047-2.523-2.048-4.904-4.143-7.428-6.19-3.19-2.714-6.38-5.333-9.57-8.048-.62-.523-1.096-1.095-1.715-1.619-.762-.666-1.572-1.38-2.333-2.047-.334-.333-.715-.619-.953-.952-.666-.762-.428-1.381.524-1.572.952-.19 1.952-.238 2.952-.381 2.62-.524 5.19-.809 7.81-1.143 2.476-.285 5.094-.333 7.475-1.476 1.334-.666 2.81-.904 4.238-1.285.905-.238 1.143-.762 1.238-1.619.096-2.095.19-4.191.429-6.333.143-1.572.524-3.191.762-4.762.333-1.952.666-3.905 1.095-5.857.143-.905.762-1.238 1.524-.857.285.095.476.381.666.667.81 1.285 1.524 2.571 2.429 3.761 2.333 3 4.81 5.857 7.19 8.809.286.381.667.477 1.095.239.238-.143.429-.239.667-.381 3.047-1.715 6.238-3 9.523-4.095 1.429-.477 2.81-1.191 4.191-1.81.809-.333 1.619-.667 2.428-.905.905-.238 1.143 0 1.095.905-.143 2.048-.333 4.048-.428 6.047-.096 2-.048 4.048-.096 6.095-.095 3.905-.19 7.81-.333 11.762a313.136 313.136 0 00-.095 6.666c0-.095-.048-.047-.048-.047zm.429 29.475c.143-.048.19-.096.333-.143-.238-2.048-.286-4.095-.714-6.143-.857-3.809-.762-7.619-.952-11.428-.096-1.905.142-3.857.19-5.809 0-2.286-.143-4.619-.095-6.952 0-3.619.143-7.286.238-10.905.047-2.142.19-4.285.047-6.428-.142-2.428-.142-4.809.048-7.19.095-1.429.095-2.762.143-4.143-.238-.047-.333-.047-.381 0-2.048.905-4.143 1.857-6.238 2.714-.809.334-1.762.524-2.571.857-3.857 1.762-7.714 3.524-11.571 5.381-1.286.619-2.524 1.381-3.81 2.095.191.381.286.667.43 1 1.19 2.334 2.285 4.667 3.523 6.952 1 1.857 2.047 3.667 3.047 5.524.429.714.905 1.476 1.334 2.19.952 1.81 1.857 3.572 2.857 5.333 1.095 1.953 2.38 3.905 3.428 5.905 1.19 2.333 2.524 4.619 4.047 6.809.572.857.953 1.905 1.381 2.905.286.666.476 1.333.81 1.952.666 1.333 1.381 2.619 2.047 3.952.619 1.191 1.191 2.429 1.762 3.667.095.667.333 1.286.667 1.905zM58.899 260.76c1.143 1.143 2.238 2.238 3.38 3.191 2.096 1.904 4.239 3.857 6.381 5.714 1.62 1.428 3.429 2.762 5.095 4.143 2.334 1.952 4.667 3.904 7.048 5.904 2 1.714 4.047 3.381 6 5.143 1.904 1.714 3.666 3.571 5.57 5.285 1.143 1.048 2.43 1.952 3.715 2.857 1.428 1.048 3 1.953 4.428 3 2.619 1.857 5.143 3.714 7.762 5.571.904.619 1.904 1.143 2.952 1.714l.19-.19c-.142-.333-.333-.619-.476-.952-.476-.762-1-1.476-1.523-2.286-1.524-2.476-3-4.904-4.572-7.333-.381-.667-.904-1.286-1.333-1.905l-3.714-5.428c-1.143-1.714-2.286-3.428-3.476-5.095-2.048-2.809-4.048-5.666-5.619-8.762-1-1.952-2.095-3.809-3.19-5.761-1.096-1.953-2.238-3.857-3.381-5.762-.714-1.19-1.333-2.381-2-3.524-.19-.38-.476-.476-.905-.333-1.38.429-2.761.857-4.19 1.238-2 .572-3.905 1.429-6.095 1.524-1.476.048-3 .333-4.571.571-2.381.381-4.762.857-7.19 1.286-.048-.048-.096 0-.286.19zm52.569 39.999l.191-.191c-.477-.952-1.048-1.904-1.524-2.857-.953-1.904-1.905-3.714-2.667-5.714-.428-1-.809-1.952-1.381-2.904-.952-1.524-1.904-2.953-2.809-4.524-.762-1.238-1.333-2.571-2.095-3.809-1.286-2.334-2.714-4.619-4-6.952-.81-1.477-1.619-2.953-2.524-4.429-.714-1.286-1.619-2.476-2.333-3.762-1.667-3.095-3.19-6.237-4.857-9.333-.19-.38-.428-.809-.762-1.142-.619-.619-.904-1.191-.428-2.048.095-.19.047-.428 0-.571-.238-1.476-.429-2.905-.667-4.381-.333-2.143-.762-4.286-1.143-6.476-.047-.238-.095-.381-.143-.619-.571 1.809-1.047 3.619-1.238 5.428-.238 1.572-.19 3.238-.428 4.81-.286 2.095.143 4.047 1.285 5.761.239.334.477.667.667 1.048 1.905 3.428 3.81 6.952 5.714 10.38 2.19 3.905 4.333 7.762 7.048 11.333 2.19 2.953 4.095 6.095 6.19 9.143 1.904 2.857 3.857 5.761 5.714 8.666.857 1.048 1.523 2.095 2.19 3.143zm-16.856-50.76c-2.905-3.571-5.667-6.904-8.476-10.381-.048 4.619 1.095 8.81 1.81 13.238 2.19-.952 4.285-1.905 6.666-2.857z" fill="#738CA8"/><path d="M96.277 257.283c-.19-.286-.38-.571-.428-.81-.239-.714-.429-1.38-.667-2.095-.095-.381-.095-.762.333-.904.476-.191.667.095.857.476.286.762.572 1.524.81 2.333.095.571-.381.762-.905 1zm-3.427-2.571c.142-.143.285-.476.57-.571.144-.048.524.238.62.428.333 1 .666 2 .952 3.048.048.143-.143.428-.286.571-.095.095-.333-.047-.523-.143-.096 0-.191-.19-.191-.285-.524-.905-.81-1.857-1.143-3.048zm3.904-1.714c.666-.381 1.047-.381 1.285.238.19.476.429.905.62 1.286.237.428-.049.714-.382.857-.38.19-.619-.048-.81-.333-.094-.191-.237-.429-.285-.667-.19-.381-.286-.857-.428-1.381zm13.762 29.668c.476 0 .762.476.476.857-.333.524-.857.953-1.333 1.429-.048.048-.476-.095-.571-.191-.191-.571.666-1.904 1.285-2.047.096-.095.143-.048.143-.048zm-.141 4.523c-.476-.666-.476-.666.809-2.523.524.047.905.238.524.809-.381.572-.904 1.095-1.333 1.714zm-11.287-35.856c.62-.048 1.191.428 1.191.905 0 .19-.286.476-.477.571-.428.143-1.047-.381-1-.81 0-.285.238-.523.286-.666zm-31.903 14.094c-1.381-.714-2.429-1.762-3.286-3-.095-.19-.047-.619.096-.762.142-.143.476-.095.761 0 .143.048.334.238.477.381.714.81 1.38 1.667 2 2.476.19.191.19.476.238.714-.096.096-.239.143-.286.191zm28.521 25.761c-.095-.095-.38-.191-.524-.429-.428-.714-.809-1.476-1.238-2.285-.19-.286-.333-.619.096-.857.38-.286.666-.096.952.285.476.762.952 1.524 1.38 2.334.191.476-.047.904-.666.952zm1.047-2.858a45.333 45.333 0 011.809 2.762c.095.19.143.523 0 .666-.143.143-.428.238-.619.143-.857-.286-1.857-2.524-1.524-3.428.096 0 .096 0 .334-.143zm4.665 4.951c-.762.477-1.191.143-1.524-.285-.19-.286-.428-.619-.571-.953-.048-.238.047-.523.095-.762.333.048.762 0 .857.191.381.476.667 1.143 1.143 1.809zm-32.234-26.997c-.19.476-.428.904-1.047.666-.143-.047-.239-.619-.143-.809.143-.429.571-.381 1.19.143zm.239 1.762c.381-.285.572-.571.857-.666.143-.048.381.19.572.285-.19.286-.334.619-.572.857-.047.048-.428-.238-.857-.476zm21.189-18.616c-.143-.047-.333-.047-.38-.095-.572-.476-1.096-1-1.62-1.524-.095-.095-.047-.428 0-.666.286 0 .572-.095.762 0 .524.428 1 .809 1.476 1.285.143.143.19.381.143.524-.047.238-.238.334-.38.476zm-.287-2.382c-.476 0-1.666-.905-1.81-1.334-.142-.428.191-.857.62-.619.619.334 1.143.762 1.619 1.238.286.286 0 .667-.429.715z" fill="#738CA8"/><g opacity=".5" stroke="#738CA8" stroke-width="2.507" stroke-linecap="round" stroke-linejoin="round"><path d="M82.139 229.814c-.238-.904-.524-1.761-.762-2.571"/><path d="M79.373 222.09c-6.047-13.856-15.523-23.332-13.047-43.522 3.048-24.57 47.141-64.092 88.663-25.618" stroke-dasharray="7.9 7.9"/><path d="M156.986 154.865l1.905 1.905"/></g><path d="M195.045 186.552s23.628 24.677 44.812 27.456c35.275 4.663 83.268-61.493 23.781-81.786-58.345-19.914-83.023-43.447-76.52-62.597 9.468-28.2 56.468-32.029 70.413 4.994 13.945 37.118-24.187 32.65-23.493 13.318.695-19.332 23.82-41.981 53.231-32.596" stroke="#738CA8" stroke-width="2.507" stroke-miterlimit="10" stroke-linecap="round" stroke-linejoin="round" stroke-dasharray="8.02 8.02"/><path d="M288.746 104.43c-.096.572-.096.953-.238 1.286-.81 1.857-1.524 3.714-2.429 5.476-.381.762-.19 1.238.333 1.857a31.221 31.221 0 012.572 3.619c.619 1 .285 1.619-.953 1.619s-2.523.047-3.809-.095c-1.048-.096-1.762.142-2.286 1.142-.523 1-1.142 1.905-1.857 2.81-.428.524-.952 1.047-1.523 1.428-.619.429-1.048.191-1.238-.571-.381-1.619-.858-3.238-1.239-4.857-.19-.952-.714-1.381-1.571-1.762a35.47 35.47 0 01-4.809-2.524c-1.81-1.047-1.762-1.857 0-3.047a6.61 6.61 0 011-.524c.476-.19.952-.381 1.381-.619 2.333-1.095 2.761-1.809 2.428-4.333-.19-1.524 0-2.857.762-4.19.524-.905 1.143-.953 1.714-.191a86.969 86.969 0 012.381 3.429c.191.285.286.666.524 1 .666 1.238.809 1.285 2.19.762 1.572-.524 3.143-1.143 4.762-1.619.667-.096 1.19-.048 1.905-.096zm-1.857 1.572c-.524.143-.762.095-.953.19-1.285.524-2.571 1.048-3.857 1.667-1.571.714-1.952.619-2.714-.905a75.706 75.706 0 00-2.143-3.762c-.095-.19-.381-.285-.809-.619-.095.667-.238 1.095-.191 1.524 0 .952.048 1.952.048 2.905 0 .952-.333 1.857-1.19 2.428-.858.571-1.858 1.095-2.81 1.571-.619.334-1.286.524-1.714 1.334.333.238.571.476.905.619 1.714.857 3.428 1.714 5.142 2.476.524.238.953.571 1 1.19.238 1.381.524 2.714.857 4.095.048.334.191.667.429 1.286.857-1.333 1.619-2.476 2.238-3.667 1-1.761 1.238-1.714 3.571-1.476.191 0 .333.143.524.143.762.095 1.524.191 2.428-.333a278.36 278.36 0 01-1.809-2.095c-.333-.429-.81-.81-1.143-1.238-.428-.429-.476-.953-.238-1.572.667-1.523 1.286-3 1.952-4.428.191-.381.238-.714.477-1.333zM54.328 219.807c-.524.238-.81.524-1.143.572-1.905.571-3.81 1.142-5.81 1.619-.857.19-1.095.619-1.238 1.428-.285 1.429-.714 2.905-1.19 4.333-.38 1.143-1.048 1.238-1.81.286-.809-1-1.57-1.952-2.333-3-.571-.857-1.19-1.286-2.333-1.095-1.095.238-2.238.333-3.333.381-.667 0-1.381-.048-2.048-.238-.714-.238-.81-.715-.333-1.286 1.048-1.333 2-2.666 3.047-4 .572-.762.667-1.428.43-2.333a40.057 40.057 0 01-1.096-5.285c-.286-2.096.333-2.524 2.333-1.953a3.16 3.16 0 011 .429c.476.19.905.524 1.381.714 2.286 1.143 3.143 1.048 4.952-.857 1-1.095 2.238-1.857 3.762-2.048 1-.142 1.476.238 1.238 1.238-.333 1.381-.762 2.667-1.19 4.048-.096.381-.286.667-.477 1.047-.571 1.334-.476 1.429.762 2.191 1.429.857 2.857 1.714 4.286 2.666.38.191.666.667 1.143 1.143zm-2.381-.476c-.429-.333-.62-.524-.81-.619a287.516 287.516 0 00-3.666-1.952c-1.572-.81-1.667-1.095-1.048-2.667.572-1.333 1.048-2.666 1.572-4.047.095-.191 0-.476 0-1.048-.572.381-1 .524-1.286.81-.762.571-1.524 1.238-2.238 1.857-.762.666-1.667.904-2.62.619a22.86 22.86 0 01-2.951-1.238c-.667-.286-1.238-.667-2.096-.477 0 .381 0 .762.096 1.048l1.285 5.571c.143.619.143 1.095-.238 1.572-.904 1.095-1.762 2.142-2.666 3.238-.19.285-.381.571-.667 1.142 1.62-.19 2.952-.285 4.238-.523 2.048-.334 2.143-.143 3.428 1.809.096.191.143.333.239.524.428.619.809 1.286 1.761 1.666.19-.952.334-1.857.524-2.714.095-.571.143-1.095.238-1.666.048-.619.429-1 1.048-1.143l4.714-1.286c.19-.095.524-.238 1.143-.476zm2.523 48.522c-.381.19-.572.381-.81.428-1.381.429-2.714.905-4.047 1.286-.572.191-.762.476-.858 1.048a36.36 36.36 0 01-.714 3.095c-.238.809-.714.904-1.286.238-.571-.667-1.19-1.381-1.714-2.095-.428-.619-.904-.905-1.666-.715-.762.191-1.572.239-2.334.334-.476 0-1-.048-1.476-.143-.523-.143-.571-.476-.238-.905.667-.952 1.334-2 2.048-2.904.428-.524.38-1.048.238-1.667a33.283 33.283 0 01-.905-3.762c-.238-1.476.19-1.809 1.62-1.428.237.047.523.143.76.285.334.143.668.286.953.477 1.667.714 2.286.666 3.476-.715.715-.809 1.524-1.333 2.62-1.571.713-.143 1 .143.904.809-.19.953-.476 1.905-.762 2.857-.048.239-.19.477-.286.762-.38.953-.285 1.048.62 1.572 1.047.571 2.095 1.142 3.095 1.762.142.333.428.619.761.952zm-1.762-.238c-.334-.238-.429-.334-.572-.381-.905-.429-1.762-.905-2.714-1.286-1.143-.476-1.238-.762-.81-1.857.381-.952.715-1.952 1-2.905.048-.142 0-.38 0-.761-.38.285-.666.381-.904.619-.524.428-1.048.952-1.572 1.381-.523.428-1.142.666-1.857.523-.714-.238-1.428-.476-2.143-.809-.476-.191-.904-.429-1.523-.286 0 .286.047.524.095.762.333 1.286.714 2.619 1.095 3.952.096.381.143.714-.143 1.095-.619.81-1.19 1.572-1.81 2.381-.142.238-.237.429-.475.857 1.143-.19 2.095-.285 3-.523 1.428-.286 1.476-.143 2.476 1.238.095.095.095.285.19.381.334.428.62.904 1.334 1.142.142-.714.19-1.333.285-1.904.048-.429.048-.81.143-1.191.048-.428.333-.714.762-.857 1.095-.333 2.238-.714 3.333-1.047.19-.286.429-.334.81-.524zM179.75 79.814c-.524.143-.809.334-1.095.334-1.809.19-3.619.38-5.428.476-.81.047-1.048.38-1.334 1.047-.476 1.238-1.095 2.429-1.761 3.667-.524.905-1.191.905-1.667-.048-.524-1-1.143-2-1.524-3.047-.381-.857-.905-1.381-1.904-1.334-1 .048-2-.095-3-.238a6.64 6.64 0 01-1.81-.571c-.619-.333-.571-.762-.047-1.19 1.095-1 2.19-2.096 3.333-3.048.666-.571.809-1.19.762-2-.096-1.619-.143-3.285-.096-4.952.096-1.905.715-2.238 2.381-1.333.334.142.572.38.857.571l1.143.857c1.857 1.381 2.667 1.429 4.524.048 1.095-.81 2.285-1.238 3.666-1.19.905.047 1.238.475.905 1.285-.476 1.143-1.143 2.286-1.762 3.38l-.571.858c-.714 1.095-.667 1.238.333 2.143 1.143 1.047 2.238 2.047 3.381 3.095.143.143.333.619.714 1.19zm-2.095-.857a5.26 5.26 0 00-.571-.666c-1-.81-1.953-1.572-3-2.334-1.238-.952-1.333-1.238-.476-2.571.714-1.095 1.381-2.238 2.095-3.333.095-.19.095-.476.19-.953-.571.19-.952.286-1.333.477-.81.428-1.524.857-2.333 1.285-.81.429-1.619.572-2.429.143a21.22 21.22 0 01-2.428-1.571c-.524-.334-1-.81-1.81-.762-.047.333-.095.666-.095.952.095 1.714.143 3.476.238 5.19.048.524-.047 1-.476 1.334-1 .81-1.905 1.619-2.905 2.428a9.176 9.176 0 00-.809.905c1.428.095 2.666.19 3.857.238 1.905 0 1.952.238 2.762 2.19.047.143.047.334.095.477.286.666.524 1.285 1.333 1.809.333-.81.619-1.571.905-2.333.19-.476.286-.953.476-1.429.191-.571.571-.762 1.143-.857 1.476-.143 2.905-.238 4.381-.38.333-.048.619-.144 1.19-.239zm110.139-3.954c-.381.19-.572.381-.81.429-1.381.428-2.714.904-4.047 1.285-.572.19-.762.477-.857 1.048a36.358 36.358 0 01-.715 3.095c-.238.81-.714.905-1.285.238-.572-.666-1.191-1.38-1.715-2.095-.428-.619-.904-.905-1.666-.714-.762.19-1.572.238-2.333.333a7.7 7.7 0 01-1.477-.143c-.523-.143-.571-.476-.238-.904.667-.953 1.334-2 2.048-2.905.428-.524.381-1.048.238-1.667a33.251 33.251 0 01-.905-3.761c-.238-1.477.191-1.81 1.619-1.429.238.048.524.143.762.286.333.143.667.285.952.476 1.667.714 2.286.667 3.477-.714.714-.81 1.523-1.334 2.618-1.572.715-.142 1 .143.905.81-.19.952-.476 1.904-.762 2.857-.047.238-.19.476-.285.762-.381.952-.286 1.047.619 1.571 1.047.572 2.095 1.143 3.095 1.762.143.333.428.619.762.952zm-1.762-.238c-.334-.238-.429-.333-.572-.38-.904-.43-1.761-.906-2.714-1.286-1.143-.477-1.238-.762-.809-1.858.381-.952.714-1.952 1-2.904.047-.143 0-.381 0-.762-.381.286-.667.38-.905.619-.524.429-1.048.952-1.571 1.38-.524.43-1.143.668-1.857.525-.715-.238-1.429-.477-2.143-.81-.476-.19-.905-.428-1.524-.285 0 .285.048.523.095.761.334 1.286.714 2.62 1.095 3.953.096.38.143.714-.142 1.095-.619.81-1.191 1.571-1.81 2.38-.143.239-.238.43-.476.858 1.143-.19 2.095-.286 3-.524 1.428-.286 1.476-.143 2.476 1.238.095.095.095.286.19.38.334.43.619.906 1.334 1.144.143-.715.19-1.334.285-1.905.048-.428.048-.81.143-1.19.048-.429.334-.715.762-.858 1.095-.333 2.238-.714 3.333-1.047.191-.286.429-.333.81-.524zm-48.093-51.901c-.191.381-.238.62-.381.858-.857 1.142-1.667 2.333-2.572 3.428-.381.476-.333.81-.095 1.333.476.953.857 1.905 1.191 2.905.238.81-.096 1.143-.905 1a40.396 40.396 0 01-2.571-.667c-.715-.238-1.238-.19-1.762.429s-1.143 1.143-1.715 1.619c-.38.285-.857.571-1.285.714-.476.19-.714-.047-.762-.571 0-1.143-.048-2.334-.048-3.572 0-.666-.238-1.095-.809-1.476-1-.81-2-1.619-2.905-2.523-1.047-1.048-.905-1.572.476-2.096a5.94 5.94 0 01.762-.19 9.771 9.771 0 011.048-.19c1.809-.381 2.19-.762 2.428-2.62.096-1.047.476-2 1.238-2.761.524-.524.953-.476 1.238.19.429.905.715 1.857 1.048 2.762.095.286.143.524.19.762.239 1 .381 1.047 1.381.905 1.191-.143 2.381-.286 3.572-.334.381-.095.714.048 1.238.096zm-1.572.81c-.381 0-.523-.048-.714-.048-1 .143-1.952.334-2.952.477-1.191.238-1.429.095-1.714-1.048-.239-1-.572-2-.858-2.952-.047-.143-.19-.286-.476-.572-.19.477-.333.715-.381 1.048-.19.666-.285 1.333-.476 2-.143.714-.571 1.238-1.19 1.476-.715.238-1.476.428-2.191.571-.476.096-1 .143-1.381.62.191.19.334.428.477.57l3.142 2.572c.334.238.524.524.524 1-.047 1-.095 2-.095 2.952 0 .286.048.524.095.953.81-.81 1.524-1.429 2.143-2.143 1-1.095 1.19-1 2.714-.429.143.048.238.143.381.19.524.144 1.048.382 1.714.191a61.48 61.48 0 01-.904-1.762c-.191-.38-.381-.666-.572-1.047-.19-.381-.19-.762.095-1.143.715-.905 1.381-1.857 2.095-2.762.143-.143.286-.38.524-.714zm-89.949 297.269c-.286.286-.429.524-.667.667-1.19.809-2.381 1.619-3.571 2.333-.524.333-.571.667-.571 1.238.095 1.048.142 2.143.142 3.19 0 .857-.476 1.048-1.19.619-.762-.476-1.524-.952-2.19-1.523-.572-.477-1.096-.619-1.81-.191-.666.381-1.428.667-2.19.952a3.814 3.814 0 01-1.429.286c-.571 0-.666-.286-.523-.809.38-1.143.761-2.286 1.19-3.381.238-.619.143-1.095-.238-1.667a33.423 33.423 0 01-1.905-3.333c-.666-1.333-.333-1.762 1.143-1.809.286 0 .524.047.809.047.334.048.715.143 1.048.191 1.809.285 2.381 0 3.143-1.619.476-.953 1.143-1.715 2.095-2.191.667-.285 1-.143 1.095.524.048 1 .048 1.952.048 3 0 .286-.048.524-.095.762-.048 1 0 1.047 1.047 1.333 1.143.286 2.286.572 3.476.905.381 0 .667.19 1.143.476zm-1.714.19c-.334-.142-.524-.238-.667-.285-.952-.191-1.952-.334-2.905-.524-1.238-.19-1.38-.333-1.285-1.571.095-1.048.143-2.048.19-3.048 0-.19-.143-.333-.238-.714-.333.333-.571.571-.714.809-.381.572-.714 1.191-1.095 1.762-.381.572-.905 1-1.619.953-.762 0-1.524-.096-2.286-.191-.524-.048-.952-.19-1.524.095.096.286.143.524.286.667.714 1.19 1.381 2.333 2.095 3.524.238.333.334.714.143 1.095-.381.952-.714 1.857-1.095 2.809-.095.191-.095.476-.238.905 1.047-.476 1.904-.857 2.762-1.333 1.285-.715 1.428-.572 2.714.523.095.096.143.239.285.286.429.333.858.667 1.619.762-.047-.714-.19-1.333-.238-1.952a8.564 8.564 0 00-.238-1.191c-.047-.428.096-.762.476-1.047 1-.619 1.953-1.286 2.905-1.953.048.048.286-.095.667-.381zm91.377-64.517c-.381.19-.619.333-.857.381-1.381.333-2.761.762-4.142 1-.619.143-.81.428-.905 1-.238 1-.524 2.047-.952 3.047-.286.762-.762.857-1.334.191-.524-.715-1.095-1.381-1.571-2.143-.429-.619-.857-.952-1.667-.81-.809.143-1.619.191-2.381.191-.476 0-.999-.048-1.476-.238-.523-.143-.523-.524-.19-.953.762-.952 1.476-1.857 2.238-2.809.428-.524.476-1.048.333-1.667a33.229 33.229 0 01-.666-3.809c-.143-1.476.285-1.809 1.714-1.333.285.095.476.19.714.333.333.143.619.333.952.572 1.619.857 2.238.809 3.524-.477.762-.762 1.619-1.238 2.714-1.381.714-.047 1.048.191.81.905-.286.953-.619 1.857-.905 2.81-.095.285-.238.428-.333.714-.429.905-.381 1.047.523 1.571 1 .619 2 1.333 2.953 2 .381.191.571.476.904.905zm-1.714-.381c-.285-.286-.381-.381-.524-.429-.857-.476-1.761-1-2.619-1.476-1.095-.619-1.19-.809-.666-1.904.428-.905.809-1.858 1.19-2.81.048-.143 0-.381 0-.762-.428.238-.714.334-.952.572-.571.381-1.095.904-1.667 1.285-.523.429-1.19.619-1.904.381a11.8 11.8 0 01-2.096-.952c-.428-.238-.857-.476-1.476-.429 0 .286-.047.524 0 .762.286 1.334.572 2.667.81 3.952.095.381.095.762-.238 1.096-.667.762-1.286 1.476-1.953 2.238-.19.19-.285.381-.523.809a166.14 166.14 0 003.047-.286c1.476-.238 1.476-.047 2.381 1.334.095.095.095.285.143.333.286.476.571.952 1.238 1.238.143-.714.286-1.333.381-1.905.095-.381.143-.809.19-1.142.048-.429.334-.715.81-.81 1.143-.286 2.238-.524 3.381-.809.381-.096.619-.143 1.047-.286zm-76.853 16.284c-.095.572-.095.953-.238 1.286-.809 1.857-1.523 3.714-2.381 5.524-.38.762-.19 1.238.334 1.857a31.333 31.333 0 012.571 3.619c.619 1 .286 1.619-.952 1.619s-2.524.047-3.81-.096c-1.047-.095-1.761.143-2.285 1.143-.524 1-1.143 1.905-1.857 2.81-.429.523-.953 1.047-1.524 1.428-.619.429-1.048.191-1.238-.571-.381-1.619-.857-3.238-1.238-4.857-.238-.905-.714-1.381-1.571-1.762-1.667-.714-3.286-1.571-4.857-2.476-1.81-1.048-1.762-1.857 0-3.048.285-.19.666-.381 1-.523.476-.191.952-.381 1.38-.619 2.334-1.096 2.762-1.81 2.429-4.334-.191-1.523 0-2.857.762-4.19.524-.905 1.095-1 1.714-.19a88.014 88.014 0 012.381 3.428c.19.286.286.667.524 1 .666 1.238.809 1.286 2.19.762 1.619-.572 3.143-1.143 4.762-1.619.619-.143 1.238-.095 1.904-.191zm-1.857 1.572c-.523.143-.762.095-.952.19-1.286.524-2.571 1.048-3.857 1.667-1.619.762-1.905.666-2.714-.905a75.706 75.706 0 00-2.143-3.762c-.095-.19-.381-.285-.809-.619-.096.667-.239 1.096-.191 1.524 0 .952.048 1.952.048 2.905 0 .952-.334 1.857-1.191 2.428-.857.572-1.857 1.095-2.809 1.572-.619.333-1.286.523-1.714 1.333.333.238.571.476.904.619 1.715.857 3.429 1.714 5.143 2.476.524.238.952.571 1.048 1.143a62.11 62.11 0 00.857 4.095c.047.333.238.619.428 1.285.857-1.333 1.619-2.476 2.238-3.666.953-1.809 1.238-1.714 3.572-1.476.19 0 .333.143.523.143.762.095 1.524.19 2.429-.334-.667-.761-1.238-1.428-1.81-2.095-.381-.381-.809-.809-1.142-1.238-.429-.428-.477-.952-.239-1.571.667-1.524 1.286-3 1.905-4.476.143-.238.238-.619.476-1.238z" fill="red" opacity=".5"/></g></svg>