<svg width="242" height="242" viewBox="0 0 242 242" fill="none" xmlns="http://www.w3.org/2000/svg">
<path d="M76.258 59.9105C76.2896 59.1215 76.3842 58.3326 76.3527 57.5437C76.3527 56.029 76.2896 54.5142 76.3211 53.0311C76.3842 50.6958 76.4789 48.3922 76.6051 46.057C76.6682 45.1734 76.9207 44.3529 77.0469 43.4693C77.2678 41.7968 77.4887 40.1243 77.7412 38.4202C77.7412 38.294 77.7727 38.1362 77.7727 38.01C77.7412 37.4104 77.4887 37.2841 76.9838 37.5997C76.542 37.8522 76.1949 38.1993 75.8162 38.4518C75.5322 38.6727 75.2166 38.9251 74.901 39.1144C73.3548 40.0927 71.8085 41.071 70.2622 42.0492C69.6626 42.4595 69.1261 42.9328 68.5581 43.3115C67.2327 44.2582 65.8758 45.1734 64.5188 46.1516C63.3197 47.0352 62.0889 47.9504 60.9844 48.9918C58.5546 51.2954 56.1247 53.5991 53.5054 55.6503C51.8329 57.0072 50.2551 58.3957 48.5826 59.7527C46.4683 61.5514 44.3539 63.2871 42.2396 65.0858C41.8294 65.4329 41.5138 65.8116 41.1036 66.1587C40.5987 66.6005 40.0622 67.0739 39.5573 67.5157C39.3364 67.7366 39.0839 67.9259 38.9261 68.1468C38.4844 68.6517 38.6421 69.062 39.2733 69.1882C39.9044 69.3144 40.5671 69.346 41.2298 69.4407C42.9654 69.7878 44.6695 69.9771 46.4051 70.198C48.0461 70.3874 49.7817 70.4189 51.3596 71.1763C52.2432 71.6181 53.2214 71.7759 54.1681 72.0283C54.7677 72.1861 54.9255 72.5332 54.9886 73.1013C55.0517 74.4898 55.1149 75.8783 55.2726 77.2983C55.3673 78.3397 55.6198 79.4126 55.7775 80.454C55.9984 81.7479 56.2193 83.0417 56.5034 84.3355C56.598 84.9351 57.0083 85.156 57.5132 84.9036C57.7025 84.8404 57.8288 84.6511 57.955 84.4618C58.4914 83.6097 58.9648 82.7577 59.5644 81.9688C61.1107 79.9807 62.7516 78.0873 64.3295 76.1307C64.5188 75.8783 64.7713 75.8152 65.0553 75.9729C65.2131 76.0676 65.3393 76.1307 65.4971 76.2254C67.5167 77.3614 69.631 78.2135 71.8085 78.9393C72.7552 79.2549 73.6703 79.7282 74.5855 80.1385C75.1219 80.3594 75.6584 80.5803 76.1949 80.738C76.7945 80.8958 76.9522 80.738 76.9207 80.1385C76.826 78.7815 76.6998 77.4561 76.6367 76.1307C76.5736 74.8053 76.6051 73.4484 76.5736 72.0914C76.5104 69.5038 76.4473 66.9161 76.3527 64.2969C76.3211 62.8137 76.2896 61.3305 76.2896 59.8789C76.2896 59.942 76.258 59.9105 76.258 59.9105ZM76.542 40.3767C76.6367 40.4083 76.6682 40.4398 76.7629 40.4714C76.6051 41.8283 76.5736 43.1853 76.2896 44.5422C75.7215 47.0668 75.7846 49.5914 75.6584 52.1159C75.5953 53.3782 75.7531 54.672 75.7846 55.9659C75.7846 57.4806 75.69 59.0269 75.7215 60.5732C75.7215 62.9715 75.8162 65.4014 75.8793 67.7997C75.9109 69.2198 76.0055 70.6398 75.9109 72.0599C75.8162 73.6693 75.8162 75.2471 75.9424 76.825C76.0055 77.7717 76.0055 78.6553 76.0371 79.5704C75.8793 79.602 75.8162 79.602 75.7846 79.5704C74.4277 78.9709 73.0392 78.3397 71.6507 77.7717C71.1142 77.5508 70.4831 77.4246 69.9466 77.2037C67.3905 76.0361 64.8344 74.8685 62.2783 73.6377C61.4262 73.2275 60.6058 72.7226 59.7537 72.2492C59.88 71.9968 59.9431 71.8074 60.0377 71.5865C60.8267 70.0402 61.5525 68.494 62.3729 66.9792C63.0356 65.7485 63.7299 64.5493 64.3926 63.3186C64.6766 62.8453 64.9922 62.3403 65.2762 61.867C65.9073 60.6678 66.5069 59.5002 67.1696 58.3326C67.8954 57.0388 68.7474 55.745 69.4417 54.4196C70.2306 52.8733 71.1142 51.3585 72.124 49.9069C72.5027 49.3389 72.7552 48.6446 73.0392 47.9819C73.2285 47.5402 73.3548 47.0984 73.5757 46.6881C74.0175 45.8045 74.4908 44.9525 74.9326 44.0689C75.3428 43.28 75.7215 42.4595 76.1002 41.639C76.1633 41.1972 76.3211 40.787 76.542 40.3767ZM40.0306 68.3046C40.788 67.5472 41.5138 66.8214 42.2712 66.1903C43.6597 64.928 45.0797 63.6342 46.4998 62.4035C47.5727 61.4568 48.7719 60.5732 49.8764 59.658C51.4227 58.3642 52.969 57.0703 54.5468 55.745C55.8722 54.6089 57.2292 53.5044 58.523 52.3368C59.7853 51.2008 60.9529 49.97 62.2152 48.834C62.9725 48.1397 63.8246 47.5402 64.6766 46.9406C65.6233 46.2463 66.6647 45.6467 67.6114 44.9525C69.347 43.7218 71.0195 42.491 72.7552 41.2603C73.3548 40.8501 74.0175 40.503 74.7117 40.1243C74.7433 40.1558 74.8064 40.2189 74.8379 40.2505C74.7433 40.4714 74.617 40.6607 74.5224 40.8816C74.2068 41.3865 73.8597 41.8599 73.5125 42.3964C72.5027 44.0373 71.5245 45.6467 70.4831 47.2561C70.2306 47.6979 69.8835 48.1082 69.5995 48.5184C68.779 49.7176 67.9585 50.9167 67.138 52.1159C66.3807 53.252 65.6233 54.388 64.8344 55.4925C63.4774 57.3544 62.152 59.2478 61.1107 61.299C60.448 62.5928 59.7222 63.8235 58.9964 65.1174C58.2705 66.4112 57.5132 67.6735 56.7558 68.9357C56.2825 69.7247 55.8722 70.5136 55.4304 71.271C55.3042 71.5234 55.1149 71.5865 54.8308 71.4919C53.9157 71.2078 53.0005 70.9238 52.0538 70.6714C50.7284 70.2927 49.4662 69.7247 48.0145 69.6616C47.0363 69.63 46.0265 69.4407 44.9851 69.2829C43.4072 69.0304 41.8294 68.7149 40.22 68.4308C40.1884 68.4624 40.1569 68.4308 40.0306 68.3046ZM74.8695 41.7968C74.901 41.8283 74.9642 41.8915 74.9957 41.923C74.6801 42.5542 74.3015 43.1853 73.9859 43.8164C73.3548 45.0787 72.7236 46.2779 72.2187 47.6033C71.9347 48.266 71.6822 48.8971 71.3036 49.5282C70.6724 50.5381 70.0413 51.4848 69.4417 52.5261C68.9368 53.3466 68.5581 54.2302 68.0532 55.0507C67.2012 56.597 66.2544 58.1117 65.4024 59.658C64.8659 60.6363 64.3295 61.6145 63.7299 62.5928C63.2565 63.4448 62.657 64.2338 62.1836 65.0858C61.0791 67.137 60.0693 69.2198 58.9648 71.271C58.8386 71.5234 58.6808 71.8074 58.4599 72.0283C58.0496 72.4386 57.8603 72.8173 58.1759 73.3853C58.239 73.5115 58.2074 73.6693 58.1759 73.764C58.0181 74.7422 57.8919 75.6889 57.7341 76.6672C57.5132 78.0873 57.2292 79.5073 56.9767 80.9589C56.9452 81.1167 56.9136 81.2114 56.882 81.3692C56.5034 80.17 56.1878 78.9709 56.0616 77.7717C55.9038 76.7303 55.9353 75.6258 55.7775 74.5844C55.5882 73.1959 55.8722 71.9021 56.6296 70.7661C56.7874 70.5452 56.9452 70.3243 57.0714 70.0718C58.3337 67.7997 59.5959 65.4645 60.8582 63.1924C62.3098 60.6047 63.7299 58.0486 65.5286 55.6818C66.9803 53.7253 68.2425 51.6426 69.631 49.6229C70.8933 47.7295 72.1872 45.8045 73.4179 43.8795C73.9859 43.1853 74.4277 42.491 74.8695 41.7968ZM63.6983 75.4365C61.7734 77.8032 59.9431 80.0122 58.0812 82.3159C58.0496 79.2549 58.807 76.4779 59.2804 73.5431C60.732 74.1742 62.1205 74.8053 63.6983 75.4365Z" fill="#738CA8"/>
<path d="M64.8025 70.6096C64.6763 70.7989 64.5501 70.9882 64.5185 71.146C64.3607 71.6194 64.2345 72.0612 64.0767 72.5345C64.0136 72.787 64.0136 73.0394 64.2976 73.1341C64.6132 73.2603 64.7394 73.071 64.8657 72.8186C65.055 72.3136 65.2443 71.8087 65.4021 71.2723C65.4652 70.8936 65.1497 70.7674 64.8025 70.6096Z" fill="#738CA8"/>
<path d="M62.5336 72.314C62.6283 72.4087 62.7229 72.6296 62.9123 72.6927C63.0069 72.7243 63.2594 72.5349 63.3225 72.4087C63.5434 71.746 63.7643 71.0833 63.9536 70.3891C63.9852 70.2944 63.859 70.1051 63.7643 70.0104C63.7012 69.9473 63.5434 70.0419 63.4172 70.1051C63.3541 70.1051 63.2909 70.2313 63.2909 70.2944C62.9438 70.894 62.7545 71.5251 62.5336 72.314Z" fill="#738CA8"/>
<path d="M65.1156 73.4497C65.5574 73.7022 65.8098 73.7022 65.9676 73.2919C66.0938 72.9763 66.2516 72.6923 66.3779 72.4399C66.5356 72.1559 66.3463 71.9665 66.1254 71.8718C65.8729 71.7456 65.7152 71.9034 65.5889 72.0927C65.5258 72.219 65.4311 72.3768 65.3996 72.5345C65.2734 72.787 65.2102 73.1026 65.1156 73.4497Z" fill="#738CA8"/>
<path d="M74.2411 53.7875C74.5566 53.7875 74.746 53.472 74.5566 53.2195C74.3357 52.8724 73.9886 52.5884 73.673 52.2728C73.6415 52.2412 73.3575 52.3359 73.2943 52.399C73.1681 52.7777 73.7361 53.6613 74.1464 53.756C74.2095 53.8191 74.2411 53.7875 74.2411 53.7875Z" fill="#738CA8"/>
<path d="M74.1445 50.791C73.829 51.2328 73.829 51.2328 74.681 52.4635C75.0281 52.432 75.2806 52.3057 75.0281 51.9271C74.7757 51.5484 74.4285 51.2013 74.1445 50.791Z" fill="#738CA8"/>
<path d="M66.6662 74.5538C67.0764 74.5853 67.4551 74.2697 67.4551 73.9542C67.4551 73.8279 67.2657 73.6386 67.1395 73.5755C66.8555 73.4808 66.4453 73.8279 66.4768 74.112C66.4768 74.3013 66.6346 74.4591 66.6662 74.5538Z" fill="#738CA8"/>
<path d="M45.5234 65.2115C44.6082 65.6849 43.914 66.3791 43.346 67.1996C43.2829 67.3258 43.3144 67.6098 43.4091 67.7045C43.5038 67.7992 43.7247 67.7676 43.914 67.7045C44.0087 67.673 44.1349 67.5467 44.2296 67.4521C44.7029 66.9156 45.1447 66.3476 45.555 65.8111C45.6812 65.6849 45.6812 65.4955 45.7127 65.3377C45.6496 65.2746 45.555 65.2431 45.5234 65.2115Z" fill="#738CA8"/>
<path d="M64.4244 48.1408C64.3613 48.2039 64.1719 48.267 64.0772 48.4248C63.7932 48.8982 63.5408 49.4031 63.2568 49.9395C63.1305 50.1289 63.0359 50.3498 63.3199 50.5076C63.5723 50.6969 63.7617 50.5707 63.951 50.3182C64.2666 49.8133 64.5822 49.3084 64.8662 48.7719C64.9924 48.4564 64.8346 48.1723 64.4244 48.1408Z" fill="#738CA8"/>
<path d="M65.1204 50.033C65.5622 49.4019 65.9408 48.8339 66.3195 48.2027C66.3826 48.0765 66.4142 47.8556 66.3195 47.7609C66.2249 47.6663 66.0355 47.6031 65.9093 47.6663C65.3413 47.8556 64.6786 49.3388 64.8995 49.9384C64.9626 49.9384 64.9626 49.9384 65.1204 50.033Z" fill="#738CA8"/>
<path d="M68.2123 46.7513C67.7074 46.4358 67.4234 46.6567 67.2025 46.9407C67.0762 47.13 66.9185 47.3509 66.8238 47.5718C66.7922 47.7296 66.8553 47.919 66.8869 48.0767C67.1078 48.0452 67.3918 48.0767 67.4549 47.9505C67.7074 47.6349 67.8967 47.1931 68.2123 46.7513Z" fill="#738CA8"/>
<path d="M46.8477 64.6462C46.7215 64.3306 46.5637 64.0466 46.1534 64.2044C46.0588 64.2359 45.9957 64.6146 46.0588 64.7408C46.1534 65.0249 46.4375 64.9933 46.8477 64.6462Z" fill="#738CA8"/>
<path d="M47.0074 63.477C47.2599 63.6663 47.3861 63.8556 47.5754 63.9187C47.6701 63.9503 47.8279 63.7925 47.9541 63.7294C47.8279 63.5401 47.7332 63.3192 47.5754 63.1614C47.5439 63.1298 47.2914 63.3192 47.0074 63.477Z" fill="#738CA8"/>
<path d="M61.048 75.8158C60.9534 75.8473 60.8271 75.8473 60.7956 75.8789C60.4169 76.1944 60.0698 76.5416 59.7226 76.8887C59.6595 76.9518 59.6911 77.1727 59.7226 77.3305C59.912 77.3305 60.1013 77.3936 60.2275 77.3305C60.5747 77.0465 60.8902 76.794 61.2058 76.4785C61.3005 76.3838 61.332 76.226 61.3005 76.1313C61.2689 75.9735 61.1427 75.9104 61.048 75.8158Z" fill="#738CA8"/>
<path d="M60.8581 77.3924C60.5425 77.3924 59.7536 77.992 59.6589 78.276C59.5643 78.56 59.7852 78.844 60.0692 78.6862C60.4794 78.4653 60.8265 78.1813 61.1421 77.8657C61.3315 77.6764 61.1421 77.4239 60.8581 77.3924Z" fill="#738CA8"/>
<g opacity="0.5">
<path d="M55.4297 88.8164C55.2719 89.416 55.0826 89.984 54.9248 90.5205" stroke="#738CA8" stroke-width="2.50716" stroke-linecap="round" stroke-linejoin="round"/>
<path d="M53.6002 93.931C49.5925 103.114 43.3127 109.394 44.9536 122.774C46.9733 139.057 76.195 165.25 103.713 139.752" stroke="#738CA8" stroke-width="2.50716" stroke-linecap="round" stroke-linejoin="round" stroke-dasharray="7.9 7.9"/>
<path d="M105.039 138.489C105.449 138.079 105.859 137.668 106.301 137.227" stroke="#738CA8" stroke-width="2.50716" stroke-linecap="round" stroke-linejoin="round"/>
</g>
<path d="M130.257 117.485C130.257 117.485 145.916 101.13 159.955 99.2887C183.333 96.1982 215.139 140.041 175.715 153.49C137.049 166.687 120.694 182.283 125.004 194.974C131.278 213.664 162.426 216.201 171.668 191.665C180.91 167.066 155.639 170.027 156.099 182.839C156.559 195.651 171.884 210.661 191.376 204.441" stroke="#738CA8" stroke-width="2.50716" stroke-miterlimit="10" stroke-linecap="round" stroke-linejoin="round" stroke-dasharray="8.02 8.02"/>
<g opacity="0.5">
<path d="M192.358 171.907C192.295 171.528 192.295 171.275 192.2 171.054C191.664 169.824 191.19 168.593 190.591 167.425C190.338 166.921 190.465 166.605 190.812 166.195C191.443 165.437 192.011 164.617 192.516 163.796C192.926 163.134 192.705 162.723 191.885 162.723C191.064 162.723 190.212 162.692 189.36 162.787C188.666 162.85 188.192 162.692 187.845 162.029C187.498 161.367 187.088 160.767 186.615 160.167C186.331 159.82 185.983 159.473 185.605 159.221C185.195 158.937 184.911 159.094 184.784 159.599C184.532 160.672 184.216 161.745 183.964 162.818C183.838 163.449 183.49 163.733 182.922 163.986C181.818 164.459 180.745 165.027 179.735 165.658C178.536 166.353 178.568 166.889 179.735 167.678C179.925 167.804 180.177 167.93 180.398 168.025C180.713 168.151 181.029 168.277 181.313 168.435C182.859 169.161 183.143 169.634 182.922 171.307C182.796 172.317 182.922 173.2 183.427 174.084C183.774 174.684 184.185 174.715 184.563 174.21C185.1 173.484 185.636 172.695 186.141 171.938C186.267 171.749 186.331 171.496 186.488 171.275C186.93 170.455 187.025 170.423 187.94 170.77C188.981 171.118 190.023 171.528 191.096 171.843C191.537 171.907 191.885 171.875 192.358 171.907ZM191.127 170.865C190.78 170.77 190.622 170.802 190.496 170.739C189.644 170.392 188.792 170.045 187.94 169.634C186.899 169.161 186.646 169.224 186.141 170.234C185.699 171.054 185.226 171.907 184.721 172.727C184.658 172.853 184.469 172.916 184.185 173.137C184.122 172.695 184.027 172.411 184.058 172.127C184.058 171.496 184.09 170.834 184.09 170.202C184.09 169.571 183.869 168.972 183.301 168.593C182.733 168.214 182.07 167.867 181.439 167.552C181.029 167.331 180.587 167.205 180.303 166.668C180.524 166.51 180.682 166.353 180.903 166.258C182.039 165.69 183.175 165.122 184.311 164.617C184.658 164.459 184.942 164.238 184.974 163.828C185.131 162.913 185.321 162.029 185.542 161.114C185.573 160.893 185.668 160.672 185.826 160.262C186.394 161.146 186.899 161.903 187.309 162.692C187.972 163.86 188.129 163.828 189.676 163.67C189.802 163.67 189.897 163.576 190.023 163.576C190.528 163.512 191.033 163.449 191.632 163.796C191.19 164.301 190.812 164.743 190.433 165.185C190.212 165.469 189.897 165.721 189.676 166.005C189.392 166.289 189.36 166.637 189.518 167.047C189.96 168.057 190.37 169.035 190.812 169.982C190.938 170.234 190.969 170.455 191.127 170.865Z" fill="#FF0000"/>
</g>
<g opacity="0.5">
<path d="M37.0049 95.4424C36.6578 95.2846 36.4684 95.0953 36.2475 95.0637C34.9852 94.685 33.723 94.3063 32.3976 93.9908C31.8296 93.8645 31.6718 93.5805 31.5771 93.0441C31.3878 92.0974 31.1037 91.1191 30.7882 90.1724C30.5357 89.415 30.0939 89.3519 29.589 89.983C29.0525 90.6457 28.5476 91.2769 28.0427 91.9711C27.664 92.5391 27.2538 92.8232 26.4964 92.6969C25.7706 92.5392 25.0133 92.476 24.2874 92.4445C23.8457 92.4445 23.3723 92.476 22.9305 92.6023C22.4571 92.7601 22.394 93.0756 22.7096 93.4543C23.4039 94.3379 24.035 95.2215 24.7292 96.1051C25.1079 96.61 25.171 97.0518 25.0133 97.6514C24.6977 98.7874 24.4452 99.9866 24.2874 101.154C24.0981 102.543 24.5083 102.827 25.8337 102.448C26.0862 102.385 26.3071 102.29 26.4964 102.164C26.812 102.038 27.096 101.817 27.4116 101.691C28.9263 100.933 29.4943 100.996 30.6935 102.259C31.3562 102.984 32.1767 103.489 33.1865 103.616C33.8492 103.71 34.1648 103.458 34.007 102.795C33.7861 101.88 33.5021 101.028 33.2181 100.113C33.1549 99.8604 33.0287 99.671 32.9025 99.4186C32.5238 98.535 32.5869 98.4719 33.4074 97.9669C34.3541 97.3989 35.3008 96.8309 36.2475 96.1998C36.5 96.0735 36.6893 95.758 37.0049 95.4424ZM35.427 95.758C35.143 95.9789 35.0168 96.1051 34.8906 96.1682C34.0701 96.61 33.2496 97.0518 32.4607 97.462C31.4193 97.9985 31.3562 98.1878 31.7664 99.2292C32.1451 100.113 32.4607 100.996 32.8078 101.912C32.8709 102.038 32.8078 102.227 32.8078 102.606C32.4291 102.353 32.1451 102.259 31.9558 102.069C31.4509 101.691 30.946 101.249 30.4726 100.839C29.9677 100.397 29.3681 100.239 28.737 100.428C28.0743 100.649 27.4116 100.933 26.7804 101.249C26.3386 101.438 25.96 101.691 25.3919 101.564C25.3919 101.312 25.3919 101.06 25.4551 100.87C25.7391 99.6395 26.0231 98.4087 26.3071 97.178C26.4018 96.7678 26.4018 96.4522 26.1493 96.1366C25.5497 95.4108 24.9817 94.7166 24.3821 93.9908C24.2559 93.8014 24.1297 93.6121 23.9403 93.2334C25.0133 93.3596 25.8968 93.4227 26.7489 93.5805C28.1058 93.8014 28.1689 93.6752 29.021 92.3814C29.0841 92.2551 29.1157 92.1605 29.1788 92.0342C29.4628 91.624 29.7152 91.1822 30.3464 90.9297C30.4726 91.5609 30.5673 92.1605 30.6935 92.7285C30.7566 93.1072 30.7882 93.4543 30.8513 93.833C30.8828 94.2432 31.1353 94.4957 31.5455 94.5904C32.5869 94.8744 33.6283 95.1584 34.6697 95.4424C34.7959 95.5055 35.0168 95.6002 35.427 95.758Z" fill="#FF0000"/>
</g>
<g opacity="0.5">
<path d="M219.115 155.371C218.862 155.245 218.736 155.118 218.578 155.087C217.663 154.803 216.78 154.487 215.896 154.235C215.517 154.108 215.391 153.919 215.328 153.54C215.202 152.846 215.044 152.184 214.855 151.489C214.697 150.953 214.381 150.89 214.003 151.331C213.624 151.773 213.214 152.247 212.867 152.72C212.583 153.13 212.267 153.32 211.762 153.193C211.257 153.067 210.721 153.036 210.216 152.972C209.9 152.972 209.553 153.004 209.238 153.067C208.89 153.162 208.859 153.383 209.08 153.667C209.522 154.298 209.963 154.992 210.437 155.592C210.721 155.939 210.689 156.286 210.595 156.696C210.342 157.517 210.153 158.337 209.995 159.189C209.837 160.167 210.121 160.388 211.068 160.136C211.226 160.104 211.415 160.041 211.573 159.947C211.794 159.852 212.015 159.757 212.204 159.631C213.308 159.158 213.719 159.189 214.508 160.104C214.981 160.641 215.517 160.988 216.243 161.146C216.717 161.24 216.906 161.051 216.843 160.609C216.717 159.978 216.527 159.347 216.338 158.716C216.306 158.558 216.212 158.4 216.149 158.211C215.896 157.58 215.959 157.517 216.559 157.17C217.253 156.791 217.947 156.412 218.61 156.002C218.736 155.813 218.894 155.592 219.115 155.371ZM217.979 155.56C217.758 155.718 217.695 155.781 217.6 155.813C217.001 156.097 216.433 156.412 215.801 156.665C215.044 156.98 214.981 157.17 215.265 157.895C215.517 158.526 215.738 159.189 215.928 159.82C215.959 159.915 215.928 160.073 215.928 160.325C215.675 160.136 215.486 160.073 215.328 159.915C214.981 159.631 214.634 159.284 214.287 159C213.94 158.716 213.529 158.558 213.056 158.653C212.583 158.81 212.109 158.968 211.636 159.189C211.32 159.315 211.036 159.473 210.626 159.378C210.626 159.189 210.658 159.031 210.689 158.874C210.91 158.022 211.163 157.138 211.415 156.254C211.478 156.002 211.51 155.781 211.32 155.529C210.91 154.992 210.531 154.487 210.121 153.951C210.027 153.793 209.963 153.667 209.806 153.383C210.563 153.509 211.194 153.572 211.794 153.73C212.74 153.919 212.772 153.824 213.435 152.909C213.498 152.846 213.498 152.72 213.561 152.657C213.782 152.373 213.971 152.057 214.444 151.9C214.539 152.373 214.571 152.783 214.634 153.162C214.665 153.446 214.665 153.698 214.728 153.951C214.76 154.235 214.949 154.424 215.233 154.519C215.959 154.74 216.717 154.992 217.442 155.213C217.537 155.371 217.695 155.402 217.979 155.56Z" fill="#FF0000"/>
</g>
<g opacity="0.5">
<path d="M37.0915 63.6012C36.839 63.475 36.7128 63.3488 36.555 63.3172C35.6398 63.0332 34.7563 62.7176 33.8727 62.4652C33.494 62.339 33.3677 62.1496 33.3046 61.7709C33.1784 61.0767 33.0206 60.414 32.8313 59.7197C32.6735 59.1833 32.3579 59.1202 31.9792 59.562C31.6006 60.0037 31.1903 60.4771 30.8432 60.9505C30.5592 61.3607 30.2436 61.55 29.7387 61.4238C29.2338 61.2976 28.6973 61.266 28.1924 61.2029C27.8768 61.2029 27.5297 61.2345 27.2141 61.2976C26.867 61.3922 26.8355 61.6132 27.0564 61.8972C27.4982 62.5283 27.94 63.2226 28.4133 63.8221C28.6973 64.1693 28.6658 64.5164 28.5711 64.9266C28.3186 65.7471 28.1293 66.5676 27.9715 67.4196C27.8137 68.3979 28.0977 68.6188 29.0444 68.3663C29.2022 68.3348 29.3916 68.2717 29.5494 68.177C29.7703 68.0823 29.9912 67.9876 30.1805 67.8614C31.285 67.3881 31.6952 67.4196 32.4842 68.3348C32.9575 68.8712 33.494 69.2184 34.2198 69.3762C34.6931 69.4708 34.8825 69.2815 34.8194 68.8397C34.6931 68.2085 34.5038 67.5774 34.3145 66.9463C34.2829 66.7885 34.1882 66.6307 34.1251 66.4414C33.8727 65.8102 33.9358 65.7471 34.5354 65.4C35.2296 65.0213 35.9239 64.6426 36.5866 64.2324C36.6812 64.0115 36.8706 63.8221 37.0915 63.6012ZM35.9239 63.759C35.703 63.9168 35.6398 63.9799 35.5452 64.0115C34.9456 64.2955 34.3776 64.6111 33.7464 64.8635C32.9891 65.1791 32.926 65.3684 33.21 66.0942C33.4624 66.7254 33.6833 67.3881 33.8727 68.0192C33.9042 68.1139 33.8727 68.2717 33.8727 68.5241C33.6202 68.3348 33.4309 68.2717 33.2731 68.1139C32.9259 67.8299 32.5788 67.4827 32.2317 67.1987C31.8846 66.9147 31.4743 66.7569 31.001 66.8516C30.5276 67.0094 30.0543 67.1672 29.5809 67.3881C29.2653 67.5143 28.9813 67.6721 28.5711 67.5774C28.5711 67.3881 28.6027 67.2303 28.6342 67.0725C28.8551 66.2205 29.1076 65.3369 29.36 64.4533C29.4231 64.2008 29.4547 63.9799 29.2653 63.7275C28.8551 63.191 28.4764 62.6861 28.0662 62.1496C27.9715 61.9918 27.9084 61.8656 27.7506 61.5816C28.508 61.7078 29.1391 61.7709 29.7387 61.9287C30.6854 62.1181 30.717 62.0234 31.3797 61.1082C31.4428 61.0451 31.4428 60.9189 31.5059 60.8558C31.7268 60.5718 31.9161 60.2562 32.3895 60.0984C32.4842 60.5718 32.5157 60.982 32.5788 61.3607C32.6104 61.6447 32.6104 61.8972 32.6735 62.1496C32.7051 62.4336 32.8944 62.623 33.1784 62.7176C33.9042 62.9385 34.6616 63.191 35.3874 63.4119C35.5136 63.6012 35.6714 63.6328 35.9239 63.759Z" fill="#FF0000"/>
</g>
<g opacity="0.5">
<path d="M120.122 188.22C119.775 188.125 119.586 187.999 119.397 187.999C118.197 187.873 116.998 187.747 115.799 187.684C115.263 187.652 115.105 187.431 114.915 186.989C114.6 186.169 114.19 185.38 113.748 184.559C113.401 183.96 112.959 183.96 112.643 184.591C112.296 185.254 111.886 185.916 111.634 186.611C111.381 187.179 111.034 187.526 110.371 187.494C109.709 187.463 109.046 187.557 108.383 187.652C108.005 187.715 107.563 187.841 107.184 188.031C106.774 188.252 106.805 188.536 107.152 188.82C107.878 189.482 108.604 190.208 109.361 190.839C109.803 191.218 109.898 191.628 109.866 192.165C109.803 193.238 109.772 194.342 109.803 195.447C109.866 196.709 110.277 196.93 111.381 196.33C111.602 196.235 111.76 196.078 111.949 195.951C112.202 195.762 112.454 195.573 112.706 195.383C113.937 194.468 114.474 194.437 115.704 195.352C116.43 195.888 117.219 196.172 118.134 196.141C118.734 196.109 118.955 195.825 118.734 195.289C118.418 194.531 117.977 193.774 117.566 193.048C117.44 192.859 117.314 192.67 117.188 192.48C116.714 191.754 116.746 191.66 117.408 191.06C118.166 190.366 118.892 189.703 119.649 189.009C119.744 188.914 119.87 188.599 120.122 188.22ZM118.734 188.788C118.545 189.041 118.45 189.135 118.355 189.23C117.692 189.766 117.061 190.271 116.367 190.776C115.547 191.407 115.484 191.597 116.052 192.48C116.525 193.206 116.967 193.963 117.44 194.689C117.503 194.815 117.503 195.005 117.566 195.32C117.188 195.194 116.935 195.131 116.683 195.005C116.146 194.721 115.673 194.437 115.136 194.153C114.6 193.869 114.063 193.774 113.527 194.058C112.959 194.374 112.422 194.721 111.918 195.099C111.57 195.32 111.255 195.636 110.718 195.604C110.687 195.383 110.655 195.163 110.655 194.973C110.718 193.837 110.75 192.67 110.813 191.534C110.845 191.186 110.782 190.871 110.498 190.65C109.835 190.113 109.235 189.577 108.573 189.041C108.415 188.883 108.289 188.756 108.036 188.441C108.983 188.378 109.803 188.315 110.592 188.283C111.854 188.283 111.886 188.125 112.422 186.832C112.454 186.737 112.454 186.611 112.486 186.516C112.675 186.074 112.833 185.664 113.369 185.317C113.59 185.853 113.779 186.358 113.969 186.863C114.095 187.179 114.158 187.494 114.284 187.81C114.411 188.188 114.663 188.315 115.042 188.378C116.02 188.472 116.967 188.536 117.945 188.63C118.166 188.662 118.355 188.725 118.734 188.788Z" fill="#FF0000"/>
</g>
<g opacity="0.5">
<path d="M191.728 191.406C191.476 191.28 191.349 191.153 191.192 191.122C190.277 190.838 189.393 190.522 188.509 190.27C188.131 190.144 188.004 189.954 187.941 189.576C187.815 188.881 187.657 188.219 187.468 187.524C187.31 186.988 186.995 186.925 186.616 187.367C186.237 187.808 185.827 188.282 185.48 188.755C185.196 189.165 184.88 189.355 184.375 189.228C183.871 189.102 183.334 189.071 182.829 189.008C182.514 189.008 182.166 189.039 181.851 189.102C181.504 189.197 181.472 189.418 181.693 189.702C182.135 190.333 182.577 191.027 183.05 191.627C183.334 191.974 183.302 192.321 183.208 192.731C182.955 193.552 182.766 194.372 182.608 195.224C182.45 196.203 182.734 196.423 183.681 196.171C183.839 196.139 184.028 196.076 184.186 195.982C184.407 195.887 184.628 195.792 184.817 195.666C185.922 195.193 186.332 195.224 187.121 196.139C187.594 196.676 188.131 197.023 188.856 197.181C189.33 197.276 189.519 197.086 189.456 196.644C189.33 196.013 189.141 195.382 188.951 194.751C188.92 194.593 188.825 194.435 188.762 194.246C188.509 193.615 188.572 193.552 189.172 193.205C189.866 192.826 190.561 192.447 191.223 192.037C191.318 191.816 191.507 191.627 191.728 191.406ZM190.561 191.564C190.34 191.721 190.277 191.785 190.182 191.816C189.582 192.1 189.014 192.416 188.383 192.668C187.626 192.984 187.563 193.173 187.847 193.899C188.099 194.53 188.32 195.193 188.509 195.824C188.541 195.919 188.509 196.076 188.509 196.329C188.257 196.139 188.068 196.076 187.91 195.919C187.563 195.635 187.216 195.287 186.868 195.003C186.521 194.719 186.111 194.562 185.638 194.656C185.164 194.814 184.691 194.972 184.218 195.193C183.902 195.319 183.618 195.477 183.208 195.382C183.208 195.193 183.239 195.035 183.271 194.877C183.492 194.025 183.744 193.142 183.997 192.258C184.06 192.006 184.091 191.785 183.902 191.532C183.492 190.996 183.113 190.491 182.703 189.954C182.608 189.797 182.545 189.67 182.387 189.386C183.145 189.513 183.776 189.576 184.375 189.733C185.322 189.923 185.354 189.828 186.016 188.913C186.079 188.85 186.079 188.724 186.143 188.66C186.364 188.376 186.553 188.061 187.026 187.903C187.121 188.376 187.152 188.787 187.216 189.165C187.247 189.449 187.247 189.702 187.31 189.954C187.342 190.238 187.531 190.428 187.815 190.522C188.541 190.743 189.298 190.996 190.024 191.217C190.15 191.406 190.308 191.437 190.561 191.564Z" fill="#FF0000"/>
</g>
<g opacity="0.5">
<path d="M158.685 225.962C158.559 225.71 158.527 225.552 158.433 225.394C157.865 224.637 157.328 223.848 156.729 223.122C156.476 222.806 156.508 222.585 156.666 222.238C156.981 221.607 157.234 220.976 157.454 220.313C157.612 219.777 157.391 219.556 156.855 219.651C156.287 219.777 155.687 219.935 155.151 220.093C154.677 220.25 154.33 220.219 153.983 219.808C153.636 219.398 153.226 219.051 152.847 218.736C152.595 218.546 152.279 218.357 151.995 218.262C151.68 218.136 151.522 218.294 151.49 218.641C151.49 219.398 151.459 220.187 151.459 221.008C151.459 221.449 151.301 221.733 150.922 221.986C150.259 222.522 149.597 223.059 148.997 223.658C148.303 224.353 148.398 224.7 149.313 225.047C149.502 225.11 149.66 225.142 149.818 225.173C150.07 225.236 150.291 225.268 150.512 225.299C151.711 225.552 151.964 225.804 152.121 227.035C152.184 227.729 152.437 228.36 152.942 228.865C153.289 229.212 153.573 229.181 153.762 228.739C154.046 228.14 154.236 227.508 154.457 226.909C154.52 226.719 154.551 226.562 154.583 226.404C154.741 225.741 154.835 225.71 155.498 225.804C156.287 225.899 157.076 225.994 157.865 226.025C158.117 226.088 158.338 225.994 158.685 225.962ZM157.644 225.426C157.391 225.426 157.297 225.457 157.17 225.457C156.508 225.363 155.877 225.236 155.214 225.142C154.425 224.984 154.267 225.078 154.078 225.836C153.92 226.499 153.699 227.161 153.51 227.792C153.478 227.887 153.384 227.982 153.194 228.171C153.068 227.856 152.973 227.698 152.942 227.477C152.816 227.035 152.752 226.593 152.626 226.151C152.532 225.678 152.248 225.331 151.837 225.173C151.364 225.015 150.859 224.889 150.386 224.794C150.07 224.731 149.723 224.7 149.471 224.384C149.597 224.258 149.691 224.1 149.786 224.006C150.48 223.438 151.175 222.87 151.869 222.301C152.09 222.144 152.216 221.954 152.216 221.639C152.184 220.976 152.153 220.313 152.153 219.682C152.153 219.493 152.184 219.335 152.216 219.051C152.752 219.588 153.226 219.998 153.636 220.471C154.299 221.197 154.425 221.134 155.435 220.755C155.529 220.724 155.593 220.661 155.687 220.629C156.034 220.534 156.382 220.377 156.823 220.503C156.602 220.913 156.413 221.292 156.224 221.67C156.098 221.923 155.971 222.112 155.845 222.365C155.719 222.617 155.719 222.87 155.908 223.122C156.382 223.722 156.823 224.353 157.297 224.952C157.391 225.047 157.486 225.205 157.644 225.426Z" fill="#FF0000"/>
</g>
<g opacity="0.5">
<path d="M98.0293 28.4145C97.84 28.2252 97.7453 28.0674 97.5875 27.9727C96.7986 27.4363 96.0097 26.8998 95.2208 26.4264C94.8737 26.2055 94.8421 25.9846 94.8421 25.606C94.9052 24.9117 94.9368 24.1859 94.9368 23.4916C94.9368 22.9236 94.6212 22.7974 94.1478 23.0814C93.6429 23.397 93.138 23.7125 92.6962 24.0912C92.3175 24.4068 91.9704 24.5015 91.4971 24.2175C91.0553 23.965 90.5504 23.7757 90.0454 23.5863C89.7299 23.4601 89.4143 23.397 89.0987 23.397C88.72 23.397 88.6569 23.5863 88.7516 23.9334C89.0041 24.6908 89.2565 25.4482 89.5405 26.174C89.6983 26.5842 89.6352 26.8998 89.3827 27.2785C88.9094 28.0043 88.4992 28.7301 88.1205 29.4875C87.6787 30.3711 87.8996 30.6551 88.8778 30.6866C89.0672 30.6866 89.225 30.6551 89.4143 30.6551C89.6352 30.6235 89.8877 30.5604 90.1086 30.5288C91.3077 30.3395 91.6864 30.5288 92.1913 31.6018C92.5069 32.2329 92.9487 32.7378 93.5798 33.0534C94.0216 33.2427 94.2425 33.1481 94.3056 32.7063C94.3372 32.0436 94.3372 31.4124 94.3372 30.7182C94.3372 30.5288 94.3056 30.3711 94.2741 30.2133C94.2425 29.5506 94.2741 29.519 94.9683 29.3297C95.7257 29.1403 96.4831 28.951 97.272 28.7301C97.5244 28.7301 97.7138 28.6039 98.0293 28.4145ZM96.8933 28.2883C96.6724 28.383 96.5462 28.4461 96.4515 28.4776C95.8204 28.6039 95.1577 28.6985 94.5265 28.8248C93.706 28.951 93.6114 29.0457 93.6745 29.8661C93.7376 30.5604 93.7692 31.2231 93.8007 31.8858C93.8007 32.012 93.706 32.1067 93.6429 32.3591C93.422 32.1382 93.2642 31.9805 93.1696 31.8227C92.9171 31.444 92.6962 31.0338 92.4438 30.6551C92.1913 30.2764 91.8442 29.9924 91.3708 30.0239C90.8659 30.0239 90.361 30.087 89.8561 30.1502C89.509 30.1817 89.225 30.2764 88.8463 30.087C88.9094 29.8977 88.9409 29.7399 89.0356 29.6452C89.509 28.8563 89.9508 28.099 90.4241 27.31C90.5819 27.0891 90.645 26.8367 90.5188 26.5842C90.2663 25.9531 90.0454 25.3535 89.793 24.7224C89.7299 24.5961 89.7299 24.4068 89.6352 24.1228C90.3295 24.4384 90.8975 24.6908 91.4655 25.0064C92.3175 25.4797 92.4122 25.3851 93.2642 24.6593C93.3274 24.5961 93.3589 24.5015 93.4536 24.4699C93.7376 24.249 94.0216 24.0281 94.5265 23.965C94.495 24.4384 94.4003 24.8486 94.3687 25.2588C94.3372 25.5428 94.2741 25.7953 94.211 26.0478C94.1794 26.3318 94.2741 26.5527 94.5265 26.742C95.1892 27.1523 95.8204 27.594 96.4515 28.0358C96.4831 28.0043 96.6408 28.099 96.8933 28.2883Z" fill="#FF0000"/>
</g>
<g opacity="0.5">
<path d="M157.455 71.0506C157.202 70.9244 157.045 70.8297 156.887 70.7981C155.972 70.5772 155.057 70.2932 154.141 70.1354C153.731 70.0408 153.605 69.8514 153.542 69.4727C153.384 68.81 153.195 68.1158 152.911 67.4531C152.721 66.9482 152.406 66.8851 152.027 67.3269C151.68 67.8002 151.301 68.242 150.986 68.7469C150.702 69.1572 150.418 69.3781 149.881 69.2834C149.345 69.1887 148.808 69.1572 148.303 69.1572C147.988 69.1572 147.641 69.1887 147.325 69.315C146.978 69.4096 146.978 69.6621 147.199 69.9461C147.704 70.5772 148.177 71.1768 148.682 71.8079C148.966 72.1551 148.998 72.5022 148.903 72.9124C148.714 73.7329 148.556 74.585 148.461 75.437C148.366 76.4153 148.65 76.6362 149.597 76.3206C149.787 76.2575 149.913 76.1944 150.071 76.0997C150.291 76.005 150.481 75.8788 150.702 75.721C151.775 75.153 152.185 75.1845 153.037 76.0366C153.542 76.5415 154.11 76.8571 154.836 76.9517C155.309 76.9833 155.53 76.8255 155.372 76.3521C155.183 75.721 154.962 75.1214 154.773 74.4903C154.709 74.3009 154.615 74.2063 154.552 74.0169C154.268 73.4174 154.299 73.3227 154.899 72.9756C155.561 72.5653 156.224 72.092 156.855 71.6502C157.108 71.5239 157.234 71.3346 157.455 71.0506ZM156.319 71.303C156.129 71.4924 156.066 71.5555 155.972 71.5871C155.404 71.9026 154.804 72.2497 154.236 72.5653C153.51 72.9756 153.447 73.1018 153.794 73.8276C154.078 74.4272 154.331 75.0583 154.583 75.6895C154.615 75.7841 154.583 75.9419 154.583 76.1944C154.299 76.0366 154.11 75.9735 153.952 75.8157C153.573 75.5632 153.226 75.2161 152.848 74.9636C152.5 74.6796 152.059 74.5534 151.585 74.7112C151.112 74.869 150.639 75.0899 150.197 75.3423C149.913 75.5001 149.629 75.6579 149.219 75.6263C149.219 75.437 149.187 75.2792 149.219 75.1214C149.408 74.2378 149.597 73.3542 149.755 72.5022C149.818 72.2497 149.818 71.9973 149.597 71.7764C149.155 71.2715 148.745 70.7981 148.303 70.2932C148.177 70.167 148.114 70.0408 147.956 69.7568C148.714 69.8199 149.345 69.883 149.976 69.9461C150.954 70.1039 150.954 69.9776 151.554 69.0625C151.617 68.9994 151.617 68.8732 151.648 68.8416C151.838 68.526 152.027 68.2105 152.469 68.0211C152.564 68.4945 152.658 68.9047 152.721 69.2834C152.784 69.5358 152.816 69.8199 152.848 70.0408C152.879 70.3248 153.068 70.5141 153.384 70.5772C154.141 70.7666 154.867 70.9244 155.625 71.1137C155.877 71.1768 156.035 71.2084 156.319 71.303Z" fill="#FF0000"/>
</g>
<g opacity="0.5">
<path d="M105.385 60.5104C105.322 60.1317 105.322 59.8792 105.227 59.6583C104.691 58.4276 104.217 57.1969 103.649 55.9977C103.397 55.4928 103.523 55.1772 103.87 54.767C104.501 54.0096 105.069 53.1891 105.574 52.3687C105.985 51.706 105.764 51.2957 104.943 51.2957C104.123 51.2957 103.271 51.2642 102.419 51.3588C101.724 51.422 101.251 51.2642 100.904 50.6015C100.557 49.9388 100.147 49.3392 99.6732 48.7396C99.3892 48.3925 99.0421 48.0454 98.6634 47.7929C98.2531 47.5089 97.9691 47.6667 97.8429 48.1716C97.5904 49.2445 97.2749 50.3175 97.0224 51.3904C96.8646 51.99 96.5491 52.3056 95.981 52.558C94.8765 53.0314 93.8036 53.5994 92.7622 54.199C91.5631 54.8932 91.5946 55.4297 92.7622 56.2186C92.9516 56.3448 93.204 56.4711 93.4249 56.5657C93.7405 56.692 94.0561 56.8182 94.3401 56.976C95.8864 57.7018 96.1704 58.1751 95.9495 59.8477C95.8232 60.8575 95.9495 61.7411 96.4544 62.6247C96.8015 63.2242 97.1802 63.2874 97.5904 62.7509C98.1269 62.0251 98.6634 61.2362 99.1683 60.4788C99.2945 60.2895 99.3576 60.037 99.5154 59.8161C99.9572 58.9956 100.052 58.9641 100.967 59.3112C102.04 59.6899 103.05 60.0686 104.123 60.3841C104.533 60.4788 104.943 60.4472 105.385 60.5104ZM104.154 59.469C103.807 59.3743 103.649 59.4059 103.523 59.3427C102.671 58.9956 101.819 58.6485 100.967 58.2383C99.8941 57.7333 99.7047 57.7965 99.1683 58.8378C98.7265 59.6583 98.2531 60.5104 97.7482 61.3308C97.6851 61.4571 97.4958 61.5202 97.2117 61.7411C97.1486 61.2993 97.054 61.0153 97.0855 60.7313C97.0855 60.1001 97.1171 59.4374 97.1171 58.8063C97.1171 58.1751 96.8962 57.5756 96.3282 57.1969C95.7601 56.8182 95.0974 56.4711 94.4663 56.1555C94.0561 55.9346 93.6143 55.8084 93.3302 55.2719C93.5511 55.1141 93.7089 54.9563 93.9298 54.8617C95.0659 54.2936 96.2019 53.7256 97.338 53.2207C97.6851 53.0629 97.9691 52.842 98.0322 52.4633C98.19 51.5482 98.3794 50.6646 98.6003 49.7494C98.6318 49.5285 98.758 49.3392 98.8843 48.8974C99.4523 49.781 99.9572 50.5384 100.367 51.3273C100.999 52.5264 101.188 52.4633 102.734 52.3056C102.86 52.3056 102.955 52.2109 103.081 52.2109C103.586 52.1478 104.091 52.0847 104.691 52.4318C104.249 52.9367 103.87 53.3785 103.492 53.8203C103.239 54.0727 102.955 54.3568 102.734 54.6408C102.45 54.9248 102.419 55.2719 102.576 55.6821C103.018 56.692 103.428 57.6702 103.839 58.6485C103.933 58.8063 103.996 59.0587 104.154 59.469Z" fill="#FF0000"/>
</g>
</svg>
