<svg width="242" height="242" fill="none" xmlns="http://www.w3.org/2000/svg"><path d="M76.258 59.91c.032-.788.126-1.577.095-2.366 0-1.515-.063-3.03-.032-4.513.063-2.335.158-4.639.284-6.974.063-.884.316-1.704.442-2.588.22-1.672.442-3.345.694-5.049 0-.126.032-.284.032-.41-.032-.6-.284-.726-.79-.41-.441.252-.788.6-1.167.852-.284.22-.6.473-.915.662l-4.639 2.935c-.6.41-1.136.884-1.704 1.263-1.325.946-2.682 1.861-4.04 2.84-1.198.883-2.43 1.798-3.534 2.84-2.43 2.303-4.86 4.607-7.479 6.658-1.672 1.357-3.25 2.746-4.922 4.103-2.115 1.798-4.23 3.534-6.343 5.333-.41.347-.726.726-1.136 1.073-.505.441-1.042.915-1.547 1.357-.22.22-.473.41-.63.63-.443.506-.285.916.346 1.042s1.294.158 1.957.253c1.735.347 3.44.536 5.175.757 1.641.19 3.377.22 4.955.978.883.442 1.861.6 2.808.852.6.158.758.505.82 1.073.064 1.389.127 2.777.285 4.197.094 1.042.347 2.115.505 3.156.22 1.294.441 2.588.725 3.882.095.6.505.82 1.01.568.19-.064.316-.253.442-.442.536-.852 1.01-1.704 1.61-2.493 1.546-1.988 3.187-3.882 4.764-5.838.19-.253.442-.316.726-.158.158.095.284.158.442.252 2.02 1.136 4.134 1.989 6.311 2.714.947.316 1.862.79 2.777 1.2.537.22 1.073.441 1.61.599.6.158.757 0 .726-.6-.095-1.357-.221-2.682-.284-4.007-.063-1.326-.032-2.683-.063-4.04-.064-2.587-.127-5.175-.221-7.794a208.94 208.94 0 01-.063-4.418c0 .063-.032.032-.032.032zm.284-19.533c.095.031.126.063.22.094-.157 1.357-.188 2.714-.472 4.071-.569 2.525-.505 5.05-.632 7.574-.063 1.262.095 2.556.127 3.85 0 1.515-.095 3.06-.063 4.607 0 2.398.094 4.828.157 7.227.032 1.42.126 2.84.032 4.26a34.274 34.274 0 00.031 4.765c.064.947.064 1.83.095 2.745-.158.032-.22.032-.252 0-1.357-.6-2.746-1.23-4.134-1.798-.537-.221-1.168-.347-1.704-.568-2.556-1.168-5.113-2.335-7.669-3.566-.852-.41-1.672-.915-2.524-1.389.126-.252.19-.442.284-.662.789-1.547 1.515-3.093 2.335-4.608.663-1.23 1.357-2.43 2.02-3.66.284-.474.6-.979.883-1.452.631-1.2 1.23-2.367 1.894-3.534.725-1.294 1.577-2.588 2.272-3.913a38.598 38.598 0 012.682-4.513c.379-.568.631-1.262.915-1.925.19-.442.316-.884.537-1.294.442-.884.915-1.736 1.357-2.62.41-.788.788-1.608 1.167-2.429.063-.442.221-.852.442-1.262zM40.031 68.305c.757-.758 1.483-1.484 2.24-2.115 1.389-1.262 2.809-2.556 4.229-3.786 1.073-.947 2.272-1.83 3.376-2.746a2753.3 2753.3 0 004.67-3.913c1.326-1.136 2.683-2.24 3.977-3.408 1.262-1.136 2.43-2.367 3.692-3.503.757-.694 1.61-1.294 2.462-1.893.946-.695 1.988-1.294 2.934-1.989 1.736-1.23 3.408-2.461 5.144-3.692.6-.41 1.263-.757 1.957-1.136l.126.127c-.095.22-.221.41-.316.63-.315.505-.662.979-1.01 1.515-1.01 1.641-1.987 3.25-3.029 4.86-.252.442-.6.852-.883 1.262l-2.462 3.598a126.836 126.836 0 01-2.304 3.377c-1.357 1.861-2.682 3.755-3.723 5.806-.663 1.294-1.389 2.525-2.115 3.818a151.377 151.377 0 01-2.24 3.819c-.474.789-.884 1.578-1.326 2.335-.126.252-.315.316-.6.22a71.025 71.025 0 00-2.776-.82c-1.326-.378-2.588-.946-4.04-1.01-.978-.031-1.988-.22-3.029-.378-1.578-.253-3.156-.568-4.765-.852-.032.031-.063 0-.19-.126zM74.87 41.797l.126.126c-.316.631-.694 1.262-1.01 1.893-.631 1.263-1.262 2.462-1.767 3.787-.284.663-.537 1.294-.915 1.925-.632 1.01-1.263 1.957-1.862 2.998-.505.82-.884 1.704-1.389 2.525-.852 1.546-1.799 3.06-2.65 4.607-.537.978-1.074 1.956-1.673 2.935-.473.852-1.073 1.64-1.546 2.493-1.105 2.051-2.115 4.134-3.22 6.185-.125.252-.283.536-.504.757-.41.41-.6.79-.284 1.357.063.126.031.284 0 .379-.158.978-.284 1.925-.442 2.903-.22 1.42-.505 2.84-.757 4.292-.032.158-.063.252-.095.41-.379-1.199-.694-2.398-.82-3.597-.158-1.042-.127-2.146-.284-3.188-.19-1.388.094-2.682.852-3.818a5.21 5.21 0 00.441-.694c1.263-2.272 2.525-4.608 3.787-6.88 1.452-2.587 2.872-5.143 4.67-7.51 1.452-1.957 2.715-4.04 4.103-6.06 1.262-1.892 2.556-3.818 3.787-5.742.568-.695 1.01-1.389 1.451-2.083zm-11.172 33.64c-1.925 2.366-3.755 4.575-5.617 6.879-.031-3.061.726-5.838 1.2-8.773 1.451.631 2.84 1.262 4.417 1.893z" fill="#738CA8"/><path d="M64.802 70.61c-.126.189-.252.378-.284.536-.157.473-.284.915-.441 1.388-.063.253-.063.505.22.6.316.126.442-.063.569-.315.189-.505.378-1.01.536-1.547.063-.378-.252-.505-.6-.662zm-2.268 1.704c.094.095.189.316.378.379.095.031.347-.158.41-.284.221-.663.442-1.326.632-2.02.031-.095-.095-.284-.19-.379-.063-.063-.22.032-.347.095-.063 0-.126.126-.126.19-.347.599-.536 1.23-.757 2.019zm2.582 1.136c.441.252.694.252.852-.158.126-.316.284-.6.41-.852.158-.284-.032-.474-.253-.568-.252-.126-.41.031-.536.22-.063.127-.158.285-.19.442-.126.253-.189.569-.283.916zm9.125-19.662c.316 0 .505-.316.316-.569-.221-.347-.568-.63-.884-.946-.032-.032-.316.063-.379.126-.126.379.442 1.262.852 1.357.064.063.095.032.095.032zm-.097-2.997c-.315.442-.315.442.537 1.673.347-.032.6-.158.347-.537-.252-.379-.6-.726-.884-1.136zm-7.478 23.763c.41.031.79-.284.79-.6 0-.126-.19-.315-.317-.378-.283-.095-.694.252-.662.536 0 .19.158.347.19.442zm-21.143-9.342c-.915.473-1.609 1.167-2.177 1.988-.063.126-.032.41.063.504.095.095.316.064.505 0 .095-.031.22-.157.316-.252a30.24 30.24 0 001.325-1.64c.126-.127.126-.316.158-.474-.063-.063-.158-.095-.19-.126zM64.424 48.14c-.063.064-.252.127-.347.285-.284.473-.536.978-.82 1.515-.127.189-.221.41.063.568.252.189.442.063.631-.19.316-.505.631-1.01.915-1.546.126-.316-.031-.6-.442-.631zm.696 1.893c.442-.631.82-1.2 1.2-1.83.063-.127.094-.347 0-.442-.095-.095-.284-.158-.41-.095-.569.19-1.231 1.673-1.01 2.272.063 0 .063 0 .22.095zm3.092-3.282c-.505-.315-.789-.094-1.01.19-.126.189-.284.41-.378.63-.032.159.031.348.063.506.22-.032.505 0 .568-.127.252-.315.442-.757.757-1.199zM46.848 64.646c-.127-.315-.284-.6-.695-.442-.094.032-.157.41-.094.537.094.284.379.252.789-.095zm.159-1.169c.253.19.38.379.568.442.095.031.253-.127.38-.19-.127-.189-.222-.41-.38-.568-.031-.031-.284.158-.568.316zm14.041 12.339c-.095.031-.22.031-.252.063-.38.315-.726.663-1.073 1.01-.063.063-.032.284 0 .442.189 0 .378.063.505 0 .347-.285.662-.537.978-.853.094-.094.126-.252.094-.347-.031-.157-.157-.22-.252-.315zm-.19 1.576c-.316 0-1.104.6-1.2.884-.094.284.127.568.411.41a4.59 4.59 0 001.073-.82c.19-.19 0-.442-.284-.474z" fill="#738CA8"/><g opacity=".5" stroke="#738CA8" stroke-width="2.507" stroke-linecap="round" stroke-linejoin="round"><path d="M55.43 88.816c-.158.6-.347 1.168-.505 1.704"/><path d="M53.6 93.931c-4.008 9.183-10.287 15.463-8.646 28.843 2.02 16.283 31.241 42.476 58.759 16.978" stroke-dasharray="7.9 7.9"/><path d="M105.039 138.489l1.262-1.262"/></g><path d="M130.257 117.485s15.659-16.355 29.698-18.196c23.378-3.09 55.184 40.752 15.76 54.201-38.666 13.197-55.021 28.793-50.711 41.484 6.274 18.69 37.422 21.227 46.664-3.309 9.242-24.599-16.029-21.638-15.569-8.826.46 12.812 15.785 27.822 35.277 21.602" stroke="#738CA8" stroke-width="2.507" stroke-miterlimit="10" stroke-linecap="round" stroke-linejoin="round" stroke-dasharray="8.02 8.02"/><path d="M192.358 171.907c-.063-.379-.063-.632-.158-.853-.536-1.23-1.01-2.461-1.609-3.629-.253-.504-.126-.82.221-1.23a20.76 20.76 0 001.704-2.399c.41-.662.189-1.073-.631-1.073-.821 0-1.673-.031-2.525.064-.694.063-1.168-.095-1.515-.758a11.942 11.942 0 00-1.23-1.862 4.803 4.803 0 00-1.01-.946c-.41-.284-.694-.127-.821.378-.252 1.073-.568 2.146-.82 3.219-.126.631-.474.915-1.042 1.168a23.552 23.552 0 00-3.187 1.672c-1.199.695-1.167 1.231 0 2.02.19.126.442.252.663.347.315.126.631.252.915.41 1.546.726 1.83 1.199 1.609 2.872-.126 1.01 0 1.893.505 2.777.347.6.758.631 1.136.126a58.022 58.022 0 001.578-2.272c.126-.189.19-.442.347-.663.442-.82.537-.852 1.452-.505 1.041.348 2.083.758 3.156 1.073.441.064.789.032 1.262.064zm-1.231-1.042c-.347-.095-.505-.063-.631-.126-.852-.347-1.704-.694-2.556-1.105-1.041-.473-1.294-.41-1.799.6a50.13 50.13 0 01-1.42 2.493c-.063.126-.252.189-.536.41-.063-.442-.158-.726-.127-1.01 0-.631.032-1.293.032-1.925 0-.631-.221-1.23-.789-1.609-.568-.379-1.231-.726-1.862-1.041-.41-.221-.852-.347-1.136-.884.221-.158.379-.315.6-.41 1.136-.568 2.272-1.136 3.408-1.641.347-.158.631-.379.663-.789.157-.915.347-1.799.568-2.714.031-.221.126-.442.284-.852.568.884 1.073 1.641 1.483 2.43.663 1.168.82 1.136 2.367.978.126 0 .221-.094.347-.094.505-.064 1.01-.127 1.609.22-.442.505-.82.947-1.199 1.389-.221.284-.536.536-.757.82-.284.284-.316.632-.158 1.042.442 1.01.852 1.988 1.294 2.935.126.252.157.473.315.883zM37.005 95.442c-.347-.157-.537-.347-.758-.378-1.262-.379-2.524-.758-3.85-1.073-.567-.126-.725-.41-.82-.947a24.315 24.315 0 00-.789-2.872c-.252-.757-.694-.82-1.199-.189a47.759 47.759 0 00-1.546 1.988c-.379.568-.79.852-1.547.726-.725-.158-1.483-.221-2.209-.252-.441 0-.915.031-1.357.157-.473.158-.536.474-.22.852.694.884 1.325 1.768 2.02 2.651.378.505.441.947.283 1.546a26.54 26.54 0 00-.726 3.503c-.189 1.389.221 1.673 1.547 1.294.252-.063.473-.158.662-.284.316-.126.6-.347.916-.473 1.514-.758 2.082-.695 3.282.568.662.725 1.483 1.23 2.493 1.357.662.094.978-.158.82-.821-.22-.915-.505-1.767-.789-2.682-.063-.253-.19-.442-.316-.694-.378-.884-.315-.947.505-1.452.947-.568 1.894-1.136 2.84-1.767.253-.127.442-.442.758-.758zm-1.578.316c-.284.22-.41.347-.536.41-.82.442-1.641.884-2.43 1.294-1.042.537-1.105.726-.695 1.767.38.884.695 1.767 1.042 2.683.063.126 0 .315 0 .694-.379-.253-.663-.347-.852-.537-.505-.378-1.01-.82-1.483-1.23-.505-.442-1.105-.6-1.736-.411-.663.221-1.325.505-1.957.821-.441.189-.82.442-1.388.315 0-.252 0-.504.063-.694l.852-3.692c.095-.41.095-.726-.158-1.041-.6-.726-1.167-1.42-1.767-2.146-.126-.19-.252-.379-.442-.758 1.073.127 1.957.19 2.809.347 1.357.221 1.42.095 2.272-1.199.063-.126.095-.22.158-.347.284-.41.536-.852 1.167-1.104.127.63.221 1.23.348 1.798.063.38.094.726.157 1.105.032.41.284.663.695.757l3.124.852c.126.064.347.158.757.316zm183.688 59.613c-.253-.126-.379-.253-.537-.284-.915-.284-1.798-.6-2.682-.852-.379-.127-.505-.316-.568-.695a24.155 24.155 0 00-.473-2.051c-.158-.536-.474-.599-.852-.158-.379.442-.789.916-1.136 1.389-.284.41-.6.6-1.105.473-.505-.126-1.041-.157-1.546-.221-.316 0-.663.032-.978.095-.348.095-.379.316-.158.6.442.631.883 1.325 1.357 1.925.284.347.252.694.158 1.104a22.02 22.02 0 00-.6 2.493c-.158.978.126 1.199 1.073.947.158-.032.347-.095.505-.189.221-.095.442-.19.631-.316 1.104-.473 1.515-.442 2.304.473.473.537 1.009.884 1.735 1.042.474.094.663-.095.6-.537-.126-.631-.316-1.262-.505-1.893-.032-.158-.126-.316-.189-.505-.253-.631-.19-.694.41-1.041.694-.379 1.388-.758 2.051-1.168.126-.189.284-.41.505-.631zm-1.136.189c-.221.158-.284.221-.379.253-.599.284-1.167.599-1.799.852-.757.315-.82.505-.536 1.23.252.631.473 1.294.663 1.925.031.095 0 .253 0 .505-.253-.189-.442-.252-.6-.41-.347-.284-.694-.631-1.041-.915-.347-.284-.758-.442-1.231-.347-.473.157-.947.315-1.42.536-.316.126-.6.284-1.01.189 0-.189.032-.347.063-.504.221-.852.474-1.736.726-2.62.063-.252.095-.473-.095-.725-.41-.537-.789-1.042-1.199-1.578-.094-.158-.158-.284-.315-.568.757.126 1.388.189 1.988.347.946.189.978.094 1.641-.821.063-.063.063-.189.126-.252.221-.284.41-.6.883-.757.095.473.127.883.19 1.262.031.284.031.536.094.789.032.284.221.473.505.568.726.221 1.484.473 2.209.694.095.158.253.189.537.347zM37.092 63.601c-.253-.126-.38-.252-.537-.284-.915-.284-1.799-.6-2.682-.852-.379-.126-.505-.315-.568-.694a24.044 24.044 0 00-.474-2.051c-.158-.537-.473-.6-.852-.158-.378.442-.789.915-1.136 1.389-.284.41-.6.599-1.104.473-.505-.126-1.042-.158-1.547-.221-.315 0-.662.031-.978.095-.347.094-.378.315-.158.6.442.63.884 1.325 1.357 1.924.284.347.253.694.158 1.105-.252.82-.442 1.64-.6 2.493-.157.978.127 1.199 1.073.946.158-.031.348-.094.505-.189.221-.095.442-.19.631-.316 1.105-.473 1.515-.441 2.304.474.474.536 1.01.883 1.736 1.041.473.095.663-.095.6-.536-.127-.632-.316-1.263-.505-1.894-.032-.157-.127-.315-.19-.505-.252-.63-.19-.694.41-1.041.695-.379 1.389-.757 2.052-1.168.094-.22.284-.41.505-.63zm-1.168.158c-.221.158-.284.22-.379.252-.6.285-1.167.6-1.799.853-.757.315-.82.504-.536 1.23.252.631.473 1.294.663 1.925.031.095 0 .253 0 .505-.253-.19-.442-.252-.6-.41-.347-.284-.694-.631-1.041-.915-.347-.284-.758-.442-1.231-.347-.473.157-.947.315-1.42.536-.316.126-.6.284-1.01.19 0-.19.032-.348.063-.505.221-.852.474-1.736.726-2.62.063-.252.095-.473-.095-.726-.41-.536-.789-1.04-1.199-1.577-.095-.158-.158-.284-.315-.568.757.126 1.388.189 1.988.347.946.19.978.094 1.64-.82.064-.064.064-.19.127-.253.22-.284.41-.6.883-.758.095.474.127.884.19 1.263.031.284.031.536.094.789.032.284.221.473.505.568.726.22 1.484.473 2.21.694.126.19.283.22.536.347zm84.198 124.461c-.347-.095-.536-.221-.725-.221-1.2-.126-2.399-.252-3.598-.315-.536-.032-.694-.253-.884-.695-.315-.82-.725-1.609-1.167-2.43-.347-.599-.789-.599-1.105.032-.347.663-.757 1.325-1.009 2.02-.253.568-.6.915-1.263.883-.662-.031-1.325.063-1.988.158-.378.063-.82.189-1.199.379-.41.221-.379.505-.032.789.726.662 1.452 1.388 2.209 2.019.442.379.537.789.505 1.326a37.986 37.986 0 00-.063 3.282c.063 1.262.474 1.483 1.578.883.221-.095.379-.252.568-.379l.757-.568c1.231-.915 1.768-.946 2.998-.031.726.536 1.515.82 2.43.789.6-.032.821-.316.6-.852-.316-.758-.757-1.515-1.168-2.241l-.378-.568c-.474-.726-.442-.82.22-1.42l2.241-2.051c.095-.095.221-.41.473-.789zm-1.388.568c-.189.253-.284.347-.379.442a48.606 48.606 0 01-1.988 1.546c-.82.631-.883.821-.315 1.704.473.726.915 1.483 1.388 2.209.063.126.063.316.126.631-.378-.126-.631-.189-.883-.315-.537-.284-1.01-.568-1.547-.852-.536-.284-1.073-.379-1.609-.095-.568.316-1.105.663-1.609 1.041-.348.221-.663.537-1.2.505-.031-.221-.063-.441-.063-.631.063-1.136.095-2.303.158-3.439.032-.348-.031-.663-.315-.884-.663-.537-1.263-1.073-1.925-1.609a6.2 6.2 0 01-.537-.6c.947-.063 1.767-.126 2.556-.158 1.262 0 1.294-.158 1.83-1.451.032-.095.032-.221.064-.316.189-.442.347-.852.883-1.199.221.536.41 1.041.6 1.546.126.316.189.631.315.947.127.378.379.505.758.568.978.094 1.925.158 2.903.252.221.032.41.095.789.158zm72.994 2.618c-.252-.126-.379-.253-.536-.284-.915-.284-1.799-.6-2.683-.852-.378-.126-.505-.316-.568-.694a24.089 24.089 0 00-.473-2.052c-.158-.536-.473-.599-.852-.157-.379.441-.789.915-1.136 1.388-.284.41-.6.6-1.105.473-.504-.126-1.041-.157-1.546-.22-.315 0-.663.031-.978.094-.347.095-.379.316-.158.6.442.631.884 1.325 1.357 1.925.284.347.252.694.158 1.104a22.02 22.02 0 00-.6 2.493c-.158.979.126 1.199 1.073.947.158-.032.347-.095.505-.189.221-.095.442-.19.631-.316 1.105-.473 1.515-.442 2.304.473.473.537 1.01.884 1.735 1.042.474.095.663-.095.6-.537-.126-.631-.315-1.262-.505-1.893-.031-.158-.126-.316-.189-.505-.253-.631-.19-.694.41-1.041.694-.379 1.389-.758 2.051-1.168.095-.221.284-.41.505-.631zm-1.167.158c-.221.157-.284.221-.379.252-.6.284-1.168.6-1.799.852-.757.316-.82.505-.536 1.231.252.631.473 1.294.662 1.925.032.095 0 .252 0 .505-.252-.19-.441-.253-.599-.41-.347-.284-.694-.632-1.042-.916-.347-.284-.757-.441-1.23-.347-.474.158-.947.316-1.42.537-.316.126-.6.284-1.01.189 0-.189.031-.347.063-.505.221-.852.473-1.735.726-2.619.063-.252.094-.473-.095-.726-.41-.536-.789-1.041-1.199-1.578-.095-.157-.158-.284-.316-.568.758.127 1.389.19 1.988.347.947.19.979.095 1.641-.82.063-.063.063-.189.127-.253.221-.284.41-.599.883-.757.095.473.126.884.19 1.262.031.284.031.537.094.789.032.284.221.474.505.568.726.221 1.483.474 2.209.695.126.189.284.22.537.347zm-31.876 34.398c-.126-.252-.158-.41-.252-.568-.568-.757-1.105-1.546-1.704-2.272-.253-.316-.221-.537-.063-.884.315-.631.568-1.262.788-1.925.158-.536-.063-.757-.599-.662-.568.126-1.168.284-1.704.442-.474.157-.821.126-1.168-.285-.347-.41-.757-.757-1.136-1.072a3.232 3.232 0 00-.852-.474c-.315-.126-.473.032-.505.379 0 .757-.031 1.546-.031 2.367 0 .441-.158.725-.537.978-.663.536-1.325 1.073-1.925 1.672-.694.695-.599 1.042.316 1.389.189.063.347.095.505.126.252.063.473.095.694.126 1.199.253 1.452.505 1.609 1.736.063.694.316 1.325.821 1.83.347.347.631.316.82-.126.284-.599.474-1.231.695-1.83.063-.19.094-.347.126-.505.158-.663.252-.694.915-.6.789.095 1.578.19 2.367.221.252.063.473-.031.82-.063zm-1.041-.536c-.253 0-.347.031-.474.031-.662-.094-1.293-.221-1.956-.315-.789-.158-.947-.064-1.136.694-.158.663-.379 1.325-.568 1.956-.032.095-.126.19-.316.379-.126-.315-.221-.473-.252-.694-.126-.442-.19-.884-.316-1.326-.094-.473-.378-.82-.789-.978a12.31 12.31 0 00-1.451-.379c-.316-.063-.663-.094-.915-.41.126-.126.22-.284.315-.378l2.083-1.705c.221-.157.347-.347.347-.662a41.285 41.285 0 01-.063-1.957c0-.189.031-.347.063-.631.536.537 1.01.947 1.42 1.42.663.726.789.663 1.799.284.094-.031.158-.094.252-.126.347-.095.695-.252 1.136-.126-.221.41-.41.789-.599 1.167-.126.253-.253.442-.379.695-.126.252-.126.505.063.757.474.6.915 1.231 1.389 1.83.094.095.189.253.347.474zM98.03 28.415c-.19-.19-.285-.348-.442-.442-.79-.537-1.578-1.073-2.367-1.547-.347-.22-.379-.441-.379-.82a23.7 23.7 0 00.095-2.114c0-.568-.316-.695-.79-.41-.504.315-1.009.63-1.45 1.01-.38.315-.727.41-1.2.126-.442-.253-.947-.442-1.452-.632a2.533 2.533 0 00-.946-.189c-.379 0-.442.19-.347.536.252.758.505 1.515.788 2.241.158.41.095.726-.157 1.105a22.076 22.076 0 00-1.262 2.209c-.442.883-.221 1.167.757 1.199.19 0 .347-.032.536-.032.221-.032.474-.095.695-.126 1.199-.19 1.577 0 2.082 1.073.316.63.758 1.136 1.389 1.451.442.19.663.095.726-.347.031-.662.031-1.294.031-1.988 0-.19-.031-.347-.063-.505-.031-.662 0-.694.694-.883.758-.19 1.515-.379 2.304-.6.252 0 .442-.126.757-.316zm-1.137-.127c-.22.095-.347.158-.442.19-.63.126-1.293.22-1.924.347-.821.126-.916.22-.853 1.041.064.694.095 1.357.127 2.02 0 .126-.095.22-.158.473-.221-.22-.379-.379-.473-.536-.253-.379-.474-.79-.726-1.168-.253-.379-.6-.663-1.073-.631-.505 0-1.01.063-1.515.126-.347.032-.631.126-1.01-.063.063-.19.095-.347.19-.442.473-.789.915-1.546 1.388-2.335.158-.22.221-.473.095-.726-.253-.63-.474-1.23-.726-1.862-.063-.126-.063-.315-.158-.6.694.316 1.262.569 1.83.884.852.474.947.38 1.8-.347.062-.063.094-.157.189-.19.284-.22.568-.44 1.073-.504-.032.473-.127.884-.158 1.294a5.811 5.811 0 01-.158.789c-.032.284.063.505.316.694.662.41 1.293.852 1.924 1.294.032-.032.19.063.442.252zm60.562 42.762c-.253-.126-.41-.22-.568-.252-.915-.22-1.83-.505-2.746-.663-.41-.094-.536-.284-.599-.662-.158-.663-.347-1.357-.631-2.02-.19-.505-.505-.568-.884-.126-.347.473-.726.915-1.041 1.42-.284.41-.568.631-1.105.536a9.101 9.101 0 00-1.578-.126c-.315 0-.662.032-.978.158-.347.095-.347.347-.126.631.505.631.978 1.23 1.483 1.862.284.347.316.694.221 1.104-.189.82-.347 1.673-.442 2.525-.095.978.189 1.2 1.136.884.19-.064.316-.127.474-.221.22-.095.41-.221.631-.379 1.073-.568 1.483-.537 2.335.316.505.504 1.073.82 1.799.915.473.031.694-.126.536-.6-.189-.631-.41-1.23-.599-1.862-.064-.19-.158-.284-.221-.473-.284-.6-.253-.694.347-1.041.662-.41 1.325-.884 1.956-1.326.253-.126.379-.315.6-.6zm-1.136.253c-.19.19-.253.252-.347.284-.568.316-1.168.663-1.736.978-.726.41-.789.537-.442 1.263.284.6.537 1.23.789 1.861.032.095 0 .253 0 .505-.284-.157-.473-.22-.631-.378-.379-.253-.726-.6-1.104-.852-.348-.284-.789-.41-1.263-.253a7.85 7.85 0 00-1.388.631c-.284.158-.568.316-.978.284 0-.189-.032-.347 0-.505.189-.883.378-1.767.536-2.619.063-.252.063-.505-.158-.726-.442-.504-.852-.978-1.294-1.483-.126-.126-.189-.252-.347-.536.758.063 1.389.126 2.02.19.978.157.978.03 1.578-.885.063-.063.063-.189.094-.22.19-.316.379-.632.821-.82.095.472.189.883.252 1.261.063.253.095.537.127.758.031.284.22.473.536.536.757.19 1.483.347 2.241.537.252.063.41.094.694.189zM105.385 60.51c-.063-.378-.063-.63-.158-.852-.536-1.23-1.01-2.461-1.578-3.66-.252-.505-.126-.82.221-1.231a20.752 20.752 0 001.704-2.398c.411-.663.19-1.073-.631-1.073-.82 0-1.672-.032-2.524.063-.695.063-1.168-.095-1.515-.758a11.838 11.838 0 00-1.23-1.861 4.799 4.799 0 00-1.01-.947c-.41-.284-.695-.126-.821.379-.253 1.073-.568 2.146-.82 3.218-.158.6-.474.916-1.042 1.168-1.105.473-2.177 1.041-3.219 1.641-1.199.694-1.167 1.23 0 2.02.19.126.442.252.663.347.316.126.631.252.915.41 1.546.726 1.83 1.2 1.61 2.872-.127 1.01 0 1.893.504 2.777.348.6.726.662 1.136.126a58.006 58.006 0 001.578-2.272c.126-.19.19-.442.347-.663.442-.82.537-.852 1.452-.505 1.073.379 2.083.758 3.156 1.073.41.095.82.063 1.262.126zm-1.231-1.041c-.347-.095-.505-.063-.631-.126-.852-.347-1.704-.695-2.556-1.105-1.073-.505-1.262-.441-1.799.6-.442.82-.915 1.672-1.42 2.493-.063.126-.252.19-.536.41-.063-.442-.158-.726-.127-1.01 0-.63.032-1.294.032-1.925 0-.63-.22-1.23-.789-1.61-.568-.378-1.23-.725-1.862-1.04-.41-.221-.852-.348-1.136-.884.221-.158.379-.316.6-.41 1.136-.568 2.272-1.136 3.408-1.641.347-.158.631-.379.694-.758a41.71 41.71 0 01.568-2.714c.032-.22.158-.41.284-.852.568.884 1.073 1.641 1.483 2.43.632 1.2.821 1.136 2.367.979.126 0 .221-.095.347-.095.505-.063 1.01-.126 1.61.22-.442.506-.821.948-1.199 1.39a9.262 9.262 0 00-.758.82c-.284.284-.315.63-.158 1.041.442 1.01.852 1.988 1.263 2.966.094.158.157.41.315.821z" fill="red" opacity=".5"/></svg>