<svg width="40" height="40" fill="none" xmlns="http://www.w3.org/2000/svg"><path fill-rule="evenodd" clip-rule="evenodd" d="M20 40C8.954 40 0 31.046 0 20 0 8.955 8.954 0 20 0s20 8.955 20 20c0 11.046-8.954 20-20 20zm0-38.643C9.704 1.357 1.357 9.704 1.357 20c0 10.296 8.347 18.643 18.643 18.643 10.296 0 18.642-8.348 18.642-18.643C38.642 9.704 30.295 1.357 20 1.357zM23.7 29h-7.395c-1.517 0-2.828-.494-3.79-1.428-.992-.963-1.516-2.303-1.516-3.877v-7.434c0-3.147 2.115-5.263 5.265-5.263h7.477c1.537 0 2.855.51 3.813 1.474.95.956 1.452 2.267 1.452 3.789v7.476c0 1.563-.513 2.89-1.484 3.839C26.567 28.507 25.246 29 23.7 29zm3.648-12.74c0-1.075-.335-1.98-.97-2.62-.64-.645-1.55-.985-2.637-.985h-7.477c-1.093 0-2.005.332-2.637.961-.635.631-.97 1.547-.97 2.645v7.434c0 1.116.35 2.045 1.012 2.688.647.628 1.56.96 2.636.96H23.7c1.104 0 2.024-.33 2.664-.953.643-.63.984-1.546.984-2.653v-7.476zm-2.539-.005a1.052 1.052 0 110-2.103 1.052 1.052 0 010 2.104zm-4.807 8.324a4.637 4.637 0 01-4.632-4.63 4.637 4.637 0 014.632-4.632 4.637 4.637 0 014.633 4.631 4.637 4.637 0 01-4.633 4.631zm0-7.605a2.978 2.978 0 00-2.975 2.974 2.978 2.978 0 002.975 2.975 2.978 2.978 0 002.975-2.975 2.978 2.978 0 00-2.975-2.974z" fill="#fff"/></svg>