<svg width="124" height="38" viewBox="0 0 124 38" fill="none" xmlns="http://www.w3.org/2000/svg">
<path d="M21.4763 2.25087C21.4763 2.51568 21.3439 2.91289 21.0789 3.0453C20.814 3.3101 20.5491 3.44251 20.1518 3.44251H17.2377C17.1053 3.44251 16.9728 3.44251 16.5754 3.44251C16.1781 3.44251 15.7807 3.44251 15.2509 3.57491C14.7211 3.57491 14.1912 3.70732 13.529 3.70732C12.8667 3.70732 12.3369 3.83972 11.807 3.83972C11.2772 3.97213 10.8799 3.97213 10.4825 3.97213C10.0851 3.97213 9.82022 3.97213 9.68776 3.97213C9.68776 3.97213 9.5553 3.97213 9.42285 3.97213C9.29039 3.97213 9.15794 3.97213 9.15794 3.83972C9.02548 3.83972 8.89303 3.83972 8.89303 3.70732C8.76057 3.70732 8.76057 3.70732 8.76057 3.70732C8.76057 3.70732 8.62811 3.70732 8.49566 3.83972C8.3632 3.97213 8.3632 3.97213 8.3632 4.10453C8.09829 5.42857 7.96584 6.88502 7.83338 8.20906C7.70092 9.5331 7.43601 10.9895 7.30356 12.446C7.30356 12.446 7.30356 12.5784 7.30356 12.8432C7.30356 13.108 7.1711 13.3728 7.1711 13.77C7.03865 14.1672 7.03865 14.5645 7.03865 14.9617C7.03865 15.3589 6.90619 15.7561 6.90619 16.1533C6.90619 16.5505 6.77374 16.8153 6.77374 17.0801C6.77374 17.3449 6.77374 17.4774 6.77374 17.6098C6.77374 18.007 6.77374 18.5366 6.77374 18.9338C6.77374 19.4634 6.77374 19.8606 6.77374 20.2578C6.77374 20.6551 6.64128 21.0523 6.50882 21.3171C6.37637 21.5819 6.11146 21.8467 5.979 21.9791C5.71409 22.1115 5.58164 22.2439 5.31672 22.3763C5.05181 22.3763 4.91936 22.5087 4.7869 22.5087C4.65445 22.5087 4.52199 22.5087 4.25708 22.3763C3.99217 22.2439 3.85971 22.1115 3.5948 21.9791C3.19743 21.7143 3.06498 21.4495 2.80007 21.1847C2.66761 20.9199 2.53516 20.6551 2.53516 20.3902C2.53516 20.1254 2.53516 19.7282 2.53516 19.5958C2.53516 19.331 2.53516 19.1986 2.53516 18.9338C2.53516 18.669 2.66761 18.5366 2.66761 18.2718C2.66761 18.007 2.80007 17.7422 2.80007 17.3449C2.80007 17.2125 2.80007 16.9477 2.93252 16.6829C2.93252 16.2857 3.06498 15.8885 3.06498 15.3589C3.19743 14.8293 3.19743 14.2997 3.32989 13.6376C3.46235 13.108 3.46235 12.446 3.5948 12.0488C3.72726 11.5192 3.72726 11.122 3.72726 10.7247C3.72726 10.3275 3.85971 10.1951 3.85971 10.1951L4.52199 5.03136C4.52199 4.76655 4.52199 4.36934 4.52199 4.10453C4.52199 3.70732 4.52199 3.3101 4.52199 3.0453C4.52199 2.64808 4.52199 2.25087 4.52199 1.85366C4.65445 1.32404 4.7869 0.926829 5.18427 0.529617C5.84655 0.132404 6.37637 0 6.90619 0C7.1711 0 7.43601 0 7.70093 0.132404C7.83338 0.132404 8.09829 0.264808 8.3632 0.397213C8.62811 0.529617 9.02548 0.529617 9.42285 0.662021C9.82022 0.662021 10.35 0.662021 11.0123 0.662021C12.072 0.529617 12.9991 0.529617 13.7939 0.397213C14.5886 0.397213 15.1184 0.264808 15.6483 0.264808C16.1781 0.264808 16.5754 0.132404 16.8404 0.132404C17.1053 0.132404 17.3702 0.132404 17.5026 0.132404C17.5026 0 17.6351 0 17.6351 0H17.7676C18.0325 0 18.4298 0 18.9597 0.132404C19.357 0.132404 19.7544 0.264808 20.1518 0.397213C20.5491 0.529617 20.814 0.794425 21.0789 1.05923C21.3439 1.32404 21.4763 1.58885 21.4763 2.11847V2.25087Z" fill="#222222"/>
<path d="M35.3856 15.7566C35.3856 15.889 35.3856 16.1538 35.1207 16.551C34.9882 16.8158 34.8558 17.213 34.5908 17.4778C34.3259 17.875 34.061 18.1398 33.6637 18.5371C33.2663 18.9343 33.0014 19.1991 32.604 19.4639C32.2066 19.7287 31.8093 19.9935 31.2795 20.1259C30.8821 20.2583 30.3523 20.3907 29.8224 20.3907C28.7628 20.3907 27.8356 19.9935 27.3058 19.3315C26.6435 18.6695 26.2461 17.6102 26.1137 16.2862C25.7163 16.9482 25.1865 17.4778 24.6567 18.0074C24.1269 18.5371 23.597 19.0667 22.9348 19.4639C22.4049 19.8611 21.7427 20.1259 21.2128 20.3907C20.683 20.6555 20.1532 20.7879 19.7558 20.7879C19.3585 20.7879 19.0935 20.6555 18.6962 20.5231C18.4313 20.3907 18.0339 20.1259 17.769 19.8611C17.5041 19.5963 17.3716 19.1991 17.1067 18.9343C16.9743 18.5371 16.8418 18.1398 16.8418 17.7426C16.8418 17.3454 16.8418 16.9482 16.9743 16.551C17.1067 16.1538 17.1067 15.7566 17.2392 15.227C17.3716 14.6973 17.6365 14.3001 17.769 13.6381C18.2988 13.1085 18.6962 12.5789 18.9611 11.9169C19.3585 11.1224 19.7558 10.4604 20.2856 9.79839C20.8155 9.13636 21.3453 8.60675 22.0076 8.07713C22.5374 7.54751 23.0672 7.1503 23.597 6.88549C24.1269 6.62069 24.5242 6.48828 24.9216 6.48828C25.054 6.48828 25.1865 6.48828 25.319 6.48828C25.4514 6.48828 25.5839 6.62069 25.5839 6.62069C25.7163 6.62069 25.8488 6.75309 25.8488 6.75309C25.9812 6.75309 25.9812 6.75309 25.9812 6.75309C26.2461 6.75309 26.3786 6.62069 26.3786 6.62069C26.5111 6.62069 26.5111 6.48828 26.6435 6.48828C26.776 6.48828 26.9084 6.48828 26.9084 6.48828C27.0409 6.48828 27.3058 6.48828 27.4382 6.62069C27.5707 6.75309 27.8356 6.88549 27.9681 7.0179C28.1005 7.1503 28.233 7.28271 28.3654 7.54751C28.4979 7.67992 28.6303 7.94473 28.6303 8.07713C28.6303 8.20954 28.6303 8.20954 28.7628 8.34194C28.7628 8.34194 28.7628 8.47434 28.8953 8.47434C29.0277 8.60675 29.0277 8.73915 29.1602 8.87156C29.2926 9.00396 29.2926 9.26877 29.2926 9.40117C29.2926 9.53358 29.2926 9.66598 29.1602 10.0632C29.1602 10.328 29.0277 10.7252 28.8953 11.1224C28.7628 11.5196 28.7628 11.9169 28.6303 12.3141C28.6303 12.7113 28.4979 13.1085 28.4979 13.5057C28.4979 14.4325 28.4979 15.0946 28.6303 15.7566C28.7628 16.2862 28.7628 16.8158 28.8953 17.0806C29.0277 17.3454 29.1602 17.6102 29.4251 17.7426C29.5575 17.875 29.8224 17.875 30.0874 17.875C30.2198 17.875 30.4847 17.875 30.7496 17.7426C31.0145 17.7426 31.2795 17.6102 31.4119 17.4778C31.6768 17.3454 31.9417 17.213 32.0742 17.0806C32.3391 16.9482 32.4716 16.6834 32.7365 16.551C33.1338 16.1538 33.3987 15.889 33.6637 15.6242C33.9286 15.3594 34.1935 15.227 34.4584 15.227C34.7233 15.227 34.8558 15.227 34.9882 15.3594C35.2531 15.3594 35.3856 15.6242 35.3856 15.7566ZM25.9812 10.5928C25.9812 10.0632 25.9812 9.66598 25.8488 9.40117C25.7163 9.13636 25.7163 9.00396 25.5839 9.00396C25.4514 9.00396 25.1865 9.00396 25.054 9.13636C24.7891 9.26877 24.6567 9.26877 24.5242 9.40117C24.3918 9.53358 24.1269 9.66598 23.9944 9.79839C23.8619 9.93079 23.7295 10.0632 23.597 10.1956C23.1997 10.5928 22.9348 11.1224 22.5374 11.7844C22.14 12.4465 21.7427 12.9761 21.3453 13.6381C20.9479 14.3001 20.683 14.8297 20.4181 15.4918C20.1532 16.0214 20.0207 16.551 20.0207 16.9482C20.0207 17.213 20.0207 17.4778 20.1532 17.7426C20.2856 17.875 20.4181 18.0074 20.683 18.0074C20.8155 18.0074 21.0804 17.875 21.3453 17.7426C21.6102 17.6102 21.8751 17.3454 22.2725 17.0806C22.5374 16.8158 22.9348 16.551 23.1997 16.1538C23.4646 15.7566 23.7295 15.4918 23.9944 15.227C24.2593 14.9621 24.5242 14.5649 24.7891 14.1677C25.054 13.7705 25.319 13.3733 25.4514 12.9761C25.7163 12.5789 25.8488 12.1817 25.9812 11.7844C25.9812 11.3872 25.9812 10.99 25.9812 10.5928Z" fill="#222222"/>
<path d="M56.3136 15.6229C56.3136 15.8878 56.3136 16.0202 56.1812 16.4174C56.0487 16.6822 55.9163 16.947 55.6513 17.2118C55.1215 17.7414 54.5917 18.4034 54.0619 18.8006C53.532 19.3303 53.0022 19.7275 52.4724 20.1247C51.9426 20.5219 51.4128 20.7867 50.8829 21.0515C50.3531 21.3163 49.8233 21.4487 49.4259 21.4487C48.3663 21.4487 47.704 21.0515 47.0417 20.3895C46.5119 19.5951 46.247 18.5358 46.247 17.0794C46.247 16.8146 46.247 16.4174 46.247 16.0202C46.247 15.6229 46.3794 15.2257 46.3794 14.8285C46.3794 14.4313 46.5119 13.9017 46.5119 13.5045C46.6444 13.1073 46.7768 12.7101 46.7768 12.3128C46.9093 11.6508 47.0417 10.9888 47.1742 10.5916C47.3066 10.062 47.3066 9.79716 47.3066 9.66476V9.53235L47.1742 9.39995C46.9093 9.39995 46.7768 9.66476 46.5119 10.1944C46.3794 10.4592 46.247 10.8564 46.1145 11.2536C45.9821 11.6508 45.7172 12.048 45.5847 12.5776C45.4523 13.1073 45.1873 13.5045 44.9224 14.0341C44.6575 14.5637 44.3926 15.0933 44.1277 15.4905C43.8628 16.0202 43.5979 16.4174 43.2005 16.947C42.9356 17.3442 42.5382 17.8738 42.1409 18.1386C41.4786 18.8006 40.6839 19.4627 39.8891 19.8599C39.0944 20.2571 38.2997 20.5219 37.3725 20.5219C36.7102 20.5219 36.1804 20.3895 35.6505 20.2571C35.1207 19.9923 34.7234 19.8599 34.4584 19.4627C34.1935 19.0655 33.9286 18.8006 33.7962 18.271C33.6637 17.8738 33.5312 17.3442 33.5312 16.947C33.5312 16.5498 33.5313 16.285 33.6637 16.1526C33.7962 15.8878 33.9286 15.7553 34.0611 15.6229C34.1935 15.4905 34.326 15.3581 34.5909 15.3581C34.7233 15.3581 34.9883 15.2257 35.2532 15.2257C35.783 15.2257 36.1804 15.3581 36.4453 15.6229C36.7102 15.8878 36.8426 16.285 36.8426 16.6822C36.8426 17.0794 36.9751 17.3442 37.1076 17.4766C37.24 17.609 37.5049 17.7414 37.6374 17.7414C38.1672 17.7414 38.5646 17.609 39.0944 17.3442C39.6242 17.0794 40.0216 16.5498 40.5514 16.0202C41.0812 15.4905 41.4786 14.8285 42.0084 13.9017C42.4058 13.1073 42.9356 12.1804 43.333 11.1212C43.5979 10.5916 43.7303 10.1944 43.8628 9.79716C43.9952 9.39995 44.1277 9.00274 44.3926 8.73793C44.5251 8.47312 44.79 8.07591 44.9224 7.8111C45.0549 7.54629 45.3198 7.28148 45.5847 7.01667C45.7172 6.88427 45.8496 6.75186 46.1145 6.75186C46.247 6.75186 46.5119 6.61946 46.7768 6.48706C47.0417 6.35465 47.3066 6.35465 47.704 6.22225C47.9689 6.22225 48.2338 6.08984 48.4987 6.08984C48.7636 6.08984 49.0286 6.08984 49.161 6.22225C49.4259 6.48706 49.5584 6.61946 49.6908 6.75186C49.8233 6.88427 49.9557 7.14908 50.0882 7.41389C50.2207 7.67869 50.2207 7.9435 50.2207 8.20831C50.2207 8.34071 50.2207 8.60552 50.2207 9.00274C50.2207 9.26754 50.0882 9.66476 50.0882 10.1944C50.0882 10.5916 49.9557 11.1212 49.8233 11.6508C49.6908 12.1804 49.6908 12.7101 49.5584 13.2397C49.5584 13.7693 49.4259 14.2989 49.4259 14.8285C49.4259 15.3581 49.4259 15.8878 49.2935 16.285C49.2935 16.8146 49.2935 17.2118 49.4259 17.609C49.4259 18.0062 49.5584 18.271 49.5584 18.4034C49.6908 18.6682 49.6908 18.8006 49.8233 18.8006C49.9557 18.933 50.0882 18.933 50.2207 18.933C50.3531 18.933 50.618 18.8006 51.0154 18.6682C51.2803 18.5358 51.6777 18.271 52.075 18.0062C52.4724 17.7414 52.8698 17.3442 53.2671 17.0794C53.6645 16.6822 54.0619 16.285 54.5917 15.8878C54.7242 15.7553 54.7241 15.7553 54.8566 15.6229C54.9891 15.4905 54.9891 15.4905 55.1215 15.3581C55.254 15.2257 55.254 15.2257 55.3864 15.2257C55.5189 15.2257 55.6513 15.2257 55.7838 15.2257C55.9163 15.2257 56.1812 15.2257 56.3136 15.3581C56.3136 15.3581 56.3136 15.4905 56.3136 15.6229Z" fill="#222222"/>
<path d="M71.4158 11.3861C71.4158 11.5185 71.4158 11.6509 71.2833 11.9157C71.1509 12.1805 71.1509 12.4453 70.886 12.5777C69.8263 13.9018 68.7667 15.2258 67.707 16.4175C66.6474 17.6091 65.7202 18.6683 64.6605 19.5952C63.6009 20.522 62.6737 21.184 61.7465 21.7136C60.8193 22.2432 59.8921 22.508 58.965 22.508C58.1702 22.508 57.3755 22.3756 56.7132 22.1108C56.0509 21.846 55.5211 21.4488 55.1237 20.9192C54.7264 20.3896 54.4615 19.86 54.1965 19.0655C54.0641 18.4035 53.9316 17.6091 53.9316 16.6823C53.9316 16.0202 53.9316 15.3582 54.0641 14.6962C54.1965 14.0342 54.329 13.2398 54.5939 12.5777C54.8588 11.9157 55.1237 11.1213 55.5211 10.4593C55.9185 9.79725 56.3158 9.13523 56.8457 8.60561C57.1106 8.3408 57.3755 8.07599 57.6404 7.94359C57.9053 7.67878 58.3027 7.54638 58.5676 7.28157C58.8325 7.14917 59.2299 6.88436 59.6272 6.88436C60.0246 6.75195 60.2895 6.75195 60.6869 6.75195C61.0842 6.75195 61.4816 6.88436 61.7465 7.01676C62.1439 7.14917 62.4088 7.41397 62.6737 7.67878C62.9386 7.94359 63.0711 8.2084 63.2035 8.60561C63.336 9.00282 63.4684 9.26763 63.4684 9.66485C63.4684 10.0621 63.336 10.4593 63.336 10.8565C63.2035 11.2537 63.0711 11.7833 62.8062 12.3129C62.5412 12.8425 62.2763 13.3722 61.879 13.7694C61.4816 14.299 61.0842 14.6962 60.5544 15.2258C60.422 15.3582 60.1571 15.623 59.8921 15.8878C59.6272 16.1526 59.3623 16.4175 59.0974 16.5499C58.8325 16.8147 58.4351 17.0795 58.1702 17.3443C57.9053 17.6091 57.5079 17.8739 57.243 18.0063C57.243 18.2711 57.243 18.4035 57.3755 18.6683C57.5079 18.9331 57.6404 19.0655 57.7728 19.3303C57.9053 19.4628 58.1702 19.7276 58.4351 19.7276C58.7 19.86 58.965 19.86 59.3623 19.86C60.0246 19.86 60.8193 19.5952 61.6141 19.1979C62.4088 18.6683 63.2035 18.1387 64.1307 17.3443C64.9254 16.5499 65.8526 15.7554 66.7798 14.6962C67.707 13.7694 68.6342 12.7101 69.5614 11.6509C69.6939 11.5185 69.8263 11.3861 70.0912 11.1213C70.3561 10.9889 70.4886 10.8565 70.886 10.8565H71.0184C71.1509 10.8565 71.1509 10.9889 71.2833 10.9889C71.4158 10.9889 71.4158 11.1213 71.4158 11.2537V11.3861ZM60.8193 9.92965C60.8193 9.79725 60.8193 9.66484 60.6869 9.53244C60.6869 9.40004 60.5544 9.26763 60.2895 9.26763C59.8921 9.26763 59.4948 9.40004 59.2299 9.79725C58.965 10.0621 58.5676 10.5917 58.3027 11.1213C58.0378 11.6509 57.7728 12.3129 57.5079 12.9749C57.243 13.637 57.1106 14.4314 56.8457 15.2258C56.9781 15.2258 56.9781 15.0934 57.1106 14.961C57.243 14.8286 57.3755 14.8286 57.3755 14.6962C57.5079 14.5638 57.5079 14.5638 57.6404 14.4314C57.7729 14.299 57.7729 14.299 57.9053 14.1666C58.4351 13.5046 58.965 13.1074 59.3623 12.5777C59.7597 12.1805 60.0246 11.7833 60.157 11.3861C60.2895 11.1213 60.5544 10.7241 60.5544 10.5917C60.8193 10.4593 60.8193 10.1945 60.8193 9.92965Z" fill="#222222"/>
<path d="M84.3957 9.5339C84.3957 10.5931 84.2633 11.52 83.9984 12.3144C83.7335 13.2412 83.4685 14.0356 82.9387 14.8301C82.5414 15.6245 81.8791 16.4189 81.3493 17.0809C80.687 17.743 80.0247 18.5374 79.0975 19.1994C78.8326 19.4642 78.4352 19.729 78.0379 19.9938C77.6405 20.2586 77.2431 20.5234 76.7133 20.6558C76.3159 20.7883 75.7861 21.0531 75.3887 21.0531C74.9914 21.1855 74.594 21.1855 74.1966 21.1855C73.7993 21.1855 73.4019 21.0531 73.0045 20.9207C72.6072 20.7883 72.4747 20.5234 72.3423 20.1262C72.2098 20.5234 72.2098 21.0531 72.0774 21.3179C72.0774 21.7151 71.9449 22.1123 71.9449 22.3771C71.9449 22.7743 71.8124 23.0391 71.8124 23.4363C71.8124 23.8335 71.68 24.0984 71.68 24.4956C71.68 24.628 71.68 24.7604 71.5475 25.0252C71.5475 25.29 71.4151 25.6872 71.4151 25.952C71.4151 26.3492 71.2826 26.614 71.2826 27.0112C71.2826 27.2761 71.1502 27.5409 71.1502 27.6733C71.1502 27.8057 71.0177 28.0705 70.8853 28.3353C70.7528 28.6001 70.6203 28.7325 70.4879 28.9973C70.3554 29.2621 70.0905 29.3945 69.9581 29.5269C69.6932 29.6593 69.5607 29.7917 69.4282 29.7917C69.2958 29.7917 69.0309 29.7917 68.8984 29.6593C68.6335 29.5269 68.5011 29.3945 68.2361 29.2621C68.1037 29.1297 67.8388 28.9973 67.7063 28.7325C67.5739 28.6001 67.4414 28.4677 67.4414 28.3353C67.4414 28.2029 67.4414 28.0705 67.5739 27.8057C67.5739 27.5409 67.7063 27.2761 67.7063 26.8788C67.7063 26.4816 67.8388 26.0844 67.9712 25.6872C68.1037 25.29 68.1037 24.7604 68.2361 24.3632C68.3686 23.966 68.3686 23.4363 68.5011 23.0391C68.6335 22.6419 68.6335 22.2447 68.766 21.8475C68.8984 21.0531 69.0309 20.1262 69.2958 19.1994C69.4282 18.2726 69.6932 17.3457 69.8256 16.2865C69.9581 15.3597 70.0905 14.3004 70.223 13.3736C70.3554 12.3144 70.3554 11.3876 70.3554 10.4607C70.3554 10.4607 70.3554 10.3283 70.3554 10.1959C70.3554 10.0635 70.3554 9.93111 70.3554 9.79871C70.3554 9.6663 70.3554 9.5339 70.3554 9.26909C70.3554 9.13668 70.3554 9.00428 70.3554 8.87188C70.3554 8.47466 70.3554 8.20986 70.4879 7.81264C70.6203 7.41543 70.7528 7.15062 70.8853 6.88581C71.0177 6.621 71.2826 6.3562 71.5475 6.22379C71.8124 6.09139 72.0774 5.95898 72.3423 5.95898C72.4747 5.95898 72.6072 6.09139 72.8721 6.09139C73.0045 6.22379 73.137 6.3562 73.2695 6.62101C73.4019 6.88581 73.5344 7.15062 73.6668 7.41543C73.7993 7.68024 73.7993 8.07745 73.7993 8.34226C73.7993 8.60707 73.7993 9.00428 73.6668 9.40149C73.6668 9.7987 73.5344 10.1959 73.5344 10.5931C73.4019 10.9903 73.4019 11.3876 73.2695 11.9172C73.2695 12.3144 73.2695 12.7116 73.137 13.1088C73.6668 12.182 74.3291 11.2552 74.9914 10.4607C75.6537 9.6663 76.4484 8.87188 77.1107 8.34226C77.9054 7.68024 78.5677 7.28303 79.23 6.88581C79.8922 6.4886 80.4221 6.3562 80.8194 6.3562C81.3493 6.3562 81.7466 6.4886 82.144 6.62101C82.5414 6.75341 82.9387 7.01822 83.2036 7.28303C83.4685 7.54783 83.7335 7.94505 83.9984 8.34226C84.3957 8.73947 84.3957 9.13668 84.3957 9.5339ZM81.3493 10.5931C81.3493 10.3283 81.3493 10.0635 81.2168 9.79871C81.2168 9.6663 81.0843 9.40149 81.0843 9.26909C80.9519 9.13668 80.9519 9.13668 80.8194 9.00428C80.687 9.00428 80.687 9.00428 80.687 9.00428C80.4221 9.00428 80.0247 9.13668 79.4949 9.5339C79.0975 9.7987 78.5677 10.3283 78.0379 10.8579C77.508 11.3876 76.9782 11.9172 76.4484 12.5792C75.9186 13.2412 75.3887 13.9032 74.9914 14.5653C74.8589 14.6977 74.7265 14.9625 74.594 15.2273C74.4616 15.4921 74.1966 15.7569 74.0642 16.1541C73.9317 16.4189 73.7993 16.6837 73.6668 16.9485C73.5344 17.2133 73.5344 17.4781 73.5344 17.6106C73.5344 17.6106 73.5344 17.743 73.5344 17.8754C73.5344 18.0078 73.6668 18.0078 73.7993 18.1402C73.9317 18.2726 74.0642 18.2726 74.1966 18.405C74.3291 18.405 74.4616 18.5374 74.7265 18.5374C75.1238 18.5374 75.5212 18.405 76.051 18.1402C76.5808 17.8754 76.9782 17.6106 77.508 17.2133C78.0379 16.8161 78.4352 16.4189 78.9651 15.8893C79.4949 15.3597 79.8922 14.8301 80.2896 14.3004C80.687 13.7708 80.9519 13.1088 81.2168 12.4468C81.2168 11.7848 81.3493 11.1227 81.3493 10.5931Z" fill="#222222"/>
<path d="M102.807 15.8878C102.807 16.0202 102.675 16.2851 102.542 16.4175C102.41 16.6823 102.277 16.8147 102.145 16.9471C101.483 17.6091 100.82 18.4035 100.158 19.0655C99.4959 19.7276 98.7012 20.3896 97.9065 20.9192C97.1117 21.4488 96.317 21.846 95.5223 22.2432C94.7275 22.508 93.8003 22.7729 92.8732 22.7729C92.0784 22.7729 91.2837 22.6405 90.6214 22.3756C89.9591 22.1108 89.4293 21.7136 89.0319 21.184C88.6346 20.6544 88.3697 20.1248 88.1048 19.4628C87.9723 18.8007 87.8398 18.0063 87.8398 17.0795C87.8398 16.4175 87.8398 15.7554 87.9723 14.961C88.1048 14.299 88.2372 13.5046 88.5021 12.8425C88.767 12.1805 89.0319 11.3861 89.4293 10.7241C89.8267 10.0621 90.224 9.40004 90.8863 8.60561C91.4161 7.94359 92.0784 7.41397 92.6082 7.14917C93.2705 6.88436 93.8003 6.75195 94.4626 6.75195C94.9924 6.75195 95.3898 6.75195 95.6547 6.88436C96.0521 7.01676 96.317 7.14917 96.5819 7.41397C96.8468 7.67878 96.9793 7.94359 97.1117 8.2084C97.2442 8.47321 97.3766 8.87042 97.3766 9.26763C97.3766 10.1945 97.1117 10.9889 96.5819 12.0481C96.0521 12.9749 95.2573 13.9018 94.3302 14.8286C94.1977 14.961 93.9328 15.2258 93.6679 15.3582C93.403 15.623 93.1381 15.7554 92.8732 16.0202C92.6082 16.2851 92.2109 16.5499 91.946 16.8147C91.681 17.0795 91.2837 17.3443 91.0188 17.4767C91.0188 17.7415 91.1512 18.0063 91.2837 18.2711C91.4161 18.5359 91.5486 18.8007 91.6811 18.9331C91.8135 19.1979 92.0784 19.3303 92.3433 19.4628C92.6082 19.5952 92.8732 19.5952 93.1381 19.5952C93.8003 19.5952 94.3302 19.4628 94.9924 19.3303C95.5223 19.0655 96.1845 18.8007 96.8468 18.4035C97.5091 18.0063 98.0389 17.6091 98.7012 17.0795C99.3635 16.5499 99.8933 16.0202 100.556 15.3582C100.556 15.3582 100.688 15.2258 100.82 15.2258C100.953 15.2258 100.953 15.0934 101.085 15.0934C101.218 14.961 101.35 14.961 101.483 14.961C101.615 14.961 101.748 14.961 101.88 14.961C101.88 14.961 102.013 14.961 102.145 15.0934C102.277 15.0934 102.41 15.2258 102.542 15.3582C102.675 15.4906 102.807 15.4906 102.807 15.623C102.807 15.7554 102.807 15.7554 102.807 15.8878ZM94.9924 10.3269C94.9924 10.0621 94.86 9.79725 94.86 9.66484C94.7275 9.53244 94.5951 9.53244 94.4626 9.53244C94.1977 9.53244 93.9328 9.66484 93.5354 10.0621C93.2705 10.3269 92.8731 10.8565 92.6082 11.2537C92.3433 11.7833 92.0784 12.3129 91.8135 12.9749C91.5486 13.637 91.4161 14.299 91.4161 14.961C91.5486 14.8286 91.8135 14.5638 92.0784 14.4314C92.3433 14.299 92.6082 14.0342 92.8732 13.7694C93.1381 13.5046 93.5354 13.1074 93.8003 12.8425C94.0652 12.5777 94.3302 12.3129 94.4626 11.9157C94.7275 11.6509 94.86 11.3861 94.9924 11.1213C94.86 10.9889 94.9924 10.7241 94.9924 10.3269Z" fill="#222222"/>
<path d="M113.137 15.757C112.607 16.2866 111.945 16.8162 111.282 17.4782C110.62 18.0079 109.958 18.5375 109.163 18.9347C108.501 19.3319 107.706 19.7291 106.911 19.9939C106.117 20.2587 105.454 20.3911 104.66 20.3911C103.997 20.3911 103.467 20.2587 102.938 20.1263C102.54 19.9939 102.143 19.7291 101.746 19.3319C101.481 19.0671 101.216 18.6699 101.083 18.2727C100.951 17.8754 100.818 17.3458 100.818 16.9486C100.818 16.2866 100.951 15.757 101.348 15.4922C101.613 15.095 102.143 14.9626 102.673 14.9626C103.07 14.9626 103.335 15.095 103.6 15.3598C103.865 15.6246 103.997 16.0218 103.997 16.5514C103.997 16.8162 104.13 16.9486 104.13 17.081C104.262 17.2134 104.262 17.3458 104.395 17.4782C104.527 17.6106 104.66 17.6106 104.792 17.6106C104.924 17.6106 105.057 17.6106 105.189 17.6106C105.852 17.6106 106.646 17.4782 107.309 17.2134C108.103 16.9486 108.898 16.419 109.825 15.6246C109.296 15.4922 108.898 15.3598 108.501 15.2274C108.103 14.9626 107.839 14.8302 107.574 14.4329C107.309 14.1681 107.176 13.7709 107.044 13.5061C106.911 13.1089 106.911 12.8441 106.911 12.4469C106.911 11.7849 107.044 10.9904 107.309 10.4608C107.574 9.79879 108.103 9.26918 108.766 8.60716C109.163 8.34235 109.428 8.07754 109.825 7.81273C110.223 7.54792 110.62 7.28311 111.15 7.15071C111.547 7.01831 112.077 6.7535 112.607 6.7535C113.137 6.62109 113.667 6.62109 114.196 6.62109C114.594 6.62109 114.991 6.62109 115.388 6.7535C115.786 6.8859 116.051 7.01831 116.316 7.28311C116.581 7.54792 116.845 7.81273 116.978 8.20994C117.11 8.60716 117.243 9.00437 117.243 9.66639C117.243 9.9312 117.243 10.0636 117.243 10.3284C117.243 10.5932 117.11 10.7256 117.11 10.9904C117.11 11.2552 116.978 11.3876 116.978 11.6525C116.978 11.7849 116.845 12.0497 116.845 12.0497C116.845 12.1821 116.713 12.3145 116.713 12.4469C116.713 12.5793 116.713 12.5793 116.713 12.7117C116.713 12.8441 116.713 12.8441 116.713 12.8441C116.713 12.8441 116.845 12.9765 116.845 13.1089C116.845 13.2413 116.978 13.2413 116.978 13.3737C116.978 13.5061 116.978 13.5061 116.978 13.6385C116.978 13.7709 116.978 13.9033 116.845 14.1681C116.713 14.4329 116.713 14.6977 116.581 14.9626C116.448 15.4922 116.183 16.1542 116.051 16.6838C115.918 17.2134 115.786 17.8754 115.786 18.4051C115.786 18.6699 115.786 18.9347 115.918 19.1995C116.051 19.4643 116.183 19.5967 116.448 19.5967C117.11 19.5967 117.905 19.3319 118.832 18.8023C119.759 18.2727 120.687 17.4782 121.614 16.5514C121.879 16.2866 122.011 16.1542 122.276 16.0218C122.541 15.8894 122.674 15.8894 122.806 15.8894C122.938 15.8894 123.071 15.8894 123.336 16.0218C123.468 16.1542 123.601 16.2866 123.601 16.5514C123.601 16.9486 123.336 17.4782 122.938 18.0079C122.409 18.5375 121.879 19.0671 121.349 19.5967C120.819 20.1263 120.157 20.6559 119.627 21.0531C118.965 21.4504 118.302 21.8476 117.64 22.1124C116.978 22.3772 116.316 22.5096 115.521 22.5096C114.594 22.5096 113.931 22.2448 113.402 21.7152C112.872 21.1856 112.739 20.3911 112.739 19.4643C112.739 19.1995 112.739 18.9347 112.739 18.6699C112.739 18.4051 112.872 18.1403 112.872 17.8754C112.872 17.6106 113.004 17.3458 113.004 17.081C113.004 16.8162 113.137 16.5514 113.269 16.419L113.137 15.757ZM114.859 9.66639C114.859 9.40158 114.859 9.13677 114.726 9.00437C114.594 8.87196 114.461 8.73956 114.196 8.73956C113.667 8.73956 113.137 8.87196 112.739 9.00437C112.342 9.26918 111.945 9.53399 111.547 9.79879C111.15 10.196 110.885 10.4608 110.753 10.9904C110.488 11.3876 110.355 11.7849 110.355 12.1821C110.355 12.3145 110.355 12.4469 110.488 12.5793C110.62 12.7117 110.62 12.8441 110.753 12.9765C110.885 13.1089 111.017 13.1089 111.15 13.2413C111.282 13.2413 111.547 13.3737 111.68 13.3737C111.812 13.3737 111.945 13.3737 112.21 13.3737C112.342 13.3737 112.607 13.3737 112.739 13.2413C112.872 13.2413 113.004 13.1089 113.137 13.1089C113.269 13.1089 113.402 12.9765 113.402 12.9765C113.534 12.8441 113.667 12.7117 113.799 12.4469C114.064 12.1821 114.196 11.9173 114.329 11.52C114.461 11.2552 114.594 10.858 114.726 10.5932C114.726 10.196 114.859 9.9312 114.859 9.66639Z" fill="#222222"/>
<path d="M6.51093 31.9099C6.51093 32.1748 6.51093 32.4396 6.37847 32.8368C6.24601 33.1016 6.24602 33.4988 6.11356 33.896C5.9811 34.2932 5.84865 34.558 5.71619 34.9552C5.58374 35.3525 5.31883 35.6173 5.18637 35.8821C5.05391 36.1469 4.789 36.4117 4.52409 36.5441C4.25918 36.8089 3.99427 36.9413 3.72936 37.0737C3.46445 37.2061 3.19954 37.3385 2.80217 37.4709C2.53726 37.6033 2.13989 37.6033 1.87498 37.6033C1.74252 37.6033 1.61007 37.6033 1.47761 37.4709C1.34516 37.3385 1.2127 37.2061 1.08025 37.0737C0.947791 36.9413 0.815336 36.6765 0.815336 36.5441C0.417969 36.2793 0.417969 36.0145 0.417969 35.7497C0.417969 35.4849 0.417969 35.0876 0.550424 34.8228C0.550424 34.558 0.68288 34.1608 0.815336 33.7636C0.947791 33.3664 1.2127 33.1016 1.47761 32.7044C1.74252 32.3072 2.00744 32.0423 2.4048 31.6451C2.53726 31.5127 2.53726 31.5127 2.66971 31.3803C2.80217 31.2479 2.93462 31.2479 3.06708 31.1155C3.19954 30.9831 3.33199 30.9831 3.46445 30.9831C3.5969 30.9831 3.72936 30.8507 3.72936 30.8507C3.99427 30.7183 4.12673 30.7183 4.25918 30.7183C4.39164 30.7183 4.65655 30.5859 4.789 30.5859C4.789 30.5859 4.789 30.5859 4.789 30.4535C4.789 30.3211 4.789 30.1887 4.789 30.1887C4.789 30.0563 4.65655 29.9239 4.65655 29.7915C4.65655 29.6591 4.52409 29.5267 4.52409 29.5267C4.39164 29.3943 4.39164 29.2619 4.25918 29.1295C4.12673 28.9971 4.12673 28.9971 3.99427 28.8646C3.86181 28.8646 3.72936 28.7322 3.5969 28.7322C3.46445 28.7322 3.33199 28.5998 3.19954 28.5998C3.06708 28.5998 2.93462 28.5998 2.93462 28.5998C2.80217 28.5998 2.66971 28.5998 2.53726 28.7322C2.4048 28.7322 2.27235 28.8646 2.13989 28.8646C2.00744 28.8646 1.87498 28.9971 1.87498 28.9971C1.74252 28.9971 1.74252 28.9971 1.61007 28.9971C1.47761 28.9971 1.34516 28.9971 1.34516 28.8646C1.2127 28.7322 1.2127 28.7322 1.2127 28.5998C1.2127 28.4674 1.2127 28.4674 1.34516 28.335C1.34516 28.2026 1.47761 28.2026 1.47761 28.0702C1.61007 27.9378 1.61007 27.9378 1.74252 27.8054C1.74252 27.8054 1.74252 27.8054 1.87498 27.673C2.13989 27.5406 2.27235 27.5406 2.53726 27.4082C2.66971 27.4082 2.93462 27.4082 3.19954 27.4082C3.5969 27.4082 3.99427 27.4082 4.25918 27.5406C4.65655 27.673 4.92146 27.8054 5.18637 27.9378C5.45128 28.0702 5.71619 28.335 5.84865 28.7322C6.11356 28.9971 6.24601 29.3943 6.37847 29.9239C6.37847 30.0563 6.37847 30.1887 6.51093 30.3211C6.51093 30.4535 6.51093 30.7183 6.51093 30.8507C6.51093 30.9831 6.51093 31.2479 6.51093 31.3803C6.51093 31.5127 6.51093 31.7775 6.51093 31.9099ZM5.05391 31.9099C4.92146 31.9099 4.789 31.9099 4.65655 31.9099C4.52409 31.9099 4.39164 32.0423 4.25918 32.0423C4.12673 32.0423 3.99427 32.1748 3.86181 32.3072C3.72936 32.4396 3.5969 32.4396 3.46445 32.572C3.46445 32.572 3.46445 32.572 3.33199 32.7044C3.33199 32.8368 3.19954 32.8368 3.06708 32.9692C2.93462 33.1016 2.93462 33.234 2.80217 33.234C2.66971 33.3664 2.66971 33.3664 2.66971 33.4988C2.53726 33.7636 2.4048 33.896 2.27235 34.1608C2.13989 34.4256 2.13989 34.558 2.00744 34.6904C2.00744 34.8228 1.87498 35.0876 1.87498 35.22C1.87498 35.3525 1.87498 35.4849 1.87498 35.6173C1.87498 35.7497 1.87498 35.8821 2.00744 35.8821C2.00744 36.0145 2.13989 36.0145 2.13989 36.0145C2.27235 36.0145 2.27235 36.0145 2.4048 36.0145C2.53726 36.0145 2.53726 36.0145 2.66971 35.8821C2.80217 35.8821 2.80217 35.7497 2.93462 35.7497C3.06708 35.8821 3.19954 35.8821 3.33199 35.7497C3.5969 35.4849 3.86181 35.22 4.12673 34.9552C4.39164 34.6904 4.52409 34.2932 4.65655 33.896C4.789 33.4988 4.92146 33.234 5.05391 32.8368C5.05391 32.572 5.05391 32.1748 5.05391 31.9099Z" fill="#222222"/>
<path d="M16.5762 32.8364C16.5762 32.8364 16.5762 32.9688 16.5762 33.1012C16.5762 33.2336 16.4438 33.366 16.4438 33.366C15.914 34.028 15.5166 34.5577 14.9868 35.0873C14.457 35.6169 14.0596 36.1465 13.5298 36.5437C13.1324 36.9409 12.6026 37.3381 12.2052 37.4705C11.8078 37.7354 11.278 37.8678 10.8807 37.8678C10.4833 37.8678 10.2184 37.7354 9.82101 37.7354C9.5561 37.603 9.29118 37.4706 9.15873 37.2057C9.02627 36.9409 8.89382 36.6761 8.76136 36.4113C8.62891 36.1465 8.62891 35.7493 8.62891 35.3521C8.62891 35.0873 8.62891 34.6901 8.76136 34.4253C8.76136 34.028 8.89382 33.7632 9.02627 33.366C9.15873 32.9688 9.29118 32.704 9.42364 32.4392C9.42364 32.042 9.68855 31.7772 9.95346 31.5124C10.0859 31.38 10.2184 31.2476 10.3508 31.1151C10.4833 30.9827 10.6157 30.8503 10.7482 30.8503C10.8807 30.7179 11.0131 30.7179 11.278 30.5855C11.4105 30.5855 11.6754 30.4531 11.8078 30.4531C11.9403 30.4531 12.2052 30.4531 12.3377 30.5855C12.4701 30.7179 12.6026 30.7179 12.735 30.8503C12.8675 30.9827 12.8675 31.1151 12.9999 31.2476C12.9999 31.38 13.1324 31.5124 13.1324 31.7772C13.1324 31.9096 13.1324 32.1744 12.9999 32.3068C12.9999 32.5716 12.8675 32.704 12.735 32.9688C12.6026 33.2336 12.4701 33.366 12.3377 33.6308C12.2052 33.8956 11.9403 34.028 11.6754 34.2928C11.5429 34.4253 11.5429 34.4253 11.4105 34.5577C11.278 34.6901 11.1456 34.8225 11.0131 34.9549C10.8807 35.0873 10.7482 35.2197 10.6157 35.3521C10.4833 35.4845 10.3508 35.6169 10.2184 35.7493C10.2184 35.8817 10.2184 35.8817 10.2184 36.0141C10.2184 36.1465 10.3508 36.2789 10.3508 36.2789C10.4833 36.4113 10.4833 36.4113 10.6157 36.5437C10.7482 36.5437 10.8807 36.6761 11.0131 36.6761C11.278 36.6761 11.6754 36.5437 12.0728 36.4113C12.4701 36.1465 12.8675 35.8817 13.2649 35.6169C13.6622 35.2197 14.0596 34.8225 14.457 34.4253C14.8543 34.028 15.2517 33.4984 15.7815 33.1012C15.7815 32.9688 15.914 32.9688 16.0464 32.8364C16.1789 32.704 16.3113 32.704 16.4438 32.704C16.4438 32.704 16.4438 32.704 16.5762 32.704C16.5762 32.704 16.7087 32.704 16.7087 32.8364C16.4438 32.704 16.4438 32.704 16.5762 32.8364ZM11.6754 32.1744C11.6754 32.042 11.6754 32.042 11.6754 31.9096L11.5429 31.7772C11.4105 31.7772 11.1456 31.9096 11.0131 32.042C10.8807 32.1744 10.7482 32.4392 10.6157 32.5716C10.4833 32.8364 10.3508 33.1012 10.2184 33.4984C10.0859 33.7632 9.95346 34.1604 9.95346 34.5577L10.0859 34.4253L10.2184 34.2928L10.3508 34.1604L10.4833 34.028C10.7482 33.7632 11.0131 33.4984 11.1456 33.366C11.278 33.1012 11.4105 32.9688 11.5429 32.8364C11.6754 32.704 11.6754 32.5716 11.6754 32.4392C11.6754 32.4392 11.6754 32.3068 11.6754 32.1744Z" fill="#222222"/>
<path d="M25.1876 32.0421C25.1876 32.1745 25.1876 32.3069 25.1876 32.4393C25.1876 32.5717 25.1876 32.7041 25.0551 32.8365C25.0551 32.9689 24.9226 33.2337 24.9226 33.4985C24.9226 33.7633 24.9226 34.0281 24.9226 34.1605C24.9226 34.2929 24.9226 34.4253 24.9226 34.5577C24.9226 34.6901 25.0551 34.8226 25.0551 34.955C25.0551 35.0874 25.1875 35.2198 25.32 35.2198C25.4525 35.3522 25.4525 35.3522 25.5849 35.3522C25.7174 35.3522 25.9823 35.3522 26.1147 35.2198C26.2472 35.0874 26.5121 34.955 26.777 34.8225C27.0419 34.6901 27.1744 34.5577 27.4393 34.2929C27.7042 34.1605 27.8367 33.8957 28.1016 33.7633C28.3665 33.4985 28.4989 33.3661 28.6314 33.1013C28.7639 32.8365 29.0288 32.7041 29.1612 32.5717L29.2937 32.4393H29.4261C29.4261 32.4393 29.5586 32.4393 29.5586 32.5717C29.5586 32.5717 29.691 32.7041 29.691 32.8365C29.691 32.9689 29.691 33.1013 29.5586 33.2337C29.5586 33.3661 29.4261 33.6309 29.2937 33.8957C29.1612 34.0281 29.0288 34.1605 28.8963 34.4253C28.7639 34.6901 28.4989 34.8226 28.3665 35.0874C28.1016 35.3522 27.9691 35.4846 27.7042 35.7494C27.4393 36.0142 27.1744 36.1466 26.9095 36.279C26.6446 36.4114 26.3797 36.5438 26.1147 36.6762C25.8498 36.8086 25.5849 36.8086 25.32 36.8086C24.9226 36.8086 24.6577 36.6762 24.3928 36.5438C24.1279 36.4114 23.9955 36.1466 23.863 36.0142C23.7305 35.7494 23.5981 35.4846 23.5981 35.2198C23.5981 34.955 23.4656 34.6901 23.4656 34.4253C23.4656 34.4253 23.4656 34.2929 23.4656 34.1605C23.4656 34.0281 23.4656 34.0281 23.4656 33.8957C23.4656 33.7633 23.4656 33.6309 23.4656 33.4985C23.4656 33.3661 23.4656 33.2337 23.5981 33.1013C23.4656 33.2337 23.3332 33.3661 23.2007 33.6309C23.0683 33.8957 22.8033 34.0281 22.6709 34.2929C22.406 34.5577 22.2735 34.8226 22.1411 35.0874C22.0086 35.3522 21.7437 35.617 21.6112 35.8818C21.6112 36.0142 21.4788 36.1466 21.4788 36.1466C21.4788 36.279 21.3463 36.279 21.3463 36.4114C21.2139 36.5438 21.2139 36.5438 21.0814 36.5438C20.949 36.5438 20.949 36.5438 20.8165 36.5438H20.6841C20.5516 36.5438 20.5516 36.4114 20.4191 36.4114C20.2867 36.4114 20.2867 36.279 20.1542 36.279C20.0218 36.279 20.0218 36.1466 20.0218 36.1466C20.0218 36.0142 20.0218 36.0142 20.0218 35.7494C20.0218 35.617 20.0218 35.617 20.0218 35.4846C20.0218 35.3522 20.0218 35.2198 20.0218 35.0874C20.0218 34.955 20.0218 34.8226 20.0218 34.5577C20.0218 34.4253 20.0218 34.1605 20.0218 34.0281C20.0218 33.8957 20.0218 33.7633 20.0218 33.4985C20.0218 33.3661 20.0218 33.2337 20.0218 33.1013C20.0218 33.1013 19.8893 33.2337 19.7569 33.2337C19.6244 33.3661 19.6244 33.3661 19.492 33.4985C19.3595 33.6309 19.3595 33.7633 19.227 33.8957C19.0946 34.0281 19.0946 34.1605 18.9621 34.2929C18.6972 34.8226 18.4323 35.2198 18.1674 35.617C17.9025 36.0142 17.77 36.279 17.6376 36.5438C17.5051 36.6762 17.5051 36.941 17.3727 37.0734C17.2402 37.2058 17.2402 37.3382 17.1078 37.3382C16.9753 37.4706 16.9753 37.4706 16.8428 37.4706C16.7104 37.4706 16.7104 37.4706 16.5779 37.4706C16.4455 37.4706 16.1806 37.4706 16.1806 37.3382C16.0481 37.2058 16.0481 37.0734 15.9157 36.941C15.9157 36.8086 15.7832 36.5438 15.7832 36.4114C15.7832 36.1466 15.7832 36.0142 15.7832 35.7494C15.7832 35.4846 15.7832 35.3522 15.7832 35.0874C15.7832 34.8226 15.7832 34.5577 15.7832 34.4253C15.7832 34.1605 15.7832 34.0281 15.7832 33.7633C15.7832 33.4985 15.7832 33.3661 15.7832 33.2337C15.7832 33.1013 15.7832 32.9689 15.7832 32.8365C15.7832 32.7041 15.7832 32.5717 15.7832 32.4393C15.7832 32.1745 15.7832 32.0421 15.9157 31.9097C15.9157 31.7773 16.0481 31.6448 16.1806 31.5124C16.313 31.7773 16.4455 31.7773 16.5779 31.7773C16.7104 31.7773 16.8428 31.7773 16.9753 31.7773C17.1078 31.7773 17.2402 31.7773 17.2402 31.7773C17.3727 31.7773 17.3727 31.7773 17.3727 31.9097L17.5051 32.0421C17.5051 32.1745 17.5051 32.1745 17.5051 32.3069C17.5051 32.3069 17.5051 32.4393 17.5051 32.5717C17.5051 32.7041 17.5051 32.9689 17.3727 33.1013C17.3727 33.3661 17.2402 33.4985 17.2402 33.7633C17.2402 34.0281 17.1078 34.2929 17.1078 34.5577C17.1078 34.8226 16.9753 34.955 16.9753 35.0874C16.9753 35.2198 16.9753 35.3522 16.9753 35.3522C16.9753 35.2198 17.1078 35.0874 17.1078 34.955C17.2402 34.8226 17.2402 34.6901 17.3727 34.4253C17.5051 34.2929 17.5051 34.0281 17.6376 33.8957C17.77 33.7633 17.77 33.6309 17.9025 33.4985C18.1674 33.1013 18.2999 32.8365 18.5648 32.5717C18.8297 32.3069 18.9621 32.0421 19.227 31.9097C19.492 31.7773 19.6244 31.6448 19.8893 31.5124C20.0218 31.38 20.2867 31.38 20.4191 31.38C20.5516 31.38 20.6841 31.5124 20.8165 31.5124C20.949 31.6448 21.0814 31.7773 21.0814 31.9097C21.2139 32.0421 21.2139 32.1745 21.2139 32.4393C21.2139 32.5717 21.2139 32.8365 21.2139 32.9689C21.2139 32.9689 21.2139 33.1013 21.2139 33.2337C21.2139 33.3661 21.2139 33.4985 21.2139 33.6309C21.2139 33.7633 21.2139 33.8957 21.2139 34.0281C21.2139 34.1605 21.2139 34.2929 21.2139 34.4253C21.2139 34.4253 21.3463 34.2929 21.3463 34.1605C21.4788 34.0281 21.4788 33.8957 21.6112 33.7633C21.7437 33.6309 21.7437 33.4985 21.8762 33.3661C22.0086 33.2337 22.0086 33.2337 22.0086 33.1013C22.2735 32.8365 22.406 32.5717 22.6709 32.3069C22.9358 32.0421 23.0683 31.9097 23.3332 31.6449C23.5981 31.5124 23.7305 31.38 23.9954 31.2476C24.2604 31.1152 24.3928 31.1152 24.6577 31.1152C24.7902 31.1152 24.7902 31.1152 24.9226 31.2476C25.0551 31.2476 25.0551 31.38 25.1876 31.38C25.1876 31.5124 25.32 31.5124 25.32 31.6449C25.1875 31.7773 25.1876 31.9097 25.1876 32.0421Z" fill="#222222"/>
<path d="M37.1073 32.5716V32.704V32.8364C37.1073 32.9688 37.1073 32.9688 36.9748 33.1012C36.9748 33.1012 36.9748 33.2336 36.8424 33.2336C36.5775 33.4984 36.445 33.7632 36.1801 34.1604C35.9152 34.4253 35.6503 34.6901 35.3854 34.9549C35.1205 35.2197 34.8556 35.4845 34.4582 35.7493C34.1933 36.0141 33.7959 36.2789 33.3985 36.4113C33.2661 36.5437 33.0012 36.6761 32.7363 36.8085C32.4714 36.9409 32.2064 37.0733 32.074 37.0733C31.8091 37.2057 31.5442 37.2057 31.2793 37.2057C31.0143 37.2057 30.7494 37.3381 30.4845 37.3381C30.2196 37.3381 29.8222 37.3381 29.5573 37.2057C29.2924 37.0733 29.0275 36.9409 28.8951 36.6761C28.7626 36.4113 28.6301 36.2789 28.4977 36.0141C28.3652 35.7493 28.3652 35.4845 28.3652 35.2197C28.3652 34.6901 28.4977 34.028 28.7626 33.4984C29.0275 32.9688 29.2924 32.4392 29.8222 31.7772C29.9547 31.6448 30.0872 31.5124 30.2196 31.38C30.3521 31.2476 30.4845 31.1151 30.7494 30.9827C30.8819 30.8503 31.1468 30.7179 31.2793 30.5855C31.4117 30.4531 31.6766 30.4531 31.8091 30.4531C31.9415 30.4531 32.2064 30.4531 32.3389 30.5855C32.4714 30.7179 32.6038 30.8503 32.7363 30.9827C32.8687 31.1151 33.0012 31.38 33.0012 31.5124C33.0012 31.6448 33.1336 31.9096 33.1336 32.042C33.1336 32.1744 33.1336 32.1744 33.1336 32.3068C33.1336 32.4392 33.1336 32.5716 33.0012 32.5716C33.0012 32.704 32.8687 32.704 32.8687 32.8364C32.7363 32.9688 32.7363 32.9688 32.6038 32.9688C32.3389 32.9688 32.2064 32.9688 32.2064 32.8364C32.074 32.704 32.074 32.5716 31.9415 32.3068C31.9415 32.1744 31.9415 32.042 31.8091 31.9096L31.6766 31.7772C31.6766 31.7772 31.5442 31.7772 31.4117 31.9096C31.2793 32.042 31.2793 32.042 31.1468 32.1744C31.0143 32.3068 30.8819 32.4392 30.8819 32.5716C30.7494 32.704 30.617 32.8364 30.617 33.1012C30.4845 33.2336 30.4845 33.366 30.3521 33.6308C30.3521 33.7632 30.2196 34.028 30.2196 34.1604C30.2196 34.2928 30.0872 34.5577 30.0872 34.6901C30.0872 34.8225 30.0872 35.0873 30.0872 35.2197C30.0872 35.3521 30.0872 35.4845 30.0872 35.6169C30.0872 35.7493 30.2196 35.7493 30.2196 35.8817C30.3521 36.0141 30.3521 36.0141 30.4845 36.0141C30.617 36.0141 30.617 36.1465 30.7494 36.1465C31.0143 36.1465 31.2793 36.1465 31.4117 36.0141C31.6766 36.0141 31.9415 35.8817 32.074 35.7493C32.3389 35.6169 32.4714 35.4845 32.7363 35.4845C33.0012 35.3521 33.1336 35.2197 33.3985 35.0873C33.6635 34.9549 33.9284 34.6901 34.1933 34.4253C34.4582 34.1604 34.7231 34.028 34.988 33.7632C35.2529 33.4984 35.3854 33.366 35.6503 33.1012C35.7827 32.8364 36.0477 32.704 36.1801 32.5716C36.3126 32.4392 36.3126 32.4392 36.445 32.3068L36.5775 32.1744C36.5775 32.1744 36.7099 32.1744 36.7099 32.042C36.7099 32.042 36.8424 32.042 36.9748 32.042C36.9748 32.042 36.9748 32.042 37.1073 32.1744C37.1073 32.3068 37.1073 32.4392 37.1073 32.5716Z" fill="#222222"/>
<path d="M45.8495 33.1013C45.8495 33.1013 45.8495 33.2337 45.717 33.3661C45.717 33.4985 45.5846 33.6309 45.4521 33.7633C45.3197 33.8957 45.3197 34.0281 45.1872 34.1605C45.0547 34.2929 44.9223 34.4253 44.7898 34.5577C44.3925 35.0874 43.8626 35.617 43.4653 36.0142C43.0679 36.4114 42.6705 36.6762 42.4056 36.941C42.0083 37.2058 41.7434 37.3382 41.4784 37.4706C41.2135 37.603 40.9486 37.603 40.6837 37.603C40.4188 37.603 40.1539 37.603 39.889 37.4706C39.6241 37.3382 39.4916 37.2058 39.3591 37.0734C39.2267 36.941 39.0942 36.8086 38.9618 36.5438C38.8293 36.279 38.8293 36.1466 38.6969 35.8818C38.6969 35.617 38.6969 35.4846 38.5644 35.3522C38.5644 35.2198 38.5644 35.0874 38.432 35.0874L38.2995 34.955H38.167H38.0346C37.9021 34.955 37.9021 34.955 37.7697 35.0874C37.6372 35.0874 37.6372 35.0874 37.5048 35.2198C37.3723 35.2198 37.3723 35.3522 37.3723 35.3522C37.3723 35.3522 37.3723 35.3522 37.3723 35.4846C37.3723 35.4846 37.3723 35.617 37.3723 35.7494C37.3723 35.8818 37.3723 35.8818 37.3723 36.0142C37.3723 36.1466 37.3723 36.1466 37.3723 36.279C37.3723 36.4114 37.2399 36.5438 37.2399 36.6762C37.2399 36.8086 37.1074 36.941 37.1074 37.0734C37.1074 37.2058 36.9749 37.3382 36.9749 37.4706C36.8425 37.603 36.8425 37.603 36.71 37.7354C36.5776 37.7354 36.5776 37.8678 36.4451 37.8678C36.3127 37.8678 36.3127 37.8678 36.1802 37.8678C36.0478 37.8678 36.0478 37.8678 35.9153 37.8678C35.7828 37.8678 35.7828 37.7354 35.7828 37.7354C35.7828 37.603 35.6504 37.603 35.6504 37.4706C35.6504 37.3382 35.6504 37.3382 35.6504 37.2058C35.6504 37.0734 35.6504 37.0734 35.6504 36.941C35.6504 36.8086 35.7828 36.6762 35.7828 36.5438C35.7828 36.4114 35.9153 36.1466 35.9153 35.8818C36.0478 35.617 36.0478 35.3522 36.1802 34.955C36.1802 34.6901 36.3127 34.4253 36.3127 34.1605C36.3127 33.8957 36.3127 33.6309 36.4451 33.3661C36.4451 33.1013 36.4451 32.8365 36.4451 32.5717C36.4451 32.3069 36.4451 32.0421 36.4451 31.7773C36.4451 31.6449 36.4451 31.5124 36.5776 31.5124C36.5776 31.38 36.71 31.38 36.8425 31.2476C36.9749 31.1152 36.9749 31.1152 37.1074 31.1152C37.2399 31.1152 37.2399 31.1152 37.3723 31.1152C37.5048 31.1152 37.6372 31.1152 37.6372 31.1152C37.7697 31.1152 37.7697 31.2476 37.9021 31.2476C38.0346 31.38 38.0346 31.5124 38.0346 31.6449C38.0346 31.7773 38.167 32.0421 38.167 32.1745C38.167 32.3069 38.167 32.5717 38.167 32.7041C38.167 32.8365 38.167 33.1013 38.167 33.2337C38.167 33.3661 38.167 33.4985 38.0346 33.7633C38.0346 33.8957 38.0346 34.0281 37.9021 34.2929C38.0346 34.2929 38.2995 34.1605 38.432 34.1605C38.5644 34.0281 38.6969 34.0281 38.9618 33.8957C39.0942 33.7633 39.2267 33.6309 39.3591 33.4985C39.4916 33.3661 39.6241 33.2337 39.7565 32.9689C39.889 32.8365 40.0214 32.7041 40.1539 32.4393C40.2863 32.3069 40.4188 32.1745 40.4188 32.0421C40.4188 31.9097 40.5512 31.7773 40.5512 31.7773C40.5512 31.6449 40.6837 31.6448 40.6837 31.5124C40.8162 31.38 40.8162 31.38 40.9486 31.38C41.0811 31.38 41.2135 31.2476 41.346 31.2476C41.4784 31.2476 41.6109 31.2476 41.6109 31.2476C41.7434 31.2476 41.8758 31.38 41.8758 31.38C42.0083 31.5124 42.0083 31.5124 42.1407 31.6449C42.2732 31.7773 42.2732 31.7773 42.2732 31.9097V32.0421C42.2732 32.0421 42.2732 32.1745 42.1407 32.1745L42.0083 32.3069C42.0083 32.3069 41.8758 32.4393 41.7434 32.4393C41.7434 32.4393 41.6109 32.4393 41.6109 32.5717C41.6109 32.5717 41.4784 32.7041 41.4784 32.8365C41.346 32.9689 41.346 32.9689 41.2135 33.1013C41.0811 33.2337 41.0811 33.3661 40.9486 33.4985C40.8162 33.7633 40.5513 33.8957 40.4188 34.1605C40.1539 34.2929 40.0214 34.5577 39.6241 34.6901L39.7565 34.8225C39.7565 34.8225 39.889 34.955 39.889 35.0874C39.889 35.2198 40.0214 35.2198 40.0214 35.3522C40.0214 35.4846 40.0214 35.4846 40.0214 35.617C40.1539 35.8818 40.1539 36.1466 40.2863 36.4114C40.4188 36.5438 40.6837 36.6762 40.9486 36.6762C41.0811 36.6762 41.2135 36.6762 41.4784 36.5438C41.6109 36.5438 41.7434 36.4114 42.0083 36.279C42.1407 36.1466 42.4056 36.0142 42.5381 35.8818C42.6705 35.7494 42.9355 35.617 43.0679 35.3522C43.2004 35.2198 43.3328 35.0874 43.5977 34.8225C43.7302 34.6901 43.9951 34.4253 44.1276 34.2929C44.26 34.1605 44.3925 33.8957 44.5249 33.7633C44.6574 33.6309 44.7898 33.4985 44.7898 33.3661C44.9223 33.2337 45.0547 33.1013 45.1872 32.9689C45.3197 32.8365 45.4521 32.8365 45.4521 32.8365C45.4521 32.8365 45.5846 32.8365 45.5846 32.9689C45.8495 32.8365 45.8495 32.9689 45.8495 33.1013Z" fill="#222222"/>
<path d="M53.9297 32.8368C53.9297 32.9692 53.7973 33.234 53.6648 33.3664C53.5324 33.4988 53.3999 33.7636 53.135 33.896C52.8701 34.0284 52.6052 34.1609 52.3403 34.2933C52.0754 34.2933 51.8104 34.4257 51.4131 34.4257C51.2806 34.4257 51.1482 34.4257 51.0157 34.4257C50.8833 34.4257 50.7508 34.4257 50.6183 34.2933C50.4859 34.2933 50.3534 34.1609 50.3534 34.1609C50.221 34.1609 50.221 34.0284 50.0885 34.0284V34.1609C50.0885 34.1609 50.0885 34.1609 50.0885 34.2933C50.0885 34.4257 50.0885 34.4257 50.0885 34.5581C50.0885 34.6905 50.0885 34.8229 49.9561 34.9553C49.9561 35.0877 49.8236 35.2201 49.8236 35.3525C49.6912 35.4849 49.6912 35.6173 49.5587 35.7497C49.4262 35.8821 49.2938 36.0145 49.1613 36.1469C49.0289 36.2793 48.8964 36.4117 48.6315 36.5441C48.4991 36.6765 48.2341 36.8089 48.1017 36.9413C47.8368 37.0737 47.7043 37.2061 47.4394 37.2061C47.1745 37.3386 47.042 37.3386 46.7771 37.471C46.5122 37.471 46.3798 37.6034 46.2473 37.6034C45.9824 37.6034 45.585 37.6034 45.4526 37.471C45.1877 37.3386 45.0552 37.2061 44.9228 37.0737C44.7903 36.9413 44.6578 36.6765 44.6578 36.4117C44.6578 36.1469 44.5254 35.8821 44.5254 35.6173C44.5254 35.3525 44.5254 35.0877 44.6578 34.8229C44.6578 34.5581 44.7903 34.2933 44.9228 34.0284C45.0552 33.7636 45.1877 33.4988 45.3201 33.234C45.4526 32.9692 45.585 32.7044 45.7175 32.572C46.1149 31.91 46.3798 31.5128 46.9096 31.1156C47.307 30.8507 47.8368 30.5859 48.3666 30.5859C48.4991 30.5859 48.6315 30.5859 48.764 30.5859C48.8964 30.5859 49.0289 30.7183 49.1613 30.7183C49.2938 30.7183 49.4262 30.8507 49.5587 30.9831C49.6912 31.1156 49.8236 31.1156 49.8236 31.248C49.8236 31.248 49.9561 31.3804 49.9561 31.5128C49.9561 31.6452 50.0885 31.7776 50.0885 31.91C50.0885 32.0424 50.221 32.1748 50.221 32.3072C50.221 32.4396 50.221 32.4396 50.221 32.4396C50.3534 32.572 50.3534 32.7044 50.4859 32.7044C50.6183 32.8368 50.7508 32.8368 50.8833 32.9692C51.0157 33.1016 51.1482 33.1016 51.2806 33.1016C51.4131 33.1016 51.5455 33.1016 51.8104 33.1016C51.9429 33.1016 52.0754 33.1016 52.2078 33.1016C52.3403 33.1016 52.4727 33.1016 52.6052 32.9692C52.7376 32.9692 52.8701 32.8368 53.0025 32.8368C53.135 32.8368 53.2675 32.7044 53.3999 32.572C53.5324 32.4396 53.5324 32.4396 53.6648 32.3072C53.7973 32.3072 53.7973 32.1748 53.9297 32.1748C54.0622 32.1748 54.0622 32.1748 54.1946 32.3072C53.9297 32.7044 53.9297 32.7044 53.9297 32.8368ZM48.6315 33.234C48.6315 33.1016 48.6315 33.1016 48.6315 32.9692V32.8368V32.7044C48.6315 32.7044 48.6315 32.7044 48.6315 32.572L48.4991 32.4396C48.4991 32.3072 48.3666 32.3072 48.3666 32.1748L48.2341 32.0424C48.2341 32.0424 48.1017 31.91 48.1017 32.0424C47.9692 32.0424 47.8368 32.0424 47.7043 32.1748C47.5719 32.1748 47.4394 32.3072 47.307 32.4396C47.1745 32.572 47.042 32.7044 46.9096 32.8368C46.7771 32.9692 46.6447 33.234 46.6447 33.3664C46.5122 33.4988 46.5122 33.7636 46.3798 33.896C46.2473 34.1609 46.2473 34.2933 46.1149 34.5581C46.1149 34.8229 45.9824 34.9553 45.9824 35.2201C45.9824 35.4849 45.9824 35.6173 45.9824 35.7497C45.9824 35.8821 45.9824 36.0145 46.1149 36.0145C46.2473 36.1469 46.3798 36.1469 46.5122 36.1469C46.6447 36.1469 46.6447 36.1469 46.7771 36.1469C46.9096 36.1469 47.042 36.0145 47.1745 36.0145C47.307 35.8821 47.4394 35.8821 47.5719 35.7497C47.7043 35.6173 47.8368 35.6173 47.8368 35.4849C48.1017 35.2201 48.2341 35.0877 48.3666 34.9553C48.4991 34.8229 48.4991 34.6905 48.6315 34.4257C48.6315 34.2933 48.764 34.0284 48.764 33.896C48.6315 33.7636 48.6315 33.4988 48.6315 33.234Z" fill="#222222"/>
<path d="M61.7445 34.8232C61.7445 34.8232 61.7445 34.9556 61.6121 35.088C61.4796 35.2204 61.4796 35.3528 61.3472 35.6176C61.2147 35.75 61.0823 36.0148 60.8174 36.1472C60.6849 36.2796 60.42 36.5444 60.1551 36.6768C59.8902 36.8092 59.6253 36.9416 59.3603 37.074C59.0954 37.2064 58.8305 37.2064 58.5656 37.2064C58.3007 37.2064 58.1682 37.2064 58.0358 37.074C57.9033 36.9416 57.7709 36.9416 57.6384 36.8092C57.506 36.6768 57.3735 36.412 57.3735 36.2796C57.3735 36.0148 57.2411 35.75 57.2411 35.3528C57.2411 35.2204 57.2411 35.088 57.2411 34.9556C57.2411 34.8232 57.2411 34.6908 57.2411 34.5584C57.1086 34.6908 56.9761 34.9556 56.8437 35.2204C56.7112 35.4852 56.5788 35.6176 56.3139 35.8824C56.1814 36.1472 55.9165 36.2796 55.784 36.412C55.5191 36.5444 55.3867 36.8092 55.1218 36.9416C54.8569 37.074 54.7244 37.2064 54.4595 37.3388C54.1946 37.4712 54.0621 37.4712 53.9297 37.4712C53.9297 37.4712 53.7972 37.4712 53.6648 37.3388C53.5323 37.3388 53.3998 37.2064 53.2674 37.074C53.1349 36.9416 53.0025 36.8092 52.87 36.6768C52.7376 36.5444 52.7376 36.412 52.6051 36.2796C52.6051 36.1472 52.4727 36.0148 52.4727 35.8824C52.4727 35.75 52.4727 35.6176 52.4727 35.4852C52.4727 35.2204 52.4727 34.9556 52.6051 34.6908C52.6051 34.4259 52.7376 34.1611 52.87 33.7639C53.0025 33.4991 53.1349 33.1019 53.1349 32.8371C53.2674 32.5723 53.2674 32.3075 53.3998 32.0427C53.5323 31.7779 53.5323 31.5131 53.5323 31.3807L53.6648 31.2482C53.7972 31.2482 53.7972 31.1158 53.9297 31.1158C54.0621 31.1158 54.0621 30.9834 54.1946 30.9834C54.327 30.9834 54.327 30.9834 54.327 30.9834C54.4595 30.9834 54.4595 30.9834 54.5919 31.1158C54.7244 31.1158 54.7244 31.2482 54.8569 31.2482C54.8569 31.3807 54.9893 31.3806 54.9893 31.5131C54.9893 31.6455 54.9893 31.6455 54.9893 31.7779C54.9893 31.9103 54.9893 31.9103 54.8569 32.1751C54.8569 32.3075 54.7244 32.4399 54.7244 32.7047C54.7244 32.8371 54.5919 32.9695 54.4595 33.2343C54.327 33.3667 54.327 33.4991 54.327 33.6315C54.327 33.7639 54.1946 33.8963 54.0621 34.0287C53.9297 34.1611 53.9297 34.2935 53.9297 34.4259C53.9297 34.5584 53.7972 34.6908 53.7972 34.9556C53.7972 35.088 53.7972 35.3528 53.7972 35.4852C53.7972 35.4852 53.7972 35.6176 53.7972 35.75C53.7972 35.8824 53.7972 35.8824 53.7972 36.0148C53.7972 36.1472 53.7972 36.1472 53.7972 36.2796C53.7972 36.2796 53.7972 36.412 53.9297 36.412H54.0621C54.0621 36.412 54.1946 36.2796 54.327 36.2796C54.4595 36.2796 54.4595 36.1472 54.5919 36.1472C54.7244 36.1472 54.7244 36.0148 54.8569 36.0148C54.9893 35.8824 55.1218 35.75 55.3867 35.6176C55.5191 35.4852 55.784 35.2204 55.9165 35.088C56.049 34.8232 56.3139 34.6908 56.4463 34.5584C56.5788 34.4259 56.7112 34.2935 56.7112 34.1611C56.8437 34.0287 56.8437 33.8963 56.9761 33.7639C57.1086 33.6315 57.1086 33.4991 57.1086 33.2343C57.1086 33.1019 57.2411 32.9695 57.2411 32.7047C57.2411 32.5723 57.3735 32.4399 57.506 32.3075C57.6384 32.1751 57.6384 32.0427 57.7709 32.0427C57.9033 31.9103 58.0358 31.9103 58.1682 31.9103C58.3007 31.9103 58.4332 31.9103 58.5656 32.0427C58.6981 32.0427 58.6981 32.1751 58.6981 32.1751C58.6981 32.3075 58.8305 32.3075 58.8305 32.4399C58.8305 32.5723 58.8305 32.5723 58.8305 32.7047V32.8371C58.8305 32.8371 58.8305 32.9695 58.6981 33.1019C58.5656 33.2343 58.5656 33.4991 58.5656 33.7639C58.5656 34.0287 58.4332 34.2935 58.4332 34.5584C58.4332 34.6908 58.4332 34.8232 58.4332 34.9556C58.4332 35.088 58.4332 35.2204 58.4332 35.3528C58.4332 35.4852 58.4332 35.75 58.4332 35.8824C58.4332 36.0148 58.4332 36.2796 58.5656 36.412C58.5656 36.5444 58.6981 36.6768 58.6981 36.8092C58.8305 36.9416 58.8305 36.9416 58.963 36.9416C59.0954 36.9416 59.3603 36.9416 59.4928 36.8092C59.6253 36.6768 59.8902 36.6768 60.0226 36.5444C60.1551 36.412 60.2875 36.2796 60.42 36.1472C60.5524 36.0148 60.6849 36.0148 60.6849 35.8824L60.8174 35.75L60.9498 35.6176L61.0823 35.4852C61.2147 35.4852 61.2147 35.4852 61.2147 35.4852C61.3472 35.4852 61.3472 35.4852 61.4796 35.6176C61.7445 34.6908 61.7445 34.6908 61.7445 34.8232ZM59.3603 27.6733C59.3603 27.8057 59.3603 27.8057 59.2279 27.9381C59.2279 28.0705 59.0954 28.2029 59.0954 28.3354C58.963 28.4678 58.963 28.6002 58.8305 28.7326C58.6981 28.865 58.5656 28.9974 58.4332 29.1298C58.3007 29.2622 58.1682 29.2622 58.0358 29.2622C57.9033 29.2622 57.7709 29.3946 57.6384 29.3946C57.506 29.3946 57.3735 29.527 57.1086 29.527C56.9761 29.527 56.8437 29.527 56.7112 29.527C56.4463 29.527 56.1814 29.527 56.049 29.3946C55.784 29.3946 55.6516 29.2622 55.3867 29.1298C55.1218 28.9974 54.9893 28.865 54.8569 28.7326C54.7244 28.6002 54.5919 28.4678 54.4595 28.2029C54.4595 28.2029 54.4595 28.0705 54.327 27.9381C54.327 27.8057 54.327 27.8057 54.1946 27.6733C54.1946 27.5409 54.1946 27.5409 54.1946 27.5409V27.4085C54.1946 27.2761 54.1946 27.1437 54.1946 27.1437C54.1946 27.0113 54.327 27.0113 54.327 27.0113C54.327 27.0113 54.4595 26.8789 54.5919 26.8789C54.7244 26.8789 54.7244 26.8789 54.8569 26.8789C54.9893 26.8789 55.1218 26.8789 55.2542 27.0113C55.3867 27.1437 55.5191 27.2761 55.5191 27.4085C55.5191 27.5409 55.5191 27.6733 55.6516 27.8057C55.6516 27.9381 55.784 28.0705 55.9165 28.0705C56.049 28.203 56.1814 28.2029 56.3139 28.3354C56.4463 28.3354 56.7112 28.4678 56.9761 28.4678C56.9761 28.4678 57.1086 28.4678 57.2411 28.4678C57.3735 28.4678 57.3735 28.4678 57.506 28.4678C57.6384 28.4678 57.6384 28.4678 57.7709 28.3354C57.9033 28.3354 57.9033 28.3354 57.9033 28.2029C58.0358 28.2029 58.0358 28.0705 58.1682 28.0705C58.1682 27.9381 58.3007 27.9381 58.3007 27.8057C58.3007 27.6733 58.4332 27.6733 58.4332 27.5409C58.4332 27.4085 58.4332 27.4085 58.5656 27.2761C58.5656 27.1437 58.5656 27.1437 58.6981 27.1437L58.8305 27.0113C58.8305 27.0113 58.963 27.0113 58.963 26.8789H59.0954C59.2279 26.8789 59.4928 26.8789 59.4928 27.0113C59.2279 27.2761 59.3603 27.4085 59.3603 27.6733Z" fill="#222222"/>
<path d="M80.688 34.8233C80.688 34.9557 80.688 35.0881 80.5556 35.2205C80.4231 35.3529 80.4231 35.4853 80.2906 35.6177C80.0257 35.8825 79.7608 36.1473 79.4959 36.4121C79.231 36.6769 78.9661 36.8093 78.8336 36.9417C78.5687 37.0741 78.3038 37.2066 78.1714 37.339C77.9065 37.4714 77.774 37.4714 77.5091 37.4714C77.2442 37.4714 76.9793 37.4714 76.8468 37.339C76.5819 37.2066 76.4494 37.0741 76.317 36.9417C76.1845 36.8093 76.0521 36.6769 76.0521 36.4121C76.0521 36.1473 75.9196 36.0149 75.9196 35.7501C75.9196 35.3529 75.9196 35.0881 76.0521 34.6909C76.0521 34.2937 76.1845 33.8964 76.317 33.6316C76.0521 34.1613 75.7872 34.5585 75.5223 34.9557C75.2573 35.3529 74.9924 35.7501 74.7275 36.0149C74.4626 36.2797 74.1977 36.5445 73.9328 36.6769C73.6679 36.8093 73.403 36.9417 73.1381 36.9417C73.0056 36.9417 72.8731 36.9417 72.7407 36.8093C72.6082 36.8093 72.4758 36.6769 72.3433 36.5445C72.2109 36.4121 72.0784 36.2797 71.9459 36.0149C71.8135 35.7501 71.8135 35.4853 71.8135 35.2205C71.8135 35.0881 71.8135 35.0881 71.8135 34.8233C71.8135 34.6909 71.8135 34.5585 71.8135 34.2937C71.8135 34.1613 71.8135 33.8964 71.9459 33.764C71.9459 33.6316 71.9459 33.3668 72.0784 33.2344C72.0784 33.2344 71.9459 33.3668 71.9459 33.4992C71.9459 33.6316 71.8135 33.764 71.8135 33.8964C71.8135 34.0289 71.681 34.1613 71.681 34.4261C71.681 34.5585 71.5486 34.8233 71.5486 34.9557C71.5486 35.0881 71.4161 35.2205 71.4161 35.3529C71.2837 35.4853 71.2837 35.6177 71.2837 35.7501C71.0188 36.0149 70.8863 36.2797 70.7538 36.5445C70.6214 36.8093 70.3565 36.9417 70.224 37.0741C69.2968 36.9417 69.0319 37.0741 68.8995 37.0741C68.6346 37.0741 68.3696 37.2066 68.1047 37.2066C67.8398 37.2066 67.7074 37.2066 67.4425 37.0741C67.1775 36.9417 67.0451 36.9417 66.9126 36.8093C66.7802 36.6769 66.6477 36.5445 66.5153 36.2797C66.3828 36.0149 66.3828 35.7501 66.3828 35.4853C66.3828 35.2205 66.3828 34.9557 66.5153 34.8233C66.6477 34.6909 66.7802 34.5585 67.1775 34.5585C67.31 34.5585 67.31 34.5585 67.4425 34.5585C67.5749 34.5585 67.5749 34.6909 67.7074 34.6909C67.7074 34.6909 67.8398 34.8233 67.8398 34.9557C67.8398 35.0881 67.9723 35.2205 67.9723 35.3529C67.9723 35.4853 67.9723 35.4853 67.9723 35.6177C67.9723 35.7501 68.1047 35.7501 68.1047 35.7501L68.2372 35.8825H68.3696C68.5021 35.8825 68.6346 35.8825 68.767 35.7501C68.8995 35.6177 69.0319 35.4853 69.1644 35.3529C69.2968 35.2205 69.4293 34.9557 69.5617 34.8233C69.6942 34.5585 69.8267 34.2937 69.9591 34.0289C70.0916 33.764 70.224 33.4992 70.3565 33.2344C70.4889 32.9696 70.6214 32.7048 70.7538 32.5724C70.8863 32.3076 71.0188 32.1752 71.0188 32.0428C71.1512 31.9104 71.1512 31.778 71.2837 31.6456C71.2837 31.6456 71.2837 31.6456 71.4161 31.5132L71.5486 31.3808L71.681 31.2484L71.8135 31.116C71.8135 31.116 71.8135 31.116 71.9459 30.9836C72.0784 30.9836 72.0784 30.9836 72.2109 30.8512C72.3433 30.8512 72.3433 30.8512 72.4758 30.7188C72.6082 30.7188 72.6082 30.7188 72.6082 30.7188H72.7407C72.8731 30.7188 72.8731 30.7188 73.0056 30.7188C73.138 30.7188 73.1381 30.8512 73.1381 30.8512C73.1381 30.9836 73.2705 30.9836 73.2705 31.116C73.2705 31.2484 73.2705 31.3808 73.2705 31.3808C73.2705 31.5132 73.2705 31.5132 73.2705 31.6456C73.2705 31.778 73.2705 31.778 73.2705 31.9104C73.2705 32.0428 73.2705 32.0428 73.2705 32.1752C73.2705 32.3076 73.2705 32.44 73.1381 32.7048C73.1381 32.8372 73.138 33.102 73.0056 33.2344C73.0056 33.3668 73.0056 33.6316 73.0056 33.764C73.0056 33.8964 73.0056 34.0289 73.0056 34.1613C73.0056 34.4261 73.0056 34.6909 73.1381 34.9557C73.1381 35.0881 73.2705 35.2205 73.2705 35.2205C73.403 35.2205 73.403 35.2205 73.5354 35.0881C73.6679 35.0881 73.6679 34.9557 73.8003 34.9557C73.9328 34.9557 73.9328 34.8233 74.0652 34.8233C74.1977 34.6909 74.1977 34.6909 74.1977 34.6909C74.4626 34.4261 74.5951 34.1613 74.86 33.8964C75.1249 33.6316 75.2573 33.3668 75.3898 33.102C75.5222 32.8372 75.7872 32.5724 75.9196 32.3076C76.0521 32.0428 76.1845 31.778 76.317 31.5132C76.317 31.5132 76.4494 31.3808 76.4494 31.2484C76.4494 31.116 76.5819 31.116 76.7143 30.9836C76.8468 30.9836 76.8468 30.8512 76.9793 30.8512C77.1117 30.8512 77.1117 30.8512 77.2442 30.8512H77.3766C77.5091 30.8512 77.5091 30.9836 77.6415 30.9836C77.774 30.9836 77.774 31.116 77.9064 31.116C77.9064 31.2484 78.0389 31.2484 78.0389 31.3808C78.0389 31.5132 78.0389 31.6456 78.0389 31.6456C78.0389 31.778 78.0389 31.9104 78.0389 32.0428C78.0389 32.1752 77.9064 32.3076 77.9064 32.5724C77.9064 32.7048 77.774 32.9696 77.774 33.2344C77.774 33.4992 77.6415 33.764 77.6415 34.0289C77.6415 34.2937 77.6415 34.5585 77.6415 34.8233C77.6415 35.2205 77.6415 35.3529 77.774 35.6177C77.9065 35.7501 78.0389 35.8825 78.1714 35.8825C78.4363 35.8825 78.7012 35.7501 78.9661 35.6177C79.231 35.4853 79.6284 35.0881 80.0257 34.6909C80.1582 34.5585 80.2907 34.4261 80.4231 34.4261C80.5556 34.4261 80.688 34.2937 80.688 34.2937C80.8205 34.2937 80.8205 34.2937 80.9529 34.2937C80.688 34.6909 80.688 34.6909 80.688 34.8233Z" fill="#222222"/>
<path d="M87.7052 32.8364C87.7052 32.8364 87.7052 32.9688 87.7052 33.1012C87.7052 33.2336 87.5727 33.366 87.5727 33.366C87.0429 34.028 86.6455 34.5577 86.1157 35.0873C85.5859 35.6169 85.1885 36.1465 84.6587 36.5437C84.2613 36.9409 83.7315 37.3381 83.3341 37.4705C82.9367 37.7354 82.4069 37.8678 82.0096 37.8678C81.6122 37.8678 81.2148 37.7354 80.9499 37.7354C80.685 37.603 80.4201 37.4706 80.2876 37.2057C80.1552 36.9409 80.0227 36.6761 79.8903 36.4113C79.7578 36.1465 79.7578 35.7493 79.7578 35.3521C79.7578 35.0873 79.7578 34.6901 79.8903 34.4253C79.8903 34.028 80.0227 33.7632 80.1552 33.366C80.2876 32.9688 80.4201 32.704 80.5525 32.4392C80.685 32.1744 80.9499 31.7772 81.2148 31.5124C81.3473 31.38 81.4797 31.2476 81.6122 31.1151C81.7446 30.9827 81.8771 30.8503 82.0096 30.8503C82.142 30.7179 82.2745 30.7179 82.5394 30.5855C82.6718 30.5855 82.9367 30.4531 83.0692 30.4531C83.2017 30.4531 83.4666 30.4531 83.599 30.5855C83.7315 30.7179 83.8639 30.7179 83.9964 30.8503C84.1288 30.9827 84.1288 31.1151 84.2613 31.2476C84.2613 31.38 84.3938 31.5124 84.3938 31.7772C84.3938 31.9096 84.3938 32.1744 84.2613 32.3068C84.2613 32.5716 84.1288 32.704 83.9964 32.9688C83.8639 33.2336 83.7315 33.366 83.599 33.6308C83.4666 33.8956 83.2017 34.028 82.9367 34.2928C82.8043 34.4253 82.8043 34.4253 82.6718 34.5577C82.5394 34.6901 82.4069 34.8225 82.2745 34.9549C82.142 35.0873 82.0096 35.2197 81.8771 35.3521C81.7446 35.4845 81.6122 35.6169 81.4797 35.7493C81.4797 35.8817 81.4797 35.8817 81.4797 36.0141C81.4797 36.1465 81.6122 36.1465 81.6122 36.2789C81.7446 36.4113 81.7446 36.4113 81.8771 36.5437C82.0096 36.5437 82.142 36.6761 82.2745 36.6761C82.5394 36.6761 82.9367 36.5437 83.3341 36.4113C83.7315 36.1465 84.1288 35.8817 84.5262 35.6169C84.9236 35.2197 85.321 34.8225 85.7183 34.4253C86.1157 34.028 86.5131 33.4984 87.0429 33.1012C87.0429 32.9688 87.1753 32.9688 87.3078 32.8364C87.4402 32.704 87.5727 32.704 87.7052 32.704C87.7052 32.704 87.7052 32.704 87.8376 32.704C87.8376 32.704 87.9701 32.704 87.9701 32.8364C87.7052 32.704 87.7052 32.704 87.7052 32.8364ZM82.8043 32.1744C82.8043 32.042 82.8043 32.042 82.8043 31.9096L82.6718 31.7772C82.5394 31.7772 82.2745 31.9096 82.142 32.042C82.0096 32.1744 81.8771 32.4392 81.7446 32.5716C81.6122 32.8364 81.4797 33.1012 81.3473 33.4984C81.2148 33.7632 81.0824 34.1604 81.0824 34.5577C81.0824 34.5577 81.2148 34.5577 81.2148 34.4253L81.3473 34.2928L81.4797 34.1604L81.6122 34.028C81.8771 33.7632 82.142 33.4984 82.2745 33.366C82.4069 33.1012 82.5394 32.9688 82.6718 32.8364C82.8043 32.704 82.8043 32.5716 82.8043 32.4392C82.8043 32.4392 82.8043 32.3068 82.8043 32.1744Z" fill="#222222"/>
<path d="M97.6391 33.1006C97.6391 33.1006 97.6391 33.233 97.5066 33.4978C97.3741 33.6302 97.2417 33.895 96.9768 34.1598C96.7119 34.4246 96.447 34.6894 96.182 35.0866C95.9171 35.4838 95.5198 35.7487 95.1224 36.1459C94.8575 36.4107 94.5926 36.6755 94.1952 36.9403C93.9303 37.2051 93.6654 37.3375 93.268 37.6023C93.0031 37.7347 92.7382 37.8671 92.3408 37.9995C92.0759 38.1319 91.6785 38.1319 91.4136 38.1319C91.1487 38.1319 90.8838 38.1319 90.7514 37.9995C90.4864 37.8671 90.354 37.7347 90.2215 37.6023C90.0891 37.4699 89.9566 37.2051 89.8242 36.9403C89.6917 36.6755 89.6917 36.4107 89.6917 36.0135C89.6917 35.8811 89.6917 35.7487 89.6917 35.4838C89.6917 35.3514 89.6917 35.0866 89.8242 34.9542C89.8242 34.8218 89.9566 34.557 89.9566 34.4246C90.0891 34.2922 90.0891 34.0274 90.2215 33.895C90.0891 33.895 90.0891 34.0274 89.9566 34.0274C89.8242 34.0274 89.6917 34.1598 89.5593 34.1598C89.4268 34.1598 89.2944 34.1598 89.1619 34.1598C89.0294 34.1598 88.897 34.1598 88.897 34.1598C88.6321 34.1598 88.3672 34.1598 88.1022 34.0274C87.8373 33.895 87.7049 33.7626 87.44 33.6302C87.3075 33.4978 87.1751 33.233 87.0426 33.1006C86.9102 32.8358 86.9102 32.571 86.9102 32.3061C86.9102 32.1737 86.9102 32.0413 87.0426 31.9089C87.0426 31.7765 87.1751 31.7765 87.3075 31.6441C87.44 31.6441 87.44 31.5117 87.5724 31.5117C87.7049 31.5117 87.7049 31.5117 87.8373 31.5117C87.9698 31.5117 88.1022 31.5117 88.1022 31.5117C88.2347 31.5117 88.2347 31.6441 88.2347 31.6441C88.2347 31.6441 88.3672 31.7765 88.3672 31.9089C88.3672 32.0413 88.3672 32.0413 88.3672 32.1737C88.3672 32.3061 88.3672 32.3061 88.3672 32.4385C88.3672 32.571 88.3672 32.571 88.4996 32.7034C88.4996 32.8358 88.6321 32.8358 88.7645 32.8358C88.897 32.8358 89.0294 32.9682 89.1619 32.9682C89.2944 32.9682 89.4268 32.9682 89.5593 32.8358C89.6917 32.8358 89.8242 32.7034 89.9566 32.7034C90.0891 32.571 90.2215 32.571 90.354 32.4385C90.4865 32.3061 90.6189 32.1737 90.7514 32.0413C90.7514 31.9089 90.8838 31.9089 90.8838 31.7765C90.8838 31.6441 91.0163 31.6441 91.0163 31.6441C91.1487 31.6441 91.1487 31.5117 91.2812 31.5117C91.4136 31.5117 91.4136 31.5117 91.5461 31.5117C91.6786 31.5117 91.6786 31.5117 91.811 31.5117C91.9435 31.5117 91.9435 31.6441 92.0759 31.6441L92.2084 31.7765V31.9089C92.2084 32.0413 92.2084 32.1737 92.0759 32.4385C91.9435 32.7034 91.811 32.8358 91.6786 33.233C91.5461 33.3654 91.4136 33.6302 91.4136 33.7626C91.2812 34.0274 91.2812 34.1598 91.1487 34.4246C91.1487 34.6894 91.0163 34.8218 91.0163 35.0866C91.0163 35.3514 91.0163 35.4838 91.0163 35.7487C91.0163 36.0135 91.0163 36.2783 91.1487 36.4107C91.2812 36.5431 91.4136 36.6755 91.6786 36.6755C91.9435 36.6755 92.0759 36.6755 92.3408 36.5431C92.6057 36.4107 92.8707 36.2783 93.1356 36.1459C93.4005 36.0135 93.6654 35.7487 93.9303 35.4838C94.1952 35.219 94.4601 34.9542 94.8575 34.6894C95.1224 34.4246 95.3873 34.1598 95.6522 33.7626C95.9171 33.4978 96.182 33.233 96.447 32.8358C96.447 32.7034 96.5794 32.7034 96.7119 32.571C96.8443 32.4385 96.9768 32.4385 97.1092 32.4385C97.2417 32.4385 97.3741 32.4385 97.3741 32.571C97.5066 32.8358 97.6391 32.9682 97.6391 33.1006Z" fill="#222222"/>
<path d="M106.383 31.9088C106.383 32.0412 106.383 32.1737 106.25 32.3061C106.25 32.4385 106.25 32.5709 106.118 32.7033C106.118 32.8357 105.985 33.1005 105.985 33.3653C105.985 33.6301 105.985 33.8949 105.985 34.0273C105.985 34.1597 105.985 34.2921 105.985 34.4245C105.985 34.5569 106.118 34.6893 106.118 34.8217C106.118 34.9541 106.25 35.0865 106.383 35.0865C106.515 35.2189 106.515 35.2189 106.647 35.2189C106.78 35.2189 107.045 35.2189 107.177 35.0865C107.31 34.9541 107.575 34.8217 107.84 34.6893C108.104 34.5569 108.237 34.4245 108.502 34.1597C108.767 34.0273 108.899 33.7625 109.164 33.6301C109.429 33.3653 109.561 33.2329 109.694 32.9681C109.826 32.7033 110.091 32.5709 110.224 32.4385L110.356 32.3061H110.489C110.489 32.3061 110.621 32.3061 110.621 32.4385C110.621 32.4385 110.754 32.5709 110.754 32.7033C110.754 32.8357 110.754 32.9681 110.621 33.1005C110.621 33.2329 110.489 33.4977 110.356 33.7625C110.224 33.8949 110.091 34.0273 109.959 34.2921C109.826 34.4245 109.561 34.6893 109.429 34.9541C109.164 35.2189 109.032 35.3514 108.767 35.6162C108.502 35.881 108.237 36.0134 107.972 36.1458C107.707 36.2782 107.442 36.4106 107.177 36.543C106.912 36.6754 106.647 36.6754 106.383 36.6754C105.985 36.6754 105.72 36.543 105.455 36.4106C105.19 36.2782 105.058 36.0134 104.925 35.881C104.793 35.6162 104.661 35.3514 104.661 35.0865C104.661 34.8217 104.528 34.5569 104.528 34.2921C104.528 34.2921 104.528 34.1597 104.528 34.0273C104.528 33.8949 104.528 33.8949 104.528 33.7625C104.528 33.6301 104.528 33.4977 104.528 33.3653C104.528 33.2329 104.528 33.1005 104.661 32.9681C104.528 33.1005 104.396 33.2329 104.263 33.4977C104.131 33.7625 103.866 33.8949 103.733 34.1597C103.601 34.4245 103.336 34.6893 103.204 34.9541C103.071 35.2189 102.806 35.4838 102.674 35.7486C102.674 35.881 102.541 36.0134 102.541 36.0134C102.541 36.1458 102.409 36.1458 102.409 36.2782C102.409 36.4106 102.276 36.4106 102.144 36.4106C102.011 36.4106 102.011 36.4106 101.879 36.543H101.747C101.614 36.543 101.614 36.4106 101.482 36.4106C101.349 36.4106 101.349 36.2782 101.217 36.2782C101.084 36.2782 101.084 36.1458 101.084 36.1458C101.084 36.0134 101.084 36.0134 101.084 35.7486C101.084 35.6162 101.084 35.6162 101.084 35.4838C101.084 35.3514 101.084 35.2189 101.084 35.0865C101.084 34.9541 101.084 34.6893 101.084 34.5569C101.084 34.4245 101.084 34.1597 101.084 34.0273C101.084 33.8949 101.084 33.7625 101.084 33.4977C101.084 33.3653 101.084 33.2329 101.084 33.1005C101.084 33.1005 100.952 33.2329 100.819 33.2329C100.687 33.3653 100.687 33.3653 100.554 33.4977C100.422 33.6301 100.422 33.7625 100.29 33.8949C100.157 34.0273 100.157 34.1597 100.025 34.2921C99.7597 34.8217 99.4948 35.2189 99.2299 35.6162C98.965 36.0134 98.8325 36.2782 98.7001 36.543C98.5676 36.6754 98.5676 36.9402 98.4352 37.0726C98.3027 37.205 98.3027 37.3374 98.1703 37.3374C98.0378 37.4698 98.0378 37.4698 97.9053 37.4698C97.7729 37.4698 97.7729 37.4698 97.6404 37.4698C97.508 37.4698 97.2431 37.4698 97.2431 37.3374C97.1106 37.205 97.1106 37.0726 96.9782 36.9402C96.9782 36.8078 96.8457 36.543 96.8457 36.4106C96.8457 36.1458 96.8457 36.0134 96.8457 35.7486C96.8457 35.4838 96.8457 35.3514 96.8457 35.0865C96.8457 34.8217 96.8457 34.5569 96.8457 34.4245C96.8457 34.1597 96.8457 34.0273 96.8457 33.7625C96.8457 33.4977 96.8457 33.3653 96.8457 33.2329C96.8457 33.1005 96.8457 32.9681 96.8457 32.8357C96.8457 32.7033 96.8457 32.5709 96.8457 32.4385C96.8457 32.1737 96.8457 32.0412 96.9782 31.9088C96.9782 31.7764 97.1106 31.644 97.2431 31.5116C97.3755 31.3792 97.3755 31.3792 97.508 31.3792C97.6404 31.3792 97.7729 31.3792 97.9053 31.3792C98.0378 31.3792 98.1703 31.3792 98.1703 31.3792C98.3027 31.3792 98.3027 31.3792 98.3027 31.5116L98.4352 31.644C98.4352 31.7764 98.4352 31.7764 98.4352 31.9088C98.4352 31.9088 98.4352 32.0412 98.4352 32.1737C98.4352 32.3061 98.4352 32.5709 98.3027 32.7033C98.3027 32.9681 98.1703 33.2329 98.1703 33.4977C98.1703 33.7625 98.0378 34.0273 98.0378 34.2921C98.0378 34.5569 98.0378 34.6893 97.9053 34.8217C97.9053 34.9541 97.9053 35.0865 97.9053 35.0865C97.9053 34.9541 98.0378 34.8217 98.0378 34.6893C98.1703 34.5569 98.1703 34.4245 98.3027 34.1597C98.4352 34.0273 98.4352 33.7625 98.5676 33.6301C98.7001 33.4977 98.7001 33.3653 98.8325 33.2329C99.0974 32.8357 99.2299 32.5709 99.4948 32.3061C99.7597 32.0412 99.8922 31.7764 100.157 31.644C100.422 31.5116 100.554 31.3792 100.819 31.2468C100.952 31.1144 101.217 31.1144 101.349 31.1144C101.482 31.1144 101.614 31.2468 101.747 31.2468C101.879 31.3792 102.011 31.5116 102.011 31.644C102.144 31.7764 102.144 31.9088 102.144 32.1737C102.144 32.3061 102.144 32.5709 102.144 32.7033C102.144 32.7033 102.144 32.8357 102.144 32.9681C102.144 33.1005 102.144 33.2329 102.144 33.3653C102.144 33.4977 102.144 33.6301 102.144 33.7625C102.144 33.8949 102.144 34.0273 102.144 34.1597C102.144 34.1597 102.276 34.0273 102.276 33.8949C102.409 33.7625 102.409 33.6301 102.541 33.4977C102.674 33.3653 102.674 33.2329 102.806 33.1005C102.939 32.9681 102.939 32.9681 102.939 32.8357C103.204 32.5709 103.336 32.3061 103.601 32.0412C103.866 31.7764 103.998 31.644 104.263 31.3792C104.528 31.2468 104.661 31.1144 104.925 30.982C105.19 30.8496 105.323 30.8496 105.588 30.8496C105.72 30.8496 105.72 30.8496 105.853 30.982C105.985 30.982 105.985 31.1144 106.118 31.1144C106.118 31.2468 106.25 31.2468 106.25 31.3792C106.383 31.7764 106.383 31.9088 106.383 31.9088Z" fill="#222222"/>
<path d="M119.758 34.9553C119.758 35.0877 119.758 35.2201 119.626 35.3525C119.626 35.4849 119.493 35.6173 119.361 35.6173C119.096 36.0145 118.698 36.2793 118.433 36.5441C118.169 36.8089 117.904 37.0737 117.639 37.2061C117.374 37.3385 117.109 37.471 116.976 37.6034C116.712 37.7358 116.579 37.7358 116.314 37.7358C116.049 37.7358 115.917 37.7358 115.652 37.6034C115.519 37.471 115.255 37.471 115.122 37.2061C114.99 37.0737 114.857 36.8089 114.857 36.6765C114.725 36.4117 114.725 36.1469 114.725 35.8821C114.725 35.7497 114.725 35.6173 114.725 35.4849C114.725 35.3525 114.725 35.2201 114.725 34.9553C114.725 34.8229 114.725 34.5581 114.857 34.4257C114.857 34.2933 114.857 34.0284 114.99 33.896C114.99 33.7636 114.99 33.6312 115.122 33.4988C115.122 33.3664 115.122 33.234 115.122 33.234C115.122 33.234 114.99 33.234 114.99 33.3664C114.857 33.3664 114.857 33.4988 114.725 33.4988C114.592 33.4988 114.46 33.6312 114.327 33.6312C114.195 33.6312 113.93 33.7636 113.665 33.7636C113.798 33.7636 113.798 33.896 113.93 33.896C114.062 34.0284 114.062 34.0284 114.062 34.1608C114.062 34.2933 114.195 34.2933 114.195 34.4257C114.195 34.5581 114.195 34.5581 114.195 34.6905C114.195 34.9553 114.195 35.0877 114.062 35.3525C113.93 35.6173 113.93 35.8821 113.798 36.1469C113.665 36.4117 113.533 36.6765 113.268 36.8089C113.135 37.0737 112.87 37.2061 112.605 37.3385C112.341 37.471 112.076 37.6034 111.811 37.7358C111.546 37.8682 111.281 37.8682 111.016 37.8682C110.884 37.8682 110.619 37.8682 110.486 37.7358C110.354 37.6034 110.221 37.471 110.089 37.3385C109.956 37.2061 109.824 36.9413 109.824 36.6765C109.691 36.4117 109.691 36.1469 109.691 35.8821C109.691 35.7497 109.691 35.4849 109.691 35.3525C109.691 35.2201 109.691 34.9553 109.824 34.6905C109.824 34.4257 109.956 34.2933 109.956 34.0284C109.956 33.7636 110.089 33.4988 110.089 33.234C110.089 33.1016 110.221 32.8368 110.221 32.572C110.221 32.3072 110.354 32.1748 110.354 31.91C110.354 31.6452 110.486 31.5128 110.486 31.3804C110.486 31.248 110.619 31.1156 110.619 30.9831C110.619 30.8507 110.751 30.8507 110.751 30.8507C110.884 30.8507 110.884 30.7183 111.016 30.7183C111.148 30.7183 111.148 30.5859 111.281 30.5859C111.413 30.5859 111.413 30.5859 111.546 30.5859C111.678 30.5859 111.811 30.5859 111.943 30.7183C112.076 30.8507 112.076 30.9831 112.076 31.1156C112.076 31.248 112.076 31.3804 112.076 31.5128C112.076 31.6452 111.943 31.7776 111.943 31.91C111.943 32.0424 111.811 32.1748 111.811 32.4396C111.811 32.572 111.678 32.7044 111.678 32.8368C112.341 32.8368 112.87 32.7044 113.4 32.7044C113.798 32.572 114.195 32.572 114.46 32.4396C114.725 32.3072 114.99 32.1748 115.122 32.1748C115.255 32.0424 115.387 31.91 115.519 31.7776C115.519 31.7776 115.519 31.6452 115.652 31.6452C115.652 31.6452 115.652 31.5128 115.784 31.5128V31.3804C115.784 31.248 115.784 31.248 115.917 31.1156C115.917 31.1156 115.917 30.9831 116.049 30.9831L116.182 30.8507C116.182 30.8507 116.314 30.7183 116.447 30.7183C116.579 30.7183 116.579 30.7183 116.712 30.7183C116.844 30.7183 116.844 30.7183 116.976 30.7183C117.109 30.7183 117.109 30.7183 117.241 30.8507C117.374 30.8507 117.374 30.9831 117.374 30.9831C117.374 30.9831 117.506 31.1156 117.506 31.248C117.506 31.3804 117.506 31.3804 117.506 31.5128C117.506 31.6452 117.506 31.6452 117.374 31.7776C117.374 31.91 117.241 32.0424 117.241 32.1748C117.241 32.3072 117.109 32.4396 117.109 32.7044C117.109 32.9692 116.976 33.234 116.976 33.4988C116.976 33.7636 116.844 34.0284 116.844 34.2933C116.844 34.5581 116.712 34.8229 116.712 35.0877C116.712 35.3525 116.712 35.4849 116.712 35.7497C116.712 36.0145 116.712 36.2793 116.844 36.4117C116.976 36.5441 116.976 36.5441 117.109 36.5441C117.374 36.5441 117.639 36.4117 118.036 36.1469C118.433 35.8821 118.831 35.6173 119.228 35.0877C119.361 34.9553 119.361 34.9553 119.493 34.8229C119.626 34.6905 119.758 34.6905 119.89 34.6905C120.023 34.6905 120.023 34.6905 120.155 34.8229C119.758 34.8229 119.758 34.8229 119.758 34.9553ZM112.473 33.7636H112.341C112.208 33.7636 112.208 33.7636 112.076 33.7636C111.943 33.7636 111.943 33.7636 111.811 33.7636C111.678 33.7636 111.678 33.7636 111.678 33.7636C111.678 33.7636 111.678 33.7636 111.546 33.7636C111.546 33.7636 111.546 33.896 111.546 34.0284C111.546 34.1608 111.546 34.2933 111.413 34.4257C111.413 34.5581 111.413 34.6905 111.281 34.9553C111.281 35.0877 111.281 35.2201 111.148 35.4849C111.148 35.6173 111.148 35.7497 111.148 35.8821C111.148 36.0145 111.148 36.0145 111.148 36.0145C111.148 36.2793 111.148 36.4117 111.281 36.5441C111.281 36.6765 111.413 36.6765 111.546 36.6765C111.811 36.6765 111.943 36.6765 112.208 36.5441C112.341 36.4117 112.605 36.2793 112.738 36.0145C112.87 35.8821 113.003 35.6173 113.135 35.3525C113.268 35.0877 113.268 34.9553 113.268 34.6905C113.268 34.4257 113.268 34.1608 113.135 33.896C112.738 33.896 112.605 33.7636 112.473 33.7636Z" fill="#222222"/>
<path d="M121.747 36.0141C121.747 36.1465 121.747 36.2789 121.614 36.5437C121.614 36.6761 121.482 36.8085 121.217 37.0733C120.952 37.2057 120.82 37.3381 120.555 37.3381C120.025 37.3381 119.893 37.0733 119.893 36.5437C119.893 36.4113 119.893 36.4113 120.025 36.2789C120.025 36.1465 120.157 36.0141 120.29 35.8817C120.422 35.7493 120.422 35.6169 120.555 35.6169C120.687 35.4845 120.82 35.4845 120.952 35.4845C121.085 35.4845 121.085 35.4845 121.217 35.4845C121.35 35.4845 121.482 35.6169 121.482 35.6169C121.615 35.6169 121.614 35.7493 121.747 35.7493C121.747 35.8817 121.747 35.8817 121.747 36.0141ZM122.939 28.2022C122.939 28.2022 122.939 28.3346 122.939 28.467C122.939 28.5994 122.939 28.7318 122.807 28.9966C122.807 29.2615 122.674 29.3939 122.674 29.6587C122.674 29.9235 122.542 30.0559 122.542 30.3207C122.409 30.7179 122.277 31.2475 122.144 31.6447C122.012 32.0419 121.879 32.5716 121.879 32.9688C121.879 33.1012 121.879 33.1012 121.879 33.2336C121.879 33.366 121.879 33.366 121.879 33.4984C121.879 33.6308 121.879 33.6308 121.879 33.7632C121.879 33.8956 121.747 33.8956 121.747 34.028C121.482 34.028 121.35 34.028 121.085 33.8956C120.952 33.8956 120.82 33.7632 120.687 33.7632C120.687 33.7632 120.687 33.6308 120.687 33.4984C120.687 33.366 120.687 33.366 120.687 33.2336C120.687 32.9688 120.687 32.5716 120.687 32.1743C120.687 31.7771 120.82 31.3799 120.82 30.9827C120.952 30.5855 120.952 30.1883 121.085 29.7911C121.085 29.3939 121.217 29.1291 121.217 28.7318C121.217 28.5994 121.217 28.467 121.217 28.2022C121.217 28.0698 121.217 27.9374 121.217 27.9374C121.217 27.805 121.217 27.805 121.35 27.6726L121.482 27.5402C121.482 27.5402 121.614 27.4078 121.747 27.4078C121.879 27.4078 121.879 27.2754 122.012 27.2754C122.144 27.2754 122.144 27.2754 122.277 27.2754C122.409 27.2754 122.674 27.2754 122.807 27.4078C122.939 27.4078 122.939 27.5402 122.939 27.6726C122.807 28.0698 122.939 28.2022 122.939 28.2022Z" fill="#222222"/>
<path d="M90.4879 15.4921C90.3555 15.3597 90.3555 15.3597 90.223 15.2273C90.0906 15.0949 90.0906 15.0949 89.9581 14.9625C89.8257 14.9625 89.8257 14.8301 89.6932 14.8301C89.5608 14.8301 89.4283 14.8301 89.2958 14.8301C89.1634 14.8301 89.0309 14.9625 89.0309 14.9625C88.8985 14.9625 88.8985 15.0949 88.766 15.0949C88.6336 15.0949 88.6336 15.2273 88.6336 15.2273C88.1037 15.7569 87.5739 16.1541 87.0441 16.6837C86.5143 17.081 85.9844 17.4782 85.4546 17.743C84.9248 18.0078 84.395 18.2726 83.8652 18.405C83.3353 18.5374 82.8055 18.5374 82.2757 18.5374C82.0108 18.5374 81.7459 18.405 81.6134 18.405C81.481 18.2726 81.216 18.1402 81.0836 18.0078C80.9511 17.8754 80.8187 17.6106 80.8187 17.4782C80.8187 17.3458 80.6862 17.2134 80.6862 17.0809C79.759 17.2134 78.8318 17.2134 78.0371 17.3458C78.0371 17.6106 78.0371 17.8754 78.1696 18.1402C78.302 18.6698 78.5669 19.1994 78.8318 19.729C79.0968 20.1262 79.4941 20.5235 80.0239 20.7883C80.5538 21.0531 81.0836 21.1855 81.8783 21.1855C82.6731 21.1855 83.3353 21.1855 84.1301 20.9207C84.7923 20.6559 85.5871 20.3911 86.2494 19.9938C86.9116 19.5966 87.5739 19.067 88.2362 18.5374C88.8985 18.0078 89.4283 17.4782 90.0906 16.8161C90.223 16.6837 90.3555 16.5513 90.4879 16.4189C90.6204 16.2865 90.6204 16.1541 90.6204 16.0217C90.6204 15.6245 90.6204 15.6245 90.4879 15.4921Z" fill="#222222"/>
<path d="M9.95588 34.425C9.82343 34.425 9.82343 34.2926 9.95588 34.425C9.69097 34.2926 9.69097 34.2926 9.69097 34.1602H9.55851H9.42606H9.2936C9.2936 34.1602 9.16115 34.1602 9.16115 34.2926C9.16115 34.2926 9.16115 34.2926 9.02869 34.2926C8.76378 34.5574 8.49887 34.8222 8.23396 34.9546C7.96905 35.2194 7.70414 35.3518 7.43923 35.4842C7.17431 35.6166 6.9094 35.749 6.64449 35.749C6.37958 35.8814 6.11467 35.8814 5.84976 35.8814C5.7173 35.8814 5.58485 35.8814 5.45239 35.749C5.31994 35.749 5.31994 35.6166 5.18748 35.4842C5.18748 35.3518 5.05502 35.3518 5.05502 35.2194C5.05502 35.087 5.05502 35.087 5.05502 34.9546C4.65766 34.9546 4.12784 35.087 3.73047 35.087C3.73047 35.2194 3.73047 35.3518 3.73047 35.4842C3.73047 35.749 3.86292 36.0138 3.99538 36.2786C4.12784 36.5434 4.39275 36.6758 4.65766 36.8082C5.05502 37.0731 5.31994 37.0731 5.7173 37.0731C6.11467 37.0731 6.37958 37.0731 6.77695 36.9406C7.17431 36.8082 7.43922 36.6758 7.83659 36.411C8.23396 36.1462 8.49887 36.0138 8.76378 35.749C9.02869 35.4842 9.42606 35.2194 9.69097 34.9546C9.69097 34.9546 9.82343 34.8222 9.82343 34.6898C9.95588 34.6898 9.95588 34.5574 9.95588 34.425C9.95588 34.5574 9.95588 34.425 9.95588 34.425Z" fill="#222222"/>
</svg>
