<svg width="658" height="669" fill="none" xmlns="http://www.w3.org/2000/svg"><g opacity=".4" clip-path="url(#clip0_252_6469)"><g opacity=".5" fill="#738CA8"><path opacity=".5" d="M496.305 256.251c.934-1.778 1.729-3.637 2.802-5.335 1.927-3.338 3.993-6.595 5.81-9.903a657.667 657.667 0 008.246-15.727c.985-2.027 1.472-4.156 2.318-6.264 1.641-3.966 3.282-7.932 4.893-12.007.161-.278.292-.666.452-.944.833-1.281 1.549-1.238 2.261.099.652 1.119.975 2.325 1.488 3.363.345.848.719 1.806 1.174 2.624l6.487 12.367c.799 1.667 1.379 3.392 2.149 4.949 1.716 3.772 3.542 7.515 5.287 11.396 1.518 3.472 3.066 7.054 4.174 10.754 2.424 8.167 4.847 16.333 8.009 24.185 1.959 5.117 3.669 10.183 5.628 15.301 2.37 6.652 4.821 13.166 7.191 19.819.462 1.287.676 2.522 1.138 3.809.551 1.616 1.131 3.341 1.681 4.957.206.767.521 1.506.588 2.193.331 1.675-.539 2.378-2.09 1.853-1.551-.525-3.051-1.298-4.632-1.932-4.265-1.444-8.261-3.194-12.366-4.915-3.856-1.67-7.721-3.809-12.161-4.147-2.508-.151-4.865-1.048-7.272-1.696-1.521-.415-2.311.149-3.172 1.321-1.906 2.979-3.811 5.958-5.965 8.886-1.533 2.174-3.454 4.217-5.127 6.31-2.132 2.57-4.265 5.14-6.536 7.629-.972 1.201-2.157 1.166-2.948-.033-.337-.38-.374-.957-.411-1.535-.099-2.56-.058-5.039-.375-7.54-.878-6.348-2.085-12.607-3.073-18.925-.096-.797-.572-1.257-1.398-1.271-.468.008-.827-.013-1.295-.006-5.895-.066-11.637-.878-17.358-2.049-2.487-.509-5.106-.63-7.644-.89-1.463-.196-2.926-.391-4.309-.726-1.521-.415-1.668-.964-.836-2.245 1.935-2.869 3.899-5.629 5.724-8.469 1.825-2.84 3.482-5.869 5.277-8.819 3.431-5.621 6.862-11.242 10.402-16.893 1.956-3.228 3.913-6.455 5.759-9.654-.08.139.03.11.03.11zm24.222-43.4c-.248-.051-.358-.022-.607-.073-1.378 3.191-3.035 6.221-4.135 9.572-1.96 6.285-5.311 11.767-8.244 17.49-1.467 2.861-3.46 5.511-5.176 8.322-1.926 3.337-3.685 6.865-5.721 10.232-3.051 5.284-6.351 10.517-9.541 15.721-1.876 3.089-3.891 6.097-5.489 9.346-1.838 3.667-3.845 7.143-6.131 10.459-1.343 2.006-2.467 3.953-3.701 5.929.308.27.447.35.557.321 3.752.405 7.614.781 11.396 1.296 1.463.195 3.014.72 4.477.916 7.117.679 14.235 1.358 21.432 1.898 2.399.18 4.849.111 7.329.152.043-.717.145-1.215.217-1.822.229-4.41.597-8.74.716-13.122.105-3.554.101-7.079.206-10.634-.023-1.404-.076-2.918-.1-4.322.135-3.445.299-6.781.324-10.196.047-3.774-.184-7.709-.028-11.512.229-4.411.209-8.872-.17-13.355-.111-1.733.215-3.584.433-5.406.145-1.214.428-2.348.464-3.533.15-2.509.191-4.988.342-7.497.099-2.26.309-4.549.518-6.839.423-1.054.597-2.158.632-3.343zm44.92 107.979c-.706-2.632-1.382-5.155-2.247-7.509-1.454-4.547-2.937-9.204-4.5-13.722-1.16-3.451-2.678-6.923-3.948-10.345-1.761-4.818-3.522-9.635-5.312-14.563-1.475-4.189-3.06-8.348-4.425-12.567-1.336-4.109-2.344-8.306-3.68-12.414-.785-2.493-1.9-4.898-3.014-7.303-1.203-2.734-2.735-5.38-3.938-8.114-2.258-4.919-4.378-9.759-6.636-14.678-.799-1.667-1.818-3.275-2.866-4.992l-.438.117c-.073.608-.036 1.185-.108 1.792.053 1.514.216 2.999.298 4.622.138 4.901.246 9.691.493 14.562-.006 1.294.237 2.64.341 3.905l.847 11.057c.224 3.467.447 6.933.78 10.371.622 5.828 1.133 11.686.819 17.53-.186 3.694-.153 7.329-.199 11.103-.047 3.774.016 7.518.079 11.263.039 2.34-.06 4.6-.05 6.831-.043.717.294 1.097 1.04 1.249 2.377.539 4.755 1.077 7.162 1.725 3.402.852 6.906 1.206 10.184 2.913 2.196 1.175 4.662 2.043 7.157 3.02 3.798 1.451 7.676 2.763 11.583 4.184.029.11.139.08.578-.037zm-43.041-102.723l-.439.118c-.107 1.792-.076 3.664-.183 5.456-.215 3.584-.35 7.029-.924 10.592-.217 1.821-.464 3.533-.432 5.405.106 3.028.292 5.917.288 8.974.069 2.45-.22 4.879-.152 7.329-.089 4.49.07 9.032-.02 13.523-.062 2.838-.125 5.676-.048 8.594-.041 2.479.276 4.98.235 7.46-.175 5.924-.6 11.797-.776 17.722-.043.717-.056 1.543.149 2.311.382 1.426.318 2.501-1.1 3.351-.3.198-.431.586-.482.834-.896 2.356-1.823 4.603-2.719 6.959-1.32 3.41-2.501 6.9-3.791 10.419-.131.388-.182.637-.313 1.025 2.359-2.161 4.58-4.401 6.384-6.883 1.672-2.094 3.008-4.567 4.68-6.661 2.183-2.818 3.203-6.03 2.98-9.497-.067-.687-.133-1.375-.09-2.092.109-6.611.298-13.362.407-19.974.094-7.548.216-14.987-.736-22.489-.71-6.158-.841-12.352-1.332-18.569-.372-5.777-.774-11.664-1.037-17.471-.368-2.252-.459-4.344-.549-6.436zm-18.179 88.329c1.231 7.664 2.453 14.859 3.625 22.303 3.964-6.704 5.827-13.786 8.518-20.854-4.001-.456-7.864-.832-12.143-1.449z"/><path opacity=".5" d="M507.936 294.394c.038.577.075 1.155-.056 1.543-.255 1.244-.539 2.378-.793 3.621-.182.637-.503 1.193-1.25 1.04-.855-.123-.893-.701-.85-1.418.225-1.353.451-2.706.785-4.089.343-.915 1.199-.791 2.164-.697zm2.838 6.644c-.329.089-.819.455-1.316.353-.249-.051-.565-.789-.543-1.147.356-1.742.713-3.483 1.179-5.253.05-.249.569-.506.898-.594.22-.058.447.351.645.65.139.081.117.439.037.578.002 1.763-.383 3.394-.9 5.413zm-7.149-.788c-1.294-.006-1.85-.327-1.676-1.432.123-.855.137-1.682.18-2.399.013-.826.672-1.003 1.279-.93.716.043.863.591.901 1.169-.022.358-.014.826-.145 1.214-.043.717-.306 1.493-.539 2.378zm4.918-54.918c-.696-.401-.711-1.338.027-1.653.928-.484 2.054-.668 3.151-.962.11-.029.615.541.674.76-.204.995-2.579 2.219-3.604 1.906-.219.059-.248-.051-.248-.051zm4.019-6.484c.134 1.375.134 1.374-3.309 3.002-.725-.511-1.12-1.11-.082-1.623 1.037-.513 2.244-.837 3.391-1.379zm-13.748 61.869c-.944-.453-1.377-1.63-.976-2.325.161-.278.819-.454 1.177-.433.746.153 1.209 1.44.778 2.025-.241.417-.789.564-.979.733zm58.469 6.314c1.414 2.207 2.061 4.62 2.268 7.15-.021.359-.452.944-.781 1.033-.329.088-.776-.263-1.112-.643-.169-.19-.286-.628-.375-.957-.36-1.785-.611-3.598-.832-5.302-.118-.439.123-.856.254-1.244.219-.058.468-.007.578-.037zm-19.932-61.66c.059.219.395.599.403 1.067.024 1.404-.062 2.838-.119 4.381.037.578-.035 1.185-.861 1.171-.798.096-1.054-.423-1.15-1.22-.053-1.514-.106-3.028-.05-4.571.124-.856.833-1.281 1.777-.828zm-3.939 3.288c-.17-1.953-.282-3.686-.313-5.559.021-.358.233-.885.562-.973.329-.088.826.014 1.024.313 1.011 1.14.584 5.251-.665 6.291-.14-.08-.14-.08-.608-.072zm-2.639-11.165c1.514-.053 1.859.795 1.984 1.702.038.578.104 1.265.032 1.872-.131.388-.511.725-.782 1.032-.446-.35-1.112-.642-1.091-1-.154-1.017-.01-2.231-.143-3.606zm24.313 66.6c.68-.535 1.389-.96 2.092-.091.168.19-.175 1.105-.474 1.303-.57.505-1.156.074-1.618-1.212zm1.138-2.773c-.797.096-1.316.352-1.814.25-.248-.05-.395-.599-.593-.898.519-.257 1.008-.623 1.557-.77.109-.03.425.709.85 1.418zm-46.64 9.322c.169.19.447.351.476.46.433 1.177.756 2.384 1.08 3.59.058.219-.292.666-.562.973-.418-.24-.915-.342-1.113-.642-.403-1.067-.777-2.025-1.071-3.122-.089-.329.043-.716.233-.885.27-.307.628-.286.957-.374zm-1.588 3.716c.696.402 1.671 2.726 1.518 3.473-.152.746-1 1.091-1.425.382-.623-1.009-1.027-2.076-1.321-3.173-.176-.658.562-.973 1.228-.682z"/></g><g opacity=".5" stroke="#738CA8" stroke-width="2.507" stroke-linecap="round" stroke-linejoin="round"><path opacity=".5" d="M505.422 346.436c-.415 1.521-.721 3.014-1.055 4.396"/><path opacity=".5" d="M502.951 360.028c-2.851 25.331 2.997 47.156-17.639 74.549-25.164 33.308-122.867 53.846-151.061-37.339" stroke-dasharray="7.9 7.9"/><path opacity=".5" d="M332.937 392.77l-1.175-4.387"/></g><path opacity=".5" d="M303.867 314.985s-13.722-56.037-42.294-78.003c-47.547-36.629-173.212 19.494-103.481 99.431 68.383 78.418 84.598 133.669 59.004 156.16-37.531 33.214-109.328-.915-98.538-66.811 10.869-66.035 62.749-27.275 45.478.392-17.272 27.667-70.062 41.224-105.083 2.649" stroke="#738CA8" stroke-width="2.507" stroke-miterlimit="10" stroke-linecap="round" stroke-linejoin="round" stroke-dasharray="8.02 8.02"/><path opacity=".5" d="M98.037 355.327c.62-.755.942-1.311 1.432-1.677 2.747-2.029 5.356-4.139 8.162-5.949 1.199-.791 1.322-1.647 1.079-2.992-.427-2.472-.635-5.002-.704-7.452-.061-1.982.948-2.605 2.756-1.561 1.807 1.043 3.725 2.058 5.482 3.35 1.449 1.022 2.693 1.277 4.301.258 1.607-1.018 3.274-1.818 5.08-2.536 1.067-.404 2.273-.727 3.429-.802 1.265-.104 1.69.605 1.326 1.878-.809 2.685-1.478 5.451-2.287 8.136-.525 1.551-.121 2.619.809 3.897a59.842 59.842 0 014.895 7.74c1.759 3.055 1.007 4.197-2.569 4.45-.578.037-1.294-.006-1.902-.078-.855-.124-1.711-.247-2.538-.261-4.33-.368-5.558.314-7.199 4.28-1.006 2.386-2.408 4.172-4.645 5.476-1.527.88-2.471.428-2.664-1.167-.258-2.281-.437-4.702-.586-7.013-.037-.578.145-1.214.078-1.901.071-2.37-.098-2.56-2.556-2.96-2.736-.559-5.552-.98-8.317-1.65-1.054-.423-1.779-.934-2.862-1.466zm4.036-.729c.886.233 1.193.503 1.552.524 2.319.319 4.637.638 7.037.818 2.896.282 3.372.742 3.2 3.61-.07 2.369-.111 4.849-.042 7.299-.022.358.315.738.66 1.586.701-.893 1.271-1.398 1.562-2.064.803-1.391 1.577-2.891 2.38-4.282.802-1.39 2.052-2.43 3.785-2.542 1.733-.112 3.635-.034 5.427.074 1.185.035 2.319.319 3.627-.502-.286-.628-.433-1.177-.799-1.666-1.781-2.697-3.561-5.394-5.422-7.951-.564-.79-.909-1.638-.456-2.582a105.448 105.448 0 002.2-6.702c.212-.527.284-1.134.458-2.238-2.375 1.224-4.451 2.25-6.358 3.467-2.946 1.729-3.253 1.459-6.46-.856-.278-.16-.366-.489-.644-.65-1.032-.781-2.064-1.562-3.827-1.56.331 1.674.604 3.129.876 4.584.125.907.499 1.865.625 2.772.264.987-.108 1.792-.977 2.495-2.258 1.663-4.406 3.296-6.584 4.82-.599.396-.95.842-1.82 1.546zm435.524 29.881c.966.094 1.624-.082 2.15.129 3.263.772 6.526 1.543 9.848 2.534 1.412.444 2.121.019 3.012-1.042 1.621-1.846 3.492-3.64 5.391-5.324 1.52-1.348 2.574-.925 2.883 1.108.339 2.143.649 4.176.878 6.348.112 1.733.655 2.88 2.484 3.566 1.8.575 3.549 1.4 5.188 2.253.973.562 1.976 1.234 2.789 2.074.842.95.58 1.726-.597 2.159-2.654 1.063-5.168 2.207-7.822 3.271-1.477.631-2.178 1.524-2.593 3.046a67.702 67.702 0 01-2.856 8.641c-1.35 3.3-2.615 3.404-5.053.883a5.354 5.354 0 01-1.099-1.468c-.535-.68-.88-1.528-1.414-2.208-2.374-3.595-3.706-4.179-7.954-2.923-2.383.756-4.833.825-7.219-.181-1.58-.635-1.955-1.592-.764-2.852 1.651-1.735 3.361-3.251 5.15-4.906.461-.476.98-.733 1.579-1.129 1.958-1.465 1.899-1.684.734-3.84-1.363-2.456-2.727-4.912-4.01-7.507-.395-.599-.411-1.535-.705-2.632zm3.075 2.703c.345.848.462 1.286.66 1.586a506.912 506.912 0 003.708 5.942c1.612 2.506 1.51 3.004-.718 4.776-1.959 1.466-3.778 3.011-5.707 4.586-.299.198-.401.695-.883 1.529 1.156-.074 1.902.079 2.56-.098 1.594-.192 3.268-.523 4.833-.825 1.675-.331 3.196.084 4.346 1.304a38.447 38.447 0 013.267 4.297c.733.979 1.246 2.017 2.658 2.462.321-.557.642-1.113.744-1.61l2.82-9.219c.313-1.025.714-1.72 1.672-2.094 2.244-.836 4.379-1.644 6.623-2.48.519-.257 1.038-.513 1.937-1.107-2.524-1.086-4.551-2.071-6.629-2.808-3.271-1.239-3.25-1.597-3.481-5.532.021-.358.072-.607.094-.966-.104-1.265-.098-2.559-1.168-3.918-1.081 1.23-2.052 2.43-3.053 3.521-.621.754-1.132 1.479-1.752 2.233-.592.864-1.469 1.099-2.494.786l-7.967-2.097c-.358-.022-.965-.094-2.07-.268zm-480.56-102.33c.717.043 1.156-.074 1.544.057 2.377.538 4.726.967 6.994 1.535.994.203 1.513-.053 2.134-.807a60.932 60.932 0 013.652-3.917c1.03-.982 1.806-.719 2.078.736.273 1.455.575 3.02.737 4.504.104 1.265.559 2.084 1.832 2.448 1.273.364 2.495.977 3.688 1.48.695.402 1.42.913 2.035 1.453.644.651.433 1.177-.415 1.522-1.777.829-3.633 1.796-5.439 2.515-1.067.404-1.44 1.209-1.753 2.233-.487 2.129-1.114 4.178-1.85 6.256-.897 2.356-1.803 2.481-3.568.721a4.183 4.183 0 01-.872-1.06c-.366-.489-.732-.979-.989-1.498-1.831-2.448-2.775-2.9-5.678-1.887-1.725.58-3.349.662-5.149.086-1.163-.393-1.34-1.051-.638-1.944 1.08-1.23 2.3-2.38 3.52-3.53.271-.307.68-.535 1.06-.872 1.36-1.069 1.3-1.288.421-2.816-1.048-1.717-2.096-3.435-3.034-5.182a10.188 10.188 0 00-.31-2.033zm2.263 1.863c.286.628.344.848.513 1.038.96 1.388 1.81 2.806 2.88 4.165 1.266 1.659 1.165 2.156-.384 3.394a59.288 59.288 0 00-3.91 3.398c-.19.169-.32.557-.641 1.113.797-.096 1.294.006 1.842-.141 1.127-.184 2.333-.508 3.459-.692 1.126-.184 2.23-.01 3.153.801.842.95 1.685 1.899 2.447 2.988.534.68.96 1.389 1.984 1.702.24-.417.372-.805.503-1.193.597-2.158 1.165-4.426 1.733-6.694.182-.636.393-1.163 1.132-1.479 1.586-.66 3.063-1.291 4.649-1.951.41-.227.709-.425 1.418-.85-1.83-.685-3.3-1.349-4.822-1.764-2.327-.787-2.276-1.036-2.572-3.895-.059-.22.102-.498.043-.717-.126-.907-.141-1.843-.984-2.793-.81.923-1.402 1.787-2.022 2.541-.431.585-.752 1.141-1.213 1.617-.43.586-1.088.762-1.835.61-1.88-.437-3.87-.844-5.75-1.281-.41.228-.797.096-1.623.083zm515.519 27.489c.716.043 1.155-.075 1.543.057 2.378.538 4.726.967 6.994 1.534.995.204 1.514-.053 2.134-.807a61.24 61.24 0 013.653-3.917c1.03-.981 1.805-.719 2.078.736.272 1.455.574 3.02.737 4.505.103 1.265.558 2.084 1.831 2.448 1.273.364 2.495.977 3.688 1.48.695.401 1.42.912 2.035 1.453.644.65.433 1.177-.415 1.522-1.777.828-3.633 1.796-5.439 2.515-1.067.403-1.439 1.208-1.752 2.233-.488 2.129-1.114 4.177-1.851 6.255-.896 2.356-1.803 2.482-3.568.721a4.224 4.224 0 01-.872-1.059c-.366-.49-.732-.979-.989-1.498-1.831-2.448-2.775-2.901-5.677-1.888-1.726.58-3.349.662-5.149.087-1.164-.394-1.34-1.052-.639-1.945 1.081-1.23 2.301-2.38 3.521-3.529.27-.308.68-.535 1.06-.872 1.359-1.069 1.3-1.289.42-2.816-1.048-1.718-2.095-3.435-3.034-5.182.073-.607-.104-1.265-.309-2.033zm2.372 1.833c.286.629.344.848.513 1.038.96 1.388 1.81 2.806 2.879 4.165 1.267 1.659 1.166 2.156-.384 3.394a59.015 59.015 0 00-3.908 3.399c-.19.168-.321.556-.643 1.112.797-.096 1.295.006 1.843-.141 1.126-.184 2.333-.508 3.459-.692 1.126-.184 2.231-.01 3.153.801.842.95 1.685 1.9 2.447 2.988.534.68.959 1.389 1.984 1.702.24-.417.372-.805.503-1.193.597-2.158 1.165-4.426 1.733-6.694.182-.636.393-1.163 1.131-1.479 1.587-.66 3.063-1.29 4.65-1.951.409-.227.709-.425 1.418-.85-1.83-.685-3.301-1.349-4.822-1.764-2.327-.787-2.276-1.036-2.572-3.895-.059-.219.102-.498.043-.717-.126-.907-.141-1.843-.984-2.793-.81.923-1.402 1.787-2.022 2.541-.431.585-.752 1.142-1.213 1.618-.43.585-1.088.762-1.835.609-1.88-.437-3.87-.844-5.75-1.281-.519.257-.907.126-1.623.083zM236.437 483.161c.885.233 1.463.196 1.88.437 2.803 1.247 5.606 2.494 8.328 3.881 1.222.613 1.851.327 2.83-.406 1.739-1.406 3.646-2.623 5.664-3.868 1.527-.88 2.501-.318 2.393 1.474-.078 1.902-.017 3.884-.344 5.735-.167 1.572.157 2.779 1.657 3.552 1.5.774 2.84 1.825 4.18 2.877.754.621 1.567 1.461 2.16 2.36.623 1.008.192 1.594-.934 1.778-2.442.537-4.965 1.213-7.436 1.64-1.455.272-2.186 1.056-2.799 2.278-1.226 2.444-2.561 4.918-4.036 7.311-1.744 2.701-2.929 2.666-4.6-.06-.366-.49-.513-1.038-.77-1.557l-.946-2.215c-1.547-3.582-2.689-4.334-6.565-3.883-2.282.259-4.381-.119-6.357-1.353-1.281-.832-1.407-1.739-.238-2.64 1.659-1.267 3.596-2.374 5.423-3.451l1.557-.77c1.966-.997 2.017-1.246 1.32-3.41-.786-2.493-1.542-4.876-2.328-7.369-.088-.329.036-1.185-.039-2.341zm2.337 3.018c.096.797.184 1.126.272 1.455.778 2.025 1.526 3.941 2.413 5.936 1.005 2.434.904 2.932-1.472 4.156-1.966.997-3.903 2.104-5.869 3.101-.3.198-.541.615-1.081 1.23.995.204 1.631.386 2.348.429 1.543.056 2.948.033 4.491.089 1.543.057 2.846.531 3.666 1.839a35.788 35.788 0 012.222 4.342c.483.928.777 2.025 1.999 2.638.351-.447.701-.893.942-1.311 1.306-2.583 2.722-5.196 4.028-7.779.372-.805.913-1.42 1.82-1.545 2.142-.339 4.146-.759 6.288-1.098.548-.147.987-.264 1.945-.638-2.006-1.344-3.733-2.526-5.431-3.6-2.782-1.605-2.65-1.993-2.186-5.526.05-.249.211-.527.262-.776.145-1.214.319-2.319-.421-3.766-1.17.901-2.229 1.773-3.289 2.644-.679.535-1.22 1.15-1.899 1.685-.76.674-1.477.631-2.391.288-2.276-1.036-4.442-2.101-6.718-3.137-.527-.211-1.025-.313-1.939-.656zM74.62 399.098c.717.043 1.156-.074 1.543.057 2.378.539 4.726.967 6.994 1.535.995.204 1.514-.053 2.135-.807a60.932 60.932 0 013.652-3.917c1.03-.982 1.806-.719 2.078.736.273 1.455.574 3.02.737 4.504.104 1.265.558 2.084 1.832 2.448 1.273.364 2.495.977 3.687 1.481.696.401 1.42.912 2.035 1.453.645.65.433 1.177-.415 1.521-1.776.829-3.632 1.797-5.438 2.515-1.067.404-1.44 1.209-1.753 2.233-.487 2.129-1.114 4.178-1.85 6.256-.897 2.356-1.804 2.481-3.568.721a4.183 4.183 0 01-.872-1.06c-.366-.489-.733-.979-.99-1.498-1.83-2.448-2.775-2.9-5.677-1.887-1.725.58-3.349.662-5.149.086-1.163-.393-1.34-1.051-.638-1.944 1.08-1.23 2.3-2.38 3.52-3.53.27-.307.68-.535 1.06-.871 1.36-1.07 1.3-1.289.421-2.817-1.048-1.717-2.096-3.435-3.034-5.182.072-.607-.104-1.265-.31-2.033zm2.372 1.833c.286.629.345.848.513 1.038.96 1.389 1.81 2.807 2.88 4.166 1.267 1.659 1.165 2.156-.384 3.394a58.702 58.702 0 00-3.909 3.398c-.19.169-.32.556-.642 1.113.797-.096 1.294.005 1.843-.142 1.126-.184 2.332-.507 3.458-.691 1.127-.184 2.231-.01 3.154.801.842.949 1.684 1.899 2.446 2.988.535.68.96 1.388 1.984 1.702.241-.417.372-.805.503-1.193.598-2.158 1.165-4.426 1.733-6.694.182-.637.394-1.164 1.132-1.479 1.586-.66 3.063-1.291 4.65-1.951.409-.227.708-.425 1.417-.85-1.83-.685-3.3-1.349-4.822-1.764-2.327-.787-2.276-1.036-2.572-3.896-.058-.219.102-.497.043-.716-.125-.907-.14-1.843-.983-2.793-.81.922-1.402 1.786-2.023 2.54-.43.586-.752 1.142-1.212 1.618-.43.586-1.089.762-1.835.609-1.88-.436-3.87-.843-5.75-1.28-.52.257-.907.125-1.624.082zm26.469 116.332c.599-.395.869-.703 1.279-.93 2.215-.946 4.4-2.002 6.645-2.838.957-.374 1.169-.901 1.263-1.867a36.87 36.87 0 01.71-5.245c.335-1.382 1.103-1.588 2.164-.697a68.87 68.87 0 013.193 3.141c.842.95 1.647 1.322 2.934.86 1.286-.463 2.632-.706 3.868-.919.797-.096 1.733-.112 2.479.041.856.123 1.003.671.631 1.476-.964 1.669-1.898 3.447-2.941 5.255-.562.973-.576 1.8-.063 2.838.778 2.025 1.556 4.05 2.114 6.134.646 2.413-.004 3.057-2.462 2.658a9.91 9.91 0 01-1.273-.365 16.516 16.516 0 01-1.69-.605c-2.963-.969-3.841-.734-5.754 1.777-1.022 1.45-2.381 2.519-4.136 2.989-1.206.323-1.792-.107-1.647-1.322.137-1.682.523-3.313.799-4.915.101-.498.233-.886.364-1.274.495-1.66.327-1.85-1.254-2.485-1.859-.795-3.717-1.59-5.496-2.524-.636-.182-1.002-.671-1.727-1.183zm2.977.143c.556.321.724.511 1.003.672 1.58.634 3.131 1.159 4.712 1.793 1.939.656 2.166 1.066 1.62 2.975-.496 1.661-.852 3.402-1.238 5.034-.05.248.038.577.214 1.235.68-.534 1.089-.762 1.439-1.208.841-.813 1.542-1.706 2.382-2.519.81-.922 1.878-1.326 2.982-1.152 1.244.255 2.517.619 3.68 1.012.776.263 1.581.635 2.539.261-.118-.439-.126-.907-.214-1.236l-2.421-6.404c-.286-.629-.323-1.206.078-1.902.913-1.42 1.825-2.84 2.628-4.23.241-.418.372-.805.664-1.471-1.865.499-3.429.801-4.936 1.322-2.383.756-2.581.457-4.324-1.662-.168-.19-.227-.409-.396-.599-.644-.651-1.208-1.44-2.342-1.724-.035 1.185-.1 2.26-.164 3.336-.043.716-.006 1.294-.049 2.011-.043.717-.364 1.273-1.103 1.588-1.805.719-3.582 1.548-5.387 2.267-.329.088-.739.315-1.367.601zM488.39 159.164c.659-.177 1.068-.404 1.536-.412 2.421-.178 4.841-.356 7.182-.396 1.045-.045 1.396-.492 1.878-1.326a60.35 60.35 0 012.481-4.779c.722-1.251 1.578-1.128 2.26.1.711 1.337 1.422 2.675 1.914 4.071.432 1.177 1.077 1.828 2.481 1.804 1.295.006 2.648.231 4.001.456a6.444 6.444 0 012.327.787c.834.482.733.979.082 1.624-1.519 1.347-3.039 2.695-4.588 3.933-.869.703-1.132 1.478-1.057 2.634.119 2.201.1 4.322-.029 6.473-.151 2.509-.999 2.853-3.194 1.678-.417-.24-.725-.511-1.142-.752-.447-.35-.923-.81-1.369-1.161-2.401-1.942-3.477-2.007-5.954-.285-1.498.989-3.114 1.539-4.906 1.432-1.214-.145-1.58-.635-1.157-1.688.773-1.501 1.576-2.891 2.459-4.421.241-.417.511-.724.781-1.032.913-1.42.883-1.53-.405-2.83-1.428-1.381-2.856-2.761-4.313-4.251-.556-.322-.813-.841-1.268-1.659zm2.664 1.167c.366.489.564.789.733.979 1.23 1.081 2.569 2.133 3.799 3.214 1.648 1.321 1.736 1.65.553 3.378-1.022 1.449-1.935 2.869-2.847 4.289-.161.278-.073.607-.255 1.244.768-.206 1.316-.353 1.726-.58 1.038-.513 2.046-1.136 3.084-1.649 1.038-.513 2.164-.698 3.167-.026 1.112.642 2.145 1.424 3.177 2.205.724.511 1.23 1.081 2.305 1.145.102-.497.233-.885.145-1.214-.04-2.34-.05-4.571-.089-6.911-.067-.688.116-1.324.715-1.72 1.359-1.069 2.608-2.109 3.967-3.179.3-.198.541-.615 1.111-1.12-1.931-.188-3.504-.354-5.157-.382-2.479-.041-2.568-.37-3.522-3.053-.058-.219-.007-.468-.176-.658-.345-.848-.689-1.696-1.722-2.477-.532 1.083-.845 2.107-1.298 3.051-.292.666-.474 1.303-.656 1.939-.291.666-.781 1.033-1.578 1.129-1.982.06-3.935.231-5.887.402-.03-.11-.498-.102-1.295-.006zm-187.821 17.177c.717.043 1.185.035 1.573.167 2.297.677 4.675 1.215 6.892 2.032 1.024.313 1.543.057 2.164-.697 1.19-1.26 2.491-2.549 3.959-3.647 1.06-.872 1.836-.61 2.108.845.163 1.485.435 2.94.488 4.454.104 1.265.449 2.113 1.751 2.587 1.302.474 2.525 1.087 3.637 1.729.695.401 1.42.913 1.955 1.592.644.65.323 1.206-.525 1.551-1.915.749-3.721 1.467-5.636 2.216-1.068.403-1.579 1.128-1.892 2.152-.627 2.049-1.363 4.127-2.238 6.125-1.036 2.275-1.943 2.401-3.627.501a5.504 5.504 0 01-.762-1.089c-.366-.489-.623-1.008-.909-1.637-1.641-2.616-2.585-3.068-5.547-2.275-1.754.47-3.407.443-5.127-.272-1.083-.532-1.369-1.161-.419-2.003 1.22-1.15 2.469-2.19 3.689-3.34.38-.337.709-.425 1.089-.762 1.389-.96 1.44-1.208.56-2.736-.938-1.747-1.796-3.633-2.625-5.409-.395-.599-.433-1.177-.558-2.084zm2.182 2.002c.176.658.235.877.403 1.067.85 1.418 1.73 2.945 2.58 4.363 1.077 1.827 1.056 2.186-.632 3.343-1.389.96-2.748 2.03-4.107 3.099-.19.169-.321.556-.642 1.113.826.013 1.324.115 1.872-.032 1.156-.074 2.362-.398 3.518-.472 1.126-.184 2.26.1 3.102 1.049.842.95 1.604 2.039 2.256 3.157.425.709.85 1.418 1.794 1.87.241-.417.511-.724.643-1.112.707-2.188 1.413-4.375 2.15-6.453.182-.637.503-1.193 1.27-1.399 1.616-.55 3.122-1.071 4.738-1.622.439-.118.738-.315 1.447-.74a282.808 282.808 0 00-4.691-2.152c-2.356-.897-2.195-1.175-2.352-3.954-.059-.22.102-.498.072-.607-.015-.937-.031-1.873-.764-2.852-.81.923-1.541 1.706-2.162 2.46-.46.476-.891 1.062-1.241 1.508-.431.586-1.089.762-1.865.5-1.909-.546-3.709-1.122-5.619-1.668-.636-.182-1.024-.314-1.77-.466zm125.948 41.012c.621-.754.942-1.31 1.432-1.676 2.747-2.03 5.356-4.139 8.133-6.059 1.198-.791 1.322-1.647 1.079-2.992-.427-2.472-.635-5.002-.704-7.452-.061-1.982.948-2.605 2.756-1.562 1.807 1.044 3.725 2.059 5.482 3.351 1.449 1.022 2.693 1.277 4.3.258 1.608-1.018 3.275-1.818 5.081-2.537 1.067-.403 2.273-.726 3.429-.801 1.265-.104 1.69.605 1.326 1.878-.809 2.685-1.478 5.451-2.287 8.136-.415 1.522-.121 2.618.809 3.897 1.832 2.448 3.473 5.065 5.005 7.71 1.759 3.055 1.007 4.197-2.569 4.45-.578.038-1.295-.005-1.902-.078-.856-.123-1.712-.247-2.538-.26-4.33-.368-5.558.314-7.199 4.28-1.007 2.385-2.409 4.172-4.645 5.476-1.528.88-2.442.537-2.664-1.167-.259-2.282-.437-4.702-.586-7.013-.037-.578.145-1.215.078-1.902.07-2.37-.098-2.56-2.556-2.959-2.846-.53-5.552-.981-8.318-1.65-1.024-.314-1.888-.905-2.942-1.328zm4.037-.729c.885.233 1.193.503 1.551.525 2.319.319 4.638.638 7.037.818 3.006.252 3.343.632 3.2 3.609-.07 2.37-.111 4.849-.042 7.299-.022.359.315.739.66 1.587.701-.893 1.271-1.399 1.563-2.065.803-1.39 1.576-2.89 2.379-4.281.803-1.391 2.052-2.431 3.785-2.542 1.734-.112 3.635-.034 5.427.073 1.185.036 2.319.32 3.627-.501-.286-.629-.433-1.177-.799-1.667-1.78-2.696-3.561-5.393-5.422-7.951-.564-.789-.908-1.637-.566-2.552a104.821 104.821 0 002.201-6.702c.211-.527.174-1.104.458-2.238-2.375 1.224-4.451 2.25-6.359 3.467-2.916 1.839-3.253 1.459-6.459-.856-.278-.16-.366-.489-.644-.65-1.033-.781-2.065-1.562-3.827-1.56.331 1.674.603 3.129.875 4.584.236.878.5 1.865.625 2.772.265.987-.107 1.792-.977 2.495a521.972 521.972 0 00-6.554 4.93c-.41.227-.87.703-1.739 1.406z" fill="red"/></g><defs><clipPath id="clip0_252_6469"><path fill="#fff" transform="rotate(75 258.43 336.792)" d="M0 0h543.441v554.763H0z"/></clipPath></defs></svg>