<svg width="275" height="474" viewBox="0 0 275 474" fill="none" xmlns="http://www.w3.org/2000/svg">
<g opacity="0.5">
<path opacity="0.5" d="M111.315 397.726C110.011 398.93 108.607 400.033 107.404 401.337C104.997 403.744 102.691 406.251 100.284 408.557C96.4732 412.168 92.6622 415.678 88.7512 419.188C87.2462 420.492 85.5422 421.394 83.9372 422.598C80.9282 424.904 77.9202 427.211 74.8112 429.517C74.6102 429.718 74.3092 429.918 74.1092 430.119C73.2062 431.122 73.4072 431.724 74.7112 432.024C75.8142 432.325 76.9172 432.325 77.9202 432.526C78.7222 432.626 79.6252 432.726 80.4272 432.927C84.4382 433.83 88.4502 434.732 92.4612 435.635C94.0662 435.936 95.6712 436.036 97.1752 436.337C100.785 436.939 104.395 437.641 108.106 438.242C111.416 438.744 114.825 439.245 118.235 439.345C125.756 439.546 133.278 439.747 140.699 440.649C145.513 441.151 150.226 441.451 155.04 441.953C161.258 442.454 167.375 443.056 173.593 443.557C174.797 443.658 175.9 443.557 177.103 443.658C178.607 443.758 180.212 443.858 181.716 443.959C182.418 443.959 183.12 444.059 183.722 443.959C185.226 443.858 185.628 442.956 184.825 441.752C184.023 440.549 183.02 439.446 182.118 438.242C179.911 434.933 177.504 431.924 175.097 428.815C172.791 425.907 170.083 423.099 168.779 419.388C168.077 417.282 166.774 415.477 165.671 413.572C164.969 412.368 165.269 411.566 166.072 410.563C168.178 408.257 170.284 405.95 172.289 403.443C173.794 401.638 175.097 399.532 176.501 397.626C178.206 395.219 179.911 392.812 181.516 390.305C182.318 389.202 182.017 388.199 180.814 387.798C180.413 387.598 179.911 387.698 179.41 387.798C177.203 388.3 175.097 388.901 172.891 389.202C167.275 389.904 161.659 390.305 156.043 390.907C155.341 391.007 154.84 390.706 154.639 390.004C154.539 389.603 154.438 389.302 154.338 388.901C152.934 383.887 150.928 379.173 148.622 374.56C147.619 372.555 146.917 370.348 146.115 368.242C145.613 367.039 145.112 365.835 144.51 364.732C143.808 363.529 143.307 363.529 142.404 364.532C140.398 366.838 138.493 369.145 136.487 371.351C134.481 373.557 132.275 375.663 130.169 377.87C126.158 382.082 122.146 386.294 118.135 390.606C115.828 393.013 113.522 395.42 111.215 397.726C111.315 397.626 111.315 397.726 111.315 397.726ZM79.8252 428.314C79.7252 428.113 79.7252 428.013 79.6252 427.812C82.0322 425.907 84.2382 423.801 86.8452 422.096C91.7592 418.987 95.6712 414.875 99.8832 411.065C101.989 409.159 103.794 406.853 105.799 404.747C108.206 402.34 110.814 400.033 113.221 397.526C117.032 393.715 120.742 389.704 124.453 385.792C126.659 383.486 128.765 381.079 131.172 378.973C133.88 376.566 136.387 374.059 138.693 371.351C140.097 369.747 141.501 368.343 142.905 366.838C143.206 367.039 143.307 367.139 143.307 367.239C144.51 370.348 145.714 373.557 147.017 376.666C147.519 377.87 148.321 379.073 148.822 380.277C151.029 386.194 153.235 392.11 155.341 398.128C156.043 400.133 156.544 402.239 157.146 404.345C156.544 404.546 156.143 404.747 155.642 404.947C151.931 406.151 148.321 407.454 144.61 408.557C141.602 409.46 138.593 410.262 135.585 411.165C134.381 411.466 133.077 411.767 131.874 412.067C128.966 412.97 126.158 413.873 123.249 414.675C120.04 415.577 116.63 416.279 113.421 417.282C109.711 418.486 105.9 419.489 101.989 420.191C100.484 420.492 98.9802 421.194 97.4762 421.795C96.4732 422.196 95.5702 422.698 94.5672 422.999C92.4612 423.701 90.3552 424.302 88.2492 425.004C86.3442 425.606 84.4382 426.308 82.5332 427.01C81.7312 427.612 80.8282 428.013 79.8252 428.314ZM182.218 441.953C179.811 441.953 177.504 441.953 175.298 441.752C171.086 441.552 166.774 441.351 162.562 441.05C159.352 440.85 156.043 440.348 152.834 440.047C148.321 439.646 143.808 439.245 139.195 438.844C135.284 438.543 131.373 438.142 127.461 437.941C123.65 437.741 119.84 437.841 116.029 437.641C113.722 437.54 111.416 437.139 109.109 436.738C106.501 436.337 103.894 435.635 101.287 435.234C96.5732 434.431 91.9602 433.729 87.2462 432.927C85.6422 432.626 84.0372 432.125 82.3322 431.623C82.3322 431.523 82.3322 431.322 82.3322 431.222C82.8342 431.022 83.3352 430.921 83.8372 430.721C85.1402 430.42 86.4442 430.219 87.8482 429.918C92.0602 428.916 96.1722 427.913 100.384 427.01C101.487 426.709 102.691 426.609 103.794 426.408C107.003 425.807 110.212 425.205 113.421 424.603C116.43 424.002 119.438 423.4 122.447 422.898C127.562 422.096 132.676 421.194 137.59 419.589C140.699 418.586 143.808 417.784 147.017 416.881C150.226 415.979 153.436 415.176 156.645 414.374C158.65 413.873 160.556 413.271 162.461 412.769C163.063 412.569 163.464 412.769 163.765 413.371C164.768 415.277 165.771 417.182 166.874 419.088C168.378 421.795 169.481 424.704 171.688 427.11C173.192 428.715 174.496 430.62 175.9 432.526C178.006 435.434 180.012 438.443 182.118 441.451C182.218 441.451 182.218 441.552 182.218 441.953ZM84.7392 428.715C84.7392 428.615 84.7392 428.414 84.7392 428.314C86.2442 427.812 87.8482 427.411 89.3522 426.91C92.3612 425.907 95.2692 425.004 98.1782 423.701C99.6822 423.099 101.086 422.497 102.691 422.096C105.298 421.494 107.805 420.993 110.413 420.291C112.519 419.79 114.524 418.987 116.63 418.486C120.441 417.383 124.352 416.48 128.163 415.377C130.57 414.675 132.977 413.973 135.484 413.371C137.59 412.769 139.797 412.469 141.903 411.867C146.917 410.363 151.831 408.658 156.845 407.153C157.447 406.953 158.149 406.752 158.851 406.752C160.155 406.752 161.057 406.451 161.458 405.047C161.559 404.747 161.86 404.546 162.06 404.446C163.865 403.142 165.57 401.838 167.375 400.535C169.983 398.629 172.691 396.824 175.398 394.918C175.699 394.718 175.9 394.618 176.201 394.417C174.897 396.924 173.493 399.331 171.788 401.437C170.384 403.343 168.579 405.047 167.175 406.953C165.269 409.46 162.762 411.065 159.754 411.666C159.152 411.767 158.55 411.867 157.948 412.067C152.332 413.672 146.616 415.377 141 416.982C134.582 418.787 128.264 420.592 121.645 421.494C116.229 422.297 110.914 423.6 105.499 424.603C100.484 425.606 95.3702 426.609 90.3552 427.712C88.3502 427.913 86.5442 428.314 84.7392 428.715ZM155.943 393.013C162.762 392.311 169.181 391.709 175.799 391.007C170.986 395.921 165.37 399.131 159.954 403.042C158.65 399.732 157.447 396.523 155.943 393.013Z" fill="#738CA8"/>
<path opacity="0.5" d="M146.517 398.929C147.019 398.829 147.52 398.728 147.821 398.528C148.824 398.026 149.727 397.525 150.729 397.023C151.231 396.723 151.632 396.321 151.331 395.72C151.03 395.018 150.529 395.118 149.927 395.319C148.824 395.82 147.721 396.321 146.618 396.923C145.916 397.425 146.217 398.127 146.517 398.929Z" fill="#738CA8"/>
<path opacity="0.5" d="M152.835 399.832C152.835 399.531 153.036 399.03 152.835 398.629C152.735 398.428 152.033 398.328 151.732 398.428C150.328 399.13 148.924 399.832 147.52 400.634C147.319 400.735 147.219 401.236 147.219 401.537C147.219 401.738 147.62 401.838 147.921 401.938C148.021 402.038 148.322 401.938 148.423 401.838C149.927 401.437 151.231 400.735 152.835 399.832Z" fill="#738CA8"/>
<path opacity="0.5" d="M150.528 393.917C150.227 392.813 149.826 392.412 148.924 392.813C148.222 393.114 147.52 393.315 146.918 393.515C146.216 393.716 146.216 394.318 146.417 394.819C146.617 395.421 147.119 395.421 147.62 395.321C147.921 395.22 148.322 395.12 148.623 394.919C149.225 394.719 149.826 394.318 150.528 393.917Z" fill="#738CA8"/>
<path opacity="0.5" d="M104.795 410.664C104.294 410.162 103.492 410.363 103.391 411.065C103.191 411.967 103.291 412.97 103.291 413.973C103.291 414.073 103.893 414.374 104.093 414.374C104.896 413.973 105.397 411.667 104.896 410.864C104.896 410.664 104.795 410.664 104.795 410.664Z" fill="#738CA8"/>
<path opacity="0.5" d="M100.184 415.576C101.387 415.376 101.387 415.376 101.989 412.066C101.387 411.565 100.786 411.364 100.585 412.367C100.385 413.37 100.385 414.473 100.184 415.576Z" fill="#738CA8"/>
<path opacity="0.5" d="M149.826 389.702C149.224 389 148.121 388.899 147.62 389.401C147.419 389.601 147.419 390.203 147.519 390.504C147.82 391.106 149.024 391.206 149.425 390.705C149.726 390.404 149.726 389.902 149.826 389.702Z" fill="#738CA8"/>
<path opacity="0.5" d="M168.577 438.142C170.784 438.844 172.99 438.844 175.196 438.443C175.497 438.343 175.898 437.841 175.898 437.54C175.898 437.24 175.497 436.939 175.096 436.738C174.895 436.638 174.494 436.638 174.193 436.638C172.589 436.738 170.984 436.939 169.48 437.139C169.079 437.139 168.778 437.44 168.477 437.641C168.477 437.841 168.577 438.042 168.577 438.142Z" fill="#738CA8"/>
<path opacity="0.5" d="M111.415 435.234C111.616 435.234 112.017 435.435 112.418 435.334C113.622 435.034 114.825 434.632 116.129 434.231C116.63 434.131 117.132 433.93 116.931 433.228C116.831 432.526 116.329 432.426 115.627 432.526C114.324 432.827 113.02 433.128 111.716 433.529C111.014 433.83 110.814 434.532 111.415 435.234Z" fill="#738CA8"/>
<path opacity="0.5" d="M113.321 431.122C111.616 431.423 110.112 431.724 108.507 432.125C108.206 432.225 107.805 432.526 107.805 432.827C107.805 433.128 108.006 433.529 108.306 433.629C109.51 434.231 112.92 432.927 113.521 431.624C113.421 431.523 113.421 431.523 113.321 431.122Z" fill="#738CA8"/>
<path opacity="0.5" d="M103.192 431.422C103.493 432.725 104.295 432.826 105.097 432.725C105.599 432.625 106.2 432.525 106.702 432.324C107.003 432.124 107.203 431.722 107.404 431.422C107.003 431.121 106.602 430.619 106.301 430.72C105.398 430.82 104.395 431.221 103.192 431.422Z" fill="#738CA8"/>
<path opacity="0.5" d="M165.571 436.938C165.27 437.64 165.069 438.342 165.972 438.743C166.172 438.843 166.874 438.342 166.975 438.041C167.276 437.439 166.774 437.038 165.571 436.938Z" fill="#738CA8"/>
<path opacity="0.5" d="M163.463 438.542C163.363 437.84 163.463 437.339 163.262 436.938C163.162 436.737 162.661 436.737 162.36 436.637C162.26 437.138 162.059 437.64 162.059 438.141C162.059 438.241 162.761 438.342 163.463 438.542Z" fill="#738CA8"/>
<path opacity="0.5" d="M160.756 396.622C160.956 396.723 161.157 396.923 161.257 396.923C162.361 397.024 163.464 397.024 164.567 397.024C164.767 397.024 165.068 396.622 165.269 396.322C164.968 396.021 164.767 395.62 164.467 395.519C163.464 395.419 162.561 395.319 161.558 395.319C161.257 395.319 160.956 395.519 160.856 395.72C160.656 396.021 160.756 396.322 160.756 396.622Z" fill="#738CA8"/>
<path opacity="0.5" d="M163.565 394.417C164.067 394.918 166.273 395.219 166.875 394.918C167.476 394.617 167.577 393.815 166.875 393.615C165.872 393.314 164.869 393.213 163.866 393.213C163.264 393.213 163.164 393.915 163.565 394.417Z" fill="#738CA8"/>
</g>
<g opacity="0.5">
<g opacity="0.5">
<path opacity="0.5" d="M190.34 384.889C191.544 384.187 192.747 383.585 193.85 382.983" stroke="#738CA8" stroke-width="2.50716" stroke-linecap="round" stroke-linejoin="round"/>
<path opacity="0.5" d="M201.375 379.674C222.334 371.451 242.291 371.451 260.945 347.582C283.61 318.499 278.796 230.448 194.555 227.239" stroke="#738CA8" stroke-width="2.50716" stroke-linecap="round" stroke-linejoin="round" stroke-dasharray="7.9 7.9"/>
<path opacity="0.5" d="M190.442 227.14C189.138 227.14 187.834 227.14 186.43 227.14" stroke="#738CA8" stroke-width="2.50716" stroke-linecap="round" stroke-linejoin="round"/>
</g>
</g>
<g opacity="0.5">
<g opacity="0.5">
<path opacity="0.5" d="M104.801 35.291C104.299 35.993 103.898 36.3941 103.698 36.8955C102.594 39.7036 101.391 42.4113 100.488 45.2193C100.087 46.4228 99.3849 46.7236 98.1819 46.8239C95.9749 47.0245 93.7689 47.4256 91.6629 47.9271C89.9579 48.3282 89.6569 49.3311 90.9609 50.6348C92.2649 51.9385 93.5689 53.3425 95.0729 54.546C96.2759 55.5488 96.7779 56.5517 96.2759 58.1563C95.7749 59.7609 95.4739 61.3655 95.2729 63.0703C95.1729 64.0732 95.1729 65.1764 95.3739 66.1792C95.5739 67.2824 96.2759 67.483 97.2789 66.8812C99.3849 65.5775 101.592 64.3741 103.698 63.0703C104.901 62.268 105.904 62.3683 107.208 62.8698C109.715 63.8726 112.322 64.6749 114.93 65.2767C117.938 66.0789 118.741 65.1764 118.139 62.0675C118.039 61.566 117.838 60.9643 117.637 60.4629C117.337 59.7609 117.036 59.0589 116.835 58.3569C115.531 54.7466 115.832 53.5431 118.841 51.2365C120.646 49.8325 121.849 48.2279 122.451 46.0216C122.852 44.5173 122.251 43.8153 120.847 44.0159C118.841 44.3168 116.735 44.7179 114.729 45.1191C114.228 45.2193 113.726 45.5202 113.124 45.6205C111.119 46.2222 110.918 46.1219 110.016 44.1162C108.912 41.9099 107.91 39.6033 106.706 37.397C106.104 36.5947 105.503 36.0933 104.801 35.291ZM105.102 38.9013C105.503 39.6033 105.804 39.8039 105.904 40.1047C106.706 42.0102 107.508 43.9156 108.21 45.9213C109.113 48.3282 109.614 48.6291 112.021 47.8268C114.027 47.2251 116.133 46.6234 118.239 46.1219C118.54 46.0216 118.941 46.2222 119.743 46.3225C119.142 47.1248 118.841 47.7265 118.339 48.1276C117.337 49.1305 116.233 50.1334 115.231 51.1362C114.228 52.1391 113.626 53.4428 113.927 54.9471C114.228 56.4514 114.729 58.056 115.231 59.5603C115.531 60.5632 116.033 61.4658 115.632 62.7695C115.03 62.6692 114.528 62.6692 114.027 62.4686C111.319 61.566 108.612 60.6635 106.004 59.6606C105.202 59.3597 104.4 59.2595 103.698 59.8612C101.993 61.0646 100.288 62.1678 98.4829 63.2709C98.0819 63.5718 97.5799 63.7723 96.6769 64.1735C97.1789 61.8669 97.5799 59.8612 98.1819 57.9557C98.9839 55.0474 98.6829 54.8468 95.9749 52.6405C95.7749 52.44 95.4739 52.44 95.2729 52.2394C94.3709 51.5374 93.4679 50.8354 93.0669 49.3311C94.5709 49.2308 95.8749 49.1305 97.1789 49.0302C97.9809 48.9299 98.8839 49.0302 99.6859 48.9299C100.589 48.9299 101.19 48.4285 101.592 47.5259C102.494 45.2193 103.397 43.013 104.199 40.8067C104.4 40.205 104.7 39.8039 105.102 38.9013Z" fill="#FF0000"/>
</g>
<g opacity="0.5">
<path opacity="0.5" d="M230.157 403.643C230.457 404.446 230.457 405.047 230.758 405.449C232.162 408.056 233.566 410.663 235.171 413.271C235.873 414.374 235.672 415.076 234.97 416.079C233.767 417.884 232.664 419.89 231.661 421.896C230.859 423.5 231.46 424.302 233.266 424.102C235.171 423.901 236.976 423.701 238.882 423.4C240.386 423.099 241.489 423.3 242.492 424.704C243.394 426.108 244.498 427.411 245.601 428.615C246.303 429.317 247.105 430.019 248.008 430.52C249.01 431.022 249.612 430.62 249.712 429.517C250.013 427.01 250.415 424.603 250.715 422.096C250.916 420.692 251.518 419.89 252.721 419.188C255.028 417.884 257.334 416.38 259.44 414.775C261.947 412.87 261.747 411.767 259.039 410.262C258.538 409.961 258.036 409.761 257.535 409.661C256.833 409.36 256.031 409.259 255.329 408.959C251.718 407.755 250.916 406.752 251.016 402.841C251.117 400.635 250.615 398.529 249.211 396.724C248.308 395.52 247.406 395.42 246.604 396.724C245.5 398.529 244.598 400.334 243.595 402.239C243.294 402.741 243.194 403.242 242.993 403.844C242.191 405.85 241.99 405.85 239.884 405.348C237.478 404.747 235.071 404.145 232.563 403.643C231.962 403.443 231.159 403.643 230.157 403.643ZM233.165 405.649C233.968 405.749 234.369 405.749 234.67 405.85C236.675 406.451 238.681 407.053 240.586 407.655C243.094 408.457 243.495 408.257 244.498 405.95C245.3 403.944 246.202 402.039 247.105 400.033C247.205 399.732 247.606 399.532 248.208 398.93C248.409 399.933 248.71 400.535 248.71 401.136C248.91 402.54 249.01 404.045 249.111 405.449C249.211 406.953 249.913 408.156 251.217 408.858C252.621 409.56 254.125 410.162 255.629 410.663C256.632 411.065 257.635 411.265 258.337 412.368C257.936 412.769 257.535 413.171 257.134 413.371C254.727 414.875 252.32 416.38 249.913 417.884C249.111 418.386 248.609 418.887 248.509 419.79C248.308 421.896 248.108 423.901 247.907 426.007C247.807 426.509 247.707 427.01 247.406 427.913C245.902 426.007 244.598 424.503 243.495 422.898C241.69 420.391 241.389 420.492 237.979 421.194C237.678 421.294 237.478 421.394 237.177 421.494C236.074 421.695 234.97 421.996 233.566 421.394C234.369 420.191 235.171 419.088 235.873 417.984C236.374 417.282 236.876 416.681 237.377 415.979C237.979 415.277 237.979 414.474 237.478 413.672C236.274 411.566 235.071 409.46 233.867 407.354C233.767 407.053 233.566 406.552 233.165 405.649Z" fill="#FF0000"/>
</g>
<g opacity="0.5">
<path opacity="0.5" d="M36.0039 19.0434C36.2049 19.6451 36.2049 20.0463 36.4049 20.3471C37.4079 22.2526 38.3109 24.158 39.3139 25.9632C39.7149 26.7655 39.6149 27.2669 39.1129 27.9689C38.2109 29.2726 37.4079 30.5764 36.6059 31.9804C36.0039 33.0835 36.4049 33.6853 37.7089 33.585C39.0129 33.4847 40.4169 33.3844 41.7209 33.1838C42.8239 32.9833 43.6259 33.1838 44.2279 34.1867C44.8289 35.1896 45.6319 36.0921 46.3339 36.9947C46.8349 37.4961 47.4369 37.9976 48.0389 38.3987C48.7409 38.7999 49.1419 38.499 49.2419 37.6967C49.5429 35.9918 49.9439 34.1867 50.1449 32.4818C50.2449 31.4789 50.8469 30.9775 51.6489 30.4761C53.3539 29.5735 54.9579 28.5706 56.5629 27.4675C58.3679 26.1638 58.2679 25.3615 56.3619 24.2583C56.0619 24.0578 55.6599 23.8572 55.2589 23.7569C54.7579 23.5563 54.2559 23.3558 53.7549 23.2555C51.2479 22.2526 50.6459 21.5506 50.8469 18.8428C50.9469 17.2383 50.6459 15.8342 49.7439 14.4302C49.1419 13.5277 48.5399 13.5276 47.9379 14.3299C47.1359 15.5334 46.4339 16.8371 45.7319 18.1408C45.5309 18.4417 45.4309 18.8429 45.2309 19.244C44.6289 20.648 44.4279 20.648 42.9239 20.2469C41.2189 19.7454 39.5139 19.244 37.8089 18.8428C37.3079 18.9431 36.7059 19.0434 36.0039 19.0434ZM38.1099 20.5477C38.7119 20.648 38.9129 20.648 39.1129 20.7483C40.5169 21.2497 41.9209 21.6509 43.3249 22.2526C45.0299 22.9546 45.4309 22.754 46.1329 21.1494C46.7349 19.7454 47.4369 18.3414 48.1389 17.0377C48.2389 16.8371 48.5399 16.6366 48.9409 16.2354C49.0419 16.9374 49.2419 17.3385 49.2419 17.84C49.3419 18.8428 49.3419 19.946 49.4429 20.9489C49.5429 21.9517 49.9439 22.8543 50.8469 23.456C51.8499 23.9575 52.8519 24.4589 53.9559 24.86C54.6579 25.1609 55.3599 25.3615 55.8609 26.1638C55.5599 26.4646 55.2589 26.6652 54.9579 26.8658C53.2539 27.8686 51.4479 28.8715 49.6429 29.8744C49.1419 30.1752 48.7409 30.4761 48.6399 31.1781C48.4399 32.6824 48.2389 34.0864 48.0389 35.5907C47.9379 35.9918 47.8379 36.2927 47.6379 36.9947C46.6349 35.5907 45.7319 34.4876 45.0299 33.2841C43.8269 31.479 43.6259 31.5792 41.1189 31.9804C40.9179 31.9804 40.7179 32.181 40.5169 32.181C39.7149 32.2812 38.9129 32.4818 37.9099 31.9804C38.5109 31.0778 39.1129 30.3758 39.6149 29.6738C40.0159 29.1724 40.4169 28.7712 40.7179 28.2698C41.1189 27.7684 41.1189 27.1666 40.8179 26.5649C40.0159 25.0606 39.2129 23.456 38.4109 21.9517C38.5109 21.5506 38.3109 21.2497 38.1099 20.5477Z" fill="#FF0000"/>
</g>
<g opacity="0.5">
<path opacity="0.5" d="M179.414 454.087C179.615 454.689 179.615 455.089 179.816 455.39C180.818 457.295 181.721 459.201 182.724 461.006C183.125 461.808 183.025 462.311 182.523 463.013C181.621 464.316 180.818 465.619 180.016 467.023C179.414 468.126 179.816 468.729 181.119 468.629C182.423 468.528 183.827 468.428 185.131 468.228C186.234 468.027 187.036 468.227 187.638 469.229C188.24 470.232 189.042 471.136 189.744 472.038C190.245 472.54 190.847 473.04 191.449 473.441C192.151 473.843 192.552 473.542 192.652 472.739C192.953 471.035 193.354 469.23 193.555 467.526C193.655 466.523 194.257 466.02 195.059 465.519C196.764 464.616 198.369 463.613 199.973 462.51C201.778 461.207 201.678 460.405 199.773 459.302C199.472 459.102 199.071 458.901 198.669 458.801C198.168 458.6 197.667 458.399 197.165 458.298C194.658 457.295 194.056 456.594 194.257 453.887C194.357 452.282 194.056 450.878 193.154 449.474C192.552 448.571 191.95 448.571 191.349 449.374C190.546 450.576 189.844 451.881 189.142 453.185C188.942 453.485 188.841 453.887 188.641 454.288C188.039 455.692 187.839 455.691 186.334 455.29C184.629 454.788 182.924 454.288 181.22 453.887C180.718 454.087 180.116 454.087 179.414 454.087ZM181.52 455.691C182.122 455.791 182.323 455.792 182.523 455.892C183.927 456.394 185.331 456.795 186.735 457.397C188.44 458.099 188.841 457.898 189.543 456.293C190.145 454.889 190.847 453.485 191.549 452.182C191.649 451.981 191.95 451.781 192.351 451.379C192.452 452.081 192.652 452.483 192.652 452.984C192.753 453.987 192.753 455.089 192.853 456.092C192.953 457.095 193.354 457.998 194.257 458.6C195.26 459.102 196.263 459.603 197.366 460.004C198.068 460.305 198.77 460.505 199.271 461.307C198.97 461.608 198.669 461.808 198.369 462.009C196.664 463.012 194.859 464.016 193.053 465.018C192.552 465.319 192.151 465.619 192.051 466.321C191.85 467.825 191.649 469.229 191.449 470.734C191.349 471.135 191.248 471.437 191.048 472.139C190.045 470.735 189.142 469.632 188.44 468.428C187.237 466.623 187.036 466.723 184.529 467.124C184.328 467.124 184.128 467.324 183.927 467.324C183.125 467.424 182.323 467.626 181.32 467.124C181.922 466.222 182.523 465.52 183.025 464.818C183.426 464.316 183.827 463.915 184.128 463.414C184.529 462.912 184.529 462.31 184.228 461.708C183.426 460.204 182.624 458.6 181.821 457.096C181.922 456.594 181.721 456.292 181.52 455.691Z" fill="#FF0000"/>
</g>
<g opacity="0.5">
<path opacity="0.5" d="M245.5 124.144C245.902 124.846 246.002 125.347 246.303 125.648C248.008 127.754 249.712 129.86 251.518 131.866C252.32 132.768 252.22 133.37 251.818 134.373C251.016 136.178 250.414 138.084 249.813 140.089C249.412 141.594 250.114 142.296 251.618 141.794C253.222 141.293 254.927 140.892 256.432 140.19C257.735 139.688 258.838 139.688 259.841 140.791C260.844 141.894 262.048 142.797 263.251 143.7C263.953 144.201 264.856 144.703 265.758 145.003C266.761 145.304 267.162 144.803 267.062 143.8C266.962 141.594 266.962 139.287 266.761 137.081C266.661 135.777 267.162 134.975 268.065 134.172C269.87 132.568 271.675 130.863 273.38 129.058C275.285 126.952 274.985 125.949 272.277 125.147C271.775 124.946 271.274 124.946 270.773 124.846C270.071 124.745 269.369 124.645 268.667 124.545C265.257 124.044 264.354 123.241 263.853 119.831C263.552 117.826 262.75 116.121 261.245 114.717C260.242 113.814 259.44 113.915 258.939 115.118C258.237 116.823 257.735 118.728 257.234 120.533C257.134 121.035 257.033 121.536 256.933 122.038C256.532 123.943 256.331 124.043 254.326 123.943C252.019 123.843 249.813 123.743 247.506 123.642C247.205 123.642 246.503 123.943 245.5 124.144ZM248.609 125.448C249.311 125.347 249.612 125.347 249.913 125.347C251.818 125.548 253.624 125.748 255.529 126.049C257.836 126.35 258.237 126.15 258.738 123.843C259.139 121.937 259.641 120.032 260.042 118.127C260.142 117.826 260.443 117.525 260.844 116.923C261.245 117.725 261.546 118.227 261.747 118.829C262.148 120.132 262.449 121.336 262.85 122.639C263.251 123.943 263.953 124.946 265.257 125.347C266.661 125.748 268.065 126.049 269.469 126.25C270.371 126.45 271.374 126.45 272.177 127.353C271.876 127.754 271.575 128.155 271.274 128.456C269.369 130.161 267.463 131.966 265.558 133.671C264.956 134.172 264.555 134.774 264.655 135.576C264.856 137.482 264.956 139.287 265.157 141.192C265.157 141.694 265.157 142.095 265.056 142.998C263.452 141.594 262.048 140.39 260.744 139.187C258.738 137.181 258.437 137.382 255.529 138.585C255.328 138.685 255.128 138.886 254.927 138.986C253.924 139.387 253.022 139.788 251.618 139.488C252.119 138.284 252.621 137.181 253.122 136.078C253.423 135.376 253.824 134.774 254.125 134.072C254.526 133.27 254.326 132.668 253.824 131.966C252.42 130.261 251.016 128.657 249.612 126.952C249.311 126.551 249.111 126.15 248.609 125.448Z" fill="#FF0000"/>
</g>
<g opacity="0.5">
<path opacity="0.5" d="M136.789 5.30324C136.99 5.90494 136.99 6.30604 137.191 6.60694C138.193 8.51234 139.096 10.4178 140.099 12.223C140.5 13.0252 140.4 13.5267 139.898 14.2287C138.996 15.5324 138.193 16.8361 137.391 18.2401C136.789 19.3433 137.191 19.945 138.494 19.8447C139.798 19.7444 141.202 19.6441 142.506 19.4436C143.609 19.243 144.411 19.4436 145.013 20.4464C145.615 21.4493 146.417 22.3519 147.119 23.2545C147.62 23.7559 148.222 24.2573 148.824 24.6585C149.526 25.0596 149.927 24.7588 150.027 23.9565C150.328 22.2516 150.729 20.4465 150.93 18.7416C151.03 17.7387 151.632 17.2373 152.434 16.7358C154.139 15.8333 155.744 14.8304 157.348 13.7273C159.153 12.4235 159.053 11.6212 157.148 10.5181C156.847 10.3175 156.446 10.1169 156.044 10.0166C155.543 9.81614 155.042 9.61554 154.54 9.51524C152.033 8.51234 151.431 7.81034 151.632 5.10264C151.732 3.49804 151.431 2.09404 150.529 0.690041C149.927 -0.212559 149.325 -0.212559 148.724 0.589741C147.921 1.79324 147.219 3.09694 146.517 4.40064C146.317 4.70144 146.216 5.10264 146.016 5.50374C145.414 6.90784 145.214 6.90784 143.709 6.50664C142.004 6.00524 140.299 5.50384 138.595 5.10264C138.093 5.30324 137.491 5.30324 136.789 5.30324ZM138.895 6.90784C139.497 7.00804 139.698 7.00814 139.898 7.10834C141.302 7.60984 142.706 8.01094 144.11 8.61264C145.815 9.31464 146.216 9.11414 146.918 7.50954C147.52 6.10554 148.222 4.70144 148.924 3.39774C149.024 3.19724 149.325 2.99664 149.726 2.59544C149.827 3.29754 150.027 3.69864 150.027 4.20004C150.128 5.20294 150.128 6.30604 150.228 7.30894C150.328 8.31184 150.729 9.21434 151.632 9.81614C152.635 10.3175 153.638 10.8189 154.741 11.2201C155.443 11.521 156.145 11.7215 156.646 12.5238C156.345 12.8247 156.044 13.0252 155.744 13.2258C154.039 14.2287 152.234 15.2316 150.428 16.2344C149.927 16.5353 149.526 16.8361 149.426 17.5381C149.225 19.0424 149.024 20.4464 148.824 21.9507C148.724 22.3519 148.623 22.6527 148.423 23.3547C147.42 21.9507 146.517 20.8476 145.815 19.6442C144.612 17.839 144.411 17.9393 141.904 18.3404C141.703 18.3404 141.503 18.541 141.302 18.541C140.5 18.6413 139.698 18.8418 138.695 18.3404C139.297 17.4378 139.898 16.7358 140.4 16.0338C140.801 15.5324 141.202 15.1313 141.503 14.6298C141.904 14.1284 141.904 13.5267 141.603 12.9249C140.801 11.4206 139.999 9.81614 139.196 8.31184C139.297 7.81034 139.096 7.50954 138.895 6.90784Z" fill="#FF0000"/>
</g>
<g opacity="0.5">
<path opacity="0.5" d="M244.197 2.89746C243.996 3.49926 243.796 3.80006 243.695 4.20126C243.394 6.30726 242.993 8.41326 242.793 10.5193C242.692 11.4219 242.291 11.7228 241.489 12.0236C239.985 12.5251 238.581 13.1268 237.177 13.8288C236.074 14.4305 236.074 15.1325 237.076 15.8345C238.18 16.5365 239.383 17.2385 240.486 17.8402C241.489 18.3417 241.99 18.9434 241.89 20.1468C241.79 21.3503 241.89 22.5537 241.99 23.6569C242.091 24.3589 242.291 25.1612 242.592 25.7629C242.893 26.4649 243.394 26.4649 243.996 25.9634C245.2 24.76 246.503 23.5566 247.807 22.2529C248.509 21.5509 249.211 21.3503 250.214 21.5508C252.119 21.7514 254.025 21.952 255.93 21.952C258.137 21.952 258.538 21.25 257.635 19.2443C257.435 18.8431 257.234 18.5423 257.033 18.2414C256.733 17.74 256.432 17.3388 256.131 16.9377C254.627 14.6311 254.627 13.8288 256.331 11.6225C257.334 10.419 257.936 9.01496 257.936 7.41036C257.936 6.30726 257.435 5.90606 256.432 6.30726C255.028 6.80866 253.724 7.51066 252.42 8.11246C252.019 8.31296 251.718 8.51356 251.417 8.71416C250.114 9.51646 249.913 9.41616 249.01 8.21276C247.907 6.80866 246.804 5.40466 245.601 4.10096C245.3 3.59956 244.798 3.39896 244.197 2.89746ZM244.999 5.40466C245.4 5.80586 245.601 5.90616 245.801 6.10666C246.704 7.31016 247.506 8.51356 248.409 9.71706C249.412 11.2213 249.813 11.3216 251.317 10.419C252.621 9.61666 254.025 8.91476 255.329 8.21276C255.529 8.11246 255.83 8.11246 256.432 8.11246C256.131 8.81446 256.031 9.21556 255.73 9.61676C255.228 10.5193 254.627 11.3216 254.125 12.2242C253.523 13.1268 253.423 14.1296 253.824 15.0322C254.326 16.0351 254.927 17.0379 255.529 17.9405C255.93 18.5422 256.432 19.144 256.331 20.0466C255.93 20.0466 255.529 20.1468 255.228 20.1468C253.223 19.9463 251.217 19.7457 249.211 19.5451C248.609 19.4448 248.108 19.5451 247.606 20.0466C246.604 21.1497 245.601 22.2529 244.598 23.2557C244.297 23.5566 243.996 23.7572 243.495 24.1583C243.495 22.4534 243.394 21.0494 243.495 19.6454C243.595 17.4391 243.294 17.3388 241.088 16.3359C240.887 16.2357 240.687 16.2357 240.486 16.1354C239.784 15.7342 238.982 15.4334 238.48 14.5308C239.483 14.2299 240.386 13.9291 241.288 13.6282C241.89 13.4276 242.392 13.3274 242.993 13.1268C243.595 12.9262 243.996 12.525 244.096 11.823C244.297 10.1182 244.598 8.41326 244.798 6.70846C244.798 6.40756 244.899 6.00636 244.999 5.40466Z" fill="#FF0000"/>
</g>
<g opacity="0.5">
<path opacity="0.5" d="M26.676 413.17C26.676 413.772 26.575 414.173 26.676 414.574C27.077 416.68 27.478 418.786 27.979 420.792C28.18 421.694 27.879 422.096 27.277 422.697C26.074 423.7 24.871 424.803 23.767 425.906C22.865 426.809 23.166 427.511 24.369 427.812C25.673 428.113 26.977 428.414 28.28 428.514C29.383 428.614 30.085 429.015 30.386 430.219C30.687 431.322 31.189 432.425 31.69 433.528C31.991 434.23 32.392 434.832 32.893 435.333C33.495 435.935 33.896 435.735 34.297 435.033C35.1 433.428 35.902 431.823 36.604 430.219C37.005 429.316 37.607 428.915 38.61 428.715C40.515 428.313 42.32 427.812 44.126 427.21C46.232 426.508 46.332 425.706 44.828 424.101C44.527 423.8 44.226 423.6 43.925 423.299C43.524 422.998 43.022 422.697 42.621 422.396C40.415 420.792 40.114 419.889 41.017 417.382C41.518 415.878 41.618 414.374 41.117 412.869C40.716 411.866 40.214 411.666 39.412 412.268C38.309 413.27 37.306 414.273 36.203 415.376C35.902 415.677 35.701 415.978 35.501 416.279C34.498 417.382 34.398 417.382 32.994 416.58C31.489 415.677 29.985 414.775 28.381 413.872C27.979 413.471 27.478 413.371 26.676 413.17ZM28.28 415.176C28.782 415.376 29.083 415.477 29.283 415.577C30.487 416.379 31.69 417.282 32.893 418.084C34.398 419.187 34.699 419.187 35.902 417.783C36.905 416.58 37.908 415.477 38.911 414.374C39.111 414.173 39.412 414.173 39.913 413.872C39.913 414.574 39.913 415.076 39.813 415.477C39.613 416.48 39.312 417.482 39.111 418.485C38.911 419.488 39.011 420.491 39.813 421.193C40.615 421.995 41.518 422.697 42.421 423.399C43.022 423.901 43.624 424.202 43.925 425.104C43.524 425.305 43.223 425.505 42.922 425.505C40.916 426.007 39.011 426.508 37.005 427.01C36.403 427.11 35.902 427.411 35.701 428.012C35.1 429.417 34.498 430.72 33.896 432.124C33.796 432.425 33.495 432.726 33.194 433.328C32.593 431.723 32.091 430.419 31.69 429.015C31.088 426.909 30.787 426.909 28.28 426.709C28.08 426.709 27.879 426.809 27.679 426.709C26.876 426.608 26.074 426.508 25.171 425.806C25.974 425.104 26.776 424.603 27.478 424.001C27.979 423.6 28.481 423.299 28.982 422.998C29.484 422.597 29.684 422.096 29.584 421.394C29.183 419.689 28.882 417.984 28.581 416.279C28.481 416.279 28.381 415.878 28.28 415.176Z" fill="#FF0000"/>
</g>
<g opacity="0.5">
<path opacity="0.5" d="M0 251.006C0.201 251.607 0.300999 252.008 0.501999 252.309C1.605 254.114 2.608 256.02 3.811 257.725C4.313 258.527 4.212 259.029 3.711 259.731C2.909 261.034 2.106 262.438 1.505 263.943C1.003 265.046 1.404 265.647 2.708 265.547C4.012 265.347 5.316 265.246 6.619 264.945C7.722 264.745 8.525 264.845 9.227 265.848C9.929 266.851 10.731 267.753 11.533 268.556C12.035 269.057 12.636 269.559 13.338 269.859C14.04 270.261 14.442 269.859 14.542 269.057C14.742 267.252 14.943 265.547 15.144 263.742C15.244 262.739 15.745 262.137 16.548 261.636C18.152 260.633 19.757 259.53 21.261 258.327C22.966 256.922 22.866 256.12 20.86 255.117C20.459 254.917 20.158 254.816 19.757 254.716C19.255 254.516 18.754 254.415 18.152 254.315C15.545 253.513 14.943 252.811 14.943 250.103C14.943 248.498 14.542 247.094 13.539 245.791C12.837 244.988 12.235 244.888 11.734 245.891C11.032 247.195 10.43 248.498 9.728 249.802C9.528 250.203 9.528 250.504 9.327 250.905C8.826 252.309 8.625 252.41 7.121 252.008C5.416 251.607 3.611 251.306 1.906 251.006C1.304 250.805 0.803 250.905 0 251.006ZM2.207 252.41C2.808 252.41 3.009 252.41 3.21 252.51C4.614 252.911 6.118 253.312 7.522 253.713C9.327 254.215 9.628 254.114 10.23 252.41C10.731 251.006 11.333 249.602 11.934 248.198C12.035 247.997 12.336 247.796 12.737 247.395C12.937 248.097 13.138 248.498 13.138 249C13.338 250.003 13.338 251.106 13.539 252.109C13.639 253.112 14.141 254.014 15.144 254.516C16.147 255.017 17.25 255.418 18.353 255.719C19.055 255.92 19.757 256.12 20.359 256.822C20.058 257.123 19.857 257.424 19.556 257.624C17.851 258.728 16.147 259.831 14.542 260.934C14.04 261.235 13.639 261.636 13.639 262.338C13.539 263.842 13.439 265.246 13.338 266.751C13.338 267.152 13.238 267.453 13.038 268.155C11.934 266.851 11.032 265.748 10.129 264.645C8.826 262.839 8.625 263.04 6.218 263.541C6.018 263.541 5.817 263.742 5.717 263.742C4.914 263.943 4.112 264.143 3.109 263.742C3.711 262.839 4.212 262.037 4.714 261.335C5.015 260.834 5.416 260.332 5.717 259.931C6.118 259.43 6.118 258.828 5.717 258.226C4.814 256.722 3.912 255.318 3.009 253.814C2.708 253.312 2.508 253.011 2.207 252.41Z" fill="#FF0000"/>
</g>
<g opacity="0.5">
<path opacity="0.5" d="M65.9908 350.49C65.4888 351.192 65.0878 351.593 64.8878 352.094C63.7848 354.902 62.5808 357.61 61.5778 360.418C61.1768 361.622 60.4748 361.922 59.2718 362.023C57.0648 362.223 54.8588 362.624 52.7528 363.126C51.0478 363.527 50.7468 364.53 52.0508 365.834C53.3548 367.137 54.6578 368.541 56.1628 369.745C57.3658 370.748 57.8678 371.75 57.3658 373.355C56.8648 374.96 56.5638 376.564 56.3628 378.269C56.2628 379.272 56.2628 380.375 56.4638 381.378C56.6638 382.481 57.3658 382.682 58.3688 382.08C60.4748 380.776 62.6808 379.573 64.7868 378.269C65.9908 377.567 66.9938 377.567 68.2968 378.068C70.8048 379.071 73.4118 379.874 76.0188 380.576C79.0278 381.378 79.8298 380.475 79.2288 377.366C79.1278 376.865 78.9278 376.263 78.7268 375.762C78.4258 375.06 78.1258 374.358 77.9248 373.656C76.6208 370.046 76.9218 368.842 79.9308 366.536C81.7358 365.132 82.9388 363.527 83.5408 361.321C83.9418 359.816 83.4408 359.114 81.9358 359.315C79.9308 359.616 77.8248 360.017 75.8188 360.418C75.3168 360.518 74.8158 360.819 74.2138 360.919C72.2088 361.521 72.0078 361.421 71.1048 359.415C70.0018 357.109 68.9988 354.902 67.7958 352.696C67.2948 351.894 66.5928 351.292 65.9908 350.49ZM66.2918 354.1C66.6928 354.802 66.9938 355.003 67.0938 355.303C67.8958 357.209 68.6988 359.114 69.4008 361.12C70.3028 363.627 70.7038 363.828 73.2108 363.026C75.2168 362.424 77.3228 361.822 79.4288 361.321C79.7298 361.22 80.1308 361.421 80.9338 361.521C80.3318 362.324 80.0308 362.925 79.5298 363.326C78.5268 364.329 77.4228 365.332 76.4208 366.335C75.4178 367.338 74.8158 368.642 75.1168 370.146C75.4178 371.65 75.9188 373.255 76.4208 374.759C76.7208 375.762 77.2228 376.664 76.8218 377.968C76.2198 377.868 75.7188 377.868 75.2168 377.667C72.5088 376.765 69.8018 375.862 67.1938 374.859C66.3918 374.558 65.5898 374.458 64.8878 374.96C63.1828 376.163 61.4778 377.266 59.6728 378.369C59.2718 378.67 58.7698 378.77 57.8678 379.272C58.3688 376.965 58.7698 374.96 59.3718 373.054C60.2748 370.146 59.8728 369.945 57.1658 367.739C56.9648 367.538 56.6638 367.538 56.4638 367.338C55.5608 366.636 54.6578 365.934 54.2568 364.43C55.7618 364.329 57.0648 364.229 58.3688 364.129C59.1708 364.129 60.0738 364.129 60.8758 364.028C61.7788 364.028 62.3808 363.527 62.7818 362.624C63.6838 360.318 64.5868 358.111 65.4888 355.905C65.5898 355.504 65.8908 355.003 66.2918 354.1Z" fill="#FF0000"/>
</g>
</g>
</svg>
