<svg width="19" height="19" fill="none" xmlns="http://www.w3.org/2000/svg"><g clip-path="url(#clip0_90_7267)" fill="#222"><path d="M14.549 3.303a.448.448 0 01-.502.255c-2.195-.763-5.08-.403-7.692.953C3.115 6.184.921 9.107.88 11.776c0 .043 0 .064-.021.106.02.487.188.657.272.72.209.149.815.106 1.755-.572.042-.02.063-.042.126-.063a1.462 1.462 0 011.923.678c.355.72.104 1.588-.606 1.99-.335.234-.46.488-.377.806a.913.913 0 00.67.677h.125a7.587 7.587 0 001.735.191c1.672 0 3.49-.466 5.204-1.356a.438.438 0 01.585.17.45.45 0 01-.167.593s-.02 0-.02.021a12.291 12.291 0 01-5.582 1.44 9.655 9.655 0 01-1.902-.19c-.627-.064-1.254-.636-1.421-1.335-.167-.656.063-1.27.648-1.694l.02-.021.022-.021s0-.022.02-.022h.022s.02 0 .02-.02a.643.643 0 00.272-.87.624.624 0 00-.376-.317c-.063.021-.146.021-.209.021a.729.729 0 00-.293.064h-.02c-.732.508-1.38.783-1.903.783-.271 0-.522-.084-.752-.233-.606-.423-.815-1.334-.544-2.563v-.02c.502-2.712 2.76-5.402 5.853-7.012 2.822-1.461 5.957-1.843 8.36-1.017.23.106.335.36.23.593z"/><path d="M8.466 11.734c-.878 0-1.568.72-1.568 1.589 0 .868.711 1.589 1.568 1.589a1.6 1.6 0 00.71-.17c.523-.275.858-.826.858-1.419 0-.89-.71-1.589-1.568-1.589zm.669 1.843a.683.683 0 01-.376.424.828.828 0 01-.314.063.742.742 0 01-.23-.042.68.68 0 01-.418-.381c-.167-.36-.02-.805.335-.975a.607.607 0 01.334-.084h.084c.25.02.46.17.564.402a.833.833 0 01.021.593zM12.75 5.55a.4.4 0 01-.208.064h-.021a.518.518 0 01-.46-.276.56.56 0 01.23-.72.54.54 0 01.23-.063.5.5 0 01.46.296.529.529 0 01-.23.7zm-2.947.063a.417.417 0 01-.23.063.518.518 0 01-.46-.275.56.56 0 01.23-.72.54.54 0 01.23-.064c.189 0 .377.106.46.276a.547.547 0 01-.23.72zM7.13 6.61a.656.656 0 01-.272.317.417.417 0 01-.23.064.646.646 0 01-.376-.149.514.514 0 01-.147-.38c0-.297.23-.53.523-.53a.5.5 0 01.46.296.482.482 0 01.042.381zM4.787 8.94c0 .19-.104.381-.292.466a.472.472 0 01-.23.063.597.597 0 01-.376-.148.514.514 0 01-.147-.381c0-.149.063-.276.147-.382a.5.5 0 01.376-.148c.146 0 .271.064.376.148a.665.665 0 01.146.382zm13.441-3.73a2.934 2.934 0 00.69-2.626L18.375.318a.55.55 0 00-.147-.233.587.587 0 00-.271-.085.435.435 0 00-.335.17l-1.442 1.8a2.94 2.94 0 00-.44 2.711v.043l-.229 2.033-.02.021c-1.13 1.06-1.882 2.754-2.008 4.512l-.522 6.969a.415.415 0 00.334.444l1.317.297h.084a.427.427 0 00.418-.297l2.383-6.566a7.681 7.681 0 00.46-3.071 6.591 6.591 0 00-.377-1.78v-.02l.21-.827.438-1.228zm-1.484 6.652l-2.278 6.206-.585-.127v-.042l.48-6.567a6.183 6.183 0 011.589-3.791l.02-.021.858.19v.021c.167.466.25.932.272 1.42a6.274 6.274 0 01-.356 2.71zm.815-7.202a.309.309 0 00-.125.19l-.46 1.356v.043l-.146.572-.44-.106.21-2.013c0-.084 0-.17-.042-.254v-.021a2.053 2.053 0 01.293-1.928l.898-1.122.335 1.398c.146.699-.042 1.398-.523 1.885z"/></g><defs><clipPath id="clip0_90_7267"><path fill="#fff" d="M0 0h19v19H0z"/></clipPath></defs></svg>