<svg width="115" height="107" fill="none" xmlns="http://www.w3.org/2000/svg"><g opacity=".4" fill-rule="evenodd" clip-rule="evenodd" fill="#fff"><path d="M3.267-1.846c3.074-2.406 8.32-2.616 12.435-3.647 1.97-.452 3.859-1.2 5.604-2.219 1.515-.926 2.632-2.221 4.208-3.083 3.617-2.043 6.835.433 6.76 4.497-.06 3.435-3.118 6.76-7.385 8.295a30.94 30.94 0 002.747 1.784c4.188-1.836 9.513-1.974 12.24-.087.918.63 2.195 2.048 1.638 3.347a2.459 2.459 0 01.861 2.604c1.985 2.437-1.004 3.71-3.389 4.853-1.364.649-2.99.98-4.142 1.591-1.762.934-3.2 2.059-5.342 2.903-6.078 2.379-12.954 2.467-17.807 5.916a9.315 9.315 0 01-3.842 4.953C5.785 31.125 3.01 31.575.335 32.463c-2.446.815-5.05 2.131-7.672 2.947-2.377.745-5.788 1.68-7.627 1.155-.518-.146-1.14-.736-1.482-.708a7.768 7.768 0 00-1.765.752c-1.829.702-3.336.98-4.731.614a3.356 3.356 0 01-2.64-2.61c-.37-1.655.463-3.458 1.154-4.772a18.149 18.149 0 017.935-7.59 7.115 7.115 0 01-.98-2.741 10.568 10.568 0 01-7.402.686 25.719 25.719 0 01-2.584-.995c-1.22-.463-2.478-.721-3.075-2.084a7.294 7.294 0 011.31-7.67c-.444-.982-.4-2.32-.423-3.506-.052-2.6.052-5.156 1.011-7.337 1.32-2.964 3.76-5.493 7.502-7.21 2.648-1.223 6.153-1.036 8.246-.688 2.783.465 5.455 2.19 8.286 3.274a39.304 39.304 0 017.869 4.174zm-14.712-.1C-8.893.99-8.474 5.788-8.277 8.897c-.015 1.446.136 2.89.45 4.302a5.698 5.698 0 002.304 3.23c4.187 2.516 8.883-2.678 10.32-5.6C5.865 8.68 6.748 6.243 5.824 3.341 4.9.439 2.598-1.237.237-2.531A49.994 49.994 0 00-5.935-5.48c-2.212-.83-4.015-2.03-6.322-2.612a14.574 14.574 0 00-7.51.046 13.759 13.759 0 00-5.749 3.675c-1.154 1.177-2.482 2.935-2.84 4.43-.61 2.553-.128 5.184-.143 8.125.024.064-.053.13.047.121.198-.458.695-.788.867-1.257a1.266 1.266 0 01.286-2.025c.57-.33.909-.078 1.03-.257-.07-.45-.408-.833.04-1.005.556-.214.652.666.926 1.111a8.458 8.458 0 015.194-.153c.203-.313.963-1.713 1.415-1.109.265.346-.085.656-.368 1.066-.713 1.008-1.075 1.022-2.192.769a6.677 6.677 0 00-1.358-.212c-.805-.014-2.108-.064-2.97.575-.325.429-.627.875-.902 1.338-1.73 2.198-3.417 3.843-3.583 6.563-.1 1.07.093 2.147.559 3.116.36.595 1.41.999 2.107 1.245 2.26.804 4.777 1.913 7.601 1.13a13.249 13.249 0 003.403-1.667c1.032-.653 2.2-1.205 2.81-1.93.76-.902.444-2.262-.399-3.252-.558-.65-2.973-1.895-2.02-2.488.505-.311 2.195 1.13 2.716 1.722 1.051 1.189 1.497 2.961.917 4.05a3.958 3.958 0 004.481-.159c-1.641-2.553-1.325-5.36-1.56-8.13-.223-2.909-.75-6.572-2.624-8.853-.337-.42-1.105-.662-.965-1.405.697-.268 1.213.54 1.596.964zm-15.49 8.436c.014-.137.09-.474-.166-.434-.045.075.011.45.16.437l.007-.003zM17.98-2.179c1.927 1.197 3.688 2.685 5.673 3.5 3.971-1.123 7.042-4.034 7.573-7.025.262-1.437-.42-3.786-1.734-4.514-2.548-1.42-5.507 2.05-7.53 3.318-3.318 2.074-7.841 2.829-11.152 3.433-2.482.454-5.208.71-6.906 2.154 4.24 3.683 3.734 8.88 1.87 12.62C4.6 13.657 2.817 15.97.23 17.199c-3.433 1.627-5.562.801-7.57-.856-2.058 1.385-4.082.835-5.508.062-1.026.996-2.6 1.732-3.884 2.63.5 3.211 2.875 5.058 5.456 4.785a19.862 19.862 0 015.908-3.832c.797-.35 2.069-.993 2.286-.313.217.68-1.336 1.048-1.848 1.282a22.64 22.64 0 00-5.872 3.81c-1.907 1.856-3.84 4.197-4.766 6.446-.265.645-.76 2.03-.493 2.956.607 2.114 3.331 1.376 5.076 1.028a32.598 32.598 0 005.817-1.662c2.104-.808 4.01-1.768 5.909-2.343 1.664-.5 4.032-.962 5.896-1.84a6.958 6.958 0 003.138-2.907c1.49-2.539 1.762-4.39.097-8.056-.19-.492-.923-1.487-.303-1.725.62-.238 1.33 1.822 1.624 2.567.443 1 .73 2.063.851 3.15.023.498-.198 1.185-.018 1.424 5.779-4.054 12.951-3.508 19.422-6.889-1.547.213-3.474.601-5.172.212-.526-.128-1.116-.481-1.838-.718-.25-.08-1.99-.614-1.038-1.23.365-.235 1.211.269 1.566.39.354.12 1.202.455 1.557.538 2.645.62 7.47-.741 10.73-1.994 1.509-.58 5.102-1.996 4.764-3.297-.086-.32-.612-.601-.71-.93-.181-.474.233-1 .105-1.39-.128-.392-.798-.721-.926-1.112-.128-.391.232-1 .08-1.454a3.657 3.657 0 00-1.43-1.505 8.403 8.403 0 00-2.576-.786 13.643 13.643 0 00-5.851.046c-1 .223-2.142.823-3.212.882-.93.064-2.21-1.11-3.207-1.702-.998-.593-2.085-1.188-2.926-1.716-1.593-.995-2.72-2-4.18-2.936-.377-.236-1.209-.416-1.162-1.116.714-.355 1.409.383 1.951.725l.006-.002zm-41.977 33.505c-.465 1.081-.902 2.694-.334 3.753 1.161 2.143 4.818 1.083 7.397-.15-.637-2.345.329-4.242 1.347-5.909a39.153 39.153 0 013.16-4.149c-1.422-.187-2.449-1.18-3.552-2.047a17.622 17.622 0 00-8.024 8.504l.006-.002zm94.242-52.944c.373 1.581.626 4.228 1.962 5.277 2.182-.677 3.899-1.651 5.165-.208 1.572 1.78-.145 3.174-1.852 4.042-.832.43-1.76.86-1.818 1.55-.13 1.744 2.124 3.255 2.36 4.845-1.01 1.363-4.754 2.904-6.3 2.067-1.083-.603-1.007-2.467-2.112-3.091-1.172-.225-3.01 1.2-2.77 2.34.092.486.74.97.85 1.655.258 1.551-1.988 2.56-4.023 3.012-.715.165-1.742.354-2.188-.157-.524-.598-.57-1.77-.701-2.57-.132-.8-.199-1.662-.387-2.478-.66-.245-1.32.25-1.948.47-1.502.518-3.152.903-4.012-.095-1.158-1.353-.413-3.671 1.377-4.359.499-.191 1.187-.118 1.619-.409 1.456-.984-1.334-4.16-1.502-5.38.2-.928 1.46-1.47 2.575-1.987 1.115-.516 2.876-1.164 3.647-.667.77.496.564 1.47 1.11 2.339a1.726 1.726 0 003.106-1.332c-.13-.604-.65-1.005-.705-1.644-.169-1.968 4.692-3.6 6.547-3.22zm-15.534 6.466c1.001 1.92 3.17 4.814 1.363 6.146-.538.397-1.522.43-2.225.854a1.74 1.74 0 00-.683 2.464c.972 1.402 4.955-1.904 5.919-.293.149.4.239.821.266 1.248.191 1.306.474 2.597.846 3.864 1.424-.114 4.244-.735 4.493-2.151a5.07 5.07 0 01-.859-1.872c-.154-1.796 2.47-3.883 4.234-3.189.606.32 1.082.84 1.35 1.47.303.617.312 1.252.826 1.598 1.005.707 3.596-.685 4.68-1.3-.781-1.614-2.878-3.501-2.131-5.358.302-.74 1.308-1.236 2.374-1.763.869-.451 2.057-1.179 1.676-2.111a1.644 1.644 0 00-1.752-.743c-.996.177-1.912.962-2.764.922-1.962-.104-2.226-3.503-2.695-5.355-1.647.2-4.072.992-4.895 2.233 2.695 3.557-2.467 6.677-4.251 3.694-.403-.666-.346-1.283-.726-2.061-1.457-.394-3.627 1.004-5.046 1.704z"/><path d="M32.282 11.982a2.48 2.48 0 01-.475 2.45c-.49-.626.225-1.554.168-2.332l.307-.118zm1.051.159c.01.73.066 1.948-.709 1.974.024-.677.15-1.346.375-1.985.16-.12.21.03.334.011zm.77-.22c.275.563.236 1.664-.525 1.765.042-.655-.07-1.367.525-1.764zm1.042-.048c.08.666.134 1.32-.493 1.657-.243-.48-.106-1.69.493-1.657zm.855-.181c.015.515.138 1.084-.484 1.316-.069-.025-.102-.152-.2-.136.185-.38.017-1.504.684-1.18zm19.727-5.738a.364.364 0 01.635.182c.29.93-1.3.455-.635-.182zm17.586 34.894a71.49 71.49 0 013.856 9.656c-3.205 3.557-6.674 7.017-10.05 10.603-.433.46-.84 1.269-1.648 1.058-.546-.905-.675-2.14-1.072-3.344-.397-1.205-.795-2.395-1.145-3.537-2.07-.672-4.367-.787-6.285-1.767-.66 1.148-1.364 2.578-2.05 3.905-.228.44-.377 1.062-.803 1.233-.426.171-1.17-.181-1.55-.329-.38-.148-1.123-.383-1.315-.845-.192-.462.201-1.119.372-1.61.528-1.604.906-3.18 1.556-4.64a18.14 18.14 0 01-5.502-3.418 98.397 98.397 0 01-3.684 2.405c-1.258.792-2.38 1.766-3.712 2.16-.612-.565-.33-1.473-.326-2.15.002-3.602.239-7.208.54-10.779.007-1.382.221-2.755.636-4.074 2.21-.966 4.514-1.807 6.957-2.745a9.022 9.022 0 002.209-.915c.282-.24.517-1.137.757-1.714a40.582 40.582 0 016.727-11.307c3.474-3.983 8.02-7.065 14.845-9.753.516-1.254 1.023-2.513 1.467-3.82-2.184-2.096-1.145-5.503 1.882-5.624a3.137 3.137 0 013.31 3.057 3.491 3.491 0 01-1.528 2.861c-.326.184-.85.173-1.137.364-.402.271-.54 1.307-.733 1.91-.194.603-.734 1.47-.668 1.966.23.738.53 1.453.894 2.136 2.033 5.448 1.642 10.14 1.077 14.627a51.551 51.551 0 01-3.877 14.43zM76.919 4.63a2.383 2.383 0 001.079-3.114c-.754-1.369-3.263-1.388-4.02.077a2.445 2.445 0 00.504 2.785c.867-.018 1.512.651 2.438.252zm-2.138.888c-.328.903-.634 1.806-.95 2.705.352-.099.534.184.831.253.29-.948.673-1.858.989-2.794-.331.017-.544-.194-.864-.167l-.006.003zm-12.154 9.921c4.099 3.297 8.834 5.176 13.907 6.294-.007-3.666-.29-8.795-2.682-12.52a63.465 63.465 0 00-11.218 6.224l-.007.002zm-8.66 10.707c6.175 4.231 12.38 8.45 20.174 9.125 1.404-3.833 1.898-8.066 2.365-12.332a79.637 79.637 0 01-7.67-2.585 31.393 31.393 0 01-6.863-4.385l-.122.047a31.374 31.374 0 00-7.877 10.128l-.006.002zm-.45.738c-3.125 6.13-4.722 12.936-5.21 20.24a16.998 16.998 0 005.117 3.353c.855-2.206 1.54-4.472 2.406-6.668.866-2.196 1.525-4.49 2.748-6.521 2.998-1.592 4.403-.665 5.317 2.212-1.929 4.527-4.569 8.732-6.551 13.235a30.009 30.009 0 005.65 1.587c4.283-5.732 9.071-11.24 10.862-18.076-7.89-.579-14.119-4.935-20.313-9.372l-.026.01zm-10.204 8.674c-.639.245-1.57.361-1.758.961 2.065-.793 4.439-1.815 6.482-2.702.64-.246 1.789-.423 1.919-1.097-2.097.9-4.56 1.935-6.643 2.838zm-1.844 1.845a44.839 44.839 0 006.158-2.438c.678-.297 1.92-.444 2.018-1.201-2.687 1.216-5.755 2.284-8.163 3.634l-.013.005zm1.124.346c-.448.172-1.045.336-1.159.805a60.063 60.063 0 006.158-2.439c.64-.245 1.824-.407 1.726-1.235-2.228.959-4.556 1.926-6.712 2.865l-.013.005zm.195 1.063c-.563.216-1.572.28-1.416 1.108 2.429-1.05 5.03-2.034 7.467-3.08-.031-.253.133-.418.1-.677-1.91.8-4.246 1.821-6.138 2.644l-.013.005zm-1.49 1.849c.031.186.033.377.003.563 2.442-.996 4.766-2.05 7.201-3.045-.073-.192.333-.641-.028-.627-2.289 1.07-4.889 2.017-7.164 3.104l-.013.005zm-.041 1.365c.083.218-.073.344.004.564 2.376-.957 4.646-1.961 6.936-2.951-.026-.298.13-.52.11-.82-2.285 1.098-4.848 2.083-7.037 3.202l-.013.005zm-.072 1.304c.039.243.04.49.003.733 2.276-.97 4.437-1.99 6.74-2.948-.025-.218.317-.76-.011-.774-2.157 1.012-4.48 1.977-6.719 2.984l-.013.005zm-.018 1.423a3.18 3.18 0 00-.022.86c2.236-1.035 4.32-2.122 6.589-3.17a2.1 2.1 0 00.061-.757c-2.193 1.033-4.435 2.034-6.615 3.062l-.013.005zM52.19 57.194c.409.309.9.49 1.41.522 2.643-5.021 5.38-10.826 8.164-16.049.332-.626 1.186-1.783 1.092-2.334a3.306 3.306 0 00-1.519-2.043c-.82.186-1.628.425-2.417.716-2.203 6.393-4.544 12.75-6.717 19.183l-.013.005zM47.51 43.1c-2.068 1.11-4.267 2.167-6.42 3.244-.023.286-.03.573-.023.86 2.13-1.12 4.403-2.176 6.542-3.291-.102-.247.276-.774-.105-.81l.006-.003zm-6.454 4.82a4.11 4.11 0 00-.072 1.09c2.17-1.185 4.294-2.382 6.504-3.561.025-.286.032-.573.022-.86a212.313 212.313 0 00-6.46 3.333l.006-.003zm-.083 1.807c-.046.396-.036.797.032 1.19 2.167-1.309 4.426-2.573 6.432-3.938-.171-.352.048-.524-.035-.837-2.238 1.146-4.242 2.385-6.435 3.587l.006-.002zm31.793-7.745a83.952 83.952 0 003.364 8.568c-.983-2.865-1.956-5.991-3.25-8.825a.355.355 0 01-.12.26l.006-.003zm2.378 8.235c-.801-2.429-1.8-5.01-2.696-7.401-.015-.039-.03-.077-.089-.04-.163.13-.076.374-.317.474 1.206 2.471 2.07 5.808 3.322 8.093.226-.366-.107-.773-.226-1.124l.006-.002zm-3.77-5.573c.029.723.699 1.933 1.069 2.78.737 1.691 1.373 3.575 2.04 4.757.384-.354.032-.967-.106-1.383-.781-2.32-1.907-4.734-2.572-6.885-.014-.038-.029-.076-.088-.039-.046.282-.364.485-.349.772l.006-.002zm-.788 1.08c1.028 2.408 1.983 4.99 3.07 7.265.396-.497-.102-1.2-.328-1.788l-2.279-5.933c-.02-.051-.047-.122-.113-.104-.053.226-.254.37-.356.563l.006-.003zm-.761 1.188c1.054 2.192 1.954 4.744 3.014 6.912.58-.399-.057-1.123-.263-1.601-.761-1.754-1.513-4.15-2.32-5.85-.015-.04-.027-.071-.082-.043a1.745 1.745 0 01-.35.582zm-.828 1.169c1.019 2.117 1.895 4.569 2.918 6.678.723-.484-.019-1.46-.374-2.27-.762-1.755-1.323-3.446-2.002-5.042-.015-.038-.03-.076-.089-.04a4.813 4.813 0 01-.465.642l.012.032zm-.236 2.71c.677 1.552 1.474 3.835 2.133 4.998.095-.212.375-.342.522-.552-.918-2.237-1.793-4.572-2.774-6.667-.807.478-.297 1.25.107 2.189l.012.032zm-1.39-.354c.828 2.154 1.627 4.408 2.577 6.346a3.68 3.68 0 01.39-.531c-.953-2.004-1.667-4.495-2.678-6.418-.03.225-.337.343-.289.603zm-.019 3.77a65.356 65.356 0 011.466 3.627c.288-.11.32-.372.582-.51-.582-1.801-1.61-4.517-2.47-6.431-.932.629-.21 1.973.384 3.33l.038-.015zm-1.842-1.28c.77 2.001 1.46 4.238 2.265 6.085.111-.263.423-.426.599-.655-.822-2.025-1.548-4.277-2.433-6.16-.143.275-.472.43-.469.745l.038-.015zm-.949 1.216c.794 1.742 1.448 4.132 2.257 5.875.163-.15.21-.352.46-.463-.783-2.04-1.39-4.271-2.228-6.165-.172.279-.447.48-.527.767l.038-.014zm-.599.655c.793 2.065 1.496 4.43 2.154 5.989.33-.399-.082-.9-.227-1.336-.536-1.606-1.122-3.304-1.644-4.834-.018-.045-.079-.051-.144-.011a.573.573 0 00-.184.21l.045-.018zm.726-50.437a1.424 1.424 0 011.421-.12 1.672 1.672 0 01-.001 2.766c-.767.412-2.09.29-2.402-.714-.187-.64.466-1.631.982-1.932zm.995.681c-.695-.129-.974.654-.973 1.152.622.627 1.936-.48.954-1.144l.02-.008zM52.395 12.98c-2.124 1.425-2.94-2.23-.684-2.144.953.038 1.38 1.495.684 2.144zm-1.297-.779c.132.346.778.288.813-.099-.046-.232-.184-.267-.286-.382a.865.865 0 00-.527.481z"/><path d="M76.746 2.495c-.346.133-.527-.128-.68-.472.103-.627.924.04.68.472zm-.946-.429c.215.175.542.379.407.695-.438.293-1.036-.52-.406-.695zm-1.334.593c.27.358.85.972.756 1.412-.502.222-1.439-1.128-.756-1.412zm.74-.286c.288.26.493.6.588.977-.521.42-1.267-.797-.588-.977zM38.25 19.763c-.394.885-1.204-.499-.229-.404a.944.944 0 01.229.404zm-14.497 7.696c-.609-.324.214-1.352.64-.738.255.357.02.888-.64.738zm34.97-11.657c.612 1.592-1.653.07 0 0zM25.58 39.603c.59.507 1.25.562 1.556 1.456.674 2.001-2.513 2.72-4.065 2.347.637.665 2.404 1.446 2.684 2.938a1.16 1.16 0 01-1.021 1.39c-.64.114-1.554-.415-2.095-.831a6.541 6.541 0 01-1.572-1.876c-.001 1.468.103 4.45-1.998 4.597-1.227.09-2.271-1.864-1.992-3.277-.619.854-3.165 2.8-3.956 1.16-.716-1.5.909-2.77 1.984-3.697-1.206.09-3.014.175-3.686-.924-.917-1.49.755-2.389 2.333-2.598-1.223-.72-2.796-3.82-.554-4.402 1.569-.405 2.636 1.342 3.734 2.33-.147-1.779-.265-4.396 1.974-5.022 1.114-.31 2.241.563 2.563 2.068a10.622 10.622 0 003.562-3.848c.386-.713 1.072-2.613 1.96-1.179.187.352.33.726.428 1.113.981 3.07.158 6.41-1.84 8.255zm-4.002-3.217c.03.957-.437 1.958-.424 2.716-.015-.038-.027-.07.04-.088a16.942 16.942 0 002.81-3.207c.179-.26.438-1.056.763-1.145 1.163-.314.284 1.293.056 1.615-.865 1.205-2.116 2.456-2.892 3.378a5.808 5.808 0 012.47-.215 7.177 7.177 0 001.852-8.187c-.864 2.011-2.737 3.59-4.675 5.133zm-1.444 1.971c.264-.974.617-1.983.352-2.901-.44-1.68-1.857-1.378-2.442-.265-.657 1.25-.3 3.783.665 5.415 1.092-.06 1.174-1.316 1.425-2.249zm-5.775-1.186c-.233-.13-.786-.366-1.019-.247-.505.253-.198 1.184.078 1.673.758 1.344 2.57 1.573 3.834 1.865-.67-1.056-1.878-2.712-2.893-3.29zm-.907 4.112c-.43.122-1.136.349-1.238.828.792 1.163 2.879.809 4.477.195.422-.162 1.074-.376 1.269-.766a8.218 8.218 0 00-4.508-.257zm5.297.306c.088.23.306.168.442.043l-.096-.25a.589.589 0 00-.346.207zm3.66.648c.893.219 1.822.25 2.727.09.369-.09 1.143-.366 1.098-.847-.046-.482-1.13-1.034-1.35-1.11a7.047 7.047 0 00-3.323.212c-.565.173-1.512.478-1.494.926a6.68 6.68 0 002.336.731l.006-.002zm-3.757.38c-.15 1.348-1.137 3.686-.505 5.16.582 1.361 1.518.532 1.765-.391a7.396 7.396 0 00-.729-4.856 1.02 1.02 0 00-.531.087zm-4.608 4.448c2.055-.38 2.93-2.417 3.246-3.735-1.45 1.093-3.32 1.995-3.246 3.735zm10.69-.439c-.668-1.738-2.312-2.332-3.602-3.091.973 1.614 1.944 3.149 3.616 3.13l-.014-.039zm17.078-19.999a6.84 6.84 0 00-.381-.991c-.05-1.22 1.648-1.822 2.25-.791a1.369 1.369 0 01-1.87 1.782zm.535-.631c1.457-.179-.164-1.515 0 0zM4.28 39.202c1.757-1.158 2.65 1.646 1.24 2.29-1.41.645-2.742-1.294-1.24-2.29zm.93 1.485c.724-.542-.747-1.43-.705-.155.186.215.45.348.705.155zm30.024-11.608a.548.548 0 01-.485.399c-.764-.345.26-1.326.485-.4zm14.242-5.397c.405.196.542.723.21.91-.503.295-1.14-.656-.21-.91zM35.287 34.95c1.709-1.089 2.098 1.49.968 1.969a1.097 1.097 0 01-.968-1.969zm.22 1.127a.368.368 0 00.543-.495c-.264-.038-.48.28-.544.495zM3.271 47.462l.143.37a.774.774 0 01-.45.32c-.534-.17-.176-.974.307-.69zm84.01-37.264c.78-.703.48 1.364-.107.466-.13-.206-.088-.288.107-.466zM4.035 53.344a.425.425 0 01.534.646c-.265.168-.39.033-.563.004a.548.548 0 01.029-.65zm32.152-11.073c1.598-1.054 2.74 1.405 1.314 2.122-.463.229-1.422.29-1.8-.233-.61-.866-.076-1.519.486-1.889zm.178 1.4c.558.306 1.31-.504.592-.866a.925.925 0 00-.585.885l-.007-.02zm52.064-23.565a.513.513 0 01.445.607c-.07.027-.108.042-.096.11-.578.406-.968-.589-.35-.717zm7.366-5.561c.668-.477 1.335-.344 1.588.314.567 1.382-1.7 2.297-2.064.72a.938.938 0 01.476-1.034zm.491 1.088a.372.372 0 00.322-.313.37.37 0 00-.011-.159c-.311-.122-.53.358-.279.46l-.032.012zM24.32 49.809a.39.39 0 01.723.22c.072.626-1.177.336-.723-.22zm-11.638 7.236a1.17 1.17 0 011.91.543c.593 1.54-2.121 2.612-2.612 1.143a1.787 1.787 0 01.702-1.686zm.32 1.579c.465-.032.89-.341.76-.79-.477-.441-.91.32-.747.785l-.012.005zm89.88-32.961a.747.747 0 01-.556.213c-.753-.679.641-1.214.556-.213zM33.374 49.177c1.632-1.06 2.256 1.635.637 2.022-1.231.29-1.727-1.325-.637-2.022zm.264 1.241c.397.06.71-.383.391-.642a.616.616 0 00-.413.643h.022zm39.398-13.433c-.176.801-1.305.135-1.836.206a.486.486 0 01-.045-.481c.64.062 1.353-.05 1.881.275zm-.399 1.005c-.186.738-1.377.235-1.818.06.164-.68 1.354-.198 1.818-.06zm11.242-11.44c1.683-1.196 2.266 1.544 1.08 2.066-1.335.593-2.2-1.276-1.08-2.065zm.289 1.306a.746.746 0 00.54-.061c.393-.833-.663-.677-.54.06zM72.195 39.223a1.548 1.548 0 01-1.876-.204c.286-.44 1.502-.254 1.876.204zm13.212-3.987c.208-.146.388-.23.592.052.8 1.145-1.698.718-.592-.052zm-15.749 4.603a4.323 4.323 0 012.003.229c-.092.79-1.853.352-2.003-.229zm-.395 1.001a3.746 3.746 0 011.882.276c-.207.703-1.431.285-1.857-.02-.04-.088.035-.139-.025-.255zM27.706 57.517c-.45-.942 1.105-.637.506.018-.226.117-.334-.01-.506-.018zm9.234 7c2.283-.686 4.572-1.47 5.612.397 1.235 2.204-.882 4.257-3.681 4.818-.433.783-.231 1.615.217 2.61.448.994 1.48 2.094 1.228 3.005s-2.016 1.266-2.945 1.557c-1.306.421-2.358.759-3.056.183-1.073-.886-1.099-3.033-2.668-2.878-.932.094-1.366.95-1.644 1.622 1.014 1.856.589 3.442-1.103 4.327-1.25.663-3.816 1.106-4.496.311-1.16-1.359-.088-2.981-1.06-4.42-2.025-.308-5.273 1.857-6.252-.577a2.98 2.98 0 01.215-2.21c.619-1.236 2.016-1.897 3.505-2.337.44-1.68-1.615-3.4-2.15-5.043a18.619 18.619 0 013.277-1.993c1.988-.8 3.2-.569 4.263 1.129.432.685.734 1.148 1.289 1.14a1.808 1.808 0 001.705-1.653c.016-.57-.562-1.31-.609-1.966-.111-1.572 1.928-2.164 3.823-2.599.673-.156 1.989-.55 2.444-.3 1.047.624.736 4.016 2.087 4.877zm-7.034-1.487c.175-.442.733-1.243.564-1.493-.595.265-1.128.866-.564 1.493zm1.327-1.72c-.256 1.242-1.313 2.081-1.057 3.53a43.894 43.894 0 001.887-3.776c-.332.186-.533.102-.84.22l.01.025zm-9.349 3.737a10.22 10.22 0 00-.645 1.452c-.207.453-.776.98-.418 1.51.529-.878 1.107-2.179 1.703-3.207l-.64.245zm.263 1.601c-.35.693-1.134 1.823-.666 2.523.83-1.353 1.722-3.156 2.457-4.7-.256.099-.477.059-.734.135-.276.598-.649 1.233-1.057 2.042zm2.618 10.844c.135.351.028.59.146.934 2.696-5.203 5.188-11.208 7.828-16.558.187-.373.595-.742.4-1.004a.452.452 0 00-.339.056c-2.752 5.496-5.284 11.09-8.035 16.572zm-4.95-11.224c.127.285.278.558.453.816.271-.383.733-1.206.588-1.429-.29.236-.77.384-1.054.618l.013-.005zm12.972-2.995c-2.506 5.145-4.789 10.298-7.104 15.502-.157.354-.628.923-.25 1.012.581.137 1.156-1.786 1.31-2.131 2.362-5.31 4.907-10.564 7.218-15.758.173-.39.59-.85.339-1.334-.2.129-.273-.005-.46.103-.307.89-.663 1.76-1.066 2.61l.013-.004zm-8.363 1.356c-.633 1.447-1.387 2.903-2.033 4.259-.222.452-.579.956-.5 1.468 1.056-1.799 2.117-3.6 3.09-5.442-.23-.007-.282-.39-.557-.285zm2.706 14.074c-.153.345-.515.778-.354.987.853.025.973-1.02 1.233-1.603.35-.647.663-1.313.935-1.996.046-.364.121-.724.225-1.076.229-.354.477-.695.745-1.02.49-.805.842-1.857 1.278-2.766 1.327-2.754 2.45-5.673 3.757-8.325-.24-.377-.119-.864-.427-1.112a1455.001 1455.001 0 01-7.39 16.917l-.002-.006zm-6.632-4.334c-.173.33-.612 1.042-.496 1.115.235 0 .467-.041.686-.124 1.137-2.102 2.576-4.658 3.8-6.918.273-.509 1.24-1.87 1.152-2.365a1.74 1.74 0 00-.373-.59c-1.617 2.858-3.24 6.064-4.766 8.888l-.003-.006zm5.483-7.711c-1.001 2.13-2.27 4.349-3.351 6.422a9.18 9.18 0 00-.913 2.053c.088-.114.332-.032.459-.103.345-.19.883-1.52 1.145-2.002 1.093-2.122 2.21-4.217 3.094-6.156-.171-.007-.204-.34-.432-.208l-.002-.006zm5.45 5.5c-.161.362-.49.921-.307 1.108.596.101.679-.371.848-.752.898-2.017 1.7-3.712 2.609-5.756.417-.938 1.302-2.129.597-3.068-1.137 2.77-2.54 5.766-3.744 8.474l-.003-.007zm-4.545-4.997c-1.199 2.61-2.627 5.118-3.85 7.722.293-.039.48.16.782.126 1.181-2.655 2.693-5.195 3.86-7.866-.322.116-.488-.07-.79.025l-.002-.007zm.448 2.102c-.827 1.668-1.469 2.92-2.184 4.456-.337.71-1.134 1.5-.567 2.346 1.482-2.866 3.323-6.266 4.745-9.27.061-.126.238-.392.082-.53-1.28.756-1.49 1.812-2.074 3.005l-.002-.007zm5.113 4.067c.153-.059.226.016.32.09a36.042 36.042 0 001.984-3.888c.646-1.356 1.224-2.774 1.827-4.106-.273-.042-.425-.343-.68-.472-1.055 2.848-2.483 5.51-3.449 8.382l-.002-.006zm4.684-7.764c-.966 2.088-1.969 4.424-2.894 6.504-.282.622-1.03 1.518-.535 2.12.871-1.207 1.425-2.858 2.15-4.37.538-1.123 1.155-2.247 1.654-3.334.17-.38.419-.821.333-1.045a2.66 2.66 0 01-.706.131l-.002-.006zm-17.827 8.271a10.49 10.49 0 00-.621 1.706c.399.104.633-.375.806-.67.574-.95 1.07-1.945 1.483-2.975-1.176.298-1.287 1.155-1.666 1.946l-.002-.007zm19.391-8.725c-1.305 2.446-2.266 5.272-3.49 7.723-.377.754-1.224 1.681-.699 2.61 1.453-3.112 3.278-6.748 4.667-10.025.053-.13.338-.38.142-.546l-.62.238zM18.162 75.2c.249-.88.719-1.662 1.02-2.52-.804.581-1.429 1.533-.994 2.51l-.026.01zm21.505-9.603c-.5 1.124-1.088 2.42-1.405 3.372.702-.446 1.07-1.475 1.412-2.245.162-.363.3-.71.457-1.026.157-.317.433-.63.296-.892-.45-.179-.597.508-.735.781l-.025.01zm1.33-.584c-.31.852-.812 1.838-1.18 2.654-.106.224-.298.525-.158.699l.307-.118c.219-.48.56-1.023.806-1.586.246-.564.628-1.195.379-1.613-.008-.078-.056-.089-.128-.046l-.026.01zm-.025 2.797a1.692 1.692 0 00.684-2.038c-.038.704-.658 1.456-.684 2.038zm-5.346 7.094c-.208.469-.61.968-.5 1.468.543.093.663-.606.842-.961a60.754 60.754 0 001.746-3.936c-.048-.296-.033-.83-.171-.998-.65 1.439-1.317 3.008-1.943 4.415l.026.012zm1.002.393c-.126.283-.347.661-.23.873.589-.226.759-1.025 1.04-1.536.28-.512.544-1.2.802-1.732-.15-.082-.175-.454-.336-.51-.347.912-.905 1.999-1.302 2.893l.026.012zm-7.776 2.847c-.157.354-.408.847-.33 1.051.636-.523 1.404-1.273.8-2.156a7.307 7.307 0 01-.496 1.093l.026.012zm9.116-3.428c-.17.359-.409.847-.332 1.045.988-.329.89-1.142 1.24-1.754-.172-.029-.178-.466-.374-.42-.15.39-.337.764-.56 1.117l.026.012zm.985.539c.374-.02.479-.434.206-.571-.041.2-.212.346-.233.559l.027.012zM70.79 42.032a1.747 1.747 0 01-.068.378c-.716.047-1.431.095-1.926-.39.374-.555 1.383-.01 1.993.012zm-.595 1.226c-.634.412-1.337.014-1.857-.212-.042-.108.025-.163-.032-.274.496-.065 1.587-.052 1.889.486zm-.361.915c-.534.52-1.478.069-2.042-.14-.109-.149.081-.17.035-.292a2.74 2.74 0 012.007.432zm-.747.997c-.649.433-1.36.053-1.896-.122l-.096-.25a.342.342 0 01.16-.135c.617.152 1.424-.114 1.832.507zm-23.648 8.089a.987.987 0 011.595.81c.124 1.068-1.712 1.692-2.175.623-.317-.656.027-1.133.58-1.433zm.394 1.198c.237-.09.369-.244.31-.471-.31-.123-.6.326-.31.471zm22.555-8.312a1.595 1.595 0 01-1.814-.294c.293-.42 1.463-.239 1.814.294zm-.479.77c-.455.534-1.288.106-1.746-.114.151-.675 1.366-.225 1.746.114zm28.674-4.135c.515-.8 1.173-2.124 2.703-2.382 2.256-.39 3.245 2.928 1.855 4.467 2.92-1.07 6.505 4.06 2.162 5.266a7.826 7.826 0 01-1.583.117 2.352 2.352 0 011.165 2.268 2.36 2.36 0 01-1.58 2c-1.599.614-3.08-.57-3.878-1.768.09 2.43-3.417 4.093-4.899 1.457a3.582 3.582 0 01.127-3.718c-1.96.893-3.533.352-4.223-1.216-1.118-2.623 1.325-4.515 4.215-4.173-1.443-1.845-1.857-5.464.752-5.681 1.468-.131 2.527 1.612 3.184 3.362zm-3.499-2.273c-1.259.542-.562 3.751.864 4.847a4.403 4.403 0 002.039.684c.395-1.318-1.078-6.32-2.903-5.531zm7.631 2.886c.487-1.654-1.297-2.612-2.527-1.23a4.95 4.95 0 00-.913 2.053c-.164.796-.48 1.71-.045 2.291 1.538-.561 3.122-1.845 3.485-3.114zm-11.228 5.663c1.037 1.803 4.036.042 5.315-1.117a1.746 1.746 0 01-.085-.965c-1.236-1.558-7.072-1.106-5.23 2.082zm7.246-1.859a.54.54 0 00-.885-.086c-1.128.977 1.482 1.317.885.086zm6.588 1.871c1.796-.69.671-2.605-.454-3.09a3.908 3.908 0 00-3.066.326c-.413.225-.754.576-1.158.805-.404.228-1.089.374-1.136.862 1.42.489 3.903 1.853 5.811 1.091l.003.006zm-9.952 4.557a1.554 1.554 0 002.79.065c.64-1.221-.242-3.517-.484-4.95-.07.028-.183-.054-.186.072-1.066 1.121-3.27 2.716-2.13 4.787l.01.026zm7.486-.088a1.368 1.368 0 001.028-1.393c-.214-1.187-2.381-2.188-3.432-2.65-.555-.242-1.213-.18-1.628-.725-.015-.038-.027-.07-.089-.04.651 2.326 2.161 5.473 4.121 4.808zm-33.567-5.832c-.058.022-.016.093-.009.15a1.61 1.61 0 01-1.695-.347c.29-.544 1.29-.1 1.704.197zm-.72 1.061c-.562-.049-1.67.025-1.564-.75.522.137 1.655-.026 1.564.75zM1.044 73.077c.052.824.346 1.76-.166 2.338-.541-.607-.235-1.663-.169-2.349.16-.12.21.03.335.011zm65.065-23.644c-.583.393-1.244-.029-1.733-.252-.04-.102.022-.133-.007-.21a1.555 1.555 0 011.74.462zM97.864 36.76c.09.18.14.379.15.58a1.233 1.233 0 01-.468.254c-.586-.208-.25-1.203.318-.834zM65.357 50.434a1.48 1.48 0 01-1.532-.475c.17-.433 1.505-.167 1.532.475zM1.788 73.715c.287.308.144.833.12 1.23-.023.398.133 1.014-.35 1.133-.376-.597-.334-2.036.23-2.363zm62.997-22.562c-.52.383-1.137.018-1.542-.193.087-.635 1.281-.294 1.542.193zM12.376 72.237a.452.452 0 01.699.157c.49 1.124-1.684.544-.7-.157zM64.29 51.973a1.322 1.322 0 01-1.719-.404 1.445 1.445 0 011.718.404z"/><path d="M2.472 74.942c.319.428.09.978.042 1.407l-.307.118c-.211-.454-.347-1.246.265-1.525zM63.05 53.66c-.959.37-1.953-.137-2.754-.504-.109-.149.081-.17.035-.292l.121-.047c.459.074.911.185 1.353.332.394.09 1.037-.032 1.245.512zm-1.334-1.264c.748-.192 1.27.136 1.914.19.142.216-.07.276-.043.441-.677-.026-1.651.055-1.87-.631zM3.189 75.877c.059.403.233.856-.079 1.094-.601.077-.533-1.388.079-1.094zM82.768 50.13c.316.326.234.724-.022.86-.717.385-1.084-1.103.022-.86zM48.866 67.831c1.591-1.073 2.224 1.435.746 1.768-.702.16-1.895-.996-.746-1.768zm.414.905a.274.274 0 00.395-.078c-.025-.372-.503-.166-.395.078zM13.236 85.592c.972-.564 1.91-.05 2.067 1.121.156 1.173-1.645 2.1-2.464 1.226a1.513 1.513 0 01.397-2.347zm.27 1.811a.644.644 0 00.642-1.097c-.665-.148-.797.578-.642 1.097zm46.796-25.019c1.576-1.053 1.996 1.375.922 1.846a1.034 1.034 0 01-.922-1.846zm.364 1.137c.348-.068.375-.284.378-.505-.276-.07-.483.252-.385.507l.007-.002zM21.053 82.82a.685.685 0 01-.79.156c-.608-1.007 1.097-1.133.79-.157zm63.035-21.274c1.92-1.324 2.67 1.909 1.014 2.45a1.328 1.328 0 01-1.628-.725 1.37 1.37 0 01.614-1.725zm.345 1.643c.704.228 1.089-.851.432-1.09a.796.796 0 00-.432 1.09zm3.52-7.319c.78-.623.712 1.09-.043.442a.391.391 0 01.043-.442zM57.182 72.877c1.657-.996 2.457 1.756.551 1.99a1.055 1.055 0 01-.55-1.99zm.257 1.031c.147.23.687.052.534-.271-.153-.323-.526.063-.534.271zm-15.946 5.016a1.493 1.493 0 012.358 1.155 2.13 2.13 0 01-.435 1.444c-1.784 1.83-4.184-1.284-1.923-2.6zm.558.71c-.543.208-.523.89-.417 1.51 1.486.735 1.733-2.038.398-1.503l.02-.008zm-17.092 6.825c1.518-.994 2.24 1.78.487 2.014a1.028 1.028 0 01-1.105-.852 1.13 1.13 0 01.618-1.162zm.306 1.159c.375.157.591-.58.164-.489-.038.169-.253.259-.164.489zm45.838-15.06a.439.439 0 11-.431-.76.452.452 0 01.43.76zM46.34 4.805c.744-.564 1.256-.32 1.461.29.36 1.072-1.392 1.782-1.83.776-.195-.453.006-.787.369-1.066zm-36.107 24.23c1.126-.697 1.774.97 1.012 1.526a.925.925 0 11-1.012-1.526z"/><path d="M-10.171 46.097c-.188.314-.106.737-.736.854.521 2.082 2.196 4.417 2.086 6.154-.061.912-.677 1.295-1.148 1.997l.213.556c1.06-.085 2.162-1 3.42-1.24a8.738 8.738 0 012.716.233c3.005.548 5.117 1.996 7.489 4.218.618.577 1.466 1.124 1.574 1.882.06.403-.215.625-.185.988.45.275.623-.078 1.122-.21a3.552 3.552 0 014.333 2.59 6.803 6.803 0 01-.164 1.978c-.115.961-.158 2.606-1.538 1.728-.212.631.103 1.471-.335 1.897-.549.35-1.21.478-1.85.358-1.77-.215-3.476-2.612-2.861-4.506-.272-.27-.642-.333-.894-.647-.859 1.394-1.893.382-3.01-.194a13.328 13.328 0 00-1.955-1.024c1.06 2.19 1.616 5.087 2.58 7.08.34.712.879.894 1.404 1.44 1.648 1.73 2.687 4.339 3.967 6.642 1.281 2.303 2.657 4.585 3.816 6.971-.995 1.593-2.549 2.916-3.764 4.432-1.342.516-3.01 1.083-4.524 1.591-.974.33-1.816.888-2.453.451-2.823.923-5.755 2.093-8.567 3.005-.716-1.024-1.049-2.73-1.52-3.958.222-.334.566-.569.959-.654-1.105-2.056-1.131-4.224-2.21-5.754-.458-.638-1.111-.982-1.496-1.487a7.978 7.978 0 01-1.372-3.017c-.13-.683.097-1.314-.072-2.1a16.923 16.923 0 00-1.04-2.153c-.638-1.45-1.028-2.943-1.63-4.414-1.149.734-2.427 1.856-3.627 2.743.34 1.762-2.042 3.719-3.901 2.966-1.14 1.406-1.89.22-2.866-.814-.83-.884-1.977-1.596-1.698-2.76.79-1.323 1.386-2.733 3.06-3.302.25-.096.678-.011.934-.147.318-.308.59-.66.81-1.044.269-.368.507-.76.728-1.065.577-.615 1.075-1.3 1.484-2.037.13-.69.217-1.388.261-2.089a7.533 7.533 0 011.296-2.911c-.148-.384-.293-.76-.17-.998.944-.672 2.537-1.034 3.788-1.595.062-.259-.26-.678-.323-1.013-2.913 1.317-3.26-3.884-4.602-6.251-.902.192-2.084-1.606-.863-2.075-.328-2.897.367-5.768 3.227-7.109a6.738 6.738 0 018.653 2.208c.23.176.608.016.831.253.258.426.467.88.623 1.353zm-9.69-2.88c-2.463 1.114-2.927 3.574-2.86 5.925 3.325-1.41 6.774-2.764 10.19-4.127-1.557-2.278-4.37-3.127-7.33-1.799zm-3.15 7.078l.093.243c3.31-1.198 7.062-2.778 10.495-4.097.473-.182 1.235-.299 1.284-.706-3.93 1.23-8.042 2.92-11.944 4.375-.101.098.033.105.053.193l.019-.008zm1.207 1.004c.102.27.224.532.367.783.543 1.222 1.501 4.691 2.493 5 .76.243 3.07-.945 4.238-1.342l2.161-.83a9.85 9.85 0 002.104-.808c1.056-.802.383-2.422-.106-3.79-.371-.965-.635-1.956-1.107-3.052-3.42 1.314-6.776 2.604-10.164 3.831-.06.016-.028.1.014.208zm4.577 6.187l.381.99c2.231-.856 4.181-1.7 6.393-2.455l-.26-.678c-2.173.666-4.356 1.439-6.52 2.124l.006.019zm-3.341 3.485c1.729 4.75 3.493 9.516 5.108 14.214 4.974-1.91 9.941-3.818 14.82-5.553-.426-1.113-.773-2.11-1.146-3.177-.32-.831-.607-2.46-1.065-3.134-.25-.366-.985-.465-1.517-.628a7.363 7.363 0 01-1.515-.621c-1.674-.957-2.772-3.396-2.293-5.224.064-.215.217-.523.1-.676-4.227 1.66-8.343 3.11-12.5 4.589-.073.02-.034.101.006.188l.002.022zm17.946-5.192c-1.051-.33-2.653-.852-3.742-.191-2.016 1.207-.95 4.766 1.138 5.732.548.26 1.211.269 1.825.51 2.144.768 4.022 2.123 5.684 2.783.722-1.253 1.543-2.456 2.246-3.702-2.035-2.013-4.454-4.356-7.152-5.154v.022zm-19.061 8.745c-.14.67-.022 1.395-.207 2.06-.29 1.154-1.478 1.882-1.898 3.004 1.497.078 2.753 1.877 2.929 3.556.843-.823 1.936-1.53 2.769-2.34-1.08-2.814-1.828-5.733-2.943-8.408a10.28 10.28 0 00-.651 2.107v.021zm-3.093 6.368a19.74 19.74 0 002.668 2.878c.563-1.456-1.05-4.013-2.67-2.9l.002.022zm-4.212 3.819c.851.93 1.759 1.806 2.718 2.624a1.48 1.48 0 01.357-.35c-.52-.894-2.07-1.567-1.632-2.777a3.76 3.76 0 001.723-2.716c-1.849.116-2.639 1.974-3.144 3.18l-.022.039zm2.17.09c.715.658 1.355 1.483 2.095 2.13a2.329 2.329 0 002.466-1.981c-.95-.89-1.77-2.087-2.754-2.912a5.479 5.479 0 01-1.81 2.736l.003.028zM4.659 62.359c-.31.684-.902 1.242-1.177 1.92.264.133.486.348.752.488.504-.597.78-1.253 1.195-1.875-.25-.212-.443-.541-.773-.561l.003.028zm1.736.47c-.342 1.02-1.263 1.791-1.61 2.82 1.871-1.453 3.767-.508 4.936.664.02-.644.082-1.285.187-1.92-.766-1.65-1.873-2.546-3.672-1.92l.16.356zM7.5 65.874c-.836-.456-2.408.243-2.78 1.069.602 1.874 1.719 2.567 3.399 2.032.077-.602.103-1.221.147-1.832a2.007 2.007 0 00-2-.222c-.385.22-.39.759-.86.895-1.288-.796 1.184-2.267 2.09-1.97l.004.028zM-15.364 75.97c.302.518.578 1.052.826 1.598 3.705-1.357 8.311-3.193 11.921-4.433a4.79 4.79 0 001.07-.345c.349-.222.405-.743.789-1.08.384-.339.541-.253.774-.584l-.214-.556c-5.045 1.784-10.12 3.623-15.166 5.4zM2.69 74.574c-.593-.99-1.643-2.883-2.654-2.458-1.278.491-.774 3.503-.03 4.905.596 1.114 1.785 1.515 2.371 2.354a35.612 35.612 0 013.291 5.97c-.033.658-.682 1.032-.788 1.652.372.701.813 1.258 1.146 2.047a16.72 16.72 0 002.722-3.246c-2.093-3.613-3.89-7.567-6.055-11.218l-.003-.006zm-16.911 3.723c-.356 2.015 1.15 4.906 2.71 5.775 1.673-.724 3.515-1.219 5.012-1.926-1.33-1-2.36-4.06-2.274-5.729-1.833.616-3.65 1.212-5.478 1.899l.03-.019zm8.721 3.319c-.997-.879-1.806-2.791-2.055-4.244a5.335 5.335 0 00-.291-1.311c-.49 1.611.992 5.143 2.317 5.573l.03-.018zm-1.33-5.872c-.29 1.828 1.116 4.817 2.58 5.612 1.675-.644 3.53-1.26 5.048-2.005-1.406-.854-2.497-3.693-2.388-5.473-1.756.645-3.527 1.266-5.27 1.885l.03-.019zm1.689 6.805c.756 1.97 1.633 3.774 2.418 5.74.37-.142.978-.185 1.151-.516-.979-1.766-1.889-3.676-2.863-5.43-.208-.044-.498.156-.736.225l.03-.019zm1.483-.57c.792 1.64 1.923 3.517 2.854 5.213 1.698-.696 3.573-1.585 5.297-2.1-.833-1.977-1.915-3.38-2.874-5.074-1.788.672-3.606 1.459-5.306 1.98l.03-.019zM-11.155 85c.7 1.822 1.43 3.625 2.193 5.327l5.255-2.018c-.726-1.776-1.465-3.546-2.154-5.417-1.881.68-3.474 1.46-5.324 2.126l.03-.018zm1.358 6.859c.038-.125.06-.255.065-.385l-.269.103c.037.096.043.358.174.3l.03-.019zm.52 1.355c.225-.754.546-1.464.785-2.216a1.595 1.595 0 00-.814 2.234l.03-.018zM3.406 86.5c.083-.032.959-.368.468-.253-1.483.342-3.241 1.304-4.714 1.957 1.527-.608 2.805-1.1 4.216-1.685l.03-.019zm-11.258 4.325c-.33 1.183-.998 2.217-1.051 3.529.315-.173.326-.603.432-.9.37-.949.748-1.872 1.046-2.815l-.427.186zm1.054-.406c-.34 1.217-.82 2.37-1.178 3.579l.428-.165c.374-1.222.866-2.387 1.243-3.603l-.493.19zm2.928-1.05c.346.901.677 1.764 1.06 2.57l1.612-.618c-.26-.884-1.153-2.008-.876-2.643-.663.05-1.143.52-1.826.71l.03-.02zm-1.79.687c-.418 1.166-.804 2.34-1.204 3.514l.64-.245c.21-1.248.853-2.287 1.145-3.492l-.582.223zm.03 3.04l.742-.285c-.063-1.003 1.057-1.756.312-2.893-.317 1.105-.772 2.116-1.083 3.197l.03-.019zm4.875-3.01c.03-.385.096-.767.2-1.14l-.678.26c.123.32.186.846.448.9l.03-.02zM0 88.733c-.027.942-.557 1.682-.211 2.774.574-.874.54-2.012.831-3.012l-.62.238zm1.198-.394c-.172.983-.43 1.934-.58 2.922a1.37 1.37 0 01.582-.15c.269-.96.365-1.989.555-2.986l-.557.214zm1.177-.452c-.2.972-.365 1.96-.498 2.964.296-.165.474-.064.764-.227-.12-1.098.31-1.945.328-2.965l-.594.228zm1.234-.474c-.163 1.01-.346 2.004-.47 3.02.255-.142.388-.024.665-.182.05-1.054.562-1.896.373-3.078l-.568.24zm-7.878 5.161l.678-.26c-.142-.254-.187-.735-.392-.847-.029.421-.313.714-.316 1.126l.03-.019zm8.667-2.551c.61-.132.753-1.287.258-1.736-.072.615-.256 1.148-.287 1.754l.03-.019z"/></g></svg>