<svg width="129" height="127" fill="none" xmlns="http://www.w3.org/2000/svg"><g opacity=".4" fill-rule="evenodd" clip-rule="evenodd" fill="#fff"><path d="M75.617 42.912a.563.563 0 01-.955.444c-.424-.486.387-1.371.955-.444zm8.962 7.237c1.878 1.437-.2 3.883-1.847 2.95-.911-.51-1.42-1.847-.693-2.668a1.763 1.763 0 012.54-.282zm-.373 1.856c.672-.804-.815-1.747-1.61-.707a.931.931 0 001.593.722l.017-.015zM65.427 50.43c.881-.13 1.742-.123 2.104.864.563 1.549-1.753 2.68-2.71 1.307a1.5 1.5 0 01.606-2.17zm.014 1.342a.6.6 0 001.17.134c-.03-.62-.74-.748-1.17-.134zM39.848 19.616a1.694 1.694 0 01-1.847 2.185c-.973-.147-1.869-1.575-1.222-2.397a1.823 1.823 0 013.069.212zm-.868.557c-.255-.773-1.169-.395-1.487.051a.75.75 0 001.487-.051zM51.426 40.06a1.905 1.905 0 01-.983 2.298c-1.624.877-3.522-1.508-2.377-2.843.927-1.106 2.381-.761 3.36.545zm-1.005.388c-.345-.624-1.184-.65-1.805.03-.056 1.59 2.381 1.089 1.773-.032l.032.002zM69.874 63.01c2.029.49 4.268 3.245 2.366 5.15a3.488 3.488 0 01-3.402.844c.086 2.909-4.593 5.53-6.413 2.024-2.538 2.796-6.803 3.735-8.584-.024-1.878.939-4.724-1.267-3.714-3.5-.98-.2-2.19-.39-2.77-1.626-1.23-2.648 3.746-4.585 5.492-4.305-2.52-2.779 2.711-4.23 4.3-3.456a2.655 2.655 0 015.166.415c2.096-1.02 6.308-1.653 8.408.267 1.51 1.37.78 3.1-.85 4.21zm-5.64 8.371c.986.595 2.764-.059 3.283-1.416.278-.72-.177-1.447.441-1.925.618-.479 1.637.155 2.354-.061a2.348 2.348 0 001.274-.821c.817-1.13-.717-2.469-1.75-2.902-.662-.269-1.704-.266-1.9-.742-.312-.724 1.398-1.307 1.99-2.021 1.734-2.097-2.095-2.622-3.212-2.694a7.208 7.208 0 00-3.548.494c-.644.322-1.131.985-1.628.552-.496-.433-.183-1.66-1.099-2.405-.23-.159-.49-.27-.764-.329-1.018-.107-1.664.933-2.032 1.87-1.406-.04-3.525-.622-4.552 1.168-.013.728 2.07 1.43 1.386 2.254-.394.473-2.576.354-2.905.422-.9.177-4.113 1.273-3.174 2.763.743 1.184 2.81.269 3.283 1.12.27.492-.378.707-.598 1.197a1.71 1.71 0 002.277 2.055c.186-.162-.254-.953.448-1.255.701-.302.742.955.922 1.504 1.008 3.042 4.85 2.53 6.609.303.349-.433.403-1.068 1.062-1.214 1.131.626.932 1.505 1.856 2.064l-.023.02zM25.43 32.551c1.479-.461 3.303-1.234 4.523.11 1.792 1.99-1.8 4.204-3.614 4.142 1.45.855 2.903 2.992 2.334 4.223-.925 1.999-3.808.332-5.153-1.28-.118 1.006-.13 3.276-1.914 3.774-2.158.606-3.04-3.24-2.453-4.587-1.572 1.13-3.479 1.716-4.641.381-1.783-1.978 1.204-5.275 3.619-4.981-1.576-1.284-3.4-3.722-2.124-4.974 1.513-1.496 4.064 1.057 5.034 3.017.062-1.437 1.491-5.038 3.83-4.877 2.338.162 1.83 3.747.56 5.052zm-.153-3.705a.885.885 0 00-.442-.291c-1.485-.278-2.616 2.387-2.788 3.422-.173 1.036-.285 2.437.39 2.446 1.455-1.755 3.652-3.708 2.84-5.577zm2.801 4.095c-1.378-.132-3.887 1.088-5.057 2.485.57.369 1.563.31 2.453.27 1.36-.06 2.868-.259 3.868-1.737a1.2 1.2 0 00-1.264-1.018zm-3.521 6.339c.538.526 2.422 1.959 3.005 1.361.357-.4-.317-1.643-.58-2.002-1.146-1.557-2.93-1.755-4.139-1.875a9.218 9.218 0 001.714 2.516zm-7.798-9.172c-.115 1.432 1.417 2.952 2.671 3.73.576.353 1.218.77 1.706.633-.708-1.532-2.506-4.83-4.377-4.363zm4.713 5.413c.182.14.359.274.558.091.294-.495-.634-.522-.558-.091zm-.137.984c-1.066 1.665-2.136 4.297-.154 6.003 2.112-1.014 1.313-4.694.171-6.017l-.017.014zm-5.744-.189c-.454.484-.889 1.63-.362 2.234 1.374 1.579 4.404-1.338 5.036-2.942-1.313-.24-3.188-.875-4.657.693l-.017.015zm18.493 3.418c.67.323-.118 1.098-.513.736-.395-.362 0-.994.513-.736zm22.034 41.348c1.607 1.206.007 3.434-1.512 2.57-.797-.47-1.508-2.109-.214-2.897a1.71 1.71 0 011.726.327zm-1.417.657c-.46.808 1.134 1.668 1.2.497-.4-.469-.797-.64-1.217-.483l.017-.014zM28.597 52.312c.118.135.063.243.023.358-.04.114-.25.067-.363.027-.115-.04-.063-.243-.029-.363.035-.12.244-.063.369-.022zm11.35 14.255a1.5 1.5 0 01.437 1.827c-1.45 2.664-4.725-1.018-1.952-2.14a1.5 1.5 0 011.515.313zm-1.324.764c-.164.143-.022.408-.3.65 1.34 1.618 1.533-1.644.283-.635l.017-.015zM28.07 53.147c-.135.187-.073.133-.271.236-.139.002-.264-.188-.392-.335a.593.593 0 01.284-.337.57.57 0 01.38.436zm-1.085.079c.148.17.384.372.372.541l-.271.236a.63.63 0 01-.436-.614c.128-.162.225-.027.335-.163zm-.397 1.313c-.097.084-.173.03-.265.13a.75.75 0 01-.456-.855c.412-.27.804.364.72.725zm-.728.821c-.096.083-.172.03-.265.14-.345-.225-.743-.784-.592-1.125.42-.295.984.696.857.985zm-.523.84c-.636.355-1.259-1.022-1.136-1.418.6-.373.994 1.015 1.136 1.419zm48.056 20.537c1.489 1.15-.705 2.971-1.71 1.578a1.177 1.177 0 011.71-1.578zm-1.04.806c-.009.137.156.282.285.429.594-.14.152-.82-.29-.435l.005.006zM30.805 67.116c-.392.053-1.27-.635-1.152-1.105.43-.284 1.547.702 1.152 1.105zM6.939 39.71c.045-.04.05-.044.106.007a28.595 28.595 0 012.245 3.138c.647.938 1.942 2.287 1.442 2.98-.5.695-2.5-.07-3.474-.346-.58-.162-1.207-.311-1.75-.466a11.809 11.809 0 01-1.697-.51 32.019 32.019 0 01-3.178-2.325c-6.272-4.485-12.618-9.133-19.096-13.866-.982-.716-2.662-1.71-3.028-2.335-.684-1.254 1.252-4.273 2.9-3.968a6.96 6.96 0 011.615 1.09c7.014 4.833 13.652 9.395 20.657 14.435 1.076.734 2.338 1.624 3.258 2.166zm-2.537 3.94c.88.427 1.76.456 2.663.853.328-.594.19-1.22 1.048-1.777-.495-.683-.9-1.365-1.4-2.053a4.553 4.553 0 00-2.305 2.972l-.006.005zm-23.36-20.636a2.445 2.445 0 00-1.748 2.299c.158-.059.287.237.45.185.115-.36.538-.936.914-.607.124.349-.428.651-.484.998.183.13.335.385.544.293-.009-.341.58-1.023.904-.4a2.7 2.7 0 00-.464.792c.138.238.298.148.436.386.185-.21.435-.837.82-.714l.153.175c.106.385-.73.705-.164 1.137.272-.236.668-.97 1.008-.5.117.307-.358.561-.52.842.112.13.238.08.341.279.203-.236.612-.851.907-.501.14.286-.255.53-.358.8l.285.327c.104-.269.624-1.03.963-.55.091.299-.405.552-.42.843.152.266.327.203.486.443.22-.192.212-.464.457-.686.155-.016.313-.074.457.08.089.319-.307.595-.371.899a1.168 1.168 0 00.736.513c-.017-.304.482-.908.805-.503.048.307-.328.594-.37.9.192.168.394.323.605.467.134-.218.292-.419.472-.6.114.13.281-.066.4.129.12.194-.328.525-.357.799.192.22.426.295.63.506.18-.158.483-.77.754-.458.27.31-.186.53-.162.807.205.213.434.4.684.558.176-.233.477-.674.743-.358.114.268-.19.502-.207.756.183.12.358.285.536.399.156-.324.555-.87.898-.294a5.36 5.36 0 00-.423.656c.12.195.264.109.38.335.3-.261.64-.706.898-.294.17.25-.329.455-.373.713.164.017.325.224.487.342.095-.153.38-.59.615-.436.378.286-.02.514-.112.763.14.11.29.207.448.286.178-.264.458-.617.743-.358.105.247-.075.473-.256.7.143.244.3.207.44.392.148-.277.384-.702.75-.464.17.41-.537.787.08 1.085.112-.237.34-.684.66-.385.319.298-.298.527.049.822.148.08.386-.595.664-.38.277.216-.003.51-.106.759.164.155.346.291.541.404.09-.148.336-.551.542-.383.358.286-.02.515 0 .776.182.21.328.183.48.448.169-.068.483-.838.848-.361.03.263-.215.506-.212.761.187.215.339.183.485.443.108-.242.49-.854.812-.507.321.346-.328.594-.27.901.187-.014.33.379.548.298.1-.354.533-.702.836-.25-.079.218-.358.422-.422.656.152.176.298.148.44.392.176-.152.072-.34.337-.492.135.052.276.008.4.23.122.22-.207.368-.193.555.141.22.352.386.6.472-.032-.23.254-.679.556-.584.451.393-.235.702-.044 1.093a1.5 1.5 0 01.6.472 7.373 7.373 0 012.163-3.227c-8.305-5.518-16.525-11.36-24.748-17.079l-.005.005zM8.13 44.731c.45.111.909.194 1.37.249-.196-.476-.635-.97-.873-1.448a.99.99 0 00-.492 1.194l-.005.005zm23.34 23.925c-.44.293-1.226-.484-1.728-.992-.266-.305-.821-.726-.543-1.069.39-.239.606.319.886.572.545.5 1.455.951 1.386 1.489zm16.557 21.041a.637.637 0 01-.586.32 1.372 1.372 0 01-.328-.49c.096-.152.286-.437.492-.428a.667.667 0 01.422.598zM31.238 69.82c-.793-.055-2.399-1.362-2.469-2.276.34-.237.472.176.743.407.708.597 1.753 1.169 1.726 1.869zm-3.095-1.342c.43-.374.741.349.991.579.43.32.834.672 1.209 1.056-.561.807-2.078-.936-2.2-1.635zM11.138 52.265c.56-1.641 1.413 1.177 0 0zm17.511 20.769c-.43.374-1.357-.519-1.896-1.035-.276-.316-.866-.777-.486-1.118.404-.153.564.374.829.621.55.495 1.436.918 1.553 1.532zm14.084 11.28c1.509 1.401-.91 3.775-2.376 2.457a1.756 1.756 0 01-.203-2.518 1.791 1.791 0 012.58.06zM41.07 86.15c.392.027.715.044.993-.288.637-.753-.669-1.407-1.42-.752a1.214 1.214 0 00.427 1.04zm-16.2-13.766c.752-.278 1.398 1.07 2.112 1.432-.338.96-1.85-.776-2.113-1.432zm8.2 8.821a.525.525 0 01-.93.143 1.412 1.412 0 00-.028-.363c.358-.491.83-.235.957.22zm-8.081-5.751c-.38.271-1.147-.563-1.014-.948.352-.257 1.348.567 1.014.948z"/><path d="M25.6 76.938c-.693.345-2.043-1.205-2.128-1.897.44-.293.805.434 1.178.805.373.371 1.122.694.95 1.091zM3.115 51.89a1.5 1.5 0 01.622 1.378c-.62 2.29-4.553.036-2.28-1.476a1.387 1.387 0 011.658.098zm-1.399.93a.623.623 0 001.056.333c-.007-.122-.057-.248-.028-.363a.75.75 0 00-1.028.03z"/><path d="M25.533 78.064c-.671.097-2.603-1.493-2.413-2.325.364-.108.47.277.736.513.622.532 1.643 1.156 1.677 1.812zM38.78 98.12a.488.488 0 01-.243-.942.487.487 0 01.243.942zM21.664 80.365a2.25 2.25 0 01-1.021-.842c.203-.703 1.843.404 1.02.842zm6.179 6.648c-.218.686-1.121.22-.956-.322.378-.558.95-.13.956.322zM22.1 81.426c-.568.226-2.093-.942-1.786-1.618.556.262 1.751.972 1.787 1.618zm-.034 1.284a3.306 3.306 0 01-2.377-2.067c.4-.238.616.24.947.528.546.48 1.63.947 1.43 1.54zm-2.258.718c-.445.278-1.469-.442-1.377-.92.467-.296 1.299.43 1.377.92zm-1.442 1.542c-.398.526-1.291-.248-1.136-.642.395-.334.959.28 1.136.642zm.215 1.354c-.586.252-1.363-.504-1.721-1.097.577-.423 1.695.622 1.721 1.097zm-.171 1.016c-.72.179-1.625-.724-2.137-1.312.33-.556 2.104.714 2.137 1.312zm12.954 4.684c1.924 1.478-.785 3.668-2.087 2.584-1.704-1.42.416-3.863 2.087-2.584zm-1.83 1.107c-.21 1.118 1.575.965 1.497-.05-.46-.585-.96-.508-1.498.05zm-13.807-6.439c.838-.441 1.548.98 2.334 1.14.258 1.357-2.013-.554-2.334-1.14zm1.555 2.107c-.696.148-2.007-.958-2.15-1.59.533-.165 2.044.897 2.15 1.59zm-3.18-.879c.691-.543 1.251.74 1.904.748.23 1.212-1.605-.085-1.904-.749zm.492 3.217c-.554.244-1.492-.57-1.67-1.141.553-.233 1.665.599 1.67 1.141zM15 92.814c-.461.133-1.097-.358-1.615-.712-.518-.355-1.262-.89-1.241-1.426.384-.255.916.356 1.39.718.69.484 1.548.772 1.466 1.42zm-.2 1.127c-.499.227-1.242-.41-1.792-.836s-1.469-1.047-1.327-1.639c.495-.082.959.508 1.478.921.692.532 1.578.864 1.642 1.554zm-1.132.881a13.26 13.26 0 01-1.942-1.682c-.276-.316-1.121-.773-.48-1.213.506.386.947.916 1.544 1.441.596.525 1.645.885.878 1.454zm-.586.427c-.4.26-1.033-.215-1.517-.6-.483-.383-1.488-1.15-1.325-1.739.564-.083 1.045.72 1.618 1.197.573.475 1.257.506 1.224 1.142zm-1.732-.322c-.646.561-1.551-.639-1.778-1.048l.277-.241c.476.42 1.372.764 1.5 1.289zm-.482 2.641c-.402.35-1.059-.073-1.526-.313-.467-.24-1.25-.612-1.156-1.111.328-.286.818.163 1.21.397.57.212 1.077.565 1.472 1.027zm-.043 1.278c-.567.205-1.467-.383-2.15-.814-.683-.43-1.831-.96-1.478-1.696 1.195.56 2.347 1.746 3.556 2.095.148.17.124.28.072.415zm-.485.998c-.697.159-1.653-.55-2.443-1.046a23.878 23.878 0 01-1.183-.8c-.38-.276-1.079-.622-.644-1.07a6.75 6.75 0 012.044 1.204c.676.503 1.404.933 2.17 1.282.18.183.108.295.056.43zm-5.16-1.85c.731-.12 1.337.645 1.984 1.067.665.457 1.38.835 2.133 1.126.16 1.143-1.536-.085-2.326-.57-.79-.485-1.939-1.027-1.791-1.623zm18.147 6.126c1.746 1.514-.823 3.84-2.21 2.214a1.757 1.757 0 01-.17-2.07 1.63 1.63 0 012.38-.144zm-1.654.864c-.38.57.663 1.412 1.185.699a.623.623 0 00-.256-.842.672.672 0 00-.93.143zM7.76 100.958c-.448.331-1.28-.179-1.914-.542-.634-.362-1.54-.866-1.649-1.448.55-.35 1.127.392 1.743.79.723.454 1.59.605 1.82 1.2zm-1.014 9.328c-1.296-.941 1.301-1.373.534-.267-.16.229-.29.193-.534.267zM91.96-12.005C88.763-8.079 84.837-4.193 81.272-.292a19.134 19.134 0 0110.914 4.539c2.677 2.274 5.214 5.485 7.684 8.596.695.877 2.389 2.355 1.963 2.915-.292.374-1.436.087-1.944.052-4.52-.131-9.017-.224-13.444-.407 4.511 6.882 4.916 13.412 3.146 19.957a28.838 28.838 0 01-1.046 3.218c-.429 1.05-.799 2.327-1.754 3.069-3.136-3.087-6.582-7.467-9.625-11.053-1.532 3.86-4.2 7.408-8.59 11.23a40.388 40.388 0 01-9.301 5.892c-.891.427-2.428 1.119-2.962.46-.533-.66.649-3.23.833-3.898 1.108-3.948 2.325-7.793 3.43-11.64-7.754 2.277-15.186.434-22.76-3.055-.748-.344-2.822-1.173-3.011-1.904-.258-1.038 2.79-1.843 3.438-2.128 4.008-1.77 7.767-3.393 11.66-4.953a32.695 32.695 0 01-3.684-3.236 9.978 9.978 0 00-1.248-1.32c-.464-.293-2.337.046-3.196.088-13.899.794-27.523 1.459-41.49 2.174-.95.051-2.004.143-3.198.189-.841.026-2.76.255-3.137-.063-.607-.526-.585-2.853-.02-3.345.408-.355 2.224-.315 3.056-.353 15.116-.72 30.648-1.535 45.542-2.043A45.003 45.003 0 0138.12 1.32c-.22-.802-1.195-3.097-.33-3.691.546-.356 2.954 1.187 3.492 1.474 3.521 1.908 6.96 4.006 10.398 5.865-.067-2.18-.386-4.408-.01-6.636a38.017 38.017 0 011.95-6.6c1.138-3.08 2.514-6.526 5.81-9.674 1.086-1.036 2.788-2.508 3.48-1.977.394.304.348 1.28.442 1.833.717 4.25 1.269 8.493 1.9 12.678 5.757-6.147 13.477-7.24 19.696-7.534 1.046-.055 2.135-.039 3.24-.037a12.27 12.27 0 013.226.175.826.826 0 01.545.798zm-13.904 1.167c-2.965.592-6.29 1.4-9.496 3.942a13.427 13.427 0 00-2.98 2.883c-.472.77-.54 2.36-.691 3.397-.545 3.578-.529 6.966.97 10.503.05.057.119.136.101.002a8.25 8.25 0 013.606-6.79A18 18 0 0174.88.59a17.47 17.47 0 012.61-.543c.73-.098 2.098-.035 2.592-.336.48-.414.91-.884 1.277-1.4 3.059-3.5 5.908-6.647 8.918-9.975a39.75 39.75 0 00-12.23.804l.01.021zM93.095 6.659C87.388.77 79.73-.6 73.12 2.5c-1.521.709-2.984 1.256-4.295 2.686-1.534 1.665-2.241 3.434-1.802 5.548.4-.11.775.24 1.176.14a12.302 12.302 0 012.025-1.763c5.189-3.007 10.868.67 15.485 5.413 4.419.13 9.187.214 13.555.32.202.002.573.018.729-.158-2.496-2.81-4.382-5.443-6.909-8.047l.01.021zm-31.22-25.138c-4.844 3.929-6.337 8.004-7.94 12.583a22.757 22.757 0 00-1.3 8.342c.038.853.081 2.376.372 2.859.554.91 1.736 1.651 2.614 2.339a25.578 25.578 0 006.667 4.001c.373.143 1.22.488 1.235.277a9.271 9.271 0 01-2.644-7.126 19.703 19.703 0 013.612-9.113c-.744-4.783-1.525-9.563-2.401-14.35l-.215.188zM88.15 21.299c-1.306-3.577-3.996-8.117-7.813-9.736-2.5-1.066-5.884-1.321-8.198.305a9.751 9.751 0 00-1.769 1.83c.807.252 1.594.564 2.355.933 3.44 2.226 4.184 6.083 4.642 8.757.275 1.571.331 3.173.166 4.76-.06.559-.34 1.23-.157 1.578.35.432.733.837 1.144 1.211 2.74 3.145 5.442 6.043 8.11 9.2 2.765-5.929 3.828-12.463 1.486-18.888l.034.05zM74.63 9.201c.7.049 1.614.585 2.184.406-.717-.15-1.662-.64-2.207-.444l.024.038zm-2.853.367c.922.053 2.078.707 2.868.198-.936-.219-2.093-.862-2.892-.237l.024.039zm-8.975-7.76a8.941 8.941 0 001.019-2.816 7.404 7.404 0 00-1.043 2.777l.024.04zm7.063 8.66c.917.116 2.077.648 2.89-.11-.985-.068-1.888-.933-2.914.07l.024.04zm-7.93-4.025c.539-1.574 1.655-3.113 1.565-4.725-1.057 1.527-1.835 3.09-1.565 4.725zm6.953 5.004c.554.453 1.172.203 1.725.428.169-.207.625-.425.607-.629-.742.13-1.708-.67-2.326.196l-.006.005zm-6.216-2.285c.368-1.564 1.338-3.363.784-4.81-.46 1.574-1.926 3.1-.779 4.805l-.005.005zM69.7 12.38c.04.148.1.29.178.422a.952.952 0 00.286-.448c-.154.074-.299-.058-.458.021l-.006.005zm2.12 2.869c.424 1.023.506 2.294 1.725 3.202-.633-1.08-.335-2.702-1.72-3.207l-.005.005zm3.172 5.413c.05.056.118.136.1.002-.217-1.164-.188-2.581-1.443-3.646.548 1.223.608 2.434 1.349 3.639l-.006.005zm-4.877-6.047c.494.694.71 1.809 1.6 2.067-.405-.83-.427-2.193-1.595-2.072l-.005.005zm-7.047-4.585c.332.267.382.781.764.877.183-1.274.78-2.53.111-3.847a30.883 30.883 0 00-.875 2.97zm2.798 4.207a2.183 2.183 0 002.734-.173c.782-.93-.458-2.217-1.58-2.374-1.317.223-1.996 1.728-1.145 2.58l-.009-.033zm3.17.99c.34.002.66.359 1 .372a5.885 5.885 0 01-.5-.907c-.133.214-.521.374-.492.567l-.008-.033zm-4.04-3.315c-.255-.773.51-1.698-.302-2.334 0 .766-.91 2.027.31 2.366l-.008-.032zm.6-.522l.22-.192c-.07-.08-.178-.204-.249-.172.096.156-.045.268.037.396l-.009-.032zm3.207 28.754c3.264-3.002 6.646-7.08 7.243-10.345.289-1.564-.143-3.386-.618-5.13-.841-3.068-3.184-7.323-6.538-8.65.77 4.493 1.283 9.754-3.315 13.759a14.333 14.333 0 01-3.938 2.434c-1.434 4.988-2.805 9.981-4.171 14.98 3.638-1.636 7.826-3.771 11.346-7.015l-.009-.033zM67.49 18.533c-.046-.955.748-1.905.255-2.917-.384.93-.79 2.12-.255 2.917zm-.98-2.896c.122.255.223.52.301.791.138-.228.21-.49.207-.756-.19.125-.344-.109-.52-.025l.012-.01zm-2.735-2.592c.197.226.391.266.573.555.046-.04.108-.093.163-.042.158-.138.095-.301.08-.457-.305.096-.56-.129-.87-.039l.054-.017zm3.836 8.973a5.204 5.204 0 00.552-4.23c-.052 1.367-.811 2.974-.561 4.208l.009.022zm-3.088-6.64c.27-.126.504.167.77.005.138-.22-.074-.452-.328-.709-.158.218-.44.454-.45.681l.008.022zm-3.234-3.052c.543.624 1.14 1.199 1.785 1.718.233-.046.461-.118.679-.214a4.995 4.995 0 00-2.473-1.526l.01.022zm1.442 8.84c-3.812 2.84-8.562 2.183-11.93.005-4.815 2.203-9.607 4.387-14.43 6.409 5.633 3.19 12.085 5.13 18.169 4.955 1.944-.052 5.282-.204 7.113-1.768 4.633-3.965 5.933-9.93 4.122-14.272a8.453 8.453 0 01-3.053 4.648l.009.022zm2.122-4.634c.673-.586-1.093-1.037-1.392.059.47-.18 1.008.266 1.383-.08l.009.021zm-9.47-3.907a18.481 18.481 0 01-2.952-4.83 9.003 9.003 0 00-.557-1.633 7.793 7.793 0 00-1.635-.883c-3.998-2.148-7.781-4.105-11.611-6.15 1.59 5.766 3.272 13.351 9.851 18.93a11.248 11.248 0 002.542 1.925c.918.16 1.858.157 2.775-.01a15.684 15.684 0 009.81-5.08c.033-.03.067-.06.011-.1-2.892.847-5.929.478-8.234-2.17zm3.295-1.516c.877 1.007 1.487 2.016 2.358 3.039.41.084.832.08 1.24-.016-1.197-.917-2.342-2.745-3.587-3.033l-.011.01zm3.237 6.699c.646.044 2.502.805 2.617-.638-.852.105-1.673-.403-2.634.652l.017-.014zm5.236 6.789c1.088-.818 1.07-1.707 1.11-2.598a8.804 8.804 0 00-1.099 2.588l-.011.01zM56.209 9.598c1.175 1.453 1.748 2.864 2.769 4.322.33.06 1.16.453 1.177.13-1.249-1.48-2.424-3.778-3.935-4.461l-.011.01zm3.607 9.66c1.077.031 2.152.121 3.22.27.149-.32.69-.601.627-.935-1.226.053-2.694-.558-3.835.655l-.012.01zm-6.22-11.711c.843 1.812 2.305 4.508 4.33 5.748-1.353-1.885-2.41-4.436-4.34-5.738l.01-.01zm11.552 21.111a9.474 9.474 0 002.403-3.545c-1.192 1.167-1.667 2.357-2.415 3.555l.012-.01zm-8.435-8.12c1.895-.11 3.688 1.184 5.681-.433-1.84-.286-3.937-.638-5.68.432zm-3.181.651c1.892.849 4.099 1.155 5.945.203-1.994.017-3.938-.707-5.955-.214l.01.011zm-10.828-7.02c-.31-.219-.093-.587-.386-.66-.112.168-.2-.014-.308.08a.398.398 0 01-.04.512c-.388.218-.425-.486-.63-.506-.206-.02-.037.38-.293.544-.268.024-.397-.262-.55-.517-.134.04-.273.064-.414.073.158.18.024.347-.136.506-.434-.03-.272-.598-.74-.508-.17.147.04.343-.237.494-.064-.074-.14.033-.212-.015a1.244 1.244 0 01-.273-.428c-.513-.04-.425.22-.755.458-.3-.047-.27-.46-.536-.398-.264.061-.11.295-.342.497-.395-.065-.444-.51-.843-.42-.204.178.038.375-.293.543-.305-.042-.324-.234-.428-.492-.142.123-.25.068-.364.028-.21.183.075.383-.197.55a.367.367 0 01-.307-.02c-.207-.17-.064-.314-.217-.478-.204.057-.416.077-.626.057-.21.183-.035.429-.343.498-.206-.02-.31-.287-.384-.441-.236.026-.475.025-.721.05.058.159.084.315-.08.458-.164.143-.495-.215-.485-.443-.297.07-.582-.04-.9.108.157.18.03.342-.136.506-.349-.035-.256-.294-.493-.566-.236.054-.48.071-.721.052-.14.181.053.38-.293.543-.206-.02-.36-.323-.428-.492-.292-.015-.591.087-.872-.007-.198.172-.031.375-.298.548-.267.173-.423-.268-.429-.492a7.753 7.753 0 01-.983.08c.2.174-.017.313-.186.45a.569.569 0 01-.379-.435 1.304 1.304 0 00-1.055.342c-.508-.423-.927-.356-1.143.23-.243-.097-.375-.191-.384-.442-.461.053-.87-.108-1.113.492-.257.014-.347-.215-.48-.448-.293.166-.55-.048-.851.165.148.17.021.31-.09.456-.321.11-.44-.243-.544-.521-.222-.016-.453.096-.67.007-.14.181-.196.528-.492.428a.623.623 0 01-.23-.377c-.389.1-.752-.03-1.14.128.147.17-.027.302-.186.45-.295-.042-.292-.233-.428-.492-.422.098-.828-.025-1.256.1.195.167-.021.306-.186.449-.294-.042-.255-.225-.549-.516-.388.159-.754-.01-1.141.128.172.198.053.381-.192.556-.05-.057-.1-.034-.15-.07-.242-.186-.114-.347-.272-.528-.386.127-.751.027-1.141.128.148.17.027.305-.08.457-.323.074-.441-.222-.549-.516a3.15 3.15 0 01-1.084.08c-.198.171.104.416-.143.6a.344.344 0 01-.307-.02c-.248-.183-.114-.349-.271-.53a6.686 6.686 0 01-1.029.03c-.203.178.128.387-.192.556-.04-.045-.104-.029-.157.037a1.59 1.59 0 01-.377-.537c-.617 0-.774-.042-1.02.6a.412.412 0 01-.307-.021c-.177-.204.103-.339-.17-.528-.234.144-.438-.057-.673.108-.072.202.125.418-.243.6-.05-.057-.105-.029-.155-.064-.243-.187-.12-.354-.272-.53-.223-.004-.447.002-.665.003-.17.148-.05.342-.348.491a.826.826 0 01-.428-.492c-.23.09-.481.108-.721.052-.181.157-.034.338-.242.499a.54.54 0 01-.48-.448c-.465.037-.53-.005-.855.456a1.117 1.117 0 00-1.005-.377c-.164.211-.023.477-.394.541a1.372 1.372 0 01-.328-.49c-.3.013-.6.05-.895.113-.021.148.206.318.016.464l-.215.187c-.306-.122-.37-.424-.42-.699-.322.066-.65.095-.979.087a.375.375 0 01-.085.462c-.266.152-.49-.22-.48-.448-.208.023-.415.014-.625.058.063.164.084.314-.08.457-.164.143-.453-.212-.605-.467-.222.053-.44-.036-.672.107.043.45.044.897.114 1.343 16.54-.777 33.093-1.745 49.619-2.33-.456-.41-.623-1.07-1.037-1.306a.27.27 0 01-.22.42l.01.012z"/><path d="M32.545 66.565c.69 1.478 1.193 3.209-.304 4.403a3.75 3.75 0 01-2.566.593c1.058 1.992-1.408 4.289-3.332 3.677 1.496 2.198-.318 5.678-3.064 4.877.221 1.328.64 3.122-.703 4.172-.905.709-1.906.496-2.897.534 1.114 2.182-.667 6.19-3.692 5.81 1.013 2.102.093 5.887-3.258 6.209.026 1.559.312 3.498-1.465 4.827-4.7 3.535-10.656-1.661-15.376-6.613-6.008-6.294-11.602-14.134-11.186-19.698.124-1.56.921-3.786 2.973-4.32a4.688 4.688 0 013.451.755c.677-2.26 3.678-3.531 5.382-2.956-.42-2.767 3.015-4.088 5.014-4.077.366-.002 1.377.302 1.527.2.095-.285.174-.576.236-.87.822-2.209 3.558-2.413 5.115-1.86.12-2.51 3.568-3.634 5.242-2.157.181-.546-.012-.984.2-1.427.767-1.722 3.083-1.69 4.353-1.294.353-2.038 3.115-2.852 4.486-1.918-.17-2.298 3.032-3.634 5.035-4.384 2.479-.848 5-1.566 7.554-2.152 1.275-.295 2.71-.669 3.737-.46 1.672.344 2.16 1.76 1.936 3.218-.337 2.182-1.37 4.296-2.322 6.835-.428 1.12-.765 2.308-1.166 3.413-.618 1.711-1.036 3.379-2.944 4.682a6.677 6.677 0 01-1.966-.019zm7.27-16.276c-1.29-1.402-2.97-.567-4.51-.21-1.21.277-2.455.606-3.554.886-2.5.636-5.122 1.029-7.175 2.588a2.94 2.94 0 00-.566.493c-1.064 1.404 1.296 4.72 2.638 6.455 1.84 2.376 3.862 4.435 5.92 5.04-.835-.616-2.758-1.706-2.786-2.766.395-.254.585.296.786.47 1.136.95 2.466 2.248 3.661 2.102-.56-.506-2.065-.807-1.934-1.776.329-.148.482.246.742.407.52.323 1.57 1.14 1.912.643-.212-.382-1.38-.569-1.4-1.277.6-.294 1.131.477 1.693.733.13-.113.035-.2.227-.287-.138-.456-.707-.378-1.02-.841.082-.122-.037-.247.178-.355.399-.079.75.52 1.15.441-.064-.073.064-.165.07-.25-.072-.266-.6-.244-.829-.621.102-.089-.042-.242.173-.35.215-.107.63.336.956.322-.033-.14.109-.264.129-.4-.242-.278-.883-.306-.765-.777.334-.38.612.064.928.187.164-.143.111-.306.185-.45-.251-.288-.53-.244-.785-.57.108-.093-.06-.206.127-.3.272-.236.533.133.821.28.164-.142.14-.33.236-.494-.266-.305-.988-.403-.658-.869.33-.466.592.37.929.186.458-.399-.853-.58-.386-1.105.271-.237.494.305.756.206.403-.52-.82-.588-.38-1.11.258-.286.46.254.714.054.107-.094.038-.242.178-.355-.231-.266-.81-.348-.464-.75.282-.304.493.337.77.006.279-.332-.827-.562-.444-.956.384-.393.461.255.715.044.462-.452-.854-.57-.386-1.106.265-.14.487.332.763.111.31-.478-.686-.456-.506-.912.18-.455.544.134.833-.048.355-.45-.594-.477-.45-.951.268-.423.471.107.727-.056.231-.5-.683-.5-.55-.963.241-.34.444-.039.672-.108 0-.24-.082-.437-.022-.618l-.02-.023zM26.75 62.242c-1.405-1.522-2.245-3.436-3.416-4.814-1.059-1.216-2.823-1.917-3.874-.474-.863 1.179.531 2.7 1.676 4.209 2.056 2.795 5.179 7.306 7.768 8.92.851.532 2.383.68 3.155-.35.773-1.032-.284-2.508-.867-3.76a15.957 15.957 0 01-4.422-3.709l-.02-.022zm-11.709-3.43c-1.168 1.365 1.548 4.908 3.167 6.95.886 1.108 1.601 1.838 2.412 2.872 2.426 3.06 5.13 6.394 7.34 5.345a3.982 3.982 0 01-1.365-1.02c-.42-.39-1.229-.92-.829-1.397.85.256 1.608 1.584 2.436 1.918.205.099-.112.534.18.32a1.545 1.545 0 00.347-2.033c-.32.775-2.21-1.009-2.086-1.734.754.01 1.413 1.315 2.155 1.585-.643-.922-1.754-1.546-2.661-2.497-2.989-3.146-6.504-7.594-7.957-10.576-.962-.226-2.3-.712-3.139.267zm6.954 18.47c.656.126 1.265 1.008 1.914 1.319.086.293-.402.35-.392.43.465-.037.917.116 1.392-.058a14.144 14.144 0 01-1.614-1.191c-.34-.321-.995-.834-.635-1.277.447-.081.663.487.977.79.414.396 1.043.684 1.365 1.02.153.175.145.36.335.384a3.136 3.136 0 00-.288-3.986c-.547-.628-1.457-1.078-2.136-1.79a75.079 75.079 0 01-7.491-9.151 23.271 23.271 0 00-1.492-2.262c-.892-.864-2.806-1.475-3.875-.474-1.437 1.33.554 4.062 1.474 5.45 2.813 4.373 8.067 11.126 11.845 12.38-.476-.181-1.726-.943-1.39-1.563l.011-.02zm-2.877 4.326c.837.127 1.586 1.364 2.418 1.555.331.129-.133.623.172.426 1.175-.604 1.182-3.017.476-3.874a15.789 15.789 0 00-1.963-1.374A45.003 45.003 0 018.694 63.663c-2-1.53-5.261-.023-4.342 2.529a23.617 23.617 0 002.907 4.778c1.105 1.554 2.338 3.255 3.613 4.81 3.124 3.794 7.014 8.364 10.342 7.903 0 0 .1.023.056-.05-.45-.094-2.388-1.212-2.163-2.004l.012-.02zm-21.224-14.22c-.977 1.597 1.327 4.574 2.687 6.513 1.699 2.419 3.477 4.69 5.085 6.73a48.958 48.958 0 005.878 6.42c1.732 1.474 4.389 3.418 6.236 2.078 1.265-.923 1.702-3.471.832-4.573a4.248 4.248 0 00-1.08-.691c-2.677-1.647-5.265-4.596-7.61-7.517a66.573 66.573 0 01-5.396-7.385c-.452-.76-.98-2.13-1.315-2.504-1.009-1.101-4.384-.58-5.33.95l.013-.02zM5.46 82.155a103.158 103.158 0 01-7.666-10.312c-.286-.477-.484-1.469-.906-1.817-.298-.238-1.293-.217-2-.08-4.664.88-2.04 5.389-.215 8.364a65.743 65.743 0 004.818 6.745C3.337 89.89 7.49 95.106 11.357 95.698c.684.132 1.388.11 2.062-.066 2.44-.931 2.265-3.315 1.488-5.144.113-.099-.138-.158-.2-.115-3.263-1.326-6.425-4.649-9.258-8.199l.012-.02zM9.022 96.08c-4.03-1.98-7.66-6.866-10.96-11.044-2.483-3.138-4.8-6.323-6.153-9.352-.442-.987-.535-2.796-1.272-3.219-1.17-.681-3.014-.995-4.21.682-1.347 1.88-.468 5.093.547 7.481 2.889 6.744 12.64 18.443 18.634 20.622 1.472.549 4.054.727 5.466-1.01.75-.931.58-2.017.384-3.317-.855-.33-1.646-.427-2.448-.823l.012-.02z"/></g></svg>