<svg width="106" height="110" fill="none" xmlns="http://www.w3.org/2000/svg"><g opacity=".3" fill-rule="evenodd" clip-rule="evenodd" fill="#fff"><path d="M86.137-19.072c2.874 2.776 3.18 7.897 4.611 12.254.575 1.764 1.568 3.436 2.15 5.226.653 1.96.731 4.01 1.574 5.813a7.532 7.532 0 014.108 3.534c.47.797.837 1.698 1.261 2.528.49.96 1.137 1.822 1.267 2.841.086.486.055.985-.088 1.457a3.13 3.13 0 01-.735 1.26 3.265 3.265 0 01-2.149.824c-.901-.111-1.215-.869-1.96-1.26.34 2.508-1.143 4.683-3.664 4.48a2.9 2.9 0 01-2.528-2.613c-.183-1.698.392-3.631-.32-5.31-.268-.653-1.078-2.162-1.829-2.339-1.202-.274-2.528.987-3.22 1.392-.508.29-1.036.544-1.581.757-1.274.51-1.92.601-1.96 2.28.028.647.156 1.286.38 1.894.652 1.699 2.58 2.365 3.729 3.724a2.54 2.54 0 01.653 2.338 2.168 2.168 0 01-1.515 1.202 6.76 6.76 0 01-2.15.568c-1.234 0-2.103-.849-2.9-1.515-.796-.666-1.704-1.307-2.469-1.894-.359 2.168.771 5.421-1.195 6.061a3.75 3.75 0 01-4.109-1.306 8.745 8.745 0 01-.823-2.972c-.19-1.196-.6-2.352-.692-3.09-.386-3.18 1.019-5.728 1.012-8.407-5.879.464-9.798-4.742-8.217-11.183-.732-2.05.875-3.618 1.77-5.114.294-.497.398-.947.823-.947.856 0 1.196 2.11 1.137 3.22a6.806 6.806 0 01-.653 2.463c-.268.535-.909.98-1.007 1.39-.254 1.026.412 3.378.758 4.168a3.73 3.73 0 002.613 2.404 5.703 5.703 0 002.783-.19c.366-.195.483-.803.692-1.07 1.163-1.496 3.312-2.424 4.867-3.476 2.384-1.626 5.108-4.102 5.18-7.773.039-2.24-.804-4.337-1.96-6.382-1.49.654-3.867 1.457-5.814.7a2.222 2.222 0 01-3.096-1.836c-.065-1.228.908-2.313 1.516-3.031a5.879 5.879 0 01-3.534-1.307c-.595-.548-1.496-2.038-1.202-3.03.255-.856 2.07-1.542 3.266-1.647a6.18 6.18 0 013.096.51c.575.307.928 1.019 1.515 1.136-.104-1.182-1.62-1.188-1.96-2.338-.463-1.574 1.536-3.266 2.842-2.273.402.458.647 1.032.7 1.64.097.542 0 1.47 1.012 1.267.215-.654-.346-1.078-.386-1.77a2.123 2.123 0 011.522-2.143 1.365 1.365 0 011.385.444c.36.503-.157 2.691.379 2.9.536.21 1.391-1.012 1.836-1.384a6.395 6.395 0 014.677-1.307c.816.091 2.528.601 2.652 1.515.156 1.183-.758 2.372-1.392 3.031a8.368 8.368 0 01-2.658 1.686zm-6.879-3.155c1.411.294 1.072 2.39-.823 1.894.307 1.627-1.861 2.097-2.652 1.137-.535.953-.823 2.012-1.705 3.03-.79.909-2.423 1.96-2.149 3.351.216 1.137 1.96.993 2.273-.065 0-.255-.274-.581 0-.757.353-.301.654.17.948.313.326 0 .529-.255.757 0 .562.882-1.437.895-1.07 1.58 1.776.308 2.997-.332 4.29-.822a4.931 4.931 0 001.516-2.718c.059-.424-.157-1.182.379-1.195.882-.033.28 2.332.065 2.776.316-.063.643-.04.947.066.817.326 1.379 2.083 1.202 3.266-.124.816-.764 1.136-1.136 1.58.34.497.3 1.379.568 1.96 0-1.816 1.274-3.92 3.41-3.41.862.21.653 1.104.568 1.96-.032.496.046 1.019 0 1.391a2.031 2.031 0 01-1.705 1.83 3.358 3.358 0 01-2.273-.693 3.7 3.7 0 010 1.202 3.2 3.2 0 013.122 2.893c.203 2.58-4.245 3.6-4.99 1.392-.405.6-.98 1.038-1.385 1.646 1.222.072 1.633 1.254 1.64 2.142 0 1.196-.196 2.424-1.261 3.097-1.9 1.201-4.52.45-4.174-2.528-.144.17-.392.241-.568.378-.34 1.725-1.104 3.025-3.097 3.097a7.481 7.481 0 00.131 2.083c.19-1.515 3.207-3.475 4.233-1.704 1.202 2.083-.797 4.938-2.972 4.8.307.203.653 1.248 1.078 1.268.032 0 .209-.255.313-.32a2.659 2.659 0 011.64-.314c3.076.34 1.228 3.678 0 5.056 1.006 1.398 2.613 2.208 3.919 3.266a5.958 5.958 0 002.841-2.338c-.34-.105-.43-.451-.816-.503-1.052.503-3.593 1.104-3.795-.386-.163-1.189 1.15-1.77 1.894-2.332a5.878 5.878 0 01-.248-3.35 2.573 2.573 0 01-1.013-1.516c-.222-1.208 1.228-3.266 1.83-3.41 1.345-.307 2.416 1.124 2.527 2.463 1.359-.36 2.999-2.443 4.867-1.646.477.209.594.692 1.136.947a1.62 1.62 0 01.948-.314c1.822 0 1.822 1.96 1.267 3.351-.17.412-.575.653-.653 1.006-.125.693.189 1.803-.066 2.404a5.228 5.228 0 004.109-.947V9.57c-1.535-.098-2.763-.581-2.972-1.835-.183-1.104.797-1.96 1.646-2.528a12.52 12.52 0 01-.823-1.96c-.745-.542-1.901-1-2.084-2.09-.183-1.091.47-1.77.882-2.613-.418-1.457-1.222-2.522-1.64-3.978-1.306.307-2.985-.53-2.612-2.084.202-.803.888-2.09 1.306-2.338-.19-.654-.32-1.405-.503-2.084-2.352.255-3.887-.595-3.73-2.528.105-1.306 1.084-1.855 1.646-2.783a2.613 2.613 0 00-2.613-1.391c-.13-.183-.274-.281-.248-.568.046-.654.693-.458 1.196-.503a6.99 6.99 0 003.226-1.705 3.92 3.92 0 001.196-2.215 4.495 4.495 0 00-4.102-.503c-1.66.523-2.234 2.345-3.54 2.528-1.843.255-1.862-1.659-1.706-3.35-1.306.09-.62 1.704-.392 2.73zm-4.8-.654a15.215 15.215 0 011.828 1.895.652.652 0 01.444-.255c-.542-.653-.653-1.796-.823-2.841-.698-.438-1.613.215-1.456 1.221l.006-.02zm4.232 1.705c.203 0 .542.085.568-.124-.294-.137-.385-.052-.575.144l.007-.02zm-5.121.569a5.318 5.318 0 00-1.96-.503c-1.169-.06-3.083.43-3.22 1.136-.118.595.719 1.712 1.078 2.019a5.174 5.174 0 004.043.888 6.75 6.75 0 00.653-.947c-.496-.327-.77-.758-1.391-1.143-.346-.216-1.542-.549-1.45-1.071.137-.758 1.456.137 1.77.313.285.152.56.322.823.51.242.189.425.568.758.503.228-.693-.601-1.379-1.11-1.699l.006-.006zm2.972.379c0 .274-.04.587.124.692a.665.665 0 00.692-1.137c-.26.179-.535.334-.823.464l.007-.02zm10.17 3.919c-.914.653-1.691 2.613-.378 3.41h1.77c-.412-1.17-.693-2.476-1.398-3.39l.007-.02zm-4.363 5.506a5.789 5.789 0 00-.32-1.77c-.235-.379-1.685-.483-1.77.13 0 0 .34.386.444.57.32.712.677 1.408 1.071 2.083a1.378 1.378 0 00.575-1.013zm1.26 4.357a1.47 1.47 0 001.516.255c.85-.483.307-2.136.693-3.096-1.699-.294-2.424 1.234-2.208 2.848v-.007zm4.795-.437c.105.522.817.653 1.392.653-.268-.81-.431-1.718-.758-2.463-.092.542-.751 1.19-.634 1.81zM63.64-1.513c0 .391.046.972.503 1.07A4.383 4.383 0 0065.221-4.8c-.503.856-1.6 2.012-1.574 3.293l-.007-.007zM84.046-.32c1.68-.83.464-3.494-1.456-3.41a13.891 13.891 0 01-1.013 2.463c.079 1.254 1.483 1.45 2.476.954l-.007-.007zm8.492 2.215a8.642 8.642 0 00-.503-2.15c-.464.739-.28 1.915.542 2.156l-.039-.006zm-29.25.313c.267-.032.352.111.568.131a8.851 8.851 0 00-.19-1.836c-.176.053-.163-.084-.313-.065a10.87 10.87 0 00-.026 1.777l-.04-.007zm13.717 3.665c.849.914 2.671-.052 2.972-.823.3-.77.287-2.051-.065-2.522-.784-1.038-2.195.118-2.973.758-.071.934-.49 1.953.099 2.593l-.033-.006zm-13.522-1.83a.653.653 0 00.445-.698 4.04 4.04 0 00-.569-.248c.011.323.064.644.157.953l-.033-.006zm.19.883c.209.34.307.797.51 1.136a1.84 1.84 0 011.201.255c-.379-.588-.653-1.254-1.012-1.894-.085.287-.464.307-.667.51l-.032-.007zm8.785 1.646c.921 0 1.346-.889 1.516-1.457A7.125 7.125 0 0072.49 6.58l-.033-.006zm23.784 7.525c.3 0 .3.287.568.313a6.258 6.258 0 002.842-2.214c-.17-.229-.144-.653-.438-.758a6.544 6.544 0 01-1.078.13c-1.652-.182-1.208-2.41-.379-3.265-.692-1.163-1.391-2.32-2.717-2.842 1.202 2.078 1.313 5.24 1.202 8.636zm-2.15-8.028c-.456.379-1.142.895-1.07 1.515.084.725 1.012 1.013 1.96 1.013a6.734 6.734 0 00-.89-2.528zM66.195 8.284a5.383 5.383 0 004.801 1.137 3.597 3.597 0 01-.065-.444c-.764.705-2.992.496-2.907-1.072a4.429 4.429 0 01-2.084-1.012c.168.445.254.916.255 1.391zm-1.012-1.012c-.15 0-.21-.457-.38-.255.131.02.19.47.36.255h.02zm3.664.692c.163.895 1.672.614 1.77-.124-.666-.013-1.11.176-1.809.124h.04zm3.789 2.972c1.051 1.96 3.756-.496 2.841-2.613-1.705-.346-2.586 1.124-2.86 2.613h.019zm8.72-2.083c-.843.561-1.874 2.181-.888 3.155a4.305 4.305 0 012.09-1.137c.333-.83-.856-2.267-1.221-2.018h.02zm17.5 1.704a4.043 4.043 0 00-.7-1.39c-.535.535-.391 1.978.7 1.39zm-8.91-.124c.496.451.653 1.255 1.012 1.83.425-.922.262-2.666-1.032-1.83h.02zM71.42 14.222c.464.216.888.457 1.306.692 1.744 1.418 0 4.011-1.763 3.351.143 1.64.699 2.881.816 4.573 1.084.333 2.815.849 3.854.124.04-1.411-.105-2.535.19-3.469-.954-1.15-.948-2.782-1.705-3.984-.758-1.202-1.816-2.064-2.398-3.266 0-.04 0-.072-.065-.06-.007.713-.235 1.275-.235 2.039zm26.128.823c.908 1.306 3.051-.111 2.463-1.835a6.965 6.965 0 01-2.502 1.835h.04zm-20.282-.255c-.202-.653-1.888-.757-2.273-.065.503.692.692 1.711 1.071 2.528.17-.817 1.51-1.372 1.163-2.463h.04zm-6.192 2.528c2.011.745 1.842-2.13.19-2.084-.113.69-.19 1.386-.23 2.084h.04zm23.946-.947a6.767 6.767 0 01-3.919.653c-.157 2.92 4.749 1.836 3.88-.653h.04zm-14.213.758a2.345 2.345 0 00-1.268 1.195c.555.457 1.307-.183 2.025-.124a2.41 2.41 0 00-.797-1.071h.04zm2.841 5.225c1.679-.503 1.43-1.522.255-2.331a8.086 8.086 0 01-2.848 2.331c.712.582 1.62.3 2.554.014l.039-.014zm-7.963 1.516c-.947.653-2.567.163-3.534-.124.053 2.13 4.318 2.684 3.495.137l.04-.013z"/><path d="M85.312.826a1.816 1.816 0 012.025 1.306c.47 2.365-2.13 4.618-4.175 4.044a2.45 2.45 0 01-1.306-1.144 3.482 3.482 0 011.013-3.41 4.572 4.572 0 012.443-.796zm-1.705 4.363c1.626.268 3.468-2.181 2.528-3.22-.418-.47-1.895-.13-2.463.19a2.475 2.475 0 00-1.078 2.397c.399.26.62.568 1.013.633zm6.383-3.162c1.411-.235 2.365.974 2.208 2.463a2.854 2.854 0 01-3.096 2.339c-.45-.046-1.522-.419-1.705-1.196-.36-1.541 1.313-3.37 2.593-3.606zm1.196 1.705c-.196-.973-1.235-.927-1.895-.437a3.383 3.383 0 00-1.07 1.763c.835 1.444 3.311.399 2.965-1.326zM85.06 8.598c-.909-1.888 2.398-2.888 2.783-1.392.36 1.386-1.712 1.856-2.783 1.392zm.757-.758c.51 0 .955-.059 1.144-.379a.777.777 0 00-1.17.38h.026zM3.315-2.526c.19.209.092.529.124.882.066.653.445 1.633-.124 1.77a3.463 3.463 0 01-.19-2.718.322.322 0 00.19.066zM59.982-.508C59.95.65 59.33 1.831 58.905 2.967c-.19.543-.425 1.144-.654 1.705-.228.562-.215 1.372-.947 1.307-.535-.438-.072-1.15.124-1.64.595-1.496 1.307-3.41 1.96-4.8a.302.302 0 01.19-.19c.235-.013.274.11.404.143zM46.84 1.074c.575-.516 1.306.653 1.77 1.202.862.973 1.75 1.92 2.652 2.906.353.38 1.306 1.431.444 1.575-.483.085-1.254-1.098-1.391-1.261-.908-1.052-1.62-1.849-2.463-2.841a3.403 3.403 0 01-1.012-1.581zm-37.208.188c.19.372.431 1.228.124 1.516-.47-.072-.732-1.503-.124-1.516zm-.889.824c.079.778.536 2.071.19 2.653-.654-.353-.549-1.804-.503-2.653h.313zm45.303.254c.3.96.483 2.039.817 2.966-.954 1.032-1.438-1.835-1.307-2.776-.02-.235.262-.183.49-.19zm-46.373.379a6.48 6.48 0 01.313 2.084c.079.685.392 1.521-.058 1.894-.497-.111-.327-.875-.38-1.392a15.93 15.93 0 01-.189-2.39c0-.085.111-.105.124-.19l.19-.006zM-.793 6.128c0-1.398.758-3.123 2.273-2.972 2.633.267-.548 5.297-2.273 2.972zm.823-.32a1.45 1.45 0 001.45-1.705A1.548 1.548 0 00.03 5.808zm6.218-2.585c.45.215.372.908.438 1.391.143.993.3 2.018.444 3.155.059.438.379 1.15-.124 1.391-.51-.196-.333-.895-.38-1.306-.162-1.385-.509-2.972-.567-4.422 0-.105.058-.111.058-.19l.131-.02zm-.347 7.386c-.496 0-.294-.7-.313-1.006-.105-1.594-.497-3.45-.568-5.121.052-.053.17-.033.189-.124.02-.092.111.058.19.065.311 1.566.542 3.146.692 4.736.046.47.294 1.169-.19 1.45zM38.374 7.58c-.15-1.23.445-2.124 1.582-1.83 1.307.34 1.039 2.737-.654 2.463-.392-.072-.529-.307-.928-.634zm1.013-.125a.81.81 0 00.569-.124c.366-1.046-1.222-.804-.569.157v-.033zM4.322 6.318c.432.196.32.823.386 1.261.124.94.261 1.907.379 2.907.045.45.287 1.025-.066 1.306-.535-.032-.398-.75-.444-1.136-.137-1.26-.353-2.874-.503-4.168 0-.085.111-.098.124-.19l.124.02zm26.748.757c.758-.366.798 1.091 0 .823a.458.458 0 010-.823zm23.099.445c1.783-.333 3.044 1.058 2.717 2.842a2.664 2.664 0 01-3.096 1.96 2.868 2.868 0 01-1.45-.948c-.47-.784 0-2.312.313-2.841A2.202 2.202 0 0154.17 7.52zm-.693 3.789c.601.549 1.587.209 2.019-.19 1.019-.947.477-2.926-1.072-2.652-.901.157-1.887 1.986-.947 2.842zM25.677 7.71a1.398 1.398 0 011.836 1.515c-.065 1.307-1.908 1.921-2.614.817a1.548 1.548 0 01.778-2.332zm.19 2.084a.686.686 0 00.568-1.202c-.908-.419-.934.79-.588 1.202h.02zm37.649-1.77c0 .614-.777.496-1.26.568-.983.167-1.955.398-2.907.692-.38.111-1.137.392-1.202-.189-.066-.581 1.306-.758 1.835-.882.771-.174 1.552-.3 2.339-.379.379-.039 1.084-.196 1.195.19zm-59.879.064c.176.915.248 1.993.379 3.031.078.62.398 1.45-.065 1.83-.543-.301-.366-1.124-.438-1.771-.176-1-.261-2.015-.255-3.031.052-.052.177-.04.19-.124.013-.085.104.059.189.065zm46.175 1.705c-.424-.17-3.306-.823-2.274-1.647.66.334 3.065.693 2.274 1.647zm-30.387.569a.456.456 0 01-.7 0c-.189-.738.896-.738.7 0zm13.646 1.516a.353.353 0 01.569.19c.196.85-1.19.268-.569-.19zm29.31 3.218a.32.32 0 00-.19.19c-.816-.216-1.116-.745-1.828-1.261-.229-.163-1.738-.836-1.77-1.306-.066-1.006 1.038-.17 1.391.065.85.581 2.11 1.378 2.397 2.312zM50.38 12.315c.314 0 .608-.105.693.255.15.653-2.437 1.358-2.966 1.515-.529.157-1.058.203-1.835.444-.477.15-1.424.653-1.516.066-.091-.588 2.378-1.078 2.783-1.202 1.078-.333 1.822-.96 2.841-1.078zm6.128 1.142a.7.7 0 01.692-.091c.542 2.286 1.503 4.788 2.025 7.263.052.255.261.843-.13.947-.503.137-.81-1.358-.948-1.77-.235-.725-.444-1.47-.653-2.084a16.37 16.37 0 01-.986-4.265zm-34.685 1.007a.405.405 0 11-.568.569c-.144-.36.072-.654.568-.569zm31.143.066c1.097.078.104 1.306-.248 2.024-.235.451-.654 1.614-1.013 1.64-.855.072-.052-1.215.19-1.705.463-.94.555-1.522 1.07-1.96zm-37.519.633c1.96-.497 1.96 2.614.19 2.529-1.392-.059-1.516-2.196-.19-2.529zm.693 1.307c.13-.862-1.091-.582-.693.379a.51.51 0 00.693-.36v-.019zm68.793-1.146a1.084 1.084 0 011.307 1.137c0 1.51-2.561 1.627-2.529.066a1.235 1.235 0 011.222-1.203zm-.379 1.307c.36.562 1.307-.196.654-.51-.399.053-.49.34-.654.556v-.046zM-1.804 21.48a2.391 2.391 0 01-.653-.7c0-1.045.19-2.05.882-2.52.895-.608 2.24-.314 2.338.757a2.508 2.508 0 01-2.567 2.463zm.255-.823c.823-.118 1.607-.895 1.26-1.77a1.306 1.306 0 00-1.26 1.77zm14.401-.257c.47-.235.653.072.692.32.118 1.066-1.62.158-.692-.32zm5.305 1.77c0 1.628-1.496-.502 0 0zm48.647 6.637c-2.613.562-2.247-2.926-.503-3.03 1.744-.105 2.168 2.514.503 3.03zm.254-1.391c.072-.967-1.567-1.058-1.26.503a.836.836 0 001.26-.503zM9.376 29.5c2.613-.463 2.679 3.508.758 4.11-2.802.874-3.011-2.463-1.829-3.607.286-.29.666-.468 1.071-.503zm1.137 1.307c-.581-1.058-1.881-.059-2.018.947-.04.28.104.418 0 .758 1.09 1.104 2.704-.444 2.018-1.686v-.02zm-6.505.02a.352.352 0 01.503.32c.072.928-1.49-.013-.503-.32zm17.435 3.663c1.124-.372 0 1.53-.313.445-.079-.314.078-.366.313-.444zM1.8 35.883a.399.399 0 01-.698.38c-.15-.51.463-.641.699-.38zm64.812 1.581c1.79-.477 1.464 2.071.19 2.084a1.053 1.053 0 01-.19-2.084zm0 1.26c.372.053.497-.136.51-.443-.249-.15-.595.058-.51.444zm-48.832.256c0 .352-.196.555-.654.503-.594-.432.38-1.137.654-.504zM7.039 69.543c.183.523.405 1.15.699 1.83.235.561.81 1.306.503 1.894-.38.699-1.96 0-2.613.444-.79 3.58 1.49 4.775 3.534 5.938 2.756 1.567 5.225 4.03 4.925 8.72-.222 3.377-2.685 6.722-5.996 7.14-2.561.32-5.474-1.006-4.867-3.606a2.861 2.861 0 011.307-1.705c.75-.412 2.482-.686 2.841.13.137.308.157 1.222-.379 1.261-.536.04-.326-.555-.692-.823-1.215.072-2.228.653-2.215 1.77 0 .98 1.11 1.745 2.215 1.96a5.016 5.016 0 003.35-.653 6.878 6.878 0 003.345-4.925 7.84 7.84 0 00-1.64-6.382c-2.181-2.489-6.747-2.946-6.76-7.643 0-.47.15-.836.124-1.306-.856.052-2.123.385-2.397-.255-.229-.53.47-1.26.757-1.829.373-.745.556-1.424.817-1.835-4.318-3.632-8.446-8.492-9.661-15.416-.719-4.07.327-7.578 2.208-9.916 1.96-2.463 4.572-3.92 8.655-4.109a13.601 13.601 0 0110.046 3.475c2.313 2.156 3.854 5.65 3.096 10.047-.653 3.586-2.723 6.27-4.677 8.844a36.671 36.671 0 01-6.525 6.95zm8.72-11.875a12.064 12.064 0 001.705-5.187c.314-4.65-1.835-7.734-4.736-9.471-2.9-1.738-8.44-2.41-12.006-.81-3.919 1.744-6.532 6.18-5.428 12.065 1.045 5.598 4.128 9.883 7.577 13.332.418.411 1.215 1.306 1.64 1.391.425.085 1.163-.3 1.77-.13A39.845 39.845 0 0015.76 57.68v-.013zM4.942 69.87c0 .091-.104.105-.124.19-.157.43-.412.927-.653 1.39-.242.465-.549 1.02-.503 1.261.51-.183.241-.947.816-1.005.575-.06.595.424.575 1.005h.379c-.32-1.025 1.241-1.234 1.006-.124.254.052.517.03.758-.065a20.252 20.252 0 01-1.137-2.652H4.942zM24.54 42.512c2.848-.53 2.613 3.782.379 3.664-1.613-.078-2.567-3.253-.379-3.664zm1.392 1.711c-.053-.953-1.594-1.306-1.77-.32-.144.817.587 1.058 1.077 1.392a1.188 1.188 0 00.692-1.072z"/><path d="M13.169 44.281a3.129 3.129 0 01-.654 1.836c-.287.503-.522 1.306-1.136 1.45 0-1.306 1.11-2.005 1.385-3.22.052-.053.176-.04.19-.124a.29.29 0 00.215.058zm1.011.826a5.624 5.624 0 01-.882 2.338c-.347.653-.654 1.692-1.392 1.77a5.88 5.88 0 01.882-2.025c.388-.646.726-1.32 1.013-2.018 0-.072.124-.046.124-.13.117-.007.163.078.254.065zm1.138 1.259c-.157 1.515-1.241 2.828-2.019 4.043-.222.346-.418 1.032-.947.947-.15-.496.268-.973.503-1.306a15.33 15.33 0 002.084-3.6c.052-.052.176-.039.19-.123.012-.085.11.039.189.039zm.729 2.024c-.071 1.124-.796 2.09-1.384 2.966-.294.438-.654.895-.954 1.307-.3.411-.523 1.051-1.071 1.143-.327-.542.313-.967.568-1.307a32.994 32.994 0 002.463-3.919c0-.085.11-.098.13-.19h.248zm38.539 2.4c.732-.373.791.764.249.823a.438.438 0 01-.249-.823zm5.398-.001c.654-.281.654.699.255.758-.216.039-.889-.484-.255-.758zm-43.467.001c.235.587-.28 1.194-.568 1.645-.653 1-1.34 1.823-2.084 2.776-.34.438-.594 1.11-1.202 1.202-.3-.594.399-1.019.693-1.391a30.048 30.048 0 002.848-4.044c0-.078.11-.098.124-.189h.19zm23.562 2.213a1.058 1.058 0 011.267 1.26c-.13 1.308-2.365 1.563-2.528.256a1.405 1.405 0 011.26-1.516zm-.314 1.581c.49.046.777-.111.758-.568-.307-.451-.817.058-.758.568zM16.64 53.572c-.535 1.66-1.763 2.802-2.776 4.043-.326.399-.548 1.032-1.136 1.137-.327-.555.346-.986.653-1.306a26.698 26.698 0 002.848-3.79c0-.071.124-.045.124-.13.15-.072.137.072.288.046zm35.633 4.043c.38-.137.516.039.569.255.307 1.222-1.706.157-.569-.255zm-28.113.444a2.795 2.795 0 011.306.059c1.476.653 1.411 3.33-.19 3.853-1.149.38-2.664-.28-2.775-1.515a2.286 2.286 0 011.659-2.397zm.758 3.155c1.103-.288.862-2.09.065-2.273-1.11-.255-1.307.907-1.646 1.64a1.45 1.45 0 001.58.633zm5.742 4.841a1.163 1.163 0 011.516 1.137c.085 1.908-3.11 1.993-2.777-.124a1.392 1.392 0 011.261-1.013zm.693 1.137c-.144-.562-1.098-.281-1.137.32a.594.594 0 001.137-.32zM.665 69.046c.032.438-.053.614-.32.653-.7.033-.353-1.385.32-.653zm22.733 11.857c.255-.065.55 0 .569.379.065 1.196-1.745-.072-.569-.379zm6.506-30.321a.698.698 0 01-.692.065c0-.072 0-.111-.066-.124-.098-.79 1.066-.614.758.059zM82.27 28.237c.993-.248 1.849.216 1.96 1.006a1.626 1.626 0 01-1.202 1.79c-1.934.346-2.646-2.332-.758-2.796zm-.255 1.705a.816.816 0 001.392-.51.75.75 0 00-1.392.51zM6.982 82c1.536-.223 1.719 2.064.38 2.273-1.34.21-2.177-2.019-.38-2.273zm-.255 1.306a.425.425 0 00.758-.254c-.15-.445-.797-.183-.758.274v-.02zm14.076-26.341c-1.405-.549-.542-2.855 1.013-2.463 1.32.326.993 2.96-1.013 2.463zm.177-.758c1.777 0-.046-1.862 0 0zm-2.001 31.984c.856-.202 1.686.196 1.581 1.307-.137 1.483-2.914 1.542-2.718-.19.072-.6.379-.94 1.137-1.117zm.758 1.137c-.072-.653-1.046-.228-1.137.314.425.51 1.19.15 1.137-.314zM28.39 63.28a.105.105 0 00.064.13c-.11 1.47-1.679-.444-.065-.13zm-8.153.635c.731-.373.797.764.254.823a.438.438 0 01-.254-.823zm-4.679 3.086c.202.138.235.438.32.693 1.306 0 1.842.738 1.705 2.208a12.777 12.777 0 01-1.261 3.984c-.504.07-1.014.09-1.522.06-.15.273.04.88-.379.887-.418.007 0-.653-.248-.888-.438.092.046 1.104-.568 1.013-.34-.177-.066-.575-.131-1.013-.921-.19-1.738-.346-2.15-.947-1.038-1.502.589-3.684 2.405-3.475a2.694 2.694 0 011.012-1.307c-.078-.28-.346-.757-.065-1.005.464-.046.294.548.568.692.346-.17-.346-.94.314-.902zm.379 2.084c-.262 0-.203-.34-.438-.379-.137.157.215.543-.13.653-.347.112-.268-.189-.438-.248-.653.222 0 1.307-.7 1.45a1.535 1.535 0 00-2.142 1.96c.42.305.931.461 1.45.444-.034-.287.05-.457.255-.51.372-.058.085.55.438.51.13-.17 0-.594.379-.51.189.046.215.255.189.51h.947c.255-1.378 1.078-2.495.889-4.108-.17-.085-.23-.281-.51-.255a.326.326 0 01-.19.483zM10.39 96.978c.967-.177 1.45.352 1.45 1.071 0 1.523-2.613 1.62-2.652.19a1.463 1.463 0 011.202-1.261zm-.38 1.306c.354.373 1.164.105.948-.444-.483-.209-.79.183-.947.444zm15.838.581c0-.568.705-.738.823-.313a.445.445 0 01-.823.313zm-5.287 1.079a1.39 1.39 0 011.83 1.195c.229 2.189-3.267 2.189-3.032.066a1.43 1.43 0 011.202-1.261zm1.013 1.385a.655.655 0 00-.514-.545.655.655 0 00-.688.297 1.11 1.11 0 01-.124.692.764.764 0 00.805.201.767.767 0 00.521-.645zm.433-29.447c.268.535-.653.967-.882.437a.543.543 0 01.882-.438zm2.283 33.111c1.177-.471-.117 1.47-.254.379-.02-.157.013-.281.255-.379zm-16.995 1.895c-.725-.752.713-1.131.569-.314-.04.242-.144.346-.569.314zm11.118 2.402c-.138-.81.77-.653.823-.254a.46.46 0 01-.599.416.462.462 0 01-.224-.162zm6.57.099c.046.751-1.098.536-.693-.19a.487.487 0 01.693.19zm19.139-20.861a3.796 3.796 0 014.108 3.468c.288 3.175-2.9 5.442-5.565 4.109-1.698-.85-2.717-3.625-1.64-5.683a4.161 4.161 0 013.097-1.894zm.379 1.006c-.399.378-.87.953-1.457 1.646-.588.692-1.6 1.398-1.26 2.149 1.031-1.346 2.318-2.443 3.35-3.795-.3.065-.49-.124-.633 0zm-2.783 2.338c.653-.725 1.24-1.45 1.9-2.149a2.26 2.26 0 00-1.9 2.15zm3.854-2.084c-.882 1.124-1.96 2.267-2.842 3.351-.261.314-.934.654-.568 1.196a55.237 55.237 0 003.92-4.357c-.23-.007-.23-.235-.51-.19zm.823.654c-.915 1.162-1.999 2.312-2.907 3.41-.28.34-.764.653-.758 1.136.543.085.797-.568 1.078-.882.973-1.11 2.117-2.136 2.966-3.266-.17-.124-.124-.444-.38-.444v.046zm-2.868 4.905c.725.281.98-.372 1.307-.757.816-.908 1.685-1.849 2.338-2.613-.091-.203-.052-.536-.255-.654-1.019 1.438-2.338 2.587-3.39 4.024zm1.516 0c1.078-.418 2.07-1.254 2.083-2.528-.614.843-1.64 1.68-2.057 2.528h-.026zM4.01 2.967a20.7 20.7 0 01-3.41-.38 13.293 13.293 0 01-2.613-.313c-.313-.13-.797-.777-1.006-1.012C-3.71.485-4.175-.15-4.854-.946c-.268-.327-.856-.764-.882-1.078-.059-.653.777-1.189 1.013-1.705A2.783 2.783 0 01-2.83-6.89a19.746 19.746 0 001.64-2.143 2.404 2.404 0 012.024-2.469c.654-.464.882-1.306 1.516-1.763 0-1.692.797-2.574 2.142-2.907.405-.275.588-.765.889-1.137-.13-1.522.927-2.848 2.208-2.841.418 0 .986.182 1.515.248 1.391.176 3.227.438 4.488.653 1.6 1.156 2.501 3.018 3.919 4.357 1.96 0 3.92-.124 6.192-.124a9.383 9.383 0 012.143 0c.575.157 1.757 1.92 2.149 2.397.705.869 1.339 1.646 2.084 2.404 2.776 0 5.624.157 8.596.19a12.31 12.31 0 012.397.065c.725.176 1.705 1.744 2.15 2.273.306.366.718.699 1.07 1.136.249.301.843.928.889 1.307.085.738-.803 1.9-1.202 2.613-.96 1.64-1.888 2.972-2.841 4.611-.53.908-.96 2.163-1.77 2.528-6.062-.692-12.307-1.208-18.382-1.894A3679.39 3679.39 0 011.861 30.069c-.36.516-1.013 1.626-1.385 1.704-.372.079-1.274-.385-1.77-.568a30.89 30.89 0 01-4.866-1.96 11.633 11.633 0 01-1.895-1.64c-.464-.424-1.509-1.306-1.515-1.959-.007-.653.503-.731.757-1.202a3.73 3.73 0 012-3.03c.483-.7.992-1.366 1.515-2.019-.17-1.522.973-1.724 1.58-2.462a41.738 41.738 0 00-3.788-3.92c-.353-.352-1.15-1.006-1.137-1.391 0-.536 1.117-1.307 1.261-1.83.19-1.397.719-2.442 1.96-2.782a12.457 12.457 0 011.646-2.397c.176-.7.28-1.444.882-1.894.718-.55 2.09-.38 2.273.503.287 1.39-1.365 3.017-2.907 2.338-.418.379-.601.993-1.006 1.391.235.36.607.451.692.882.275 1.45-1.718 3.403-3.161 2.718a4.05 4.05 0 00-.438.757c1.307.601 2.822.967 4.168 1.516C-.771 9.597 1.613 6.272 4.01 2.967zm2.24-20.465c1.209.13 1.764-.706 1.575-1.77-1.13-.027-1.574.934-1.574 1.77zm-.378.882c-.164.195-.249.47-.445.653 1.006 1.822-.77 4.141-2.717 3.41a7.573 7.573 0 01-.947 1.26C2.965-9.653.398-6.773-.889-8.066c-.294.523-.686.954-1.013 1.45 1.307 1.49-.398 3.92-2.338 3.54-.183.32-.405.602-.568.948 1.776.241 3.52.522 5.225.823-.039-.21.04-.294.066-.444 3.586-4.762 7.074-9.583 10.732-14.28-.94.693-2.45.418-2.528-.692-.078-1.006.797-1.568 1.202-2.273-.457 0-.712-.137-1.143-.13.065 1.835-1.137 2.873-2.9 2.508h.026zm4.043 0a1.53 1.53 0 001.307-1.96c-.948.11-2.045 1.182-1.333 1.96h.026zm2.019-.314c.307-.581.842-.928 1.07-1.58a6.357 6.357 0 00-.816-.066c.203.588-.3 1.241-.28 1.646h.026zm1.96-1.012C9.653-12.287 5.4-6.655 1.004-1.136 2.13-.155 3.043 1.033 4.16 2.02c4.05-5.572 8.407-10.902 12.542-16.422a36.615 36.615 0 00-2.835-3.54h.026zm-10.74 4.487c1.072.144 1.757-.653 1.705-1.835a1.685 1.685 0 00-1.73 1.835h.025zM20.967-7.96c1.444-2.058 2.927-4.063 4.357-6.128a18.779 18.779 0 00-2.528.066 1.305 1.305 0 011.078 1.574c-.268 1.267-3.2 1.594-3.599.379-.32-.973.581-1.561 1.071-2.084h-1.665c.071.307.463.562.502 1.013.15 1.698-3.102 2.41-3.919.947-.424.653-.92 1.221-1.384 1.835a2.037 2.037 0 012.965 1.385c.444-2.149 4.043-1.09 3.096 1.013h.026zm-3.612-4.299c.862.177 1.823-.058 2.019-.757-.386-1.137-2.502-.556-2.019.757zm5.683-.502c-.046-.895-2.306-.582-1.829.568.719.144 1.855.085 1.816-.568h.013zm2.972 1.58c.399 1.614.81 3.469 1.196 4.801.072-.17.181-.322.32-.444-.582-2.097-.817-4.533-1.581-6.44-.562.437-.15 1.273.052 2.083h.013zm1.96 3.6c.653-.654.366-1.418.124-2.529-.294-1.358-.719-2.351-1.457-2.906.516 1.757.823 3.67 1.32 5.434h.013zM25.122-9.98c.346 1.633.83 3.508 1.078 4.99a1.116 1.116 0 00.503-.757c.071-.745-.451-2.097-.693-3.227-.274-1.306-.607-2.613-.823-3.266-.588.444-.268 1.333-.078 2.26h.013zm-1.235-.51c.523 2.293.843 4.802 1.45 7.016.582-.653.275-1.437.066-2.462-.327-1.562-.81-4.057-1.078-5.226-.098.235-.333.36-.438.673zm4.573-.123c.215.457.19 1.156.444 1.58.059-.3.314-.398.379-.699-.275-.222-.653-.98-.823-.882zM-.347-8.72C.561-8.804 1.456-9.836.96-10.68A1.651 1.651 0 00-.347-8.72zM23.47-7.648c.366 1.836.653 3.874 1.137 5.31.405-.535.045-1.195-.066-1.77-.385-1.96-.653-3.919-1.005-5.813 0-.04 0-.072-.066-.059-.673.484-.19 1.405 0 2.332zm-6.571-1.136c.215-1.522-2.894-.928-1.83.568.81.144 1.738.098 1.83-.568zm13.39-.712c-1.652 2.684-3.514 5.16-5.18 7.838 3.463.287 6.807.699 10.302.947 1.613-2.763 3.469-5.624 4.925-8.335-1.306.066-2.338-.176-3.54-.065.855.255 1.81.803 1.522 2.018-.288 1.215-2.9 1.718-4.044 1.013a.784.784 0 01-.19-.248c-.6-1.13.733-2.763 1.64-2.907a25.228 25.228 0 00-2.776-.066 1.574 1.574 0 01.38 2.653c-.85.816-3.202.75-3.476-.314-.36-1.372.856-2.097 1.705-2.463-.483.027-.77-.071-1.267-.071zm-10.105.568c-.3-.993-2.129-.085-1.39 1.012.979.183 1.606-.274 1.39-.993v-.02zm-2.527.444c-.333 1.594-4.174 1.529-3.789-.653-.483.764-1.143 1.345-1.58 2.149 2.612 0 5.44.098 7.772.19.196-.249.569-.654.569-.89-.66.968-3.149.804-2.972-.776v-.02zm5.056 2.652c.32 1.241.404 2.384 1.07 2.842-.404-1.96-.652-4.063-1.201-5.88-.79.745-.19 1.797.13 3.058v-.02zm8.145-1.202c1.084.438 2.554-.163 2.025-1.306-.96-.431-2.227.013-2.025 1.326v-.02zm10.36.823c.366 1.483.653 3.338 1.078 4.612.758-1.11.124-2.136-.255-3.854a12.925 12.925 0 00-.823-3.031c-.601.653-.222 1.359 0 2.293v-.02zm-3.723-1.267c0-.653-1.11-1.02-1.77-.758-.66.261-.654.882-.758 1.516.842.3 2.508.039 2.528-.738v-.02zm5.683 4.174c.58-.608.287-1.208.065-2.15-.287-1.22-.614-2.07-1.26-2.612.443 1.574.711 3.286 1.195 4.782v-.02zM21.32-7.158c.235 1.032.32 2.208 1.137 2.652a22.576 22.576 0 00-.823-3.161c-.093.183-.197.36-.314.529v-.02zm18.636.758c.653 1.927.81 4.37 1.516 6.251.555-.934 0-2.188-.314-3.789a20.098 20.098 0 00-.758-3.22c-.13.274-.333.49-.444.777v-.02zm-18.943.313a.654.654 0 00-.13-.503c-.262.216-.118.36.124.523l.006-.02zm-6.192 1.96c.542.51 1.463 1.679 2.018 1.829.274.033.55.033.823 0 1.868.091 3.821.398 5.879.51a11.756 11.756 0 00-1.646-2.026c-.418-.483-1.17-1.829-1.77-2.018a10.511 10.511 0 00-1.83-.065c-1.828-.098-3.984-.242-5.558-.314.624.765 1.32 1.47 2.077 2.104l.007-.02zm-18.76.19c.862-.255 1.96-1.04 1.45-2.084a1.79 1.79 0 00-1.457 2.103l.006-.02zm15.677-2.084C7.1.563 2.272 6.919-2.372 13.457c1.64 1.392 3.22 2.842 4.99 4.102 4.397-6.473 8.97-12.763 13.457-19.139-1.457-1.463-2.855-2.998-4.357-4.422l.02-.02zm32.281 1.306c.059-.196.21-.294.255-.503-.229-.176-.405-.732-.653-.699.19.379.17.921.379 1.241l.02-.039zm-4.455 1.176c.34 1.568.693 3.481 1.072 4.866.555-.705.156-1.306-.06-2.273-.339-1.502-.652-3.867-1.012-4.932-.503.614-.19 1.405 0 2.339zm-1.26-.38a48.073 48.073 0 011.45 6.638c.228-.072.248-.347.379-.51-.477-2.26-.745-4.73-1.392-6.82a1.85 1.85 0 01-.424.693h-.013zM38.049-1.2c.117.536.274 1.11.379 1.581.268 1.209.307 2.423.882 3.096a90.357 90.357 0 00-1.307-6.826c-.535.536-.144 1.248.059 2.15h-.013zm-1.097-.379c.137 1.187.413 2.353.823 3.476.091.182.359.49.503.378-.34-1.489-.569-3.102-1.013-4.487-.04.202-.313.36-.313.633zm-15.92 3.41c5.716.373 11.256.915 16.801 1.457a8.307 8.307 0 00-1.26-1.457C36.155 1.373 35.71.524 35.18.315a11.628 11.628 0 00-2.208-.19C28.225-.332 21.7-1.115 17.616-1.39c1.196.993 2.24 2.155 3.39 3.22h.027zM-3.135-.254c-.033-.287-.118-.516-.13-.823-.17-.085-.654-.215-.758-.124.243.345.523.663.836.947h.052zm.882.948a8.903 8.903 0 00-.255-1.705h-.248c.064.587.216 1.162.45 1.705h.053zM16.69-1.011c-2.195 3.377-4.573 6.59-6.754 9.98 1.15.994 2.207 2.091 3.41 3.032 2.233-3.22 4.52-6.382 6.819-9.537-1.09-1.274-2.378-2.3-3.52-3.469l.045-.006zm19.27.947c.424.229.698.94 1.077 1.012-.26-.561-.267-1.378-.51-1.96a8.914 8.914 0 01-.613.948h.046zM-1.882-.717c.15.75 0 1.96.503 2.273.203-.77-.196-1.483-.124-2.332a2.208 2.208 0 00-.444-.13.294.294 0 00.02.208l.045-.02zm.882.19c.037.403.1.805.19 1.201.045.34-.112.973.32.947A6.206 6.206 0 00-.81-.717H-1v.19zM.372 1.764C.496 1.112.169.419.248-.378.11-.43.032-.54-.197-.508 0 .217-.249 1.412.372 1.765zm.51-.693c.045.294 0 .81.378.758-.072-.562 0-1.835-.51-2.149.001.466.036.93.105 1.391h.026zm.946.824c.307 0 .81.195 1.072.058-.412-.385-.752-.849-1.202-1.195.013.38.048.76.104 1.137h.026zm-4.742 3.03a1.306 1.306 0 001.306-1.58 1.346 1.346 0 00-1.332 1.58h.026zm-3.534 4.991a2.136 2.136 0 001.705-1.894 1.515 1.515 0 00-1.731 1.894h.026zM9.34 9.603C5.205 15.653.933 21.57-3.228 27.606c1.255.914 2.41 1.96 3.73 2.776C4.56 24.503 8.72 18.683 12.757 12.745a39.059 39.059 0 00-3.443-3.142h.026zm-15.285 3.724a1.143 1.143 0 00-.124-.653c-.294.039-.549-.288-.758-.125.281.262.562.53.856.778h.026zm.882.823a9.625 9.625 0 00-.19-1.202h-.189c.02.49-.006 1.071.353 1.202h.026zm.862.823c-.163-.51-.137-1.215-.255-1.77a.312.312 0 01-.248-.066c.144.634-.026 1.581.503 1.836zm.882.816c-.307-.653 0-1.96-.568-2.397.091.856.11 2.123.568 2.397zm.888.575c-.13-.908 0-2.084-.653-2.469.19.85 0 2.084.653 2.47zm.843.268c0-.732.065-1.58-.438-1.829.138.575-.13 1.594.438 1.829zm.568.19a.331.331 0 01.255.065c.118-.216 0-.654.124-.889-.176-.032-.346-.398-.503-.248.057.348.09.7.098 1.052l.026.02zm1.77.444c-.32-.268-.594-.582-.947-.823v.653c.294-.02.712.228.921.15l.026.02zm-3.41.065c1.36 1.032-.79 4.16-2.338 3.03-.228.419-.653.654-.823 1.137 1.307 1.183-.398 3.554-1.829 3.73-.43.046-.842-.366-.947.314 1.535.49 2.887 1.156 4.488 1.58a732.578 732.578 0 006.061-8.654c-1.58-.347-3.142-.987-4.637-1.183l.026.046zm-1.704 2.463c.83-.164 1.15-.83 1.26-1.705a1.267 1.267 0 00-1.286 1.685l.026.02zm-3.54 4.572c.986-.216 1.437-.96 1.646-1.96-1.17-.02-1.633 1-1.673 1.914l.026.046zm1.201 3.03c0-.117.072-.136.066-.247a3.464 3.464 0 01-.654-.255c.072.235.327.34.562.457l.026.046zm.693.57v-.57h-.216c.066.184-.098.563.19.523l.026.046zm.568.509c-.085-.288.261-.712-.059-.823.046.26-.261.64.033.777l.026.046zm.444.503c.222-.111.373-.915.124-1.072-.039.334-.156.621-.15 1.026l.026.046zm.758.254c.157-.248.104-.698.19-1.012-.079 0-.086-.078-.19-.065.04.3-.353.83-.026 1.032l.026.045zm.823.314c.067-.353.089-.713.065-1.071-.124 0-.143-.072-.254-.066.058.386-.34 1.013.163 1.091l.026.046zm.503.19c.19 0 .196.143.379.123.059-.45.11-.796-.314-.881.026.274-.117.411-.091.718l.026.04zm1.012.313c-.039-.124.105-.438-.124-.379.013.085-.13.398.098.333l.026.046zm32.889 8.231a36.35 36.35 0 01-3.665-2.463 40.247 40.247 0 01-1.77-1.26c-.425-.327-1.483-.98-1.515-1.516-.033-.535.83-1.58 1.156-2.038 1.306-1.875 2.613-3.638 3.788-5.559-1.96-1.822-6.14-1.62-6.316-5.114a4.743 4.743 0 017.773-3.854c1.215.973 1.405 2.201 2.776 3.096.889-1.078 1.868-2.142 2.783-3.35.914-1.21 1.613-2.614 2.613-3.541.47-.451 1.79.653 2.273 1.012 1.202.856 2.253 1.633 3.606 2.613.418.3 1.659 1.065 1.705 1.391.045.327-.51.83-.758 1.196a6.702 6.702 0 00-1.307 4.422c.085.94.654 2.116 1.705 2.28 1.307.202 2.665-.797 3.345-1.392.467-.456.904-.942 1.306-1.456.412-.49.817-1.261 1.457-1.261.64 0 1.541.888 2.084 1.26l3.978 2.718c.503.34 1.73.856 1.77 1.58 0 .517-.569 1.137-.947 1.706-.38.568-.804 1.15-1.072 1.58-.588.941-1.698 2.313-1.515 3.724.215 1.718 3.011 2.502 4.167 3.795 2.391 2.665.072 6.59-2.612 7.14-2.515.509-3.54-1.529-5.226-2.339-2.953-1.41-4.52.77-5.879 2.717a16.02 16.02 0 00-1.012 1.575c-.23.424-.654 1.24-1.261 1.267-.608.026-1.594-.96-2.084-1.307-1.306-.986-2.43-1.913-3.854-2.972-.568-.418-1.75-.953-1.835-1.58-.085-.628.542-.974.888-1.45.346-.477.725-1.02.947-1.392.49-.823 1.306-2.208.947-3.534-.346-1.221-2.208-1.855-3.788-1.391a6.205 6.205 0 00-2.567 1.646c-.693.653-1.078 1.476-2.084 2.051zm8.021-24.913c-1.17 1.633-2.534 3.58-3.854 5.369-.366.496-1.006 1.483-1.45 1.58a1.887 1.887 0 01-1.58-.568c-.654-.555-1.412-1.914-2.084-2.462-1.529-1.254-4.396-1.26-5.56.313a4.002 4.002 0 00-.822 3.031c.307 1.64 2.54 2.273 4.043 2.907.712.3 2.084.803 2.15 1.58.045.615-.752 1.549-1.079 2.085-1.306 2.181-2.56 3.808-3.723 5.937 1.894 1.516 4.096 2.724 6.062 4.168 1.306-2.156 4.808-5.226 8.021-3.22a3.312 3.312 0 011.137 3.788c-.503 1.724-1.75 3.162-2.71 4.422 2.272 1.6 4.506 3.266 6.819 4.801 1.47-2.24 2.58-4.873 5.055-5.748 1.81-.653 3.626.386 4.67 1.137.948.653 1.823 1.705 3.162 1.58 2.241-.209 4.155-3.56 2.404-5.558-1.404-1.594-5.18-2.267-4.363-5.435.6-2.312 2.456-3.92 3.54-5.938-2.364-1.554-4.572-3.266-6.885-4.86-1.306 1.627-2.808 3.92-5.369 4.233a3.086 3.086 0 01-2.338-.653c-2.065-1.836-.732-6.382.816-7.963-2.064-1.424-4.017-3.011-6.062-4.526zM20.372 23.564c1.96-.307 1.457 2.901-.255 2.339-1.084-.36-.895-2.156.255-2.34zm-.124 1.137c0 .215.13.36.379.444.784-.457-.346-1.261-.379-.444zm4.547 12.508c1.463-.288 1.307 1.666.313 1.77-.993.105-1.529-1.535-.313-1.77z"/><path d="M80.95 94.589c-8.902.039-17.584-.15-26.278-.314-1.45 4.39-4.977 8.126-11.104 7.767a9.091 9.091 0 01-8.152-5.748 9.002 9.002 0 00-.438-1.516c-.21-.366-.732-.653-1.078-.947a12.315 12.315 0 01-2.528-3.35c-1.796-3.071-3.181-8.12-1.829-12.823a15.15 15.15 0 011.894-4.044c.275-.405.438-.947.693-1.26a14.003 14.003 0 011.646-1.307 15.944 15.944 0 015.938-2.848c3.187-.817 7.107-.477 11.104-.379 3.162-8.779 9.348-14.442 19.492-16.252A27.001 27.001 0 0175.046 51c2.598.044 5.15.693 7.453 1.894a29.736 29.736 0 015.624 3.665c3.469 2.887 5.134 7.264 6.532 12.065 4.455 2.325 8.597 5.343 10.236 10.68 1.96 6.297-.568 12.41-4.357 15.095-.405 2.835-2.371 4.645-4.298 6.062a9.99 9.99 0 01-6.447 1.77 9.142 9.142 0 01-5.683-2.527 9.909 9.909 0 01-3.155-5.115zm23.569-9.602c.522-7.872-4.115-11.87-8.845-14.593-.653-.392-1.737-.758-2.025-1.307a10.897 10.897 0 01-.379-1.705c-1.26-4.383-3.566-8.491-6.884-10.869-3.208-2.28-7.996-4.755-13.646-4.233-10.451.974-16.703 6.12-20.152 13.9-.502 1.124-.79 2.49-1.39 3.541-1.307 2.267-4.658 3.09-7.84 3.41a84.42 84.42 0 01-10.738.379c-1.96 2.554-3.064 6.493-2.463 10.739a16.07 16.07 0 003.723 8.145c.21.242.451.686.823.653 0-3.266.876-5.578 2.463-7.388a9.667 9.667 0 016.447-3.416 8.492 8.492 0 014.168.758c3.867 1.705 6.532 5.284 6.885 10.366h1.829c.072-6.604.32-13.37.444-19.838a19.737 19.737 0 01.758-6.003c1.13-3.266 3.73-5.382 6.447-7.074a29.237 29.237 0 014.422-2.338c1.75-.79 3.64-1.219 5.559-1.261 4.572.065 8.282 2.534 10.739 4.8 2.149 1.96 3.847 3.92 4.48 7.186a13.382 13.382 0 010 3.54c-.136 3.267.432 6.578.255 10.295 6.702.222 10.929 3.73 10.994 10.55a12.573 12.573 0 003.926-8.237zM73.053 59.4c.472-.495.909-1.024 1.307-1.58-.83.078-1.528.646-1.306 1.58zm-2.338-1.071a26.455 26.455 0 00-8.244 4.481c-2.475 1.96-4.46 4.514-4.611 8.218 4.71.13 9.347 0 14.148.058-.039-4.396.183-8.87.19-13.012a7.847 7.847 0 00-1.483.255zm4.742-.13c.111 4.226.144 8.53.125 12.887 4.213.249 8.844.092 13.142.255.111-3.965-1.992-6.748-4.298-8.844-2.306-2.097-5.389-4.077-8.903-4.488-.079.013-.072.105-.066.19zm-2.462 2.906c.496-.653 1.927-1.306 1.64-2.776-.471 1.006-1.712 1.202-1.64 2.776zm.058 1.836c.445-1.013 1.901-1.346 1.581-2.907-.405 1.038-1.907 1.333-1.58 2.926v-.02zm0 1.705c.517-.915 1.921-1.307 1.581-2.842-.477.954-1.816 1.378-1.58 2.842zm.066 1.58c.424-.862 1.724-1.182 1.45-2.528-.51.732-1.914 1.62-1.45 2.528zm-.124 1.705c.614-.751 1.887-1.182 1.574-2.652-.483.902-1.698 1.34-1.574 2.652zm.058 1.64a15.04 15.04 0 011.581-1.64c-.039-.274.085-.718-.065-.888-.431.875-1.77 1.176-1.516 2.528zm-39.48 2.972c1.457.385 1.522-1.006 2.613-1.202 0 .091.105.105.13.19 0 .502-1.012.705-.822 1.012 1.051.085 1.234-1.306 2.084-1.013-.04.53-.516.621-.758.948 1.404.202 1.424-.974 2.404-1.202 0 .091.098.11.124.19-.092.502-.595.587-.823.946h.699c.653-.313 1.162-1.659 1.96-1.195-.157.457-1.078.81-.948 1.136 1.385.144 1.555-1.548 2.528-1.39.216.587-.986.933-.823 1.26 1.398.13 1.529-1.666 2.659-1.385-.183.575-.745.77-1.078 1.195 1.855.216 1.9-1.691 3.22-1.704 0 .764-1.176 1.006-1.071 1.456.444-.222.836-.085 1.202-.255.653-.3.816-1.306 1.58-1.201.17.45-.529.653-.254.757 1.156-.548 2.293-1.117 2.613-2.528-7.212-.326-13.894.281-17.239 3.985zm39.422-1.894c.457-.431 1.796-.856 1.574-1.96-.49.686-1.306 1.045-1.574 1.96zm.379.503h1.26c-.039-.36.085-.882-.065-1.137-.34.45-.856.699-1.195 1.137zm-15.677.881c.052 7.238-.079 14.28-.19 21.354 7.839.065 15.599.196 23.248.444-.483-6.362 3.266-9.537 7.897-11.183-.098-3.377-.052-6.891-.065-10.36-10.308-.11-20.642-.202-30.825-.444-.066.013-.066.105-.059.19h-.007zM40.386 84.23a9.537 9.537 0 00-4.86 8.087 8.883 8.883 0 001.306 4.866c1.842 2.907 6.532 4.932 10.863 3.41a11.322 11.322 0 004.99-4.109 6.395 6.395 0 00.889-3.978 12.875 12.875 0 00-2.783-6.316c-1.41-1.431-4.194-3.234-7.264-2.907a7.695 7.695 0 00-3.135.947h-.007zm45.49.653a9.392 9.392 0 00-2.215 2.018 10.105 10.105 0 00-2.019 5.494c0 4.977 4.39 8.988 8.904 8.91a9.478 9.478 0 005.055-1.581c1.49-1.065 3.031-2.698 3.6-4.233a9.89 9.89 0 000-5.617 8.322 8.322 0 00-3.475-4.573 10.308 10.308 0 00-6.317-1.77 7.578 7.578 0 00-3.527 1.332l-.007.02z"/></g></svg>