<svg width="108" height="101" viewBox="0 0 108 101" fill="none" xmlns="http://www.w3.org/2000/svg">
<g opacity="0.4">
<path fill-rule="evenodd" clip-rule="evenodd" d="M91.3556 18.9661C90.1756 20.4061 87.6956 23.1661 84.3556 23.2161C82.0756 23.2161 79.6456 21.9261 80.2956 19.1561C80.5976 18.3847 81.0194 17.6659 81.5456 17.0261C75.8156 14.7361 73.0456 9.4161 70.0456 4.0261C69.6556 3.3361 68.7556 2.30609 69.1756 1.60609C69.5956 0.90609 72.1756 1.6961 73.1756 1.8961C77.2956 2.7861 82.1056 3.16611 85.0756 5.09611C85.1456 3.23611 85.8056 1.84609 87.0756 1.41609C90.4656 0.306088 92.5756 4.35609 93.2656 6.63609C93.7656 3.79609 97.7956 -1.2639 100.906 1.8961C103.186 4.2261 101.696 9.1761 99.9056 11.0861C102.976 10.6161 105.576 11.5661 106.906 13.0261C107.211 13.3596 107.433 13.7616 107.551 14.1984C107.669 14.6351 107.681 15.0938 107.586 15.5361C107.026 18.3261 102.086 19.4261 98.4956 18.3361C100.696 20.5061 101.406 27.4161 96.4956 26.9461C92.9656 26.6561 91.7256 22.5561 91.3556 18.9661ZM100.546 4.74611C100.414 4.13332 100.184 3.54576 99.8656 3.00608C96.6356 1.16608 94.1856 6.48609 93.9656 9.57609C94.0256 10.415 94.0256 11.2572 93.9656 12.0961C94.2256 12.5761 94.7656 12.7761 94.9656 13.3561C97.4456 11.7261 101.136 9.17611 100.546 4.74611ZM89.5456 3.29609C89.27 3.09393 88.9537 2.9543 88.6186 2.88694C88.2836 2.81959 87.9379 2.82614 87.6056 2.90611C84.9356 4.17611 87.4956 9.41608 88.8656 11.0361C89.5676 11.7314 90.3458 12.3453 91.1855 12.8661C91.5673 12.4493 92.0257 12.1098 92.5356 11.8661C92.5556 8.5361 91.5856 4.68609 89.5256 3.29609H89.5456ZM82.5456 16.0561C83.7933 14.9731 85.2865 14.211 86.8956 13.8361C83.7102 12.6521 80.6624 11.1265 77.8056 9.28608C76.8328 8.75425 76.0053 7.99202 75.3956 7.06611C76.0956 5.95611 77.8856 7.86609 78.7756 8.41609C81.783 10.3274 85.0834 11.7327 88.5456 12.5761C87.2043 11.1213 86.1522 9.42439 85.4455 7.57609C82.5455 4.35609 76.0256 4.23609 71.2356 3.22609C74.3256 8.17609 76.5956 13.9661 82.5556 16.0561H82.5456ZM102.276 17.3161C103.736 17.1761 106.276 16.4061 106.146 14.8061C106.016 13.2061 102.926 12.2061 100.726 12.3861C99.3017 12.4563 97.9426 13.0021 96.8656 13.9361C96.2285 14.3167 95.6141 14.7341 95.0256 15.1861C97.1226 16.7221 99.6911 17.4757 102.286 17.3161H102.276ZM93.0856 15.3861C94.1756 15.2361 94.1456 13.0761 92.7056 13.4461C92.4796 13.5271 92.2902 13.6866 92.1722 13.8957C92.0541 14.1047 92.0152 14.3492 92.0625 14.5846C92.1098 14.8199 92.2402 15.0304 92.4299 15.1776C92.6195 15.3247 92.8558 15.3987 93.0956 15.3861H93.0856ZM83.0856 17.5061C82.2979 18.1976 81.8131 19.1708 81.7356 20.2161C81.8856 21.4961 83.6356 21.9161 85.0256 21.7661C88.1256 21.4261 90.3756 18.3561 91.4056 16.1561C91.1172 15.6433 90.7825 15.1579 90.4056 14.7061C87.8156 14.8761 84.8455 15.8061 83.1355 17.5061H83.0856ZM96.2456 25.4461C98.1856 25.8161 98.8356 24.3261 98.8556 22.9261C98.8556 19.9961 95.9756 17.3361 93.9156 16.4461C93.6756 16.3361 93.3756 16.6961 93.1456 16.5461C92.3756 19.8161 93.5356 24.9161 96.2956 25.4461H96.2456Z" fill="white"/>
<path fill-rule="evenodd" clip-rule="evenodd" d="M63.6068 3.00612C62.4568 1.00612 66.0168 2.60612 63.6068 3.00612V3.00612Z" fill="white"/>
<path fill-rule="evenodd" clip-rule="evenodd" d="M43.2987 3.7757C43.3787 4.4957 43.1587 4.93571 42.4287 4.84571C42.4042 4.77929 42.3655 4.71895 42.3155 4.66889C42.2654 4.61882 42.2051 4.58021 42.1386 4.5557C42.0086 3.6957 42.8387 3.2257 43.2987 3.7757Z" fill="white"/>
<path fill-rule="evenodd" clip-rule="evenodd" d="M26.0737 4.17704C26.1647 4.10644 26.2736 4.06257 26.3881 4.05037C26.5026 4.03816 26.6182 4.05811 26.7221 4.10795C26.8259 4.15779 26.9138 4.23554 26.9759 4.33253C27.038 4.42952 27.0719 4.5419 27.0737 4.65705C27.0637 5.96705 25.0037 4.80704 26.0737 4.17704Z" fill="white"/>
<path fill-rule="evenodd" clip-rule="evenodd" d="M79.2164 46.6259C80.2864 47.1259 81.7665 47.2259 82.4965 48.0759C83.0965 55.8159 82.8864 63.3959 83.2764 71.6659C83.4407 72.7882 83.4742 73.9258 83.3764 75.0559C83.0964 76.1259 79.9464 78.0559 79.0164 78.8259C75.0864 82.0859 71.8764 84.5659 67.7964 87.8259C67.2264 88.2859 66.1664 89.5059 65.5764 89.5759C64.9767 89.4475 64.3932 89.253 63.8364 88.9959C59.7364 87.6459 55.5265 85.5859 51.7465 83.9959C48.2865 82.5059 44.9265 80.9959 41.4965 79.4459C40.3965 78.9659 39.1565 78.6759 38.4965 77.6059C38.7365 68.0159 38.9765 58.4259 39.5565 49.1759C40.2665 48.2259 41.5564 47.9259 42.6564 47.4359C43.7491 46.9022 44.8786 46.4477 46.0364 46.0759C45.4809 45.3503 44.832 44.7014 44.1064 44.1459C42.0564 42.3859 39.7364 40.5059 37.8164 38.5359C37.8664 32.5959 38.2665 25.7059 38.3065 19.3859C38.1919 17.3435 38.3534 15.2951 38.7864 13.2959C44.4364 11.6759 50.3164 10.6359 56.2964 9.29588C57.1211 9.05369 57.9592 8.86004 58.8065 8.7159C60.1765 8.6059 62.8664 10.3559 64.0264 10.9459C69.0264 13.4459 74.2164 16.0659 78.7264 18.5859C79.1564 27.6159 79.1264 37.1759 79.2164 46.6259ZM58.6165 9.9659C58.5165 9.9159 58.3264 10.0459 58.2264 10.0659C52.8864 11.2359 46.8764 12.9559 41.0164 14.1259C44.2464 16.6359 47.6464 18.9859 51.0164 21.4759C51.9564 22.1559 53.5564 23.7159 54.5064 23.7959C55.3984 23.6642 56.2736 23.4362 57.1165 23.1159L75.6864 18.2859C70.0264 15.4959 64.1264 12.8459 58.5764 9.9659H58.6165ZM39.6165 14.6059C39.6165 14.5059 39.4964 14.5359 39.5164 14.7059C39.5164 22.7059 39.5164 30.6259 39.3264 38.3959C43.4464 41.8859 47.9964 45.6059 52.0964 49.0359C52.3064 49.2159 52.5165 49.6659 52.8665 49.5259C52.9265 41.2659 53.1664 33.1859 53.4464 25.1559C48.8764 21.5959 44.1465 18.1759 39.6165 14.6059ZM77.4364 19.4459C70.9364 21.1859 63.7364 22.8259 57.1264 24.3759C56.3164 24.5659 54.7364 24.6059 54.6064 25.5359C55.4464 25.6859 57.1665 24.4859 57.9965 25.2459C57.8865 25.9259 56.9964 25.7959 56.4464 25.9259C55.8623 26.168 55.2385 26.3002 54.6064 26.3159V27.4759C55.6564 27.5359 57.2364 26.4759 57.7964 27.2759C57.2064 28.0759 55.7364 27.9959 54.6064 28.2759C54.6664 28.6659 54.4864 29.2759 54.7064 29.5359C55.6164 29.3859 56.9864 28.7459 57.7964 29.1459C57.4564 30.2559 55.6364 29.8859 54.6064 30.3059V31.3659C55.7364 31.4959 57.0464 30.4859 57.7964 31.1759C57.3164 32.1159 55.6464 31.8659 54.6064 32.2359C54.6664 32.5959 54.4864 33.2359 54.7064 33.4059C55.5464 33.3159 57.2264 32.4059 57.7064 33.2059C57.1364 34.0259 55.5464 33.8259 54.5164 34.2059C54.5764 34.7559 54.3864 35.5559 54.6064 35.9459C55.3964 35.8059 57.1264 34.9459 57.7064 35.8459C56.9964 36.4959 55.4964 36.3459 54.5164 36.7159V38.3659C55.5164 38.4159 56.9564 37.5159 57.7064 38.2659C57.1964 39.1459 55.4264 38.7659 54.5164 39.2659V40.7159C55.5164 40.7159 57.0264 39.8059 57.7964 40.5259C57.2464 41.3859 55.6064 41.1659 54.5164 41.5259C54.5864 42.1859 54.3764 42.5259 54.4164 43.1759C55.7164 43.3359 57.5664 42.3459 58.1864 43.0759C57.6164 44.0759 55.5864 43.6359 54.4164 44.0759C54.4764 44.6559 54.2864 45.4859 54.5164 45.9059C55.5164 45.7459 57.5164 44.9059 58.3764 45.6159C58.1864 46.2759 57.1964 46.1859 56.5464 46.2959L54.4164 46.6859C54.436 47.3309 54.4025 47.9764 54.3164 48.6159C55.4164 48.7259 57.6764 47.5259 58.1864 48.6159C57.1864 49.2059 55.6464 49.1759 54.3164 49.3959V50.9359C62.0664 49.4959 69.8464 48.0859 77.7264 46.7859C77.5664 37.8459 77.6464 28.6759 77.6264 19.6059L77.4364 19.4459ZM73.6564 48.8459C68.1764 49.7459 62.5465 50.6659 56.9265 51.5559C55.7912 51.8614 54.622 52.0226 53.4464 52.0359C52.6264 51.8759 51.4464 50.5359 50.3564 49.6159C49.4364 48.8359 47.7465 46.8259 46.8665 47.1059C45.187 47.6529 43.5408 48.2973 41.9364 49.0359C49.3664 51.9859 56.8564 54.8759 64.0864 58.0359C69.3164 54.6259 74.9464 51.6159 80.0864 48.1659C78.0164 47.7459 75.8364 48.4859 73.6564 48.8459ZM69.2164 56.5859C68.4964 57.0159 65.5764 58.5359 65.3464 59.1959C65.2356 60.3552 65.2658 61.5238 65.4364 62.6759C65.7464 70.9559 65.7264 79.2159 65.8264 87.3359C70.3564 83.9459 75.1464 80.2659 79.9464 76.6059C80.5464 76.1459 81.7564 75.2659 81.8764 74.8659C81.9251 74.198 81.8949 73.5267 81.7864 72.8659C81.4964 65.6759 81.5764 56.0659 81.2964 48.9859C77.5264 51.3859 73.3764 54.0359 69.2164 56.5859ZM40.6864 50.1759C40.5664 50.1759 40.5764 50.3359 40.5864 50.4659C40.4164 59.3859 40.2764 68.3459 39.9064 77.0659C48.1064 80.6526 56.2631 84.2959 64.3764 87.9959C64.2164 78.5159 64.1364 68.9959 64.1864 59.2659C56.3264 56.2859 48.4764 53.2759 40.6864 50.1759Z" fill="white"/>
<path fill-rule="evenodd" clip-rule="evenodd" d="M32.8489 15.285C32.8489 16.005 32.6689 16.4651 31.8489 16.3451C31.2189 15.6651 32.2189 14.435 32.8489 15.285Z" fill="white"/>
<path fill-rule="evenodd" clip-rule="evenodd" d="M26.2165 18.4754C26.4797 18.3774 26.7628 18.3453 27.0413 18.3819C27.3197 18.4185 27.5849 18.5228 27.8138 18.6855C28.0426 18.8483 28.2281 19.0646 28.3541 19.3156C28.4801 19.5666 28.5427 19.8446 28.5365 20.1254C28.6665 22.6154 24.9965 22.9454 24.6665 20.7954C24.6022 20.5404 24.592 20.2748 24.6368 20.0157C24.6815 19.7566 24.7801 19.5097 24.9261 19.2911C25.0722 19.0725 25.2625 18.8869 25.4848 18.7464C25.7071 18.6059 25.9563 18.5136 26.2165 18.4754ZM25.9265 20.7954C26.7065 21.5054 27.7765 20.3354 26.9865 19.7354C26.0665 19.5654 26.0765 20.2754 25.8865 20.7954H25.9265Z" fill="white"/>
<path fill-rule="evenodd" clip-rule="evenodd" d="M-8.25391 64.606C-8.07391 56.606 -7.96392 47.756 -7.58392 39.656C-0.373923 37.046 7.82609 34.226 15.2461 32.116C16.4861 31.756 19.0461 33.536 20.2461 34.116C23.1461 35.546 26.1061 37.196 29.1461 38.756C30.3161 39.356 32.9861 40.336 33.3961 41.176C33.9661 42.346 33.686 46.076 33.686 47.846C33.686 53.846 33.886 58.706 33.886 64.846C33.9874 65.9426 33.9539 67.0475 33.7861 68.136C33.5261 68.776 31.896 69.416 31.076 69.786C24.896 72.526 19.1461 74.936 12.8961 77.616C12.0061 77.996 10.5861 78.826 9.79608 78.776C8.69608 78.706 5.98609 76.096 5.05609 75.396C0.476091 71.896 -4.00391 68.316 -8.25391 64.606ZM15.3461 33.376C8.78607 35.516 1.68607 37.956 -4.96393 40.376C-0.143929 43.056 4.43609 45.996 9.24609 48.696C16.2994 46.0293 23.4894 43.5127 30.816 41.146C25.856 38.336 20.4061 36.046 15.3461 33.376ZM-6.65393 64.026C-1.82393 68.026 3.41608 72.266 8.23608 76.216C8.49608 76.426 8.68608 76.906 9.10608 76.796C9.05608 67.956 8.82608 59.286 8.91608 50.296C3.71608 47.216 -1.23393 43.876 -6.46393 40.816C-6.44393 48.686 -6.60392 56.326 -6.70392 64.026H-6.65393ZM32.2161 42.176C24.9561 44.736 17.476 47.086 10.076 49.526C10.296 58.646 10.5461 67.746 10.6561 76.986C17.9161 73.986 25.0261 70.866 32.4161 67.986C32.4161 59.306 32.416 50.746 32.506 42.166C32.416 42.006 32.3361 42.176 32.2161 42.176Z" fill="white"/>
<path fill-rule="evenodd" clip-rule="evenodd" d="M90.2182 42.6551C88.9582 40.3251 92.7382 42.2651 90.2182 42.6551V42.6551Z" fill="white"/>
<path fill-rule="evenodd" clip-rule="evenodd" d="M16.3035 48.846C16.0635 49.756 14.7234 49.786 13.8934 50.106C13.0634 50.426 12.0634 51.106 11.2734 50.776C11.2734 49.966 12.5034 49.776 13.2734 49.526C14.3234 49.176 15.3835 48.536 16.3035 48.846Z" fill="white"/>
<path fill-rule="evenodd" clip-rule="evenodd" d="M16.3051 50.6867C16.0651 51.4667 14.775 51.6267 13.895 51.9367C13.015 52.2467 11.895 52.9367 11.375 52.2267C12.0463 51.6628 12.8412 51.2654 13.695 51.0667C14.495 50.8067 15.5651 50.3567 16.3051 50.6867Z" fill="white"/>
<path fill-rule="evenodd" clip-rule="evenodd" d="M96.6762 50.7753C96.9597 50.6988 97.2569 50.6883 97.5451 50.7447C97.8332 50.8011 98.1046 50.9229 98.3383 51.1006C98.5721 51.2783 98.762 51.5073 98.8933 51.7699C99.0247 52.0324 99.0941 52.3216 99.0962 52.6153C99.3562 55.9153 93.6862 55.5252 95.0362 52.1352C95.172 51.7882 95.3938 51.4814 95.6806 51.2435C95.9675 51.0056 96.3101 50.8445 96.6762 50.7753ZM97.7462 53.2952C98.4562 51.8752 96.0062 51.5252 96.0962 53.4852C96.2168 53.5817 96.3552 53.6533 96.5036 53.6959C96.652 53.7386 96.8074 53.7515 96.9608 53.7338C97.1142 53.7161 97.2625 53.6683 97.3973 53.593C97.5321 53.5178 97.6507 53.4166 97.7462 53.2952Z" fill="white"/>
<path fill-rule="evenodd" clip-rule="evenodd" d="M16.1165 52.8052C15.9265 53.4752 14.7264 53.8053 13.8964 54.0653C13.0664 54.3253 11.8964 55.0652 11.5664 54.1652C12.1523 53.7553 12.8106 53.4601 13.5064 53.2952C14.4564 52.9652 15.4965 52.3252 16.1165 52.8052Z" fill="white"/>
<path fill-rule="evenodd" clip-rule="evenodd" d="M16.5054 54.745C16.5054 55.425 15.2254 55.745 14.3754 56.095C13.5254 56.445 12.3055 57.035 11.8555 56.385C12.0655 55.705 13.1055 55.695 13.8555 55.385C14.8355 55.085 15.7154 54.385 16.5054 54.745Z" fill="white"/>
<path fill-rule="evenodd" clip-rule="evenodd" d="M75.4078 54.6461C74.9709 55.7114 74.3092 56.6699 73.4678 57.4561C71.5878 59.5961 69.8378 61.9261 67.9578 64.2261C67.6478 64.6061 67.1178 65.3061 66.5078 64.9961C66.6078 63.9161 67.5679 63.0761 68.2479 62.2861C70.3979 59.7961 72.6078 57.0661 74.8278 54.5561C75.0256 54.5125 75.2326 54.5446 75.4078 54.6461Z" fill="white"/>
<path fill-rule="evenodd" clip-rule="evenodd" d="M16.7932 56.8763C16.3232 57.5763 15.2831 57.6963 14.4731 58.0363C13.6631 58.3763 12.8431 58.9463 11.9531 58.7063C12.0231 57.7063 13.2631 57.7063 13.9531 57.4563C14.6431 57.2063 15.5631 56.7663 16.2731 56.4563C16.3969 56.4475 16.5193 56.4859 16.6158 56.5639C16.7124 56.6418 16.7757 56.7535 16.7932 56.8763Z" fill="white"/>
<path fill-rule="evenodd" clip-rule="evenodd" d="M71.5372 56.7759C71.2772 57.7759 70.2172 58.6159 69.5372 59.4859C68.8572 60.3559 68.2472 61.7659 67.1172 61.4159C67.5603 60.493 68.1863 59.6697 68.9572 58.9959C69.6294 58.1327 70.3719 57.3266 71.1772 56.5859C71.2872 56.6359 71.3872 56.7259 71.5372 56.7759Z" fill="white"/>
<path fill-rule="evenodd" clip-rule="evenodd" d="M75.2146 58.0365C74.4131 59.4762 73.4755 60.8358 72.4146 62.0965C71.9446 62.7065 71.4146 63.3965 70.9646 64.0265C70.5146 64.6565 69.9646 65.5865 69.1246 65.3865C68.9846 64.5565 69.8446 64.0065 70.2846 63.4465C71.6546 61.7065 73.0946 59.7765 74.5346 58.0365C74.5346 57.9265 74.7346 57.9665 74.7346 57.8365C75.0346 57.7565 75.0246 57.9965 75.2146 58.0365Z" fill="white"/>
<path fill-rule="evenodd" clip-rule="evenodd" d="M16.7985 58.7046C16.6085 59.5346 15.3684 59.6346 14.5684 59.9646C13.7684 60.2946 12.7884 61.1046 12.1484 60.4546C12.2684 59.7446 13.3184 59.6845 14.0884 59.3845C15.0384 59.0145 15.9485 58.3346 16.7985 58.7046Z" fill="white"/>
<path fill-rule="evenodd" clip-rule="evenodd" d="M17.5631 60.6455C17.1531 61.3955 15.8331 61.7255 14.8531 62.0955C13.8731 62.4655 12.6331 63.0955 11.9531 62.4855C12.4031 61.7155 13.5331 61.7255 14.3731 61.4155C15.2131 61.1055 16.2331 60.6955 17.0831 60.3555C17.2531 60.3555 17.2831 60.4755 17.4631 60.4555C17.4531 60.5655 17.4931 60.6255 17.5631 60.6455Z" fill="white"/>
<path fill-rule="evenodd" clip-rule="evenodd" d="M75.6955 60.5458C75.3557 61.4826 74.8283 62.3401 74.1455 63.0658C73.6055 63.7758 73.0355 64.8758 72.1455 64.8958C71.9755 63.9858 72.9055 63.3958 73.3955 62.7758C73.9955 62.0058 74.5355 61.1958 75.1455 60.4558C75.3337 60.4198 75.5286 60.4517 75.6955 60.5458Z" fill="white"/>
<path fill-rule="evenodd" clip-rule="evenodd" d="M18.1484 62.7756C17.6384 63.6556 16.4385 63.8356 15.2485 64.3156C14.9185 64.4556 12.2484 65.7956 12.1484 64.8956C12.1484 64.3156 14.5085 63.7556 15.0585 63.5456C16.2185 63.0956 17.2184 62.4456 18.1484 62.7756Z" fill="white"/>
<path fill-rule="evenodd" clip-rule="evenodd" d="M76.5681 62.5762C76.6981 63.3962 75.6881 64.7262 74.8281 64.2262C75.2781 63.5462 75.5581 62.6962 76.5681 62.5762Z" fill="white"/>
<path fill-rule="evenodd" clip-rule="evenodd" d="M18.8262 64.9947C18.1962 65.8647 16.7762 66.2147 15.6362 66.6347C14.5191 67.1784 13.2982 67.4751 12.0562 67.5047C11.8862 66.7847 12.7861 66.7247 13.3161 66.5047C14.3761 66.1347 15.3162 65.7647 16.5062 65.3447C17.3662 65.0747 18.0062 64.6447 18.8262 64.9947Z" fill="white"/>
<path fill-rule="evenodd" clip-rule="evenodd" d="M19.2161 66.9261C18.5461 67.8661 17.026 68.1161 15.826 68.5761C15.256 68.7861 14.5961 69.0161 13.9861 69.2561C13.3761 69.4961 12.6961 70.1161 12.2461 69.4461C12.8061 68.4461 14.1661 68.4461 15.2461 67.9961C16.3261 67.5461 17.6761 67.0661 18.7261 66.6361C19.0061 66.6161 19.0661 66.8261 19.2161 66.9261Z" fill="white"/>
<path fill-rule="evenodd" clip-rule="evenodd" d="M19.5975 69.0563C19.5975 69.8763 18.5075 69.9063 17.9575 70.1263C17.4075 70.3463 16.6876 70.6463 16.1176 70.8963C14.9376 71.4163 13.6575 72.3263 12.4375 72.0563C12.5675 71.0563 14.2775 70.9063 15.4375 70.4163C16.8575 69.8063 18.4775 68.7863 19.5975 69.0563Z" fill="white"/>
<path fill-rule="evenodd" clip-rule="evenodd" d="M92.7152 69.3463C92.9352 69.8863 92.7152 70.3463 92.4252 70.4163C91.4252 70.6863 91.3452 68.7463 92.7152 69.3463Z" fill="white"/>
<path fill-rule="evenodd" clip-rule="evenodd" d="M20.0864 71.4762C19.8764 72.2462 18.8264 72.3862 18.1464 72.6362L13.6964 74.2862C13.0564 74.5162 12.1764 75.2262 11.5664 74.5762C12.2864 73.5062 14.0364 73.3662 15.4364 72.8262C16.9964 72.2362 18.7064 71.1762 20.0864 71.4762Z" fill="white"/>
<path fill-rule="evenodd" clip-rule="evenodd" d="M28.5938 75.6367C28.5938 73.8867 29.5938 72.5667 31.1038 72.9267C31.5061 73.0538 31.8518 73.3169 32.0816 73.6708C32.3114 74.0246 32.4112 74.4474 32.3638 74.8667C32.2138 76.5267 29.6037 77.0267 28.5938 75.6367ZM30.0438 75.2467C30.6538 75.2467 31.0438 75.1167 31.1038 74.5767C30.7738 73.8467 29.8338 74.3467 30.0438 75.2467Z" fill="white"/>
<path fill-rule="evenodd" clip-rule="evenodd" d="M4.70669 82.5955C8.47669 81.7155 14.5767 82.2154 13.5067 86.7554C17.1067 86.7554 20.3067 87.7554 22.0167 89.6554C22.4335 90.1017 22.7178 90.6552 22.8379 91.2539C22.958 91.8527 22.9091 92.473 22.6967 93.0455C21.1167 96.2655 14.5467 97.9055 10.9867 95.4555C10.5167 96.0155 10.5067 96.5854 10.1167 97.1054C7.97673 99.9954 2.1167 99.4355 1.0267 95.9455C0.156698 96.3755 -0.603325 97.3255 -1.87333 97.8755C-5.59333 99.5055 -11.6233 98.5455 -11.3533 93.8155C-15.2633 93.9555 -18.7633 92.6255 -18.4133 89.0755C-17.9133 84.0755 -9.74333 82.8755 -6.12333 85.9855C-5.63632 85.1018 -4.94258 84.3492 -4.10147 83.792C-3.26037 83.2347 -2.2969 82.8894 -1.29331 82.7854C-0.863308 80.0354 4.33669 79.2755 4.70669 82.5955ZM-8.06333 96.7154C-5.45333 97.7954 -1.28333 96.3654 -0.0633278 94.7154C0.366673 94.1454 0.326706 93.2755 1.09671 93.2655C1.86671 93.2555 1.96668 94.6255 2.25668 95.2655C3.39668 97.9055 7.58672 98.0555 8.92672 96.1355C9.36672 95.5155 9.36667 93.9254 10.1867 93.7154C11.0067 93.5054 11.8567 94.3854 12.6067 94.7154C13.7203 95.1175 14.9059 95.281 16.0867 95.1955C17.9667 95.0555 21.5467 93.6554 21.4067 91.7154C21.3367 90.7154 19.5467 89.5654 18.4067 89.1054C16.9042 88.4897 15.29 88.1934 13.6667 88.2355C12.3167 88.2355 10.4767 88.9654 10.4767 87.7554C10.4767 86.7554 12.1867 86.6854 12.2167 85.7554C12.2867 84.0154 7.93667 83.4954 6.12667 83.7554C5.41668 83.8454 4.50673 84.4655 3.99673 84.2355C3.24673 83.8955 3.68673 82.6654 2.99673 82.0054C2.15673 81.1654 0.676704 81.6854 -0.0932961 82.7854C-0.0932961 83.3354 0.156729 83.7854 -0.193272 84.1354C-1.74327 84.4654 -3.71331 84.8755 -4.54331 86.2655C-4.93331 86.9155 -4.80331 88.0855 -5.60331 88.1955C-6.22331 88.2855 -6.75327 87.3954 -7.44327 86.9454C-10.1033 85.2254 -14.6133 85.6955 -16.2433 87.7155C-18.5833 90.6255 -14.9733 92.5655 -11.8933 92.4555C-11.1733 92.4555 -10.4333 91.9655 -9.89328 92.5555C-10.0333 94.7055 -9.51333 96.1154 -8.06333 96.7154Z" fill="white"/>
<path fill-rule="evenodd" clip-rule="evenodd" d="M102.675 82.7859C103.021 82.7382 103.373 82.8094 103.673 82.9879C103.973 83.1663 104.203 83.4413 104.327 83.768C104.45 84.0946 104.458 84.4533 104.351 84.7855C104.244 85.1176 104.026 85.4034 103.735 85.596C101.645 86.856 99.9853 83.2959 102.675 82.7859ZM102.575 84.626C103.015 84.676 103.205 84.4859 103.155 84.0459C102.905 83.8259 102.355 84.376 102.575 84.626Z" fill="white"/>
<path fill-rule="evenodd" clip-rule="evenodd" d="M93.3867 91.1059C94.1567 89.0259 94.9667 92.4559 93.3867 91.1059V91.1059Z" fill="white"/>
<path fill-rule="evenodd" clip-rule="evenodd" d="M73.4662 93.0469C73.6918 92.9799 73.9298 92.9665 74.1614 93.0078C74.393 93.0492 74.6118 93.144 74.8002 93.2849C74.9887 93.4257 75.1416 93.6087 75.2468 93.8191C75.352 94.0296 75.4066 94.2616 75.4062 94.4969C75.4062 96.6569 71.8863 96.5869 72.1163 94.3969C72.1376 94.0458 72.2866 93.7147 72.5353 93.466C72.784 93.2173 73.1152 93.0682 73.4662 93.0469ZM73.2762 94.7869C73.5862 94.9269 74.1662 94.9569 74.1462 94.4969C73.8762 94.0269 73.3962 94.3469 73.2762 94.7869Z" fill="white"/>
<path fill-rule="evenodd" clip-rule="evenodd" d="M28.3078 94.6864C29.7878 94.3164 30.5377 95.1264 30.5277 96.2364C30.5277 98.3464 26.8377 98.9164 26.9477 96.2364C26.9647 95.862 27.1086 95.5045 27.3558 95.2228C27.603 94.9411 27.9387 94.7519 28.3078 94.6864ZM28.2077 96.6264C28.2973 96.7177 28.4129 96.779 28.5387 96.802C28.6645 96.8251 28.7944 96.8086 28.9104 96.7549C29.0265 96.7013 29.1231 96.613 29.1871 96.5023C29.2511 96.3916 29.2792 96.2638 29.2677 96.1365C28.9577 95.5765 28.2177 95.9964 28.2177 96.6264H28.2077Z" fill="white"/>
<path fill-rule="evenodd" clip-rule="evenodd" d="M48.7053 94.7857C49.0018 94.7105 49.3144 94.7289 49.5999 94.8386C49.8855 94.9482 50.1301 95.1437 50.3 95.3981C50.47 95.6525 50.5569 95.9532 50.5489 96.259C50.5409 96.5648 50.4383 96.8606 50.2553 97.1057C48.7753 99.3357 45.5653 95.2757 48.7053 94.7857ZM48.5153 96.3258C48.6305 96.3987 48.764 96.4373 48.9003 96.4373C49.0366 96.4373 49.1701 96.3987 49.2853 96.3258C49.2853 95.7758 48.6353 95.9958 48.5153 96.3258Z" fill="white"/>
</g>
</svg>
