<svg width="129" height="127" viewBox="0 0 129 127" fill="none" xmlns="http://www.w3.org/2000/svg">
<g opacity="0.4">
<path fill-rule="evenodd" clip-rule="evenodd" d="M75.6075 42.9139C75.6165 43.0282 75.5902 43.1425 75.5324 43.2415C75.4745 43.3405 75.3878 43.4194 75.2839 43.4677C75.1799 43.5161 75.0637 43.5315 74.9507 43.5119C74.8378 43.4924 74.7335 43.4387 74.6518 43.3583C74.2282 42.8718 75.0389 41.9868 75.6075 42.9139Z" fill="white"/>
<path fill-rule="evenodd" clip-rule="evenodd" d="M84.5687 50.1507C86.4471 51.5882 84.3697 54.0338 82.7222 53.1013C81.8111 52.5918 81.3027 51.2542 82.0293 50.4325C82.1739 50.2422 82.3556 50.0832 82.5635 49.9654C82.7714 49.8475 83.0011 49.7731 83.2386 49.7467C83.4761 49.7204 83.7165 49.7426 83.9451 49.812C84.1738 49.8815 84.386 49.9967 84.5687 50.1507ZM84.196 52.0069C84.8682 51.2027 83.381 50.26 82.5861 51.3003C82.5713 51.4908 82.6156 51.6812 82.7129 51.8456C82.8101 52.01 82.9557 52.1405 83.1297 52.2193C83.3037 52.2981 83.4978 52.3214 83.6855 52.2861C83.8733 52.2507 84.0456 52.1584 84.179 52.0217L84.196 52.0069Z" fill="white"/>
<path fill-rule="evenodd" clip-rule="evenodd" d="M65.4173 50.4328C66.2982 50.3023 67.159 50.3086 67.5215 51.2959C68.0844 52.8446 65.768 53.9765 64.8103 52.6025C64.694 52.4238 64.6172 52.2224 64.585 52.0116C64.5527 51.8009 64.5657 51.5857 64.6232 51.3804C64.6806 51.1751 64.7811 50.9844 64.9181 50.821C65.055 50.6576 65.2252 50.5253 65.4173 50.4328ZM65.4311 51.7735C65.4416 51.9126 65.5003 52.0437 65.597 52.1443C65.6938 52.2448 65.8225 52.3085 65.9611 52.3244C66.0998 52.3402 66.2396 52.3073 66.3566 52.2312C66.4735 52.1552 66.5604 52.0407 66.602 51.9076C66.5704 51.2887 65.8615 51.1599 65.4311 51.7735Z" fill="white"/>
<path fill-rule="evenodd" clip-rule="evenodd" d="M39.8383 19.6179C39.9233 19.8902 39.9383 20.1795 39.8818 20.4592C39.8252 20.7388 39.699 20.9996 39.5149 21.2175C39.3307 21.4354 39.0946 21.6033 38.8282 21.7056C38.5619 21.808 38.2741 21.8414 37.9914 21.8029C37.0181 21.656 36.1225 20.2278 36.7694 19.4059C36.9514 19.159 37.1929 18.9621 37.4713 18.8333C37.7497 18.7045 38.056 18.648 38.3621 18.6692C38.6681 18.6903 38.9638 18.7883 39.2218 18.9542C39.4799 19.12 39.6919 19.3483 39.8383 19.6179ZM38.9705 20.1746C38.7155 19.4021 37.8015 19.7802 37.4836 20.2261C37.5133 20.4059 37.6074 20.5688 37.7484 20.6843C37.8893 20.7999 38.0675 20.8601 38.2497 20.8537C38.4318 20.8474 38.6054 20.7751 38.7381 20.6501C38.8707 20.5251 38.9533 20.3561 38.9705 20.1746Z" fill="white"/>
<path fill-rule="evenodd" clip-rule="evenodd" d="M51.4159 40.0622C51.5565 40.4993 51.5346 40.9725 51.354 41.3948C51.1734 41.817 50.8464 42.1598 50.4332 42.3601C48.8096 43.2368 46.9116 40.8516 48.0565 39.5165C48.9834 38.4109 50.4375 38.7559 51.4159 40.0622ZM50.4109 40.45C50.066 39.8254 49.2278 39.7994 48.6066 40.4795C48.5499 42.0705 50.9875 41.569 50.3792 40.4478L50.4109 40.45Z" fill="white"/>
<path fill-rule="evenodd" clip-rule="evenodd" d="M69.8641 63.0116C71.8929 63.5026 74.1322 66.2569 72.2303 68.1617C71.7882 68.5902 71.2405 68.894 70.643 69.0423C70.0454 69.1906 69.4192 69.1781 68.8281 69.006C68.9143 71.9146 64.2355 74.5367 62.415 71.0298C59.8773 73.8264 55.6126 74.7652 53.8308 71.0058C51.9531 71.9447 49.107 69.7386 50.1171 67.5064C49.1368 67.3057 47.9272 67.1159 47.348 65.8797C46.1167 63.2322 51.0937 61.2952 52.8393 61.5753C50.3199 58.7963 55.5505 57.3446 57.1397 58.1189C57.3183 57.5426 57.6879 57.0443 58.1876 56.7061C58.6873 56.3679 59.2872 56.2099 59.8887 56.2583C60.4901 56.3066 61.0572 56.5584 61.4964 56.9721C61.9356 57.3858 62.2209 57.9367 62.3051 58.5342C64.4011 57.5146 68.6129 56.8805 70.7131 58.8012C72.224 60.1708 71.4931 61.9013 69.8641 63.0116ZM64.2247 71.3834C65.2097 71.9777 66.988 71.3244 67.507 69.9673C67.7853 69.2476 67.3305 68.5197 67.9484 68.0414C68.5662 67.5631 69.5857 68.197 70.3024 67.9807C70.8062 67.8554 71.2543 67.5667 71.5765 67.1596C72.3935 66.0305 70.8592 64.6911 69.8258 64.2582C69.1639 63.9892 68.1217 63.9917 67.926 63.5157C67.6144 62.7924 69.3241 62.2087 69.9157 61.4947C71.6501 59.3975 67.8214 58.8726 66.7046 58.8008C65.4991 58.6642 64.2787 58.8341 63.1564 59.2947C62.5121 59.617 62.0251 60.2799 61.5287 59.8469C61.0322 59.4138 61.3456 58.1861 60.4294 57.4424C60.1991 57.283 59.9394 57.171 59.6654 57.1131C58.6467 57.0056 58.0007 58.0455 57.633 58.9823C56.2268 58.9437 54.1086 58.3615 53.0812 60.1512C53.0682 60.8787 55.1515 61.5808 54.4673 62.4054C54.0731 62.8779 51.891 62.7591 51.562 62.8268C50.662 63.0038 47.4496 64.1004 48.3887 65.5901C49.131 66.7737 51.1985 65.8585 51.6713 66.7099C51.9404 67.2017 51.2928 67.4174 51.0729 67.9073C50.986 68.2144 50.9867 68.5397 51.075 68.8464C51.1633 69.1531 51.3356 69.4289 51.5725 69.6428C51.8095 69.8566 52.1015 69.9999 52.4156 70.0564C52.7297 70.1129 53.0533 70.0803 53.3499 69.9625C53.5366 69.7999 53.0968 69.0093 53.7981 68.7069C54.4995 68.4045 54.5403 69.6619 54.7203 70.2113C55.7277 73.2527 59.5695 72.7419 61.3289 70.5136C61.6778 70.0805 61.7322 69.4462 62.3909 69.3003C63.5226 69.9261 63.3236 70.8055 64.2473 71.3637L64.2247 71.3834Z" fill="white"/>
<path fill-rule="evenodd" clip-rule="evenodd" d="M25.4211 32.5531C26.899 32.0917 28.7227 31.3192 29.943 32.6634C31.7354 34.6532 28.1428 36.8666 26.3289 36.8051C27.7797 37.6602 29.2323 39.7967 28.6635 41.028C27.7386 43.0269 24.8553 41.3605 23.5101 39.7471C23.3927 40.7544 23.3795 43.0236 21.596 43.5224C19.4382 44.1283 18.5555 40.2821 19.143 38.9351C17.571 40.0652 15.6645 40.6513 14.5021 39.3163C12.7195 37.3378 15.7064 34.0407 18.121 34.335C16.5456 33.0513 14.7204 30.6126 15.9977 29.3611C17.5098 27.8653 20.0608 30.4179 21.0313 32.3776C21.0932 30.9411 22.5222 27.3396 24.8609 27.5012C27.1995 27.6627 26.6914 31.248 25.4211 32.5531ZM25.2676 28.8477C25.1533 28.7078 24.9989 28.6062 24.8252 28.5567C23.3399 28.2786 22.2095 30.9438 22.037 31.9792C21.8645 33.0146 21.7518 34.4156 22.4263 34.425C23.8819 32.6701 26.0795 30.7166 25.2676 28.8477ZM28.0683 32.9433C26.6898 32.8109 24.1813 34.0305 23.0109 35.4276C23.5809 35.7966 24.5738 35.7376 25.4644 35.6981C26.8242 35.6378 28.3318 35.4389 29.3324 33.961C29.2873 33.6639 29.1325 33.3945 28.8984 33.2061C28.6643 33.0176 28.3681 32.9239 28.0683 32.9433ZM24.547 39.2817C25.0848 39.808 26.9689 41.2406 27.5524 40.6429C27.9097 40.2423 27.2353 38.9995 26.973 38.6412C25.8258 37.084 24.0426 36.8864 22.8335 36.7657C23.2613 37.6935 23.8403 38.5438 24.547 39.2817ZM16.7488 30.1094C16.6339 31.5422 18.1663 33.0622 19.4204 33.8399C19.9968 34.1934 20.6379 34.6098 21.1257 34.4734C20.4182 32.9413 18.6204 29.6433 16.7488 30.1094ZM21.4626 35.5227C21.6444 35.6629 21.8211 35.7973 22.0198 35.6144C22.3145 35.119 21.3861 35.0921 21.4626 35.5227ZM21.3255 36.5074C20.2589 38.1722 19.1893 40.8043 21.1715 42.5095C23.2829 41.4964 22.4845 37.8155 21.3425 36.4926L21.3255 36.5074ZM15.581 36.318C15.1276 36.8024 14.6923 37.9472 15.2193 38.5525C16.5936 40.1306 19.6233 37.2139 20.2552 35.6094C18.9426 35.3699 17.0672 34.7354 15.598 36.3032L15.581 36.318Z" fill="white"/>
<path fill-rule="evenodd" clip-rule="evenodd" d="M34.0745 39.7364C34.7433 40.0591 33.9562 40.8341 33.5612 40.4719C33.1662 40.1097 33.5607 39.4777 34.0745 39.7364Z" fill="white"/>
<path fill-rule="evenodd" clip-rule="evenodd" d="M56.1083 81.0836C57.7156 82.2898 56.1157 84.5185 54.5965 83.6533C53.7996 83.1836 53.0887 81.5449 54.3818 80.7571C54.6722 80.6502 54.9862 80.6241 55.2902 80.6816C55.5943 80.7391 55.877 80.8781 56.1083 81.0836ZM54.6913 81.7407C54.2315 82.5489 55.8255 83.4086 55.8904 82.2382C55.4921 81.7694 55.0946 81.5984 54.6744 81.7555L54.6913 81.7407Z" fill="white"/>
<path fill-rule="evenodd" clip-rule="evenodd" d="M28.5871 52.3136C28.7053 52.4494 28.65 52.5572 28.6103 52.6714C28.5705 52.7856 28.361 52.7392 28.2468 52.6994C28.1326 52.6597 28.1839 52.4559 28.2188 52.336C28.2536 52.2162 28.4623 52.2731 28.5871 52.3136Z" fill="white"/>
<path fill-rule="evenodd" clip-rule="evenodd" d="M39.9371 66.5687C40.2072 66.7779 40.3977 67.073 40.4772 67.4053C40.5568 67.7375 40.5205 68.087 40.3745 68.3958C38.9252 71.0602 35.6494 67.3783 38.4223 66.2567C38.6793 66.1662 38.9561 66.1474 39.223 66.2024C39.4899 66.2574 39.7367 66.384 39.9371 66.5687ZM38.6137 67.3332C38.4497 67.4761 38.5909 67.741 38.3137 67.9823C39.6533 69.6006 39.8467 66.3391 38.5968 67.348L38.6137 67.3332Z" fill="white"/>
<path fill-rule="evenodd" clip-rule="evenodd" d="M28.0605 53.149C27.9252 53.3363 27.9875 53.2822 27.7889 53.3854C27.6506 53.3865 27.5255 53.1971 27.3974 53.05C27.4453 52.9055 27.5469 52.785 27.6812 52.7134C27.7775 52.7457 27.8634 52.803 27.9301 52.8796C27.9967 52.9562 28.0418 53.0492 28.0605 53.149Z" fill="white"/>
<path fill-rule="evenodd" clip-rule="evenodd" d="M26.9755 53.2277C27.1233 53.3974 27.3592 53.5998 27.3475 53.7691L27.076 54.0055C26.9467 53.9637 26.8345 53.8813 26.7559 53.7704C26.6773 53.6596 26.6367 53.5264 26.64 53.3906C26.7681 53.2293 26.8651 53.3636 26.9755 53.2277Z" fill="white"/>
<path fill-rule="evenodd" clip-rule="evenodd" d="M26.5778 54.5409C26.4817 54.6246 26.4056 54.5715 26.3136 54.6715C26.1486 54.606 26.0121 54.4841 25.9285 54.3275C25.8449 54.1708 25.8196 53.9895 25.857 53.8159C26.269 53.5467 26.6613 54.1798 26.5778 54.5409Z" fill="white"/>
<path fill-rule="evenodd" clip-rule="evenodd" d="M25.8505 55.3615C25.7544 55.4453 25.6783 55.3921 25.5856 55.5027C25.2397 55.2768 24.8424 54.7177 24.9935 54.3773C25.4126 54.082 25.9768 55.0725 25.8505 55.3615Z" fill="white"/>
<path fill-rule="evenodd" clip-rule="evenodd" d="M25.3272 56.2025C24.6913 56.5573 24.0687 55.1799 24.1917 54.7844C24.7916 54.4111 25.1849 55.7993 25.3272 56.2025Z" fill="white"/>
<path fill-rule="evenodd" clip-rule="evenodd" d="M73.3828 76.7393C74.8717 77.8895 72.6779 79.7103 71.6736 78.3172C71.518 78.084 71.4508 77.8028 71.4839 77.5244C71.5171 77.246 71.6485 76.9886 71.8545 76.7984C72.0605 76.6082 72.3276 76.4978 72.6078 76.487C72.8879 76.4761 73.1627 76.5656 73.3828 76.7393ZM72.3437 77.5447C72.3342 77.6823 72.4996 77.8267 72.6277 77.9737C73.2222 77.834 72.78 77.1549 72.3388 77.5391L72.3437 77.5447Z" fill="white"/>
<path fill-rule="evenodd" clip-rule="evenodd" d="M30.7951 67.1182C30.4034 67.1709 29.5258 66.483 29.6434 66.0127C30.0724 65.7286 31.1898 66.7149 30.7951 67.1182Z" fill="white"/>
<path fill-rule="evenodd" clip-rule="evenodd" d="M6.92925 39.7119C6.9745 39.6724 6.98013 39.6675 7.03504 39.7192C7.85307 40.7133 8.60303 41.7615 9.27982 42.8567C9.92744 43.7945 11.2218 45.1439 10.722 45.8377C10.2222 46.5315 8.22296 45.7661 7.24778 45.4914C6.66887 45.3292 6.04123 45.1795 5.49899 45.0251C4.92105 44.8976 4.3535 44.7269 3.80113 44.5144C2.69507 43.8055 1.63372 43.0291 0.623046 42.1897C-5.64888 37.7055 -11.9945 33.0567 -18.4726 28.3243C-19.4545 27.6079 -21.1349 26.6146 -21.5011 25.9886C-22.1853 24.7345 -20.249 21.7157 -18.6008 22.0209C-18.0139 22.3066 -17.4701 22.6735 -16.9854 23.1107C-9.97205 27.9438 -3.33341 32.5065 3.67101 37.5464C4.74742 38.2799 6.00974 39.1699 6.92925 39.7119ZM4.39239 43.6515C5.27196 44.0791 6.15247 44.108 7.05539 44.5053C7.3835 43.9112 7.24599 43.2851 8.1032 42.7276C7.60809 42.0448 7.20329 41.3629 6.70325 40.6744C6.12945 40.977 5.62693 41.3987 5.22936 41.9113C4.83179 42.4239 4.54839 43.0155 4.39806 43.6466L4.39239 43.6515ZM-18.9673 23.0163C-19.4649 23.1642 -19.9025 23.4666 -20.2169 23.8798C-20.5312 24.2929 -20.7058 24.7955 -20.7155 25.3145C-20.5573 25.2563 -20.4289 25.5523 -20.2658 25.4997C-20.1507 25.1409 -19.728 24.564 -19.352 24.893C-19.2273 25.2419 -19.7798 25.5439 -19.8356 25.891C-19.6532 26.0205 -19.5007 26.2756 -19.2923 26.1837C-19.3007 25.8429 -18.7113 25.1606 -18.3875 25.7837C-18.5862 26.0192 -18.7432 26.2871 -18.8516 26.5756C-18.7138 26.8138 -18.5534 26.7238 -18.4157 26.9619C-18.231 26.7514 -17.9805 26.1254 -17.5955 26.2477L-17.4428 26.4231C-17.3365 26.8079 -18.172 27.1276 -17.6064 27.5601C-17.3349 27.3237 -16.9387 26.5908 -16.599 27.0608C-16.4819 27.3666 -16.9567 27.6209 -17.1196 27.9021C-17.0064 28.0322 -16.8806 27.9823 -16.7774 28.1809C-16.575 27.945 -16.1657 27.33 -15.8709 27.68C-15.7312 27.9661 -16.1255 28.21 -16.2291 28.4792L-15.9434 28.8073C-15.8398 28.538 -15.3194 27.7765 -14.9804 28.2571C-14.8894 28.5558 -15.3854 28.8087 -15.4002 29.1C-15.2484 29.3657 -15.0739 29.3033 -14.915 29.5429C-14.6944 29.3508 -14.7023 29.0791 -14.4583 28.8567C-14.303 28.8409 -14.1449 28.7827 -14.0013 28.9361C-13.9117 29.256 -14.3082 29.5316 -14.3717 29.8356C-14.2889 29.9653 -14.1813 30.0774 -14.0551 30.1655C-13.9289 30.2536 -13.7866 30.3159 -13.6363 30.3489C-13.6525 30.0448 -13.1537 29.4413 -12.8308 29.8463C-12.7828 30.1527 -13.1588 30.4404 -13.2012 30.7458C-13.0088 30.9134 -12.8065 31.0694 -12.5955 31.2129C-12.4618 30.9954 -12.3034 30.794 -12.1234 30.6129C-12.0101 30.743 -11.8425 30.5472 -11.723 30.7415C-11.6035 30.9359 -12.0516 31.2665 -12.0812 31.5409C-11.8891 31.7615 -11.655 31.8361 -11.4516 32.0469C-11.2706 31.8892 -10.9679 31.2775 -10.697 31.5886C-10.4261 31.8997 -10.8824 32.1181 -10.859 32.3961C-10.6541 32.6088 -10.4242 32.796 -10.1745 32.9538C-9.99899 32.7213 -9.69737 32.2796 -9.43211 32.5957C-9.31774 32.8641 -9.62099 33.0983 -9.63853 33.3523C-9.45536 33.4713 -9.28077 33.6375 -9.10252 33.7508C-8.94722 33.4266 -8.54795 32.88 -8.20499 33.4566C-8.3617 33.6649 -8.50299 33.8844 -8.62778 34.1132C-8.50829 34.3075 -8.36417 34.2218 -8.24688 34.4479C-7.94708 34.1868 -7.60803 33.7424 -7.34935 34.1536C-7.1806 34.4045 -7.67853 34.6094 -7.72289 34.8668C-7.55923 34.8834 -7.39814 35.0913 -7.23613 35.2088C-7.14051 35.0559 -6.85512 34.6184 -6.62123 34.7728C-6.24231 35.0595 -6.64083 35.2871 -6.73245 35.536C-6.59353 35.6468 -6.44334 35.7427 -6.28437 35.8221C-6.10663 35.5579 -5.82706 35.2051 -5.54191 35.464C-5.43666 35.7105 -5.61714 35.9373 -5.7976 36.1641C-5.65495 36.4078 -5.49822 36.3709 -5.35684 36.5561C-5.21012 36.2791 -4.97341 35.8542 -4.60707 36.0921C-4.43871 36.5025 -5.14521 36.879 -4.52782 37.1768C-4.41577 36.94 -4.18821 36.4932 -3.86858 36.7917C-3.54895 37.0902 -4.16551 37.3188 -3.81906 37.6139C-3.67037 37.6933 -3.43238 37.0186 -3.15489 37.2344C-2.8774 37.4503 -3.15821 37.7446 -3.26041 37.9927C-3.09675 38.1484 -2.91516 38.284 -2.71947 38.3969C-2.6295 38.2489 -2.38372 37.8459 -2.17738 38.0144C-1.81962 38.2996 -2.19697 38.5287 -2.17783 38.7905C-1.99558 38.9998 -1.85015 38.9726 -1.69838 39.2383C-1.52887 39.1702 -1.21517 38.3998 -0.849397 38.8769C-0.819683 39.1395 -1.0651 39.383 -1.06148 39.6385C-0.8743 39.8534 -0.723208 39.8213 -0.576359 40.0813C-0.469236 39.8388 -0.0867774 39.2273 0.234853 39.5738C0.556484 39.9203 -0.0932615 40.1679 -0.034725 40.4749C0.152291 40.4613 0.295332 40.8539 0.513553 40.7733C0.612478 40.4186 1.04583 40.0711 1.34957 40.5227C1.27073 40.7405 0.990812 40.9445 0.926747 41.1793C1.07944 41.3546 1.22486 41.3275 1.36752 41.5713C1.54287 41.4186 1.43889 41.2306 1.70456 41.0788C1.8392 41.1307 1.98044 41.0873 2.1034 41.3084C2.22635 41.5295 1.89717 41.6769 1.91083 41.8639C2.05244 42.0839 2.26371 42.2501 2.51088 42.336C2.47897 42.1052 2.76508 41.6571 3.06685 41.7524C3.5182 42.1451 2.83233 42.4539 3.02332 42.8446C3.2607 42.9475 3.46741 43.1102 3.62336 43.3166C4.04309 42.0671 4.79012 40.953 5.78667 40.0902C-2.51914 34.5723 -10.7388 28.7308 -18.9616 23.0114L-18.9673 23.0163ZM8.11887 44.7329C8.57009 44.844 9.02775 44.9272 9.48924 44.9817C9.29352 44.5057 8.85442 44.0128 8.61637 43.5339C8.40506 43.6411 8.23918 43.8206 8.14893 44.0397C8.05868 44.2588 8.05004 44.503 8.12453 44.7279L8.11887 44.7329Z" fill="white"/>
<path fill-rule="evenodd" clip-rule="evenodd" d="M31.4611 68.6575C31.0208 68.9514 30.2345 68.1741 29.7327 67.6663C29.4667 67.3608 28.9109 66.9397 29.1897 66.5974C29.5784 66.3584 29.7951 66.9157 30.0753 67.169C30.6203 67.6691 31.5301 68.12 31.4611 68.6575Z" fill="white"/>
<path fill-rule="evenodd" clip-rule="evenodd" d="M48.0169 89.6988C47.9586 89.8013 47.8729 89.8855 47.7695 89.9422C47.6661 89.9989 47.549 90.0258 47.4312 90.0199C47.2878 89.8821 47.176 89.7147 47.1036 89.5294C47.1992 89.3766 47.389 89.092 47.5957 89.1009C47.7165 89.1488 47.8207 89.2308 47.8955 89.337C47.9703 89.4433 48.0125 89.569 48.0169 89.6988Z" fill="white"/>
<path fill-rule="evenodd" clip-rule="evenodd" d="M31.2286 69.8217C30.435 69.7669 28.8293 68.4599 28.7595 67.546C29.1002 67.309 29.2311 67.7221 29.5022 67.9534C30.2106 68.55 31.2557 69.1219 31.2286 69.8217Z" fill="white"/>
<path fill-rule="evenodd" clip-rule="evenodd" d="M28.133 68.4799C28.5629 68.1055 28.8745 68.8288 29.1244 69.0587C29.5547 69.3781 29.9587 69.7313 30.3327 70.1151C29.7719 70.9217 28.2548 69.1794 28.133 68.4799Z" fill="white"/>
<path fill-rule="evenodd" clip-rule="evenodd" d="M11.1283 52.267C11.6882 50.6257 12.5409 53.4438 11.1283 52.267V52.267Z" fill="white"/>
<path fill-rule="evenodd" clip-rule="evenodd" d="M28.639 73.0361C28.2091 73.4105 27.2819 72.5171 26.7434 72.0014C26.4676 71.6847 25.8774 71.2239 26.2571 70.8833C26.661 70.7305 26.8214 71.2572 27.0861 71.5041C27.6367 71.9993 28.5219 72.422 28.639 73.0361Z" fill="white"/>
<path fill-rule="evenodd" clip-rule="evenodd" d="M42.7235 84.3158C44.2322 85.7171 41.8141 88.0913 40.3475 86.7726C40.1652 86.6231 40.0149 86.4384 39.9055 86.2295C39.7961 86.0206 39.7299 85.7918 39.7109 85.5568C39.6919 85.3218 39.7205 85.0854 39.7949 84.8616C39.8693 84.6379 39.988 84.4314 40.144 84.2545C40.3152 84.0852 40.5189 83.9522 40.7427 83.8633C40.9665 83.7745 41.2059 83.7316 41.4467 83.7373C41.6875 83.743 41.9246 83.7972 42.144 83.8966C42.3633 83.996 42.5604 84.1385 42.7235 84.3158ZM41.0603 86.152C41.4518 86.179 41.7749 86.196 42.053 85.8643C42.6898 85.1108 41.3846 84.4572 40.6323 85.1123C40.6146 85.3072 40.6443 85.5036 40.7188 85.6846C40.7933 85.8656 40.9105 86.026 41.0603 86.152Z" fill="white"/>
<path fill-rule="evenodd" clip-rule="evenodd" d="M24.8594 72.3856C25.6123 72.1079 26.2582 73.455 26.9721 73.818C26.6346 74.7782 25.1225 73.0417 24.8594 72.3856Z" fill="white"/>
<path fill-rule="evenodd" clip-rule="evenodd" d="M33.0596 81.2071C33.0299 81.3003 32.9748 81.3834 32.9006 81.4469C32.8263 81.5105 32.7358 81.5521 32.6391 81.5669C32.5425 81.5818 32.4436 81.5694 32.3537 81.5311C32.2637 81.4929 32.1863 81.4302 32.13 81.3503C32.1364 81.2284 32.1269 81.1063 32.1019 80.9868C32.4601 80.4959 32.9315 80.7517 33.0596 81.2071Z" fill="white"/>
<path fill-rule="evenodd" clip-rule="evenodd" d="M24.9788 75.4555C24.5985 75.7269 23.8321 74.8925 23.965 74.5083C24.3177 74.2508 25.3135 75.0746 24.9788 75.4555Z" fill="white"/>
<path fill-rule="evenodd" clip-rule="evenodd" d="M25.5908 76.9395C24.8971 77.285 23.5475 75.7351 23.4623 75.0434C23.9026 74.7495 24.2671 75.4765 24.6402 75.8478C25.0132 76.2191 25.7618 76.5419 25.5908 76.9395Z" fill="white"/>
<path fill-rule="evenodd" clip-rule="evenodd" d="M3.10508 51.8923C3.32148 52.0463 3.49313 52.2549 3.60252 52.4969C3.7119 52.7389 3.75511 53.0056 3.72767 53.2698C3.10692 55.5608 -0.82565 53.3062 1.44786 51.7939C1.6978 51.6294 1.99417 51.5502 2.29281 51.5679C2.59146 51.5857 2.87638 51.6995 3.10508 51.8923ZM1.70648 52.8218C1.72569 52.9347 1.77566 53.0401 1.85087 53.1264C1.92607 53.2127 2.02365 53.2765 2.13281 53.311C2.24197 53.3455 2.3585 53.3492 2.46963 53.3217C2.58076 53.2942 2.68215 53.2366 2.76268 53.1553C2.75521 53.0325 2.70539 52.9068 2.7346 52.7918C2.59168 52.6649 2.40568 52.5972 2.21459 52.6028C2.0235 52.6084 1.84175 52.6868 1.70648 52.8218Z" fill="white"/>
<path fill-rule="evenodd" clip-rule="evenodd" d="M25.5233 78.0659C24.852 78.1631 22.9204 76.5731 23.1108 75.7409C23.4744 75.6331 23.5808 76.0179 23.8462 76.2542C24.4687 76.7863 25.4889 77.4096 25.5233 78.0659Z" fill="white"/>
<path fill-rule="evenodd" clip-rule="evenodd" d="M38.7705 98.1219C38.6491 98.1445 38.5236 98.1201 38.4195 98.0538C38.3153 97.9875 38.2402 97.8841 38.2093 97.7645C38.1784 97.6449 38.1941 97.5181 38.2531 97.4096C38.3121 97.3011 38.4101 97.2191 38.5272 97.18C38.6486 97.1575 38.7741 97.1818 38.8782 97.2481C38.9824 97.3145 39.0575 97.4178 39.0884 97.5374C39.1193 97.657 39.1037 97.7838 39.0447 97.8923C38.9857 98.0008 38.8877 98.0828 38.7705 98.1219Z" fill="white"/>
<path fill-rule="evenodd" clip-rule="evenodd" d="M21.654 80.3666C21.237 80.1948 20.8813 79.9017 20.6329 79.5252C20.8357 78.8215 22.4764 79.929 21.654 80.3666Z" fill="white"/>
<path fill-rule="evenodd" clip-rule="evenodd" d="M27.8329 87.0145C27.6153 87.7012 26.7119 87.2348 26.8769 86.6933C27.2557 86.1347 27.8269 86.5622 27.8329 87.0145Z" fill="white"/>
<path fill-rule="evenodd" clip-rule="evenodd" d="M22.0907 81.4275C21.5222 81.6541 19.9974 80.4855 20.3045 79.8103C20.8606 80.072 22.0556 80.7818 22.0907 81.4275Z" fill="white"/>
<path fill-rule="evenodd" clip-rule="evenodd" d="M22.0563 82.7127C21.5194 82.5929 21.0209 82.3411 20.6058 81.9801C20.1907 81.6192 19.8722 81.1604 19.6792 80.6453C20.0784 80.407 20.2953 80.8845 20.6262 81.1732C21.1726 81.6522 22.2567 82.1205 22.0563 82.7127Z" fill="white"/>
<path fill-rule="evenodd" clip-rule="evenodd" d="M19.7981 83.43C19.3536 83.7077 18.3294 82.9883 18.4208 82.5109C18.8879 82.2135 19.7202 82.9409 19.7981 83.43Z" fill="white"/>
<path fill-rule="evenodd" clip-rule="evenodd" d="M18.3559 84.9724C17.9581 85.4978 17.0652 84.7237 17.22 84.3304C17.6152 83.9962 18.1789 84.6093 18.3559 84.9724Z" fill="white"/>
<path fill-rule="evenodd" clip-rule="evenodd" d="M18.5712 86.3256C17.985 86.5775 17.2079 85.822 16.8501 85.2285C17.4269 84.8058 18.5456 85.8506 18.5712 86.3256Z" fill="white"/>
<path fill-rule="evenodd" clip-rule="evenodd" d="M18.4002 87.3419C17.6807 87.5209 16.7755 86.6183 16.2632 86.0301C16.5941 85.4734 18.367 86.7442 18.4002 87.3419Z" fill="white"/>
<path fill-rule="evenodd" clip-rule="evenodd" d="M31.3543 92.0263C33.2777 93.5042 30.5693 95.6935 29.2673 94.6094C27.5631 93.1892 29.6829 90.7466 31.3543 92.0263ZM29.5234 93.1332C29.3133 94.2511 31.0995 94.098 31.0208 93.0825C30.5614 92.4979 30.0617 92.575 29.5234 93.1332Z" fill="white"/>
<path fill-rule="evenodd" clip-rule="evenodd" d="M15.7169 86.6943C16.5554 86.2524 17.2654 87.6731 18.0518 87.8337C18.3089 89.1912 16.0379 87.28 15.7169 86.6943Z" fill="white"/>
<path fill-rule="evenodd" clip-rule="evenodd" d="M17.2727 88.8006C16.5766 88.9492 15.2654 87.8432 15.123 87.2114C15.6554 87.0461 17.1664 88.1074 17.2727 88.8006Z" fill="white"/>
<path fill-rule="evenodd" clip-rule="evenodd" d="M14.092 87.9214C14.7833 87.3791 15.3433 88.6617 15.9967 88.6697C16.2266 89.8817 14.3917 88.5854 14.092 87.9214Z" fill="white"/>
<path fill-rule="evenodd" clip-rule="evenodd" d="M14.5842 91.1393C14.0305 91.3829 13.0926 90.5685 12.914 89.9979C13.467 89.765 14.5792 90.5967 14.5842 91.1393Z" fill="white"/>
<path fill-rule="evenodd" clip-rule="evenodd" d="M14.99 92.8158C14.529 92.9488 13.893 92.4583 13.3752 92.1035C12.8574 91.7488 12.1129 91.2136 12.1339 90.6781C12.5184 90.4229 13.0504 91.0338 13.5251 91.3962C14.2147 91.8797 15.072 92.1676 14.99 92.8158Z" fill="white"/>
<path fill-rule="evenodd" clip-rule="evenodd" d="M14.791 93.9434C14.2916 94.1694 13.5488 93.5333 12.9987 93.1072C12.4487 92.6812 11.5294 92.0594 11.6712 91.4685C12.166 91.3857 12.6303 91.976 13.1493 92.3893C13.8409 92.9208 14.7271 93.2532 14.791 93.9434Z" fill="white"/>
<path fill-rule="evenodd" clip-rule="evenodd" d="M13.6579 94.8235C12.958 94.3272 12.3078 93.7642 11.7166 93.1424C11.4407 92.8256 10.5951 92.3685 11.2368 91.929C11.7418 92.3148 12.1837 92.8451 12.7801 93.37C13.3765 93.895 14.4255 94.2545 13.6579 94.8235Z" fill="white"/>
<path fill-rule="evenodd" clip-rule="evenodd" d="M13.072 95.2509C12.6713 95.5103 12.0396 95.036 11.5557 94.6517C11.0719 94.2674 10.0669 93.5016 10.2299 92.9121C10.7938 92.8288 11.2752 93.6329 11.8485 94.1084C12.4217 94.5839 13.1053 94.6152 13.072 95.2509Z" fill="white"/>
<path fill-rule="evenodd" clip-rule="evenodd" d="M11.3396 94.929C10.6947 95.4905 9.78875 94.2902 9.56182 93.8811L9.83898 93.6398C10.315 94.0607 11.211 94.4044 11.3396 94.929Z" fill="white"/>
<path fill-rule="evenodd" clip-rule="evenodd" d="M10.8579 97.5699C10.4562 97.9196 9.79962 97.4968 9.33239 97.2572C8.86515 97.0176 8.08285 96.6446 8.17577 96.146C8.50385 95.8603 8.99385 96.3088 9.38701 96.5433C9.95682 96.7544 10.4632 97.1078 10.8579 97.5699Z" fill="white"/>
<path fill-rule="evenodd" clip-rule="evenodd" d="M10.8155 98.8475C10.2484 99.0529 9.34804 98.4644 8.66535 98.0345C7.98265 97.6046 6.8338 97.0733 7.18765 96.3375C8.38229 96.8985 9.53383 98.0839 10.7431 98.4332C10.8909 98.6029 10.8673 98.7129 10.8155 98.8475Z" fill="white"/>
<path fill-rule="evenodd" clip-rule="evenodd" d="M10.3301 99.8454C9.63328 100.005 8.67749 99.2953 7.8877 98.7995C7.55657 98.5906 7.08386 98.2761 6.7042 98.0001C6.32454 97.724 5.6254 97.378 6.06041 96.9295C6.80727 97.2073 7.49907 97.615 8.10377 98.1339C8.78011 98.6368 9.50779 99.0666 10.2746 99.4162C10.4534 99.5987 10.3819 99.7108 10.3301 99.8454Z" fill="white"/>
<path fill-rule="evenodd" clip-rule="evenodd" d="M5.17005 97.9958C5.90133 97.8762 6.50773 98.6411 7.15375 99.0632C7.81873 99.5203 8.53487 99.898 9.2876 100.189C9.44786 101.332 7.75171 100.104 6.96119 99.6188C6.17067 99.1336 5.02257 98.5917 5.17005 97.9958Z" fill="white"/>
<path fill-rule="evenodd" clip-rule="evenodd" d="M23.3176 104.122C25.0632 105.636 22.4942 107.962 21.1074 106.335C20.8625 106.054 20.7139 105.701 20.6832 105.329C20.6525 104.957 20.7413 104.584 20.9366 104.266C21.0788 104.093 21.2551 103.952 21.4545 103.85C21.654 103.748 21.8722 103.689 22.0957 103.675C22.3192 103.662 22.5431 103.694 22.7533 103.771C22.9636 103.848 23.1557 103.968 23.3176 104.122ZM21.6631 104.986C21.2835 105.555 22.3258 106.398 22.8482 105.685C22.9258 105.539 22.9424 105.369 22.8945 105.211C22.8466 105.053 22.7381 104.921 22.5927 104.843C22.4495 104.741 22.2724 104.699 22.0988 104.726C21.9253 104.753 21.769 104.846 21.6631 104.986Z" fill="white"/>
<path fill-rule="evenodd" clip-rule="evenodd" d="M7.75024 100.96C7.3021 101.29 6.47072 100.781 5.83655 100.418C5.20238 100.056 4.29616 99.5518 4.18748 98.9701C4.73797 98.62 5.31409 99.3616 5.92983 99.7603C6.65339 100.214 7.52022 100.365 7.75024 100.96Z" fill="white"/>
<path fill-rule="evenodd" clip-rule="evenodd" d="M6.73598 110.287C5.43992 109.347 8.03753 108.915 7.27002 110.021C7.11072 110.25 6.98029 110.214 6.73598 110.287Z" fill="white"/>
<path fill-rule="evenodd" clip-rule="evenodd" d="M91.9497 -12.0029C88.7545 -8.07683 84.8285 -4.19061 81.263 -0.290116C85.2891 0.0329764 89.1097 1.62183 92.1776 4.24892C94.8541 6.52309 97.3916 9.73396 99.8615 12.8445C100.556 13.7218 102.251 15.1998 101.824 15.7605C101.532 16.1337 100.388 15.8473 99.8798 15.8123C95.3594 15.6808 90.8628 15.5882 86.4363 15.4048C90.9477 22.2874 91.3527 28.8172 89.5822 35.3616C89.2968 36.454 88.9474 37.5287 88.5359 38.5802C88.1073 39.6298 87.7373 40.9067 86.7823 41.6489C83.6462 38.5615 80.2007 34.1821 77.1575 30.596C75.6256 34.4562 72.9563 38.0039 68.5669 41.8262C65.7499 44.2054 62.6205 46.1876 59.2658 47.7177C58.375 48.1452 56.8387 48.8366 56.3047 48.1777C55.7707 47.5188 56.9531 44.9476 57.1374 44.2799C58.2447 40.3319 59.4619 36.4871 60.5676 32.6401C52.8133 34.9169 45.3807 33.0745 37.8067 29.5848C37.0596 29.2408 34.985 28.4118 34.7962 27.681C34.5383 26.6425 37.587 25.8376 38.234 25.5527C42.2425 23.7827 46.0016 22.1603 49.8945 20.6004C48.5872 19.6152 47.3558 18.5332 46.2106 17.3635C45.8354 16.8866 45.4175 16.4449 44.962 16.0439C44.4984 15.7514 42.6249 16.0898 41.7661 16.1315C27.8675 16.926 14.2437 17.5906 0.276126 18.3059C-0.673726 18.3573 -1.7274 18.4493 -2.92137 18.4945C-3.76321 18.5214 -5.68228 18.7504 -6.05901 18.4319C-6.66598 17.9062 -6.6435 15.5792 -6.07785 15.0867C-5.67057 14.732 -3.85516 14.7723 -3.02317 14.7341C12.0931 14.0131 27.6252 13.1985 42.5195 12.6907C40.5409 9.11901 39.0577 5.29466 38.1105 1.32293C37.8895 0.520845 36.9156 -1.77396 37.7806 -2.36812C38.3262 -2.72385 40.7342 -1.18063 41.2726 -0.893573C44.7932 1.01359 48.2316 3.11176 51.6704 4.97075C51.6029 2.79171 51.2837 0.563386 51.6609 -1.66469C52.1099 -3.91949 52.7625 -6.12892 53.6106 -8.26582C54.7484 -11.3451 56.124 -14.7908 59.4196 -17.9391C60.5066 -18.9751 62.2085 -20.4472 62.9001 -19.9156C63.2938 -19.612 63.2477 -18.637 63.3424 -18.0829C64.059 -13.8335 64.6112 -9.59008 65.2419 -5.4051C70.9987 -11.5519 78.7191 -12.6455 84.9383 -12.939C85.9841 -12.9944 87.0728 -12.9777 88.1784 -12.9758C89.2566 -13.0598 90.3412 -13.001 91.404 -12.8008C91.5673 -12.7421 91.708 -12.6334 91.8059 -12.4901C91.9039 -12.3469 91.9542 -12.1764 91.9497 -12.0029ZM78.0466 -10.8366C75.0817 -10.2439 71.7564 -9.43688 68.5505 -6.89379C67.414 -6.09286 66.4089 -5.12025 65.5709 -4.01077C65.0978 -3.24068 65.0305 -1.65042 64.8791 -0.613556C64.3343 2.96393 64.3502 6.35152 65.8496 9.88943C65.8989 9.94599 65.9679 10.0252 65.9505 9.89109C65.9552 8.55168 66.286 7.23354 66.9142 6.05057C67.5423 4.8676 68.4491 3.85532 69.5561 3.10125C71.1781 1.97942 72.9734 1.13176 74.8703 0.592126C75.7254 0.344973 76.5981 0.16358 77.4809 0.0494436C78.2107 -0.0490082 79.578 0.0135073 80.0719 -0.287309C80.5527 -0.700739 80.9814 -1.17098 81.3489 -1.6877C84.4082 -5.18722 87.2572 -8.33442 90.2674 -11.6619C86.1738 -12.0279 82.0481 -11.7569 78.0375 -10.8585L78.0466 -10.8366ZM93.0849 6.66141C87.378 0.770178 79.7213 -0.598629 73.1116 2.50151C71.5901 3.20983 70.1275 3.75741 68.8166 5.18735C67.2822 6.85172 66.5752 8.62109 67.0139 10.7354C67.415 10.6249 67.7896 10.975 68.1899 10.8751C68.7985 10.2152 69.4776 9.62385 70.2149 9.11171C75.404 6.10485 81.083 9.78257 85.6997 14.5246C90.1192 14.6544 94.8875 14.7392 99.2556 14.8441C99.4574 14.8474 99.8284 14.8624 99.9841 14.6871C97.488 11.8778 95.6019 9.24354 93.0757 6.63951L93.0849 6.66141ZM61.8651 -18.4773C57.0217 -14.5481 55.5281 -10.4726 53.9253 -5.89429C52.9757 -3.219 52.5351 -0.389652 52.6262 2.4477C52.6629 3.30086 52.7066 4.82435 52.9975 5.30697C53.5514 6.2171 54.7336 6.95797 55.6112 7.64591C57.6165 9.31157 59.8647 10.6609 62.2779 11.647C62.6509 11.7897 63.4989 12.1354 63.5135 11.9237C62.5942 10.9903 61.8832 9.87258 61.4274 8.64432C60.9716 7.41606 60.7813 6.10513 60.869 4.79796C61.2861 1.50467 62.5285 -1.62986 64.4808 -4.31465C63.7372 -9.09755 62.9562 -13.8777 62.08 -18.6645L61.8651 -18.4773ZM88.1397 21.3013C86.8344 17.7236 84.1442 13.1838 80.3273 11.5645C77.8278 10.4987 74.4429 10.2437 72.1296 11.8702C71.4626 12.3999 70.8679 13.0148 70.3606 13.6991C71.1675 13.9515 71.9545 14.2635 72.7151 14.6326C76.1552 16.8585 76.8988 20.7164 77.3574 23.3903C77.6324 24.9613 77.6882 26.5628 77.5232 28.1492C77.4633 28.7086 77.183 29.3803 77.3663 29.7279C77.7169 30.1598 78.0994 30.5648 78.5107 30.9393C81.2494 34.0844 83.952 36.9824 86.6208 40.1385C89.3853 34.2104 90.448 27.6755 88.106 21.2512L88.1397 21.3013ZM74.6211 9.20334C75.3195 9.25157 76.2341 9.7879 76.8047 9.60934C76.0867 9.45874 75.1424 8.96822 74.5972 9.16449L74.6211 9.20334ZM71.7675 9.56979C72.6889 9.62279 73.8452 10.2768 74.6353 9.76787C73.6988 9.54901 72.5417 8.90555 71.7436 9.53092L71.7675 9.56979ZM62.7925 1.81012C63.288 0.93526 63.6323 -0.0169179 63.8111 -1.00632C63.2797 -0.160288 62.9251 0.784544 62.7686 1.77125L62.7925 1.81012ZM69.8553 10.4691C70.7723 10.5856 71.9318 11.1176 72.7443 10.3603C71.7602 10.2923 70.8576 9.42723 69.8314 10.4303L69.8553 10.4691ZM61.9249 6.44453C62.4642 4.87093 63.5806 3.33187 63.4899 1.72007C62.4328 3.24728 61.655 4.80973 61.9249 6.44453ZM68.8786 11.449C69.4321 11.9019 70.0501 11.6522 70.6034 11.8765C70.7719 11.6701 71.2282 11.4517 71.2103 11.2485C70.4677 11.378 69.5023 10.5776 68.8842 11.4441L68.8786 11.449ZM62.6621 9.16426C63.0306 7.60013 64.0001 5.80104 63.4462 4.35395C62.9866 5.92774 61.5203 7.45328 62.6677 9.15932L62.6621 9.16426ZM69.6913 12.3823C69.7319 12.5301 69.7918 12.6719 69.8695 12.804C70.0055 12.6848 70.1047 12.5294 70.1556 12.3559C70.0016 12.4303 69.8566 12.298 69.6969 12.3774L69.6913 12.3823ZM71.8111 15.2506C72.2348 16.2741 72.3172 17.5451 73.5357 18.4533C72.9033 17.3729 73.2013 15.7507 71.8168 15.2457L71.8111 15.2506ZM74.9833 20.6638C75.0325 20.7204 75.1015 20.7995 75.0841 20.6654C74.8668 19.5021 74.8956 18.0846 73.64 17.0197C74.1882 18.2431 74.2481 19.4541 74.9889 20.6589L74.9833 20.6638ZM70.1058 14.6172C70.6002 15.3106 70.8155 16.4259 71.7068 16.6842C71.3017 15.8534 71.2788 14.4909 70.1115 14.6123L70.1058 14.6172ZM63.0594 10.0317C63.3918 10.2992 63.4413 10.8129 63.8228 10.9084C64.0065 9.63454 64.6036 8.37861 63.9344 7.06178C63.5932 8.03648 63.3012 9.02768 63.0594 10.0317ZM65.8576 14.2387C66.2645 14.5264 66.7577 14.6661 67.255 14.6347C67.7524 14.6032 68.224 14.4026 68.5915 14.0661C69.3734 13.1365 68.1332 11.8494 67.0117 11.6922C65.6938 11.9148 65.0156 13.4204 65.866 14.2712L65.8576 14.2387ZM69.0269 15.2285C69.367 15.2307 69.6879 15.5878 70.0273 15.6006C69.834 15.3138 69.6663 15.0104 69.5263 14.6941C69.3946 14.9083 69.0061 15.0676 69.0353 15.261L69.0269 15.2285ZM64.9868 11.9139C64.7318 11.1413 65.4974 10.216 64.6854 9.58041C64.6857 10.346 63.7746 11.6068 64.9952 11.9463L64.9868 11.9139ZM65.5864 11.3917L65.807 11.1996C65.738 11.1204 65.6297 10.996 65.5583 11.0283C65.6539 11.1837 65.5132 11.2963 65.5948 11.4242L65.5864 11.3917ZM68.7945 40.1461C72.0587 37.1445 75.4398 33.0665 76.0375 29.801C76.3263 28.2366 75.8938 26.4152 75.4189 24.6705C74.5781 21.6034 72.2351 17.348 68.8817 16.0212C69.6507 20.5135 70.1645 25.7749 65.5658 29.7795C64.3939 30.7988 63.0641 31.6209 61.6284 32.2136C60.194 37.2022 58.8231 42.1953 57.4572 47.194C61.0949 45.558 65.2828 43.423 68.803 40.1786L68.7945 40.1461ZM67.4801 18.5347C67.4344 17.58 68.2283 16.63 67.7347 15.6177C67.3515 16.5482 66.945 17.7376 67.4801 18.5347ZM66.4999 15.6388C66.6227 15.8936 66.7236 16.1585 66.8014 16.4305C66.9393 16.2024 67.0107 15.9403 67.0078 15.6739C66.8184 15.799 66.6645 15.5651 66.4886 15.6486L66.4999 15.6388ZM63.7655 13.047C63.9626 13.2732 64.1565 13.3132 64.3386 13.6022C64.3838 13.5628 64.446 13.5086 64.5009 13.5603C64.6593 13.4223 64.5962 13.2585 64.5803 13.1032C64.276 13.1991 64.0204 12.9742 63.7112 13.0644L63.7655 13.047ZM67.6009 22.02C67.9867 21.3938 68.2354 20.6931 68.3307 19.9638C68.426 19.2345 68.3656 18.4934 68.1536 17.7892C68.1016 19.1572 67.3421 20.7634 67.5918 21.9981L67.6009 22.02ZM64.5135 15.3793C64.7827 15.2544 65.0176 15.547 65.284 15.3847C65.4214 15.1656 65.2089 14.9329 64.9555 14.6762C64.7969 14.8938 64.5148 15.1295 64.5044 15.3574L64.5135 15.3793ZM61.2793 12.3276C61.8224 12.9518 62.4196 13.5267 63.0639 14.0458C63.2975 13.9998 63.5253 13.9282 63.7432 13.8322C63.0883 13.0896 62.2276 12.5582 61.2702 12.3057L61.2793 12.3276ZM62.7209 21.1673C58.9096 24.0088 54.1597 23.3511 50.7907 21.1727C45.9761 23.3761 41.1841 25.5597 36.3608 27.5817C41.9937 30.7725 48.4467 32.712 54.53 32.5367C56.4741 32.4849 59.8126 32.3327 61.6431 30.7686C66.2764 26.8036 67.5762 20.8381 65.7654 16.4971C65.301 18.3466 64.2248 19.9847 62.7118 21.1454L62.7209 21.1673ZM64.8431 16.5344C65.5162 15.9483 63.7505 15.4967 63.4515 16.5925C63.9212 16.4123 64.4592 16.8588 64.834 16.5126L64.8431 16.5344ZM55.3735 12.6268C54.1474 11.1783 53.1517 9.54947 52.4215 7.79775C52.2885 7.2367 52.102 6.68973 51.8644 6.16437C51.3567 5.80562 50.8078 5.50892 50.2296 5.28059C46.2311 3.13309 42.4482 1.17593 38.6181 -0.869559C40.2082 4.89684 41.8906 12.4825 48.4696 18.0618C49.2211 18.8207 50.0767 19.4687 51.0109 19.9864C51.9296 20.1461 52.8692 20.1426 53.7867 19.9761C57.5641 19.5282 61.05 17.7227 63.5953 14.8959C63.6292 14.8663 63.6632 14.8368 63.6075 14.7957C60.7154 15.6433 57.6787 15.2741 55.3735 12.6268ZM58.668 11.1106C59.5448 12.1175 60.1555 13.1272 61.0259 14.1496C61.4354 14.2343 61.8584 14.229 62.2656 14.1342C61.069 13.2169 59.9247 11.3888 58.6793 11.1008L58.668 11.1106ZM61.9055 17.8095C62.551 17.8541 64.407 18.6149 64.5227 17.1716C63.6701 17.2775 62.8492 16.7689 61.8885 17.8243L61.9055 17.8095ZM67.141 24.5985C68.2289 23.7805 68.2106 22.8915 68.2508 22.0011C67.7485 22.7992 67.3776 23.6729 67.1523 24.5887L67.141 24.5985ZM56.1992 9.60039C57.3748 11.0532 57.9472 12.4643 58.9682 13.9224C59.299 13.9825 60.1278 14.3747 60.1448 14.0515C58.8966 12.5725 57.7209 10.2743 56.2105 9.59054L56.1992 9.60039ZM59.8064 19.2594C60.8835 19.2911 61.9581 19.3813 63.0254 19.5296C63.1751 19.2103 63.7155 18.9287 63.6535 18.5948C62.4271 18.6483 60.9595 18.0366 59.8177 19.2496L59.8064 19.2594ZM53.587 7.54865C54.4294 9.36122 55.8913 12.0566 57.9163 13.2969C56.5632 11.4118 55.5059 8.8614 53.5757 7.5585L53.587 7.54865ZM65.138 28.6601C66.1992 27.6775 67.0213 26.4649 67.5413 25.1153C66.3496 26.2823 65.874 27.4722 65.1267 28.67L65.138 28.6601ZM56.7037 20.539C58.5985 20.4307 60.3911 21.7241 62.3848 20.1074C60.5438 19.8207 58.4469 19.4686 56.7037 20.539ZM53.522 21.1912C55.4145 22.0396 57.6209 22.3462 59.4676 21.3945C57.4728 21.4109 55.5292 20.6865 53.5121 21.1798L53.522 21.1912ZM42.6938 14.1701C42.3845 13.952 42.6013 13.5842 42.3087 13.5108C42.1961 13.6785 42.1076 13.4969 42.0001 13.5905C42.0552 13.667 42.0814 13.7605 42.0739 13.8544C42.0665 13.9484 42.0259 14.0366 41.9594 14.1034C41.5722 14.3212 41.5358 13.6169 41.3298 13.5974C41.1238 13.5778 41.2929 13.9776 41.0371 14.1407C40.7696 14.1647 40.6404 13.8794 40.4879 13.6243C40.3529 13.6636 40.2139 13.6879 40.0736 13.6967C40.2312 13.8777 40.0975 14.0439 39.9376 14.203C39.5037 14.173 39.6652 13.6047 39.1965 13.6946C39.0268 13.8424 39.2367 14.0376 38.9604 14.1887C38.8964 14.1151 38.8199 14.2215 38.7487 14.1741C38.6291 14.0516 38.5361 13.9058 38.4753 13.7458C37.9624 13.7051 38.0507 13.9664 37.7206 14.2041C37.4209 14.1568 37.4494 13.7441 37.1846 13.8055C36.9199 13.867 37.0738 14.1009 36.8419 14.3029C36.4477 14.2384 36.3986 13.7938 35.999 13.8831C35.7954 14.0605 36.0369 14.2579 35.7063 14.4264C35.4009 14.3841 35.3823 14.1914 35.2778 13.9343C35.1364 14.0575 35.0286 14.0022 34.9143 13.9624C34.7051 14.1446 34.9889 14.345 34.7169 14.5123C34.6672 14.5311 34.6141 14.539 34.5611 14.5353C34.5081 14.5317 34.4566 14.5166 34.41 14.4911C34.2037 14.3227 34.3465 14.1784 34.1931 14.0136C33.9898 14.0714 33.7775 14.091 33.5671 14.0714C33.3578 14.2536 33.5322 14.4996 33.2244 14.5687C33.0184 14.5492 32.9146 14.2815 32.8402 14.1275C32.6045 14.1537 32.3653 14.1532 32.119 14.1787C32.1772 14.3369 32.2036 14.4929 32.0395 14.6357C31.8755 14.7786 31.544 14.4207 31.5544 14.1929C31.2572 14.2627 30.9724 14.1527 30.6538 14.3008C30.8115 14.4818 30.6834 14.6431 30.5179 14.8071C30.1694 14.7724 30.2617 14.5129 30.0253 14.2414C29.7889 14.2951 29.5457 14.3123 29.304 14.2926C29.1639 14.4743 29.3575 14.6738 29.0114 14.836C28.8054 14.8164 28.6509 14.5134 28.5828 14.3438C28.2915 14.329 27.992 14.4306 27.7114 14.3368C27.5135 14.5092 27.6802 14.7121 27.4131 14.885C27.1459 15.058 26.9903 14.6166 26.9845 14.3929C26.6586 14.4408 26.3301 14.4678 26.0007 14.4739C26.2014 14.6472 25.9845 14.7864 25.8155 14.9236C25.7192 14.8913 25.6333 14.834 25.5666 14.7574C25.4999 14.6808 25.4549 14.5878 25.4362 14.488C25.246 14.464 25.053 14.4823 24.8706 14.5413C24.6883 14.6004 24.5212 14.6989 24.3813 14.8299C23.8735 14.4067 23.4542 14.4734 23.2383 15.0593C22.9951 14.9627 22.8634 14.8685 22.8541 14.618C22.3932 14.6713 21.9844 14.5101 21.7409 15.11C21.4848 15.1242 21.3943 14.8947 21.2615 14.6622C20.9683 14.828 20.712 14.6136 20.4102 14.8267C20.5579 14.9964 20.4313 15.1365 20.3202 15.283C19.9988 15.3937 19.8797 15.0399 19.7767 14.7617C19.5545 14.7463 19.3235 14.858 19.1064 14.7686C18.9662 14.9503 18.9104 15.2973 18.6143 15.1971C18.4944 15.1035 18.4128 14.9693 18.3851 14.8198C17.9954 14.9204 17.6323 14.7891 17.2439 14.9483C17.3916 15.118 17.2177 15.2495 17.0586 15.398C16.7638 15.3564 16.7664 15.1652 16.6301 14.9059C16.2086 15.0044 15.8025 14.8806 15.3739 15.0052C15.5697 15.1729 15.3527 15.3121 15.1886 15.4549C14.8938 15.4133 14.933 15.2299 14.6395 14.9385C14.2511 15.0978 13.8853 14.929 13.4983 15.067C13.6707 15.265 13.5517 15.4482 13.3057 15.6226C13.2565 15.5661 13.207 15.5892 13.1563 15.5538C12.914 15.367 13.0421 15.2057 12.8845 15.0247C12.4982 15.1522 12.133 15.0525 11.7432 15.1532C11.891 15.3229 11.77 15.4581 11.6638 15.6102C11.3398 15.6835 11.2219 15.3883 11.1147 15.0938C10.7605 15.1829 10.3934 15.2098 10.03 15.1731C9.83203 15.3455 10.1341 15.5896 9.88745 15.7746C9.83814 15.795 9.78479 15.8038 9.73154 15.8001C9.67829 15.7965 9.62659 15.7805 9.58057 15.7534C9.33263 15.5715 9.46638 15.4053 9.30876 15.2243C8.96733 15.2606 8.62361 15.2707 8.28064 15.2543C8.077 15.4316 8.40814 15.6405 8.08811 15.8098C8.0487 15.7646 7.98376 15.7814 7.93138 15.8469C7.76959 15.6962 7.64098 15.5135 7.55376 15.3104C6.93707 15.3104 6.7805 15.2676 6.53413 15.9099C6.43293 15.9426 6.323 15.935 6.22726 15.8887C6.04994 15.685 6.33038 15.5502 6.05635 15.3612C5.82316 15.5046 5.619 15.3044 5.38435 15.4689C5.3119 15.6713 5.50967 15.8869 5.14091 16.0688C5.09166 16.0122 5.03655 16.0403 4.98582 16.0049C4.74354 15.8181 4.86674 15.6512 4.71405 15.4758C4.49109 15.471 4.26738 15.4769 4.04935 15.4777C3.87965 15.6255 3.99915 15.8198 3.70173 15.9694C3.60059 15.9208 3.51043 15.8522 3.43675 15.7675C3.36307 15.6829 3.30741 15.5842 3.2732 15.4773C3.04355 15.5672 2.792 15.585 2.55196 15.5285C2.37095 15.6861 2.51801 15.8664 2.31018 16.0275C2.19219 16.0158 2.0813 15.9657 1.99465 15.8847C1.908 15.8038 1.85038 15.6966 1.8307 15.5797C1.36562 15.6167 1.29941 15.5749 0.975153 16.0363C0.852791 15.894 0.696546 15.7848 0.520858 15.7187C0.345164 15.6527 0.155678 15.632 -0.0301261 15.6585C-0.193625 15.8705 -0.0524375 16.1355 -0.423736 16.2002C-0.567202 16.0624 -0.678977 15.895 -0.751358 15.7097C-1.05254 15.7227 -1.35215 15.7607 -1.64705 15.8233C-1.66787 15.9707 -1.44033 16.1406 -1.63119 16.2869L-1.84614 16.4741C-2.15137 16.352 -2.21557 16.0499 -2.26572 15.7753C-2.58776 15.8406 -2.9161 15.8696 -3.24459 15.8618C-3.20405 15.937 -3.19037 16.0238 -3.20584 16.1078C-3.2213 16.1918 -3.265 16.268 -3.32967 16.3238C-3.59534 16.4756 -3.81953 16.1039 -3.80911 15.876C-4.01802 15.8988 -4.22473 15.8898 -4.4351 15.9338C-4.37199 16.0976 -4.3505 16.248 -4.51454 16.3908C-4.67858 16.5337 -4.96772 16.1787 -5.12023 15.9237C-5.34191 15.9775 -5.55902 15.8881 -5.79222 16.0314C-5.74884 16.481 -5.74778 16.9277 -5.67757 17.3738C10.862 16.5969 27.4148 15.6295 43.9413 15.043C43.4857 14.6341 43.3187 13.974 42.9043 13.738C42.9315 13.7784 42.9473 13.8254 42.9499 13.874C42.9526 13.9226 42.942 13.971 42.9195 14.0141C42.8969 14.0572 42.8631 14.0934 42.8216 14.1188C42.7801 14.1443 42.7325 14.1581 42.6839 14.1588L42.6938 14.1701Z" fill="white"/>
<path fill-rule="evenodd" clip-rule="evenodd" d="M32.5353 66.5672C33.2254 68.045 33.7279 69.7756 32.2313 70.9694C31.4758 71.4711 30.564 71.682 29.665 71.5631C30.7236 73.5554 28.2577 75.8518 26.3328 75.2404C27.8291 77.4384 26.0152 80.9176 23.2688 80.1166C23.4907 81.445 23.9091 83.2389 22.566 84.2892C21.6611 84.9976 20.6604 84.7849 19.6689 84.8228C20.7835 87.005 19.0022 91.0128 15.9768 90.6337C16.9907 92.7346 16.07 96.52 12.7198 96.8415C12.745 98.401 13.0311 100.34 11.254 101.669C6.55478 105.204 0.597821 100.008 -4.12139 95.0564C-10.13 88.7615 -15.7236 80.9217 -15.3075 75.3577C-15.1838 73.7979 -14.3868 71.5722 -12.335 71.0388C-11.1303 70.8304 -9.89178 71.101 -8.88367 71.7928C-8.20655 69.5323 -5.20544 68.2616 -3.50139 68.8365C-3.92167 66.0696 -0.486492 64.7491 1.51173 64.7596C1.87864 64.7583 2.88902 65.062 3.03955 64.9608C3.13418 64.6748 3.21285 64.3839 3.27519 64.0892C4.09754 61.8813 6.83363 61.6768 8.39027 62.2309C8.51056 59.7192 11.9586 58.5964 13.6323 60.073C13.8136 59.5273 13.6206 59.0887 13.8319 58.646C14.5995 56.9234 16.9152 56.9557 18.185 57.3518C18.5384 55.3134 21.3007 54.4994 22.6715 55.4341C22.5006 53.1362 25.703 51.7997 27.7058 51.0502C30.1848 50.202 32.7063 49.4835 35.2601 48.8978C36.5351 48.6031 37.9698 48.2291 38.9973 48.4382C40.6695 48.7823 41.1565 50.1982 40.9336 51.6554C40.5967 53.8385 39.563 55.9521 38.6114 58.4914C38.1833 59.6101 37.8459 60.799 37.4454 61.9037C36.8274 63.6154 36.4092 65.2824 34.501 66.586C33.8484 66.6768 33.186 66.6705 32.5353 66.5672ZM39.8051 50.291C38.5144 48.8887 36.8352 49.7244 35.2954 50.0805C34.0854 50.3585 32.8399 50.6871 31.7413 50.9674C29.2413 51.6028 26.6198 51.996 24.5663 53.5554C24.3575 53.6947 24.1674 53.8603 24.0006 54.0479C22.9361 55.4524 25.2961 58.7679 26.6383 60.5034C28.4784 62.8793 30.5 64.9381 32.5582 65.5427C31.7235 64.9269 29.7999 63.8371 29.7721 62.7772C30.1671 62.5228 30.3577 63.0729 30.5584 63.2462C31.6942 64.1965 33.024 65.4952 34.2196 65.3492C33.6592 64.8426 32.1542 64.542 32.2849 63.5728C32.6141 63.4254 32.7676 63.8188 33.0276 63.9803C33.5476 64.3033 34.597 65.1201 34.9397 64.6227C34.7268 64.2412 33.5595 64.0542 33.5393 63.3458C34.139 63.0523 34.6706 63.8226 35.2324 64.0794C35.3625 63.9661 35.2674 63.8798 35.4596 63.7921C35.3209 63.3359 34.7521 63.4136 34.4385 62.9507C34.5213 62.8288 34.4024 62.7036 34.6171 62.5962C35.016 62.5174 35.368 63.1159 35.7669 63.0371C35.7028 62.9636 35.8315 62.8714 35.8373 62.7868C35.7653 62.5213 35.2374 62.5433 35.0083 62.166C35.1101 62.0773 34.9666 61.9238 35.1813 61.8164C35.3961 61.709 35.812 62.1524 36.1373 62.1376C36.1045 61.9971 36.2459 61.874 36.266 61.7372C36.0247 61.46 35.3833 61.4316 35.5009 60.9613C35.8356 60.5804 36.1132 61.0249 36.429 61.1477C36.593 61.0048 36.5405 60.8417 36.6142 60.6979C36.363 60.4095 36.0835 60.454 35.8296 60.1281C35.9371 60.0345 35.7694 59.9219 35.9566 59.8285C36.2281 59.5921 36.4897 59.961 36.7772 60.1085C36.9413 59.9656 36.917 59.7779 37.0134 59.6144C36.7474 59.3089 36.0258 59.2112 36.3557 58.7449C36.6856 58.2786 36.9468 59.1154 37.2838 58.9313C37.742 58.5323 36.4307 58.3514 36.8977 57.8254C37.1692 57.589 37.3923 58.1307 37.6543 58.0319C38.057 57.5121 36.8337 57.4436 37.2738 56.9211C37.5327 56.6359 37.7347 57.1762 37.9877 56.9757C38.0952 56.8821 38.0257 56.7337 38.1664 56.6212C37.9349 56.3553 37.3558 56.2728 37.7025 55.8715C37.9841 55.5666 38.1949 56.2085 38.473 55.8768C38.7511 55.5451 37.6452 55.3146 38.0286 54.9211C38.412 54.5275 38.4895 55.1762 38.7433 54.9651C39.2051 54.5132 37.8895 54.3958 38.3572 53.8592C38.6221 53.718 38.8446 54.1906 39.1203 53.9704C39.4298 53.492 38.4342 53.5137 38.6145 53.0583C38.7948 52.6029 39.1582 53.1915 39.4472 53.0095C39.8025 52.5608 38.8528 52.5325 38.9972 52.0587C39.2656 51.6359 39.4683 52.1656 39.7241 52.0025C39.9553 51.5028 39.0408 51.5035 39.1739 51.0395C39.4153 50.7 39.6178 51.001 39.8459 50.9317C39.8465 50.6925 39.7644 50.4955 39.8248 50.3136L39.8051 50.291ZM26.7414 62.2436C25.3367 60.7218 24.4959 58.8084 23.3258 57.4304C22.2667 56.2142 20.5023 55.5129 19.4511 56.9554C18.5881 58.1345 19.9823 59.6556 21.1274 61.1648C23.1832 63.9596 26.306 68.4709 28.8952 70.0851C29.7463 70.617 31.2778 70.7654 32.0507 69.7342C32.8237 68.7031 31.7667 67.2266 31.1834 65.9741C29.4961 65.0173 27.9975 63.7608 26.7611 62.2662L26.7414 62.2436ZM15.0324 58.814C13.8642 60.1794 16.5808 63.7216 18.1995 65.7632C19.0852 66.8717 19.8003 67.6016 20.6114 68.6358C23.037 71.6954 25.7414 75.0295 27.951 73.9806C27.4278 73.7432 26.9621 73.3955 26.586 72.9613C26.1664 72.5708 25.3576 72.0418 25.7574 71.5643C26.6063 71.8197 27.3652 73.148 28.1928 73.4816C28.3986 73.5809 28.0814 74.0162 28.3726 73.8024C28.6709 73.5658 28.8714 73.2275 28.9356 72.8522C28.9998 72.4769 28.9231 72.0912 28.7204 71.769C28.401 72.5444 26.5094 70.7603 26.6339 70.0353C27.3881 70.0448 28.0476 71.3503 28.7892 71.6195C28.1458 70.6979 27.0353 70.0736 26.128 69.1231C23.1396 65.9768 19.6243 61.5288 18.1716 58.547C17.209 58.321 15.8709 57.8352 15.0324 58.814ZM21.9864 77.2847C22.6423 77.4098 23.2513 78.2918 23.8997 78.6024C23.9858 78.8954 23.4981 78.9522 23.5085 79.0326C23.9736 78.9956 24.4255 79.1491 24.9001 78.9745C24.3346 78.6164 23.7954 78.2185 23.2864 77.7839C22.947 77.4627 22.2914 76.9496 22.6516 76.5067C23.0984 76.4259 23.3144 76.9937 23.6283 77.2971C24.0423 77.6925 24.671 77.9805 24.9934 78.3165C25.1461 78.4918 25.1386 78.6774 25.3283 78.7011C25.7514 78.1069 25.9542 77.3838 25.9016 76.6563C25.8489 75.9287 25.5443 75.2423 25.0401 74.7152C24.4933 74.0873 23.5835 73.6364 22.9043 72.925C20.1704 70.0763 17.6655 67.0165 15.4129 63.7739C14.96 62.9917 14.4619 62.2365 13.921 61.5124C13.0291 60.648 11.1148 60.0373 10.0463 61.0374C8.60936 62.3683 10.6004 65.1002 11.52 66.4875C14.3334 70.8604 19.5874 77.6135 23.3657 78.8686C22.8891 78.6868 21.6392 77.9253 21.9744 77.3052L21.9864 77.2847ZM19.1093 81.6102C19.9458 81.7371 20.695 82.9744 21.5272 83.1648C21.8585 83.294 21.3938 83.7882 21.6998 83.5914C22.8739 82.9867 22.8811 80.5736 22.1747 79.7167C21.5563 79.2096 20.9002 78.7502 20.2122 78.3424C15.3863 74.3093 11.4593 69.3095 8.6846 63.6654C6.68506 62.1344 3.42301 63.6422 4.34196 66.1937C5.1185 67.896 6.09457 69.4999 7.24962 70.9719C8.3544 72.5261 9.58725 74.2274 10.8621 75.7828C13.9866 79.5765 17.8762 84.146 21.2042 83.6848C21.2042 83.6848 21.3036 83.7076 21.2608 83.6355C20.8101 83.5406 18.8724 82.4233 19.0972 81.6307L19.1093 81.6102ZM-2.11498 67.3905C-3.09181 68.9871 -0.788073 71.9639 0.571922 73.9025C2.27087 76.3219 4.04917 78.5925 5.65729 80.6334C7.42212 82.9432 9.3892 85.0913 11.5352 87.0521C13.2674 88.5274 15.9243 90.4706 17.7712 89.1308C19.0364 88.2081 19.4729 85.6598 18.6027 84.5577C18.28 84.274 17.9161 84.041 17.5234 83.8665C14.846 82.2196 12.2586 79.2711 9.91383 76.35C7.94783 74.015 6.14475 71.5475 4.51739 68.965C4.0648 68.2054 3.53746 66.8346 3.20179 66.4606C2.1933 65.3595 -1.18142 65.8814 -2.12704 67.411L-2.11498 67.3905ZM5.45118 82.1556C2.68393 78.881 0.123489 75.4372 -2.21521 71.844C-2.50125 71.3671 -2.69857 70.3752 -3.1211 70.0271C-3.41829 69.7886 -4.41395 69.8102 -5.11987 69.9475C-9.78455 70.8268 -7.16129 75.3355 -5.33596 78.3111C-3.8732 80.6583 -2.26378 82.9109 -0.517303 85.0554C3.32723 89.893 7.4806 95.1081 11.3473 95.6994C12.0308 95.8322 12.7354 95.81 13.4092 95.6345C15.8499 94.7026 15.6743 92.3193 14.8969 90.49C15.01 90.3915 14.759 90.3316 14.6975 90.3752C11.4344 89.0494 8.27212 85.7263 5.43916 82.176L5.45118 82.1556ZM9.01368 96.0805C4.98239 94.1009 1.35386 89.2144 -1.94613 85.0365C-4.4301 81.8984 -6.74601 78.7135 -8.09989 75.6854C-8.54205 74.6979 -8.6351 72.8892 -9.37144 72.4662C-10.5418 71.7846 -12.3862 71.4712 -13.5813 73.1484C-14.9285 75.0277 -14.0499 78.2409 -13.0346 80.629C-10.1458 87.3729 -0.395564 99.0724 5.59963 101.251C7.07161 101.8 9.65367 101.978 11.0655 100.241C11.8156 99.3097 11.6461 98.224 11.4488 96.9239C10.5944 96.5937 9.80365 96.4966 9.00162 96.101L9.01368 96.0805Z" fill="white"/>
</g>
</svg>
