<svg width="296" height="280" fill="none" xmlns="http://www.w3.org/2000/svg"><mask id="a" style="mask-type:alpha" maskUnits="userSpaceOnUse" x="0" y="0" width="296" height="280"><rect width="296" height="280" rx="20" fill="#34B5E8"/></mask><g opacity=".4" fill-rule="evenodd" clip-rule="evenodd" fill="#fff" mask="url(#a)"><path d="M46.166 8.626c-.319-5.343 1.456-9.893 5.604-14.054 3.544-3.557 11.72-9.338 15.84-6.6 2.615 1.742 2.197 5.277 1.468 7.234a19.82 19.82 0 01-3.875 6.276c-3.487 3.833-10.315 7.636-15.492 9.01 1.261 1.953 3.194 2.734 5.106 3.38 1.913.646 4.074 1.495 4.496 4.027.277 1.642-.487 3.704-1.225 5.136a17.821 17.821 0 01-3.48 4.414c-3.047 2.956-7.83 4.716-11.821 5.908-3.722 1.107-8.095 1.867-11.83 3.005-4.291 1.308-9.073 4.16-10.752 7.327a11.49 11.49 0 00-1.05 5.332c.034 1.86.681 3.73 1.084 5.959.679 3.77-.099 7.746-.852 11.033a86.305 86.305 0 01-3.248 10.32 59.3 59.3 0 01-4.632 9.88c1.179 1.236.192 2.464-.371 3.848-1.727 4.27-3.542 8.532-6.29 12.495-1.59 2.296-5.161 6.074-7.995 4.045-1.517-2.792-.23-4.884.96-7.138a82.078 82.078 0 015.818-9.116 30.283 30.283 0 013.799-4.519c.264-.25.707-.384 1.055-.65.203-.149.314-.355.532-.435.218-.08.343.19.498-.048 1.813-3.077 2.857-6.068 3.964-9a71.13 71.13 0 002.6-9.376 33.1 33.1 0 00.977-4.77c.404-4.835-1.531-10.562-1.052-15.5.332-3.48 2.238-6.216 5.724-8.495 7.713-4.96 14.76-4.436 22.413-7.64 3.922-1.646 7.85-4.088 9.88-7.007.625-.901 1.226-2.628.332-3.904-.614-.874-2.278-1.247-3.394-1.872-1.795-1.01-4.042-2.581-4.246-5.209-1.89.897-4.492 1.418-6.754 2.778-1.743 1.04-4.5 3.214-4.017 4.783.534 1.733 2.703 3.147 2.983 5.08.345 2.305-1.695 4.921-4.022 6.57-2.584 1.843-6.072 2.83-8.704 3.691-2.824.92-5.9 1.883-8.682 3.603a54.862 54.862 0 00-3.978 2.676 21.173 21.173 0 00-2.91 2.997 11.701 11.701 0 00-3.071 6.808c-.356 2.502-.34 5.039-.944 7.437a25.207 25.207 0 01-5.35 9.977c-.416.495-.836 1.039-1.32 1.533-.56.454-1.092.943-1.59 1.464-.244.317-.238.837-.394 1.33a19.012 19.012 0 01-2.01 3.692 274.03 274.03 0 01-3.055 4.783 42.284 42.284 0 01-3.377 4.743c-1.108 1.303-3.075 3.417-5.256 3.749-1.376.201-2.847-.269-3.145-2.092-.262-1.642.705-3.46 1.615-4.97 1.919-3.082 4.829-5.74 7.484-8.683.557-.618 1.234-1.44 2.032-2.15.799-.711 1.488-1.678 2.32-2.03.832-.352 1.446.268 2.048.072a5.929 5.929 0 001.625-1.398c3.215-3.286 4.437-7.55 4.984-11.64.329-2.426.47-4.872.922-7.195a19.678 19.678 0 018.379-12.515c5.258-3.688 11.345-5.188 16.781-7.188 2.157-.787 7.65-2.687 6.792-5.029-.473-1.281-1.51-1.633-2.124-2.493-3.142-4.593-.025-8.287 4.501-10.477 2.517-1.13 5.144-1.818 7.692-3.202zM-18.16 87.43c.068 1.54 1.72 1.75 2.857 1.279 2.13-.88 3.283-2.454 4.369-3.867 2.631-3.368 4.917-7.403 6.92-10.684-1.184.174-2.49-.008-2.955-1.741-2.086 2.064-3.874 4.198-5.95 6.31.172.046.709.454.375.69-.334.234-.466-.348-.608-.44-1.96 2.411-5.164 5.391-5.021 8.43l.013.023zm22.248 14.368a65.639 65.639 0 006.43-12.942 2.704 2.704 0 01-2.894-1.773c-3.31 3.606-6.164 8.08-8.566 12.17-1.22 2.072-2.748 4.202-1.727 6.817 2.566 1.552 5.541-2.488 6.757-4.272zm-8.022-28.722c-1.457.476-2.29-1.88-.67-2.467-2.595-.144-1.36 3.985.66 2.449l.01.018zm1.25-1.948a27.201 27.201 0 004.138-4.703 26.181 26.181 0 003.66-6.828c1.636-4.874.467-10.34 3.649-14.777a25.899 25.899 0 016.404-6.01 32.768 32.768 0 018.867-4.227c1.53-.454 2.923-.95 4.396-1.495 3.086-1.131 6.125-2.306 7.967-4.776.782-1.04 1.69-2.257 1.491-3.557-.276-1.811-2.558-2.995-3.002-4.846a3.137 3.137 0 01.312-2.031c1.65-3.435 7.595-5.335 11.298-6.732-.062-.482-.124-.964-.188-1.436-3.81 2.023-8.77 3.003-11.215 5.794a4.996 4.996 0 00-.492 6.09c.585.906 1.694 1.488 2.25 2.625 1.776 3.65-5.101 5.903-8.442 7.118-5.423 1.97-11.953 3.587-16.82 7.655A20.05 20.05 0 006.647 45.1c-2.297 4.395-1.734 9.551-2.88 14.282-.965 4.07-2.537 8.256-6.783 11.202-.559.388-1.462.595-1.767 1.407.537.846 1.52-.388 2.083-.894l.017.03zm-.361 1.388a2.028 2.028 0 00-.715.611 2.02 2.02 0 00.705-.629l.01.018zm13.772 15.435c.297-.161.83-.567.344-1.01-.98.648-1.801-.03-2.03-.905-1.324 1.02.63 2.365 1.652 1.91l.034.005zM63.434 1.866a18.786 18.786 0 003.974-5.429c.883-1.788 1.974-4.196.775-6.376-2.147-3.95-8.384-.506-11.922 2.016-5.174 3.689-8.238 8.03-8.861 13a17.865 17.865 0 00.659 8.052c.605 1.679 2.48 2.722 3.69 3.38 1.436.758 3.512 1.053 3.98 3.345.68 3.347-3.015 6.57-6.757 8.803a45.367 45.367 0 01-12.066 4.695c-3.568.923-8.149 1.781-11.908 3.57-4.456 2.121-7.374 5.16-7.956 8.493-.582 3.332.316 7.122.812 10.937a26.07 26.07 0 01.184 5.409 35.556 35.556 0 01-1.024 5.095c-1.345 5.793-3.01 11.637-6.005 17.026-.452.823-1.463 1.795-.968 2.465.035.065.273.106.201-.04a47.12 47.12 0 004.73-9.786 95.313 95.313 0 003.31-10.207c.81-3.25 1.638-7.192 1.007-10.888-.374-2.104-.97-4.05-1.048-5.908a13.879 13.879 0 01.689-5.429c1.279-3.38 5.575-6.36 9.794-7.999 4.343-1.69 8.32-2.09 12.127-3.166 3.808-1.077 8.783-2.526 12.302-5.423 2.457-2.02 4.193-4.417 4.853-6.953.407-1.544.712-3.249-.939-4.475-2.384-1.782-6.158-1.578-8.277-5.096-1.292-2.152-.443-4.652.064-6.735a14.425 14.425 0 012.779-5.972 31.027 31.027 0 015.72-5.047c2.334-1.722 7.07-4.912 8.89-2.669 1.503 1.86-.192 4.32-1.15 5.687C61.947.674 55.243 4.517 49.26 7.368a5.934 5.934 0 00-.014 2.169c4.537-1.165 10.432-4.092 14.155-7.676l.033.005zm.598-5.98c.825-1.071 2.388-3.22 1.574-4.493-.968-1.513-4.013.203-5.807 1.362a46.827 46.827 0 00-5.272 3.988c-3.316 2.917-4.484 6.021-5.06 9.59-.06.031-.006.102.091.026 5.47-2.987 11.366-6.437 14.458-10.487l.016.015z"/><path d="M-1.405 104.561c.392-.298.747.171 1.034.261.288.09.685-.057.917.271a.491.491 0 00-.02.233 1.55 1.55 0 01-1.931-.765zm.991-.765c.58.146 1.454.056 1.739.594-.698.402-1.795.067-1.739-.594zm.971-.818c.576.11 1.192.083 1.684.493-.344.571-1.878.212-1.684-.493zm.77-.641c.368-.2 1.253-.073 1.418.414-.561.313-1.26.131-1.418-.414zm.773-.767a.926.926 0 011.004.347c-.165.489-1.18.179-1.004-.347zm.582-.571a.574.574 0 011.034.261.756.756 0 01-1.034-.261zm.718-.905a.812.812 0 01.975.293c-.171.563-1.143.191-.975-.293zm.744-.78c.353-.192.609-.131.769.182-.093.381-.777.284-.769-.182zm.528-.813c.291-.158.538-.184.683.152-.054.03-.078.112-.058.178-.342.232-.719.021-.625-.33zm.473-.772c.28-.191.5-.171.65.093-.06.44-.862.353-.65-.093zm7.745 13.427a.972.972 0 01-.351-.73.985.985 0 01.318-.745c1.384-1.29 3.198 1.34 1.093 1.869a1.246 1.246 0 01-1.06-.394zm1.155-.704c-.67-.867-.767.755 0 0zM4.66 76.56a1.184 1.184 0 01.387-1.749c1.348-.732 2.68 1.152 1.707 2.05a1.352 1.352 0 01-2.095-.3zm1.564-.403a.561.561 0 00-.78-.615c-.377.482.267.916.78.615zm-8.043-44.512c-.23-.252-.163-.442-.017-.583.98-.917.937 1.568.017.583zm4.571 6.487c.452-.584 1.095.174.719.502a.467.467 0 01-.719-.502zm20.516 30.779c-1.12-1.168.734-2.09 1.39-1.278a.947.947 0 01-1.39 1.278zm.828-.672c-.084-.155-.187-.145-.326-.047l.094.173.232-.126zm-2.077-17.921c-.714-.69-.49-1.38.022-1.728 1.274-.87 2.537.93 1.413 1.764a.992.992 0 01-1.435-.036zm1.062-.877c-.133-.244-.334-.288-.591-.125.007.127-.08.235.074.406.235.05.356-.194.534-.29l-.017.009zm2.685-26.463c-2.048 1.667-3.596-1.762-1.43-2.347 1.16-.315 2.354 1.33 1.43 2.347zm-1.498-1.34c-.477.466.33 1.09.847.878a.615.615 0 00-.829-.888l-.018.01zm9.779-12.306a1.143 1.143 0 01.142-1.793c1.531-1.117 3.455 1.446 1.187 2.186a1.352 1.352 0 01-1.329-.393zm1.558-.7c-.05-.49-.51-.685-.968-.367-.225.591.508.724.968.366zm22.724 41.821a.426.426 0 01-.038-.749c.94-.65.921 1.384.038.749zM32.052-.37c.04-.876 1.207-.257.706.208-.188.179-.535.19-.706-.209zM54.19 34.992a.947.947 0 01.032-1.356c1.376-1.233 2.8 1.118 1.314 1.74a1.04 1.04 0 01-1.347-.384zm1.21-.504c-.06-.436-.632-.371-.615-.042.172.076.34.215.598.052l.017-.01zM39.65 1.156a.406.406 0 11.689-.374.453.453 0 01-.689.374zm28.845 51.581c-1.14-1.742 1.384-3.513 2.724-2.25.81.769.824 2.408-.075 3.02-.996.702-2.062.127-2.649-.77zm2.393-.254c.895-.901-1.31-2.411-1.814-.875a1.108 1.108 0 001.814.875zM66.33 25.194a1.98 1.98 0 011.933-3.282 2.34 2.34 0 011.493 1.643 2.163 2.163 0 01-.543 1.834 2.467 2.467 0 01-2.883-.195zm.332-1.443c-.044 1.109 1.537 1.258 2.24.568.502-1.68-2.185-2.052-2.24-.568zm-5.164-8.131c.28-.42.96-.329.953.252-.291.428-.965.348-.953-.252zm10.739 15.374c-.06-.112-.235-.433.034-.618.947-.622.732 1.503-.034.618z"/></g></svg>