<svg width="296" height="280" fill="none" xmlns="http://www.w3.org/2000/svg"><mask id="a" style="mask-type:alpha" maskUnits="userSpaceOnUse" x="0" y="0" width="296" height="280"><rect width="296" height="280" rx="20" fill="#ECBC1F"/></mask><g opacity=".4" fill-rule="evenodd" clip-rule="evenodd" fill="#fff" mask="url(#a)"><path d="M31-16.305c1.13-1.69 3.16.14 4.54.87a24.04 24.04 0 013.29 1.74 33.898 33.898 0 013.29 3.58c6.48 7 12.86 14.52 19.44 21.76.89 1 2.92 2.84 3 3.77.09 1.13-1.06 2.45-1.94 3.19a7.13 7.13 0 01-2.62 1.47c-1 0-3-2.82-3.58-3.48-6.79-7.24-13.31-14.7-20-22.24a38.848 38.848 0 01-3.38-3.58c-1.29-1.96-1.75-4.08-2.04-7.08zm1.93 3a1.51 1.51 0 001.26-1.36 4 4 0 00-1.84-.87c.14.78.39 1.46.56 2.23h.02zm.48 1.16a10 10 0 001.26 2.51 6.9 6.9 0 003.33-3.09c-.86-.53-1.79-1-2.71-1.45a3.001 3.001 0 01-1.9 2.03h.02zm1.94 3.67c8.53 8.78 16.59 18 24.95 27a5.25 5.25 0 002.9-2.71 1.41 1.41 0 00-.48-.49c-.49.64-.83 1.44-1.74 1.65-.2 0-.2-.26-.29-.39.34-.68 2-1.55 1.16-2.22-.35.39-.44 1-1.16 1.06 0-.13-.17-.09-.2-.19 0-.74.92-1.07.78-1.65-.54-.3-.5.7-1.26.49 0-.1-.08-.12-.1-.2-.13-.7.9-.68.49-1.35-.57 0-.52.58-1.07.58-.14-.08-.3-.14-.29-.39.07-.53 1-.63.49-1.16-.48-.21-.49.78-1.26.58 0-.09-.08-.11-.1-.19-.14-.69.81-.7.58-1.16-.42-.25-.41.65-1 .58 0-.19-.38-.08-.29-.39 0-.54.9-.78.38-1.26-.5.05-.49.61-1 .68 0-.18-.32-.07-.29-.29-.05-.62.86-.89.38-1.35-.45.09-.41.68-1 .67-.1-.12-.27-.19-.29-.38.11-.44.54-.55.58-1.07-.36-.23-.48.46-1 .39-.14-.08-.31-.14-.29-.39.02-.25.52-.38.48-.87a.49.49 0 01-.29-.29c-.34.15-.43.54-.87.58-.8-.39.38-1 .19-1.35-.1 0-.15-.11-.19-.19-.32-.17-1 1-1.26.09 0-.47.83-.69.39-1.06-.44-.37-.42.58-1 .48-.14-.08-.3-.14-.29-.38.11-.43.88-.73.39-1.16-.42.09-.41.61-.87.67 0-.18-.32-.06-.29-.29-.12-.63.73-.71.39-1.25-.43-.28-.55.45-1 .48 0-.18-.32-.07-.29-.29-.05-.63.8-.72.29-1.26-.39-.21-.44.63-1.16.39a.48.48 0 00-.1-.29c0-.45.55-.42.58-.87a.52.52 0 01-.29-.29c-.44 0-.35.55-.87.48-.14-.08-.3-.14-.29-.39 0-.44.73-.51.49-.87-.42-.29-.49.44-1 .39-.79-.44.37-.89.19-1.26-.36-.22-.46.54-1 .49 0-.19-.37-.08-.29-.39.08-.31.55-.42.59-.87-.42-.25-1.11.78-1.36-.1.09-.36.6-.31.58-.77-.44-.48-.58.52-1.35.29 0-.18-.11-.21-.1-.39.06-.39.81-.49.58-.87-.32-.19-1 .89-1.26 0 0-.48.61-.36.58-.87-.43-.5-.53.41-1.16.29-.84-.41.54-.87.29-1.26-.41-.2-.48.65-1.16.49 0-.1-.08-.12-.09-.2-.05-.59.45-.64.58-1.06-.36-.23-.48.45-1 .39-.14-.09-.31-.15-.29-.39 0-.42.76-.54.48-1-.28-.46-.81 1-1.35.29 0-.61.55-.6.58-1.16-.49-.31-.46.61-1.16.39 0-.1-.08-.12-.1-.19-.13-.62.72-.66.39-1.16-.43-.23-.44.69-1.16.48-.05-.14-.14-.24-.2-.39.2-.36.81-.57.59-1.06-.53.09-.52.71-1.17.68 0-.13-.17-.09-.19-.2-.08-.78 1-.77.48-1.45-.47.05-.39.64-1 .58-.65-.48.21-.79.29-1.35-.19 0-.13-.27-.39-.19-.34 1.61-1.83 2.37-3.16 3.3h.02zM16.1 4.074c.36-3 4.67-6.62 7.25-3.86 2.78 2.95-.19 8.23-2.32 9.86 2.81.83 6 2.14 6.87 4.84 1.67 5-6 4.78-8.22 2.32.94 3.69-.5 9.08-4.16 7.54-2.16-.91-2.85-4.56-2.32-7.74-2.61 1.86-9.77 2.44-9.77-2.41a5.37 5.37 0 016.48-5.13c-1.07-1.6-3.14-3.46-2.71-7a3.82 3.82 0 013.39-3.29c2.98-.06 4.55 2.87 5.51 4.87zm-.39 5.61c-.15-3.22-1.05-6.29-2.8-7.93-2.06-1.91-4.66-.59-4.26 2.61.4 3.2 3.75 5.67 6 6.58.16-.57.79-.72 1.06-1.22v-.04zm5.22-1.74a7.74 7.74 0 001.94-3.87c.21-1.9-.43-3.54-2.32-3.28-2.89.39-3.71 4.72-3.39 7.73.05.46-.12 1.14.39 1.36 1.26.47 2.49-.81 3.38-1.9v-.04zm-6.57 4.16c-1.86-.35-3.85-1.76-6.1-1.45a4 4 0 00-3.28 3.38c-.25 1.92 1.1 2.76 2.61 2.91a7.38 7.38 0 007.25-4 1 1 0 01-.48-.8v-.04zm1.25.1c.72.4 1.84.11 1.65-1-.86-.56-1.51.34-1.65 1.04v-.04zm8.61 5.41c.79 0 2.11-.27 2.32-1 .34-1.1-.73-2.46-1.35-3-1.36-1.19-4.52-2.51-6.48-2.13a3 3 0 00-.48 1.26 6.4 6.4 0 005.99 4.91v-.04zm-10 .78c-.09 1.95.77 5.05 2.23 5.12 1.23.07 1.82-1.76 1.93-2.9.25-2.66-.81-6.57-2.13-7.06-.66 1.36-1.88 2.4-1.99 4.88l-.04-.04zm15.222-9.828c2.61-.79 2.4 3.51 0 2.9-1.2-.3-1.27-2.51 0-2.9zm.49 1.74c.11-.15.31-.2.29-.48-.13 0-.19-.14-.39-.1-.2.04-.17.58.1.58zm54.352 7.159c2.22-2.15 8.12-2.29 8.12 1.93 0 3.25-3.63 5.51-7 5.81 2.6 1.37 4.14 8.56.19 9.76a3.801 3.801 0 01-1.54.1c-2.72-.38-3.82-3.35-4.64-5.9-1.33 2.19-3 5.9-6.48 5.9a4 4 0 01-3.39-2c-1.72-2.83 1-6.77 3.39-7.74-2.55-1.27-6.05-3-5.32-7a4.07 4.07 0 013.57-3c2.6-.3 4.57 1.39 5.71 2.9-.44-4 .59-7.92 3.77-8.31 3.68-.44 4.68 3.98 3.62 7.55zm-2.8-6a2.408 2.408 0 00-1.84.58c-2.05 1.77-1.89 7.14-.39 9.38a3.779 3.779 0 011.65.2c1.42-1.73 4.05-9.13.58-10.16zm-11.13 5.61a2.58 2.58 0 00-1.25 1.94c-.27 3.34 4.7 5.88 8.12 4.83-.06-.83.44-1.1.68-1.64-1.19-2.06-3.74-7.13-7.55-5.13zm20.51 2.71c.21-1.79-1.13-2.48-2.61-2.42-3.12.14-4.78 3.3-6.1 5.32a2.5 2.5 0 01.29 1.26c3.7.13 8.07-1.33 8.42-4.16zm-9.82 3.58c-.55-.72-2-.76-2.22.29-.07.33.15.7 0 1.26 1.06.75 2.81 0 2.22-1.55zm-3.48 2c-1.76.4-4.05.67-5.51 2.13a4.7 4.7 0 00-1.45 4 3.081 3.081 0 001.93 2 3.56 3.56 0 003-1.16 12.64 12.64 0 003.19-6.19c-.58-.07-.68-.6-1.21-.75l.05-.03zm2.81 1.06a8.21 8.21 0 001.16 4.65c.57 1 1.77 2.69 3.19 2.61 2.66-.15 2.1-4.63.87-6.29-.93-1.26-2.33-1.53-3.48-2a3.47 3.47 0 01-1.79 1.06l.05-.03zm-93.673.811c-1-4.13-1-7.57 1.45-9.87a9.35 9.35 0 015.8-2.32 8.52 8.52 0 014.26 1c2.78 1.32 5.22 3.85 7.44 5.9a41.582 41.582 0 016.29 7.06c3.37 4.83 6.77 11.72 7.54 19.15.85 8.12-1.29 16.07-5.51 21a20.44 20.44 0 01-7.83 5.52 21.091 21.091 0 01-11.1 1.69c-11.31-1.41-19-7.64-25.44-14.61a24.698 24.698 0 01-5.32-7.93 38.58 38.58 0 01-2.71-10.64c-.8-8.84.92-16.35 4.64-21.66 2.2-3.13 5.41-6.71 10.26-7.06 3.05-.22 5.35 1.32 6.09 3.39.74 2.07-.19 4.67.77 6.67a5.19 5.19 0 003.37 2.71zm-12.87-10.64c-3.24 1.39-5.87 4.46-7.64 7.64a29.319 29.319 0 00-3.15 12.09c-.72 9.42 2 17.71 6.48 23.11 4.26 5.11 10.51 10.63 17.22 13.35a28.449 28.449 0 0013 2.13 19.59 19.59 0 006-1.65 19.28 19.28 0 009.48-8.41c3.68-6.62 3.71-17.72.77-25.34a43.59 43.59 0 00-7.54-12.77c-1.66-1.91-3.44-3.43-5.12-5a21.61 21.61 0 00-5.9-4.35c-1.43-.62-4.43-1.41-5.9 0-1.23 1.18-1 4.36-1.16 6.39-.16 2.03-.45 4.95-2.42 5.22a5.2 5.2 0 01-3.48-1.16 6.999 6.999 0 01-3.2-5.42c-.06-1.52.36-2.86-.19-4.16-.71-1.69-2.6-2.39-4.93-2.12a8.177 8.177 0 00-2.32.45zm14.51 10.64c1-2.53.55-6.4 1-9.19-2.53 1.8-1.92 6.03-1 9.19zm42.464-6.161c3.23-.82 2.9 4 .19 3.77-1.85-.19-2.16-3.3-.19-3.77zm1.16 1.74c-.14-1.17-1.95-.15-1 .87.66-.09 1.08-.39 1-.9v.03z"/><path d="M-1.02 21.915c3.42-.6 6.6 2.43 7.93 4.64 1.5 2.5 1.16 6.34-2 6.67-2.08.22-4.06-1.16-5.32-2.32-1.08-1-3.55-4.13-3.29-6.67.12-1.37 1.49-2.11 2.68-2.32zm-1.16 2.8c1.3-.409 2.642-.667 4-.77-.99-1.09-4.14-.78-4 .77zm4.93-.29c-1.61.42-3.37.69-5 1.07 0 .45.32.59.29 1.06 2-.31 3.83-.75 5.9-1 .1-.48-.84-.74-1.19-1.13zm1.74 1.65c-1.72.72-4.23.66-6 1.35.51 1.72 2.09 1 4 .58 1.14-.24 2.18-.6 3-.67a2.43 2.43 0 00-1-1.26zm1.45 1.93c-2 .42-3.89.88-5.8 1.36.74 2 4.15.21 6.09 0a4.54 4.54 0 00-.29-1.36zm-3.57 3.19c1.23.84 4 .73 3.77-1.06-1.1.49-2.74.48-3.77 1.06zm46.611-7.729c.52.66 0 1.48-.1 2.32-.12 1.33.13 2.75 0 4.06a8.61 8.61 0 01-1.83 4.16c8.09 1.86 16.93 3 24.85 5a34.34 34.34 0 01.78 7.25c.36 6.2 1.35 12 1.35 18.57a8.258 8.258 0 01-.39 3.58c-.928.112-1.865.142-2.8.09-1.44 3-2.92 5.82-4.45 9-.66 1.37-1.26 3-2.13 4.64-.63 1.21-1.67 3.48-2.71 4-1.67.79-4.47-.68-5.8-1.36-1.73-.89-3.15-2.06-4.55-2.9-3.26-2-6.53-3.63-9.67-5.32-6.69-3.6-12.87-7.64-18.66-11.31a25.114 25.114 0 00-2.52 2.32c-.76.76-1.44 1.9-2.8 2-.74-1.09.14-2.28.58-3.19 1-2 2-3.78 3.19-5.81a13.118 13.118 0 001.64-2.8 19.2 19.2 0 00.08-3.69c0-3.64-.31-6.93-.58-10.25-.29-3.53-.13-7.11-.58-10.44-.13-1-.72-2.07-.1-3 .68-.49 1.41 0 2 .1 2.74.45 5.69.61 8.51 1 2.82.39 5.57.79 8.22 1.26-.12-4.43 4-5.67 6.38-7.93.64-.55.93-1.74 2.09-1.35zm-6 8.89c.86-1.72 2.5-3.18 3.2-4.73-1.31 1.27-3.07 2.61-3.2 4.73zm4.07-4.44c-1.11 2-3 3.65-3.68 5.7 1.27-1.73 3.35-3.67 3.67-5.7h.01zm-2.62 5.8c1.17-1 2.76-2.15 2.81-4-.6 1.63-2.2 2.73-2.81 4zm-19.92 21.56a211.695 211.695 0 0115.19-19.44c.33-.39 1-.78.87-1.45-5.67-1.23-11.78-2-17.8-2.9a187.772 187.772 0 011.74 23.79zm33.95-17.5a190.2 190.2 0 01-6.48-1.16c-2.12-.42-4.38-1.05-6.38-1.26-.75-.08-1.79 1.31-2.62 1-3.64 8.08-8.75 15.18-13.92 21.66-.28.36-.92.69-.78 1.26 8.59-.08 14.88 2.36 21.38 4.55a59.22 59.22 0 0022.82 3.19c.12-8.78-1.46-17.23-1.35-26.6-3.9-.77-8.17-1.92-12.67-2.64zm-22.34 4.54a5.21 5.21 0 011.54 1 49.25 49.25 0 003.29-6.58c-1.58 1.87-3.28 3.65-4.83 5.58zm-1 1.07a188.596 188.596 0 00-16.05 23.79c.48-.31 1.1-.59.87-1.35.17-.31.59-.08.77-.2-.05-.49 0-1.22.77-.77.33-.45-.05-.35-.09-.87.15-.6.71 0 1-.19.29-.19-.46-.33-.29-.88.36-.44.68.27 1.07 0s-.49-.3-.39-.77c.18 0 .07-.32.29-.29.49 0 .63.53 1 .1 0-.39-.5-.28-.39-.78a.519.519 0 01.29-.29c.3 0 .51.43.78.2.08-.48-.41-.37-.39-.78a.492.492 0 01.29-.29c.47 0 .66.41 1 0 .08-.5-.48-.36-.39-.87.13 0 .09-.17.19-.19.46-.1.55.16.78.29 0-.38.41-.3.38-.68-.34 0-.46-.31-.48-.67.08-.15.14-.31.39-.29.25.02.3.4.67.38a.75.75 0 01.2-.29c0-.35-.51-.2-.39-.68a.81.81 0 01.19-.29c.62.14.91.26 1.16-.29a.6.6 0 01-.48-.77c.1 0 .12-.08.19-.1.45-.09.47.25.87.2.09-.17.24-.28.29-.49-.24-.17-.6-.23-.48-.77.1 0 .12-.08.19-.1.46-.1.63.39 1 .1 0-.4-.47-.3-.39-.77.27-.67.84.29 1.16-.2.09-.47-.4-.37-.38-.77a.46.46 0 01.29-.29c.53.05.64.31 1-.1 0-.4-.48-.3-.39-.77.08-.14.14-.31.39-.29.25.02.29.29.58.29-.06-.34.34-.24.29-.58-.09-.17-.24-.28-.29-.48.1-.33.54-.36.87-.2.62-.51-.16-.63-.1-1.35.1 0 .11-.08.19-.1.44-.08.49.23.78.29.1-.25.35-.36.38-.68-.2-.15-.48-.22-.48-.58a.73.73 0 01.19-.29c.48-.12.48.24.87.2.083-.172.18-.336.29-.49a.61.61 0 01-.48-.58c.21-.4.57-.21 1-.09.075-.176.173-.34.29-.49-.21-.18-.51-.26-.49-.67.26-.64.73.13 1.07-.1.15-.63-.62-.35-.58-.87.14-.76.89 0 1.16-.19a2.43 2.43 0 00-2-.97h-.03zm-11.38 20.89c5.78 3.38 11.62 7.17 18.18 10.64 2.93 1.54 6.11 3.34 9.19 5.22 1.39.85 2.87 1.84 4.45 2.8 1 .6 4.07 2.27 5.22 1.84.89-.33 1.81-2.8 2.32-3.87 2.14-4.43 4.31-8.15 6.29-12.38a90.179 90.179 0 01-11.51-.87c-7.1-1.19-12.86-4.05-19.54-5.8-3.48-.91-7.16-.95-11.41-1.26-1.11 1.19-2.19 2.39-3.19 3.68zm-7.346-35.012a.56.56 0 01.77.48c.31 1.98-2.63-.04-.77-.48zM4.88 34.007c2.5-.41 4.9 1.32 6.38 2.7a9.64 9.64 0 013 4.07c.74 2.54-.66 5.1-3.67 4.83a9.85 9.85 0 01-4.65-2.22 12.19 12.19 0 01-2.41-3.39c-1.01-2.19-1.49-5.52 1.35-5.99zm-.58 2.8c.93-.42 2.35-.36 3.19-.87-.87-.54-3.81-1.01-3.19.87zm0 .78a1.15 1.15 0 00.29.77c1.48-.55 3.47-.59 4.84-1.26-1.23-1.14-3.39.41-5.13.49zm5.9.19c-1.69.57-3.65.87-5.42 1.35.093.305.224.597.39.87 1.94-.47 4-.83 5.9-1.35.04-.24-.52-.7-.87-.87zm1.35 1.55c-1.93.45-3.76 1-5.8 1.35.05.4.34.57.48.87a37.78 37.78 0 006.1-1.26 1.67 1.67 0 00-.78-.96zm1 1.64a48.65 48.65 0 01-5.13 1.35c-.17.19.43.42.49.68a49.49 49.49 0 005-1.16c-.1-.32-.01-.83-.39-.87h.03zm-3.29 2.71c1.18.62 3.47.73 3.58-1a33.37 33.37 0 00-3.61 1h.03z"/><path d="M62.525 40.575c.285-.066.577-.096.87-.09 1.23.16 3.19 1.8 3.19 3.28 0 3.87-7.23 2-6.28-1.93.2-.85.97-1.15 2.22-1.26zm2.61 3.29c.1-1.06-2.78-2.77-3.67-1.74-.55 2.01 3.51 3.4 3.67 1.74zm-12.863-2.79a34.602 34.602 0 013.58-.1c.77 0 2.66.08 2.51 1-.11.67-3.4.22-4.35.29-1.7.12-4.82.77-4.93-.2-.11-.97 2.01-.92 3.19-.99zm2.769 5.211c-1-.66-.16-1 .68-1.45.84-.45 3-2 3.29-1 .2.72-1.26 1.18-1.74 1.45a4.65 4.65 0 01-2.23 1z"/><path d="M53.913 53.155c-.63-1 .56-1.64 1.16-2.23 1.71-1.67 4.1-3.93 5.61-5.41.22-.22.86-.58 1.07.09.21.67-1.24 1.63-1.74 2.13-1.27 1.27-2.39 2.45-3.78 3.87-.59.6-1.47 1.97-2.32 1.55zm13.927-1.939c-1.58.44-1.3-3.6-1.84-4.54 1.4-1.29 2.19 3.4 1.84 4.54zm-3.185-4.06c-.65 1.39-.58 3.49-2 4.06-.77-.28-.21-1.17.09-1.93.44-1.1.56-2.88 1.84-2.32-.04.11-.01.17.07.19zM.043 54.796a6.63 6.63 0 014.84 1.26c2.28 1.63 4.92 5.37 4.74 8.61-.17 3-3.14 3.85-5.9 2.7a16.098 16.098 0 01-4.45-3.38c-1.87-2.09-3.62-8.39.77-9.19zm-1 2.28c1.25-.19 2.69-.2 4-.39-1.06-.61-3.43-.89-4 .39zm5.12.39c-1.28.07-2.76.17-3.87.29-.55.06-1.36-.05-1.54.48 1.54.28 3.88-.3 5.9-.19.22-.12-.32-.37-.45-.54l-.04-.04zm-1.93 1.45c-.61 0-1.25.14-1.84.19-.59.05-1.39-.08-1.64.39.26.57 1 .21 1.45.19 1.971.016 3.94-.08 5.9-.29-.64-.9-2.42-.55-3.83-.44l-.04-.04zm4.06 1.26c-1.71.37-5.59.1-7.16.67.18.69 1 .31 1.45.29 1.92-.06 4.52 0 6.39-.19-.01-.25-.3-.81-.64-.73l-.04-.04zm.68 1.54c-1.73-.32-5.38.5-7.16.49.212.207.406.431.58.67 2.45 0 4.83-.14 7.25-.19a.77.77 0 00-.6-.93l-.07-.04zm-.58 1.74a42.713 42.713 0 00-4.94.39c1.64.56 4.79.2 6.58 0-.09-.56-.99-.37-1.6-.35l-.04-.04zm-3.68 1.65c1.322.36 2.701.458 4.06.29.48 0 1.28 0 1.26-.58a27.297 27.297 0 00-5.28.33l-.04-.04zm4.26 1.06c-.49.07-1.23-.12-1.55.1.78.04.94.21 1.62-.06l-.07-.04zm28.861-9.341c.62 0 1-1.1 1.83-1.26.83-.16 1.55.79 2.42.78.87-.01 1.34-.88 1.94-.87 1.35 0 1.39 1.67 2.7 1.93.59.12 1.74-.53 2.71-.39s1.68 1.21 2.42 1.26c1 .06 1.54-.95 3-.77.69.08 1.48 1 2.22 1.06.74.06 1.7-.62 2.61-.58.7 0 1.19.71 2.13.87.94.16 1.74-.21 2.61 0 1.5.36 3.24 1.9 3.19 2.32-.17 1.81-3.11-.76-3.67-.87-.79-.15-1.79.14-2.61 0-.82-.14-1.28-.73-1.74-.77-1-.08-2 .68-3.19.39-.85-.21-1.07-.59-1.84-1-1.59 1.11-4.3.87-5.42-.48a3.85 3.85 0 01-5.12-1.55 2.71 2.71 0 01-3.87-.1c-1 .27-1.15 1.26-2.23 1.26-.63 0-1-.51-1.35-.87-.35-.36-2-1.83-.48-2 .95-.11 1 1.39 1.74 1.64zm-11.22 16.54c3.67-.84 1.28 4.53-1 2.51-.97-.9-.01-2.28 1-2.51zm-.1 1.64c.49.08.77-.07.78-.48-.43-.01-.73.11-.78.48zm28.53 1.65c.08.77-1.06.75-1.64 1-.58.25-1.38.88-1.74.2.32-.72 2.62-1.51 3.38-1.2zm1.359.87c0 .68-1.18.82-1.84 1.06-.66.24-1.71.95-1.84 0 .23-.41.88-.47 1.45-.67.73-.26 1.51-.79 2.23-.39zm2.641.39c-.39.69-1.61.93-2.52 1.25-.91.32-2 1.06-2.61.39.24-.63 1.28-.77 2.13-1.06 1.05-.42 2.17-1.12 3-.58zm2.68.381c0 .66-.89.79-1.36 1-.47.21-1.12.39-1.64.58-1.05.37-2.27 1.11-3.29.77-.16-.67.68-.7 1.16-.87 1.31-.45 3.2-1.08 4.45-1.64 0-.06.57-.16.68.16zm.579 1.36c-.39.85-1.66 1-2.62 1.35-.96.35-2 1-2.8.68.09-.93 1.35-1 2.13-1.26.935-.266 1.843-.62 2.71-1.06a.54.54 0 01.58.29zM.72 83.424c-.64-3.56 4.36-3.18 3.68-.2-.36 1.48-3.02 1.7-3.68.2zm2.32-1.16c-.64-.45-1 .17-1.16.77.49.6 1.65.11 1.16-.77zm56.68-.869c.16.75-1 .85-1.55 1.06-.55.21-1.53.8-1.74 0a5.39 5.39 0 013.29-1.06zm.673 1.45a3.74 3.74 0 01-2.51.77v-.39c.48-.38 2.16-1.34 2.51-.38zm.491.481c.14.78-.74 1-1.26.77-.14-.77.75-.95 1.26-.77zM25.87 91.837a1.79 1.79 0 012.22 2.32c-.45 2.1-4.61 1.68-3.87-1.16a2.07 2.07 0 011.65-1.16zm-.49 2c.49.92 2.12 0 1.16-.77a1 1 0 00-1.16.8v-.03zm-17.208.608c.43-.25.83-.07.87.39.09 1.24-1.93.24-.87-.39zm43.129 1.261c2.81-.47 3.35 3.57 1.16 4.35a2.303 2.303 0 01-2.005.076 2.314 2.314 0 01-1.345-2.55 2.309 2.309 0 012.19-1.876zm1.26 2c-.16-1.26-2-.76-2.13.58a1.13 1.13 0 002.13-.55v-.03zM4.98 45.805c2.66-.26 6.3 1.85 8.12 4 1.31 1.52 2.8 4.64 1.45 6.77-1.78 2.82-5.7 1.61-8-.19-1.91-1.49-3.87-3.26-4.15-6-.29-2.47.25-4.31 2.58-4.58zm.48 2.22c-.66.13-1.82.25-1.55 1a20.44 20.44 0 004.35-1c-.64-.44-1.7-.22-2.8.05v-.05zm3.58.68c-1.08.28-2.87.67-4.06 1-.47.12-1.26 0-1.07.68 2.1.07 4.11-.8 6.29-1-.16-.31-.78-.78-1.16-.68zm1.64 1.35c-1.61.39-4.67.87-6.48 1.26 0 .92 1 .47 1.55.39 2-.34 4.28-.63 6-1a.94.94 0 00-1.07-.63v-.02zm-.38 1.74c-1.8.213-3.579.57-5.32 1.07 2.3.23 5.23-.56 7.73-.78-.11-1.13-1.34-.48-2.41-.29zm-4.36 2.13c.9.64 2.32.25 3.58.1 1.26-.15 2.66-.42 3.87-.49-.14-.25 0-.76-.39-.77-2.22.51-4.84.64-7.06 1.16zm1.36 1.26c1.31.57 3.39-.06 4.74-.29.5-.09 1.22-.05 1.45-.49a38.13 38.13 0 00-6.19.78zm1.93 1.06c1.24.81 3.6.55 4.06-.77-1.38.22-2.75.47-4.06.77z"/></g></svg>