<svg width="129" height="127" fill="none" xmlns="http://www.w3.org/2000/svg"><g opacity=".4" fill-rule="evenodd" clip-rule="evenodd" fill="#fff"><path d="M75.608 42.914a.562.562 0 01-.956.444c-.424-.486.387-1.371.956-.444zm8.961 7.236c1.878 1.438-.2 3.884-1.847 2.951-.91-.51-1.42-1.847-.693-2.669a1.762 1.762 0 012.54-.281zm-.373 1.857c.672-.804-.815-1.747-1.61-.707a.93.93 0 001.593.722l.017-.015zm-18.779-1.574c.881-.13 1.742-.124 2.105.863.562 1.549-1.754 2.68-2.712 1.306a1.498 1.498 0 01.607-2.17zm.014 1.34a.6.6 0 001.171.135c-.032-.62-.74-.748-1.17-.135zM39.838 19.618a1.696 1.696 0 01-1.847 2.185c-.973-.147-1.868-1.575-1.222-2.397a1.823 1.823 0 013.07.212zm-.867.557c-.255-.773-1.17-.395-1.487.051a.75.75 0 001.486-.051zm12.445 19.887a1.905 1.905 0 01-.983 2.298c-1.623.877-3.521-1.508-2.377-2.843.927-1.106 2.382-.761 3.36.545zm-1.005.388c-.345-.625-1.183-.65-1.804.03-.057 1.59 2.38 1.089 1.772-.032l.032.002zm19.453 22.562c2.029.49 4.268 3.245 2.366 5.15a3.488 3.488 0 01-3.402.844c.086 2.909-4.593 5.53-6.413 2.024-2.538 2.796-6.802 3.735-8.584-.024-1.878.939-4.724-1.267-3.714-3.5-.98-.2-2.19-.39-2.769-1.626-1.231-2.648 3.746-4.585 5.491-4.305-2.52-2.779 2.712-4.23 4.3-3.456a2.655 2.655 0 015.166.415c2.096-1.02 6.308-1.654 8.408.267 1.511 1.37.78 3.1-.849 4.21zm-5.64 8.371c.986.595 2.764-.059 3.283-1.416.278-.72-.177-1.447.441-1.926.618-.478 1.638.156 2.354-.06a2.347 2.347 0 001.274-.821c.818-1.13-.717-2.469-1.75-2.902-.662-.269-1.704-.266-1.9-.742-.312-.724 1.398-1.307 1.99-2.021 1.734-2.097-2.095-2.622-3.211-2.694a7.208 7.208 0 00-3.549.494c-.644.322-1.13.985-1.627.552-.497-.433-.183-1.66-1.1-2.405a2.114 2.114 0 00-.764-.329c-1.018-.107-1.664.932-2.032 1.87-1.406-.04-3.524-.621-4.552 1.168-.013.728 2.07 1.43 1.386 2.254-.394.473-2.576.354-2.905.422-.9.177-4.112 1.273-3.173 2.763.742 1.184 2.81.269 3.282 1.12.27.492-.378.707-.598 1.197a1.71 1.71 0 002.277 2.056c.187-.163-.253-.954.448-1.256.701-.302.742.955.922 1.504 1.008 3.042 4.85 2.53 6.609.303.349-.433.403-1.068 1.062-1.214 1.132.626.933 1.505 1.856 2.064l-.022.02zm-38.803-38.83c1.478-.461 3.302-1.234 4.522.11 1.792 1.99-1.8 4.204-3.614 4.142 1.45.855 2.903 2.992 2.334 4.223-.924 1.999-3.808.333-5.153-1.28-.117 1.006-.13 3.276-1.914 3.774-2.158.606-3.04-3.24-2.453-4.587-1.572 1.13-3.479 1.716-4.64.381-1.784-1.978 1.203-5.275 3.618-4.981-1.575-1.284-3.4-3.722-2.123-4.974 1.512-1.496 4.063 1.057 5.033 3.017.062-1.437 1.491-5.038 3.83-4.877 2.338.162 1.83 3.747.56 5.052zm-.153-3.705a.884.884 0 00-.443-.291c-1.485-.278-2.616 2.387-2.788 3.422-.172 1.036-.285 2.437.39 2.446 1.455-1.755 3.652-3.708 2.84-5.577zm2.8 4.095c-1.378-.132-3.887 1.088-5.057 2.485.57.369 1.563.31 2.453.27 1.36-.06 2.868-.26 3.868-1.737a1.2 1.2 0 00-1.264-1.018zm-3.521 6.339c.538.526 2.422 1.959 3.005 1.36.358-.4-.317-1.643-.579-2-1.147-1.558-2.93-1.756-4.14-1.876a9.218 9.218 0 001.714 2.516zm-7.798-9.173c-.115 1.433 1.417 2.953 2.671 3.73.577.354 1.218.77 1.706.634-.708-1.532-2.506-4.83-4.377-4.364zm4.714 5.414c.181.14.358.274.557.091.294-.495-.634-.522-.557-.091zm-.137.984c-1.067 1.665-2.137 4.297-.154 6.003 2.11-1.014 1.313-4.694.17-6.017l-.016.014zm-5.745-.189c-.453.484-.889 1.63-.362 2.235 1.375 1.578 4.404-1.34 5.036-2.944-1.312-.24-3.188-.874-4.657.694l-.017.015zm18.494 3.418c.668.323-.119 1.098-.514.736a.45.45 0 01.514-.736zm22.033 41.348c1.608 1.206.008 3.434-1.511 2.57-.797-.47-1.508-2.11-.215-2.897a1.71 1.71 0 011.726.327zm-1.417.657c-.46.808 1.134 1.668 1.2.497-.399-.469-.796-.64-1.217-.483l.017-.014zM28.587 52.314c.118.135.063.243.023.357-.04.115-.249.068-.363.028-.114-.04-.063-.243-.028-.363s.243-.063.368-.022zm11.35 14.255a1.5 1.5 0 01.438 1.827c-1.45 2.664-4.726-1.018-1.953-2.14a1.5 1.5 0 011.515.313zm-1.323.764c-.164.143-.023.408-.3.65 1.34 1.618 1.533-1.644.283-.635l.017-.015zM28.06 53.149c-.135.187-.072.133-.271.236-.138.002-.264-.188-.392-.335a.593.593 0 01.284-.337.57.57 0 01.38.436zm-1.084.079c.147.17.383.372.372.541l-.272.236a.63.63 0 01-.436-.614c.128-.162.225-.027.335-.163zm-.398 1.312c-.096.085-.172.032-.264.132a.75.75 0 01-.457-.856c.412-.27.804.364.72.725zm-.728.821c-.096.084-.172.031-.264.142-.346-.226-.744-.785-.592-1.126.419-.295.983.695.857.984zm-.523.842c-.636.354-1.258-1.023-1.135-1.419.6-.373.993 1.015 1.135 1.419zM73.383 76.74c1.489 1.15-.705 2.97-1.71 1.577a1.178 1.178 0 011.71-1.578zm-1.04.805c-.009.137.157.282.285.429.594-.14.152-.82-.29-.435l.006.006zM30.795 67.118c-.392.053-1.27-.635-1.152-1.105.43-.284 1.547.702 1.152 1.105zM6.93 39.712c.045-.04.05-.045.105.007a28.594 28.594 0 012.245 3.138c.647.938 1.942 2.287 1.442 2.98-.5.694-2.499-.07-3.474-.346-.58-.162-1.207-.312-1.749-.466a11.822 11.822 0 01-1.698-.51A32.003 32.003 0 01.623 42.19c-6.272-4.484-12.618-9.133-19.096-13.866-.982-.716-2.662-1.71-3.028-2.335-.684-1.255 1.252-4.273 2.9-3.968a6.96 6.96 0 011.616 1.09c7.013 4.833 13.652 9.396 20.656 14.435 1.076.734 2.339 1.624 3.258 2.166zm-2.538 3.94c.88.427 1.76.456 2.663.853.329-.594.191-1.22 1.048-1.777-.495-.683-.9-1.365-1.4-2.054a4.553 4.553 0 00-2.305 2.973l-.006.005zm-23.36-20.636a2.446 2.446 0 00-1.747 2.299c.158-.059.286.237.45.185.114-.36.537-.936.913-.607.125.349-.428.65-.484.998.183.13.335.385.544.293-.009-.341.58-1.023.905-.4a2.702 2.702 0 00-.465.792c.138.238.299.148.436.386.185-.21.436-.837.82-.714l.153.175c.107.385-.729.705-.163 1.137.271-.236.667-.97 1.007-.5.117.307-.358.56-.52.842.113.13.238.08.342.279.202-.236.611-.851.906-.501.14.286-.254.53-.358.8l.286.327c.103-.269.624-1.03.963-.55.09.299-.405.552-.42.843.152.266.326.203.485.443.22-.192.213-.464.457-.686.155-.016.313-.074.457.08.09.319-.307.595-.37.899a1.17 1.17 0 00.735.513c-.017-.304.482-.908.805-.503.048.307-.328.594-.37.9.192.167.395.323.606.467a3.31 3.31 0 01.472-.6c.113.13.28-.066.4.128.12.195-.329.526-.358.8.192.22.426.295.63.506.18-.158.483-.77.754-.458.27.31-.185.53-.162.807.205.213.435.4.684.558.176-.233.478-.674.743-.358.114.268-.189.502-.207.756.184.12.358.286.536.399.156-.324.555-.871.898-.294a5.366 5.366 0 00-.423.656c.12.194.264.109.381.335.3-.261.639-.706.898-.294.168.25-.33.455-.374.713.164.016.325.224.487.342.095-.153.38-.59.615-.436.379.286-.02.514-.111.763.138.11.289.207.448.286.177-.264.457-.617.742-.358.105.247-.075.473-.256.7.143.244.3.207.441.392.147-.277.384-.702.75-.464.168.41-.538.787.08 1.085.111-.237.339-.684.658-.385.32.298-.297.527.05.822.149.08.387-.595.664-.38.278.216-.003.51-.105.759.163.155.345.291.54.404.09-.148.336-.551.543-.383.357.286-.02.515 0 .776.181.21.327.183.479.448.17-.068.483-.838.849-.361.03.262-.216.506-.212.761.187.215.338.183.485.443.107-.242.49-.854.81-.507.322.346-.327.594-.269.9.187-.013.33.38.549.3.098-.355.532-.703.836-.251-.08.217-.36.421-.423.656.152.176.298.148.44.392.176-.152.072-.34.338-.492.134.052.275.008.398.23.123.22-.206.368-.192.555.141.22.353.386.6.472-.032-.23.254-.679.556-.584.451.393-.235.702-.044 1.093a1.5 1.5 0 01.6.472 7.373 7.373 0 012.164-3.227C-2.52 34.572-10.74 28.73-18.962 23.011l-.005.005zM8.12 44.733c.451.111.909.194 1.37.249-.195-.476-.635-.97-.873-1.448a.99.99 0 00-.491 1.194l-.006.005zm23.341 23.924c-.44.294-1.226-.483-1.728-.99-.266-.306-.822-.727-.543-1.07.388-.239.605.319.885.572.545.5 1.455.951 1.386 1.489zm16.556 21.042a.637.637 0 01-.586.32 1.374 1.374 0 01-.327-.49c.095-.152.285-.437.492-.428a.668.668 0 01.42.598zM31.229 69.822c-.794-.055-2.4-1.362-2.47-2.276.341-.237.472.176.743.407.709.597 1.754 1.169 1.727 1.869zm-3.096-1.342c.43-.374.742.349.991.579.43.32.835.672 1.209 1.056-.561.807-2.078-.936-2.2-1.635zM11.128 52.267c.56-1.641 1.413 1.177 0 0zm17.511 20.769c-.43.374-1.357-.519-1.896-1.035-.275-.316-.866-.777-.486-1.118.404-.152.564.374.83.621.55.495 1.435.918 1.552 1.532zm14.085 11.28c1.508 1.401-.91 3.775-2.377 2.457a1.756 1.756 0 01-.203-2.519 1.793 1.793 0 012.58.062zm-1.664 1.836c.392.027.715.044.993-.288.637-.753-.668-1.407-1.42-.752a1.215 1.215 0 00.427 1.04zm-16.2-13.766c.752-.278 1.398 1.069 2.112 1.432-.337.96-1.85-.776-2.113-1.432zm8.2 8.821a.526.526 0 01-.93.143 1.413 1.413 0 00-.028-.363c.358-.491.83-.235.958.22zm-8.081-5.751c-.38.27-1.147-.564-1.014-.948.353-.257 1.349.567 1.014.948z"/><path d="M25.59 76.94c-.693.345-2.043-1.205-2.128-1.897.44-.294.805.433 1.178.805.373.371 1.122.694.95 1.091zM3.105 51.892a1.5 1.5 0 01.623 1.378c-.621 2.29-4.554.036-2.28-1.476a1.387 1.387 0 011.657.098zm-1.399.93a.623.623 0 001.057.333c-.008-.123-.058-.248-.028-.363a.75.75 0 00-1.029.03z"/><path d="M25.523 78.066c-.671.097-2.603-1.493-2.412-2.325.363-.108.47.277.735.513.623.532 1.643 1.156 1.677 1.812zM38.77 98.122a.487.487 0 01-.243-.942.488.488 0 01.243.942zM21.654 80.367a2.25 2.25 0 01-1.021-.842c.203-.704 1.843.404 1.021.842zm6.179 6.647c-.218.687-1.121.22-.956-.32.379-.56.95-.132.956.32zm-5.743-5.587c-.568.227-2.093-.942-1.785-1.617.556.262 1.75.972 1.786 1.617zm-.034 1.286a3.308 3.308 0 01-2.377-2.068c.4-.238.616.24.947.528.547.48 1.63.948 1.43 1.54zm-2.258.717c-.444.278-1.469-.442-1.377-.92.467-.297 1.3.43 1.377.92zm-1.442 1.542c-.398.526-1.29-.248-1.136-.642.395-.334.959.28 1.136.642zm.215 1.354c-.586.252-1.363-.504-1.72-1.097.576-.423 1.695.622 1.72 1.097zm-.171 1.016c-.72.179-1.624-.724-2.137-1.312.331-.557 2.104.714 2.137 1.312zm12.954 4.684c1.924 1.478-.785 3.668-2.087 2.583-1.704-1.42.416-3.862 2.087-2.583zm-1.83 1.107c-.21 1.118 1.575.965 1.497-.05-.46-.585-.96-.508-1.498.05zm-13.807-6.439c.838-.442 1.548.98 2.335 1.14.257 1.357-2.014-.554-2.335-1.14zm1.556 2.106c-.696.15-2.008-.957-2.15-1.589.532-.165 2.043.896 2.15 1.59zm-3.181-.879c.691-.542 1.251.74 1.905.749.23 1.212-1.605-.085-1.905-.749zm.492 3.219c-.553.243-1.491-.572-1.67-1.142.553-.233 1.665.599 1.67 1.141zm.406 1.676c-.461.133-1.097-.358-1.615-.713-.518-.354-1.262-.89-1.241-1.425.384-.255.916.356 1.391.718.69.484 1.547.772 1.465 1.42zm-.199 1.127c-.5.226-1.242-.41-1.792-.836s-1.47-1.048-1.328-1.638c.495-.083.96.507 1.478.92.692.532 1.578.864 1.642 1.554zm-1.133.88c-.7-.496-1.35-1.059-1.941-1.68-.276-.317-1.122-.775-.48-1.214.505.386.947.916 1.543 1.441.597.525 1.646.884.878 1.453zm-.586.427c-.4.26-1.032-.214-1.516-.598-.484-.385-1.49-1.15-1.326-1.74.564-.083 1.045.72 1.618 1.196.574.476 1.257.507 1.224 1.143zm-1.732-.321c-.645.561-1.551-.639-1.778-1.048l.277-.241c.476.42 1.372.764 1.5 1.289zm-.482 2.641c-.402.35-1.058-.073-1.526-.313-.467-.24-1.25-.612-1.156-1.111.328-.286.818.163 1.211.397.57.211 1.076.565 1.47 1.027zm-.042 1.277c-.568.206-1.468-.383-2.15-.813-.683-.43-1.832-.96-1.478-1.697 1.194.561 2.346 1.747 3.555 2.096.148.17.124.28.072.414zm-.486.998c-.697.16-1.653-.55-2.442-1.046A23.872 23.872 0 016.704 98c-.38-.276-1.079-.622-.644-1.07a6.753 6.753 0 012.044 1.204c.676.503 1.404.933 2.17 1.282.18.183.108.295.056.43zm-5.16-1.849c.731-.12 1.338.645 1.984 1.067.665.457 1.38.835 2.134 1.126.16 1.143-1.536-.085-2.327-.57-.79-.485-1.938-1.027-1.791-1.623zm18.148 6.126c1.745 1.514-.824 3.84-2.21 2.213a1.75 1.75 0 01-.171-2.069 1.63 1.63 0 012.38-.144zm-1.655.864c-.38.569.663 1.412 1.185.699a.623.623 0 00-.255-.842.673.673 0 00-.93.143zM7.75 100.96c-.448.33-1.28-.179-1.913-.542-.635-.362-1.54-.866-1.65-1.448.551-.35 1.127.392 1.743.79.723.454 1.59.605 1.82 1.2zm-1.014 9.327c-1.296-.94 1.302-1.372.534-.266-.16.229-.29.193-.534.266zM91.95-12.003C88.754-8.077 84.829-4.19 81.263-.29a19.134 19.134 0 0110.915 4.539c2.676 2.274 5.214 5.485 7.684 8.596.694.877 2.389 2.355 1.962 2.915-.292.374-1.436.087-1.944.052-4.52-.131-9.017-.224-13.444-.407 4.512 6.882 4.917 13.412 3.146 19.957a28.826 28.826 0 01-1.046 3.218c-.429 1.05-.799 2.327-1.754 3.069-3.136-3.087-6.581-7.467-9.624-11.053-1.532 3.86-4.202 7.408-8.591 11.23a40.393 40.393 0 01-9.301 5.892c-.891.427-2.427 1.119-2.961.46-.534-.66.648-3.23.832-3.898 1.108-3.948 2.325-7.793 3.43-11.64-7.754 2.277-15.186.434-22.76-3.055-.747-.344-2.822-1.173-3.01-1.904-.259-1.039 2.79-1.843 3.437-2.128 4.008-1.77 7.768-3.393 11.66-4.953a32.686 32.686 0 01-3.683-3.237 9.977 9.977 0 00-1.249-1.32c-.464-.292-2.337.047-3.196.088-13.898.795-27.522 1.46-41.49 2.175-.95.051-2.003.143-3.197.188-.842.027-2.761.256-3.138-.062-.607-.526-.585-2.853-.019-3.345.407-.355 2.223-.315 3.055-.353 15.116-.72 30.648-1.536 45.543-2.043a45.003 45.003 0 01-4.41-11.368c-.22-.802-1.194-3.097-.33-3.691.546-.356 2.954 1.187 3.493 1.474 3.52 1.908 6.959 4.006 10.397 5.865-.067-2.18-.386-4.408-.01-6.636a38.026 38.026 0 011.95-6.6c1.138-3.08 2.514-6.526 5.81-9.674 1.087-1.036 2.788-2.508 3.48-1.977.394.304.348 1.279.442 1.833.717 4.25 1.27 8.493 1.9 12.678 5.757-6.147 13.477-7.24 19.696-7.534 1.046-.055 2.135-.039 3.24-.037a12.275 12.275 0 013.226.175.824.824 0 01.546.798zm-13.903 1.166c-2.965.593-6.29 1.4-9.496 3.943a13.427 13.427 0 00-2.98 2.883c-.473.77-.54 2.36-.692 3.397-.545 3.578-.529 6.966.97 10.503.05.057.119.136.102.002a8.25 8.25 0 013.605-6.79A18.001 18.001 0 0174.87.592 17.468 17.468 0 0177.48.05c.73-.098 2.098-.035 2.592-.336.48-.414.91-.884 1.277-1.4 3.06-3.5 5.908-6.647 8.918-9.975a39.754 39.754 0 00-12.23.804l.01.021zM93.085 6.661C87.378.771 79.72-.599 73.112 2.501c-1.522.709-2.984 1.256-4.295 2.686-1.535 1.665-2.242 3.434-1.803 5.548.401-.11.776.24 1.176.14a12.302 12.302 0 012.025-1.763c5.189-3.007 10.868.67 15.485 5.413 4.42.13 9.188.214 13.556.32.201.002.572.017.728-.158-2.496-2.81-4.382-5.443-6.908-8.047l.009.021zm-31.22-25.138c-4.843 3.929-6.337 8.004-7.94 12.583a22.755 22.755 0 00-1.299 8.342c.037.853.08 2.376.372 2.859.553.91 1.736 1.651 2.613 2.339a25.573 25.573 0 006.667 4.001c.373.143 1.22.488 1.236.277a9.27 9.27 0 01-2.645-7.126 19.704 19.704 0 013.612-9.113c-.744-4.783-1.525-9.563-2.401-14.35l-.215.188zM88.14 21.3c-1.306-3.577-3.996-8.117-7.813-9.736-2.5-1.066-5.884-1.321-8.197.305a9.75 9.75 0 00-1.77 1.83c.808.252 1.594.564 2.355.933 3.44 2.226 4.184 6.083 4.642 8.757a17.25 17.25 0 01.166 4.76c-.06.559-.34 1.23-.157 1.578.35.432.733.837 1.145 1.211 2.738 3.145 5.441 6.043 8.11 9.2 2.764-5.929 3.827-12.464 1.485-18.888l.034.05zM74.62 9.203c.699.049 1.613.585 2.184.406-.718-.15-1.663-.64-2.208-.445l.024.04zm-2.853.367c.92.053 2.077.707 2.867.198-.936-.219-2.093-.862-2.891-.237l.023.039zm-8.976-7.76a8.941 8.941 0 001.02-2.816 7.402 7.402 0 00-1.043 2.777l.023.04zm7.063 8.66c.917.116 2.077.648 2.89-.11-.985-.068-1.887-.933-2.914.07l.024.04zm-7.93-4.025c.54-1.574 1.656-3.113 1.565-4.725-1.057 1.527-1.835 3.09-1.565 4.725zm6.954 5.004c.553.453 1.171.203 1.724.428.169-.207.625-.425.607-.629-.742.13-1.708-.67-2.326.196l-.005.005zm-6.217-2.285c.369-1.564 1.338-3.363.784-4.81-.46 1.574-1.926 3.1-.778 4.805l-.006.005zm7.03 3.218c.04.148.1.29.178.422a.952.952 0 00.286-.448c-.154.074-.3-.058-.46.021l-.005.005zm2.12 2.869c.423 1.023.505 2.294 1.724 3.202-.633-1.08-.335-2.702-1.72-3.207l-.005.005zm3.171 5.413c.05.056.118.135.101.001-.217-1.163-.188-2.58-1.444-3.645.548 1.223.608 2.434 1.349 3.639l-.006.005zm-4.877-6.047c.494.694.71 1.809 1.6 2.067-.404-.83-.427-2.193-1.594-2.072l-.006.005zm-7.047-4.585c.333.267.382.78.764.876.184-1.273.78-2.53.111-3.846a30.852 30.852 0 00-.875 2.97zm2.799 4.207a2.182 2.182 0 002.733-.173c.782-.93-.458-2.217-1.58-2.374-1.317.223-1.995 1.728-1.145 2.58l-.008-.033zm3.169.99c.34.002.66.359 1 .372a5.881 5.881 0 01-.5-.907c-.132.214-.52.374-.492.567l-.008-.032zm-4.04-3.315c-.255-.773.51-1.698-.302-2.334 0 .766-.91 2.027.31 2.366l-.008-.032zm.6-.522l.22-.192c-.069-.08-.177-.204-.249-.172.096.156-.045.268.037.396l-.009-.032zm3.207 28.754c3.265-3.002 6.646-7.08 7.243-10.345.29-1.564-.143-3.386-.618-5.13-.84-3.068-3.184-7.323-6.537-8.65.769 4.492 1.282 9.754-3.316 13.758a14.334 14.334 0 01-3.938 2.435c-1.434 4.988-2.805 9.981-4.17 14.98 3.637-1.636 7.825-3.771 11.345-7.015l-.008-.033zM67.48 18.535c-.046-.955.748-1.905.255-2.917-.383.93-.79 2.12-.255 2.917zm-.98-2.896c.123.255.224.52.301.791.138-.228.21-.49.207-.756-.19.125-.343-.109-.52-.025l.012-.01zm-2.734-2.592c.197.226.39.266.573.555.045-.04.107-.093.162-.042.158-.138.095-.302.08-.457-.305.096-.56-.129-.87-.039l.055-.017zM67.6 22.02a5.206 5.206 0 00.553-4.23c-.052 1.367-.812 2.973-.562 4.208l.009.022zm-3.088-6.64c.27-.126.505.167.771.005.137-.22-.075-.452-.329-.709-.158.218-.44.454-.45.681l.008.022zm-3.234-3.052c.543.624 1.14 1.199 1.785 1.718.233-.046.461-.118.68-.214a4.996 4.996 0 00-2.474-1.526l.01.022zm1.442 8.84c-3.811 2.84-8.561 2.183-11.93.005-4.815 2.203-9.607 4.387-14.43 6.409 5.633 3.19 12.086 5.13 18.169 4.955 1.944-.052 5.283-.204 7.113-1.768 4.633-3.965 5.933-9.93 4.122-14.272a8.453 8.453 0 01-3.053 4.648l.009.022zm2.122-4.634c.673-.586-1.093-1.037-1.392.059.47-.18 1.008.266 1.383-.08l.01.021zm-9.47-3.907a18.48 18.48 0 01-2.951-4.83 9.003 9.003 0 00-.558-1.633 7.793 7.793 0 00-1.634-.883C46.23 3.133 42.448 1.176 38.618-.87c1.59 5.766 3.273 13.352 9.852 18.93a11.252 11.252 0 002.54 1.925c.92.16 1.86.157 2.777-.01a15.684 15.684 0 009.808-5.08c.034-.03.068-.06.013-.1-2.893.847-5.93.478-8.234-2.17zm3.295-1.516c.877 1.006 1.488 2.016 2.358 3.039.41.084.832.079 1.24-.016-1.197-.917-2.341-2.745-3.587-3.033l-.011.01zm3.238 6.698c.645.045 2.501.806 2.617-.637-.853.105-1.674-.403-2.634.652l.017-.015zm5.235 6.79c1.088-.819 1.07-1.707 1.11-2.598a8.809 8.809 0 00-1.099 2.588l-.011.01zM56.199 9.6c1.176 1.453 1.748 2.864 2.77 4.322.33.06 1.159.453 1.176.13-1.248-1.48-2.424-3.778-3.934-4.461l-.012.01zm3.607 9.66c1.078.031 2.152.121 3.22.27.15-.32.69-.601.627-.935-1.226.053-2.694-.558-3.835.655l-.012.01zM53.587 7.548c.842 1.812 2.304 4.508 4.33 5.748-1.354-1.885-2.411-4.436-4.341-5.739l.011-.01zM65.138 28.66a9.472 9.472 0 002.403-3.545c-1.191 1.167-1.667 2.357-2.414 3.555l.011-.01zm-8.434-8.121c1.895-.108 3.687 1.185 5.68-.432-1.84-.286-3.937-.638-5.68.432zm-3.182.652c1.892.849 4.099 1.155 5.946.204-1.995.016-3.939-.709-5.956-.215l.01.011zm-10.828-7.02c-.31-.219-.093-.587-.385-.66-.113.168-.201-.014-.309.08a.397.397 0 01-.04.512c-.388.218-.424-.486-.63-.506-.206-.02-.037.38-.293.544-.267.024-.397-.262-.55-.517a1.91 1.91 0 01-.413.073c.157.18.023.347-.136.506-.434-.03-.273-.598-.742-.508-.17.147.04.343-.236.494-.064-.074-.14.033-.211-.015a1.247 1.247 0 01-.274-.428c-.513-.04-.424.22-.754.458-.3-.047-.272-.46-.536-.399-.265.062-.111.296-.343.498-.394-.065-.443-.51-.843-.42-.204.178.038.375-.293.543-.305-.042-.324-.235-.428-.492-.142.123-.25.068-.364.028-.209.183.075.383-.197.55a.368.368 0 01-.307-.02c-.206-.17-.063-.314-.217-.478a1.71 1.71 0 01-.626.057c-.21.183-.035.429-.343.498-.206-.02-.31-.288-.384-.442-.236.027-.475.026-.721.052.058.158.085.314-.08.457-.164.143-.495-.215-.485-.443-.297.07-.582-.04-.9.108.157.18.03.342-.136.506-.349-.035-.256-.294-.493-.566-.236.054-.48.071-.721.052-.14.181.054.38-.293.543-.206-.02-.36-.323-.428-.492-.291-.015-.591.087-.872-.007-.197.172-.03.375-.298.548-.267.173-.423-.268-.428-.492a7.751 7.751 0 01-.984.08c.2.174-.017.313-.186.45a.57.57 0 01-.379-.435 1.306 1.306 0 00-1.055.342c-.508-.423-.927-.357-1.143.23-.243-.097-.375-.192-.384-.442-.46.053-.87-.108-1.113.492-.256.014-.347-.215-.48-.448-.293.166-.549-.048-.85.165.147.17.02.31-.09.456-.322.11-.441-.243-.544-.521-.223-.016-.454.096-.67.007-.14.181-.197.528-.493.428a.623.623 0 01-.229-.377c-.39.1-.753-.03-1.141.128.148.17-.026.301-.185.45-.295-.042-.293-.233-.429-.492-.421.098-.827-.025-1.256.1.196.167-.021.306-.185.449-.295-.042-.256-.225-.55-.517-.388.16-.754-.009-1.14.129.172.198.053.381-.193.556-.05-.057-.099-.034-.15-.07-.242-.186-.114-.347-.272-.528-.386.127-.751.027-1.14.128.147.17.026.305-.08.457-.324.074-.442-.222-.55-.516a3.15 3.15 0 01-1.084.08c-.198.171.104.416-.143.6a.345.345 0 01-.306-.02c-.248-.182-.115-.349-.272-.53a6.699 6.699 0 01-1.028.03c-.204.178.127.386-.193.556-.04-.045-.104-.029-.157.037a1.591 1.591 0 01-.377-.537c-.617 0-.774-.042-1.02.6a.413.413 0 01-.307-.021c-.177-.204.103-.339-.17-.528-.234.144-.438-.057-.673.108-.072.202.126.418-.243.6-.05-.057-.104-.029-.155-.064-.242-.187-.12-.354-.272-.53-.223-.004-.447.002-.665.003-.17.148-.05.342-.347.491a.824.824 0 01-.429-.492 1.21 1.21 0 01-.721.051c-.181.158-.034.338-.242.5a.54.54 0 01-.48-.448c-.464.037-.53-.005-.855.456a1.119 1.119 0 00-1.005-.378c-.164.213-.022.478-.394.542a1.373 1.373 0 01-.327-.49c-.302.013-.601.05-.896.113-.02.148.207.318.016.464l-.215.187c-.305-.122-.37-.424-.42-.699a4.4 4.4 0 01-.979.087.375.375 0 01-.085.462c-.265.152-.49-.22-.48-.448-.208.023-.415.014-.625.058.063.164.084.314-.08.457-.164.143-.453-.212-.605-.467-.222.053-.439-.036-.672.107.043.45.044.897.114 1.343 16.54-.777 33.093-1.744 49.62-2.331-.456-.409-.623-1.069-1.038-1.305a.27.27 0 01-.22.42l.01.012z"/><path d="M32.535 66.567c.69 1.478 1.193 3.209-.304 4.402a3.75 3.75 0 01-2.566.594c1.059 1.992-1.407 4.289-3.332 3.677 1.496 2.198-.318 5.678-3.064 4.877.222 1.328.64 3.122-.703 4.172-.905.709-1.906.496-2.897.534 1.114 2.182-.667 6.19-3.692 5.81 1.014 2.102.093 5.887-3.257 6.209.025 1.559.311 3.498-1.466 4.827-4.7 3.535-10.656-1.661-15.375-6.613-6.009-6.294-11.603-14.134-11.186-19.698.123-1.56.92-3.786 2.972-4.32a4.688 4.688 0 013.451.755c.677-2.26 3.679-3.531 5.383-2.957-.42-2.766 3.015-4.087 5.013-4.076.367-.002 1.377.302 1.528.2a8.15 8.15 0 00.235-.87c.823-2.209 3.559-2.413 5.115-1.86.12-2.51 3.569-3.634 5.242-2.157.182-.546-.011-.984.2-1.427.768-1.723 3.083-1.69 4.353-1.294.353-2.039 3.116-2.853 4.487-1.918-.171-2.298 3.031-3.634 5.034-4.384 2.479-.848 5-1.566 7.554-2.152 1.275-.295 2.71-.669 3.737-.46 1.672.344 2.16 1.76 1.937 3.217-.337 2.184-1.371 4.297-2.323 6.836-.428 1.12-.765 2.308-1.166 3.413-.618 1.711-1.036 3.378-2.944 4.682a6.672 6.672 0 01-1.966-.019zm7.27-16.276c-1.29-1.402-2.97-.567-4.51-.21-1.21.277-2.455.606-3.554.886-2.5.636-5.121 1.029-7.175 2.588a2.95 2.95 0 00-.565.493c-1.065 1.404 1.295 4.72 2.637 6.455 1.84 2.376 3.862 4.435 5.92 5.04-.834-.616-2.758-1.706-2.786-2.766.395-.254.586.296.786.47 1.136.95 2.466 2.248 3.662 2.102-.56-.506-2.066-.807-1.935-1.776.33-.148.483.246.743.407.52.323 1.569 1.14 1.912.643-.213-.382-1.38-.569-1.4-1.277.599-.294 1.13.477 1.692.733.13-.113.035-.2.228-.287-.14-.456-.708-.378-1.022-.841.083-.122-.036-.247.18-.355.398-.079.75.52 1.149.441-.064-.073.064-.166.07-.25-.072-.266-.6-.244-.829-.621.102-.089-.041-.242.173-.35.215-.107.631.336.956.322-.032-.14.109-.264.129-.4-.241-.278-.883-.306-.765-.777.335-.38.612.064.928.187.164-.143.111-.306.185-.45-.251-.288-.53-.244-.784-.57.107-.093-.06-.206.127-.3.271-.236.533.133.82.28.164-.142.14-.33.236-.494-.266-.305-.987-.403-.657-.87.33-.465.59.371.928.187.458-.399-.853-.58-.386-1.106.271-.236.494.306.756.207.403-.52-.82-.588-.38-1.11.259-.286.46.254.714.054.107-.094.038-.242.178-.355-.231-.266-.81-.348-.463-.75.281-.304.492.337.77.006.278-.332-.828-.562-.444-.956.383-.393.46.255.714.044.462-.452-.854-.57-.386-1.106.265-.141.488.332.763.111.31-.478-.686-.456-.505-.912.18-.455.543.133.832-.048.355-.45-.594-.477-.45-.951.269-.423.471.107.727-.056.231-.5-.683-.5-.55-.964.241-.339.444-.038.672-.107 0-.24-.082-.437-.021-.618l-.02-.023zM26.741 62.244c-1.404-1.522-2.245-3.436-3.415-4.814-1.06-1.216-2.824-1.917-3.875-.475-.863 1.18.531 2.7 1.676 4.21 2.056 2.795 5.179 7.306 7.768 8.92.851.532 2.383.68 3.156-.35.773-1.032-.284-2.508-.868-3.76a15.95 15.95 0 01-4.422-3.709l-.02-.022zm-11.709-3.43c-1.168 1.365 1.549 4.908 3.168 6.95.885 1.108 1.6 1.838 2.411 2.872 2.426 3.06 5.13 6.394 7.34 5.345a3.983 3.983 0 01-1.365-1.02c-.42-.39-1.228-.92-.829-1.397.85.256 1.608 1.584 2.436 1.918.206.099-.112.534.18.32a1.545 1.545 0 00.347-2.033c-.319.775-2.21-1.009-2.086-1.734.754.01 1.414 1.315 2.155 1.585-.643-.922-1.754-1.546-2.661-2.497-2.988-3.146-6.504-7.594-7.956-10.576-.963-.226-2.301-.712-3.14.267zm6.954 18.47c.656.126 1.265 1.008 1.914 1.318.086.293-.402.35-.391.43.465-.036.916.117 1.391-.057a14.113 14.113 0 01-1.614-1.191c-.339-.321-.995-.834-.634-1.277.446-.081.662.487.976.79.414.395 1.043.684 1.365 1.02.153.175.146.36.335.384a3.136 3.136 0 00-.288-3.986c-.547-.628-1.456-1.079-2.136-1.79a75.078 75.078 0 01-7.491-9.151 23.222 23.222 0 00-1.492-2.262c-.892-.864-2.806-1.475-3.875-.475-1.437 1.331.554 4.063 1.474 5.45 2.813 4.373 8.067 11.127 11.846 12.382-.477-.182-1.727-.944-1.392-1.564l.012-.02zM19.11 81.61c.837.127 1.586 1.364 2.418 1.555.331.129-.133.623.173.426 1.174-.604 1.181-3.017.475-3.874a15.801 15.801 0 00-1.963-1.375A45.002 45.002 0 018.685 63.665c-2-1.53-5.262-.023-4.343 2.529a23.62 23.62 0 002.908 4.778c1.104 1.554 2.337 3.255 3.612 4.81 3.125 3.794 7.014 8.364 10.342 7.903 0 0 .1.023.057-.05-.45-.094-2.389-1.212-2.164-2.004l.012-.02zM-2.115 67.39c-.977 1.597 1.327 4.574 2.687 6.513 1.699 2.419 3.477 4.69 5.085 6.73a48.954 48.954 0 005.878 6.42c1.732 1.474 4.39 3.418 6.236 2.078 1.265-.923 1.702-3.471.832-4.573a4.246 4.246 0 00-1.08-.692c-2.677-1.646-5.264-4.595-7.61-7.516a66.563 66.563 0 01-5.396-7.385c-.452-.76-.98-2.13-1.315-2.504-1.009-1.102-4.383-.58-5.329.95l.012-.02zm7.566 14.766a103.16 103.16 0 01-7.666-10.312c-.286-.477-.484-1.469-.906-1.817-.297-.238-1.293-.217-1.999-.08-4.665.88-2.041 5.388-.216 8.364a65.745 65.745 0 004.819 6.744C3.327 89.893 7.48 95.108 11.347 95.7a4.661 4.661 0 002.062-.064c2.44-.932 2.265-3.316 1.488-5.145.113-.099-.138-.158-.2-.115-3.263-1.326-6.425-4.649-9.258-8.199l.012-.02zM9.014 96.08c-4.032-1.98-7.66-6.866-10.96-11.043-2.484-3.139-4.8-6.324-6.154-9.352-.442-.987-.535-2.796-1.271-3.219-1.17-.681-3.015-.995-4.21.682-1.348 1.88-.469 5.093.546 7.481 2.89 6.744 12.64 18.443 18.635 20.622 1.472.549 4.054.727 5.466-1.01.75-.931.58-2.017.383-3.317-.855-.33-1.645-.427-2.447-.823l.012-.02z"/></g></svg>