<svg width="108" height="101" fill="none" xmlns="http://www.w3.org/2000/svg"><g opacity=".4" fill-rule="evenodd" clip-rule="evenodd" fill="#fff"><path d="M91.356 18.966c-1.18 1.44-3.66 4.2-7 4.25-2.28 0-4.71-1.29-4.06-4.06a7.87 7.87 0 011.25-2.13c-5.73-2.29-8.5-7.61-11.5-13-.39-.69-1.29-1.72-.87-2.42.42-.7 3 .09 4 .29 4.12.89 8.93 1.27 11.9 3.2.07-1.86.73-3.25 2-3.68 3.39-1.11 5.5 2.94 6.19 5.22.5-2.84 4.53-7.9 7.64-4.74 2.28 2.33.79 7.28-1 9.19 3.07-.47 5.67.48 7 1.94a2.833 2.833 0 01.68 2.51c-.56 2.79-5.5 3.89-9.09 2.8 2.2 2.17 2.91 9.08-2 8.61-3.53-.29-4.77-4.39-5.14-7.98zm9.19-14.22a5.849 5.849 0 00-.68-1.74c-3.23-1.84-5.68 3.48-5.9 6.57.06.839.06 1.681 0 2.52.26.48.8.68 1 1.26 2.48-1.63 6.17-4.18 5.58-8.61zm-11-1.45a2.35 2.35 0 00-1.94-.39c-2.67 1.27-.11 6.51 1.26 8.13a13.1 13.1 0 002.32 1.83 4.41 4.41 0 011.35-1c.02-3.33-.95-7.18-3.01-8.57h.02zm-7 12.76a10.15 10.15 0 014.35-2.22 47.059 47.059 0 01-9.09-4.55 6.78 6.78 0 01-2.41-2.22c.7-1.11 2.49.8 3.38 1.35a32.6 32.6 0 009.77 4.16 15.59 15.59 0 01-3.1-5c-2.9-3.22-9.42-3.34-14.21-4.35 3.09 4.95 5.36 10.74 11.32 12.83h-.01zm19.73 1.26c1.46-.14 4-.91 3.87-2.51-.13-1.6-3.22-2.6-5.42-2.42a6.37 6.37 0 00-3.86 1.55c-.638.38-1.252.798-1.84 1.25a11.13 11.13 0 007.26 2.13h-.01zm-9.19-1.93c1.09-.15 1.06-2.31-.38-1.94a1 1 0 00.39 1.94h-.01zm-10 2.12a4 4 0 00-1.35 2.71c.15 1.28 1.9 1.7 3.29 1.55 3.1-.34 5.35-3.41 6.38-5.61a9.642 9.642 0 00-1-1.45c-2.59.17-5.56 1.1-7.27 2.8h-.05zm13.16 7.94c1.94.37 2.59-1.12 2.61-2.52 0-2.93-2.88-5.59-4.94-6.48-.24-.11-.54.25-.77.1-.77 3.27.39 8.37 3.15 8.9h-.05zM63.607 3.006c-1.15-2 2.41-.4 0 0zm-20.308.77c.08.72-.14 1.16-.87 1.07a.49.49 0 00-.29-.29c-.13-.86.7-1.33 1.16-.78zm-17.225.401a.62.62 0 011 .48c-.01 1.31-2.07.15-1-.48z"/><path d="M79.216 46.626c1.07.5 2.55.6 3.28 1.45.6 7.74.39 15.32.78 23.59a14.67 14.67 0 01.1 3.39c-.28 1.07-3.43 3-4.36 3.77-3.93 3.26-7.14 5.74-11.22 9-.57.46-1.63 1.68-2.22 1.75a8.291 8.291 0 01-1.74-.58c-4.1-1.35-8.31-3.41-12.09-5-3.46-1.49-6.82-3-10.25-4.55-1.1-.48-2.34-.77-3-1.84.24-9.59.48-19.18 1.06-28.43.71-.95 2-1.25 3.1-1.74a25.39 25.39 0 013.38-1.36 10.368 10.368 0 00-1.93-1.93c-2.05-1.76-4.37-3.64-6.29-5.61.05-5.94.45-12.83.49-19.15-.114-2.043.047-4.09.48-6.09 5.65-1.62 11.53-2.66 17.51-4a22.006 22.006 0 012.51-.58c1.37-.11 4.06 1.64 5.22 2.23 5 2.5 10.19 5.12 14.7 7.64.43 9.03.4 18.59.49 28.04zm-20.6-36.66c-.1-.05-.29.08-.39.1-5.34 1.17-11.35 2.89-17.21 4.06 3.23 2.51 6.63 4.86 10 7.35.94.68 2.54 2.24 3.49 2.32a12.48 12.48 0 002.61-.68l18.57-4.83c-5.66-2.79-11.56-5.44-17.11-8.32h.04zm-19 4.64c0-.1-.12-.07-.1.1 0 8 0 15.92-.19 23.69 4.12 3.49 8.67 7.21 12.77 10.64.21.18.42.63.77.49.06-8.26.3-16.34.58-24.37-4.57-3.56-9.3-6.98-13.83-10.55zm37.82 4.84c-6.5 1.74-13.7 3.38-20.31 4.93-.81.19-2.39.23-2.52 1.16.84.15 2.56-1.05 3.39-.29-.11.68-1 .55-1.55.68a5.139 5.139 0 01-1.84.39v1.16c1.05.06 2.63-1 3.19-.2-.59.8-2.06.72-3.19 1 .06.39-.12 1 .1 1.26.91-.15 2.28-.79 3.09-.39-.34 1.11-2.16.74-3.19 1.16v1.06c1.13.13 2.44-.88 3.19-.19-.48.94-2.15.69-3.19 1.06.06.36-.12 1 .1 1.17.84-.09 2.52-1 3-.2-.57.82-2.16.62-3.19 1 .06.55-.13 1.35.09 1.74.79-.14 2.52-1 3.1-.1-.71.65-2.21.5-3.19.87v1.65c1 .05 2.44-.85 3.19-.1-.51.88-2.28.5-3.19 1v1.45c1 0 2.51-.91 3.28-.19-.55.86-2.19.64-3.28 1 .07.66-.14 1-.1 1.65 1.3.16 3.15-.83 3.77-.1-.57 1-2.6.56-3.77 1 .06.58-.13 1.41.1 1.83 1-.16 3-1 3.86-.29-.19.66-1.18.57-1.83.68l-2.13.39c.02.645-.013 1.29-.1 1.93 1.1.11 3.36-1.09 3.87 0-1 .59-2.54.56-3.87.78v1.54c7.75-1.44 15.53-2.85 23.41-4.15-.16-8.94-.08-18.11-.1-27.18l-.19-.16zm-3.78 29.4c-5.48.9-11.11 1.82-16.73 2.71a14.002 14.002 0 01-3.48.48c-.82-.16-2-1.5-3.09-2.42-.92-.78-2.61-2.79-3.49-2.51a45.442 45.442 0 00-4.93 1.93c7.43 2.95 14.92 5.84 22.15 9 5.23-3.41 10.86-6.42 16-9.87-2.07-.42-4.25.32-6.43.68zm-4.44 7.74c-.72.43-3.64 1.95-3.87 2.61-.11 1.16-.08 2.328.09 3.48.31 8.28.29 16.54.39 24.66 4.53-3.39 9.32-7.07 14.12-10.73.6-.46 1.81-1.34 1.93-1.74a8.52 8.52 0 00-.09-2c-.29-7.19-.21-16.8-.49-23.88-3.77 2.4-7.92 5.05-12.08 7.6zm-28.53-6.41c-.12 0-.11.16-.1.29-.17 8.92-.31 17.88-.68 26.6 8.2 3.587 16.357 7.23 24.47 10.93-.16-9.48-.24-19-.19-28.73-7.86-2.98-15.71-5.99-23.5-9.09zm-7.837-34.891c0 .72-.18 1.18-1 1.06-.63-.68.37-1.91 1-1.06zm-6.633 3.19a1.72 1.72 0 012.32 1.65c.13 2.49-3.54 2.82-3.87.67a1.88 1.88 0 011.55-2.32zm-.29 2.32c.78.71 1.85-.46 1.06-1.06-.92-.17-.91.54-1.1 1.06h.04zm-34.18 43.811c.18-8 .29-16.85.67-24.95 7.21-2.61 15.41-5.43 22.83-7.54 1.24-.36 3.8 1.42 5 2 2.9 1.43 5.86 3.08 8.9 4.64 1.17.6 3.84 1.58 4.25 2.42.57 1.17.29 4.9.29 6.67 0 6 .2 10.86.2 17a13.46 13.46 0 01-.1 3.29c-.26.64-1.89 1.28-2.71 1.65-6.18 2.74-11.93 5.15-18.18 7.83-.89.38-2.31 1.21-3.1 1.16-1.1-.07-3.81-2.68-4.74-3.38-4.58-3.5-9.06-7.08-13.31-10.79zm23.6-31.23c-6.56 2.14-13.66 4.58-20.31 7 4.82 2.68 9.4 5.62 14.21 8.32a466.228 466.228 0 0121.57-7.55c-4.96-2.81-10.41-5.1-15.47-7.77zm-22 30.65c4.83 4 10.07 8.24 14.89 12.19.26.21.45.69.87.58-.05-8.84-.28-17.51-.19-26.5-5.2-3.08-10.15-6.42-15.38-9.48.02 7.87-.14 15.51-.24 23.21h.05zm38.87-21.85c-7.26 2.56-14.74 4.91-22.14 7.35.22 9.12.47 18.22.58 27.46 7.26-3 14.37-6.12 21.76-9 0-8.68 0-17.24.09-25.82-.09-.16-.17.01-.29.01zm58.002.479c-1.26-2.33 2.52-.39 0 0z"/><path d="M16.303 48.846c-.24.91-1.58.94-2.41 1.26-.83.32-1.83 1-2.62.67 0-.81 1.23-1 2-1.25 1.05-.35 2.11-.99 3.03-.68zm.002 1.841c-.24.78-1.53.94-2.41 1.25-.88.31-2 1-2.52.29a5.57 5.57 0 012.32-1.16c.8-.26 1.87-.71 2.61-.38zm80.371.088a1.92 1.92 0 012.42 1.84c.26 3.3-5.41 2.91-4.06-.48a2.2 2.2 0 011.64-1.36zm1.07 2.52c.71-1.42-1.74-1.77-1.65.19a1.168 1.168 0 001.65-.19zm-81.63-.49c-.19.67-1.39 1-2.22 1.26-.83.26-2 1-2.33.1a5.662 5.662 0 011.94-.87c.95-.33 1.99-.97 2.61-.49zm.389 1.94c0 .68-1.28 1-2.13 1.35-.85.35-2.07.94-2.52.29.21-.68 1.25-.69 2-1 .98-.3 1.86-1 2.65-.64zm58.903-.099a8 8 0 01-1.94 2.81c-1.88 2.14-3.63 4.47-5.51 6.77-.31.38-.84 1.08-1.45.77.1-1.08 1.06-1.92 1.74-2.71 2.15-2.49 4.36-5.22 6.58-7.73a.81.81 0 01.58.09zm-58.615 2.23c-.47.7-1.51.82-2.32 1.16-.81.34-1.63.91-2.52.67.07-1 1.31-1 2-1.25s1.61-.69 2.32-1a.49.49 0 01.52.42zm54.744-.1c-.26 1-1.32 1.84-2 2.71-.68.87-1.29 2.28-2.42 1.93a7.56 7.56 0 011.84-2.42 19.818 19.818 0 012.22-2.41c.11.05.21.14.36.19zm3.678 1.26c-.802 1.44-1.74 2.8-2.8 4.06-.47.61-1 1.3-1.45 1.93-.45.63-1 1.56-1.84 1.36-.14-.83.72-1.38 1.16-1.94 1.37-1.74 2.81-3.67 4.25-5.41 0-.11.2-.07.2-.2.3-.08.29.16.48.2zm-58.416.669c-.19.83-1.43.93-2.23 1.26-.8.33-1.78 1.14-2.42.49.12-.71 1.17-.77 1.94-1.07.95-.37 1.86-1.05 2.71-.68zm.764 1.94c-.41.75-1.73 1.08-2.71 1.45-.98.37-2.22 1-2.9.39.45-.77 1.58-.76 2.42-1.07.84-.31 1.86-.72 2.71-1.06.17 0 .2.12.38.1-.01.11.03.17.1.19zm58.132-.099a7.32 7.32 0 01-1.55 2.52c-.54.71-1.11 1.81-2 1.83-.17-.91.76-1.5 1.25-2.12.6-.77 1.14-1.58 1.75-2.32a.81.81 0 01.55.09zm-57.547 2.23c-.51.88-1.71 1.06-2.9 1.54-.33.14-3 1.48-3.1.58 0-.58 2.36-1.14 2.91-1.35 1.16-.45 2.16-1.1 3.09-.77zm58.42-.2c.13.82-.88 2.15-1.74 1.65.45-.68.73-1.53 1.74-1.65zm-57.742 2.419c-.63.87-2.05 1.22-3.19 1.64a8.651 8.651 0 01-3.58.87c-.17-.72.73-.78 1.26-1 1.06-.37 2-.74 3.19-1.16.86-.27 1.5-.7 2.32-.35zm.39 1.931c-.67.94-2.19 1.19-3.39 1.65-.57.21-1.23.44-1.84.68-.61.24-1.29.86-1.74.19.56-1 1.92-1 3-1.45 1.08-.45 2.43-.93 3.48-1.36.28-.02.34.19.49.29zm.382 2.13c0 .82-1.09.85-1.64 1.07-.55.22-1.27.52-1.84.77-1.18.52-2.46 1.43-3.68 1.16.13-1 1.84-1.15 3-1.64 1.42-.61 3.04-1.63 4.16-1.36zm73.117.29c.22.54 0 1-.29 1.07-1 .27-1.08-1.67.29-1.07zm-72.629 2.13c-.21.77-1.26.91-1.94 1.16l-4.45 1.65c-.64.23-1.52.94-2.13.29.72-1.07 2.47-1.21 3.87-1.75 1.56-.59 3.27-1.65 4.65-1.35zm8.508 4.161c0-1.75 1-3.07 2.51-2.71a1.82 1.82 0 011.26 1.94c-.15 1.66-2.76 2.16-3.77.77zm1.45-.39c.61 0 1-.13 1.06-.67-.33-.73-1.27-.23-1.06.67zM4.707 82.596c3.77-.88 9.87-.38 8.8 4.16 3.6 0 6.8 1 8.51 2.9a3.29 3.29 0 01.68 3.39c-1.58 3.22-8.15 4.86-11.71 2.41-.47.56-.48 1.13-.87 1.65-2.14 2.89-8 2.33-9.09-1.16-.87.43-1.63 1.38-2.9 1.93-3.72 1.63-9.75.67-9.48-4.06-3.91.14-7.41-1.19-7.06-4.74.5-5 8.67-6.2 12.29-3.09a6.25 6.25 0 014.83-3.2c.43-2.75 5.63-3.51 6-.19zm-12.77 14.12c2.61 1.08 6.78-.35 8-2 .43-.57.39-1.44 1.16-1.45.77-.01.87 1.36 1.16 2 1.14 2.64 5.33 2.79 6.67.87.44-.62.44-2.21 1.26-2.42.82-.21 1.67.67 2.42 1a8.45 8.45 0 003.48.48c1.88-.14 5.46-1.54 5.32-3.48-.07-1-1.86-2.15-3-2.61a11.7 11.7 0 00-4.74-.87c-1.35 0-3.19.73-3.19-.48 0-1 1.71-1.07 1.74-2 .07-1.74-4.28-2.26-6.09-2-.71.09-1.62.71-2.13.48-.75-.34-.31-1.57-1-2.23-.84-.84-2.32-.32-3.09.78 0 .55.25 1-.1 1.35-1.55.33-3.52.74-4.35 2.13-.39.65-.26 1.82-1.06 1.93-.62.09-1.15-.8-1.84-1.25-2.66-1.72-7.17-1.25-8.8.77-2.34 2.91 1.27 4.85 4.35 4.74.72 0 1.46-.49 2 .1-.14 2.15.38 3.56 1.83 4.16zm110.738-13.93a1.54 1.54 0 011.06 2.81c-2.09 1.26-3.75-2.3-1.06-2.81zm-.1 1.84c.44.05.63-.14.58-.58-.25-.22-.8.33-.58.58zm-9.188 6.48c.77-2.08 1.58 1.35 0 0zm-19.921 1.941a1.51 1.51 0 011.94 1.45c0 2.16-3.52 2.09-3.29-.1a1.44 1.44 0 011.35-1.35zm-.19 1.74c.31.14.89.17.87-.29-.27-.47-.75-.15-.87.29zm-44.968-.101c1.48-.37 2.23.44 2.22 1.55 0 2.11-3.69 2.68-3.58 0a1.65 1.65 0 011.36-1.55zm-.1 1.94a.62.62 0 001.06-.49c-.31-.56-1.05-.14-1.05.49h-.01zm20.497-1.84a1.48 1.48 0 011.55 2.32c-1.48 2.23-4.69-1.83-1.55-2.32zm-.19 1.54a.72.72 0 00.77 0c0-.55-.65-.33-.77 0z"/></g></svg>