<svg width="115" height="107" viewBox="0 0 115 107" fill="none" xmlns="http://www.w3.org/2000/svg">
<g opacity="0.4">
<path fill-rule="evenodd" clip-rule="evenodd" d="M3.26657 -1.84596C6.34071 -4.25203 11.5863 -4.46224 15.7022 -5.49308C17.6716 -5.94528 19.561 -6.69333 21.3061 -7.71174C22.821 -8.63845 23.9377 -9.93313 25.5139 -10.7954C29.1313 -12.8379 32.3494 -10.3618 32.2744 -6.29793C32.2144 -2.86342 29.1556 0.461168 24.889 1.99742C25.7728 2.63971 26.6897 3.23522 27.6359 3.78148C31.824 1.94526 37.1487 1.80737 39.8763 3.69419C40.7936 4.32493 42.0714 5.74156 41.5143 7.04138C41.9002 7.34081 42.1882 7.7484 42.3415 8.21217C42.4948 8.67593 42.5065 9.17485 42.3751 9.6453C44.3601 12.0815 41.3715 13.3543 38.9862 14.498C37.6215 15.1469 35.9953 15.4782 34.8435 16.0893C33.0818 17.0228 31.6431 18.1477 29.5024 18.9921C23.4244 21.3708 16.5475 21.4594 11.6949 24.9081C11.025 26.9535 9.66753 28.7037 7.85311 29.8614C5.78546 31.1252 3.00913 31.5754 0.334889 32.4633C-2.11069 33.278 -4.71578 34.5941 -7.33689 35.4102C-9.71409 36.1547 -13.1254 37.0909 -14.9637 36.5645C-15.4819 36.4187 -16.1046 35.8289 -16.4458 35.8573C-17.0632 36.0339 -17.6562 36.2863 -18.2114 36.6088C-20.0398 37.3112 -21.547 37.5894 -22.9423 37.223C-23.5902 37.0957 -24.1861 36.7801 -24.6555 36.3158C-25.1249 35.8514 -25.4469 35.2589 -25.5811 34.6124C-25.9527 32.9577 -25.119 31.1554 -24.4281 29.8409C-22.6301 26.5524 -19.8581 23.9012 -16.4927 22.2514C-17.0048 21.4148 -17.3384 20.4814 -17.4725 19.5098C-19.7755 20.6278 -22.406 20.8718 -24.8754 20.1965C-25.7538 19.9112 -26.6162 19.5788 -27.4589 19.2007C-28.6786 18.7375 -29.9367 18.4798 -30.5336 17.1171C-31.0618 15.8454 -31.2192 14.4501 -30.9876 13.0927C-30.756 11.7353 -30.1448 10.4712 -29.2249 9.44657C-29.668 8.46495 -29.6242 7.12754 -29.6473 5.94057C-29.6993 3.34141 -29.5954 0.785099 -28.6357 -1.39569C-27.3167 -4.36009 -24.8768 -6.88936 -21.1342 -8.60579C-18.4859 -9.82852 -14.9806 -9.64169 -12.8881 -9.29367C-10.1053 -8.82932 -7.4326 -7.10477 -4.60233 -6.02037C-1.82965 -4.93158 0.810261 -3.53112 3.26657 -1.84596ZM-11.4451 -1.94654C-8.89341 0.99097 -8.47355 5.78917 -8.27719 8.89779C-8.29212 10.3444 -8.14128 11.7881 -7.82762 13.2004C-7.47128 14.5186 -6.65341 15.6649 -5.5229 16.4308C-1.33614 18.9457 3.35982 13.7523 4.79781 10.8302C5.86521 8.68147 6.74836 6.244 5.82419 3.34159C4.90003 0.439176 2.59809 -1.23701 0.237485 -2.53118C-1.75032 -3.65358 -3.81267 -4.63851 -5.93508 -5.47906C-8.14689 -6.30949 -9.95045 -7.50953 -12.2573 -8.09071C-14.7215 -8.73183 -17.3107 -8.71613 -19.767 -8.04518C-21.9614 -7.32211 -23.9384 -6.05807 -25.5156 -4.36967C-26.6701 -3.19253 -27.9979 -1.43524 -28.3555 0.0593813C-28.9668 2.61253 -28.4841 5.24432 -28.4991 8.18469C-28.4745 8.24862 -28.5518 8.31497 -28.4524 8.30616C-28.2541 7.84847 -27.7573 7.51825 -27.5855 7.04874C-27.7282 6.90977 -27.8362 6.7391 -27.9005 6.5506C-27.9649 6.36209 -27.984 6.16106 -27.9561 5.96383C-27.9282 5.76659 -27.8543 5.5787 -27.7402 5.41541C-27.6261 5.25212 -27.4751 5.11803 -27.2995 5.02402C-26.729 4.69482 -26.3903 4.94623 -26.2683 4.7673C-26.3384 4.31737 -26.6765 3.93371 -26.229 3.7618C-25.6728 3.54815 -25.5768 4.42833 -25.3031 4.87344C-23.6308 4.27849 -21.8138 4.22471 -20.1092 4.71974C-19.9065 4.4071 -19.1457 3.00706 -18.6936 3.61106C-18.4287 3.95684 -18.779 4.26745 -19.0619 4.67692C-19.7753 5.68461 -20.1367 5.69871 -21.2537 5.44551C-21.6979 5.32832 -22.1529 5.25727 -22.6117 5.23351C-23.4166 5.21989 -24.7196 5.17016 -25.5818 5.8095C-25.9074 6.23795 -26.2086 6.68434 -26.4842 7.14655C-28.2149 9.34472 -29.9011 10.9902 -30.067 13.7098C-30.1669 14.7799 -29.9737 15.8571 -29.5083 16.8259C-29.1476 17.421 -28.0975 17.8246 -27.4013 18.0708C-25.1408 18.8752 -22.6238 19.9845 -19.7996 19.2005C-18.5915 18.8111 -17.4456 18.2499 -16.3973 17.5341C-15.3645 16.8805 -14.197 16.3293 -13.5879 15.6038C-12.8264 14.7024 -13.1435 13.3422 -13.9858 12.3525C-14.5441 11.7013 -16.9588 10.4573 -16.0057 9.86368C-15.5015 9.55264 -13.8107 10.994 -13.2898 11.5863C-12.239 12.7747 -11.7928 14.5474 -12.3725 15.6358C-11.6972 16.0655 -10.9075 16.2803 -10.1076 16.252C-9.30776 16.2238 -8.53526 15.9537 -7.89201 15.4774C-9.53322 12.9238 -9.21734 10.1173 -9.45269 7.34646C-9.6747 4.43845 -10.2017 0.774556 -12.0756 -1.50625C-12.4133 -1.9268 -13.1807 -2.16755 -13.0407 -2.91094C-12.3439 -3.17863 -11.8284 -2.37153 -11.4451 -1.94654ZM-26.9343 6.49043C-26.921 6.35325 -26.8451 6.01598 -27.1013 6.0557C-27.1456 6.13141 -27.0897 6.5061 -26.9407 6.49289L-26.9343 6.49043ZM17.9804 -2.17905C19.9074 -0.982424 21.6675 0.50571 23.6531 1.32031C27.6241 0.19844 30.695 -2.71261 31.2258 -5.70439C31.4885 -7.14054 30.806 -9.49017 29.492 -10.218C26.9437 -11.6381 23.9846 -8.1684 21.9627 -6.90017C18.6438 -4.8256 14.1208 -4.07127 10.8095 -3.46688C8.32815 -3.01261 5.60155 -2.75757 3.90408 -1.31318C8.14346 2.36997 7.63826 7.56753 5.77314 11.3066C4.59994 13.6575 2.81803 15.9707 0.230667 17.1993C-3.2016 18.8259 -5.33081 18.0004 -7.3392 16.3435C-9.39707 17.7283 -11.4207 17.1777 -12.8473 16.4051C-13.8734 17.4009 -15.4466 18.1373 -16.7309 19.0341C-16.2307 22.2461 -13.856 24.0925 -11.2755 23.8201C-9.55 22.201 -7.54909 20.9031 -5.36705 19.9879C-4.56985 19.6376 -3.29804 18.995 -3.08099 19.6746C-2.86395 20.3543 -4.4169 20.7234 -4.92885 20.9567C-7.07211 21.9149 -9.0533 23.2007 -10.8014 24.7679C-12.708 26.6227 -14.6404 28.9644 -15.5667 31.2131C-15.8325 31.8581 -16.3272 33.2439 -16.0601 34.1685C-15.4533 36.283 -12.7289 35.5447 -10.9842 35.1973C-8.99772 34.8247 -7.05015 34.2681 -5.16672 33.5348C-3.06337 32.7268 -1.15763 31.7674 0.741564 31.1919C2.40569 30.692 4.77392 30.2298 6.63784 29.3524C7.96332 28.7369 9.06133 27.7196 9.77612 26.4449C11.2661 23.9063 11.5383 22.0557 9.87293 18.3889C9.68383 17.8966 8.94964 16.9021 9.56978 16.6638C10.1899 16.4256 10.9005 18.4857 11.1943 19.2312C11.6375 20.2317 11.9245 21.2943 12.0451 22.3819C12.0675 22.8795 11.8469 23.5658 12.0268 23.8049C17.806 19.7508 24.9782 20.2971 31.4489 16.9164C29.9019 17.1292 27.9748 17.5173 26.2771 17.1277C25.751 16.9996 25.1606 16.6468 24.4389 16.4105C24.1882 16.3307 22.4493 15.7955 23.4015 15.1803C23.7659 14.9449 24.6124 15.4488 24.9669 15.5694C25.3213 15.69 26.1689 16.0247 26.5239 16.1085C29.1685 16.7286 33.9936 15.3667 37.2541 14.1142C38.7629 13.5346 42.3564 12.1176 42.0181 10.8169C41.9322 10.4977 41.4057 10.2158 41.3085 9.8863C41.1268 9.4132 41.541 8.88726 41.4128 8.4963C41.2847 8.10534 40.6151 7.77563 40.4869 7.38467C40.3588 6.99371 40.7194 6.38563 40.5667 5.93074C40.2457 5.3015 39.7493 4.77869 39.1375 4.42552C38.3266 4.02677 37.4567 3.76141 36.5613 3.63969C34.6305 3.23187 32.6341 3.24781 30.71 3.6864C29.7098 3.90921 28.5683 4.50909 27.4979 4.56814C26.5685 4.63167 25.2886 3.45793 24.2907 2.86551C23.2928 2.27308 22.2059 1.67816 21.3648 1.15021C19.7721 0.155318 18.6451 -0.849703 17.1851 -1.78553C16.8081 -2.0222 15.9762 -2.20153 16.0227 -2.90169C16.7373 -3.25689 17.4318 -2.51855 17.974 -2.17659L17.9804 -2.17905ZM-23.997 31.326C-24.4621 32.4071 -24.8989 34.0202 -24.3309 35.0786C-23.1699 37.2224 -19.5127 36.1623 -16.9342 34.9297C-17.571 32.5845 -16.605 30.6875 -15.5874 29.0201C-14.6273 27.5685 -13.5715 26.1825 -12.427 24.8714C-13.8489 24.684 -14.8756 23.6918 -15.9792 22.8244C-19.5438 24.6633 -22.3744 27.6632 -24.0034 31.3285L-23.997 31.326Z" fill="white"/>
<path fill-rule="evenodd" clip-rule="evenodd" d="M70.2453 -21.6177C70.6179 -20.0368 70.8715 -17.3903 72.2065 -16.3405C74.3894 -17.0176 76.1059 -17.9924 77.3719 -16.5492C78.9436 -14.7686 77.2265 -13.3754 75.5204 -12.5072C74.6878 -12.0774 73.7597 -11.6475 73.7019 -10.9577C73.5724 -9.21317 75.8257 -7.70172 76.062 -6.11244C75.0525 -4.74888 71.3085 -3.20798 69.762 -4.04452C68.679 -4.6483 68.7555 -6.51181 67.6499 -7.13625C66.4778 -7.36096 64.6407 -5.93629 64.8807 -4.79594C64.9719 -4.3101 65.6203 -3.82549 65.7292 -3.141C65.9876 -1.58957 63.7416 -0.58007 61.7068 -0.12856C60.9922 0.0358606 59.9645 0.225221 59.5187 -0.285845C58.9953 -0.884465 58.9491 -2.05523 58.8177 -2.85577C58.6862 -3.65632 58.6192 -4.51828 58.4308 -5.33361C57.7715 -5.57924 57.1109 -5.0834 56.4834 -4.86436C54.9806 -4.34576 53.3308 -3.96146 52.4707 -4.95899C51.3128 -6.31166 52.0582 -8.6302 53.8483 -9.31783C54.347 -9.50938 55.0353 -9.43632 55.4667 -9.72674C56.9225 -10.7115 54.1325 -13.8876 53.9648 -15.1071C54.1658 -16.0353 55.4248 -16.5776 56.5397 -17.0939C57.6546 -17.6103 59.4162 -18.2576 60.1865 -17.7611C60.9567 -17.2647 60.7513 -16.2907 61.2977 -15.4221C61.5252 -15.0974 61.8575 -14.8609 62.2389 -14.7524C62.6202 -14.6438 63.0273 -14.6699 63.3917 -14.8263C63.7561 -14.9826 64.0555 -15.2596 64.2396 -15.6107C64.4238 -15.9619 64.4814 -16.3657 64.4029 -16.7543C64.2738 -17.3577 63.7528 -17.7591 63.698 -18.3984C63.5291 -20.3657 68.3898 -21.9981 70.2453 -21.6177ZM54.7107 -15.1515C55.712 -13.2325 57.8802 -10.3384 56.0736 -9.00615C55.5365 -8.60908 54.5516 -8.57556 53.8488 -8.15152C53.6353 -8.04165 53.4469 -7.88878 53.2954 -7.70254C53.1439 -7.51629 53.0326 -7.30068 52.9685 -7.06932C52.9044 -6.83795 52.8888 -6.5958 52.9229 -6.35814C52.9569 -6.12048 53.0398 -5.89245 53.1663 -5.68838C54.1378 -4.28613 58.121 -7.59164 59.0845 -5.98091C59.234 -5.58036 59.3238 -5.16001 59.351 -4.73335C59.5424 -3.42712 59.8251 -2.13592 60.197 -0.869213C61.6206 -0.983181 64.4412 -1.60448 64.6896 -3.02048C64.2786 -3.57895 63.9865 -4.21585 63.8314 -4.89176C63.6768 -6.6885 66.3014 -8.77517 68.0648 -8.08064C68.6706 -7.76086 69.1474 -7.24167 69.4144 -6.61087C69.7176 -5.99366 69.7266 -5.35886 70.2408 -5.01347C71.246 -4.30647 73.8369 -5.69789 74.9214 -6.31255C74.1398 -7.92713 72.0429 -9.81417 72.7896 -11.671C73.0923 -12.4109 74.0976 -12.9071 75.1643 -13.4342C76.0329 -13.8853 77.2206 -14.613 76.8404 -15.5454C76.6615 -15.8357 76.3966 -16.0632 76.0826 -16.1963C75.7686 -16.3294 75.4209 -16.3615 75.0878 -16.2881C74.092 -16.111 73.1757 -15.3262 72.3241 -15.3658C70.3617 -15.4704 70.0981 -18.8687 69.6288 -20.7206C67.9816 -20.5207 65.5567 -19.7286 64.7345 -18.4884C67.429 -14.9308 62.2668 -11.8107 60.4827 -14.7936C60.0798 -15.4605 60.1366 -16.0766 59.7568 -16.8551C58.2996 -17.2491 56.1296 -15.8506 54.7107 -15.1515Z" fill="white"/>
<path fill-rule="evenodd" clip-rule="evenodd" d="M32.2821 11.9823C32.4265 12.3961 32.4586 12.8408 32.3752 13.2711C32.2917 13.7014 32.0957 14.1019 31.8071 14.4317C31.3171 13.8056 32.0319 12.878 31.9752 12.1001L32.2821 11.9823Z" fill="white"/>
<path fill-rule="evenodd" clip-rule="evenodd" d="M33.3333 12.141C33.3424 12.8712 33.3994 14.0892 32.6244 14.1154C32.6484 13.4385 32.7747 12.7692 32.999 12.1301C33.1583 12.0102 33.2084 12.1597 33.3333 12.141Z" fill="white"/>
<path fill-rule="evenodd" clip-rule="evenodd" d="M34.1032 11.9215C34.3778 12.4836 34.3385 13.5845 33.5778 13.686C33.6198 13.0315 33.5076 12.319 34.1032 11.9215Z" fill="white"/>
<path fill-rule="evenodd" clip-rule="evenodd" d="M35.1454 11.8728C35.2253 12.5391 35.2786 13.1936 34.6521 13.5296C34.4094 13.0506 34.5456 11.8391 35.1454 11.8728Z" fill="white"/>
<path fill-rule="evenodd" clip-rule="evenodd" d="M36.0005 11.6918C36.0151 12.2071 36.1382 12.776 35.5157 13.0078C35.4473 12.9827 35.4135 12.8563 35.3166 12.8715C35.5011 12.4925 35.3334 11.3684 36.0005 11.6918Z" fill="white"/>
<path fill-rule="evenodd" clip-rule="evenodd" d="M55.7268 5.95442C55.7721 5.90156 55.8315 5.86281 55.8981 5.84277C55.9647 5.82274 56.0357 5.82228 56.1025 5.84142C56.1694 5.86056 56.2294 5.8985 56.2753 5.95075C56.3212 6.003 56.3511 6.06734 56.3615 6.13612C56.6527 7.06605 55.0618 6.59138 55.7268 5.95442Z" fill="white"/>
<path fill-rule="evenodd" clip-rule="evenodd" d="M73.3129 40.8483C74.8308 43.969 76.1195 47.1961 77.1687 50.504C73.9642 54.0606 70.4953 57.5207 67.1187 61.1067C66.6863 61.5663 66.2784 62.376 65.4711 62.1652C64.9252 61.2597 64.7959 60.0255 64.3991 58.8207C64.0023 57.6158 63.6041 56.4262 63.2535 55.2843C61.1832 54.6123 58.8865 54.4968 56.9693 53.5165C56.3099 54.6649 55.6047 56.0949 54.9187 57.4222C54.6914 57.8617 54.5416 58.4841 54.1158 58.6551C53.6899 58.826 52.9456 58.4736 52.566 58.326C52.1865 58.1783 51.4432 57.9429 51.2511 57.4811C51.059 57.0194 51.4522 56.3621 51.623 55.871C52.1513 54.2668 52.5291 52.691 53.1787 51.2309C51.1545 50.4309 49.2907 49.273 47.6766 47.8128C46.5183 48.6172 45.2518 49.4265 43.9932 50.2181C42.7346 51.0097 41.6121 51.9838 40.2814 52.3776C39.6685 51.8133 39.9506 50.9053 39.9548 50.2287C39.9573 46.6255 40.1939 43.0205 40.4948 39.4494C40.502 38.0672 40.7164 36.694 41.1308 35.3754C43.3419 34.4087 45.6454 33.5679 48.0876 32.6297C48.8613 32.4242 49.6042 32.1166 50.2967 31.7151C50.5786 31.4748 50.8135 30.5775 51.0542 30.0009C52.6666 25.8909 54.9389 22.0717 57.7814 18.6936C61.255 14.7108 65.8011 11.6292 72.6261 8.94149C73.1419 7.68688 73.6489 6.42834 74.093 5.1206C71.9087 3.02503 72.9476 -0.38201 75.9751 -0.503172C76.3947 -0.526427 76.8147 -0.465121 77.2102 -0.3229C77.6056 -0.180678 77.9685 0.0395543 78.2771 0.324731C78.5858 0.609908 78.8341 0.954222 79.0071 1.3372C79.1801 1.72018 79.2744 2.134 79.2844 2.55414C79.2802 3.119 79.139 3.6744 78.8729 4.1727C78.6069 4.67101 78.224 5.09737 77.757 5.4152C77.4314 5.59896 76.9063 5.58792 76.62 5.77858C76.2182 6.05032 76.0806 7.08628 75.8866 7.68903C75.6926 8.29177 75.1528 9.15941 75.2185 9.65507C75.4499 10.3932 75.7492 11.1084 76.1125 11.7914C78.1464 17.2388 77.755 21.9305 77.1896 26.4175C76.6051 31.3905 75.2991 36.2518 73.3129 40.8483ZM76.9195 4.62911C77.4656 4.34881 77.8826 3.86858 78.0834 3.28848C78.2843 2.70837 78.2535 2.07312 77.9976 1.51512C77.2444 0.146403 74.7352 0.12716 73.9774 1.59211C73.7624 2.05132 73.6955 2.56601 73.7859 3.06492C73.8764 3.56384 74.1197 4.0223 74.4822 4.37683C75.3486 4.35949 75.9944 5.02847 76.9195 4.62911ZM74.7807 5.51673C74.4528 6.42034 74.1466 7.32295 73.8315 8.22165C74.1827 8.12346 74.3645 8.40579 74.6624 8.47475C74.9514 7.52737 75.3354 6.61689 75.6509 5.68132C75.32 5.69839 75.1067 5.48687 74.7871 5.51427L74.7807 5.51673ZM62.6275 15.4381C66.726 18.7352 71.4608 20.614 76.5341 21.7318C76.5273 18.0662 76.2443 12.9366 73.8523 9.21146C69.9122 10.9019 66.1535 12.9873 62.6339 15.4356L62.6275 15.4381ZM53.9676 26.1452C60.1416 30.3764 66.3476 34.5954 74.1413 35.2698C75.5447 31.4366 76.0392 27.2042 76.5061 22.9384C73.9075 22.2071 71.3477 21.3441 68.8367 20.3528C66.3681 19.1955 64.0607 17.7217 61.9729 15.9683L61.8514 16.015C58.556 18.8122 55.8741 22.2602 53.974 26.1427L53.9676 26.1452ZM53.5174 26.883C50.3921 33.0137 48.7951 39.8192 48.3067 47.1232C49.7958 48.5413 51.5297 49.6773 53.4244 50.4763C54.2789 48.2699 54.9638 46.0039 55.8297 43.8079C56.6955 41.6118 57.3553 39.3188 58.5776 37.2866C61.5756 35.6947 62.981 36.6222 63.8954 39.499C61.966 44.0258 59.3263 48.2312 57.3438 52.7344C59.1706 53.4464 61.0628 53.9776 62.9933 54.3205C67.2769 48.5886 72.065 43.0811 73.8557 36.2452C65.9666 35.6661 59.7371 31.3095 53.543 26.8732L53.5174 26.883ZM43.3134 35.5568C42.6741 35.8024 41.7428 35.918 41.5552 36.5183C43.6202 35.7251 45.9936 34.7033 48.037 33.8157C48.6763 33.5701 49.8259 33.3926 49.956 32.719C47.859 33.6199 45.3952 34.6544 43.3134 35.5568ZM41.4693 37.4023C43.5791 36.7423 45.6373 35.9272 47.6269 34.9636C48.3051 34.6665 49.5472 34.5195 49.6453 33.7628C46.9577 34.9786 43.8905 36.0468 41.4821 37.3974L41.4693 37.4023ZM42.5927 37.7485C42.1451 37.9204 41.5476 38.0839 41.4344 38.5529C43.5302 37.8539 45.5859 37.0397 47.592 36.1142C48.2313 35.8686 49.4164 35.7068 49.3184 34.8788C47.0896 35.8376 44.7615 36.8053 42.6055 37.7436L42.5927 37.7485ZM42.7879 38.8106C42.2253 39.0267 41.2158 39.0917 41.3723 39.9193C43.8008 38.8691 46.4013 37.8848 48.8386 36.8385C48.8078 36.5863 48.9716 36.4206 48.9382 36.1619C47.0296 36.9611 44.6931 37.9834 42.8007 38.8057L42.7879 38.8106ZM41.2973 40.6598C41.3294 40.8461 41.3306 41.0365 41.301 41.2233C43.7427 40.2266 46.0669 39.1724 48.5022 38.1782C48.4286 37.9864 48.8354 37.5367 48.474 37.5508C46.1851 38.6208 43.5851 39.5682 41.3101 40.6549L41.2973 40.6598ZM41.2569 42.0252C41.3404 42.2426 41.1835 42.3689 41.2606 42.5887C43.6369 41.6319 45.907 40.6278 48.1973 39.638C48.1708 39.34 48.3278 39.1183 48.3078 38.8179C46.0224 39.9159 43.4587 40.9007 41.2697 42.0203L41.2569 42.0252ZM41.1855 43.3292C41.2238 43.5718 41.2247 43.8189 41.1882 44.0618C43.4642 43.0922 45.6251 42.0713 47.9277 41.1135C47.9027 40.8956 48.2446 40.3534 47.9167 40.34C45.7597 41.352 43.4379 42.3172 41.1983 43.3243L41.1855 43.3292ZM41.1672 44.7522C41.121 45.0363 41.1136 45.3255 41.1452 45.6117C43.3814 44.5766 45.4657 43.4898 47.7339 42.4425C47.7998 42.1958 47.8206 41.9393 47.7952 41.6853C45.6022 42.7184 43.3601 43.719 41.18 44.7472L41.1672 44.7522ZM52.1899 57.1939C52.5988 57.5026 53.0895 57.684 53.6008 57.7157C56.2429 52.695 58.9797 46.8897 61.7644 41.6675C62.0961 41.0412 62.9502 39.8841 62.856 39.3334C62.7504 38.9094 62.5618 38.5106 62.3011 38.1599C62.0405 37.8092 61.713 37.5136 61.3375 37.2902C60.5169 37.4758 59.7093 37.715 58.92 38.0061C56.7169 44.3988 54.3757 50.7565 52.2027 57.189L52.1899 57.1939ZM47.5099 43.1007C45.4418 44.2106 43.2435 45.2678 41.0894 46.3447C41.0673 46.6307 41.06 46.9176 41.0674 47.2043C43.1979 46.0851 45.47 45.0289 47.6094 43.9136C47.5072 43.6667 47.8845 43.1402 47.5035 43.1032L47.5099 43.1007ZM41.0562 47.9201C40.9836 48.2792 40.9593 48.6463 40.984 49.0117C43.1549 47.8257 45.2776 46.6287 47.4878 45.4496C47.513 45.1638 47.5203 44.8768 47.5097 44.5901C45.3173 45.6818 43.145 46.7877 41.0498 47.9226L41.0562 47.9201ZM40.9729 49.7276C40.9266 50.1241 40.9373 50.5251 41.0048 50.9185C43.1723 49.6091 45.4307 48.3453 47.4375 46.9802C47.2655 46.6281 47.4854 46.4556 47.4019 46.1429C45.1642 47.2886 43.1605 48.5278 40.9665 49.7301L40.9729 49.7276ZM72.7656 41.9829C73.7296 44.8982 74.8528 47.7585 76.1302 50.5508C75.147 47.6857 74.1738 44.56 72.8798 41.7263C72.8787 41.7755 72.8674 41.8239 72.8466 41.8685C72.8259 41.913 72.7961 41.9529 72.7592 41.9854L72.7656 41.9829ZM75.1439 50.2179C74.343 47.7891 73.3445 45.2087 72.4476 42.8167C72.4329 42.7783 72.4182 42.74 72.3591 42.7773C72.1958 42.9061 72.2828 43.1515 72.0423 43.2512C73.2484 45.7225 74.1119 49.0591 75.3638 51.344C75.5901 50.9783 75.2574 50.5705 75.1376 50.2204L75.1439 50.2179ZM71.3744 44.6449C71.4027 45.3677 72.0728 46.5776 72.4427 47.4259C73.1801 49.1162 73.8155 50.9997 74.4823 52.1815C74.8674 51.8281 74.5146 51.2153 74.3766 50.7988C73.5958 48.4796 72.4703 46.0654 71.8055 43.9144C71.7908 43.8761 71.776 43.8377 71.717 43.875C71.6711 44.1567 71.3529 44.3597 71.3681 44.6473L71.3744 44.6449ZM70.5863 45.7253C71.6139 48.1331 72.5692 50.7154 73.6559 52.9905C74.0519 52.4935 73.5541 51.7897 73.3282 51.2016L71.0492 45.2687C71.0295 45.2176 71.0025 45.1473 70.9361 45.1654C70.8834 45.3911 70.6818 45.5346 70.5799 45.7278L70.5863 45.7253ZM69.8246 46.9129C70.8794 49.1049 71.7791 51.6572 72.8393 53.8251C73.4197 53.4261 72.7822 52.7025 72.5764 52.224C71.8145 50.4698 71.0627 48.0734 70.2556 46.3732C70.2409 46.3349 70.2286 46.3029 70.1735 46.3314C70.0963 46.5462 69.9778 46.7438 69.8246 46.9129ZM68.9971 48.0818C70.016 50.1995 70.8917 52.651 71.9145 54.7599C72.6385 54.2764 71.8964 53.2995 71.5413 52.4896C70.7794 50.7353 70.2176 49.0437 69.5387 47.4483C69.524 47.4099 69.5093 47.3716 69.4502 47.4089C69.3131 47.635 69.1574 47.8494 68.9848 48.0499L68.9971 48.0818ZM68.7614 50.7915C69.4383 52.3436 70.2349 54.6274 70.8943 55.7901C70.9888 55.5777 71.2691 55.448 71.4157 55.2376C70.4977 53.0005 69.6229 50.666 68.6419 48.5705C67.8353 49.0491 68.3449 49.8217 68.7491 50.7596L68.7614 50.7915ZM67.371 50.4379C68.1987 52.5924 68.9982 54.8457 69.9483 56.7844C70.0618 56.5957 70.1924 56.4178 70.3385 56.253C69.3854 54.2494 68.6705 51.7582 67.6604 49.8352C67.6293 50.0599 67.3225 50.1778 67.371 50.4379ZM67.3523 54.2088C67.901 55.4653 68.4349 56.7788 68.8185 57.8347C69.1061 57.7242 69.1377 57.4626 69.4003 57.325C68.8184 55.5237 67.79 52.8081 66.9298 50.8935C65.9978 51.523 66.7195 52.8671 67.3139 54.2235L67.3523 54.2088ZM65.5104 52.9281C66.2791 54.9291 66.9694 57.1657 67.7746 59.0133C67.8863 58.7503 68.1976 58.5867 68.3737 58.3577C67.552 56.333 66.8262 54.0807 65.9414 52.1976C65.7977 52.4729 65.4687 52.6286 65.472 52.9428L65.5104 52.9281ZM64.5614 54.1436C65.3552 55.8856 66.0092 58.2755 66.8183 60.0189C66.9806 59.8686 67.0279 59.667 67.2787 59.556C66.4953 57.5166 65.8875 55.285 65.05 53.3911C64.8782 53.6698 64.6033 53.8708 64.523 54.1584L64.5614 54.1436ZM63.9622 54.7993C64.7554 56.8643 65.4581 59.2282 66.1158 60.7877C66.4469 60.389 66.0341 59.8874 65.8887 59.4517C65.3525 57.8455 64.7666 56.1484 64.2445 54.6175C64.2273 54.5728 64.1664 54.5668 64.1009 54.6066C64.0355 54.6464 63.949 54.7457 63.9175 54.8165L63.9622 54.7993Z" fill="white"/>
<path fill-rule="evenodd" clip-rule="evenodd" d="M64.6879 4.36101C64.8933 4.21783 65.1328 4.13132 65.3823 4.11019C65.6318 4.08906 65.8824 4.13407 66.109 4.24066C66.3348 4.39389 66.5196 4.6001 66.6474 4.84126C66.7751 5.08243 66.8418 5.35121 66.8417 5.62412C66.8416 5.89702 66.7746 6.16573 66.6467 6.40679C66.5188 6.64785 66.3337 6.85392 66.1078 7.00697C65.3415 7.41869 64.0179 7.29618 63.7061 6.29347C63.5191 5.65369 64.1725 4.66171 64.6879 4.36101ZM65.6833 5.04244C64.9881 4.91332 64.709 5.6955 64.7097 6.19409C65.332 6.82077 66.6458 5.71451 65.6641 5.04981L65.6833 5.04244Z" fill="white"/>
<path fill-rule="evenodd" clip-rule="evenodd" d="M52.3946 12.9799C50.2713 14.4045 49.4541 10.7493 51.7105 10.8363C52.6639 10.8736 53.0916 12.3307 52.3946 12.9799ZM51.0978 12.2015C51.2304 12.5467 51.876 12.4895 51.9106 12.102C51.8655 11.8699 51.7273 11.835 51.6246 11.7204C51.5076 11.7584 51.4 11.821 51.3091 11.9039C51.2183 11.9869 51.1462 12.0884 51.0978 12.2015Z" fill="white"/>
<path fill-rule="evenodd" clip-rule="evenodd" d="M76.7455 2.49507C76.4002 2.62769 76.2194 2.36701 76.0652 2.02275C76.1692 1.39588 76.9905 2.06346 76.7455 2.49507Z" fill="white"/>
<path fill-rule="evenodd" clip-rule="evenodd" d="M75.8007 2.06615C76.0146 2.2408 76.3424 2.44499 76.2071 2.7611C75.7694 3.05397 75.1713 2.24192 75.8007 2.06615Z" fill="white"/>
<path fill-rule="evenodd" clip-rule="evenodd" d="M74.4663 2.65857C74.7361 3.01713 75.3166 3.63053 75.2215 4.07056C74.7199 4.2926 73.7832 2.94298 74.4663 2.65857Z" fill="white"/>
<path fill-rule="evenodd" clip-rule="evenodd" d="M75.2057 2.37312C75.4944 2.63331 75.6991 2.9735 75.7939 3.35039C75.273 3.77057 74.5266 2.55329 75.2057 2.37312Z" fill="white"/>
<path fill-rule="evenodd" clip-rule="evenodd" d="M38.2497 19.763C37.856 20.6479 37.0458 19.2644 38.0212 19.3592C38.1298 19.4727 38.2083 19.6115 38.2497 19.763Z" fill="white"/>
<path fill-rule="evenodd" clip-rule="evenodd" d="M23.7527 27.4589C23.1442 27.1351 23.9672 26.1073 24.3938 26.7211C24.6483 27.0782 24.4121 27.6091 23.7527 27.4589Z" fill="white"/>
<path fill-rule="evenodd" clip-rule="evenodd" d="M58.7233 15.8019C59.3348 17.3938 57.0702 15.872 58.7233 15.8019V15.8019Z" fill="white"/>
<path fill-rule="evenodd" clip-rule="evenodd" d="M25.5793 39.6033C26.1701 40.11 26.8295 40.1649 27.1364 41.0594C27.8097 43.0604 24.6226 43.7785 23.071 43.4061C23.708 44.0711 25.4753 44.8522 25.755 46.3442C25.7884 46.5035 25.7879 46.6681 25.7535 46.8272C25.719 46.9863 25.6514 47.1363 25.555 47.2675C25.4586 47.3987 25.3356 47.5081 25.1941 47.5885C25.0525 47.6689 24.8956 47.7186 24.7336 47.7343C24.0948 47.8476 23.18 47.3186 22.6388 46.9029C22.0015 46.382 21.4683 45.7455 21.0671 45.0269C21.066 46.4946 21.17 49.4773 19.0694 49.6239C17.8421 49.7139 16.798 47.7599 17.0769 46.3469C16.4585 47.2007 13.9121 49.1473 13.1207 47.5071C12.4049 46.0066 14.03 44.7368 15.1048 43.8104C13.8991 43.8993 12.0906 43.9851 11.4189 42.8859C10.502 41.3966 12.1741 40.4975 13.7516 40.2877C12.5291 39.5688 10.9564 36.468 13.1978 35.8858C14.7665 35.4813 15.8338 37.2283 16.9318 38.2151C16.7846 36.4375 16.6667 33.8197 18.9062 33.1942C20.0195 32.8839 21.1471 33.7566 21.4685 35.2618C22.9588 34.297 24.1834 32.974 25.0306 31.4138C25.4168 30.7005 26.1031 28.8009 26.9915 30.2351C27.1782 30.5873 27.3216 30.9608 27.4188 31.3475C28.4004 34.4185 27.5774 37.7573 25.5793 39.6033ZM21.5777 36.3864C21.6078 37.3433 21.1412 38.3442 21.1537 39.1024C21.139 39.064 21.1267 39.0321 21.1931 39.0139C22.2612 38.0675 23.2055 36.9899 24.0035 35.8067C24.1826 35.5472 24.4416 34.7507 24.7671 34.6624C25.9301 34.3477 25.0508 35.9547 24.8225 36.2772C23.9576 37.4824 22.7066 38.7333 21.9308 39.6549C22.7292 39.4061 23.5719 39.3327 24.4013 39.4396C25.53 38.4419 26.3162 37.1143 26.6484 35.6449C26.9807 34.1755 26.8422 32.6388 26.2525 31.2526C25.3892 33.2642 23.5157 34.8423 21.5777 36.3864ZM20.1337 38.3571C20.3977 37.3826 20.7512 36.3738 20.4865 35.4557C20.0467 33.7758 18.6294 34.0781 18.0443 35.1906C17.3874 36.4407 17.7443 38.9741 18.7088 40.6065C19.8009 40.5465 19.8831 39.2897 20.1337 38.3571ZM14.3592 37.1711C14.1257 37.0407 13.5731 36.8054 13.34 36.9243C12.8354 37.1768 13.1418 38.1083 13.4175 38.5966C14.1761 39.9413 15.9879 40.1697 17.252 40.4618C16.5822 39.4058 15.3738 37.7498 14.3592 37.1711ZM13.4518 41.2833C13.0215 41.4046 12.3163 41.6315 12.2143 42.1108C13.0059 43.274 15.0929 42.9199 16.6911 42.3059C17.1131 42.1439 17.7647 41.9302 17.9596 41.5399C16.5104 41.0352 14.9488 40.9463 13.4518 41.2833ZM18.7487 41.5889C18.8371 41.8191 19.0555 41.7572 19.1907 41.6319L19.095 41.3826C18.9589 41.4085 18.8363 41.4815 18.7487 41.5889ZM22.4092 42.237C23.3021 42.4559 24.2307 42.4864 25.1361 42.3267C25.5049 42.2364 26.2795 41.9609 26.2339 41.4795C26.1884 40.9981 25.1034 40.4464 24.8832 40.3696C23.7746 40.1741 22.6353 40.2469 21.5607 40.5821C20.9961 40.7549 20.0495 41.0599 20.0675 41.5079C20.7942 41.8935 21.5859 42.1415 22.4028 42.2395L22.4092 42.237ZM18.6519 42.6165C18.5024 43.9652 17.515 46.3033 18.1472 47.7772C18.7288 49.1385 19.6649 48.3094 19.9116 47.3856C20.2289 45.7313 19.9721 44.0182 19.1835 42.5297C19.0017 42.5105 18.8181 42.5405 18.6519 42.6165ZM14.0438 47.0645C16.0993 46.6858 16.9744 44.6475 17.2901 43.3304C15.8391 44.4233 13.9698 45.3248 14.0438 47.0645ZM24.7336 46.6264C24.0656 44.8875 22.4216 44.2938 21.1322 43.5346C22.1046 45.1493 23.0755 46.6838 24.7483 46.6648L24.7336 46.6264Z" fill="white"/>
<path fill-rule="evenodd" clip-rule="evenodd" d="M41.8115 26.6266C41.7105 26.2869 41.5832 25.9556 41.4309 25.6357C41.3802 24.4152 43.0788 23.8141 43.6802 24.845C43.7958 25.1033 43.8286 25.3911 43.7739 25.6688C43.7193 25.9466 43.58 26.2005 43.3751 26.3958C43.1703 26.5911 42.91 26.7182 42.63 26.7595C42.35 26.8008 42.064 26.7544 41.8115 26.6266ZM42.3467 25.9955C43.8042 25.8171 42.1832 24.481 42.3467 25.9955V25.9955Z" fill="white"/>
<path fill-rule="evenodd" clip-rule="evenodd" d="M4.28075 39.2024C6.03661 38.0437 6.93033 40.8478 5.51986 41.4923C4.10939 42.1368 2.7777 40.198 4.28075 39.2024ZM5.21043 40.6868C5.93395 40.1447 4.46315 39.2571 4.50539 40.5321C4.69067 40.747 4.95466 40.8804 5.21043 40.6868Z" fill="white"/>
<path fill-rule="evenodd" clip-rule="evenodd" d="M35.2337 29.0788C35.2035 29.187 35.1408 29.2834 35.0541 29.3547C34.9673 29.4261 34.8607 29.4691 34.7487 29.4779C33.9853 29.1329 35.0099 28.1524 35.2337 29.0788Z" fill="white"/>
<path fill-rule="evenodd" clip-rule="evenodd" d="M49.4757 23.6818C49.8813 23.8781 50.0178 24.4053 49.6858 24.5915C49.1831 24.8873 48.5463 23.9361 49.4757 23.6818Z" fill="white"/>
<path fill-rule="evenodd" clip-rule="evenodd" d="M35.2866 34.9504C36.9958 33.861 37.3851 36.4406 36.2555 36.9186C35.9945 37.0471 35.6931 37.0666 35.4177 36.9729C35.1423 36.8792 34.9154 36.6799 34.7869 36.4189C34.6585 36.1579 34.639 35.8566 34.7327 35.5812C34.8264 35.3058 35.0256 35.0789 35.2866 34.9504ZM35.5064 36.0765C35.5721 36.1486 35.6637 36.1916 35.761 36.1962C35.8584 36.2008 35.9536 36.1664 36.0257 36.1008C36.0978 36.0352 36.1408 35.9436 36.1454 35.8462C36.1499 35.7488 36.1156 35.6537 36.05 35.5816C35.786 35.5436 35.5705 35.8612 35.5064 36.0765Z" fill="white"/>
<path fill-rule="evenodd" clip-rule="evenodd" d="M3.27144 47.4615L3.41386 47.8322C3.30832 47.9903 3.14831 48.104 2.96432 48.1517C2.42991 47.9828 2.78821 47.1775 3.27144 47.4615Z" fill="white"/>
<path fill-rule="evenodd" clip-rule="evenodd" d="M87.2814 10.1978C88.0606 9.495 87.7612 11.5615 87.1745 10.6644C87.0438 10.4578 87.0856 10.3757 87.2814 10.1978Z" fill="white"/>
<path fill-rule="evenodd" clip-rule="evenodd" d="M4.035 53.3445C4.12197 53.2936 4.2242 53.2754 4.32342 53.2929C4.42263 53.3105 4.51237 53.3628 4.57659 53.4404C4.64081 53.518 4.67531 53.616 4.67396 53.7167C4.67261 53.8175 4.63548 53.9144 4.5692 53.9903C4.30361 54.1584 4.17829 54.0231 4.00572 53.994C3.94061 53.8968 3.90833 53.7814 3.9136 53.6645C3.91887 53.5476 3.9614 53.4355 4.035 53.3445Z" fill="white"/>
<path fill-rule="evenodd" clip-rule="evenodd" d="M36.1868 42.2713C37.7847 41.2173 38.9274 43.6763 37.5007 44.3931C37.0384 44.622 36.0786 44.6826 35.7016 44.1598C35.0903 43.2941 35.6246 42.6414 36.1868 42.2713ZM36.3647 43.6703C36.9226 43.9769 37.6753 43.1669 36.9566 42.8047C36.7801 42.8744 36.6294 42.9967 36.5248 43.155C36.4203 43.3132 36.3669 43.4999 36.372 43.6895L36.3647 43.6703Z" fill="white"/>
<path fill-rule="evenodd" clip-rule="evenodd" d="M88.4288 20.1064C88.499 20.1145 88.5667 20.137 88.6278 20.1725C88.6889 20.2079 88.742 20.2556 88.7839 20.3125C88.8257 20.3694 88.8553 20.4343 88.8709 20.5032C88.8865 20.5721 88.8878 20.6435 88.8745 20.7129C88.8042 20.7399 88.7659 20.7546 88.7776 20.8234C88.1997 21.2289 87.8102 20.234 88.4288 20.1064Z" fill="white"/>
<path fill-rule="evenodd" clip-rule="evenodd" d="M95.795 14.5448C96.463 14.0682 97.1301 14.2007 97.3831 14.8592C97.9504 16.2406 95.6828 17.1557 95.3191 15.5787C95.2742 15.378 95.2964 15.1682 95.3824 14.9814C95.4684 14.7946 95.6134 14.6412 95.795 14.5448ZM96.2863 15.6327C96.3396 15.6262 96.3909 15.6082 96.4366 15.58C96.4823 15.5517 96.5212 15.5138 96.5508 15.4689C96.5803 15.4241 96.5998 15.3733 96.6077 15.3202C96.6156 15.267 96.6119 15.2128 96.5967 15.1612C96.2855 15.0387 96.0665 15.519 96.3182 15.6204L96.2863 15.6327Z" fill="white"/>
<path fill-rule="evenodd" clip-rule="evenodd" d="M24.3198 49.8087C24.3649 49.7348 24.4334 49.6779 24.5144 49.6472C24.5954 49.6164 24.6843 49.6134 24.7672 49.6388C24.85 49.6641 24.9221 49.7162 24.9721 49.787C25.022 49.8578 25.047 49.9432 25.043 50.0298C25.1145 50.6553 23.8657 50.3646 24.3198 49.8087Z" fill="white"/>
<path fill-rule="evenodd" clip-rule="evenodd" d="M12.6822 57.045C12.8295 56.9117 13.0083 56.8181 13.2017 56.773C13.3951 56.7278 13.5968 56.7326 13.7878 56.7869C13.9789 56.8412 14.153 56.9431 14.2938 57.0832C14.4346 57.2233 14.5375 57.3969 14.5927 57.5876C15.1846 59.1284 12.4709 60.2001 11.9799 58.7307C11.9346 58.4125 11.9759 58.088 12.0995 57.7914C12.2231 57.4947 12.4244 57.2369 12.6822 57.045ZM13.0026 58.624C13.4673 58.5922 13.8913 58.2826 13.7627 57.8331C13.2854 57.3929 12.8514 58.1538 13.0154 58.6191L13.0026 58.624Z" fill="white"/>
<path fill-rule="evenodd" clip-rule="evenodd" d="M102.882 25.6629C102.809 25.7344 102.722 25.7903 102.626 25.827C102.53 25.8637 102.428 25.8806 102.326 25.8765C101.573 25.1972 102.967 24.6618 102.882 25.6629Z" fill="white"/>
<path fill-rule="evenodd" clip-rule="evenodd" d="M33.3738 49.1769C35.0062 48.117 35.6305 50.8118 34.0112 51.1991C32.7798 51.4887 32.2844 49.8742 33.3738 49.1769ZM33.6378 50.4181C34.0351 50.4783 34.3489 50.0349 34.0294 49.7761C33.8982 49.8211 33.7861 49.9091 33.7111 50.0258C33.6361 50.1425 33.6026 50.281 33.6161 50.4191L33.6378 50.4181Z" fill="white"/>
<path fill-rule="evenodd" clip-rule="evenodd" d="M73.036 36.9849C72.8596 37.7863 71.7305 37.1196 71.2004 37.1911C71.1515 37.1218 71.1216 37.041 71.1136 36.9565C71.1056 36.8721 71.1198 36.787 71.1549 36.7097C71.795 36.772 72.5076 36.6597 73.036 36.9849Z" fill="white"/>
<path fill-rule="evenodd" clip-rule="evenodd" d="M72.637 37.9896C72.4513 38.7285 71.2601 38.225 70.8187 38.0498C70.9832 37.3703 72.1734 37.8522 72.637 37.9896Z" fill="white"/>
<path fill-rule="evenodd" clip-rule="evenodd" d="M83.879 26.5507C85.5616 25.3542 86.1446 28.0941 84.9584 28.6158C83.6237 29.2092 82.7591 27.3404 83.879 26.5507ZM84.1676 27.8558C84.3493 27.9044 84.5426 27.8825 84.7089 27.7946C85.1007 26.9618 84.0454 27.1177 84.1676 27.8558Z" fill="white"/>
<path fill-rule="evenodd" clip-rule="evenodd" d="M72.1946 39.2227C71.9032 39.4002 71.5613 39.4765 71.222 39.4396C70.8828 39.4028 70.5653 39.2548 70.3188 39.0188C70.6047 38.5789 71.8206 38.7648 72.1946 39.2227Z" fill="white"/>
<path fill-rule="evenodd" clip-rule="evenodd" d="M85.4068 35.2362C85.6149 35.0903 85.7954 35.0063 85.9988 35.2876C86.7983 36.4331 84.3012 36.0058 85.4068 35.2362Z" fill="white"/>
<path fill-rule="evenodd" clip-rule="evenodd" d="M69.6584 39.839C70.3346 39.7563 71.0208 39.8346 71.661 40.0675C71.5687 40.8586 69.8081 40.4198 69.6584 39.839Z" fill="white"/>
<path fill-rule="evenodd" clip-rule="evenodd" d="M69.2635 40.8405C69.9038 40.769 70.5517 40.8637 71.1446 41.1157C70.9378 41.8187 69.7137 41.4013 69.288 41.0952C69.2472 41.0082 69.3229 40.9571 69.2635 40.8405Z" fill="white"/>
<path fill-rule="evenodd" clip-rule="evenodd" d="M27.7064 57.517C27.2564 56.5747 28.8115 56.8797 28.2124 57.5353C27.9856 57.6518 27.878 57.5244 27.7064 57.517Z" fill="white"/>
<path fill-rule="evenodd" clip-rule="evenodd" d="M36.9406 64.5167C39.2229 63.8307 41.5116 63.0469 42.5517 64.9143C43.787 67.1177 41.6703 69.1706 38.8708 69.7324C38.4378 70.5151 38.64 71.3471 39.088 72.3415C39.536 73.3359 40.5677 74.4363 40.316 75.3473C40.0644 76.2583 38.3005 76.6131 37.3706 76.9043C36.0649 77.3251 35.0135 77.6629 34.3155 77.0873C33.2416 76.2013 33.2164 74.0541 31.6473 74.2093C30.715 74.3033 30.281 75.1597 30.0034 75.8312C31.017 77.6868 30.592 79.2734 28.8996 80.1582C27.6504 80.8215 25.0841 81.2644 24.4044 80.4691C23.244 79.11 24.3157 77.4878 23.3447 76.0487C21.319 75.741 18.0714 77.9056 17.0924 75.4718C16.8765 74.7349 16.9535 73.9431 17.3072 73.2616C17.9258 72.0263 19.3225 71.365 20.8116 70.9251C21.2519 69.2446 19.1973 67.5248 18.6615 65.8818C19.6824 65.1066 20.7805 64.4389 21.9386 63.8893C23.9274 63.0887 25.1388 63.3203 26.2017 65.0176C26.6336 65.7027 26.9363 66.166 27.4909 66.1584C27.9268 66.1352 28.3396 65.9551 28.6531 65.6513C28.9665 65.3475 29.1595 64.9405 29.1963 64.5055C29.2118 63.9347 28.6344 63.1954 28.5875 62.5385C28.4755 60.9674 30.5148 60.3748 32.4095 59.9404C33.0832 59.7843 34.3987 59.3891 34.8544 59.6395C35.9015 60.2644 35.5903 63.6561 36.9406 64.5167ZM29.906 63.0297C30.0812 62.5883 30.6391 61.787 30.4696 61.5367C29.8745 61.8019 29.3423 62.4026 29.906 63.0297ZM31.2333 61.3093C30.9771 62.5522 29.9201 63.3911 30.1761 64.8408C30.8709 63.6128 31.4925 62.3469 32.0634 61.0638C31.7314 61.2501 31.5304 61.1659 31.2235 61.2838L31.2333 61.3093ZM21.8845 65.0472C21.6319 65.5135 21.4161 65.9987 21.2388 66.4985C21.0316 66.9522 20.4634 67.4786 20.8212 68.0088C21.3496 67.1308 21.9284 65.8301 22.5238 64.8017L21.8845 65.0472ZM22.1474 66.6483C21.797 67.3405 21.0132 68.4706 21.4806 69.1715C22.3106 67.8182 23.2028 66.0155 23.9376 64.4714C23.6819 64.5696 23.4611 64.5297 23.2044 64.6063C22.9278 65.2041 22.5553 65.8387 22.1474 66.6483ZM24.7646 77.4915C24.8996 77.8431 24.7933 78.082 24.9107 78.4257C27.6074 73.2227 30.0989 67.2181 32.7392 61.8681C32.9262 61.4954 33.3344 61.1258 33.1383 60.8637C33.0227 60.8374 32.9014 60.8577 32.8005 60.9201C30.0476 66.4161 27.516 72.0106 24.7646 77.4915ZM19.8149 66.2678C19.9415 66.5528 20.0931 66.826 20.2679 67.0842C20.539 66.7012 21.0006 65.8784 20.8561 65.6551C20.5654 65.8915 20.0864 66.0388 19.8021 66.2727L19.8149 66.2678ZM32.7873 63.2729C30.2809 68.4175 27.9982 73.5715 25.683 78.7747C25.5255 79.1287 25.0547 79.6983 25.4338 79.7875C26.0144 79.9239 26.5891 78.0011 26.7426 77.656C29.105 72.3466 31.6498 67.0919 33.961 61.8976C34.1343 61.5082 34.5514 61.0472 34.2999 60.5642C34.0997 60.6925 34.0265 60.5592 33.8406 60.6673C33.5331 61.5563 33.1772 62.4277 32.7745 63.2778L32.7873 63.2729ZM24.4238 64.6294C23.7909 66.0757 23.037 67.5318 22.3913 68.8876C22.1689 69.3399 21.8122 69.8438 21.8916 70.3561C22.9466 68.557 24.0079 66.7553 24.9808 64.9143C24.7507 64.9073 24.6987 64.5238 24.4238 64.6294ZM27.1301 78.703C26.9766 79.0481 26.6145 79.4807 26.7757 79.6902C27.6288 79.7147 27.7487 78.6708 28.0086 78.0868C28.3592 77.4405 28.6716 76.7742 28.9441 76.0914C28.9903 75.7271 29.0654 75.367 29.1688 75.0146C29.3977 74.6608 29.6465 74.3202 29.9142 73.9947C30.4047 73.19 30.7562 72.1379 31.1923 71.2294C32.5186 68.4749 33.6423 65.5562 34.9494 62.9045C34.7091 62.5272 34.8303 62.0405 34.5221 61.7921C32.132 67.3542 29.5737 73.223 27.1326 78.7094L27.1301 78.703ZM20.4984 74.3688C20.3247 74.6997 19.8863 75.411 20.0023 75.4838C20.2366 75.4848 20.4692 75.4428 20.6883 75.3597C21.825 73.2576 23.2643 70.7019 24.4871 68.4421C24.7612 67.9333 25.7275 66.5717 25.6402 66.077C25.5569 65.857 25.4298 65.6562 25.2667 65.4868C23.6503 68.3453 22.0278 71.551 20.5009 74.3752L20.4984 74.3688ZM25.9807 66.6578C24.9797 68.7884 23.7116 71.007 22.63 73.0805C22.2426 73.7248 21.9358 74.4143 21.7165 75.1335C21.8046 75.0189 22.0489 75.1011 22.1758 75.0304C22.5206 74.8393 23.0591 73.5099 23.3213 73.0277C24.4138 70.9059 25.5313 68.8113 26.4152 66.8724C26.2436 66.8649 26.2113 66.5325 25.9831 66.6642L25.9807 66.6578ZM31.4313 72.1573C31.2699 72.5201 30.9417 73.0791 31.1236 73.266C31.72 73.3671 31.8027 72.895 31.9721 72.5145C32.8698 70.497 33.6715 68.8024 34.581 66.7583C34.9983 65.8203 35.8834 64.6293 35.1777 63.6898C34.0407 66.4596 32.6386 69.4559 31.4338 72.1637L31.4313 72.1573ZM26.8857 67.1612C25.6873 69.7711 24.2588 72.2787 23.0364 74.8832C23.3294 74.844 23.5162 75.0437 23.8181 75.0085C24.9993 72.3538 26.5109 69.8143 27.6783 67.1429C27.3562 67.2593 27.1896 67.0738 26.8881 67.1676L26.8857 67.1612ZM27.3337 69.2634C26.507 70.9309 25.8653 72.1825 25.1497 73.7193C24.8131 74.4282 24.0162 75.2185 24.5832 76.0645C26.065 73.1989 27.9063 69.7991 29.3276 66.7954C29.3892 66.6691 29.5658 66.4032 29.41 66.2649C28.1302 67.0206 27.9198 68.0772 27.3362 69.2698L27.3337 69.2634ZM32.4467 73.33C32.6001 73.271 32.6729 73.3458 32.7672 73.4196C33.5065 72.165 34.1692 70.8668 34.7514 69.5321C35.3971 68.1762 35.975 66.7584 36.5784 65.4261C36.3055 65.3842 36.1532 65.0832 35.898 64.9538C34.8426 67.8023 33.4146 70.4638 32.4491 73.3364L32.4467 73.33ZM37.131 65.566C36.1649 67.6539 35.1623 69.9905 34.237 72.07C33.955 72.6919 33.2063 73.5884 33.7017 74.1905C34.573 72.9828 35.1273 71.3318 35.8527 69.8207C36.3896 68.6973 37.0067 67.5726 37.5062 66.4857C37.6755 66.1051 37.9245 65.6647 37.8386 65.4409C37.6105 65.5164 37.3733 65.5606 37.1334 65.5724L37.131 65.566ZM19.3038 73.8373C19.0478 74.3869 18.8399 74.9577 18.6825 75.5432C19.0818 75.6467 19.316 75.1678 19.4892 74.8739C20.063 73.9234 20.5591 72.9281 20.9725 71.8977C19.7957 72.1957 19.6847 73.0527 19.3063 73.8437L19.3038 73.8373ZM38.6953 65.1118C37.3897 67.5575 36.4288 70.3844 35.2059 72.835C34.8279 73.5891 33.9808 74.5161 34.506 75.4442C35.9593 72.3328 37.7836 68.6974 39.173 65.4198C39.2257 65.2896 39.5115 65.0404 39.3154 64.8736L38.6953 65.1118ZM18.162 75.2003C18.4107 74.3198 18.8806 73.5377 19.1823 72.6807C18.3782 73.2611 17.7533 74.2128 18.1876 75.1905L18.162 75.2003ZM39.6666 65.5971C39.1666 66.7209 38.579 68.0177 38.2619 68.9686C38.9637 68.5229 39.3315 67.4939 39.674 66.7241C39.8355 66.3613 39.9738 66.0146 40.1308 65.6976C40.2878 65.3805 40.5642 65.0689 40.4267 64.8062C39.9763 64.6271 39.8295 65.3144 39.6922 65.5872L39.6666 65.5971ZM40.9974 65.0125C40.6868 65.8655 40.1849 66.8506 39.8162 67.6672C39.7114 67.8909 39.519 68.1922 39.6591 68.3658L39.966 68.248C40.185 67.7677 40.5269 67.2255 40.7725 66.6616C41.0181 66.0977 41.3995 65.467 41.1508 65.049C41.143 64.9713 41.0948 64.9604 41.023 65.0027L40.9974 65.0125ZM40.9717 67.8103C41.3044 67.6025 41.5545 67.2856 41.6793 66.9138C41.8042 66.542 41.7959 66.1384 41.656 65.772C41.6183 66.4761 40.9975 67.2281 40.9717 67.8103ZM35.6264 74.9038C35.4177 75.3728 35.0153 75.8722 35.1267 76.3723C35.6685 76.4649 35.7887 75.7658 35.9679 75.4109C36.6037 74.1248 37.2002 72.7365 37.7136 71.4755C37.6655 71.1785 37.6805 70.6446 37.5429 70.4773C36.8923 71.9158 36.2259 73.485 35.5998 74.892L35.6264 74.9038ZM36.6283 75.2966C36.5023 75.5797 36.2809 75.9583 36.3988 76.1697C36.9869 75.9438 37.1569 75.1449 37.4374 74.6336C37.7179 74.1224 37.9817 73.4341 38.2396 72.9022C38.0907 72.82 38.0652 72.4483 37.9045 72.3926C37.5574 73.3036 36.9994 74.391 36.6017 75.2848L36.6283 75.2966ZM28.8523 78.1442C28.6948 78.4981 28.4438 78.9907 28.5224 79.1953C29.1579 78.6724 29.9263 77.9224 29.3228 77.039C29.1874 77.4165 29.0212 77.7822 28.8258 78.1324L28.8523 78.1442ZM37.9679 74.716C37.7977 75.0748 37.5595 75.5625 37.6356 75.7607C38.6245 75.4321 38.5251 74.6193 38.8769 74.0073C38.7043 73.9782 38.6976 73.5406 38.5024 73.5862C38.3526 73.9764 38.1647 74.3508 37.9414 74.7041L37.9679 74.716ZM38.9526 75.2548C39.3268 75.2358 39.4317 74.8213 39.1588 74.684C39.1179 74.8831 38.9468 75.0296 38.926 75.243L38.9526 75.2548Z" fill="white"/>
<path fill-rule="evenodd" clip-rule="evenodd" d="M70.7891 42.0317C70.7806 42.1599 70.7579 42.2867 70.7216 42.4099C70.0061 42.4572 69.2907 42.5046 68.7963 42.0196C69.1702 41.4651 70.1789 42.0093 70.7891 42.0317Z" fill="white"/>
<path fill-rule="evenodd" clip-rule="evenodd" d="M70.1945 43.2575C69.5606 43.6697 68.8576 43.2721 68.338 43.0462C68.2962 42.9375 68.3631 42.8825 68.3061 42.7723C68.8018 42.7066 69.8929 42.7204 70.1945 43.2575Z" fill="white"/>
<path fill-rule="evenodd" clip-rule="evenodd" d="M69.8341 44.1731C69.3004 44.6936 68.3565 44.2418 67.7921 44.0331C67.6835 43.884 67.8733 43.8625 67.8267 43.741C68.5265 43.6193 69.2463 43.7742 69.8341 44.1731Z" fill="white"/>
<path fill-rule="evenodd" clip-rule="evenodd" d="M69.0866 45.1703C68.4384 45.6028 67.7275 45.2229 67.1906 45.0476L67.0949 44.7983C67.133 44.7375 67.1893 44.6902 67.2557 44.6632C67.8718 44.8153 68.6792 44.5492 69.0866 45.1703Z" fill="white"/>
<path fill-rule="evenodd" clip-rule="evenodd" d="M45.4388 53.2586C45.5866 53.1424 45.7646 53.0708 45.9518 53.0523C46.1389 53.0339 46.3275 53.0694 46.4951 53.1546C46.6628 53.2398 46.8026 53.3711 46.8981 53.5332C46.9936 53.6952 47.0407 53.8812 47.034 54.0691C47.158 55.1367 45.3217 55.7614 44.8594 54.6917C44.5416 54.0361 44.8865 53.5588 45.4388 53.2586ZM45.8331 54.457C46.0696 54.3662 46.2015 54.2128 46.1436 53.9857C45.8324 53.8631 45.5426 54.3119 45.8331 54.457Z" fill="white"/>
<path fill-rule="evenodd" clip-rule="evenodd" d="M68.3885 46.1446C68.0927 46.2888 67.7596 46.3381 67.4347 46.2855C67.1098 46.233 66.8091 46.0813 66.5738 45.8513C66.867 45.4305 68.0372 45.612 68.3885 46.1446Z" fill="white"/>
<path fill-rule="evenodd" clip-rule="evenodd" d="M67.9087 46.9149C67.4536 47.4492 66.6214 47.0206 66.1627 46.8006C66.3144 46.126 67.5292 46.5764 67.9087 46.9149Z" fill="white"/>
<path fill-rule="evenodd" clip-rule="evenodd" d="M96.5834 42.7791C97.0981 41.9798 97.7561 40.656 99.2859 40.3985C101.542 40.0085 102.531 43.3264 101.141 44.8654C104.061 43.7952 107.646 48.9256 103.303 50.1314C102.781 50.2239 102.25 50.263 101.72 50.2482C102.111 50.4745 102.429 50.8087 102.635 51.2107C102.842 51.6127 102.929 52.0657 102.885 52.5156C102.841 52.9655 102.669 53.3933 102.389 53.748C102.109 54.1027 101.732 54.3694 101.305 54.5161C99.7065 55.13 98.2245 53.9459 97.427 52.7482C97.5169 55.1788 94.0104 56.8412 92.528 54.2046C92.2069 53.6327 92.0489 52.9836 92.0714 52.3281C92.0939 51.6726 92.2959 51.0359 92.6554 50.4874C90.6947 51.3799 89.1224 50.8394 88.4318 49.2706C87.3142 46.6479 89.7568 44.7559 92.6469 45.0983C91.2045 43.2533 90.7901 39.6342 93.3991 39.417C94.8674 39.2858 95.9258 41.0289 96.5834 42.7791ZM93.084 40.5065C91.825 41.0488 92.5224 44.2584 93.9483 45.354C94.5608 45.7471 95.2611 45.9822 95.9866 46.0384C96.3825 44.7198 94.9085 39.7176 93.084 40.5065ZM100.715 43.393C101.202 41.7386 99.418 40.7806 98.1881 42.1627C97.7303 42.768 97.4178 43.4704 97.2747 44.2157C97.1111 45.0122 96.7945 45.9261 97.2304 46.507C98.7682 45.9456 100.352 44.6624 100.715 43.393ZM89.4865 49.0562C90.5238 50.8587 93.5229 49.0977 94.8018 47.9388C94.6831 47.6315 94.6538 47.2969 94.7172 46.9736C93.4807 45.4163 87.6455 45.8677 89.4865 49.0562ZM96.7325 47.1971C96.6899 47.121 96.6294 47.0564 96.5564 47.0087C96.4833 46.961 96.3998 46.9317 96.313 46.9232C96.2261 46.9148 96.1385 46.9275 96.0577 46.9602C95.9768 46.9929 95.905 47.0447 95.8485 47.1112C94.7196 48.0877 97.3299 48.4276 96.7325 47.1971ZM103.321 49.0684C105.117 48.3783 103.992 46.4626 102.867 45.9778C102.361 45.8217 101.828 45.7701 101.301 45.8263C100.773 45.8824 100.263 46.0451 99.8011 46.3045C99.3885 46.5291 99.0466 46.8805 98.6428 47.1089C98.2391 47.3374 97.554 47.4831 97.5066 47.9709C98.927 48.4597 101.41 49.8243 103.318 49.062L103.321 49.0684ZM93.3691 53.6247C93.491 53.8887 93.6844 54.1132 93.9275 54.2727C94.1706 54.4322 94.4535 54.5203 94.7442 54.5271C95.0349 54.5339 95.3216 54.459 95.5719 54.311C95.8221 54.163 96.0259 53.9478 96.1599 53.6898C96.7987 52.4687 95.917 50.1735 95.6747 48.7406C95.6044 48.7676 95.4923 48.686 95.4893 48.8119C94.4233 49.933 92.2189 51.5281 93.3592 53.5991L93.3691 53.6247ZM100.855 53.5369C101.161 53.4585 101.43 53.2772 101.617 53.0235C101.804 52.7698 101.898 52.4593 101.883 52.1443C101.669 50.9573 99.5016 49.9557 98.4511 49.4936C97.896 49.2519 97.2376 49.3141 96.8228 48.7692C96.8081 48.7308 96.7958 48.6988 96.7344 48.7297C97.3854 51.0548 98.895 54.2018 100.855 53.5369Z" fill="white"/>
<path fill-rule="evenodd" clip-rule="evenodd" d="M67.2878 47.7045C67.2302 47.7266 67.2725 47.7985 67.2793 47.8545C66.9931 47.9643 66.6813 47.99 66.3809 47.9287C66.0805 47.8673 65.8039 47.7214 65.5836 47.5081C65.8735 46.964 66.8734 47.4089 67.2878 47.7045Z" fill="white"/>
<path fill-rule="evenodd" clip-rule="evenodd" d="M66.5679 48.7656C66.0064 48.7171 64.8976 48.7909 65.0036 48.0165C65.5258 48.1534 66.6587 47.9897 66.5679 48.7656Z" fill="white"/>
<path fill-rule="evenodd" clip-rule="evenodd" d="M1.04369 73.077C1.09596 73.9006 1.38959 74.8369 0.877976 75.4149C0.336868 74.8084 0.642664 73.7519 0.709332 73.066C0.868693 72.9461 0.918792 73.0956 1.04369 73.077Z" fill="white"/>
<path fill-rule="evenodd" clip-rule="evenodd" d="M66.1086 49.433C65.5257 49.8256 64.8651 49.4044 64.3759 49.1815C64.3366 49.0792 64.3981 49.0483 64.3686 48.9715C64.6707 48.8585 65.0004 48.8421 65.3122 48.9248C65.6239 49.0075 65.9022 49.1851 66.1086 49.433Z" fill="white"/>
<path fill-rule="evenodd" clip-rule="evenodd" d="M97.8636 36.7598C97.9536 36.9408 98.0046 37.1386 98.0134 37.3405C97.8777 37.4579 97.7181 37.5443 97.5457 37.5936C96.9596 37.3858 97.2964 36.3908 97.8636 36.7598Z" fill="white"/>
<path fill-rule="evenodd" clip-rule="evenodd" d="M65.357 50.4342C65.0829 50.5108 64.7925 50.5067 64.5207 50.4224C64.2489 50.3382 64.0072 50.1773 63.8245 49.9591C63.9958 49.5265 65.3302 49.7916 65.357 50.4342Z" fill="white"/>
<path fill-rule="evenodd" clip-rule="evenodd" d="M1.78786 73.7153C2.07488 74.0233 1.93159 74.5479 1.90832 74.9457C1.88504 75.3434 2.04064 75.9586 1.55823 76.0779C1.18233 75.4813 1.22374 74.0421 1.78786 73.7153Z" fill="white"/>
<path fill-rule="evenodd" clip-rule="evenodd" d="M64.7848 51.1525C64.2644 51.5359 63.6475 51.1712 63.2434 50.9596C63.3297 50.3249 64.5244 50.6657 64.7848 51.1525Z" fill="white"/>
<path fill-rule="evenodd" clip-rule="evenodd" d="M12.3758 72.2366C12.429 72.1924 12.4917 72.1611 12.559 72.1449C12.6262 72.1287 12.6963 72.1282 12.7638 72.1434C12.8313 72.1585 12.8944 72.189 12.9483 72.2325C13.0021 72.2759 13.0453 72.3311 13.0745 72.3938C13.5652 73.5185 11.3907 72.9379 12.3758 72.2366Z" fill="white"/>
<path fill-rule="evenodd" clip-rule="evenodd" d="M64.2891 51.9727C64.0033 52.1288 63.6699 52.1739 63.3529 52.0994C63.0358 52.0248 62.7575 51.8359 62.5712 51.5688C62.862 51.4369 63.1882 51.405 63.499 51.4781C63.8097 51.5511 64.0876 51.7251 64.2891 51.9727Z" fill="white"/>
<path fill-rule="evenodd" clip-rule="evenodd" d="M2.47226 74.9421C2.7907 75.37 2.56182 75.9201 2.51395 76.3493L2.20708 76.4672C1.99584 76.0128 1.86046 75.2211 2.47226 74.9421Z" fill="white"/>
<path fill-rule="evenodd" clip-rule="evenodd" d="M63.0503 53.6608C62.0914 54.0292 61.0974 53.5233 60.296 53.1561C60.1874 53.0071 60.3773 52.9855 60.3306 52.8641L60.452 52.8174C60.911 52.8914 61.3633 53.0023 61.8046 53.1489C62.1989 53.2395 62.8416 53.1174 63.0503 53.6608Z" fill="white"/>
<path fill-rule="evenodd" clip-rule="evenodd" d="M61.7161 52.396C62.464 52.2041 62.9861 52.5318 63.6302 52.5851C63.7722 52.802 63.5602 52.8615 63.5872 53.0272C62.9097 53.0013 61.9356 53.082 61.7161 52.396Z" fill="white"/>
<path fill-rule="evenodd" clip-rule="evenodd" d="M3.18867 75.8767C3.248 76.2795 3.42236 76.7333 3.11003 76.9707C2.50864 77.0476 2.57712 75.5834 3.18867 75.8767Z" fill="white"/>
<path fill-rule="evenodd" clip-rule="evenodd" d="M82.7682 50.1297C83.0842 50.4558 83.0024 50.8541 82.7462 50.9892C82.0286 51.3749 81.6624 49.8868 82.7682 50.1297Z" fill="white"/>
<path fill-rule="evenodd" clip-rule="evenodd" d="M48.8664 67.8312C50.4571 66.758 51.0903 69.2659 49.6116 69.5992C48.9099 69.7587 47.7175 68.6027 48.8664 67.8312ZM49.2801 68.7361C49.3107 68.7584 49.3456 68.7742 49.3825 68.7823C49.4195 68.7905 49.4578 68.7909 49.495 68.7835C49.5321 68.7762 49.5674 68.7612 49.5984 68.7395C49.6295 68.7178 49.6557 68.6899 49.6754 68.6576C49.65 68.2858 49.1715 68.4917 49.2801 68.7361Z" fill="white"/>
<path fill-rule="evenodd" clip-rule="evenodd" d="M13.236 85.5924C14.2078 85.0284 15.1458 85.5411 15.3026 86.7134C15.4595 87.8857 13.6585 88.8123 12.8387 87.9387C12.6847 87.769 12.5713 87.5665 12.507 87.3466C12.4427 87.1266 12.4291 86.895 12.4674 86.669C12.5056 86.4431 12.5947 86.2288 12.7278 86.0423C12.861 85.8558 13.0347 85.702 13.236 85.5924ZM13.5061 87.4035C13.6489 87.4593 13.807 87.4623 13.9518 87.4119C14.0966 87.3616 14.2186 87.2612 14.296 87.1289C14.3735 86.9966 14.4011 86.841 14.374 86.6901C14.3469 86.5392 14.2669 86.4029 14.1483 86.3058C13.4826 86.158 13.3505 86.8837 13.5061 87.4035Z" fill="white"/>
<path fill-rule="evenodd" clip-rule="evenodd" d="M60.3021 62.3837C61.8784 61.3307 62.2978 63.7594 61.2242 64.2304C60.982 64.3329 60.7099 64.3391 60.4632 64.248C60.2165 64.1569 60.0138 63.9752 59.8963 63.74C59.7789 63.5047 59.7554 63.2335 59.8308 62.9815C59.9062 62.7296 60.0747 62.5158 60.3021 62.3837ZM60.6655 63.5207C61.0136 63.453 61.0408 63.2371 61.0438 63.0159C60.7675 62.9459 60.5609 63.2675 60.6591 63.5232L60.6655 63.5207Z" fill="white"/>
<path fill-rule="evenodd" clip-rule="evenodd" d="M21.0529 82.8192C20.9547 82.9256 20.8252 82.9981 20.6831 83.0263C20.541 83.0545 20.3937 83.037 20.2622 82.9762C19.6554 81.9694 21.3601 81.8428 21.0529 82.8192Z" fill="white"/>
<path fill-rule="evenodd" clip-rule="evenodd" d="M84.088 61.5461C86.0077 60.2218 86.7581 63.455 85.1023 63.9957C84.7894 64.0982 84.4496 64.0808 84.1487 63.9469C83.8479 63.8131 83.6075 63.5723 83.4741 63.2712C83.3455 62.9586 83.3371 62.6095 83.4504 62.291C83.5638 61.9725 83.7908 61.7072 84.088 61.5461ZM84.433 63.1891C85.137 63.4175 85.522 62.3379 84.8651 62.0986C84.762 62.1378 84.6681 62.1981 84.5895 62.2755C84.511 62.353 84.4494 62.446 84.4087 62.5486C84.368 62.6511 84.3492 62.7611 84.3534 62.8713C84.3576 62.9816 84.3847 63.0898 84.433 63.1891Z" fill="white"/>
<path fill-rule="evenodd" clip-rule="evenodd" d="M87.953 55.87C88.7336 55.2473 88.6655 56.9609 87.91 56.312C87.8714 56.2427 87.8549 56.1632 87.8625 56.0843C87.8702 56.0053 87.9018 55.9306 87.953 55.87Z" fill="white"/>
<path fill-rule="evenodd" clip-rule="evenodd" d="M57.1822 72.8769C58.8391 71.8809 59.6394 74.6328 57.7335 74.8661C57.492 74.8813 57.2526 74.813 57.0554 74.6726C56.8583 74.5323 56.7154 74.3284 56.6508 74.0952C56.5861 73.8619 56.6037 73.6136 56.7004 73.3918C56.7972 73.17 56.9673 72.9882 57.1822 72.8769ZM57.4389 73.9081C57.5858 74.1378 58.1263 73.9595 57.973 73.6369C57.8197 73.3143 57.4469 73.6996 57.4389 73.9081Z" fill="white"/>
<path fill-rule="evenodd" clip-rule="evenodd" d="M41.4927 78.9236C41.7118 78.7673 41.9691 78.6732 42.2373 78.6511C42.5055 78.6291 42.7747 78.68 43.0164 78.7984C43.2581 78.9168 43.4633 79.0983 43.6103 79.3238C43.7573 79.5492 43.8406 79.8102 43.8514 80.0791C43.8871 80.5975 43.7321 81.111 43.4156 81.523C41.6315 83.3529 39.2323 80.2394 41.4927 78.9236ZM42.0515 79.6334C41.5081 79.8421 41.5279 80.5241 41.6339 81.1437C43.1195 81.8789 43.3675 79.1058 42.0323 79.6407L42.0515 79.6334Z" fill="white"/>
<path fill-rule="evenodd" clip-rule="evenodd" d="M24.9588 86.4589C26.4771 85.4648 27.1982 88.2398 25.4462 88.4726C25.1886 88.4958 24.9317 88.4209 24.7268 88.263C24.522 88.105 24.3843 87.8756 24.3412 87.6206C24.31 87.3867 24.3528 87.1489 24.4635 86.9406C24.5743 86.7323 24.7475 86.5638 24.9588 86.4589ZM25.2646 87.618C25.6402 87.7745 25.8564 87.0385 25.4291 87.1293C25.3911 87.298 25.1762 87.3878 25.2646 87.618Z" fill="white"/>
<path fill-rule="evenodd" clip-rule="evenodd" d="M71.1028 72.5576C71.0528 72.5926 70.996 72.6169 70.9361 72.6287C70.8762 72.6405 70.8145 72.6397 70.7549 72.6262C70.6954 72.6128 70.6393 72.5871 70.5902 72.5507C70.5412 72.5144 70.5003 72.4682 70.4701 72.4151C70.44 72.362 70.4212 72.3032 70.4151 72.2424C70.409 72.1816 70.4157 72.1203 70.4347 72.0623C70.4537 72.0042 70.4846 71.9508 70.5255 71.9054C70.5663 71.86 70.6162 71.8237 70.6719 71.7987C70.7681 71.7739 70.8698 71.7815 70.9612 71.8203C71.0527 71.859 71.1288 71.9269 71.1778 72.0132C71.2269 72.0996 71.2461 72.1997 71.2325 72.2981C71.219 72.3965 71.1734 72.4877 71.1028 72.5576Z" fill="white"/>
<path fill-rule="evenodd" clip-rule="evenodd" d="M46.3398 4.80548C47.084 4.24083 47.5957 4.48444 47.801 5.09522C48.1615 6.16728 46.4092 6.87705 45.9716 5.87134C45.7756 5.4184 45.9773 5.08412 46.3398 4.80548Z" fill="white"/>
<path fill-rule="evenodd" clip-rule="evenodd" d="M10.2331 29.0347C11.3594 28.3379 12.0067 30.0041 11.2449 30.5609C11.1459 30.6486 11.0292 30.7141 10.9027 30.7529C10.7762 30.7917 10.6429 30.8029 10.5117 30.7857C10.3805 30.7685 10.2545 30.7234 10.1423 30.6534C10.03 30.5834 9.93412 30.4901 9.86102 30.3798C9.78791 30.2696 9.73933 30.1449 9.71854 30.0142C9.69775 29.8836 9.70525 29.75 9.74052 29.6225C9.77579 29.495 9.83801 29.3765 9.92299 29.2751C10.008 29.1737 10.1137 29.0917 10.2331 29.0347Z" fill="white"/>
<path fill-rule="evenodd" clip-rule="evenodd" d="M-10.1712 46.0966C-10.3586 46.4107 -10.2767 46.8341 -10.9066 46.9514C-10.3858 49.033 -8.71106 51.3683 -8.82144 53.1054C-8.8823 54.0165 -9.49807 54.3998 -9.96942 55.1017L-9.75576 55.6579C-8.69513 55.5733 -7.59383 54.6587 -6.33645 54.4178C-5.42447 54.353 -4.50795 54.4317 -3.62037 54.6511C-0.614831 55.1986 1.4969 56.6471 3.86892 58.8686C4.48675 59.4456 5.3352 59.9927 5.44305 60.751C5.50238 61.1537 5.22841 61.3763 5.25776 61.7392C5.70804 62.0138 5.88077 61.6613 6.3799 61.5283C6.83459 61.4117 7.30786 61.3863 7.77238 61.4537C8.23691 61.521 8.68351 61.6797 9.08639 61.9206C9.48926 62.1614 9.84044 62.4797 10.1197 62.857C10.3989 63.2343 10.6006 63.6632 10.7132 64.1189C10.7553 64.7827 10.6999 65.4492 10.5486 66.0969C10.4336 67.0581 10.3906 68.7033 9.0113 67.8246C8.79911 68.4563 9.11443 69.2963 8.67615 69.7215C8.12735 70.0719 7.46571 70.2001 6.82573 70.0801C5.0557 69.865 3.35 67.4682 3.96493 65.5739C3.69264 65.3044 3.3234 65.2408 3.0708 64.927C2.21219 66.3206 1.17809 65.3092 0.0616737 64.733C-0.560896 64.3381 -1.21516 63.9956 -1.89437 63.7089C-0.833219 65.8984 -0.277833 68.7958 0.685557 70.7881C1.02551 71.5012 1.56483 71.6828 2.09022 72.2293C3.73768 73.9588 4.77653 76.5677 6.05743 78.8709C7.33832 81.1741 8.71364 83.4557 9.87256 85.8424C8.87767 87.4351 7.32433 88.7581 6.10919 90.274C4.76663 90.7897 3.09902 91.3569 1.58486 91.8652C0.611153 92.1952 -0.230871 92.7534 -0.868423 92.316C-3.69069 93.2388 -6.6232 94.4092 -9.43513 95.3207C-10.1511 94.2971 -10.4838 92.5908 -10.9553 91.3633C-10.7326 91.0289 -10.3887 90.7942 -9.99617 90.7088C-11.1011 88.6535 -11.1273 86.4846 -12.2064 84.9549C-12.6644 84.3165 -13.3172 83.973 -13.702 83.4679C-14.3653 82.5694 -14.8326 81.5417 -15.0736 80.4512C-15.2041 79.7677 -14.9767 79.1374 -15.1465 78.3516C-15.4419 77.6101 -15.7895 76.8905 -16.1865 76.198C-16.8241 74.7482 -17.2144 73.2548 -17.8161 71.7838C-18.9645 72.5184 -20.243 73.6404 -21.4431 74.527C-21.1036 76.2894 -23.4847 78.2458 -25.344 77.4927C-26.4839 78.899 -27.2332 77.7122 -28.2098 76.6788C-29.0409 75.7948 -30.1872 75.0834 -29.9079 73.9196C-29.1177 72.5963 -28.5222 71.1863 -26.8482 70.6167C-26.5989 70.5209 -26.1701 70.6056 -25.9139 70.4705C-25.5965 70.162 -25.3241 69.8104 -25.1046 69.426C-24.835 69.0583 -24.5969 68.666 -24.3764 68.3613C-23.7994 67.7461 -23.3008 67.0617 -22.8921 66.3238C-22.7622 65.6336 -22.6749 64.9361 -22.6306 64.2352C-22.4114 63.1835 -21.9697 62.1908 -21.3353 61.3238C-21.4826 60.9403 -21.6275 60.5631 -21.5059 60.3256C-20.5606 59.6544 -18.9683 59.2922 -17.7167 58.7307C-17.6547 58.4721 -17.977 58.053 -18.0398 57.7176C-20.9527 59.0346 -21.2996 53.8343 -22.642 51.4667C-23.5438 51.659 -24.7261 49.8609 -23.505 49.3918C-23.8328 46.4951 -23.1383 43.6238 -20.2784 42.2832C-18.8151 41.5314 -17.1274 41.3408 -15.5333 41.7475C-13.9392 42.1541 -12.5489 43.1298 -11.6245 44.4906C-11.3954 44.6667 -11.0167 44.5066 -10.7936 44.7437C-10.5357 45.1697 -10.3269 45.6236 -10.1712 46.0966ZM-19.8614 43.2161C-22.3238 44.3307 -22.7875 46.7905 -22.7207 49.1419C-19.3957 47.7326 -15.9468 46.3784 -12.5309 45.0149C-14.0881 42.7372 -16.9013 41.8883 -19.8614 43.2161ZM-23.0113 50.2953L-22.9179 50.5382C-19.6073 49.3399 -15.8564 47.7596 -12.4233 46.4409C-11.9502 46.2591 -11.188 46.1424 -11.1392 45.7348C-15.0684 46.9654 -19.1807 48.6551 -23.0825 50.1099C-23.1843 50.2077 -23.0496 50.2146 -23.0304 50.3026L-23.0113 50.2953ZM-21.8041 51.2989C-21.7023 51.5691 -21.5796 51.8311 -21.4371 52.0823C-20.8943 53.3044 -19.9359 56.7733 -18.9443 57.082C-18.1832 57.3252 -15.8737 56.1372 -14.7057 55.7399C-14.0217 55.4772 -13.2673 55.1874 -12.5449 54.9099C-11.8151 54.7219 -11.1094 54.4508 -10.4415 54.1019C-9.385 53.2999 -10.0585 51.6804 -10.5471 50.3128C-10.918 49.3474 -11.1816 48.3556 -11.6536 47.2603C-15.074 48.5742 -18.4304 49.8635 -21.8177 51.0913C-21.8777 51.1071 -21.8458 51.1902 -21.8041 51.2989ZM-17.2265 57.4859L-16.8458 58.4768C-14.6146 57.6197 -12.6646 56.7753 -10.4527 56.021L-10.713 55.3433C-12.8856 56.0092 -15.0686 56.7817 -17.2338 57.4667L-17.2265 57.4859ZM-20.5685 60.9707C-18.8393 65.7207 -17.0746 70.4865 -15.4603 75.1854C-10.4865 73.2748 -5.51898 71.3666 -0.639096 69.6315C-1.06641 68.5191 -1.41263 67.5223 -1.78588 66.4551C-2.10513 65.624 -2.39309 63.9959 -2.85058 63.3206C-3.1012 62.9546 -3.83625 62.8555 -4.3682 62.693C-4.89476 62.5429 -5.40295 62.3346 -5.88336 62.0718C-7.5567 61.1153 -8.65513 58.676 -8.17593 56.8485C-8.11192 56.6332 -7.95887 56.325 -8.07632 56.172C-12.3027 57.8322 -16.4194 59.2814 -20.5758 60.7607C-20.6486 60.7813 -20.6103 60.862 -20.5695 60.949L-20.5685 60.9707ZM-2.6222 55.779C-3.67332 55.4491 -5.27507 54.9272 -6.36397 55.5876C-8.37997 56.7948 -7.31348 60.3542 -5.22563 61.3203C-4.67847 61.5797 -4.01469 61.5888 -3.40114 61.83C-1.25716 62.5984 0.620573 63.9534 2.28274 64.6134C3.00459 63.3604 3.82624 62.1571 4.52891 60.9114C2.49362 58.898 0.0749385 56.555 -2.62318 55.7573L-2.6222 55.779ZM-21.6832 64.5242C-21.8222 65.1939 -21.705 65.9191 -21.8896 66.5843C-22.1802 67.7377 -23.368 68.4655 -23.7879 69.5878C-22.2907 69.6657 -21.0347 71.4648 -20.8593 73.1436C-20.0162 72.3208 -18.9229 71.6147 -18.0901 70.8033C-19.1706 67.9903 -19.9178 65.0712 -21.0333 62.3964C-21.3249 63.0732 -21.5432 63.7793 -21.6842 64.5026L-21.6832 64.5242ZM-24.7763 70.8919C-23.9847 71.9375 -23.0909 72.9016 -22.108 73.77C-21.5449 72.3138 -23.1581 69.7568 -24.7772 70.8703L-24.7763 70.8919ZM-28.9878 74.7107C-28.137 75.6407 -27.2294 76.5172 -26.2703 77.335C-26.172 77.199 -26.0512 77.0806 -25.9132 76.9851C-26.4325 76.0914 -27.9826 75.4176 -27.545 74.2077C-27.0748 73.9106 -26.6765 73.5129 -26.3786 73.0433C-26.0807 72.5736 -25.8908 72.0437 -25.8224 71.4918C-27.6707 71.6076 -28.4607 73.4664 -28.9657 74.6728L-28.9878 74.7107ZM-26.818 74.8015C-26.1033 75.4587 -25.4635 76.2841 -24.7232 76.9315C-24.138 76.9726 -23.5588 76.7913 -23.1015 76.4239C-22.6442 76.0564 -22.3424 75.5299 -22.2565 74.9495C-23.2071 74.0601 -24.0263 72.8635 -25.0108 72.0385C-25.3209 73.1137 -25.9527 74.0681 -26.8214 74.7735L-26.818 74.8015ZM4.65909 62.358C4.34952 63.0418 3.75679 63.5997 3.48164 64.2776C3.74563 64.411 3.96779 64.6264 4.23423 64.7662C4.73848 64.169 5.0146 63.5127 5.42888 62.8913C5.17869 62.6793 4.98608 62.3498 4.65566 62.33L4.65909 62.358ZM6.39508 62.8283C6.05292 63.8475 5.13164 64.6195 4.78555 65.6475C6.65609 64.1953 8.55219 65.1397 9.72146 66.3119C9.74093 65.6683 9.80329 65.0268 9.90813 64.3914C9.14227 62.7415 8.03532 61.8461 6.23592 62.4713L6.39508 62.8283ZM7.49916 65.8744C6.66346 65.4177 5.09071 66.1173 4.71815 66.9427C5.32068 68.8168 6.43802 69.5101 8.11789 68.9748C8.19485 68.373 8.22118 67.754 8.26519 67.1428C7.98088 66.933 7.64618 66.8019 7.29497 66.7629C6.94375 66.7239 6.58846 66.7783 6.26504 66.9207C5.88043 67.1418 5.87431 67.6797 5.40566 67.8157C4.11676 67.0196 6.58916 65.549 7.49573 65.8463L7.49916 65.8744ZM-15.3643 75.9702C-15.0621 76.4884 -14.7863 77.0216 -14.5379 77.5676C-10.8334 76.2106 -6.22682 74.375 -2.61672 73.135C-2.24755 73.0624 -1.88821 72.9465 -1.54613 72.7898C-1.19841 72.5682 -1.14164 72.0475 -0.757973 71.7094C-0.374303 71.3713 -0.216506 71.4574 0.0157162 71.1261L-0.197939 70.5699C-5.24256 72.3536 -10.3172 74.1929 -15.3643 75.9702ZM2.6901 74.574C2.09703 73.5839 1.04706 71.691 0.0364353 72.1158C-1.24219 72.607 -0.737995 75.6194 0.0058516 77.021C0.602308 78.1345 1.79108 78.5362 2.37733 79.3748C3.66265 81.2549 4.76466 83.2539 5.66823 85.3445C5.63501 86.0029 4.9863 86.3768 4.87983 86.9973C5.25176 87.6981 5.69308 88.2549 6.02563 89.0442C7.06695 88.0818 7.98162 86.9909 8.74758 85.7977C6.65543 82.1848 4.85795 78.2312 2.69256 74.5804L2.6901 74.574ZM-14.2211 78.297C-14.5769 80.3118 -13.0701 83.2031 -11.5113 84.0716C-9.83772 83.3481 -7.99559 82.8532 -6.49904 82.1463C-7.82966 81.1461 -8.85849 78.0858 -8.77322 76.417C-10.6056 77.0328 -12.4236 77.6285 -14.2506 78.3156L-14.2211 78.297ZM-5.49969 81.6156C-6.49747 80.737 -7.30551 78.8245 -7.55518 77.3724C-7.59654 76.9247 -7.69433 76.4841 -7.84621 76.0609C-8.33515 77.672 -6.85366 81.204 -5.52919 81.6343L-5.49969 81.6156ZM-6.83072 75.7442C-7.11913 77.5717 -5.71412 80.5608 -4.24968 81.3556C-2.57467 80.7121 -0.720693 80.0954 0.797993 79.3506C-0.608405 78.4969 -1.69879 75.6583 -1.59036 73.8779C-3.34552 74.5228 -5.11689 75.1445 -6.86023 75.7628L-6.83072 75.7442ZM-5.14113 82.5491C-4.38474 84.5181 -3.50782 86.3235 -2.7234 88.2892C-2.3526 88.1468 -1.74532 88.1042 -1.57162 87.7734C-2.55083 86.0073 -3.46067 84.0971 -4.43497 82.3438C-4.64295 82.299 -4.93312 82.4985 -5.17064 82.5677L-5.14113 82.5491ZM-3.65792 81.9793C-2.86648 83.6195 -1.73489 85.4958 -0.804317 87.1925C0.894313 86.496 2.76856 85.6073 4.49268 85.0918C3.66008 83.1153 2.57794 81.7115 1.61934 80.0181C-0.16926 80.6905 -1.9874 81.477 -3.68743 81.998L-3.65792 81.9793ZM-11.1552 84.9986C-10.4553 86.8207 -9.72585 88.6241 -8.96197 90.3262L-3.70681 88.3075C-4.4328 86.5321 -5.17157 84.7617 -5.86064 82.8914C-7.74218 83.5702 -9.33511 84.3509 -11.1847 85.0173L-11.1552 84.9986ZM-9.79703 91.8575C-9.75863 91.7327 -9.73675 91.6034 -9.73197 91.473L-10.0005 91.5761C-9.96364 91.672 -9.95834 91.9341 -9.82654 91.8761L-9.79703 91.8575ZM-9.2764 93.2128C-9.05236 92.4591 -8.73098 91.7488 -8.49169 90.9966C-8.70014 91.0799 -8.88866 91.2063 -9.04492 91.3675C-9.20117 91.5287 -9.32165 91.7211 -9.3985 91.932C-9.47535 92.1429 -9.50683 92.3677 -9.49087 92.5916C-9.47491 92.8155 -9.41188 93.0336 -9.30591 93.2315L-9.2764 93.2128ZM3.40493 86.5C3.48805 86.4681 4.36392 86.1317 3.87266 86.247C2.39003 86.5891 0.631802 87.5506 -0.841118 88.2045C0.685872 87.5959 1.9645 87.1047 3.37543 86.5187L3.40493 86.5ZM-7.85339 90.8247C-8.18382 92.0081 -8.85052 93.0419 -8.90417 94.3537C-8.58892 94.1813 -8.57792 93.7515 -8.47207 93.4541C-8.1029 92.5053 -7.7239 91.582 -7.42602 90.6386L-7.85339 90.8247ZM-6.79853 90.4195C-7.13831 91.6358 -7.61968 92.7892 -7.97716 93.9976L-7.54882 93.8331C-7.17461 92.6109 -6.68292 91.4462 -6.30625 90.2304L-6.79853 90.4195ZM-3.87148 89.3685C-3.52521 90.27 -3.19366 91.133 -2.81048 91.9396L-1.1994 91.3207C-1.45815 90.437 -2.35209 89.3131 -2.07499 88.6784C-2.73832 88.7278 -3.21794 89.1981 -3.90099 89.3872L-3.87148 89.3685ZM-5.66155 90.0561C-6.07949 91.2218 -6.46451 92.3968 -6.86476 93.5703L-6.22544 93.3247C-6.01496 92.0774 -5.37236 91.0382 -5.07978 89.8327L-5.66155 90.0561ZM-5.63087 93.0963L-4.88927 92.8115C-4.95178 91.8084 -3.83237 91.0555 -4.57731 89.9184C-4.89394 91.0231 -5.34918 92.0344 -5.66038 93.115L-5.63087 93.0963ZM-0.756354 90.0867C-0.726846 89.7009 -0.659832 89.3189 -0.556249 88.9461L-1.23392 89.2064C-1.11113 89.526 -1.04841 90.0522 -0.785863 90.1054L-0.756354 90.0867ZM-4.83183e-05 88.7324C-0.0269971 89.6745 -0.557357 90.4138 -0.211169 91.506C0.363015 90.6325 0.329072 89.4937 0.620088 88.4942L-4.83183e-05 88.7324ZM1.19841 88.3381C1.0259 89.3214 0.767349 90.2718 0.618932 91.2605C0.799083 91.1683 0.997415 91.1172 1.19969 91.1108C1.46856 90.1491 1.56538 89.1215 1.75461 88.1244L1.19841 88.3381ZM2.37475 87.8862C2.17569 88.8577 2.00989 89.8458 1.87737 90.8504C2.17344 90.6854 2.3514 90.7858 2.64108 90.6231C2.52009 89.5251 2.95019 88.6776 2.9693 87.6578L2.37475 87.8862ZM3.60862 87.4122C3.44593 88.4211 3.26309 89.4158 3.13974 90.4316C3.39352 90.2901 3.52671 90.4076 3.80361 90.2499C3.85371 89.1962 4.36643 88.3536 4.17663 87.172L3.60862 87.4122ZM-4.26914 92.5732L-3.59146 92.3129C-3.73296 92.0591 -3.77849 91.5778 -3.98299 91.4656C-4.01169 91.8874 -4.29552 92.1799 -4.29864 92.5919L-4.26914 92.5732ZM4.39818 90.0215C5.00794 89.89 5.15102 88.7346 4.65606 88.2864C4.58402 88.901 4.3999 89.4339 4.36867 90.0402L4.39818 90.0215Z" fill="white"/>
</g>
</svg>
