<svg width="96" height="108" fill="none" xmlns="http://www.w3.org/2000/svg"><g opacity=".4" fill-rule="evenodd" clip-rule="evenodd" fill="#fff"><path d="M79.637-7.285c-1.27 1.422-3.645 3.445-3.757 5.435C78-.206 80.09.79 79.554 2.977c-.656 2.709-3.15 1.994-5.132.937-.973-.512-2.01-1.115-2.713-.707-1.765 1.049-1.704 4.232-3.073 5.528-1.99-.054-5.99-2.619-6.225-4.669-.147-1.447 1.696-2.627 1.553-4.11-.572-1.278-3.177-2.087-4.112-1.09-.406.415-.436 1.364-1.021 1.93-1.319 1.291-3.8-.19-5.602-1.844-.639-.576-1.512-1.437-1.32-2.21.224-.906 1.319-1.737 2-2.402.682-.665 1.466-1.309 2.123-2.038-.207-.8-1.128-1.101-1.76-1.557-1.51-1.097-2.989-2.425-2.608-3.923.523-2.023 3.254-2.865 5.119-1.606.52.35.912 1.062 1.481 1.281 1.926.738 3.105-4.08 4.165-5.062 1.028-.43 2.396.416 3.642 1.14 1.246.726 3.053 1.985 3.094 3.06.04 1.074-1.035 1.531-1.503 2.64a2.025 2.025 0 003.37 2.091c.493-.53.529-1.3 1.106-1.783 1.779-1.485 6.617 2.092 7.499 4.132zM62.973-17.877c-1.172 2.253-2.498 6.284-4.994 5.443-.743-.25-1.437-1.175-2.318-1.566a2.042 2.042 0 00-2.828 1c-.695 1.877 5.162 3.486 4.261 5.495a5.12 5.12 0 01-1.02 1.095 33.147 33.147 0 00-3.148 3.412c1.067 1.293 3.56 3.588 5.09 2.875.26-.771.677-1.48 1.222-2.084 1.624-1.357 5.396-.236 5.914 1.927.1.798-.08 1.605-.506 2.286-.39.707-.995 1.143-.981 1.87-.004 1.441 3.076 2.998 4.396 3.627 1.028-1.837 1.433-5.122 3.72-5.653.916-.206 2.069.427 3.293 1.098 1.018.532 2.516 1.185 3.157.193a1.928 1.928 0 00-.464-2.185c-.84-.839-2.21-1.192-2.745-2.038-1.219-1.957 1.872-4.496 3.338-6.192-1.3-1.45-3.692-3.25-5.438-3.207-1.61 4.984-8.081 2.117-6.412-1.604.37-.836 1-1.196 1.494-2.085-.6-1.666-3.405-2.813-5.031-3.707zM83.718 6.535c3.584 1.198-.917 5.839-2.581 2.572-.736-1.437.963-3.063 2.58-2.572zm.013 1.23c-.643-.57-1.293.02-1.834.634.502 1.726 2.862.284 1.834-.634zm-97.736 68.323c1.126-.105 2.259 2.081 3.344 3.03.514.45 1.768 1.438 2.33 1.317.378-.072.683-.892.933-1.237a2.595 2.595 0 011.085-1.013c1.92-.667 4.388.804 4.508 2.483.16 2.162-1.864 2.002-2.017 3.737-.209 2.331 3.496 3.303 3.882 4.975.361 1.535-.892 2.893-1.471 3.649-.579.755-1.84 2.483-3.343 2.33-1.503-.152-2.01-2.33-4.276-2.33a1.68 1.68 0 00-1.479.699c-.434 1.101.804 2.098 1.246 2.564.707.707 1.503 1.342 1.479 2.491-.04 1.527-1.447 2.411-2.33 3.03-.885.619-2.532 1.993-3.424 1.945-1.142-.065-1.817-1.608-2.331-2.259-.7-.868-1.374-2.065-2.564-1.936-1.052.112-1.31 1.607-2.258 2.017-2.41 1.036-5.4-1.085-5.127-3.576a2.83 2.83 0 011.085-1.712c.37-.354 1.19-.86 1.245-1.471.097-1.037-1.109-1.937-1.864-2.644-.563-.53-2.218-1.366-2.33-2.098-.162-1.044 1.269-2.837 1.711-3.423.651-.876 1.607-2.283 2.636-2.484 2.628-.522 3.215 3.07 5.626 2.797a1.511 1.511 0 001.237-1.559c0-1.945-2.829-2.073-2.869-4.275.061-.786.39-1.526.933-2.098.61-.763 2.965-2.82 4.404-2.95zm-.851 1.711c.249 7.74.289 15.873.385 23.548.25.209.643 1.044.852.803-.08-8.261-.128-16.555-.305-24.72 0-.049 0-.089-.08-.073-.29.12-.58.306-.852.442zm2.95 22.069c0-4.934-.154-9.644-.154-14.466 0-1.929.33-4.332-.08-5.826-.177-.643-.57-.893-1.013-1.399 0-.08-.096-.064-.072.08.145 7.94.394 15.768.538 23.7 1.053-.144.78-1.326.78-2.09zm-4.895-20.598c.154 1.213.232 2.434.233 3.657.436.499.827 1.037 1.165 1.607a54.87 54.87 0 00-.16-6.373c-.362.434-.949.635-1.238 1.11zm10.72-.072c-.192 4.412-.152 9.065-.152 13.662.209.217.755.884.932.619.07-4.752.097-9.545.08-14.378a2.21 2.21 0 00-.86.097zm1.608 3.729c.57-.7.33-2.21.386-3.424-.241 0-.354-.169-.547-.233.113 1.19-.144 2.74.193 3.657h-.032zM-18.135 80.9c-.073.684.498 1.399.86 1.327-.049-.9.112-2.018-.161-2.492-.129.426-.627.595-.691 1.165h-.008zm6.92 11.662c.377-.057.505-.378.851-.466-.16-3.681-.193-7.507-.072-11.252a3.48 3.48 0 00-1.013-.803c.016 4.251.233 8.285.241 12.52h-.008zm3.11-10.649c-.354 1.358.048 3.32.08 5.055.032 1.736.136 3.488.072 5.047.319.112.63.243.932.394-.072-4.195.241-8.414.161-12.36-.064.787-1.045 1.157-1.238 1.864h-.008zm4.741-.233c.418-.394.555-1.358-.08-1.607a6.563 6.563 0 00.112 1.607h-.032zm-6.43-.233c.065 3.576-.184 7.434.395 10.448h.699c.193-3.215-.113-6.679 0-10.102-.41-.137-.635-.459-1.093-.547v.201zm-13.059 4.123c.426 2.41-.056 5.183.233 7.61.163.512.294 1.032.394 1.56 0 .353-.185.667-.233 1.085a24.845 24.845 0 00-.08 2.724c0 .74-.282 2.17.803 2.017.129-4.822.089-10.19-.16-14.924-.266-.072-.9-.554-.973-.072h.016zm-1.165.619c0 1.904.048 3.688.08 5.52.169.145.498.869.62.54a45 45 0 00-.234-6.607c-.145.21-.346.386-.482.547h.016zM-16.4 87.9c-.37 1.48.08 3.633.08 5.522v5.673c.25.225.74.997.932.804 0-4.573.145-9.138-.08-13.598.016.635-.796.997-.949 1.6h.017zm12.055 6.293c.723-.08.586-.908.626-1.712.065-1.486.362-3.897.073-5.047-.137-.538-.74-.803-.852-1.165.056 2.612-.201 5.561.128 7.924h.025zm-15.865 5.208c-.185-3.906 0-8.214-.152-12.127-.266-.089-.635-.804-.804-.539.064 4.495.169 8.95.313 13.365.17.032.41-.522.643-.7zm-4.822-10.335c0 .803-.225 1.945.386 2.017.042-1.34.015-2.681-.08-4.018-.539.353-.354 1.133-.306 2zm5.513 9.483c.314 0 .394-.185.7-.16.184-3.288 0-6.912.08-10.336a5.4 5.4 0 01-1.013-.386c.129 3.569.161 7.25.225 10.882h.008zm16.556-5.521c.619-.386.868-3.544.546-4.509-.096-.29-.466-.442-.619-.538.04 1.655-.112 3.52.065 5.047h.008zm-15.157-4.822c.088 3.335 0 6.815.16 10.102.304.103.616.18.933.233V88.054h-.161c-.185.185-.755-.024-.94.16l.008-.007zm-8.238 1.55c.168.237.417.403.7.467-.105-.522 0-1.238-.153-1.712-.129.49-.434.78-.555 1.254l.008-.008zm24.72 1.48c.443-.643.86-1.889-.16-2.178.153.627-.032 1.59.153 2.186l.008-.008zm-8.397 8.784c.13-.987.08-1.99-.153-2.958-.193-.482-.804-.803-.932-.803.209 1.398-.073 3.286.233 4.588.16-.257.699-.313.844-.819l.008-.008zm-13.293.152c-.048-1.197.089-2.612 0-3.576-.579.53-.643 3.094-.008 3.584l.008-.008zm-1.004-1.012c-.057-.466.096-1.133-.08-1.479a1.47 1.47 0 00.071 1.487l.009-.008zm14.996.394a1.27 1.27 0 00-.153-1.793 8.84 8.84 0 00.145 1.8l.008-.007zm13.367-18.57c.49-.74.804-1.358 1.471-1.607 3.568-1.455 3.841 4.87.08 3.809-.98-.297-1.19-1.173-1.55-2.202zm1.166.466c0 1.607 3.134.49 1.784-1.013a1.327 1.327 0 00-1.784 1.013zm85.715-50.339c2.162-.377 1.833 2.58.153 2.564-1.278-.016-2.041-2.234-.153-2.563zm0 1.552c.37 0 .563-.113.547-.467-.378-.297-.98.17-.547.467zm-6.372 8.165c-.04 1.776.29 3.383 2.017 3.263 1.608-.113 1.808-2.074 3.11-2.259 1.552-.209 2.765 1.342 3.577 2.106.987.917 1.849 1.96 2.563 3.102-.634.964-1.663 1.382-2.716 2.178-.707.53-2.515 1.607-2.491 2.41.024.805 2.194 2.155 2.563 2.717 1.608 2.411-.257 5.626-3.343 3.97-1.028-.554-1.76-1.888-3.03-1.864-.98 0-1.832 1.27-2.483 2.17-.338.474-1.414 2.33-2.178 2.41-.763.081-1.479-.658-1.945-1.012-.61-.458-1.117-.74-1.712-1.237-.803-.667-2.266-1.977-2.017-3.424.201-1.157 1.937-1.672 2.098-3.03a2.234 2.234 0 00-1.165-2.25c-1.865-.748-2.5 1.029-3.963 1.937a5.465 5.465 0 01-5.36-2.95 4.91 4.91 0 01-.932-2.258c.08-1.053 1.663-1.752 2.636-2.33.803-.459 2.692-1.415 2.724-2.25.048-1.174-2.226-2.251-2.724-3.111a2.966 2.966 0 014.275-3.962c.98.635 1.35 2.065 2.492 2.097.988 0 1.607-1.18 2.25-2.025 1.077-1.326 1.993-2.652 3.89-1.703 1.19.586 4.637 2.611 4.428 4.58-.16 1.511-1.873 1.471-2.564 2.725zm-1.165 16.94c-.57-3.64-.764-7.578-1.093-11.5-.33-3.921-.9-8.036-.932-11.741 0-.088-.097-.12-.153-.153-1.511.708-.948 2.202-.804 4.123.619 6.855 1.23 14.185 1.865 20.59.402-.129.795-.884 1.117-1.318zm.699-1.012c1.093-.305.731-2.081.619-3.729-.145-2.162-.25-3.72-.386-5.826a16.379 16.379 0 00-.233-2.958c-.273-.924-.997-1.567-.932-2.796 0-.684.522-1.126.619-1.785.2-1.382-.442-2.78-.233-4.018a5.45 5.45 0 00-1.552-1.012 4692.36 4692.36 0 002.098 22.124zM71.167 36.158c.153.94.193 1.993.314 2.958.265.112.715.804.86.546-.21-1.245-.121-2.788-.467-3.89-.209.153-.602.13-.707.386zm1.945 4.59c.29.875 1.11 1.703.233 2.563.281 2.081.426 4.292.7 6.373a1.96 1.96 0 00.86-.7c-.354-4.162-.748-8.269-1.094-12.432a2.338 2.338 0 00-1.165-.627c.313 1.568 0 3.4.466 4.822zm11.348-1.552c.185-.265.554-.33.699-.627a7.987 7.987 0 01-.153-2.017c-.345-.12-.49-.442-.852-.546.037 1.069.139 2.134.306 3.19zm-6.293-1.43c.7 4.356.804 8.88 1.398 13.14.101.356.179.718.234 1.085 0 .474-.21.916-.234 1.398-.088 1.607.402 3.215.386 4.822.402.281 1.077 1.085 1.399.932-.651-7.635-1.117-15.462-1.865-23.009-.41.603-.844 1.126-1.318 1.632zm-7.562 0c0 .65.192-.498 0-.539-.089.266 0 .282 0 .539zm15.157.394c.152-.217.08-.724-.161-.804.169.217.008.683.185.828l-.024-.024zm-10.11 10.648a3.884 3.884 0 011.093-.08c-.25-3.456-.555-6.855-.804-10.335a9.204 9.204 0 01-1.479-.933c.442 3.802.82 7.595 1.214 11.372l-.024-.024zm.932-10.335c.29 3.488.635 6.928.932 10.448.539 0 .731.418 1.165.546-.385-3.705-.73-7.45-1.084-11.187h-.153c-.258.136-.544.21-.836.217l-.024-.024zm13.92 11.42c.256-.281.674-.41.851-.804-.136-1.856-.24-3.745-.386-5.625a1.977 1.977 0 00-1.012-.466c-.01 2.318.182 4.633.57 6.92l-.024-.025zm-1.873-2.33c.249 2.909.554 6.123.699 8.783.338.282.57.676 1.093.804-.482-1.278-.056-2.99-.466-4.275-.137-.434-.523-.643-.547-1.093-.024-.45.266-.804.314-1.166.265-2.145-.62-4.556-.466-7.072-1.182.756-.748 2.258-.603 4.043l-.024-.025zm-16.073-3.577a2.61 2.61 0 01-.86.627c.28 2.017.361 4.243.699 6.212.27.032.543.007.803-.072a33.744 33.744 0 00-.626-6.743l-.016-.024zm19.424 4.661a1.664 1.664 0 001.013-.699c.064-.659-.073-1.784-.08-2.636a5.872 5.872 0 00-1.238-1.165c.064 1.575.297 2.95.321 4.525l-.016-.025zm-6.293 6.848c.314-.049.459-.274.852-.233-.136-3.384-.37-6.679-.538-10.03a2.563 2.563 0 01-1.165-.386c.297 3.568.61 7.088.867 10.673l-.016-.024zm.989-10.159c.225 3.343.466 6.679.699 10.022.538 0 .804.362 1.246.466-.314-3.6-.418-7.402-.86-10.881-.282.257-.732.289-1.085.393zm-16.322.233c.269 1.57.451 3.153.546 4.742.281.072.482.241.804.305-.177-1.864-.25-3.833-.539-5.625-.24.305-.667.313-.852.578h.04zm-1.945 1.318c.21.596.479 1.17.803 1.712.258.41.804 1.206 1.085 1.085-.265-1.181-.265-2.636-.538-3.81-.514.33-.965.66-1.39 1.013h.04zm25.34.7c.32-.04.369-.354.698-.386a2.725 2.725 0 00-.803-1.013c-.03.467-.008.936.064 1.398h.04zm-2.484 9.949a.885.885 0 00.699 0c.04-1.374.104-3.424-1.093-3.81-.024 1.383.321 2.444.354 3.81h.04zM77.66 55.824c0 .804 1.012 1.334 1.559 1.865a15.998 15.998 0 00-.314-3.416c-.37.643-1.27.82-1.285 1.551h.04zM56.736 66.475c2.186-.386 1.607 2.724-.08 2.571a1.302 1.302 0 01.08-2.571zm.08 1.607c.12-.16.418-.145.386-.466a.418.418 0 00-.233-.233c-.29.096-.603.57-.153.723v-.024zm-3.58 7.101c1.053-.217 2.042 1.897 2.645 2.484.602.587 1.711 1.495 2.812 1.302 1.101-.193 1.294-1.728 2.564-2.17 2.202-.804 5.344 1.519 4.195 4.115-.466 1.06-2.122 1.776-2.178 2.877-.104 2.162 3.593 2.748 3.89 4.661.136.884-.539 1.848-1.013 2.564-.474.715-1.02 1.647-1.398 2.105-.514.62-1.157 1.471-2.098 1.471-1.607 0-2.604-3.375-5.055-2.483a1.464 1.464 0 00-.803 1.085c-.258 2.258 2.804 2.113 2.796 4.436 0 1.896-2.41 3.295-3.656 4.267-.53.418-.804.973-1.608.941-.948-.049-2-1.929-2.716-2.645-.715-.715-1.808-1.848-2.957-1.607-.804.153-1.31 2.082-2.331 2.411a3.352 3.352 0 01-4.018-4.428c.401-1.013 1.607-1.382 1.711-2.411.153-1.406-1.197-2.106-1.944-2.797-.587-.538-2.194-1.559-2.331-2.33-.169-.965.755-2.002 1.246-2.717.876-1.302 1.856-3.11 3.881-3.038 2.026.073 2.29 2.34 3.97 2.644a2.114 2.114 0 001.865-.466c.804-1.06-.217-2.41-.86-3.11-.643-.699-1.744-1.47-1.607-2.797.088-1.036 1.213-1.816 2.097-2.483a18.137 18.137 0 012.733-1.808c.072-.024.096-.064.168-.073zm9.476 10.488a2.91 2.91 0 01-.7-1.945c.097-1.671 2.548-2.41 2.484-4.018-.04-.972-1.358-2.025-2.717-1.784-1.06.193-1.382 1.784-2.563 2.098-1.833.49-3.078-.804-3.81-1.552a18.297 18.297 0 01-1.945-2.258 12.78 12.78 0 00-2.49 1.56c-.636.506-1.729 1.277-1.705 2.016.024.74.9 1.319 1.318 1.712a4.902 4.902 0 011.318 1.784c.957 2.7-1.607 4.766-4.114 3.577-.925-.434-1.752-2.29-3.03-2.33-1.045 0-1.744 1.06-2.259 1.71a9.643 9.643 0 00-1.55 2.484c1.543 1.833 3.712 2.524 4.195 4.742.45 2.057-1.326 2.21-1.785 3.657a2.073 2.073 0 002.636 2.644c.98-.37.98-1.97 2.259-2.259a3.215 3.215 0 012.017.314c1.607.803 2.644 2.812 3.97 3.881 1.535-1.197 3.36-2.13 4.195-4.018-.506-1.487-1.977-1.607-2.564-2.877a2.853 2.853 0 011.214-3.785c2.146-.9 4.436 1.27 5.674 2.338a14.008 14.008 0 003.263-4.589c-.9-1.261-2.435-1.92-3.311-3.102z"/><path d="M59.922 85.207c.281 1.013.378 2.62.538 3.496-1.157.096-.996-2.548-.852-3.496h.314zm1.704.78c.096 1.093.37 2.411.393 3.343-1.165-.152-.916-2.483-.803-3.423.24-.064.225.112.41.08zm1.56 1.245c.17.66.49 2.227 0 2.797-.707-.313-.385-2.041-.393-2.797h.393zm12.435 1.316c2.17-.345 1.986 2.78.234 2.877-.708 0-1.777-.546-1.785-1.398-.008-.852.836-1.366 1.551-1.479zm.62 1.318c-.09-.506-1.046-.321-1.005.394.506.362 1.085.056 1.004-.394zM38.08 105.258a1.31 1.31 0 011.479.804c.498 2.122-3.094 2.564-2.957.386.048-.78.667-1.101 1.478-1.19zm-.466 1.479c.33.298.98.137.932-.386a.65.65 0 00-.932.386zM25.262-3.975c.458 2.411 1.72 6.695-1.005 7.458-1.535.434-3.729-.362-3.809 1.246-.048.98 1.117 1.535 2.25 1.607.804.072 1.511-.209 2.098 0 1.663.595 1.254 3.158 1.012 5.055 1.39.29 3.954.916 5.128 0-.314-1.848-.137-3.52 1.246-3.962a3.279 3.279 0 014.275 3.568 2.781 2.781 0 002.491 1.013c1.126 0 2.492-.804 3.496-.233.804.49.555 2.507.62 3.496.063.988.417 2.724-.234 3.504-.804.916-2.41.225-3.649.538-.33.08-1.317.523-1.326 1.246-.008.723 1.021.988 2.178 1.165 1.792.273 2.886.707 3.03 2.492.145 1.784-.57 3.11-.699 4.822-1.664.65-4.018-.145-5.827.16-.49 1.15 0 1.728-.233 2.564-.739 2.515-5.079 2.017-5.754-.08-.193-.603.088-1.704-.233-2.25-.65-1.126-3.64-.338-4.741-.314.433 2.355.65 4.741-.933 5.625-1.253.684-4.524-.353-4.195 1.945.129.9 1.23.94 2.483 1.013 1.431.08 2.54.386 2.958 1.398.53 1.294.08 3.553-.233 5.128a17.834 17.834 0 00-.627 4.822c2.025.803 4.557 0 5.288 2.097a2.854 2.854 0 01-2.33 3.73c-.804.088-1.552-.45-2.331-.234-2.202.61.257 4.557-.804 5.907-17.488.169-35.642.04-53.041.08.401-1.55 1.149-3.624.546-5.44-2.13-.547-5.087-.08-5.44-2.259a2.412 2.412 0 011.245-2.563c.908-.322 1.832.08 2.564-.08 2.266-.49 1.607-3.352 1.245-5.908-2.885.161-3.841-1.607-4.122-4.018a1.945 1.945 0 00-3.215.7c-.201.634.072 1.486-.233 2.17-.386.883-1.608 1.076-2.797 1.092-1.19.016-2.628 0-3.03-.86-.08-14.586-.04-29.735.153-44.298.94-1.382 1.808-2.636 3.737-2.877 3.022-.377 6.212.073 9.403-.08 9.025-.426 19.288.337 28.216-.072 8.487-.426 16.958.096 25.179-.113zM-40.261-.632c0 4.019.145 7.844.08 11.894.748.418 2.918 1.214 3.577.073.29-.498.08-1.166.153-1.712a2.965 2.965 0 012.644-2.636 2.612 2.612 0 012.025.804c.667.892.241 2.37.306 3.737.707.458 2.057.273 3.214.305-.587-2.114-.707-4.67 1.085-5.521 1.27-.595 4.22.072 4.123-1.607-.105-1.84-3.303-.507-4.589-1.238-1.76-1.013-.394-4.267-.233-6.14-4.517.25-10.833-1.358-12.384 2.041zM8.554-2.729A7.474 7.474 0 007.54 1.932c1.76.997 5.216-.25 5.626 2.098.434 2.676-2.58 3.793-5.055 3.262-.426 1.214.056 2.765.153 3.97 2.869-.345 5.85-.313 6.606 1.865.249.7 0 1.495.393 2.098a1.61 1.61 0 002.331.233c.386-.507.105-1.126.314-1.945.626-2.476 3.737-2.636 6.758-2.178.145-1.198.378-3.03-.233-3.882-2.491.185-4.428-.12-5.055-1.872a2.41 2.41 0 011.56-3.03c1.14-.386 2.94.225 3.576-.619.9-1.214-.282-3.616-.233-4.742-5.256.033-10.456.121-15.728.08zm-35.675 5.047c2.411 0 4.774 0 5.208 1.864.434 1.865-1.157 2.805-2.564 2.958-1.028.112-1.936-.265-2.644.386-.876.803-.474 2.973-.152 3.97 2.531.176 6.429-.611 7.072 1.398.418 1.31-.314 2.756 1.085 2.95 1.398.192 2.789-1.536 2.258-3.344 1.15-1.358 4.308-1.028 6.43-.803.064-1.359.466-2.958-.153-3.81-.62-.852-1.696-.418-2.958-.627a2.524 2.524 0 01-2.17-2.563 2.853 2.853 0 012.098-2.098c.916-.169 1.897.434 2.644-.08 1.077-.732.241-3.946.233-5.28h-15.768c-.458 1.374-1.069 3.584-.619 5.079zM-9.4-2.504c-.153 2.146.691 4.54-.546 5.826-1.085 1.133-4.573-.225-4.509 1.712.056 1.463 2.58.804 3.81 1.318 1.84.756 1.703 2.942 1.478 5.44 1.374.081 5.015.652 5.288-.85.12-.692-.402-1.23-.313-1.865.378-2.628 5.36-2.018 5.826.385.097.507-.072 1.061 0 1.608 1.101 1.085 3.81.49 5.441.313-.225-1.607-1.109-5.007.804-5.368.61-.113 1.342.209 2.017.16a1.904 1.904 0 002.025-2.025c-1.374-1.27-4.018.04-5.207-1.398-1.045-1.27-.097-3.777.152-5.513H-9.319c-.097.04-.089.152-.08.265v-.008zm-22.848 14.61c-.956-1.237.7-4.122-1.479-3.962-1.808.129-1.197 2.218-1.607 3.577-.563 1.736-3.215 1.607-4.822.932V28.58c1.985-.209 4.267-.401 4.742 1.093.265.804-.137 1.857.313 2.484a1.985 1.985 0 002.483.313c.756-.53.386-1.8.627-2.491.498-1.415 2.339-1.503 3.962-1.608.233-1.51.611-3.76-.152-4.974-2.13-.306-3.794-.506-4.276-2.25-.378-1.359.137-2.604 1.085-2.958.948-.354 3.094.579 3.657-.386.723-1.245-.603-3.785-.314-5.055-1.784 0-3.472.338-4.219-.635v-.008zM-1.781 8.53c-1.929.153-.627 1.519-.932 2.877a2.235 2.235 0 01-1.326 1.318c-1.31.627-3.352.45-5.36.314-.057 1.607-.805 3.664-.154 4.974.933.386 1.833-.112 2.717 0a2.901 2.901 0 012.491 2.33c.298 2.476-2.41 2.878-4.741 3.111-.724 1.165-.242 3.215-.161 4.742 2.138-.089 4.58-.434 5.907.618.94.748.803 2.034.932 3.424a2.411 2.411 0 002.805-.313c.538-.692.152-1.471.466-2.331.755-2.082 3.64-1.945 6.526-1.712 0-1.31 1.012-3.665.08-4.661-.932-.997-3.327-.225-4.356-.804a2.154 2.154 0 01-1.013-2.41 2.708 2.708 0 011.945-1.704c.804-.201 1.744.192 2.564-.233 1.406-.74.98-3.625.627-5.441-2.901.337-7.691.956-6.767-2.958a2.5 2.5 0 00-2.25-1.133V8.53zm37.226 2.797c-.145-.45 0-.989-.153-1.479A2.523 2.523 0 0032.88 8.53c-1.511.225-.41 2.234-.852 3.424-.675 1.784-4.26.956-6.534.852.145 1.14-1.43 4.291-.072 5.127.803.514 1.985-.225 2.95-.072a2.483 2.483 0 011.864 2.869 3.255 3.255 0 01-3.102 2.571c-.658-.08-1.325 0-1.945.233-.458 1.407.168 2.958.233 4.348 3.102-.434 7.064-.675 6.292 3.424a2.5 2.5 0 002.797.852c1.141-.475.474-3.046 1.246-3.73 1.334-1.18 3.528.354 5.521-.08-.241-1.293 1.382-3.825.233-4.974-.667-.667-2.162-.322-3.27-.7a2.29 2.29 0 01-1.552-2.563c.458-1.929 2.861-2.098 5.128-2.098.546-1.607.064-4.018-.467-5.288-2.555.498-5.272.555-5.907-1.39v-.008zm-16.243 2.097c-.474.804-.136 1.744-.385 2.331a2.155 2.155 0 01-1.399 1.165 2.723 2.723 0 01-3.504-1.784c-.136-.546.065-1.245-.305-1.864-.723-1.206-3.327-1.07-5.135-.852.546 2.636.498 5.915-1.399 6.759-1.302.578-4.018-.129-3.81 1.55.13 1.246 3.4.668 4.51 1.327 1.84 1.085.803 3.76.626 5.907 1.342 0 3.64.345 4.581-.394.627-.49.53-1.503.86-2.17A2.612 2.612 0 0115.706 24c2.918-.45 3.448 1.92 3.81 4.195 1.47.41 3.215-.097 4.741-.153-.104-2.025-1.173-4.22.073-5.449.804-.803 2.612-.169 3.737-.803a1.857 1.857 0 001.004-1.608c-.088-1.76-2.017-.803-3.214-.86-2.998-.209-2.138-4.082-1.56-6.759-1.92-.41-4.371-.37-5.095.868v-.008zm-46.09-.699c0 1.993 1.19 4.726-.08 6.068-.98 1.037-2.491.45-4.115.538a1.502 1.502 0 00.466 2.259c.804.522 2.01.289 2.797.618 1.768.748 1.222 4.123 1.013 6.22 1.712 0 4.275.716 5.513-.232-.33-2.082.113-4.019 2.025-4.195 1.439-.121 3.367.988 3.496 2.483.04.474-.297.803-.08 1.318.972 1.029 3.769.41 5.368.394 0-2.227-.804-4.967.932-5.835 1.222-.627 3.954 0 4.019-1.607a1.607 1.607 0 00-1.013-1.399c-.731-.305-1.567.137-2.491.08-2.789-.168-1.993-3.937-1.551-6.525-1.527-.137-3.593-.338-4.975.072.305 2.106-1.607 4.372-3.729 4.123-1.607-.193-2.363-1.985-2.098-3.89-1.326-.795-3.503-.434-5.497-.482v-.008zM18.19 28.276c-.394-1.117-.065-2.178-.804-2.724a1.994 1.994 0 00-1.326-.386c-1.342.096-1.157 1.607-1.607 2.483-1.013 1.92-3.143 1.56-6.06 1.56.241 1.173-1.004 3.061-.233 4.267.539.852 2.966.313 4.018.803 1.302.571 1.48 2.476.62 3.577-1.021 1.302-2.605 1.398-4.429 1.326-.9.843-.378 2.853-.313 4.267 3.021-.458 5.706-.466 6.839 1.398.538.885.538 2.235 1.326 2.492 2.041.675 1.366-2.548 2.41-3.576 1.279-1.254 3.633-.603 5.988-.547.08-1.19.498-2.829 0-3.882-1.76-.739-4.018-.217-4.975-1.478-.956-1.262-.208-3.215 1.085-3.81.876-.401 2.411.225 3.344-.386 1.1-.715.401-3.214.313-4.355-2.523.04-5.48.996-6.196-1.02v-.009zm-35.209-1.792c-.49-.707-1.302-1.487-2.33-1.246-1.47.346-.306 2.234-.804 3.504-.715 1.92-4.886.892-6.839.852-.056 1.366-.522 3.215 0 4.428 1.752.241 3.817-.337 4.742 1.013a2.605 2.605 0 01.233 2.33c-.595 1.608-2.411 1.825-4.662 1.712-.803.868-.361 2.765-.233 4.019 2.25.08 4.975-.804 6.14.803.62.804.354 2.041 1.166 2.805a2.01 2.01 0 003.03-.16c-.097-1.608-.402-3.07.932-3.497 1.334-.426 3.343.33 5.055.153.08-1.238.434-3.094-.233-3.962-2.227-.112-4.71-.096-4.895-2.33a2.708 2.708 0 011.865-2.878c1.069-.273 2.314.29 3.215-.386.482-.988.466-2.836.313-4.195-2.99.12-7.603.965-6.695-2.957v-.008zM2.414 29.44c-.643.53-.354 1.776-.7 2.636-.562 1.399-3.68 2.612-5.054.933-.611-.748.104-2.29-.62-3.102-.9-1.021-3.366-.475-5.126-.547.2 2.925.184 5.537-2.411 5.826a11.36 11.36 0 00-2.026 0 1.527 1.527 0 00-.932 1.793c.338 1.398 2.467.546 3.89 1.004 1.704.555 1.47 3.143 1.165 5.136 1.551.168 3.866.61 5.36.072.443-.804.161-1.495.394-2.17.804-2.298 4.597-1.736 5.36.153.16.663.265 1.337.314 2.017.997.804 3.215.354 4.822.394-.144-2.307-.627-5.304 1.479-5.674.554-.096 1.19.177 1.864.072 1.158-.169 2.29-1.141 1.945-2.17-.345-1.028-2.604-.361-3.81-.803-2.089-.732-1.55-3.496-1.084-5.907-1.688-.048-3.866-.466-4.83.345v-.008zm-42.594.306v13.292c1.27 0 2.773.394 3.657-.233-.097-2.596 1.43-4.388 3.648-3.962a3.39 3.39 0 012.098 1.551c.24.539.096 1.43.393 1.945.298.514 1.447.747 2.25.804-.36-2.725-.36-5.184 1.865-5.369.635-.048 1.35.306 2.098.08a1.608 1.608 0 001.012-2.016c-.538-1.126-3.359.056-4.508-.804-1.398-1.02-.506-3.408-.538-5.441a3.4 3.4 0 00-2.645.804c0 1.382-.12 2.41-1.165 3.102-1.551.988-4.179.281-4.508-1.551.027-.623 0-1.247-.08-1.865-.796-.747-2.227-.289-3.577-.33v-.007zM.863 43.505c-.217-.57 0-1.342-.314-1.944-.313-.603-2.194-1.278-2.877-.467-.458.555-.12 1.543-.385 2.259-.804 2.186-4.3 1.044-6.84 1.004.129 1.608-1.052 3.448-.313 4.903.74 1.454 2.604.33 4.195 1.004a2.202 2.202 0 011.093 1.326c.587 2.218-.65 3.842-2.724 3.649-.643-.056-1.093-.723-1.945-.619-1.607.209-.715 3.287-.619 4.822H7.397c.184-1.254.442-3.102 0-4.276-2.411.04-5.53.04-5.674-2.177A2.346 2.346 0 013.04 50.89c1.045-.635 3.295-.418 4.123-1.479 1.012-1.294-.12-3.15-.153-4.66-2.636.04-5.425.69-6.148-1.239v-.008zm-16.17.547c-.61.803.129 1.736-.08 2.716-.21.98-1.656 1.833-2.797 1.792-2.178-.08-3.215-2.113-3.576-4.018-1.286-.587-3.303-.185-4.975-.233.667 3.343.635 6.88-2.564 7.233-.803.088-1.317-.2-2.097 0-.29.291-.456.682-.466 1.093.209 1.688 3.455.723 4.741 1.551 1.527.98.49 3.761.314 5.288h16.009c-.53-2.5-.98-5.754 1.55-5.907 1.246-.08 2.291 1.07 3.215.233a2.034 2.034 0 00.08-2.258c-.522-.458-1.558 0-2.49-.153a3.021 3.021 0 01-2.797-2.724c-.097-1.407.482-2.877.466-4.509-1.575.04-3.07-.33-4.533-.096v-.008zm34.823.619c-.651.715-.265 1.607-.547 2.41-.618 1.817-3.44 1.833-4.356.314-.458-.803-.546-2.33-1.55-2.805-1.383-.643-3.127 0-4.823.08.193 2.042 1.11 3.93-.152 5.522a4.388 4.388 0 01-2.017 1.165c-1.03.282-3.215.273-3.11 1.551 0 .442.723.86 1.245 1.013 1.11.321 2.757-.137 3.568.233 1.527.691.683 3.632.547 5.288h15.952c-.803-2.339-.908-5.738 1.471-5.987.804-.08 1.471.402 2.259.233a1.752 1.752 0 001.165-2.25c-.506-1.206-2.958-.475-4.276-1.013-1.944-.804-.803-4.09-.466-5.987-1.663.04-3.946-.828-4.91.24v-.007zM39.019-.319a1.937 1.937 0 011.712.466 2.073 2.073 0 01-.932 3.102c-1.961.467-3.215-1.792-2.098-3.03a2.03 2.03 0 011.318-.538zm-.804 1.865c0 1.302 2.612.65 1.608-.7-.716-.265-1.584.097-1.584.7h-.024z"/><path d="M4.179 32.086c-.12.715-.957 1.117-1.479 1.559-.522.442-1.02 1.23-1.712.932 0-.675.844-.932 1.318-1.326.474-.394.997-.932 1.479-1.318.217-.016.265.12.394.153zM4.9 33.25c-.112.675-.916 1.053-1.406 1.479-.49.426-.94 1.238-1.607.86.562-1.125 1.84-1.527 2.563-2.492.25-.064.306.089.45.153zm.775.932c0 .61-.7.988-1.085 1.326-.386.337-.868.98-1.399.619.378-.965 1.48-1.214 2.018-2.018.192.008.377.008.466.073zm35.134 10.029a3.801 3.801 0 011.47-2.097 2.514 2.514 0 013.657 1.478c.53 2.685-2.805 4.196-4.356 2.411a7.494 7.494 0 01-.771-1.792zm1.14.354c.049 1.848 3.167 1.382 2.878-.619a1.118 1.118 0 00-1.479-.932 1.608 1.608 0 00-1.398 1.55zM30.083 56.727c1.037-.185 1.608.217 1.712.86.322 1.904-3.014 2.194-2.797.072.04-.442.354-.796 1.085-.932zm-.08 1.093c0 .37.627.386.804.152-.024-.45-.579-.297-.804-.152z"/></g></svg>