<svg width="106" height="110" viewBox="0 0 106 110" fill="none" xmlns="http://www.w3.org/2000/svg">
<g opacity="0.3">
<path fill-rule="evenodd" clip-rule="evenodd" d="M86.1367 -19.0723C89.0108 -16.2961 89.3178 -11.1749 90.7484 -6.81801C91.3232 -5.05434 92.3161 -3.38211 92.8974 -1.59231C93.5506 0.367321 93.629 2.4184 94.4717 4.22127C96.2323 4.84861 97.6967 6.10818 98.5804 7.75514C99.0507 8.55206 99.4165 9.45349 99.8411 10.2831C100.331 11.2433 100.978 12.1055 101.108 13.1245C101.194 13.6103 101.163 14.1093 101.02 14.5813C100.878 15.0533 100.626 15.4851 100.285 15.8419C99.6925 16.3679 98.9287 16.6604 98.1362 16.6649C97.2348 16.5539 96.9212 15.7962 96.1766 15.4042C96.5162 17.9126 95.0334 20.0878 92.512 19.8853C91.8559 19.8032 91.2476 19.4993 90.7879 19.0241C90.3281 18.5489 90.0445 17.9309 89.9841 17.2724C89.8012 15.5741 90.376 13.6406 89.664 11.9618C89.3962 11.3086 88.5862 9.79969 87.835 9.62333C86.6331 9.34898 85.3071 10.6097 84.6147 11.0147C84.107 11.3055 83.5786 11.5587 83.0339 11.7724C81.7602 12.2819 81.1135 12.3733 81.0743 14.0521C81.1024 14.6993 81.2302 15.3382 81.4532 15.9464C82.1064 17.6448 84.0334 18.311 85.183 19.6697C85.4784 19.974 85.6929 20.3474 85.807 20.7559C85.9211 21.1644 85.9311 21.5949 85.8362 22.0082C85.6939 22.3122 85.4829 22.5789 85.2199 22.7875C84.9569 22.996 84.6491 23.1407 84.3208 23.2101C83.6407 23.5168 82.9145 23.7089 82.1717 23.7784C80.9371 23.7784 80.0684 22.9292 79.2714 22.263C78.4745 21.5967 77.5666 20.9565 76.8023 20.3687C76.443 22.5373 77.5731 25.7903 75.6069 26.4305C74.8709 26.6619 74.0813 26.6607 73.346 26.4269C72.6107 26.1931 71.9654 25.7381 71.4982 25.124C71.05 24.1899 70.7713 23.1836 70.6752 22.1519C70.4857 20.9565 70.0742 19.8004 69.9828 19.0622C69.5974 15.8811 71.0018 13.3336 70.9952 10.6554C65.1163 11.1192 61.1971 5.91308 62.7778 -0.527586C62.0462 -2.57867 63.6531 -4.14638 64.548 -5.64224C64.842 -6.13868 64.9465 -6.58939 65.3711 -6.58939C66.2268 -6.58939 66.5665 -4.47951 66.5077 -3.36905C66.4469 -2.51438 66.2253 -1.67889 65.8545 -0.90645C65.5867 -0.370817 64.9465 0.07337 64.8485 0.484894C64.5938 1.51044 65.26 3.862 65.6062 4.65239C65.8077 5.23863 66.1521 5.76542 66.6083 6.18513C67.0645 6.60483 67.6181 6.90421 68.2191 7.0562C69.148 7.22437 70.1042 7.15928 71.0018 6.86678C71.3676 6.67081 71.4852 6.06332 71.6942 5.79551C72.8569 4.29965 75.006 3.37209 76.5606 2.32042C78.9448 0.69392 81.6687 -1.78175 81.7406 -5.4528C81.7798 -7.69332 80.9371 -9.79013 79.7809 -11.8347C78.2916 -11.1815 75.9139 -10.378 73.9674 -11.1357C73.6451 -10.9958 73.2942 -10.9344 72.9436 -10.9564C72.5929 -10.9784 72.2525 -11.0833 71.9503 -11.2625C71.6481 -11.4417 71.3927 -11.69 71.2051 -11.987C71.0175 -12.2841 70.903 -12.6214 70.8711 -12.9713C70.8058 -14.1993 71.7791 -15.2836 72.3866 -16.0022C71.0972 -16.0382 69.8555 -16.4972 68.8527 -17.3086C68.2583 -17.8573 67.3569 -19.3466 67.6508 -20.3395C67.9056 -21.1952 69.7215 -21.8811 70.9169 -21.9856C71.9756 -22.085 73.042 -21.9095 74.0131 -21.4761C74.5879 -21.1691 74.9406 -20.4571 75.5285 -20.3395C75.424 -21.5218 73.9086 -21.5283 73.5689 -22.678C73.1051 -24.2522 75.1039 -25.9441 76.4104 -24.9512C76.812 -24.493 77.0568 -23.9186 77.1093 -23.3116C77.2073 -22.7694 77.1093 -21.8419 78.1218 -22.0444C78.3373 -22.6976 77.7756 -23.1222 77.7364 -23.8146C77.7127 -24.2907 77.8499 -24.761 78.126 -25.1497C78.4021 -25.5383 78.801 -25.8227 79.2584 -25.9571C79.5076 -26.0211 79.7698 -26.0134 80.0148 -25.9348C80.2599 -25.8562 80.4777 -25.7099 80.6432 -25.5129C81.0024 -25.01 80.4864 -22.8217 81.022 -22.6127C81.5577 -22.4036 82.4134 -23.6251 82.8576 -23.9975C84.1842 -25.031 85.8644 -25.5003 87.5346 -25.3039C88.3511 -25.2125 90.0625 -24.703 90.1866 -23.7885C90.3434 -22.6061 89.4289 -21.4173 88.7953 -20.7576C88.0237 -20.0327 87.1215 -19.4608 86.1367 -19.0723ZM79.2584 -22.2273C80.6693 -21.9333 80.3296 -19.8365 78.4353 -20.333C78.7423 -18.7065 76.5737 -18.2362 75.7833 -19.1964C75.2476 -18.2427 74.9602 -17.1845 74.0784 -16.1655C73.288 -15.2575 71.655 -14.2058 71.9293 -12.8145C72.1449 -11.6779 73.889 -11.8216 74.2025 -12.8798C74.2025 -13.1346 73.9282 -13.4612 74.2025 -13.6375C74.5552 -13.938 74.8557 -13.4677 75.1497 -13.324C75.4763 -13.324 75.6788 -13.5788 75.9074 -13.324C76.4692 -12.4422 74.4703 -12.4291 74.8361 -11.7432C76.6129 -11.4362 77.8344 -12.0764 79.1277 -12.5663C79.9129 -13.2848 80.4445 -14.2381 80.6432 -15.2836C80.702 -15.7082 80.4864 -16.466 81.022 -16.479C81.9039 -16.5117 81.3029 -14.147 81.0874 -13.7029C81.4033 -13.7655 81.7302 -13.7429 82.0345 -13.6375C82.851 -13.3109 83.4128 -11.5538 83.2364 -10.3715C83.1123 -9.55497 82.4722 -9.2349 82.0998 -8.79071C82.4395 -8.29427 82.4003 -7.41243 82.6681 -6.83108C82.6681 -8.64701 83.9419 -10.7503 86.0779 -10.2408C86.9401 -10.0318 86.7311 -9.13691 86.6462 -8.28121C86.6135 -7.78477 86.6919 -7.26219 86.6462 -6.88986C86.6067 -6.43855 86.4174 -6.0134 86.1085 -5.682C85.7996 -5.35061 85.3887 -5.13198 84.9413 -5.06088C84.1245 -5.00685 83.3161 -5.25309 82.6681 -5.75328C82.7336 -5.35532 82.7336 -4.94933 82.6681 -4.55136C83.4529 -4.53575 84.2045 -4.23235 84.7801 -3.69884C85.3558 -3.16533 85.7154 -2.4389 85.7905 -1.65764C85.993 0.922546 81.5446 1.94156 80.8 -0.266296C80.395 0.33466 79.8201 0.772305 79.4151 1.37979C80.6367 1.45164 81.0482 2.63396 81.0547 3.52232C81.0547 4.7177 80.8587 5.94574 79.794 6.61855C77.8932 7.82046 75.2738 7.06927 75.62 4.09063C75.4763 4.26046 75.2281 4.33232 75.0517 4.46949C74.712 6.19397 73.9478 7.49385 71.9555 7.5657C71.9014 8.26298 71.9454 8.96439 72.0861 9.64945C72.2755 8.134 75.2934 6.17437 76.3189 7.94457C77.5208 10.0283 75.522 12.8829 73.3468 12.7457C73.6538 12.9482 74 13.9933 74.4246 14.0129C74.4573 14.0129 74.6336 13.7582 74.7381 13.6928C75.2368 13.415 75.8117 13.3051 76.3777 13.3793C79.4543 13.719 77.6057 17.0569 76.3777 18.4351C77.3837 19.833 78.9906 20.643 80.297 21.7012C81.4672 21.2411 82.4618 20.4225 83.1385 19.3627C82.7988 19.2582 82.7073 18.912 82.3219 18.8597C81.2703 19.3627 78.7293 19.9637 78.5268 18.4743C78.3635 17.2855 79.6764 16.7041 80.4211 16.1424C80.0141 15.0733 79.9278 13.9088 80.1729 12.7914C79.6618 12.4267 79.3017 11.8877 79.1604 11.276C78.9383 10.0675 80.3884 8.0099 80.9894 7.86619C82.335 7.55918 83.4063 8.98972 83.5173 10.3288C84.876 9.96953 86.5156 7.88578 88.3837 8.6827C88.8606 8.89173 88.9782 9.3751 89.5203 9.62986C89.7952 9.4283 90.1266 9.31858 90.4675 9.31632C92.2899 9.31632 92.2899 11.2759 91.7347 12.6673C91.5649 13.0788 91.1599 13.3205 91.0815 13.6732C90.9574 14.3656 91.2709 15.4761 91.0162 16.0771C91.7293 16.2132 92.4629 16.1993 93.1703 16.0363C93.8777 15.8732 94.5434 15.5645 95.1249 15.1299C95.1249 13.1703 95.1249 11.4784 95.1249 9.57107C93.5898 9.47309 92.3618 8.98971 92.1528 7.73555C91.9699 6.63162 92.9497 5.77591 93.7989 5.20761C93.4695 4.57891 93.1941 3.92333 92.9758 3.24798C92.2312 2.70581 91.075 2.24856 90.8921 1.1577C90.7092 0.0668373 91.3624 -0.612503 91.7739 -1.45514C91.3559 -2.91181 90.5524 -3.97654 90.1343 -5.4332C88.8279 -5.12619 87.1492 -5.96231 87.5215 -7.51695C87.724 -8.3204 88.4099 -9.60723 88.8279 -9.85545C88.6385 -10.5087 88.5079 -11.2599 88.325 -11.9392C85.9734 -11.6844 84.4383 -12.5336 84.5951 -14.4671C84.6996 -15.7735 85.6794 -16.3222 86.2412 -17.2498C85.9975 -17.7188 85.6173 -18.1028 85.1508 -18.3512C84.6843 -18.5996 84.1535 -18.7007 83.6284 -18.6411C83.4977 -18.824 83.354 -18.922 83.3801 -19.2094C83.4259 -19.8626 84.0725 -19.6667 84.5755 -19.7124C85.7831 -19.9849 86.8967 -20.5732 87.8024 -21.4173C88.4334 -22.004 88.8535 -22.7822 88.9978 -23.6317C88.4041 -24.0376 87.7217 -24.2952 87.0079 -24.3827C86.2941 -24.4702 85.5697 -24.3852 84.8956 -24.1347C83.2364 -23.6121 82.6616 -21.7896 81.3552 -21.6067C79.5131 -21.352 79.4935 -23.2659 79.6503 -24.9577C78.3439 -24.8662 79.0297 -23.2528 79.2584 -22.2273ZM74.4573 -22.8805C75.1206 -22.3031 75.7325 -21.6693 76.2863 -20.9862C76.3393 -21.0564 76.406 -21.1151 76.4824 -21.1589C76.5587 -21.2027 76.6431 -21.2306 76.7304 -21.2409C76.1883 -21.8941 76.0772 -23.0373 75.9074 -24.0824C75.2085 -24.52 74.294 -23.8668 74.4507 -22.8609L74.4573 -22.8805ZM78.6901 -21.1756C78.8926 -21.1756 79.2322 -21.0907 79.2584 -21.2997C78.9644 -21.4369 78.873 -21.352 78.6835 -21.156L78.6901 -21.1756ZM73.5689 -20.6073C72.9539 -20.8988 72.2886 -21.0696 71.6093 -21.1103C70.44 -21.1691 68.5261 -20.6792 68.3889 -19.9737C68.2714 -19.3793 69.1075 -18.2623 69.4667 -17.9553C70.0432 -17.5368 70.6999 -17.2419 71.3957 -17.089C72.0915 -16.9362 72.8113 -16.9286 73.5101 -17.0669C73.7542 -17.3636 73.9727 -17.6804 74.1633 -18.0141C73.6669 -18.3407 73.3925 -18.7718 72.772 -19.1572C72.4258 -19.3727 71.2304 -19.7059 71.3219 -20.2284C71.459 -20.9862 72.7785 -20.0913 73.0921 -19.9149C73.377 -19.7628 73.6519 -19.5926 73.9151 -19.4054C74.1568 -19.216 74.3397 -18.8371 74.6728 -18.9024C74.9014 -19.5948 74.0719 -20.2807 73.5624 -20.6008L73.5689 -20.6073ZM76.541 -20.2284C76.541 -19.9541 76.5018 -19.6406 76.6651 -19.536C76.8158 -19.4442 76.9969 -19.416 77.1684 -19.4577C77.3399 -19.4993 77.4878 -19.6074 77.5796 -19.7581C77.6714 -19.9089 77.6996 -20.0899 77.658 -20.2614C77.6163 -20.4329 77.5082 -20.5808 77.3575 -20.6726C77.0972 -20.4944 76.8218 -20.3392 76.5345 -20.2088L76.541 -20.2284ZM86.7115 -16.3092C85.797 -15.656 85.0197 -13.6963 86.3327 -12.8994H88.1029C87.6913 -14.0687 87.4104 -15.3751 86.705 -16.2896L86.7115 -16.3092ZM82.3481 -10.8026C82.3343 -11.4057 82.2263 -12.003 82.028 -12.5728C81.7928 -12.9517 80.3427 -13.0562 80.2578 -12.4422C80.2578 -12.4422 80.5975 -12.0568 80.702 -11.8739C81.0214 -11.1606 81.379 -10.465 81.7732 -9.79012C81.9371 -9.90672 82.0735 -10.0578 82.1728 -10.2327C82.2721 -10.4076 82.3319 -10.6021 82.3481 -10.8026ZM83.6088 -6.44568C83.8133 -6.26752 84.0631 -6.14943 84.3305 -6.10447C84.598 -6.0595 84.8727 -6.08943 85.1242 -6.19093C85.9734 -6.67431 85.4312 -8.32693 85.8166 -9.28715C84.1183 -9.58109 83.3932 -8.05259 83.6088 -6.43916V-6.44568ZM88.4033 -6.88333C88.5079 -6.36077 89.2199 -6.23012 89.7947 -6.23012C89.5269 -7.0401 89.3636 -7.94807 89.037 -8.69273C88.9455 -8.15057 88.2858 -7.50389 88.4033 -6.88333ZM63.6401 -1.51393C63.6401 -1.12201 63.6858 -0.540648 64.1431 -0.442665C64.6987 -1.00433 65.0922 -1.70574 65.2819 -2.4727C65.4717 -3.23966 65.4506 -4.04364 65.2209 -4.79959C64.7179 -3.94388 63.6205 -2.7877 63.6466 -1.5074L63.6401 -1.51393ZM84.0464 -0.318554C85.7252 -1.14813 84.5102 -3.81324 82.5898 -3.72832C82.3319 -2.87692 81.9929 -2.05225 81.5773 -1.26571C81.6557 -0.0115414 83.0601 0.184416 84.0529 -0.312025L84.0464 -0.318554ZM92.5382 1.89583C92.4631 1.16092 92.294 0.438675 92.0352 -0.253239C91.5714 0.48489 91.7543 1.66067 92.5774 1.90236L92.5382 1.89583ZM63.2874 2.20937C63.5552 2.17671 63.6401 2.32042 63.8556 2.34001C63.8566 1.72324 63.7931 1.10806 63.6662 0.50449C63.4898 0.556746 63.5029 0.419579 63.3527 0.439175C63.2962 1.02975 63.2875 1.62391 63.3265 2.2159L63.2874 2.20937ZM77.0048 5.87389C77.854 6.78839 79.6764 5.82164 79.9769 5.05085C80.2774 4.28006 80.2643 2.99976 79.9116 2.52945C79.1277 1.49084 77.7168 2.64703 76.9395 3.28718C76.8676 4.22127 76.4496 5.24027 77.0375 5.88042L77.0048 5.87389ZM63.4833 4.0449C63.6267 3.99767 63.7493 3.90224 63.8303 3.77481C63.9113 3.64739 63.9456 3.49585 63.9275 3.34596C63.7447 3.24878 63.5547 3.16579 63.3592 3.09774C63.3705 3.42103 63.4231 3.74155 63.516 4.05143L63.4833 4.0449ZM63.6727 4.92673C63.8818 5.26641 63.9798 5.72366 64.1822 6.06333C64.6003 6.00766 65.0247 6.09762 65.3842 6.31808C65.0053 5.73019 64.7309 5.06391 64.3717 4.42376C64.2868 4.71117 63.9079 4.73077 63.7054 4.93326L63.6727 4.92673ZM72.4584 6.57283C73.3795 6.57283 73.8041 5.68446 73.9739 5.11616C73.4106 5.52863 72.911 6.02163 72.4911 6.57936L72.4584 6.57283ZM96.2419 14.0978C96.5424 14.0978 96.5424 14.3852 96.8102 14.4114C97.9539 13.9677 98.942 13.1977 99.6516 12.197C99.4818 11.9684 99.5079 11.5438 99.214 11.4393C98.859 11.5126 98.4985 11.5563 98.1362 11.5699C96.4836 11.387 96.9278 9.15955 97.7573 8.30384C97.0649 7.14112 96.366 5.98493 95.04 5.46236C96.2419 7.53958 96.3529 10.7011 96.2419 14.0978ZM94.0928 6.06985C93.6356 6.44872 92.9497 6.96475 93.0215 7.5853C93.1065 8.31037 94.034 8.59778 94.9812 8.59778C94.8574 7.70414 94.5553 6.84449 94.0928 6.06985ZM66.1941 8.28424C66.8458 8.84275 67.6216 9.23732 68.4568 9.43504C69.292 9.63276 70.1623 9.62789 70.9952 9.42083C70.9642 9.27428 70.9424 9.12592 70.9299 8.97665C70.1657 9.68211 67.9382 9.47309 68.0231 7.90538C67.251 7.75875 66.5318 7.4093 65.9394 6.8929C66.1067 7.33774 66.193 7.80897 66.1941 8.28424ZM65.1817 7.27176C65.0314 7.27176 64.9726 6.81451 64.8028 7.01701C64.9334 7.03661 64.9922 7.48732 65.1621 7.27176H65.1817ZM68.8462 7.96416C69.0095 8.85907 70.5184 8.57818 70.6164 7.84005C69.9501 7.82699 69.5059 8.01642 68.807 7.96416H68.8462ZM72.6348 10.9363C73.6865 12.8959 76.3908 10.4398 75.4763 8.32343C73.7714 7.97723 72.8896 9.44696 72.6152 10.9363H72.6348ZM81.3552 8.85254C80.5125 9.4143 79.4805 11.0343 80.4668 12.0075C81.043 11.4398 81.7674 11.0459 82.5571 10.871C82.8902 10.0414 81.7014 8.60431 81.3356 8.85254H81.3552ZM98.8547 10.5574C98.7141 10.0527 98.4767 9.5802 98.1558 9.16608C97.6201 9.70172 97.7639 11.1453 98.8547 10.5574ZM89.9449 10.4333C90.4414 10.884 90.5981 11.6875 90.9574 12.2623C91.382 11.3413 91.2187 9.59719 89.9253 10.4333H89.9449ZM71.4198 14.2219C71.8836 14.4375 72.3082 14.6792 72.7263 14.9143C74.4703 16.3318 72.7263 18.9251 70.9626 18.2653C71.1063 19.9049 71.6615 21.146 71.7791 22.8378C72.8634 23.1709 74.5944 23.687 75.633 22.9619C75.6722 21.551 75.5285 20.4274 75.8225 19.4934C74.8688 18.3437 74.8753 16.7107 74.1176 15.5088C73.3599 14.3069 72.3017 13.4446 71.7203 12.2427C71.7203 12.2035 71.7203 12.1709 71.655 12.1839C71.6485 12.8959 71.4198 13.4577 71.4198 14.2219ZM97.5483 15.045C98.4563 16.3514 100.599 14.9339 100.011 13.2095C99.3256 14.0017 98.4705 14.6291 97.5091 15.045H97.5483ZM77.2661 14.7902C77.0636 14.137 75.3783 14.0325 74.9929 14.7249C75.4959 15.4173 75.6853 16.4363 76.0642 17.2528C76.234 16.4363 77.5731 15.8811 77.2269 14.7902H77.2661ZM71.0736 17.3182C73.0855 18.0628 72.9157 15.1887 71.2631 15.2344C71.1512 15.9246 71.0749 16.6201 71.0344 17.3182H71.0736ZM95.0204 16.371C93.8087 16.976 92.4435 17.2036 91.1011 17.0242C90.9443 19.9441 95.85 18.8597 94.9812 16.371H95.0204ZM80.8065 17.1287C80.2462 17.3497 79.7925 17.7777 79.5392 18.3241C80.0945 18.7813 80.8457 18.1412 81.5642 18.2C81.4047 17.775 81.1285 17.4036 80.7673 17.1287H80.8065ZM83.648 22.3544C85.3267 21.8514 85.0785 20.8324 83.9027 20.0225C83.1453 21.0084 82.1707 21.8064 81.0547 22.3544C81.7667 22.9358 82.6747 22.6549 83.6088 22.3675L83.648 22.3544ZM75.6853 23.8699C74.7381 24.5231 73.1182 24.0332 72.1514 23.7458C72.2037 25.8752 76.4692 26.4305 75.6461 23.8829L75.6853 23.8699Z" fill="white"/>
<path fill-rule="evenodd" clip-rule="evenodd" d="M85.3116 0.825781C85.7505 0.758306 86.1989 0.85397 86.572 1.0947C86.9451 1.33542 87.2171 1.70453 87.3365 2.1322C87.8068 4.49683 85.2071 6.75041 83.1625 6.17559C82.6021 5.9668 82.1374 5.56021 81.8561 5.03247C81.7027 4.42559 81.7159 3.78859 81.894 3.18853C82.0722 2.58847 82.4089 2.04755 82.8686 1.6227C83.59 1.12899 84.4378 0.852428 85.3116 0.825781ZM83.6067 5.18923C85.2332 5.45705 87.0752 3.00751 86.1346 1.9689C85.7166 1.49859 84.2403 1.83825 83.672 2.15833C83.2854 2.41643 82.9793 2.77817 82.7887 3.20213C82.5981 3.62608 82.5307 4.09514 82.5942 4.55561C82.9927 4.8169 83.2148 5.12391 83.6067 5.18923Z" fill="white"/>
<path fill-rule="evenodd" clip-rule="evenodd" d="M89.9904 2.02744C91.4013 1.79228 92.355 3.00073 92.1982 4.49005C92.0718 5.19828 91.6826 5.83265 91.1085 6.26624C90.5344 6.69983 89.8178 6.90066 89.102 6.82855C88.6513 6.78282 87.58 6.41049 87.3971 5.63317C87.0379 4.09159 88.7101 2.26259 89.9904 2.02744ZM91.1858 3.73232C90.9898 2.75904 89.9512 2.80476 89.2914 3.29467C88.7594 3.75668 88.3849 4.37325 88.2202 5.05834C89.0563 6.50194 91.532 5.4568 91.1858 3.73232Z" fill="white"/>
<path fill-rule="evenodd" clip-rule="evenodd" d="M85.0596 8.5981C84.1513 6.70971 87.4576 5.70998 87.8432 7.20632C88.2025 8.59158 86.1312 9.06203 85.0596 8.5981ZM85.8175 7.84013C86.3272 7.84013 86.7715 7.78133 86.961 7.46115C86.863 7.39429 86.7509 7.35077 86.6335 7.33391C86.516 7.31705 86.3962 7.3273 86.2833 7.36388C86.1704 7.40046 86.0674 7.4624 85.9821 7.54495C85.8969 7.6275 85.8316 7.72847 85.7914 7.84013H85.8175Z" fill="white"/>
<path fill-rule="evenodd" clip-rule="evenodd" d="M3.3153 -2.52646C3.50479 -2.31736 3.40678 -1.99718 3.43945 -1.64433C3.50479 -0.990911 3.88378 -0.0107808 3.3153 0.126438C3.10155 -0.290291 2.97455 -0.746045 2.94198 -1.21326C2.90941 -1.68048 2.97194 -2.14944 3.12581 -2.5918C3.18012 -2.54988 3.24669 -2.52693 3.3153 -2.52646Z" fill="white"/>
<path fill-rule="evenodd" clip-rule="evenodd" d="M59.9824 -0.507677C59.9498 0.648508 59.3292 1.83083 58.9046 2.96741C58.7152 3.50958 58.48 4.11053 58.2514 4.6723C58.0228 5.23406 58.0359 6.04404 57.3043 5.97872C56.7686 5.54107 57.2324 4.82906 57.4284 4.33915C58.0228 2.8433 58.7348 0.929394 59.388 -0.461947C59.4028 -0.506024 59.4276 -0.546072 59.4604 -0.578943C59.4933 -0.611813 59.5334 -0.636614 59.5774 -0.651384C59.8126 -0.664449 59.8518 -0.540338 59.9824 -0.507677Z" fill="white"/>
<path fill-rule="evenodd" clip-rule="evenodd" d="M46.8398 1.07376C47.4147 0.557722 48.1463 1.72698 48.61 2.27568C49.4723 3.24896 50.3607 4.19612 51.2621 5.18247C51.6148 5.56133 52.5685 6.613 51.7063 6.75671C51.2229 6.84163 50.4521 5.65931 50.3149 5.49601C49.407 4.44433 48.695 3.64742 47.8523 2.65454C47.373 2.23319 47.0221 1.68533 46.8398 1.07376Z" fill="white"/>
<path fill-rule="evenodd" clip-rule="evenodd" d="M9.63206 1.26172C9.82155 1.63417 10.0633 2.49015 9.75621 2.77766C9.28575 2.70578 9.02438 1.27479 9.63206 1.26172Z" fill="white"/>
<path fill-rule="evenodd" clip-rule="evenodd" d="M8.74339 2.08594C8.8218 2.86351 9.27919 4.15729 8.93288 4.73884C8.27946 4.38599 8.384 2.93539 8.42974 2.08594H8.74339Z" fill="white"/>
<path fill-rule="evenodd" clip-rule="evenodd" d="M54.0461 2.34059C54.3466 3.30082 54.5295 4.37862 54.8626 5.30618C53.9089 6.33826 53.4255 3.47066 53.5562 2.53003C53.5366 2.29488 53.8175 2.34713 54.0461 2.34059Z" fill="white"/>
<path fill-rule="evenodd" clip-rule="evenodd" d="M7.67292 2.71875C7.89042 3.39157 7.99634 4.09546 7.98646 4.8025C8.06484 5.48837 8.37838 6.32448 7.92767 6.69681C7.43123 6.58576 7.60106 5.82151 7.54881 5.30547C7.42569 4.51445 7.36236 3.71526 7.35938 2.91472C7.35938 2.8298 7.47042 2.81021 7.48348 2.72529L7.67292 2.71875Z" fill="white"/>
<path fill-rule="evenodd" clip-rule="evenodd" d="M-0.792969 6.12778C-0.792969 4.7299 -0.0352423 3.00542 1.48021 3.15566C4.11265 3.42348 0.93151 8.45321 -0.792969 6.12778ZM0.030078 5.8077C0.243977 5.81103 0.455965 5.767 0.650841 5.67875C0.845718 5.59051 1.01866 5.46024 1.15726 5.29729C1.29586 5.13434 1.3967 4.94274 1.45253 4.73623C1.50836 4.52972 1.51782 4.31342 1.48021 4.10283C1.27138 4.11495 1.06718 4.16927 0.879924 4.26251C0.692673 4.35575 0.52626 4.48596 0.390732 4.6453C0.255204 4.80464 0.153372 4.98979 0.0913851 5.18957C0.0293987 5.38936 0.00854337 5.59963 0.030078 5.8077Z" fill="white"/>
<path fill-rule="evenodd" clip-rule="evenodd" d="M6.24803 3.22266C6.69874 3.43822 6.62036 4.13062 6.68568 4.614C6.82938 5.60688 6.98615 6.63242 7.12986 7.769C7.18865 8.20666 7.50872 8.91866 7.00575 9.16035C6.49625 8.96438 6.67261 8.26545 6.62689 7.85392C6.46359 6.46912 6.11738 4.88181 6.05859 3.43168C6.05859 3.32716 6.11738 3.32064 6.11738 3.24225L6.24803 3.22266Z" fill="white"/>
<path fill-rule="evenodd" clip-rule="evenodd" d="M5.90137 10.6088C5.40493 10.6088 5.60742 9.90986 5.58782 9.60285C5.48331 8.00901 5.09138 6.15388 5.01953 4.48166C5.07179 4.42941 5.18937 4.44901 5.20896 4.35756C5.22856 4.26611 5.32001 4.41634 5.39839 4.42288C5.71039 5.98853 5.9415 7.56922 6.0908 9.15866C6.13652 9.62897 6.38474 10.3279 5.90137 10.6088Z" fill="white"/>
<path fill-rule="evenodd" clip-rule="evenodd" d="M38.3745 7.57921C38.2242 6.35077 38.8188 5.45558 39.9558 5.74962C41.2626 6.0894 40.9947 8.48747 39.3024 8.21303C38.9103 8.14116 38.7731 7.90592 38.3745 7.57921ZM39.3873 7.45506C39.5857 7.48549 39.7882 7.44125 39.9558 7.33091C40.3217 6.28543 38.7339 6.5272 39.3873 7.48773V7.45506Z" fill="white"/>
<path fill-rule="evenodd" clip-rule="evenodd" d="M4.32244 6.31843C4.75356 6.5144 4.64251 7.14148 4.70783 7.57913C4.83194 8.51975 4.96912 9.4865 5.0867 10.4859C5.13242 10.9366 5.37411 11.5115 5.02138 11.7923C4.48574 11.7597 4.62292 11.0412 4.57719 10.6558C4.44002 9.39506 4.22446 7.78162 4.07422 6.48827C4.07422 6.40335 4.18527 6.39028 4.19833 6.29883L4.32244 6.31843Z" fill="white"/>
<path fill-rule="evenodd" clip-rule="evenodd" d="M31.0705 7.07495C31.8285 6.70904 31.8677 8.16618 31.0705 7.89828C30.9932 7.86082 30.928 7.80234 30.8823 7.72954C30.8367 7.65673 30.8125 7.57254 30.8125 7.48662C30.8125 7.40069 30.8367 7.3165 30.8823 7.24369C30.928 7.17089 30.9932 7.11241 31.0705 7.07495Z" fill="white"/>
<path fill-rule="evenodd" clip-rule="evenodd" d="M54.1686 7.52024C55.9519 7.18711 57.2126 8.57844 56.8859 10.3617C56.7183 11.0223 56.3039 11.5936 55.728 11.958C55.1522 12.3225 54.4585 12.4525 53.7897 12.3213C53.2203 12.1626 52.7138 11.8318 52.3396 11.3742C51.8693 10.5903 52.3396 9.06183 52.6531 8.53272C52.8188 8.26553 53.0398 8.03692 53.3012 7.86228C53.5626 7.68764 53.8583 7.57101 54.1686 7.52024ZM53.4762 11.3089C54.0771 11.8576 55.0635 11.5179 55.4946 11.1194C56.5136 10.1723 55.9715 8.19305 54.4233 8.4674C53.5219 8.62417 52.5356 10.4532 53.4762 11.3089Z" fill="white"/>
<path fill-rule="evenodd" clip-rule="evenodd" d="M25.6769 7.70952C25.9028 7.63252 26.1447 7.61464 26.3795 7.65757C26.6143 7.70051 26.8342 7.80283 27.0183 7.95479C27.2023 8.10676 27.3444 8.30331 27.431 8.52573C27.5176 8.74815 27.5459 8.98905 27.513 9.22547C27.4477 10.5323 25.605 11.1465 24.8993 10.0422C24.766 9.84539 24.6797 9.62048 24.6473 9.38492C24.6149 9.14937 24.6371 8.90951 24.7123 8.68393C24.7875 8.45836 24.9136 8.25313 25.0809 8.08415C25.2482 7.91517 25.4521 7.78698 25.6769 7.70952ZM25.8664 9.79394C26.0161 9.82318 26.1713 9.80167 26.3075 9.73283C26.4436 9.664 26.5529 9.55175 26.6181 9.41384C26.6833 9.27592 26.7007 9.12021 26.6675 8.97131C26.6344 8.82241 26.5525 8.68881 26.4349 8.59165C25.5266 8.17345 25.5005 9.38229 25.8468 9.79394H25.8664Z" fill="white"/>
<path fill-rule="evenodd" clip-rule="evenodd" d="M63.5162 8.02371C63.5162 8.63773 62.7389 8.52015 62.2555 8.592C61.2725 8.75917 60.3015 8.99046 59.3487 9.2844C58.9698 9.39545 58.2121 9.67634 58.1468 9.09498C58.0815 8.51362 59.4532 8.33725 59.9823 8.21314C60.7533 8.03907 61.5343 7.91255 62.3208 7.83427C62.6997 7.79508 63.4051 7.63832 63.5162 8.02371Z" fill="white"/>
<path fill-rule="evenodd" clip-rule="evenodd" d="M3.63701 8.08818C3.81338 9.00267 3.88523 10.0805 4.01588 11.1191C4.09426 11.7396 4.41434 12.5692 3.95056 12.9481C3.40839 12.6476 3.58476 11.8245 3.5129 11.1779C3.33698 10.1773 3.25172 9.16287 3.25815 8.14696C3.31041 8.0947 3.43452 8.10778 3.44758 8.02286C3.46065 7.93794 3.5521 8.08164 3.63701 8.08818Z" fill="white"/>
<path fill-rule="evenodd" clip-rule="evenodd" d="M49.8122 9.79311C49.3875 9.62322 46.5059 8.9698 47.5383 8.14648C48.1983 8.47973 50.6029 8.83912 49.8122 9.79311Z" fill="white"/>
<path fill-rule="evenodd" clip-rule="evenodd" d="M19.4246 10.3624C19.3817 10.4133 19.3282 10.4542 19.2678 10.4822C19.2074 10.5103 19.1416 10.5248 19.075 10.5248C19.0085 10.5248 18.9427 10.5103 18.8823 10.4822C18.8219 10.4542 18.7684 10.4133 18.7254 10.3624C18.536 9.624 19.6206 9.624 19.4246 10.3624Z" fill="white"/>
<path fill-rule="evenodd" clip-rule="evenodd" d="M33.0714 11.8782C33.1176 11.8399 33.1727 11.814 33.2317 11.8029C33.2906 11.7919 33.3514 11.796 33.4083 11.815C33.4652 11.8339 33.5163 11.8671 33.5568 11.9113C33.5974 11.9555 33.626 12.0093 33.6399 12.0677C33.8359 12.9171 32.4507 12.3356 33.0714 11.8782Z" fill="white"/>
<path fill-rule="evenodd" clip-rule="evenodd" d="M62.3813 15.0963C62.3379 15.1123 62.2985 15.1375 62.2658 15.1702C62.2331 15.2029 62.2078 15.2423 62.1918 15.2857C61.3753 15.0702 61.0748 14.5411 60.3628 14.025C60.1342 13.8617 58.6253 13.1889 58.5926 12.7186C58.5273 11.7126 59.6312 12.5488 59.984 12.7839C60.8331 13.3653 62.0938 14.1622 62.3813 15.0963Z" fill="white"/>
<path fill-rule="evenodd" clip-rule="evenodd" d="M50.3805 12.3149C50.6941 12.3149 50.988 12.2104 51.0729 12.5697C51.2232 13.2229 48.6365 13.9284 48.1074 14.0851C47.5783 14.2419 47.0492 14.2876 46.2718 14.5293C45.795 14.6795 44.8478 15.1825 44.7564 14.5946C44.6649 14.0067 47.1341 13.5168 47.5391 13.3927C48.6169 13.0596 49.3615 12.4325 50.3805 12.3149Z" fill="white"/>
<path fill-rule="evenodd" clip-rule="evenodd" d="M56.5078 13.4569C56.6051 13.3823 56.7202 13.3346 56.8418 13.3185C56.9633 13.3025 57.0869 13.3187 57.2002 13.3655C57.7424 15.6517 58.7026 18.1535 59.2252 20.6292C59.2774 20.8839 59.4865 21.4718 59.0945 21.5763C58.5916 21.7135 58.2845 20.2177 58.1474 19.8061C57.9122 19.0811 57.7032 18.3364 57.4942 17.7224C56.9759 16.3511 56.6441 14.9165 56.5078 13.4569Z" fill="white"/>
<path fill-rule="evenodd" clip-rule="evenodd" d="M21.8232 14.464C21.8686 14.4992 21.9059 14.5437 21.9328 14.5945C21.9596 14.6453 21.9753 14.7013 21.9789 14.7586C21.9825 14.816 21.9738 14.8734 21.9535 14.9272C21.9332 14.9809 21.9017 15.0297 21.8611 15.0703C21.8204 15.111 21.7716 15.1425 21.7179 15.1628C21.6641 15.1831 21.6067 15.1918 21.5493 15.1882C21.492 15.1846 21.4361 15.1689 21.3853 15.142C21.3345 15.1152 21.29 15.0778 21.2547 15.0325C21.111 14.6731 21.3266 14.379 21.8232 14.464Z" fill="white"/>
<path fill-rule="evenodd" clip-rule="evenodd" d="M52.9659 14.5293C54.0633 14.6077 53.0704 15.8357 52.7177 16.5543C52.4826 17.005 52.0645 18.1677 51.7052 18.1938C50.8495 18.2657 51.653 16.9788 51.8947 16.4889C52.3584 15.5483 52.4499 14.9669 52.9659 14.5293Z" fill="white"/>
<path fill-rule="evenodd" clip-rule="evenodd" d="M15.4475 15.1631C17.4078 14.6665 17.4078 17.7768 15.637 17.6919C14.2452 17.6331 14.1211 15.4964 15.4475 15.1631ZM16.1401 16.47C16.2708 15.6075 15.0489 15.8884 15.4475 16.849C15.5162 16.8774 15.5903 16.8906 15.6646 16.8874C15.7388 16.8842 15.8115 16.8648 15.8775 16.8306C15.9435 16.7963 16.0012 16.7481 16.0466 16.6892C16.092 16.6303 16.1239 16.5621 16.1401 16.4896V16.47Z" fill="white"/>
<path fill-rule="evenodd" clip-rule="evenodd" d="M84.9332 15.3243C85.0974 15.2895 85.2676 15.2933 85.4301 15.3355C85.5927 15.3776 85.7432 15.4569 85.8699 15.5671C85.9966 15.6774 86.096 15.8155 86.1602 15.9707C86.2244 16.1258 86.2517 16.2938 86.24 16.4613C86.24 17.9707 83.6786 18.0883 83.7112 16.5266C83.7197 16.207 83.8517 15.9032 84.0796 15.679C84.3075 15.4547 84.6135 15.3276 84.9332 15.3243ZM84.5542 16.6312C84.9136 17.1931 85.861 16.4352 85.2076 16.1215C84.809 16.1738 84.7175 16.4613 84.5542 16.6769V16.6312Z" fill="white"/>
<path fill-rule="evenodd" clip-rule="evenodd" d="M-1.80382 21.4796C-2.06642 21.293 -2.28861 21.0552 -2.45703 20.7806C-2.45703 19.7355 -2.2676 18.7295 -1.5752 18.2592C-0.680295 17.6517 0.665321 17.9457 0.763302 19.017C0.757368 19.3475 0.686152 19.6736 0.55375 19.9765C0.421348 20.2794 0.230371 20.5532 -0.00819778 20.782C-0.246767 21.0109 -0.528222 21.1903 -0.83638 21.3101C-1.14454 21.4298 -1.47332 21.4874 -1.80382 21.4796ZM-1.54907 20.6565C-0.726021 20.5389 0.0578334 19.7616 -0.288369 18.8863C-0.503225 18.8798 -0.71637 18.9264 -0.908903 19.022C-1.10144 19.1176 -1.26741 19.2592 -1.3921 19.4343C-1.5168 19.6094 -1.59637 19.8125 -1.62375 20.0257C-1.65113 20.2389 -1.62548 20.4556 -1.54907 20.6565Z" fill="white"/>
<path fill-rule="evenodd" clip-rule="evenodd" d="M12.8519 20.4005C13.3223 20.1653 13.5053 20.4724 13.5445 20.7207C13.6621 21.7858 11.924 20.8775 12.8519 20.4005Z" fill="white"/>
<path fill-rule="evenodd" clip-rule="evenodd" d="M18.1572 22.1707C18.1572 23.7978 16.6609 21.6676 18.1572 22.1707V22.1707Z" fill="white"/>
<path fill-rule="evenodd" clip-rule="evenodd" d="M66.8037 28.8074C64.1909 29.3692 64.5567 25.881 66.3007 25.7765C68.0448 25.672 68.4694 28.2914 66.8037 28.8074ZM67.0585 27.416C67.1303 26.4493 65.4908 26.3578 65.7978 27.919C65.9096 27.9903 66.0367 28.0339 66.1687 28.0464C66.3007 28.0588 66.4338 28.0397 66.557 27.9905C66.6801 27.9414 66.7898 27.8637 66.877 27.7638C66.9642 27.6639 67.0264 27.5447 67.0585 27.416Z" fill="white"/>
<path fill-rule="evenodd" clip-rule="evenodd" d="M9.37639 29.5005C11.9892 29.0367 12.0546 33.0082 10.1341 33.6091C7.33183 34.4845 7.12281 31.1465 8.30512 30.0034C8.59103 29.7137 8.97085 29.5354 9.37639 29.5005ZM10.513 30.8069C9.93162 29.7487 8.63172 30.7481 8.49455 31.754C8.45536 32.0349 8.59906 32.1721 8.49455 32.5118C9.58541 33.6157 11.1988 32.0676 10.513 30.8265V30.8069Z" fill="white"/>
<path fill-rule="evenodd" clip-rule="evenodd" d="M4.00755 30.8266C4.0614 30.8012 4.12079 30.7899 4.18019 30.7937C4.23959 30.7974 4.29707 30.8162 4.34728 30.8481C4.39749 30.8801 4.43881 30.9242 4.46738 30.9764C4.49595 31.0286 4.51085 31.0872 4.51069 31.1468C4.58257 32.0746 3.02088 31.1337 4.00755 30.8266Z" fill="white"/>
<path fill-rule="evenodd" clip-rule="evenodd" d="M21.4434 34.4906C22.5673 34.1181 21.4434 36.0196 21.1298 34.9349C21.0514 34.6212 21.2082 34.569 21.4434 34.4906Z" fill="white"/>
<path fill-rule="evenodd" clip-rule="evenodd" d="M1.80067 35.8831C1.84253 35.975 1.84798 36.0793 1.81592 36.175C1.78385 36.2707 1.71667 36.3507 1.62792 36.3988C1.53917 36.4469 1.43548 36.4596 1.33777 36.4342C1.24007 36.4088 1.15563 36.3473 1.10151 36.2621C0.951222 35.7524 1.56544 35.6218 1.80067 35.8831Z" fill="white"/>
<path fill-rule="evenodd" clip-rule="evenodd" d="M66.612 37.4638C68.4023 36.9868 68.0756 39.5351 66.8015 39.5482C66.5411 39.5451 66.2911 39.4456 66.0998 39.2689C65.9085 39.0922 65.7896 38.8508 65.766 38.5915C65.7425 38.3322 65.8159 38.0733 65.9722 37.865C66.1284 37.6567 66.3564 37.5137 66.612 37.4638ZM66.612 38.7249C66.9844 38.7772 67.1086 38.5877 67.1216 38.2806C66.8733 38.1303 66.527 38.3394 66.612 38.7249Z" fill="white"/>
<path fill-rule="evenodd" clip-rule="evenodd" d="M17.78 38.9794C17.78 39.3323 17.5839 39.5349 17.1265 39.4826C16.5319 39.0513 17.5055 38.3456 17.78 38.9794Z" fill="white"/>
<path fill-rule="evenodd" clip-rule="evenodd" d="M7.03886 69.5434C7.22176 70.0659 7.44385 70.693 7.7378 71.3723C7.97295 71.9341 8.54778 72.6788 8.24077 73.2667C7.86191 73.9656 6.28113 73.2667 5.62792 73.7109C4.83754 77.2905 7.11724 78.4858 9.1618 79.6485C11.9184 81.2163 14.3875 83.6789 14.087 88.3689C13.8649 91.746 11.4023 95.0905 8.09053 95.5085C5.52994 95.8286 2.61662 94.5026 3.2241 91.9028C3.42164 91.1864 3.89017 90.575 4.53053 90.1979C5.28172 89.7864 7.01273 89.512 7.372 90.3286C7.50917 90.6356 7.52877 91.5501 6.99314 91.5893C6.4575 91.6284 6.66653 91.034 6.30073 90.7662C5.08576 90.8381 4.07328 91.4194 4.08634 92.5364C4.08634 93.5162 5.1968 94.2805 6.30073 94.4961C7.45974 94.6768 8.64543 94.4457 9.65171 93.8428C10.5425 93.3248 11.3055 92.6133 11.8844 91.7608C12.4633 90.9083 12.8432 89.9367 12.9962 88.9176C13.2024 87.7986 13.1626 86.6481 12.8795 85.546C12.5964 84.444 12.0767 83.4168 11.3566 82.5357C9.17486 80.047 4.60891 79.5898 4.59585 74.8932C4.59585 74.4229 4.74609 74.0571 4.71996 73.5867C3.86425 73.639 2.59702 73.9721 2.32267 73.332C2.09405 72.8029 2.79298 72.0713 3.0804 71.503C3.45273 70.7583 3.63563 70.079 3.89691 69.6675C-0.420817 66.0356 -4.54911 61.1757 -5.76409 54.2517C-6.48262 50.1822 -5.43748 46.6744 -3.55623 44.3359C-1.5966 41.8733 1.01625 40.4166 5.09882 40.2272C6.92094 40.1022 8.74957 40.3455 10.4756 40.9425C12.2017 41.5396 13.7898 42.4782 15.1452 43.7023C17.4576 45.8579 18.9992 49.3526 18.2414 53.7487C17.5882 57.3348 15.5175 60.0195 13.5644 62.5932C11.7009 65.184 9.50721 67.5205 7.03886 69.5434ZM15.7592 57.668C16.7164 56.0921 17.2996 54.3179 17.4641 52.4815C17.7777 47.8306 15.6286 44.7474 12.7283 43.0099C9.82807 41.2724 4.28884 40.5996 0.722304 42.1999C-3.19697 43.944 -5.80981 48.3793 -4.70589 54.2647C-3.66075 59.8628 -0.577588 64.1478 2.87137 67.5968C3.28942 68.0083 4.08634 68.9032 4.51093 68.9881C4.93552 69.073 5.67365 68.6877 6.28113 68.8575C10.1043 65.75 13.318 61.9604 15.7592 57.681V57.668ZM4.94205 69.87C4.94205 69.9614 4.83754 69.9745 4.81794 70.0594C4.66117 70.4905 4.40642 70.987 4.16473 71.4507C3.92304 71.9145 3.61603 72.4698 3.66176 72.7114C4.17126 72.5285 3.90345 71.7643 4.47827 71.7055C5.0531 71.6467 5.07269 72.1301 5.0531 72.7114H5.43196C5.11189 71.6859 6.67306 71.4769 6.43791 72.5873C6.69151 72.6389 6.95459 72.6162 7.19563 72.522C6.75419 71.6661 6.37436 70.7799 6.05904 69.87H4.94205Z" fill="white"/>
<path fill-rule="evenodd" clip-rule="evenodd" d="M24.5402 42.5118C27.3882 41.9827 27.153 46.2939 24.919 46.1763C23.3056 46.098 22.3519 42.9233 24.5402 42.5118ZM25.9315 44.2232C25.8793 43.2695 24.3377 42.9168 24.1613 43.9032C24.0176 44.7197 24.7492 44.9614 25.2391 45.2945C25.4444 45.2002 25.6185 45.0493 25.7411 44.8596C25.8638 44.6699 25.9298 44.4491 25.9315 44.2232Z" fill="white"/>
<path fill-rule="evenodd" clip-rule="evenodd" d="M13.1687 44.2814C13.1519 44.9472 12.923 45.5903 12.5155 46.117C12.2281 46.62 11.9929 47.4234 11.3789 47.5671C11.3789 46.2607 12.4894 45.5617 12.7637 44.3468C12.816 44.2945 12.9401 44.3076 12.9531 44.2227C12.9833 44.2463 13.018 44.2638 13.055 44.2739C13.092 44.284 13.1307 44.2865 13.1687 44.2814Z" fill="white"/>
<path fill-rule="evenodd" clip-rule="evenodd" d="M14.1794 45.1067C14.0646 45.9425 13.7632 46.7417 13.2976 47.4452C12.9514 48.0984 12.6444 49.137 11.9062 49.2154C12.0696 48.4908 12.3688 47.8037 12.7881 47.1904C13.176 46.5442 13.5145 45.8694 13.8006 45.172C13.8006 45.1002 13.9247 45.1263 13.9247 45.0414C14.0423 45.0348 14.088 45.1198 14.1794 45.1067Z" fill="white"/>
<path fill-rule="evenodd" clip-rule="evenodd" d="M15.3177 46.3658C15.1609 47.8812 14.0766 49.1942 13.2993 50.4092C13.0772 50.7554 12.8812 51.4412 12.3521 51.3563C12.2019 50.8599 12.6199 50.383 12.8551 50.0499C13.7099 48.9504 14.411 47.7395 14.9388 46.4507C14.9911 46.3984 15.1152 46.4115 15.1283 46.3266C15.1413 46.2417 15.2393 46.3658 15.3177 46.3658Z" fill="white"/>
<path fill-rule="evenodd" clip-rule="evenodd" d="M16.0474 48.3906C15.9756 49.5141 15.2505 50.4809 14.6626 51.3562C14.3687 51.7939 14.0094 52.2511 13.709 52.6626C13.4085 53.0742 13.1864 53.7143 12.6377 53.8058C12.3111 53.2636 12.9512 52.839 13.206 52.4993C14.1176 51.2522 14.9405 49.9425 15.6686 48.5801C15.6686 48.4951 15.7796 48.4821 15.7992 48.3906H16.0474Z" fill="white"/>
<path fill-rule="evenodd" clip-rule="evenodd" d="M54.5863 50.7896C55.3182 50.4172 55.377 51.5541 54.8346 51.6129C54.7334 51.6234 54.6316 51.5984 54.5468 51.542C54.4621 51.4855 54.3996 51.4014 54.3702 51.3039C54.3408 51.2064 54.3463 51.1017 54.3858 51.0079C54.4252 50.914 54.4961 50.8368 54.5863 50.7896Z" fill="white"/>
<path fill-rule="evenodd" clip-rule="evenodd" d="M59.984 50.7888C60.6375 50.5078 60.6375 51.488 60.2389 51.5468C60.0232 51.586 59.3502 51.0632 59.984 50.7888Z" fill="white"/>
<path fill-rule="evenodd" clip-rule="evenodd" d="M16.5173 50.7891C16.7524 51.377 16.2364 51.9844 15.949 52.4351C15.2958 53.4346 14.6099 54.2576 13.8652 55.2113C13.5256 55.649 13.2708 56.3218 12.6633 56.4132C12.3629 55.8188 13.0618 55.3942 13.3557 55.0219C14.4146 53.7546 15.3671 52.4022 16.2037 50.9785C16.2037 50.9001 16.3148 50.8805 16.3279 50.7891H16.5173Z" fill="white"/>
<path fill-rule="evenodd" clip-rule="evenodd" d="M40.0786 53.0028C40.2525 52.9633 40.4337 52.9685 40.6051 53.0178C40.7766 53.067 40.9328 53.1589 41.0593 53.2847C41.1857 53.4105 41.2783 53.5662 41.3285 53.7374C41.3787 53.9086 41.3848 54.0897 41.3462 54.2639C41.2155 55.5707 38.9808 55.8256 38.8175 54.5187C38.7865 54.1511 38.9014 53.786 39.1374 53.5023C39.3733 53.2187 39.7114 53.0392 40.0786 53.0028ZM39.7649 54.5841C40.255 54.6298 40.5425 54.473 40.5229 54.0156C40.2158 53.5647 39.7061 54.0744 39.7649 54.5841Z" fill="white"/>
<path fill-rule="evenodd" clip-rule="evenodd" d="M16.6407 53.5719C16.105 55.2311 14.877 56.3742 13.8645 57.6153C13.5379 58.0137 13.3158 58.6474 12.7279 58.7519C12.4013 58.1967 13.0741 57.7655 13.3811 57.4455C14.4409 56.2695 15.394 55.0016 16.2291 53.6568C16.2291 53.585 16.3533 53.6111 16.3533 53.5262C16.5035 53.4543 16.4904 53.598 16.6407 53.5719Z" fill="white"/>
<path fill-rule="evenodd" clip-rule="evenodd" d="M52.2733 57.6148C52.6523 57.4776 52.7895 57.654 52.8418 57.8697C53.1489 59.0916 51.1363 58.0265 52.2733 57.6148Z" fill="white"/>
<path fill-rule="evenodd" clip-rule="evenodd" d="M24.1598 58.0587C24.5938 57.9747 25.0415 57.9949 25.4662 58.1175C26.9425 58.7707 26.8772 61.4489 25.2768 61.9714C24.1271 62.3503 22.6117 61.6906 22.5006 60.456C22.4549 59.9257 22.5956 59.3962 22.8985 58.9586C23.2014 58.521 23.6474 58.2027 24.1598 58.0587ZM24.9175 61.2137C26.0214 60.9263 25.7798 59.1234 24.9828 58.9405C23.8724 58.6858 23.6764 59.8485 23.3367 60.5801C23.4997 60.8389 23.7404 61.0396 24.0243 61.1534C24.3082 61.2672 24.6209 61.2883 24.9175 61.2137Z" fill="white"/>
<path fill-rule="evenodd" clip-rule="evenodd" d="M30.6605 66.0549C30.8372 65.9986 31.0247 65.9854 31.2076 66.0163C31.3904 66.0472 31.5632 66.1214 31.7115 66.2326C31.8599 66.3439 31.9795 66.489 32.0604 66.6559C32.1412 66.8227 32.181 67.0065 32.1764 67.1919C32.2614 69.0999 29.0661 69.1848 29.3994 67.0677C29.4779 66.7886 29.6416 66.5409 29.8677 66.3593C30.0938 66.1778 30.371 66.0713 30.6605 66.0549ZM31.3531 67.1919C31.2094 66.6299 30.2554 66.9109 30.2162 67.5121C30.2717 67.6468 30.3748 67.7565 30.5058 67.8202C30.6369 67.884 30.7868 67.8974 30.9271 67.8579C31.0674 67.8183 31.1883 67.7287 31.2668 67.6059C31.3453 67.4832 31.3761 67.3358 31.3531 67.1919Z" fill="white"/>
<path fill-rule="evenodd" clip-rule="evenodd" d="M0.66477 69.046C0.697441 69.4838 0.612495 69.6602 0.344591 69.6994C-0.354572 69.7321 -0.00825675 68.3142 0.66477 69.046Z" fill="white"/>
<path fill-rule="evenodd" clip-rule="evenodd" d="M23.3983 80.9031C23.6531 80.8377 23.9471 80.9031 23.9667 81.282C24.0321 82.4778 22.2221 81.2102 23.3983 80.9031Z" fill="white"/>
<path fill-rule="evenodd" clip-rule="evenodd" d="M29.9045 50.5818C29.8048 50.6522 29.6884 50.6953 29.5669 50.7067C29.4454 50.7182 29.323 50.6976 29.2119 50.6471C29.2119 50.5753 29.2119 50.536 29.1465 50.523C29.0485 49.7323 30.2116 49.9088 29.9045 50.5818Z" fill="white"/>
<path fill-rule="evenodd" clip-rule="evenodd" d="M82.27 28.237C83.2629 27.9888 84.1186 28.4526 84.2296 29.243C84.2824 29.6366 84.1892 30.0359 83.9678 30.3656C83.7464 30.6953 83.412 30.9326 83.0277 31.0328C81.0942 31.379 80.3822 28.7008 82.27 28.237ZM82.0153 29.9419C82.1254 30.0521 82.2647 30.1285 82.4168 30.1621C82.5689 30.1957 82.7274 30.1851 82.8737 30.1315C83.0199 30.078 83.1478 29.9837 83.2423 29.8598C83.3367 29.7359 83.3937 29.5876 83.4066 29.4324C83.3187 29.2779 83.179 29.1596 83.0121 29.0985C82.8453 29.0373 82.6622 29.0373 82.4953 29.0984C82.3285 29.1595 82.1887 29.2778 82.1008 29.4322C82.0129 29.5867 81.9826 29.7672 82.0153 29.9419Z" fill="white"/>
<path fill-rule="evenodd" clip-rule="evenodd" d="M6.98218 81.9996C8.51772 81.7774 8.70068 84.0644 7.36117 84.2735C6.02165 84.4825 5.18526 82.2544 6.98218 81.9996ZM6.72734 83.3064C6.78159 83.3751 6.85572 83.4253 6.93962 83.4503C7.02351 83.4752 7.11306 83.4737 7.19602 83.4458C7.27898 83.4179 7.3513 83.365 7.40309 83.2945C7.45487 83.2239 7.48359 83.1391 7.48532 83.0516C7.33503 82.6072 6.68814 82.8686 6.72734 83.326V83.3064Z" fill="white"/>
<path fill-rule="evenodd" clip-rule="evenodd" d="M20.8032 56.965C19.3983 56.4162 20.2608 54.1096 21.816 54.5016C23.1359 54.8283 22.8092 57.4616 20.8032 56.965ZM20.9796 56.2071C22.7569 56.2071 20.9338 54.3448 20.9796 56.2071V56.2071Z" fill="white"/>
<path fill-rule="evenodd" clip-rule="evenodd" d="M18.9789 88.1913C19.8349 87.9887 20.6647 88.3873 20.5602 89.4981C20.423 90.9814 17.6459 91.0402 17.8419 89.3087C17.9138 88.7075 18.2209 88.3677 18.9789 88.1913ZM19.7369 89.3283C19.665 88.6748 18.6914 89.0996 18.5999 89.6419C19.0246 90.1516 19.7891 89.7922 19.7369 89.3283Z" fill="white"/>
<path fill-rule="evenodd" clip-rule="evenodd" d="M28.3891 63.2795C28.3808 63.3055 28.383 63.3338 28.3952 63.3582C28.4074 63.3826 28.4287 63.4013 28.4545 63.4102C28.3434 64.8804 26.7752 62.9659 28.3891 63.2795Z" fill="white"/>
<path fill-rule="evenodd" clip-rule="evenodd" d="M20.2366 63.9146C20.9684 63.5422 21.0338 64.6791 20.4914 64.7379C20.3895 64.7505 20.2864 64.7269 20.2001 64.6711C20.1139 64.6153 20.0499 64.531 20.0196 64.4329C19.9892 64.3348 19.9943 64.2291 20.034 64.1343C20.0736 64.0396 20.1454 63.9618 20.2366 63.9146Z" fill="white"/>
<path fill-rule="evenodd" clip-rule="evenodd" d="M15.5578 67.0014C15.7602 67.1386 15.7929 67.4391 15.8778 67.6938C17.1842 67.6938 17.7199 68.432 17.5827 69.9017C17.384 71.2901 16.9581 72.6363 16.322 73.8863C15.8179 73.9567 15.308 73.9764 14.8 73.9451C14.6498 74.2194 14.8392 74.8269 14.4212 74.8334C14.0031 74.84 14.4212 74.1802 14.1729 73.9451C13.7353 74.0365 14.2187 75.049 13.6046 74.9576C13.265 74.7812 13.5393 74.3827 13.474 73.9451C12.553 73.7556 11.7365 73.5989 11.3249 72.9979C10.2863 71.4955 11.9128 69.3138 13.7288 69.5228C13.9209 68.9919 14.2751 68.5349 14.7412 68.2164C14.6629 67.9355 14.395 67.4587 14.6759 67.2105C15.1397 67.1647 14.9699 67.7592 15.2442 67.9029C15.5904 67.733 14.898 66.9623 15.5578 67.0014ZM15.9366 69.0852C15.6753 69.0852 15.7341 68.7455 15.499 68.7063C15.3618 68.8631 15.7145 69.2485 15.3683 69.3595C15.0221 69.4706 15.1005 69.1701 14.9307 69.1113C14.2775 69.3334 14.9307 70.4177 14.2317 70.5614C13.9509 70.4084 13.6294 70.3468 13.3119 70.3854C12.9945 70.424 12.697 70.5607 12.461 70.7765C12.2251 70.9924 12.0624 71.2765 11.9957 71.5893C11.9291 71.902 11.9617 72.2278 12.0892 72.5211C12.5098 72.8261 13.02 72.9824 13.5393 72.9652C13.5045 72.6778 13.5894 72.508 13.7941 72.4557C14.1664 72.397 13.879 73.0044 14.2317 72.9652C14.3624 72.7954 14.2317 72.3708 14.6106 72.4557C14.8 72.5015 14.8262 72.7105 14.8 72.9652H15.7472C16.0019 71.587 16.825 70.47 16.6355 68.8566C16.4657 68.7716 16.4069 68.5757 16.126 68.6018C16.1521 68.6447 16.1679 68.6931 16.1722 68.7432C16.1765 68.7932 16.1692 68.8436 16.1509 68.8904C16.1325 68.9371 16.1037 68.979 16.0665 69.0128C16.0294 69.0466 15.9849 69.0714 15.9366 69.0852Z" fill="white"/>
<path fill-rule="evenodd" clip-rule="evenodd" d="M10.3898 96.9775C11.3569 96.8011 11.8404 97.3304 11.8404 98.0491C11.8404 99.5716 9.22671 99.6696 9.1875 98.2386C9.2263 97.9273 9.36409 97.6367 9.58056 97.4097C9.79702 97.1826 10.0807 97.0311 10.3898 96.9775ZM10.0108 98.2844C10.3637 98.6568 11.1739 98.3889 10.9583 97.84C10.4747 97.631 10.1676 98.023 10.0108 98.2844Z" fill="white"/>
<path fill-rule="evenodd" clip-rule="evenodd" d="M25.8477 98.8655C25.8477 98.297 26.5534 98.1271 26.671 98.5518C26.6958 98.6567 26.6818 98.767 26.6313 98.8623C26.5809 98.9575 26.4975 99.0312 26.3968 99.0696C26.2961 99.1079 26.1849 99.1084 26.0838 99.0709C25.9828 99.0333 25.8989 98.9603 25.8477 98.8655Z" fill="white"/>
<path fill-rule="evenodd" clip-rule="evenodd" d="M20.5613 99.9436C20.7607 99.8766 20.9727 99.8556 21.1814 99.8824C21.3901 99.9091 21.59 99.9828 21.766 100.098C21.9421 100.213 22.0899 100.366 22.1981 100.547C22.3063 100.727 22.3722 100.93 22.3909 101.139C22.6196 103.328 19.1238 103.328 19.359 101.205C19.3927 100.891 19.5287 100.598 19.7461 100.37C19.9635 100.142 20.2501 99.9921 20.5613 99.9436ZM21.5741 101.329C21.5546 101.196 21.4948 101.073 21.4028 100.975C21.3108 100.878 21.1911 100.811 21.0598 100.784C20.9286 100.757 20.7922 100.771 20.6691 100.824C20.5461 100.877 20.4423 100.967 20.3718 101.081C20.4071 101.319 20.3635 101.562 20.2477 101.773C20.3487 101.88 20.4782 101.956 20.6208 101.991C20.7635 102.027 20.9133 102.021 21.0528 101.974C21.1922 101.928 21.3153 101.842 21.4077 101.728C21.5001 101.613 21.5578 101.475 21.5741 101.329Z" fill="white"/>
<path fill-rule="evenodd" clip-rule="evenodd" d="M22.0073 71.8815C22.2752 72.4173 21.3539 72.8486 21.1252 72.3193C21.1223 72.2158 21.1491 72.1136 21.2024 72.0248C21.2558 71.936 21.3334 71.8643 21.4262 71.8182C21.519 71.7722 21.6231 71.7537 21.726 71.7649C21.829 71.7761 21.9266 71.8166 22.0073 71.8815Z" fill="white"/>
<path fill-rule="evenodd" clip-rule="evenodd" d="M24.2908 104.993C25.467 104.522 24.1732 106.463 24.036 105.372C24.0164 105.215 24.0491 105.091 24.2908 104.993Z" fill="white"/>
<path fill-rule="evenodd" clip-rule="evenodd" d="M7.29549 106.888C6.57019 106.136 8.00772 105.757 7.86397 106.574C7.82476 106.816 7.72021 106.92 7.29549 106.888Z" fill="white"/>
<path fill-rule="evenodd" clip-rule="evenodd" d="M18.4125 109.29C18.2753 108.48 19.1836 108.637 19.2359 109.036C19.2319 109.13 19.1989 109.221 19.1413 109.296C19.0837 109.37 19.0043 109.426 18.9141 109.454C18.8239 109.481 18.7273 109.481 18.6375 109.452C18.5477 109.422 18.4691 109.366 18.4125 109.29Z" fill="white"/>
<path fill-rule="evenodd" clip-rule="evenodd" d="M24.9828 109.389C25.0285 110.14 23.885 109.925 24.2901 109.199C24.3471 109.163 24.4112 109.139 24.4781 109.129C24.545 109.118 24.6133 109.122 24.6786 109.14C24.7439 109.158 24.8047 109.189 24.8571 109.232C24.9095 109.275 24.9523 109.328 24.9828 109.389Z" fill="white"/>
<path fill-rule="evenodd" clip-rule="evenodd" d="M44.1217 88.5277C44.6194 88.4848 45.1207 88.5405 45.5968 88.6917C46.0729 88.8429 46.5145 89.0866 46.8962 89.4089C47.278 89.7311 47.5923 90.1256 47.8212 90.5696C48.0502 91.0136 48.1892 91.4984 48.2303 91.9963C48.5178 95.1709 45.3301 97.4375 42.665 96.105C40.9666 95.2558 39.9476 92.4797 41.0254 90.422C41.3649 89.8929 41.8198 89.4476 42.3561 89.1195C42.8923 88.7914 43.496 88.5891 44.1217 88.5277ZM44.5005 89.5337C44.1021 89.9125 43.6317 90.4874 43.0438 91.1798C42.456 91.8722 41.4435 92.5776 41.7832 93.3288C42.8152 91.9832 44.1021 90.8858 45.1341 89.5337C44.8337 89.599 44.6442 89.4096 44.5005 89.5337ZM41.7178 91.8722C42.371 91.1471 42.9589 90.422 43.6187 89.7231C43.1021 89.8059 42.6302 90.0654 42.2835 90.4574C41.9369 90.8493 41.7369 91.3493 41.7178 91.8722ZM45.5718 89.7884C44.6899 90.912 43.6121 92.0551 42.7303 93.1394C42.469 93.453 41.7962 93.7926 42.162 94.3348C43.5446 92.9528 44.8529 91.4985 46.0813 89.9778C45.8527 89.9713 45.8527 89.7427 45.5718 89.7884ZM46.3948 90.4416C45.4803 91.6044 44.396 92.754 43.488 93.8514C43.2072 94.1911 42.7238 94.5046 42.7303 94.988C43.2725 95.0729 43.5272 94.4197 43.8081 94.1062C44.7814 92.9957 45.9245 91.9701 46.7737 90.8401C46.6039 90.716 46.6496 90.3959 46.3948 90.3959V90.4416ZM43.5272 95.3472C44.2523 95.6281 44.507 94.9749 44.8337 94.5895C45.6502 93.6816 46.5189 92.741 47.1721 91.9767C47.0807 91.7742 47.1199 91.4411 46.9174 91.3235C45.8984 92.7605 44.5789 93.9102 43.5272 95.3472ZM45.0427 95.3472C46.1205 94.9292 47.1134 94.0931 47.1264 92.8193C46.5124 93.662 45.4869 94.4981 45.0688 95.3472H45.0427Z" fill="white"/>
<path fill-rule="evenodd" clip-rule="evenodd" d="M4.01002 2.96679C2.86491 2.93507 1.7244 2.80835 0.600255 2.58793C-0.278921 2.5701 -1.15416 2.46507 -2.01259 2.27439C-2.32613 2.14375 -2.80951 1.49707 -3.01854 1.26191C-3.71094 0.484591 -4.17472 -0.149031 -4.85406 -0.945948C-5.12188 -1.27255 -5.70977 -1.7102 -5.7359 -2.02374C-5.79469 -2.67696 -4.95858 -3.21259 -4.72342 -3.72863C-4.84761 -4.39597 -4.72359 -5.08569 -4.37471 -5.66797C-4.02582 -6.25025 -3.47613 -6.68492 -2.82911 -6.89017C-2.23438 -7.56613 -1.68658 -8.28198 -1.18954 -9.0327C-1.21282 -9.6208 -1.01953 -10.197 -0.646306 -10.6521C-0.273083 -11.1072 0.254132 -11.4095 0.83541 -11.5019C1.48862 -11.9656 1.71725 -12.8083 2.35086 -13.2655C2.35086 -14.9573 3.14778 -15.8392 4.4934 -16.1723C4.89839 -16.4467 5.08129 -16.9366 5.38176 -17.3089C5.25112 -18.8309 6.30932 -20.1569 7.58962 -20.1504C8.00768 -20.1504 8.57597 -19.9675 9.10507 -19.9021C10.4964 -19.7258 12.3319 -19.4645 13.5926 -19.2489C15.193 -18.0927 16.0944 -16.2311 17.5119 -14.892C19.4715 -14.892 21.4312 -15.0161 23.7044 -15.0161C24.4162 -15.0979 25.135 -15.0979 25.8469 -15.0161C26.4217 -14.8594 27.604 -13.0957 27.996 -12.6188C28.7014 -11.7501 29.335 -10.9727 30.0797 -10.215C32.8559 -10.215 35.7038 -10.0582 38.676 -10.0256C39.4753 -10.0819 40.2782 -10.06 41.0732 -9.96027C41.7983 -9.7839 42.7781 -8.21619 43.2223 -7.68709C43.5293 -7.32129 43.9408 -6.98816 44.2936 -6.55051C44.5418 -6.25003 45.1362 -5.62294 45.1819 -5.24408C45.2669 -4.50595 44.3785 -3.34324 43.98 -2.63124C43.0198 -0.991674 42.0923 0.340887 41.1386 1.98045C40.6095 2.88841 40.1783 4.14258 39.3684 4.50837C33.3066 3.81597 27.0619 3.29993 20.987 2.61405C14.9252 11.4063 8.21017 21.0412 1.86095 30.0686C1.50169 30.5846 0.848475 31.695 0.476145 31.7734C0.103814 31.8518 -0.797618 31.388 -1.29406 31.2051C-2.96882 30.6911 -4.59683 30.0355 -6.16049 29.2455C-6.8491 28.7688 -7.48422 28.219 -8.0548 27.6059C-8.51858 27.1813 -9.56372 26.2995 -9.57025 25.6463C-9.57678 24.9931 -9.06728 24.9147 -8.81252 24.4444C-8.76511 23.8108 -8.5566 23.1998 -8.20679 22.6693C-7.85697 22.1389 -7.37745 21.7066 -6.8137 21.4135C-6.33032 20.7146 -5.82082 20.0483 -5.29825 19.3951C-5.46808 17.8731 -4.32496 17.6706 -3.71747 16.9325C-4.89359 15.5449 -6.15916 14.2357 -7.5061 13.0132C-7.85884 12.6605 -8.65575 12.0072 -8.64269 11.6218C-8.64269 11.0862 -7.5257 10.3154 -7.38199 9.79285C-7.19256 8.39498 -6.66346 7.34985 -5.42236 7.01018C-4.96913 6.14956 -4.41667 5.34498 -3.77626 4.61289C-3.5999 3.91395 -3.49538 3.16929 -2.89443 2.71857C-2.17589 2.16987 -0.804151 2.33971 -0.621251 3.22155C-0.333838 4.61289 -1.98646 6.23939 -3.52804 5.56005C-3.9461 5.93891 -4.129 6.55292 -4.53399 6.95138C-4.29883 7.31065 -3.9265 7.4021 -3.84158 7.83322C-3.56724 9.28335 -5.55953 11.2365 -7.00313 10.5506C-7.17565 10.7868 -7.32237 11.0408 -7.44078 11.3083C-6.13436 11.9093 -4.61891 12.2751 -3.27329 12.8238C-0.77149 9.59689 1.61273 6.27205 4.01002 2.96679ZM6.25054 -17.4983C7.45898 -17.3677 8.01421 -18.2038 7.82478 -19.2685C6.69472 -19.2947 6.25054 -18.3344 6.25054 -17.4983ZM5.87167 -16.6165C5.70837 -16.4205 5.62345 -16.1462 5.42749 -15.9633C6.43344 -14.1408 4.6567 -11.8219 2.71013 -12.5535C2.43915 -12.1015 2.12171 -11.6789 1.76297 -11.2928C2.96488 -9.65326 0.397759 -6.77259 -0.889068 -8.06595C-1.18301 -7.54338 -1.57494 -7.11226 -1.90155 -6.61582C-0.595122 -5.1265 -2.30001 -2.69655 -4.24004 -3.07541C-4.42294 -2.75534 -4.64503 -2.47446 -4.80834 -2.12826C-3.0316 -1.88657 -1.28753 -1.60569 0.417356 -1.30522C0.378162 -1.51424 0.456549 -1.59916 0.482677 -1.7494C4.06881 -6.51131 7.55696 -11.332 11.2149 -16.0286C10.2743 -15.3362 8.7654 -15.6105 8.68702 -16.721C8.60863 -17.727 9.48393 -18.2887 9.88892 -18.9942C9.43168 -18.9942 9.17692 -19.1314 8.7458 -19.1248C8.81112 -17.2893 7.60921 -16.2507 5.84554 -16.6165H5.87167ZM9.91505 -16.6165C10.1388 -16.6397 10.3547 -16.712 10.5473 -16.8282C10.7399 -16.9445 10.9045 -17.1018 11.0292 -17.289C11.154 -17.4762 11.236 -17.6886 11.2692 -17.9111C11.3024 -18.1336 11.2861 -18.3607 11.2215 -18.5761C10.2743 -18.4651 9.17692 -17.3938 9.88892 -16.6165H9.91505ZM11.9335 -16.93C12.2405 -17.5114 12.7761 -17.8576 13.0047 -18.5108C12.7343 -18.5501 12.4615 -18.5719 12.1882 -18.5761C12.3907 -17.9882 11.8878 -17.335 11.9074 -16.93H11.9335ZM13.8931 -17.9425C9.65377 -12.2857 5.40136 -6.65501 1.00525 -1.13538C2.12877 -0.155558 3.04327 1.03329 4.16026 2.01964C8.21017 -3.55226 12.5671 -8.88246 16.7019 -14.4021C15.831 -15.6397 14.8842 -16.8221 13.867 -17.9425H13.8931ZM3.15431 -13.4549C4.22558 -13.3112 4.91145 -14.1082 4.8592 -15.2905C4.62084 -15.2979 4.38361 -15.2547 4.16321 -15.1636C3.9428 -15.0726 3.74423 -14.9358 3.58061 -14.7623C3.417 -14.5888 3.29207 -14.3825 3.21408 -14.1572C3.13608 -13.9318 3.10681 -13.6925 3.12818 -13.4549H3.15431ZM20.9674 -7.96144C22.411 -10.0191 23.8938 -12.0244 25.3243 -14.0886C24.4812 -14.1236 23.6366 -14.1018 22.7964 -14.0232C22.9732 -13.9962 23.1426 -13.9331 23.294 -13.8379C23.4454 -13.7427 23.5757 -13.6175 23.6767 -13.4699C23.7778 -13.3223 23.8474 -13.1555 23.8814 -12.9799C23.9154 -12.8043 23.9129 -12.6236 23.8742 -12.449C23.6064 -11.1818 20.6735 -10.8552 20.275 -12.0701C19.9549 -13.0434 20.8563 -13.6313 21.3463 -14.1539H19.6806C19.7524 -13.8469 20.1444 -13.5921 20.1835 -13.1414C20.3338 -11.4431 17.0808 -10.7311 16.2643 -12.1943C15.8397 -11.541 15.3432 -10.9727 14.8795 -10.3587C15.1593 -10.51 15.4707 -10.5936 15.7887 -10.6029C16.1066 -10.6122 16.4224 -10.5469 16.7106 -10.4123C16.9988 -10.2777 17.2516 -10.0776 17.4486 -9.82778C17.6455 -9.578 17.7813 -9.28558 17.845 -8.97392C18.2892 -11.123 21.8884 -10.0648 20.9413 -7.96144H20.9674ZM17.3551 -12.2596C18.2174 -12.0832 19.1776 -12.3184 19.3736 -13.0173C18.9882 -14.1539 16.8718 -13.5725 17.3551 -12.2596ZM23.0381 -12.7625C22.9924 -13.6574 20.7322 -13.3439 21.2091 -12.1943C21.9276 -12.0505 23.0642 -12.1093 23.025 -12.7625H23.0381ZM26.0102 -11.1818C26.4086 -9.56834 26.8202 -7.71322 27.2056 -6.38066C27.2777 -6.55081 27.3871 -6.70261 27.5256 -6.82485C26.9443 -8.92166 26.7091 -11.3581 25.9449 -13.2655C25.3831 -12.8279 25.7946 -11.9918 25.9971 -11.1818H26.0102ZM27.9698 -7.58258C28.623 -8.23579 28.3356 -9.00005 28.0939 -10.1105C27.8 -11.4692 27.3754 -12.4621 26.6373 -13.0173C27.1533 -11.2602 27.4603 -9.34625 27.9568 -7.58258H27.9698ZM25.1218 -9.97987C25.468 -8.34684 25.9514 -6.47212 26.1996 -4.98933C26.3319 -5.07329 26.4451 -5.18414 26.5317 -5.31468C26.6184 -5.44522 26.6766 -5.59254 26.7026 -5.74705C26.7744 -6.49171 26.2519 -7.84386 26.0102 -8.97392C25.7358 -10.2803 25.4027 -11.5868 25.1871 -12.24C24.5993 -11.7958 24.9193 -10.9074 25.1088 -9.97987H25.1218ZM23.8873 -10.4894C24.4098 -8.1966 24.7299 -5.68826 25.3374 -3.47388C25.9187 -4.12709 25.6117 -4.91094 25.4027 -5.93649C25.0761 -7.49766 24.5927 -9.99293 24.3249 -11.1622C24.2269 -10.927 23.9918 -10.8029 23.8873 -10.4894ZM28.4597 -10.6135C28.6753 -10.1562 28.6492 -9.45729 28.9039 -9.0327C28.9627 -9.33318 29.2175 -9.43116 29.2828 -9.73164C29.0084 -9.95373 28.6296 -10.7115 28.4597 -10.6135ZM-0.346902 -8.71916C0.561062 -8.80408 1.45596 -9.83615 0.959521 -10.6788C0.744272 -10.6375 0.539392 -10.5538 0.356809 -10.4325C0.174224 -10.3112 0.0175838 -10.1549 -0.103995 -9.97252C-0.225574 -9.79015 -0.309662 -9.58542 -0.351364 -9.37024C-0.393066 -9.15507 -0.391549 -8.93375 -0.346902 -8.71916ZM23.4692 -7.6479C23.835 -5.81237 24.1224 -3.77435 24.6058 -2.33728C25.0108 -2.87292 24.6515 -3.53266 24.5405 -4.10749C24.1551 -6.06713 23.8872 -8.02676 23.5345 -9.92107C23.5345 -9.96026 23.5345 -9.99293 23.4692 -9.97987C22.7964 -9.49649 23.2798 -8.57546 23.4692 -7.6479ZM16.8979 -8.78449C17.1134 -10.3065 14.0042 -9.71204 15.0689 -8.21619C15.8789 -8.07248 16.8064 -8.11821 16.8979 -8.78449ZM30.2887 -9.49649C28.6361 -6.81179 26.7744 -4.33611 25.1088 -1.65795C28.5708 -1.37053 31.9152 -0.959013 35.4099 -0.710793C37.0233 -3.47388 38.8785 -6.33494 40.3351 -9.04577C39.0287 -8.98045 37.9966 -9.22214 36.7947 -9.11109C37.6504 -8.85634 38.6041 -8.30765 38.3167 -7.09267C38.0293 -5.8777 35.4164 -5.37472 34.2733 -6.08019C34.1942 -6.14939 34.1297 -6.2338 34.0839 -6.32841C33.4829 -7.45846 34.8155 -9.0915 35.7234 -9.23521C34.8 -9.30793 33.8732 -9.32973 32.9473 -9.30052C33.1934 -9.1932 33.4079 -9.02474 33.5705 -8.81115C33.7331 -8.59756 33.8384 -8.34593 33.8764 -8.08017C33.9144 -7.81442 33.8837 -7.54337 33.7874 -7.29278C33.6911 -7.0422 33.5323 -6.82041 33.3262 -6.64848C32.477 -5.83197 30.1254 -5.89729 29.8511 -6.96202C29.4918 -8.33377 30.7068 -9.05883 31.556 -9.42463C31.0726 -9.3985 30.7852 -9.49649 30.2887 -9.49649ZM20.1835 -8.9282C19.8831 -9.92108 18.0541 -9.01311 18.7922 -7.91572C19.772 -7.73282 20.3991 -8.19007 20.1835 -8.9086V-8.9282ZM17.6556 -8.48401C17.3225 -6.89017 13.4816 -6.95549 13.867 -9.13722C13.3836 -8.37296 12.7239 -7.79161 12.2862 -6.98816C14.8991 -6.98816 17.7275 -6.89017 20.0594 -6.79872C20.2554 -7.04694 20.6277 -7.45193 20.6277 -7.68709C19.968 -6.72033 17.4792 -6.88364 17.6556 -8.46441V-8.48401ZM22.7115 -5.83197C23.0315 -4.59087 23.1165 -3.44774 23.7827 -2.99049C23.3777 -4.95013 23.1295 -7.05347 22.5808 -8.8694C21.7904 -8.12474 22.3914 -7.07307 22.7115 -5.81237V-5.83197ZM30.857 -7.03388C31.9413 -6.59622 33.4111 -7.19718 32.882 -8.3403C31.9217 -8.77142 30.6545 -8.32724 30.857 -7.01428V-7.03388ZM41.217 -6.21083C41.5828 -4.72804 41.8702 -2.87292 42.2948 -1.59916C43.0525 -2.70962 42.4189 -3.73516 42.04 -5.4531C41.8899 -6.49311 41.6135 -7.51093 41.217 -8.48401C40.616 -7.83079 40.9949 -7.12533 41.217 -6.19124V-6.21083ZM37.4936 -7.47806C37.4936 -8.13128 36.3832 -8.49708 35.7234 -8.23579C35.0637 -7.97451 35.0702 -7.35395 34.9657 -6.72034C35.8084 -6.41986 37.4741 -6.68115 37.4936 -7.45847V-7.47806ZM43.1766 -3.30404C43.7579 -3.91153 43.464 -4.51248 43.2419 -5.4531C42.9545 -6.67461 42.6279 -7.52379 41.9812 -8.06595C42.4254 -6.49171 42.6932 -4.7803 43.1766 -3.28445V-3.30404ZM21.3201 -7.15799C21.5553 -6.12591 21.6402 -4.95013 22.4567 -4.50595C22.2591 -5.57829 21.984 -6.6349 21.6337 -7.66749C21.5415 -7.48407 21.4368 -7.30728 21.3201 -7.13839V-7.15799ZM39.9563 -6.40026C40.6095 -4.47329 40.7662 -2.03028 41.4717 -0.149029C42.0269 -1.08312 41.4717 -2.33729 41.1582 -3.93766C40.9945 -5.0301 40.7411 -6.10719 40.4004 -7.15799C40.2698 -6.88364 40.0673 -6.66808 39.9563 -6.38066V-6.40026ZM21.0131 -6.08672C21.0269 -6.17504 21.0224 -6.26524 21 -6.35176C20.9775 -6.43827 20.9375 -6.51926 20.8825 -6.5897C20.6212 -6.37414 20.7649 -6.23043 21.0066 -6.06713L21.0131 -6.08672ZM14.8207 -4.12709C15.3628 -3.61758 16.2839 -2.44833 16.8391 -2.29809C17.1125 -2.26543 17.3888 -2.26543 17.6621 -2.29809C19.5303 -2.20664 21.4834 -1.89963 23.541 -1.78859C23.0692 -2.52256 22.5171 -3.20173 21.895 -3.81355C21.4769 -4.29692 20.7257 -5.64254 20.1248 -5.83197C19.5181 -5.90688 18.9062 -5.92874 18.2958 -5.89729C16.4668 -5.99528 14.3112 -6.13898 12.7369 -6.21083C13.3613 -5.44565 14.0568 -4.74138 14.8141 -4.10749L14.8207 -4.12709ZM-3.93957 -3.93766C-3.07733 -4.19241 -1.97993 -4.97626 -2.48944 -6.0214C-2.72436 -5.98135 -2.94892 -5.8948 -3.14994 -5.76681C-3.35097 -5.63882 -3.52441 -5.47197 -3.66009 -5.27606C-3.79577 -5.08014 -3.89096 -4.8591 -3.94007 -4.62591C-3.98919 -4.39271 -3.99123 -4.15206 -3.9461 -3.91806L-3.93957 -3.93766ZM11.7375 -6.0214C7.09971 0.562977 2.27248 6.91872 -2.37186 13.4574C-0.732298 14.8487 0.848475 16.2988 2.61868 17.5595C7.01479 11.0862 11.5873 4.79578 16.0748 -1.57957C14.6182 -3.04276 13.2203 -4.5778 11.7179 -6.0018L11.7375 -6.0214ZM44.0192 -4.71497C44.078 -4.91094 44.2283 -5.00892 44.274 -5.21795C44.0454 -5.39432 43.869 -5.94955 43.6208 -5.91689C43.8102 -5.53803 43.7906 -4.99586 43.9996 -4.67578L44.0192 -4.71497ZM39.5643 -3.5392C39.904 -1.97149 40.2567 -0.0575714 40.6356 1.32724C41.1908 0.621769 40.7924 0.0208054 40.5768 -0.945948C40.2371 -2.44834 39.9236 -4.81296 39.5643 -5.8777C39.0614 -5.26368 39.3749 -4.47329 39.5643 -3.5392ZM38.3036 -3.91806C38.9429 -1.74282 39.4275 0.474936 39.7538 2.71857C39.9824 2.64672 40.002 2.37237 40.1326 2.20907C39.6558 -0.0510464 39.388 -2.52019 38.7413 -4.61047C38.6528 -4.35104 38.5078 -4.11453 38.3167 -3.91806H38.3036ZM38.0489 -1.2007C38.1665 -0.665068 38.3232 -0.0902424 38.4277 0.38007C38.6956 1.58851 38.7347 2.80349 39.3096 3.4763C38.9503 1.12474 38.5127 -1.1615 38.0032 -3.34976C37.4675 -2.81413 37.8594 -2.10213 38.0619 -1.2007H38.0489ZM36.9515 -1.57957C37.089 -0.393002 37.3652 0.773338 37.7745 1.89553C37.866 2.07843 38.1338 2.38544 38.2775 2.27439C37.9378 0.785069 37.7092 -0.828371 37.265 -2.21318C37.2258 -2.01068 36.9515 -1.85391 36.9515 -1.57957ZM21.0327 1.8302C26.7483 2.20253 32.2876 2.74471 37.8333 3.28687C37.471 2.75408 37.0479 2.26523 36.5726 1.8302C36.1546 1.37295 35.7104 0.523783 35.1813 0.314754C34.453 0.181465 33.7137 0.118027 32.9734 0.125319C28.2246 -0.33193 21.699 -1.11578 17.6164 -1.39013C18.8118 -0.397245 19.8569 0.765467 21.0066 1.8302H21.0327ZM-3.13612 -0.253546C-3.16878 -0.540958 -3.25369 -0.769579 -3.26676 -1.07659C-3.43659 -1.16151 -3.91997 -1.29215 -4.02448 -1.2007C-3.78106 -0.855513 -3.50069 -0.537916 -3.18837 -0.253546H-3.13612ZM-2.25428 0.693619C-2.28385 0.118423 -2.36917 -0.452547 -2.50903 -1.01126H-2.75725C-2.69291 -0.423668 -2.54098 0.150991 -2.30654 0.693619H-2.25428ZM16.6889 -1.01126C14.4941 2.36584 12.1164 5.57964 9.93465 8.96981C11.0843 9.96269 12.1425 11.0601 13.3444 12.0007C15.5784 8.78038 17.8646 5.61883 20.1639 2.46382C19.0731 1.19006 17.7863 0.164515 16.6431 -1.00473L16.6889 -1.01126ZM35.9586 -0.0641079C36.3832 0.164515 36.6575 0.87652 37.0364 0.948372C36.7751 0.38661 36.7686 -0.429905 36.5269 -1.01126C36.342 -0.683125 36.137 -0.366796 35.9129 -0.0641079H35.9586ZM-1.88195 -0.717319C-1.73171 0.0338726 -1.88195 1.24231 -1.37898 1.55585C-1.17648 0.785065 -1.57494 0.0730686 -1.50309 -0.776108C-1.64616 -0.835102 -1.79504 -0.878897 -1.94727 -0.906757C-1.96669 -0.837044 -1.95971 -0.762613 -1.92767 -0.697725L-1.88195 -0.717319ZM-1.00011 -0.527893C-0.96303 -0.123581 -0.899753 0.277906 -0.810682 0.674025C-0.764957 1.01369 -0.921728 1.64731 -0.490608 1.62118C-0.446709 0.828382 -0.555365 0.034523 -0.810682 -0.717319H-1.00011V-0.527893ZM0.371631 1.76489C0.495741 1.11168 0.169135 0.419271 0.24752 -0.377647C0.110346 -0.429905 0.0319605 -0.540958 -0.196664 -0.508297C-0.000700951 0.216766 -0.24892 1.41215 0.371631 1.76489ZM0.881136 1.07248C0.926861 1.36642 0.881136 1.88246 1.26 1.8302C1.18815 1.26844 1.26 -0.0053196 0.750493 -0.318861C0.751243 0.146852 0.786175 0.611876 0.855007 1.07248H0.881136ZM1.82829 1.89553C2.1353 1.89553 2.63828 2.09149 2.89956 1.95432C2.48804 1.56892 2.14837 1.10514 1.69765 0.758936C1.71131 1.13945 1.7462 1.51891 1.80217 1.89553H1.82829ZM-2.91402 4.92643C-2.71673 4.93084 -2.521 4.8905 -2.34153 4.80843C-2.16206 4.72636 -2.00351 4.60471 -1.8778 4.45259C-1.75208 4.30047 -1.66246 4.12184 -1.61566 3.93013C-1.56886 3.73841 -1.56611 3.53859 -1.6076 3.34566C-1.80486 3.34454 -1.99996 3.3868 -2.17908 3.46946C-2.35819 3.55212 -2.51694 3.67314 -2.64408 3.82397C-2.77123 3.97479 -2.86365 4.15174 -2.91482 4.34225C-2.96598 4.53277 -2.97463 4.7322 -2.94015 4.92643H-2.91402ZM-6.4479 9.91697C-5.9979 9.82632 -5.58907 9.59312 -5.28199 9.25192C-4.97491 8.91072 -4.78592 8.47968 -4.74302 8.02266C-4.99528 7.97695 -5.25502 7.99599 -5.49793 8.07799C-5.74083 8.16 -5.95896 8.30229 -6.1319 8.49154C-6.30484 8.6808 -6.42695 8.91084 -6.48678 9.16014C-6.54662 9.40943 -6.54223 9.66983 -6.47403 9.91697H-6.4479ZM9.34023 9.60343C5.2054 15.6522 0.933393 21.5703 -3.22757 27.6059C-1.9734 28.5204 -0.817214 29.5656 0.502274 30.3821C4.55872 24.5032 8.71968 18.6831 12.7565 12.7454C11.6726 11.6305 10.5231 10.5813 9.3141 9.60343H9.34023ZM-5.94493 13.3267C-5.92066 13.1015 -5.96386 12.8741 -6.06904 12.6735C-6.36298 12.7127 -6.61773 12.3861 -6.82676 12.5494C-6.54588 12.8107 -6.265 13.0785 -5.97105 13.3267H-5.94493ZM-5.06309 14.1498C-5.10083 13.7455 -5.1641 13.3441 -5.25252 12.9479H-5.44195C-5.42236 13.4378 -5.44848 14.0191 -5.08922 14.1498H-5.06309ZM-4.20085 14.9728C-4.36415 14.4633 -4.33803 13.7579 -4.4556 13.2026C-4.49924 13.2099 -4.54392 13.2078 -4.5867 13.1965C-4.62948 13.1853 -4.6694 13.1651 -4.70382 13.1373C-4.56012 13.7709 -4.72995 14.7181 -4.20085 14.9728ZM-3.31902 15.7893C-3.62602 15.1361 -3.31902 13.8297 -3.88731 13.392C-3.79586 14.2478 -3.77626 15.515 -3.31902 15.7893ZM-2.43065 16.3642C-2.56129 15.4562 -2.43065 14.2804 -3.08386 13.895C-2.89443 14.7442 -3.08386 15.9788 -2.43065 16.3642ZM-1.588 16.632C-1.588 15.9004 -1.52268 15.0512 -2.02566 14.803C-1.88848 15.3778 -2.1563 16.3968 -1.588 16.632ZM-1.01971 16.8214C-0.975037 16.8144 -0.929413 16.8166 -0.885615 16.8279C-0.841819 16.8391 -0.800765 16.8591 -0.764957 16.8867C-0.647379 16.6712 -0.764957 16.2335 -0.640847 15.9984C-0.817214 15.9657 -0.987049 15.5999 -1.14382 15.7501C-1.08699 16.098 -1.05425 16.4494 -1.04584 16.8018L-1.01971 16.8214ZM0.750493 17.2656C0.43042 16.9978 0.156071 16.6842 -0.196664 16.4426V17.0958C0.0972815 17.0762 0.515338 17.3244 0.724365 17.246L0.750493 17.2656ZM-2.65927 17.3309C-1.30059 18.363 -3.44966 21.4919 -4.99777 20.3618C-5.22639 20.7799 -5.65098 21.015 -5.82082 21.4984C-4.51439 22.6807 -6.21927 25.0519 -7.64981 25.2282C-8.08093 25.274 -8.49245 24.8625 -8.59696 25.5418C-7.06192 26.0317 -5.70977 26.698 -4.1094 27.1226C-2.07138 24.2484 -0.0464249 21.3743 1.9524 18.4675C0.371631 18.1213 -1.18955 17.4812 -2.6854 17.2852L-2.65927 17.3309ZM-4.36415 19.7935C-3.53457 19.6302 -3.2145 18.9639 -3.10346 18.0886C-3.31331 18.0734 -3.52365 18.1107 -3.71549 18.1971C-3.90734 18.2835 -4.07466 18.4163 -4.20235 18.5835C-4.33004 18.7507 -4.41408 18.9471 -4.44689 19.1549C-4.4797 19.3628 -4.46024 19.5755 -4.39028 19.7739L-4.36415 19.7935ZM-7.90456 24.366C-6.91821 24.1504 -6.46749 23.4058 -6.25847 22.4064C-7.42772 22.3868 -7.8915 23.4058 -7.93069 24.3203L-7.90456 24.366ZM-6.70265 27.3969C-6.70265 27.2793 -6.6308 27.2597 -6.63733 27.1487C-6.86311 27.0861 -7.08197 27.0007 -7.29054 26.8939C-7.21869 27.1291 -6.96394 27.2336 -6.72878 27.3512L-6.70265 27.3969ZM-6.01025 27.9652V27.3969H-6.22581C-6.16049 27.5798 -6.32379 27.9587 -6.03638 27.9195L-6.01025 27.9652ZM-5.44195 28.4747C-5.52687 28.1873 -5.18067 27.7627 -5.50074 27.6517C-5.45502 27.9129 -5.76203 28.2918 -5.46808 28.429L-5.44195 28.4747ZM-4.99777 28.9777C-4.77568 28.8666 -4.62544 28.0632 -4.87366 27.9064C-4.91285 28.2396 -5.03043 28.527 -5.0239 28.9319L-4.99777 28.9777ZM-4.24004 29.2324C-4.08327 28.9842 -4.13553 28.5335 -4.05061 28.2199C-4.129 28.2199 -4.13553 28.1416 -4.24004 28.1546C-4.20085 28.4551 -4.59278 28.9842 -4.26617 29.1867L-4.24004 29.2324ZM-3.417 29.546C-3.35028 29.193 -3.32833 28.8331 -3.35168 28.4747C-3.47579 28.4747 -3.49538 28.4029 -3.60643 28.4094C-3.54764 28.7948 -3.9461 29.4219 -3.44313 29.5003L-3.417 29.546ZM-2.91402 29.7354C-2.72459 29.7354 -2.71806 29.8791 -2.53516 29.8595C-2.47637 29.4088 -2.42412 29.0626 -2.8487 28.9777C-2.82257 29.252 -2.96628 29.3892 -2.94015 29.6962L-2.91402 29.7354ZM-1.90155 30.049C-1.94074 29.9248 -1.79703 29.6113 -2.02566 29.6701C-2.01259 29.755 -2.1563 30.0685 -1.92767 30.0032L-1.90155 30.049Z" fill="white"/>
<path fill-rule="evenodd" clip-rule="evenodd" d="M30.9867 38.2801C29.7164 37.5342 28.4927 36.7118 27.3222 35.8174C26.8062 35.4647 26.166 35.0271 25.552 34.5567C25.1274 34.2301 24.0692 33.5769 24.0366 33.0413C24.0039 32.5056 24.8662 31.4605 25.1928 31.0033C26.4992 29.1285 27.8056 27.3649 28.9814 25.4444C27.0218 23.622 22.8412 23.8245 22.6648 20.3298C22.624 19.4115 22.851 18.5011 23.3181 17.7094C23.7852 16.9177 24.4724 16.2789 25.2959 15.8705C26.1195 15.4622 27.044 15.302 27.9569 15.4095C28.8698 15.517 29.7318 15.8874 30.438 16.4758C31.653 17.4491 31.8425 18.6772 33.2142 19.5721C34.1026 18.4943 35.0824 17.4295 35.9969 16.2211C36.9114 15.0126 37.6103 13.6082 38.6097 12.6807C39.08 12.23 40.3995 13.3339 40.8829 13.6932C42.0848 14.5489 43.1365 15.3262 44.4886 16.306C44.9067 16.6065 46.1478 17.3707 46.1935 17.6973C46.2392 18.024 45.684 18.5269 45.4358 18.8927C44.4909 20.1659 44.0281 21.7328 44.1294 23.315C44.2143 24.2556 44.7826 25.4314 45.8342 25.5947C47.1407 25.7972 48.4994 24.7978 49.1787 24.2033C49.646 23.7473 50.0825 23.2607 50.4851 22.7467C50.8966 22.2568 51.3016 21.486 51.9418 21.486C52.5819 21.486 53.4834 22.3743 54.0255 22.7467L58.0036 25.464C58.5066 25.8037 59.7346 26.3197 59.7738 27.0448C59.7738 27.5608 59.2055 28.1814 58.8266 28.7497C58.4478 29.318 58.0232 29.8993 57.7554 30.3305C57.1675 31.2711 56.057 32.6428 56.2399 34.0538C56.4555 35.7717 59.2512 36.5556 60.4074 37.8489C62.7982 40.514 60.4793 44.4398 57.7946 44.9885C55.2797 45.498 54.2541 43.46 52.5689 42.65C49.6163 41.2391 48.0486 43.4208 46.69 45.3674C46.3221 45.872 45.984 46.3976 45.6775 46.9416C45.4489 47.3662 45.0243 48.1827 44.4168 48.2089C43.8093 48.235 42.8229 47.2486 42.333 46.9024C41.0266 45.9161 39.9031 44.9885 38.4791 43.9303C37.9108 43.5123 36.7285 42.9766 36.6436 42.3495C36.5586 41.7225 37.1857 41.3763 37.5319 40.8994C37.8781 40.4226 38.257 39.8804 38.4791 39.5081C38.969 38.685 39.7855 37.3002 39.4262 35.9742C39.08 34.7527 37.2184 34.1191 35.6376 34.5829C34.6583 34.9095 33.776 35.4753 33.0705 36.229C32.3781 36.8822 31.9927 37.7052 30.9867 38.2801ZM39.0082 13.3666C37.8389 14.9996 36.4737 16.9462 35.1542 18.736C34.7884 19.2324 34.1483 20.2188 33.7041 20.3167C33.4146 20.3505 33.1213 20.3167 32.847 20.2181C32.5728 20.1195 32.3251 19.9587 32.1233 19.7484C31.4701 19.1932 30.7124 17.8345 30.0396 17.2858C28.5111 16.0317 25.6435 16.0251 24.4808 17.5994C24.1464 18.023 23.9011 18.5099 23.7597 19.0308C23.6182 19.5516 23.5836 20.0957 23.6577 20.6303C23.9647 22.2698 26.1987 22.9034 27.7011 23.5371C28.4131 23.8375 29.7848 24.3405 29.8502 25.1178C29.8959 25.7318 29.099 26.6659 28.7724 27.2016C27.4659 29.3833 26.2118 31.0098 25.0491 33.1393C26.9434 34.6547 29.1447 35.8632 31.1109 37.3068C32.4173 35.1512 35.9185 32.0811 39.1323 34.0864C39.7041 34.5116 40.1236 35.1099 40.3283 35.7924C40.5331 36.4749 40.5122 37.2053 40.2689 37.875C39.7659 39.5995 38.5183 41.0366 37.5581 42.2973C39.8312 43.8977 42.0652 45.5634 44.3776 47.0984C45.8473 44.8579 46.9578 42.2254 49.4334 41.3501C51.2428 40.6969 53.0588 41.7355 54.1039 42.4867C55.0511 43.1399 55.9264 44.1916 57.2654 44.0675C59.506 43.8585 61.4199 40.5075 59.6693 38.5087C58.2649 36.9148 54.4893 36.242 55.3058 33.074C55.9068 30.7616 57.7619 29.1547 58.8462 27.1362C56.4816 25.5816 54.2737 23.8702 51.9614 22.2764C50.655 23.9029 49.1526 26.1956 46.592 26.5092C46.1783 26.5642 45.7577 26.5347 45.3557 26.4225C44.9537 26.3102 44.5788 26.1174 44.2535 25.856C42.1893 24.0204 43.5219 19.4741 45.07 17.8933C43.0058 16.4693 41.0527 14.882 39.0082 13.3666Z" fill="white"/>
<path fill-rule="evenodd" clip-rule="evenodd" d="M20.3721 23.5637C22.3324 23.2566 21.8293 26.465 20.1173 25.903C19.0326 25.5436 19.2221 23.7467 20.3721 23.5637ZM20.248 24.7007C20.248 24.9163 20.3786 25.0601 20.627 25.145C21.4111 24.6876 20.2806 23.8839 20.248 24.7007Z" fill="white"/>
<path fill-rule="evenodd" clip-rule="evenodd" d="M24.7947 37.2085C26.2584 36.921 26.1016 38.8748 25.1084 38.9793C24.1151 39.0839 23.5793 37.4438 24.7947 37.2085Z" fill="white"/>
<path fill-rule="evenodd" clip-rule="evenodd" d="M80.9509 94.5888C72.0476 94.628 63.3664 94.4386 54.6722 94.2753C53.222 98.6648 49.6947 102.401 43.5676 102.042C41.7962 101.983 40.0807 101.408 38.6322 100.387C37.1837 99.3652 36.0656 97.9425 35.4155 96.2937C35.3142 95.7767 35.1678 95.2696 34.9778 94.7782C34.7688 94.4124 34.2462 94.125 33.9 93.8311C32.8718 92.867 32.0168 91.7336 31.3721 90.4801C29.5758 87.41 28.191 82.3607 29.5431 77.6576C29.9714 76.2236 30.6097 74.861 31.4374 73.6142C31.7118 73.2092 31.8751 72.667 32.1298 72.3535C32.645 71.8774 33.1953 71.4407 33.7759 71.0471C35.5354 69.6949 37.5578 68.7249 39.7136 68.1991C42.9013 67.3825 46.8206 67.7222 50.8182 67.8202C53.9798 59.041 60.1657 53.3777 70.3101 51.5683C71.8688 51.2395 73.4536 51.0494 75.0458 51C77.6436 51.0443 80.1953 51.6929 82.499 52.8943C84.506 53.8996 86.3928 55.129 88.1231 56.5588C91.5917 59.446 93.2574 63.8226 94.6553 68.6237C99.1102 70.9491 103.252 73.9669 104.891 79.3036C106.851 85.6006 104.323 91.7147 100.534 94.3994C100.129 97.2343 98.163 99.0437 96.236 100.461C94.3539 101.774 92.0774 102.399 89.7888 102.231C87.6573 102.079 85.6467 101.184 84.1059 99.7035C82.5501 98.3663 81.4478 96.5792 80.9509 94.5888ZM104.519 84.9866C105.041 77.1154 100.404 73.1177 95.6743 70.3939C95.0211 70.0019 93.9367 69.6361 93.6493 69.0874C93.4776 68.5302 93.3509 67.9601 93.2704 67.3825C92.0097 62.9995 89.7039 58.8908 86.3856 56.5131C83.1783 54.2334 78.3903 51.7577 72.74 52.2803C62.2886 53.2536 56.0374 58.4009 52.5884 66.1806C52.0855 67.3042 51.798 68.6694 51.1971 69.721C49.8907 71.9877 46.5397 72.8107 43.3586 73.1308C39.7906 73.485 36.2038 73.6116 32.6198 73.5097C30.6601 76.0637 29.5562 80.0026 30.1571 84.2485C30.6012 87.2616 31.8925 90.0866 33.8804 92.394C34.0895 92.6357 34.3312 93.0799 34.7035 93.0472C34.7035 89.7812 35.5788 87.4688 37.1661 85.6594C38.7864 83.7222 41.1005 82.496 43.6133 82.2431C45.0442 82.1396 46.4779 82.4003 47.7808 83.0008C51.6478 84.7057 54.3129 88.2853 54.6656 93.3673H56.4946C56.5665 86.7633 56.8147 79.9961 56.9388 73.5293C56.8813 71.5012 57.1369 69.4764 57.6965 67.5262C58.8266 64.2602 61.4264 62.1438 64.1437 60.452C65.5483 59.5476 67.0278 58.7652 68.566 58.1135C70.3154 57.3241 72.206 56.8953 74.1248 56.8528C78.6973 56.9181 82.4075 59.3872 84.8636 61.6539C87.0127 63.6135 88.711 65.5731 89.3446 68.8392C89.5014 70.0141 89.5014 71.2047 89.3446 72.3796C89.2075 75.6457 89.7758 78.9574 89.5994 82.6742C96.3014 82.8963 100.528 86.4041 100.593 93.2236C102.887 91.0663 104.288 88.127 104.519 84.9866ZM73.0535 59.4003C73.5254 58.9045 73.962 58.3763 74.36 57.8195C73.5304 57.8979 72.8315 58.4662 73.0535 59.4003ZM70.715 58.329C67.7222 59.3196 64.9304 60.8371 62.4715 62.8101C59.9959 64.7697 58.0101 67.3238 57.8598 71.0275C62.5695 71.1581 67.2073 71.0275 72.0084 71.0863C71.9692 66.6901 72.1913 62.2156 72.1978 58.0743C71.6966 58.1115 71.2 58.1968 70.715 58.329ZM75.4574 58.1984C75.5684 62.4247 75.6011 66.7293 75.5815 71.0863C79.7947 71.3345 84.426 71.1777 88.7241 71.341C88.8351 67.376 86.7318 64.5933 84.426 62.4965C82.1201 60.3997 79.037 58.4205 75.5227 58.009C75.4443 58.022 75.4508 58.1135 75.4574 58.1984ZM72.9948 61.1052C73.4912 60.452 74.9217 59.7988 74.6343 58.329C74.164 59.335 72.9229 59.5309 72.9948 61.1052ZM73.0535 62.9407C73.4977 61.9282 74.9544 61.5951 74.6343 60.0339C74.2293 61.0725 72.7269 61.3665 73.0535 62.9603V62.9407ZM73.0535 64.6456C73.5696 63.7311 74.974 63.3392 74.6343 61.8041C74.1575 62.7578 72.8184 63.1824 73.0535 64.6456ZM73.1189 66.2264C73.5435 65.3641 74.8434 65.0441 74.569 63.6984C74.0595 64.43 72.6551 65.3184 73.1189 66.2264ZM72.9948 67.9312C73.6088 67.18 74.8825 66.7489 74.569 65.2792C74.0856 66.1806 72.8707 66.6183 72.9948 67.9312ZM73.0535 69.5708C73.5382 68.9851 74.0667 68.437 74.6343 67.9312C74.5951 67.6569 74.7192 67.2127 74.569 67.0429C74.1379 67.9182 72.7988 68.2187 73.0535 69.5708ZM33.5734 72.5429C35.0301 72.9283 35.0954 71.537 36.1863 71.341C36.1863 71.4324 36.2908 71.4455 36.3169 71.5304C36.3169 72.0334 35.3044 72.2359 35.4939 72.5429C36.5455 72.6278 36.7285 71.2365 37.5776 71.5304C37.5384 72.0595 37.0616 72.151 36.8199 72.4776C38.2243 72.6801 38.2439 71.5043 39.2237 71.2757C39.2237 71.3671 39.3217 71.3867 39.3478 71.4651C39.2564 71.9681 38.7534 72.053 38.5248 72.4123H39.2237C39.8769 72.0987 40.3864 70.7531 41.1834 71.2169C41.0266 71.6742 40.1056 72.0269 40.2362 72.3535C41.621 72.4972 41.7908 70.8054 42.7641 70.9621C42.9797 71.55 41.7778 71.8962 41.9411 72.2228C43.339 72.3535 43.4696 70.5572 44.5997 70.838C44.4168 71.4129 43.855 71.6088 43.5219 72.0334C45.377 72.249 45.4227 70.3416 46.7422 70.3285C46.7422 71.0928 45.5664 71.3345 45.6709 71.7852C46.1151 71.5631 46.507 71.7003 46.8728 71.5304C47.526 71.23 47.6893 70.224 48.4536 70.3285C48.6234 70.7792 47.9245 70.9817 48.1988 71.0863C49.355 70.5376 50.4916 69.9693 50.8117 68.5583C43.6002 68.2317 36.9179 68.8392 33.5734 72.5429ZM72.9948 70.6486C73.452 70.2175 74.7911 69.7929 74.569 68.689C74.0791 69.3748 73.2626 69.7341 72.9948 70.6486ZM73.3736 71.1516H74.6343C74.5951 70.7923 74.7192 70.2697 74.569 70.015C74.2293 70.4657 73.7133 70.7139 73.3736 71.1516ZM57.6965 72.0334C57.7488 79.271 57.6182 86.3126 57.5071 93.3869C65.3456 93.4522 73.1058 93.5829 80.7549 93.8311C80.2715 87.4688 84.021 84.2942 88.6522 82.6481C88.5543 79.271 88.6 75.7567 88.5869 72.2882C78.2792 72.1771 67.9454 72.0857 57.7619 71.844C57.6965 71.857 57.6965 71.9485 57.7031 72.0334H57.6965ZM40.3864 84.2289C38.9446 85.0396 37.7385 86.2114 36.8864 87.6292C36.0344 89.047 35.5658 90.662 35.5265 92.3156C35.4832 94.0299 35.9369 95.72 36.833 97.1821C38.675 100.089 43.3651 102.114 47.6959 100.592C49.7234 99.7364 51.4576 98.3086 52.6864 96.4831C53.4085 95.2895 53.7205 93.8925 53.5748 92.5051C53.2394 90.1855 52.2773 88.0015 50.7921 86.1885C49.3812 84.758 46.5985 82.9551 43.5284 83.2817C42.4274 83.3688 41.358 83.6918 40.393 84.2289H40.3864ZM85.8761 84.8821C85.0347 85.4321 84.2871 86.1135 83.6617 86.9005C82.4617 88.4925 81.7595 90.4038 81.6433 92.394C81.6433 97.3715 86.0329 101.382 90.5466 101.304C92.3479 101.268 94.1018 100.72 95.6024 99.723C97.0917 98.6583 98.6333 97.0253 99.2016 95.4902C99.7446 93.6571 99.7446 91.7058 99.2016 89.8726C98.6225 87.9844 97.3908 86.3636 95.7265 85.3001C93.87 84.038 91.6521 83.4164 89.41 83.5299C88.1407 83.6698 86.9273 84.1282 85.8826 84.8625L85.8761 84.8821Z" fill="white"/>
</g>
</svg>
