<svg width="19" height="19" fill="none" xmlns="http://www.w3.org/2000/svg"><path d="M10.831 3.513v1.849c0 .246.125.452.333.575a.645.645 0 00.665 0 .707.707 0 01.354-.103c.395 0 .727.329.727.72 0 .39-.332.718-.727.718a.707.707 0 01-.354-.103.645.645 0 00-.665 0 .654.654 0 00-.333.576v3.163H8.794c-.02 0-.02 0-.041-.02v-.042a1.57 1.57 0 00.166-.698c0-.822-.686-1.5-1.518-1.5-.52 0-.956.247-1.247.637a.383.383 0 00.042-.164.664.664 0 00-.25-.596.775.775 0 01-.25-.329.855.855 0 01-.02-.677.862.862 0 01.478-.493c.125-.041.229-.083.354-.083a.91.91 0 01.831.535.91.91 0 01.083.41.6.6 0 00.291.575c.187.124.437.165.645.062l2.453-1.068-1.539-3.45v-.042c.021-.02.021-.02.042-.02.229.02.478 0 .686-.103a1.319 1.319 0 00.686-1.767 1.336 1.336 0 00-1.227-.8c-.187 0-.374.04-.54.102-.208.103-.416.246-.54.431-.021.041-.021.041-.042.041-.02 0-.02 0-.042-.02L7.547.145l-7.4 3.204 3.242 7.333 2.433-1.068a.723.723 0 00.249-.185 1.573 1.573 0 00-.166.698c0 .247.062.473.166.699v.04c0 .021-.02.021-.042.021H3.37v8.011h15.549V3.493H10.83v.02zM5.572 9.06l-1.87.801L.956 3.678 7.235.946l.499 1.13c.104.225.291.37.54.39.25.02.479-.083.603-.267a.624.624 0 01.291-.226.725.725 0 01.956.37c.167.37 0 .78-.374.944a1.19 1.19 0 01-.374.062.652.652 0 00-.603.267.674.674 0 00-.083.657L9.98 7.15l-1.872.821h-.02c-.021-.02-.021-.02-.021-.04a1.36 1.36 0 00-.125-.699 1.52 1.52 0 00-1.996-.78 1.504 1.504 0 00-.81.821c-.146.37-.146.78.02 1.15.104.226.25.411.437.575.02.021.02.021.02.042-.02 0-.02.02-.04.02zm5.883-1.314c0-.021 0-.021.02-.042.022-.02.022 0 .042 0 .208.124.437.185.686.185a1.34 1.34 0 001.352-1.335 1.34 1.34 0 00-1.352-1.335 1.38 1.38 0 00-.686.185h-.041c-.021 0-.021-.02-.021-.041V4.129h6.818v6.779h-2.14c-.021 0-.021 0-.042-.02v-.042c.02-.02.02-.062.041-.082.167-.246.27-.534.27-.842 0-.822-.665-1.48-1.496-1.48-.832 0-1.497.658-1.497 1.48 0 .308.083.595.27.842.021.02.042.062.042.082v.041c0 .02-.02.02-.042.02h-2.224V7.746zM3.992 18.282v-6.779H6.03a.657.657 0 00.562-.308.635.635 0 00.02-.636.926.926 0 01-.103-.411c0-.493.394-.883.893-.883.5 0 .915.39.915.883a.926.926 0 01-.104.41.633.633 0 00.02.637.637.637 0 00.562.308h2.017v2.527c0 .02-.021.041-.042.041h-.02a.493.493 0 01-.333-.103 1.548 1.548 0 00-.853-.267c-.831 0-1.496.658-1.496 1.48 0 .82.665 1.478 1.496 1.478a1.4 1.4 0 00.853-.267.634.634 0 01.332-.103h.021c.02 0 .042.02.042.041v1.952h-6.82zm14.281 0h-6.839v-1.91a.653.653 0 00-.665-.658h-.02c-.25 0-.479.062-.666.206a.836.836 0 01-.499.143.873.873 0 01-.873-.862c0-.473.395-.863.873-.863.187 0 .354.062.499.144.208.144.437.205.665.205h.021a.653.653 0 00.665-.657v-2.506h2.225a.684.684 0 00.56-.308.638.638 0 00.042-.637c-.02-.041-.062-.103-.083-.164a.812.812 0 01-.145-.493.873.873 0 011.746 0 .98.98 0 01-.146.493c-.041.061-.062.103-.083.144a.688.688 0 00.021.636.637.637 0 00.561.308h2.162l-.02 6.779z" fill="#222"/><path d="M19 19H3.264v-8.216h.062L0 3.307 7.608 0l.749 1.684a1.64 1.64 0 01.52-.39 1.41 1.41 0 01.581-.123c.582 0 1.102.328 1.33.863.167.349.167.739.022 1.088a1.53 1.53 0 01-.77.801 1.712 1.712 0 01-.644.123l1.455 3.266a.63.63 0 01.27-.246.74.74 0 01.77 0 .592.592 0 00.311.082.609.609 0 00.624-.616c0-.35-.27-.616-.624-.616a.592.592 0 00-.311.082.74.74 0 01-.77 0 .759.759 0 01-.395-.657V3.389H19V19zm-8.086-.205h7.899V3.615h-7.879v1.746a.5.5 0 00.291.473.55.55 0 00.562 0 .737.737 0 01.415-.103.83.83 0 01.832.821.83.83 0 01-.832.822.955.955 0 01-.415-.103.55.55 0 00-.562 0c-.166.103-.29.288-.29.473v3.266H8.813c-.062 0-.104-.02-.125-.062a.174.174 0 010-.144 1.45 1.45 0 00.167-.636c0-.781-.645-1.397-1.414-1.397-.457 0-.894.226-1.143.595l-.063.083-.041.082a1.468 1.468 0 00-.167.657c0 .226.063.452.167.637a.18.18 0 010 .144c-.021.04-.063.061-.125.061H3.472v7.806l7.442-.041zm-7.526-7.99h2.537a1.78 1.78 0 01-.146-.658v-.185l-.042.062L5.8 9.9c0-.062.02-.124.041-.165l-2.453 1.068zm5.51 0h1.829V7.743c0-.041 0-.082.02-.144L8.42 8.606a.952.952 0 01-.333.062 1.612 1.612 0 01.811 2.136zM.27 3.41l3.18 7.148L5.78 9.55a.747.747 0 00.208-.143l.062-.083.021-.082c.02-.04.02-.082.042-.144a.557.557 0 00-.208-.513 1.006 1.006 0 01-.291-.37 1.065 1.065 0 01-.021-.76c.104-.246.29-.452.54-.554a.91.91 0 01.395-.083c.395 0 .77.226.915.596a1.2 1.2 0 01.083.473c-.02.205.083.37.229.493a.634.634 0 00.54.061l2.329-1.006-1.497-3.369c.02-.082.02-.123.062-.164.042-.062.104-.062.125-.062.229.02.457 0 .644-.103.312-.123.54-.37.665-.677a1.24 1.24 0 00-.02-.945 1.25 1.25 0 00-1.144-.74 1.43 1.43 0 00-.498.103 1.175 1.175 0 00-.5.39c-.041.062-.103.062-.124.062a.14.14 0 01-.125-.082L7.504.267.27 3.41zm6.278 3.615a.773.773 0 00-.728.493.666.666 0 00.021.596c.063.123.125.225.229.287.166.123.27.329.291.514.02-.02.062-.041.083-.083l.187-.226-.083.144a1.66 1.66 0 011.164-.246c-.02 0-.02-.02-.041-.02a.756.756 0 01-.333-.679c0-.123-.02-.246-.062-.37a.859.859 0 00-.728-.41zm11.828 11.359h-7.068V16.37a.556.556 0 00-.56-.555h-.021a1.11 1.11 0 00-.624.185 1.054 1.054 0 01-.561.164.97.97 0 01-.977-.965.97.97 0 01.977-.965c.207 0 .395.061.56.164.188.123.396.185.624.185h.021a.556.556 0 00.562-.555V11.42h2.328a.551.551 0 00.499-.801c-.021-.042-.042-.103-.083-.144a1.025 1.025 0 01-.167-.555.97.97 0 01.977-.965.97.97 0 01.977.965c0 .206-.062.39-.166.555-.042.04-.062.102-.083.143a.551.551 0 00.499.801h2.266v6.964h.02zm-6.839-.206h6.652v-6.573h-2.058a.751.751 0 01-.665-.37.726.726 0 01-.041-.739c.02-.061.062-.103.103-.164a.753.753 0 00.125-.431.763.763 0 00-.769-.76.777.777 0 00-.77.76.74.74 0 00.126.43c.041.063.062.124.104.165a.726.726 0 01-.042.74.77.77 0 01-.665.37h-2.1v2.403c0 .41-.353.76-.769.76h-.02c-.271 0-.52-.082-.728-.226a.775.775 0 00-.437-.123.763.763 0 00-.769.76c0 .41.353.76.77.76a.775.775 0 00.436-.124 1.32 1.32 0 01.727-.226h.021c.416 0 .77.35.77.76v1.828zm-.623.206H3.887V11.4h2.141a.551.551 0 00.479-.267.582.582 0 00.02-.555.853.853 0 01-.104-.451c0-.555.458-.986.998-.986a.992.992 0 01.894 1.437.586.586 0 00.02.555.578.578 0 00.479.267h2.1v2.63a.141.141 0 01-.146.143h-.02a.585.585 0 01-.375-.123 1.334 1.334 0 00-.79-.247c-.769 0-1.393.616-1.393 1.377 0 .76.624 1.376 1.393 1.376.291 0 .561-.082.79-.247a.676.676 0 01.374-.123h.021c.083 0 .146.062.146.144v2.054zm-6.819-.206h6.61v-1.746a.35.35 0 00-.228.083c-.27.184-.582.267-.915.267-.894 0-1.6-.72-1.6-1.582 0-.883.727-1.582 1.6-1.582.333 0 .645.103.915.267.083.042.146.083.229.083v-2.342H8.814a.796.796 0 01-.665-.37.726.726 0 01-.021-.74.697.697 0 00.083-.369.785.785 0 00-.79-.78.785.785 0 00-.79.78c0 .123.021.246.083.37a.726.726 0 01-.02.74.796.796 0 01-.666.369H4.095v6.552zm14.281-7.168h-2.245c-.062 0-.104-.02-.124-.062-.021-.041-.042-.103 0-.144.02-.02.041-.061.062-.082.166-.226.25-.493.25-.78 0-.76-.624-1.377-1.393-1.377-.77 0-1.393.617-1.393 1.377 0 .287.083.554.25.78.02.041.04.062.062.103a.18.18 0 010 .144.114.114 0 01-.104.061h-2.329V7.744c0-.062.021-.103.084-.123a.18.18 0 01.145 0c.187.102.395.164.624.164.686 0 1.247-.555 1.247-1.233 0-.677-.561-1.232-1.247-1.232a1.29 1.29 0 00-.624.164.18.18 0 01-.145 0c-.042-.02-.084-.061-.084-.123V4.026h7.027v6.984h-.063zm-3.492-2.67c.894 0 1.6.718 1.6 1.581 0 .308-.083.616-.27.883h1.934V4.231h-6.59v1.027c.208-.102.416-.143.644-.143a1.438 1.438 0 110 2.875c-.228 0-.436-.04-.644-.144v2.958h1.996a1.64 1.64 0 01-.27-.883c0-.883.727-1.582 1.6-1.582zM3.659 10.002L.832 3.615 7.276.822l.54 1.212c.083.184.25.308.458.328a.566.566 0 00.52-.226.832.832 0 01.332-.267.952.952 0 01.332-.061.84.84 0 01.77.493c.187.41 0 .903-.437 1.088a.74.74 0 01-.416.062.566.566 0 00-.52.226.536.536 0 00-.062.554l1.33 2.958-2.016.863c-.02 0-.062 0-.083-.02-.042-.021-.062-.083-.062-.124a1.21 1.21 0 00-.125-.657 1.414 1.414 0 00-1.31-.842c-.187 0-.395.04-.56.123a1.326 1.326 0 00-.75.78c-.145.35-.124.74.022 1.069.083.205.228.39.415.534.042.04.063.082.063.123 0 .061-.042.103-.084.123l-1.974.842zM1.102 3.718l2.66 6.018 1.684-.719a1.44 1.44 0 01-.395-.534 1.584 1.584 0 01-.02-1.232c.166-.39.457-.72.852-.883.208-.083.436-.144.644-.144.645 0 1.227.37 1.497.965.083.206.146.432.146.657l1.683-.718-1.247-2.794a.77.77 0 01.083-.76.791.791 0 01.707-.308.55.55 0 00.312-.041c.312-.144.457-.493.312-.801a.633.633 0 00-.562-.37.559.559 0 00-.249.062.484.484 0 00-.25.205.791.791 0 01-.706.308.757.757 0 01-.624-.452L7.172 1.15l-6.07 2.568z" fill="#222"/></svg>