<svg width="19" height="19" viewBox="0 0 19 19" fill="none" xmlns="http://www.w3.org/2000/svg">
<g clip-path="url(#clip0_252_6345)">
<path d="M9.2759 3.52243C9.30992 3.27943 9.33665 3.03643 9.38039 2.79587C9.39983 2.7011 9.45086 2.60633 9.50432 2.52128C9.7133 2.20052 10.0802 2.16164 10.3524 2.4338C10.5662 2.64764 10.6707 2.91737 10.712 3.21139C10.7558 3.50785 10.7728 3.80674 10.8384 4.09591C10.9453 4.56732 11.3195 4.84677 11.7788 4.82004C12.0971 4.8006 12.345 4.63536 12.5539 4.4118C12.9233 4.01815 13.0521 3.51514 13.1663 3.00727C13.2635 2.58203 13.351 2.15435 13.4822 1.74126C13.6183 1.31358 13.8759 0.963663 14.2865 0.747395C14.809 0.472807 15.4165 0.720665 15.5793 1.26984C15.6449 1.49583 15.6157 1.71696 15.5525 1.93808C15.4286 2.3852 15.1637 2.75213 14.8989 3.11905C14.5319 3.62692 14.1602 4.13478 13.9245 4.72284C13.7349 5.19669 13.662 5.68997 13.7544 6.19541C13.8661 6.80776 14.2525 7.22329 14.7798 7.50516C15.188 7.72386 15.6206 7.89882 16.041 8.09808C16.544 8.33622 16.9838 8.64968 17.2341 9.17213C17.4528 9.62654 17.3702 10.1854 17.03 10.5086C16.7967 10.7297 16.5027 10.8026 16.1941 10.8172C15.8466 10.8342 15.4991 10.8294 15.1516 10.8464C14.8527 10.861 14.5635 10.9266 14.3375 11.1428C14.0265 11.4393 13.9852 11.8111 14.0727 12.2072C14.1747 12.6689 14.4372 13.0309 14.7968 13.3274C15.188 13.653 15.6011 13.9568 15.9681 14.3067C16.3471 14.6663 16.5294 15.128 16.4954 15.665C16.4662 16.1121 16.0896 16.4864 15.6424 16.5058C15.0495 16.5325 14.5903 16.2701 14.2403 15.8205C13.9925 15.5022 13.7811 15.1547 13.5527 14.8218C13.3656 14.5472 13.1784 14.2727 12.9087 14.071C12.7411 13.9446 12.5588 13.8571 12.3425 13.8547C11.9173 13.8523 11.6233 14.1949 11.7253 14.6104C11.7982 14.9117 11.927 15.1985 12.0072 15.4974C12.0509 15.6602 12.0874 15.8448 12.0582 16.0077C11.9805 16.4596 11.4775 16.6638 11.0741 16.4232C10.8675 16.3017 10.7047 16.134 10.593 15.9202C10.4131 15.5703 10.1337 15.3589 9.74003 15.3224C9.63068 15.3127 9.50918 15.32 9.40712 15.354C9.23945 15.4099 9.07421 15.4828 8.92113 15.5703C8.64411 15.7258 8.57364 15.9979 8.55177 16.292C8.53719 16.4937 8.5299 16.6953 8.50074 16.8946C8.46186 17.1595 8.29176 17.3466 8.04876 17.3879C7.79362 17.4316 7.58707 17.3344 7.43641 17.1279C7.2007 16.8023 7.16182 16.4305 7.17883 16.0417C7.19584 15.6359 7.25659 15.2252 7.09378 14.8315C7.01845 14.6493 6.91882 14.4865 6.75116 14.3723C6.51545 14.2143 6.22628 14.2216 6.02702 14.4257C5.8715 14.5837 5.75 14.7708 5.6115 14.9458C5.48028 15.1086 5.35878 15.2835 5.21055 15.4293C4.98213 15.6529 4.69539 15.6553 4.49614 15.4585C4.27987 15.2471 4.26772 14.9263 4.46941 14.6906C4.72941 14.3869 4.96026 14.0685 5.04531 13.6652C5.12307 13.2837 5.07933 12.9289 4.81689 12.6276C4.38679 12.1294 3.65536 12.1707 3.23741 12.7005C3.00899 12.9921 2.87291 13.3274 2.74898 13.67C2.62748 14.0054 2.50841 14.3431 2.28486 14.6274C2.08317 14.8826 1.8426 15.0745 1.49511 15.0916C0.972668 15.1159 0.678641 14.6687 0.74182 14.1998C0.80014 13.7648 1.04557 13.4513 1.39548 13.2229C1.90092 12.89 2.42337 12.579 2.94095 12.2606C3.17909 12.1148 3.42452 11.9788 3.65293 11.8208C3.93967 11.6215 4.10734 11.3445 4.11706 10.9849C4.12435 10.686 3.97369 10.477 3.73069 10.3312C3.42452 10.1466 3.09161 10.132 2.75627 10.2267C2.41365 10.3215 2.08074 10.4503 1.74054 10.5524C1.44165 10.6423 1.13548 10.6617 0.834159 10.5572C0.343304 10.3871 0.100306 9.83308 0.292274 9.32279C0.452653 8.89754 0.7807 8.63753 1.18165 8.46015C1.53156 8.30463 1.90821 8.24631 2.28486 8.19042C2.77814 8.11752 3.269 8.03976 3.70396 7.77489C4.12921 7.51488 4.38679 7.13095 4.41838 6.63766C4.44754 6.15896 4.41352 5.67782 4.41109 5.19669C4.40866 4.79817 4.42567 4.40208 4.60792 4.03759C5.00643 3.23326 6.01244 3.02914 6.71714 3.62206C6.97714 3.84076 7.20799 4.09105 7.45585 4.32675C7.70128 4.5576 7.98072 4.7277 8.31606 4.79574C8.81664 4.8978 9.23459 4.59891 9.28562 4.08619C9.30506 3.89665 9.30992 3.70711 9.32207 3.51757C9.30263 3.52729 9.28805 3.52486 9.2759 3.52243ZM10.9502 5.36678C10.9647 5.3765 10.9793 5.38622 10.9939 5.39594C11.0401 5.45183 11.0814 5.51015 11.13 5.56604C11.4119 5.87951 11.6306 6.227 11.7448 6.63766C11.8687 7.08478 11.7448 7.44198 11.3657 7.68984C11.3074 7.72629 11.2976 7.76031 11.3098 7.82835C11.3511 8.05191 11.3778 8.27547 11.3122 8.50146C11.3025 8.53304 11.3292 8.5865 11.3535 8.61323C11.5552 8.84408 11.7156 9.09923 11.8177 9.3884C11.9416 9.7456 12.0266 10.1052 11.9878 10.4916C11.9343 11.0213 11.6476 11.4612 11.458 11.9374C11.4459 11.9715 11.4216 12.0006 11.3973 12.0274C11.2588 12.1853 11.1203 12.3433 10.9769 12.4963C10.9283 12.5474 10.9113 12.5911 10.921 12.6664C10.9502 12.8608 10.9817 13.0601 10.9769 13.2545C10.9623 13.8158 10.4569 14.1827 9.99032 14.0807C9.87368 14.0564 9.7619 14.0151 9.63311 13.9762C9.63311 14.1876 9.63311 14.3942 9.63311 14.6031C9.6404 14.6056 9.64769 14.6104 9.65498 14.6129C9.66713 14.6153 9.67928 14.6153 9.69143 14.6177C10.3524 14.6566 10.8505 14.9579 11.181 15.5338C11.2175 15.5994 11.2685 15.6553 11.3147 15.7161C11.3219 15.7258 11.3268 15.7331 11.3341 15.7428C11.3317 15.7306 11.3292 15.7185 11.3268 15.7063C11.3001 15.6213 11.2782 15.5362 11.2442 15.4536C11.1081 15.1061 10.9793 14.7586 11.006 14.3747C11.0303 14.0029 11.1786 13.6919 11.4629 13.4586C11.9392 13.0674 12.6171 13.0504 13.1736 13.4003C13.4846 13.5947 13.7325 13.8547 13.939 14.1512C14.199 14.5229 14.442 14.9044 14.702 15.2762C14.8624 15.5071 15.0617 15.6942 15.3387 15.7768C15.4675 15.8157 15.6109 15.857 15.7202 15.7574C15.8368 15.6529 15.8053 15.5022 15.7785 15.3686C15.7032 14.9944 15.4432 14.7514 15.1662 14.5229C14.7944 14.2143 14.3983 13.9276 14.0557 13.585C13.5672 13.099 13.3194 12.4939 13.3364 11.7916C13.3534 11.1501 13.7568 10.5596 14.3473 10.3142C14.702 10.166 15.0738 10.1393 15.4505 10.1247C15.7372 10.115 16.024 10.115 16.3107 10.0931C16.5415 10.0761 16.6557 9.94729 16.6412 9.71644C16.6339 9.60466 16.5974 9.4856 16.544 9.38597C16.437 9.18428 16.2694 9.03119 16.0701 8.9267C15.7761 8.77361 15.4796 8.62538 15.1759 8.49417C14.6024 8.24388 14.0484 7.96443 13.6256 7.48329C13.2513 7.05805 13.0594 6.55747 13.0205 5.99615C12.9962 5.61707 13.0424 5.24528 13.125 4.87836C13.1274 4.86621 13.1274 4.85163 13.1298 4.83948C13.125 4.8492 13.1177 4.85892 13.1128 4.86621C13.0885 4.88808 13.0642 4.90995 13.0424 4.93182C12.4567 5.498 11.7909 5.70455 11.0109 5.3765C10.9939 5.36921 10.9793 5.35949 10.9623 5.3522C10.9502 5.34734 10.938 5.34491 10.9259 5.34005C10.9331 5.34977 10.9404 5.35706 10.9502 5.36678ZM7.5895 14.2192C7.52389 14.1317 7.52875 13.9835 7.35379 13.9592C7.43884 14.0612 7.50688 14.1463 7.57735 14.2289C7.87138 14.7222 7.95886 15.2592 7.90054 15.8254C7.94671 15.7306 7.98073 15.6359 8.02446 15.546C8.07063 15.4536 8.13138 15.3661 8.18241 15.2787C7.91269 14.9846 7.86409 14.8753 7.82278 14.4938C7.81792 14.4549 7.79362 14.4112 7.76689 14.382C7.711 14.3237 7.64782 14.2727 7.5895 14.2192ZM10.6877 5.18939C10.6974 5.19426 10.7072 5.20154 10.7169 5.20641C10.7169 5.20641 10.7217 5.20154 10.7242 5.19911C10.7144 5.19425 10.7047 5.18696 10.695 5.18211C10.6902 5.17239 10.6877 5.15781 10.6804 5.15052C10.3767 4.89051 10.2042 4.55274 10.1288 4.16637C10.0802 3.91366 10.0535 3.65608 10.0268 3.47869C10.0073 3.71197 10 4.02301 9.95387 4.32918C9.90527 4.64265 9.74489 4.90995 9.52619 5.1408C9.52376 5.14323 9.52376 5.14566 9.52133 5.14809C9.52133 5.14566 9.52376 5.1408 9.52376 5.13837C9.57965 5.13594 9.63554 5.13594 9.69143 5.13351C10.0243 5.10435 10.3597 5.07276 10.6877 5.18939ZM8.57121 5.54417C8.4084 5.52473 8.26017 5.51744 8.1168 5.48585C7.62595 5.38136 7.225 5.1165 6.87508 4.76658C6.6734 4.56246 6.47171 4.35591 6.25301 4.17123C5.84234 3.82861 5.29803 4.00843 5.17896 4.53087C5.12793 4.752 5.12793 4.98771 5.1255 5.21613C5.11821 5.71184 5.15709 6.21242 5.11821 6.7057C5.06718 7.33993 4.78287 7.87209 4.258 8.25846C3.74527 8.63996 3.1475 8.77847 2.53271 8.88053C2.19009 8.93642 1.84989 9.00932 1.51698 9.09437C1.30072 9.15026 1.12576 9.28634 0.999398 9.47588C0.931358 9.58037 0.907059 9.69458 0.962948 9.80878C1.01641 9.9157 1.12576 9.92785 1.22539 9.91813C1.37604 9.90355 1.52913 9.87925 1.67493 9.83551C1.93494 9.75775 2.18523 9.65326 2.44523 9.57551C3.12563 9.37139 3.76957 9.42971 4.32847 9.90355C4.69539 10.2146 4.86792 10.6277 4.81203 11.1113C4.79016 11.3057 4.73427 11.4952 4.69053 11.6896C5.54103 12.0954 5.86907 12.7952 5.7573 13.7453C6.10235 13.5485 6.4547 13.5242 6.84593 13.6238C6.69041 13.3663 6.66611 13.1233 6.70742 12.8657C6.72929 12.7199 6.73172 12.5692 6.75602 12.4234C6.78275 12.2655 6.79733 12.0954 6.87022 11.9593C6.96013 11.7892 7.01845 11.6264 6.99901 11.4344C6.99901 11.4296 7.00873 11.4247 7.02331 11.4126C7.13752 11.5729 7.25416 11.5171 7.36837 11.4077C7.39024 11.3858 7.42183 11.3713 7.45099 11.3567C7.82278 11.1356 8.19456 10.9169 8.58336 10.686C8.40354 10.618 8.24559 10.5621 8.08521 10.5013C8.05362 10.5499 8.02689 10.5961 7.99773 10.6398C7.77661 10.9606 7.40482 11.1283 7.07677 11.0529C6.72443 10.9727 6.48386 10.6884 6.41096 10.2875C6.34778 9.92542 6.42068 9.59009 6.58349 9.2669C6.66368 9.10409 6.65153 8.951 6.5519 8.80034C6.40124 8.56949 6.33563 8.31921 6.38423 8.03976C6.42554 7.80405 6.54218 7.60965 6.6734 7.42011C6.74144 7.32049 6.80462 7.216 6.85321 7.10665C7.02088 6.74458 7.23472 6.42139 7.57492 6.19784C7.71586 6.1055 7.85437 6.00587 7.99773 5.9111C8.18484 5.79203 8.37438 5.67296 8.57121 5.54417ZM8.6514 8.33622C8.68785 8.23173 8.73402 8.13453 8.75103 8.03247C8.76804 7.92555 8.82636 7.85994 8.90169 7.79676C8.93571 7.77003 8.96487 7.73358 9.00375 7.71171C9.14711 7.63152 9.28805 7.54647 9.43628 7.47844C9.54077 7.42984 9.65741 7.4031 9.76919 7.37152C9.91985 7.33021 10.0705 7.27675 10.2236 7.25488C10.3913 7.22815 10.4739 7.33507 10.4301 7.5003C10.3767 7.70199 10.3159 7.90368 10.26 8.1078C10.2357 8.19771 10.2479 8.28519 10.3378 8.3265C10.4058 8.35809 10.5128 8.3994 10.5541 8.37024C10.6075 8.33379 10.6173 8.2293 10.6391 8.15154C10.6464 8.12724 10.6294 8.09565 10.627 8.06892C10.6075 7.8405 10.5832 7.61208 10.5687 7.38124C10.5614 7.27432 10.6002 7.19413 10.7266 7.18198C10.7849 7.17712 10.8457 7.15525 10.9016 7.13095C11.0814 7.05805 11.1105 6.99001 11.0546 6.80047C10.9477 6.43111 10.7169 6.14195 10.4472 5.87951C10.4156 5.84792 10.3621 5.82119 10.3184 5.81876C9.91256 5.80175 9.50675 5.80418 9.14468 6.03017C8.76804 6.26588 8.39382 6.50887 8.0196 6.74701C7.83736 6.86122 7.69399 7.01188 7.59679 7.20385C7.468 7.46142 7.36108 7.72872 7.16911 7.94742C7.14238 7.97658 7.1278 8.01789 7.11322 8.05434C7.04275 8.21229 7.06705 8.3265 7.18369 8.45286C7.22257 8.4966 7.27117 8.54763 7.28089 8.60108C7.34893 8.95586 7.41454 9.31307 7.18855 9.64112C7.16425 9.67757 7.15453 9.72373 7.13995 9.76504C7.08649 9.91813 7.07434 10.0737 7.12051 10.2292C7.16425 10.3774 7.26388 10.4017 7.3708 10.2899C7.45828 10.1976 7.49716 10.0834 7.48744 9.95701C7.47529 9.77962 7.45828 9.60223 7.45099 9.42485C7.44613 9.33494 7.46071 9.24503 7.46557 9.15512C7.48258 9.14783 7.49716 9.14054 7.51417 9.13082C7.53604 9.16484 7.55305 9.20372 7.58221 9.23045C7.70614 9.35195 7.82764 9.47831 7.96372 9.58523C8.22615 9.7942 8.51775 9.95215 8.85309 10.008C9.05478 10.0421 9.26132 10.0542 9.46787 10.0688C9.64283 10.0809 9.76676 10.1514 9.82994 10.3215C9.89312 10.4916 9.83966 10.6253 9.70844 10.7297C9.49703 10.8974 9.28319 11.0651 9.06207 11.2206C8.87496 11.3494 8.6757 11.4587 8.4813 11.5754C8.21157 11.7382 7.93699 11.8961 7.67455 12.0687C7.53604 12.161 7.4194 12.3019 7.46557 12.4769C7.50931 12.6446 7.45828 12.7831 7.42426 12.9337C7.40968 12.9969 7.40968 13.0625 7.40482 13.1257C7.39996 13.2132 7.45342 13.2618 7.53361 13.2764C7.62109 13.2934 7.65997 13.2326 7.67941 13.1622C7.70128 13.0771 7.71343 12.9896 7.73044 12.8973C7.91269 13.0164 8.08764 13.133 8.26746 13.2521C8.25531 13.2812 8.2383 13.3128 8.22858 13.3468C8.19699 13.4586 8.16054 13.5704 8.13867 13.6846C8.12409 13.7648 8.16054 13.8255 8.25045 13.8425C8.35008 13.862 8.38167 13.7939 8.40111 13.721C8.41812 13.6603 8.42541 13.5947 8.42784 13.5291C8.43027 13.4343 8.42055 13.3395 8.41569 13.2351C8.52747 13.2253 8.63196 13.2156 8.7486 13.2059C8.69028 13.5169 8.63196 13.8012 8.58822 14.088C8.56149 14.2581 8.55177 14.4306 8.55663 14.6007C8.55906 14.71 8.65869 14.7514 8.75832 14.7562C8.85552 14.7611 8.88468 14.6882 8.89683 14.6056C8.90169 14.5667 8.91384 14.5254 8.91384 14.4865C8.92356 14.0855 8.93814 13.6846 8.93571 13.2861C8.93571 13.15 8.98188 13.0747 9.09122 13.0042C9.36338 12.8317 9.65741 12.6907 9.87368 12.438C9.92957 12.3748 10.017 12.3384 10.1167 12.2704C10.0948 12.3627 10.0827 12.4259 10.0656 12.4866C10.0098 12.6859 9.95144 12.8827 9.89555 13.0795C9.86396 13.1889 9.88583 13.2885 9.99275 13.3395C10.0511 13.3687 10.141 13.3906 10.192 13.3663C10.2965 13.3177 10.2795 13.2059 10.2698 13.1087C10.2698 13.0965 10.2625 13.0844 10.26 13.0747C10.2406 12.8463 10.2187 12.6178 10.2017 12.387C10.1944 12.2776 10.2455 12.1999 10.3281 12.127C10.4715 11.9982 10.6367 11.8743 10.7339 11.7139C10.9064 11.4296 11.0425 11.1234 11.1786 10.8197C11.3438 10.4479 11.3001 10.0688 11.1713 9.697C11.0376 9.31307 10.8287 8.98502 10.4229 8.84165C10.0341 8.70557 9.63311 8.60837 9.22244 8.56463C9.01347 8.54033 8.81178 8.48445 8.6514 8.33622ZM13.8175 3.37177C13.8273 3.3742 13.837 3.37663 13.8467 3.37906C13.8588 3.36448 13.8734 3.35233 13.8856 3.33532C14.1067 3.02185 14.3327 2.71082 14.549 2.39492C14.7069 2.16407 14.8454 1.9235 14.8989 1.64406C14.9183 1.53714 14.9305 1.43751 14.8308 1.3719C14.7263 1.30386 14.6291 1.35975 14.5417 1.4205C14.357 1.54686 14.2379 1.72668 14.1699 1.93079C14.0824 2.19809 14.0119 2.47268 13.9463 2.74484C13.8953 2.95381 13.8588 3.16522 13.8175 3.37177ZM1.9641 13.704C1.66521 13.8571 1.37847 14.1487 1.4538 14.3869C1.64091 14.3796 1.91064 14.0199 1.9641 13.704ZM13.8127 3.43252L13.8175 3.42523H13.8102L13.8127 3.43252Z" fill="#222222"/>
<path d="M3.20792 6.88795C2.98436 6.83935 2.7608 6.79076 2.53724 6.74215C2.00508 6.62795 1.47291 6.51617 0.940748 6.39953C0.69532 6.34607 0.452322 6.28532 0.262784 6.10064C0.048946 5.88923 -0.060403 5.64137 0.0343661 5.34491C0.136425 5.03144 0.376993 4.86134 0.69046 4.80059C1.00636 4.73741 1.30038 4.83947 1.58469 4.95611C2.30397 5.25014 2.94548 5.66324 3.47036 6.24401C3.53596 6.31691 3.59671 6.40439 3.63073 6.49673C3.69634 6.66682 3.6283 6.79076 3.45092 6.83935C3.37316 6.86122 3.29297 6.86122 3.21278 6.87337C3.21278 6.8758 3.21035 6.88309 3.20792 6.88795ZM2.7365 6.26102C2.74379 6.26345 2.75108 6.26345 2.75837 6.26588C2.75351 6.26102 2.74865 6.25616 2.74379 6.25373C2.6879 6.2027 2.63201 6.14924 2.57369 6.10307C2.11686 5.75558 1.62357 5.47856 1.06954 5.32061C0.909158 5.27444 0.75121 5.26715 0.607841 5.37893C0.503352 5.45912 0.483912 5.55146 0.551952 5.66324C0.629711 5.79446 0.76336 5.8382 0.897008 5.86493C1.26394 5.94512 1.63086 6.01073 1.99779 6.08606C2.24565 6.13952 2.49107 6.2027 2.7365 6.26102Z" fill="#222222"/>
<path d="M14.982 18.1269C14.9723 18.3188 14.9261 18.4914 14.7998 18.6347C14.5665 18.8996 14.2166 18.9142 13.9201 18.6809C13.5775 18.4136 13.3855 18.0467 13.2422 17.6506C13.145 17.3784 13.0696 17.0966 12.9846 16.8171C12.8728 16.4623 12.7562 16.11 12.6517 15.7552C12.6201 15.6483 12.6152 15.5317 12.6152 15.4199C12.6152 15.2595 12.7319 15.172 12.8752 15.2401C13.0186 15.3081 13.1571 15.4004 13.2738 15.5098C13.8011 16.0079 14.2069 16.6057 14.5908 17.2156C14.7147 17.4125 14.8217 17.6239 14.9213 17.8353C14.9577 17.9227 14.9602 18.0272 14.982 18.1269ZM13.439 16.4453C13.4293 16.4502 13.4196 16.4551 13.4098 16.4599C13.5411 16.9216 13.6431 17.3906 13.8642 17.8231C13.9614 18.0127 14.0805 18.1852 14.2652 18.3018C14.3721 18.3699 14.4547 18.3334 14.4547 18.2046C14.4547 18.1001 14.4426 17.9786 14.3915 17.8912C14.2044 17.5655 14.0003 17.2472 13.7962 16.9338C13.6844 16.7637 13.5581 16.6057 13.439 16.4453Z" fill="#222222"/>
<path d="M2.65727 18.9907C2.1251 19.0514 1.89183 18.5508 1.95015 18.1037C2.0109 17.6566 2.22716 17.2897 2.50904 16.9519C2.8298 16.568 3.18943 16.2254 3.63898 15.9945C3.71674 15.9532 3.79692 15.9119 3.88197 15.8852C4.10796 15.8147 4.25133 15.9168 4.27563 16.1549C4.2975 16.3809 4.26105 16.602 4.17114 16.8061C3.98403 17.2265 3.78477 17.642 3.58552 18.0576C3.49075 18.2544 3.37897 18.4415 3.27205 18.6335C3.25018 18.6723 3.22345 18.7088 3.19429 18.7404C3.04606 18.9081 2.88326 19.0417 2.65727 18.9907ZM3.73132 16.5656C3.71674 16.5583 3.70459 16.5486 3.69001 16.5413C3.17242 16.9301 2.70101 17.3626 2.49203 18.0065C2.45315 18.1232 2.46044 18.2617 2.47745 18.3856C2.49689 18.5265 2.64998 18.5679 2.74961 18.4658C2.82008 18.3905 2.89055 18.3079 2.93914 18.2155C3.12625 17.8583 3.31093 17.4987 3.48832 17.1366C3.5758 16.9495 3.6487 16.7551 3.73132 16.5656Z" fill="#222222"/>
<path d="M8.21501 2.33271C8.20529 2.41047 8.20043 2.50766 8.18342 2.60243C8.11053 3.03983 7.8165 3.20507 7.39369 3.05441C7.08751 2.94506 6.86153 2.73122 6.67685 2.47607C6.30263 1.96335 6.07665 1.39474 6.07422 0.755654C6.07422 0.493217 6.14226 0.24779 6.39011 0.0971314C6.5918 -0.0243672 6.8105 -0.0146473 7.02433 0.043672C7.33537 0.131151 7.59051 0.306109 7.74603 0.597706C8.03034 1.1323 8.18342 1.70577 8.21501 2.33271ZM7.69986 2.30598C7.67313 1.79568 7.54677 1.31212 7.31107 0.857713C7.23088 0.702195 7.09723 0.607426 6.93685 0.546676C6.68414 0.451907 6.57479 0.524807 6.58208 0.794534C6.59423 1.25137 6.75218 1.66203 6.99517 2.04354C7.11667 2.23551 7.25518 2.41533 7.4593 2.52953C7.65369 2.63888 7.69743 2.61215 7.69986 2.39346C7.69986 2.36187 7.69986 2.33271 7.69986 2.30598Z" fill="#222222"/>
<path d="M15.4277 7.02766C15.333 6.99607 15.1847 6.97906 15.0754 6.90616C14.8858 6.77737 14.915 6.56354 14.9563 6.374C15.0292 6.02895 15.2115 5.73249 15.4447 5.47978C15.6221 5.28781 15.8214 5.11043 16.0377 4.96706C16.4143 4.71677 16.9076 4.75808 17.2648 5.03024C17.7289 5.38744 17.7046 6.09699 17.2113 6.49064C16.893 6.74578 16.5188 6.86728 16.1227 6.93289C15.9089 6.96934 15.6926 6.99364 15.4277 7.02766ZM15.4399 6.49793C15.5055 6.49793 15.5492 6.50279 15.5905 6.49793C15.836 6.45662 16.0863 6.42746 16.3268 6.36914C16.5577 6.31082 16.7812 6.22091 16.9489 6.03624C17.0437 5.93175 17.1093 5.81025 17.085 5.66203C17.0485 5.43604 16.7545 5.26351 16.4993 5.31697C16.2758 5.36557 16.1106 5.50651 15.955 5.66203C15.7266 5.8953 15.5468 6.15774 15.4399 6.49793Z" fill="#222222"/>
<path d="M16.3323 11.4355C16.4635 11.472 16.5972 11.5036 16.7259 11.5449C17.246 11.715 17.7684 11.8875 18.286 12.0649C18.4269 12.1135 18.5679 12.167 18.6942 12.2447C18.8984 12.3711 18.964 12.6238 18.8789 12.8668C18.7987 13.0904 18.5752 13.2532 18.3468 13.2265C18.2423 13.2143 18.1305 13.1779 18.0406 13.122C17.5133 12.7915 16.9787 12.478 16.4173 12.2034C16.2886 12.1402 16.1768 12.0285 16.0771 11.9215C15.9897 11.8268 15.9824 11.7004 16.0456 11.5813C16.1063 11.4647 16.2132 11.4501 16.3323 11.4355ZM18.1281 12.5412C18.1232 12.5533 18.1208 12.5631 18.1159 12.5752C18.1912 12.619 18.2666 12.6651 18.3443 12.7064C18.3565 12.7137 18.3832 12.6967 18.4026 12.6894C18.3954 12.6724 18.3929 12.6457 18.3832 12.6408C18.2982 12.6044 18.2131 12.5728 18.1281 12.5412Z" fill="#222222"/>
<path d="M11.204 2.04055C11.204 1.9798 11.1967 1.91905 11.2065 1.8583C11.2624 1.50595 11.4738 1.35044 11.831 1.39661C11.9865 1.41848 12.1153 1.50595 12.1615 1.64932C12.2222 1.83886 12.2854 2.04055 12.2757 2.23495C12.2635 2.54598 12.2028 2.85702 12.142 3.16562C12.1153 3.30413 12.0497 3.44264 11.9792 3.56657C11.848 3.79985 11.5953 3.80957 11.4762 3.57143C11.3814 3.37946 11.3182 3.16562 11.2818 2.95422C11.2308 2.6529 11.2186 2.34429 11.1895 2.04055C11.1943 2.04055 11.1992 2.04055 11.204 2.04055Z" fill="#222222"/>
<path d="M1.28051 11.3349C1.34612 11.3349 1.4093 11.33 1.47491 11.3349C1.71062 11.3616 1.82483 11.5779 1.69361 11.7772C1.63772 11.8646 1.55024 11.9448 1.4579 11.991C1.1663 12.1344 0.857696 12.1587 0.541799 12.0809C0.515069 12.0736 0.488339 12.0639 0.46404 12.0493C0.255061 11.9448 0.228332 11.7431 0.41058 11.5949C0.570959 11.4661 0.758067 11.3908 0.959755 11.3568C1.06667 11.3398 1.17602 11.3325 1.28294 11.3203C1.28051 11.3276 1.28051 11.33 1.28051 11.3349Z" fill="#222222"/>
<path d="M9.28516 17.2753C9.30946 17.1173 9.31918 16.9545 9.36048 16.799C9.40908 16.6143 9.53544 16.5779 9.67638 16.7091C9.98255 16.9958 10.1162 17.3628 10.1016 17.7759C10.0919 18.0067 9.82946 18.1233 9.60105 18.0067C9.38964 17.8974 9.32889 17.6981 9.3046 17.4818C9.29731 17.4138 9.3046 17.3457 9.3046 17.2753C9.29731 17.2777 9.29245 17.2753 9.28516 17.2753Z" fill="#222222"/>
<path d="M17.662 3.88079C17.4797 3.85163 17.3145 3.83462 17.1541 3.79817C17.0156 3.76658 16.9937 3.6791 17.0909 3.57947C17.3607 3.30731 17.6814 3.16394 18.0702 3.19067C18.2938 3.20525 18.459 3.39722 18.3861 3.57704C18.3545 3.6548 18.2671 3.73985 18.1869 3.76658C18.0143 3.82733 17.8272 3.84677 17.662 3.88079Z" fill="#222222"/>
<path d="M6.67753 16.4824C6.67753 16.7278 6.488 16.9246 6.25472 16.9222C6.01416 16.9198 5.80032 16.7132 5.80275 16.4921C5.80518 16.271 6.04575 16.0547 6.28631 16.0547C6.50015 16.0547 6.67996 16.2515 6.67753 16.4824Z" fill="#222222"/>
<path d="M15.2698 12.2853C15.2747 12.4797 15.1021 12.6595 14.9029 12.6668C14.6672 12.6741 14.4436 12.4408 14.4339 12.171C14.4266 11.9766 14.5602 11.8235 14.7401 11.8187C15.0268 11.809 15.2625 12.0179 15.2698 12.2853Z" fill="#222222"/>
<path d="M9.52199 5.13672C9.52199 5.13915 9.51953 5.14401 9.51953 5.14644C9.52199 5.14401 9.52199 5.14158 9.52199 5.13672C9.52445 5.13672 9.52199 5.13672 9.52199 5.13672Z" fill="#222222"/>
<path d="M13.8135 3.42964L13.8086 3.41992H13.8159L13.8135 3.42964Z" fill="#222222"/>
<path d="M2.74752 6.25195C2.75238 6.25681 2.75724 6.26167 2.7621 6.2641C2.75481 6.26167 2.74752 6.26167 2.74023 6.25924C2.74023 6.25924 2.74509 6.25438 2.74752 6.25195Z" fill="#222222"/>
</g>
<defs>
<clipPath id="clip0_252_6345">
<rect width="18.915" height="19" fill="white"/>
</clipPath>
</defs>
</svg>
