<svg width="19" height="19" fill="none" xmlns="http://www.w3.org/2000/svg"><g clip-path="url(#clip0_252_6345)" fill="#222"><path d="M9.276 3.522c.034-.243.06-.486.104-.726a.87.87 0 01.124-.275c.21-.32.576-.36.848-.087.214.214.319.483.36.777.044.297.06.596.126.885.107.471.482.75.94.724.32-.02.567-.185.776-.408.37-.394.498-.897.612-1.405.098-.425.185-.853.316-1.266.136-.427.394-.777.805-.994.522-.274 1.13-.026 1.292.523.066.226.037.447-.027.668-.123.447-.388.814-.653 1.181-.367.508-.739 1.016-.974 1.604-.19.474-.263.967-.17 1.472.111.613.497 1.028 1.025 1.31.408.219.84.394 1.261.593.503.238.943.552 1.193 1.074.219.455.136 1.013-.204 1.337-.233.22-.527.294-.836.308-.347.017-.695.012-1.042.03-.3.014-.588.08-.814.296-.311.296-.353.668-.265 1.064.102.462.364.824.724 1.12.391.326.804.63 1.171.98.38.36.561.821.527 1.358a.912.912 0 01-.853.84c-.592.027-1.052-.235-1.402-.684-.248-.319-.459-.666-.687-1-.187-.274-.375-.548-.644-.75-.168-.126-.35-.214-.567-.216-.425-.003-.719.34-.617.755.073.302.202.588.282.887.044.163.08.348.051.51-.078.453-.58.657-.984.416a1.245 1.245 0 01-.481-.503c-.18-.35-.46-.561-.853-.598a.852.852 0 00-.333.032 2.717 2.717 0 00-.486.216c-.277.156-.347.428-.37.722-.014.202-.021.403-.05.603-.04.265-.21.452-.452.493-.255.044-.462-.054-.613-.26-.235-.326-.274-.698-.257-1.086.017-.406.078-.817-.085-1.21-.076-.183-.175-.346-.343-.46-.236-.158-.525-.15-.724.054-.155.158-.277.345-.415.52-.132.163-.253.338-.401.483-.229.224-.516.226-.715.03a.549.549 0 01-.027-.768c.26-.304.491-.623.576-1.026.078-.381.034-.736-.228-1.037-.43-.499-1.162-.457-1.58.072-.228.292-.364.627-.488.97-.122.335-.24.673-.464.957-.202.256-.442.447-.79.465-.522.024-.816-.423-.753-.892.058-.435.304-.749.653-.977.506-.333 1.028-.644 1.546-.962.238-.146.484-.282.712-.44.287-.2.454-.476.464-.836.007-.299-.143-.508-.386-.654-.306-.184-.64-.199-.975-.104-.342.095-.675.223-1.015.325-.3.09-.606.11-.907.005-.49-.17-.734-.724-.542-1.234.16-.425.489-.685.89-.863.35-.155.726-.214 1.103-.27.493-.072.984-.15 1.419-.415.425-.26.683-.644.714-1.137.03-.479-.004-.96-.007-1.441-.002-.399.015-.795.197-1.16.398-.804 1.404-1.008 2.11-.415.26.219.49.47.738.705.245.23.525.4.86.469.5.102.919-.197.97-.71.02-.19.024-.379.036-.568a.064.064 0 01-.046.004zm1.674 1.845l.044.029c.046.056.087.114.136.17.282.314.5.661.615 1.072.124.447 0 .804-.38 1.052-.058.036-.067.07-.055.138.041.224.068.447.002.673-.01.032.017.085.042.112.201.231.362.486.464.775.124.358.209.717.17 1.104-.054.53-.34.97-.53 1.445a.28.28 0 01-.06.09c-.14.158-.278.316-.421.47a.182.182 0 00-.056.17c.03.194.06.393.056.588-.015.56-.52.928-.987.826-.116-.025-.228-.066-.357-.105v.627l.022.01c.012.002.024.002.036.005.661.039 1.16.34 1.49.916.037.065.088.121.134.182l.02.027-.008-.037c-.027-.085-.049-.17-.083-.252-.136-.348-.265-.695-.238-1.08a1.24 1.24 0 01.457-.915c.476-.392 1.154-.409 1.71-.059.312.195.56.455.766.751.26.372.503.753.763 1.125.16.231.36.418.637.5.128.04.272.081.381-.019.117-.104.085-.255.058-.388-.075-.375-.335-.618-.612-.846-.372-.309-.768-.595-1.11-.938a2.367 2.367 0 01-.72-1.793 1.663 1.663 0 011.011-1.478c.355-.148.727-.175 1.104-.19.286-.009.573-.009.86-.03.23-.018.345-.147.33-.378a.839.839 0 00-.097-.33 1.108 1.108 0 00-.474-.46c-.294-.152-.59-.3-.894-.432-.574-.25-1.128-.53-1.55-1.01a2.442 2.442 0 01-.605-1.488c-.025-.379.021-.75.104-1.118.002-.012.002-.026.005-.039a.212.212 0 01-.017.027c-.024.022-.049.044-.07.066-.586.566-1.252.773-2.032.444-.017-.007-.032-.017-.049-.024l-.036-.012c.007.01.014.017.024.027zm-3.36 8.852c-.066-.087-.061-.236-.236-.26.085.102.153.187.223.27.294.493.382 1.03.324 1.596.046-.094.08-.19.123-.279.047-.092.107-.18.158-.267-.27-.294-.318-.404-.36-.785a.222.222 0 00-.055-.112c-.056-.058-.12-.11-.178-.163zm3.098-9.03c.01.005.02.013.029.017l.007-.007-.029-.017c-.005-.01-.007-.024-.015-.031a1.675 1.675 0 01-.551-.985c-.049-.252-.075-.51-.102-.687-.02.233-.027.544-.073.85-.049.314-.21.581-.428.812-.002.002-.002.005-.005.007l.003-.01.167-.004c.333-.03.669-.061.997.055zm-2.117.355c-.163-.02-.31-.027-.454-.058-.491-.105-.892-.37-1.242-.72-.202-.204-.403-.41-.622-.595-.41-.342-.955-.163-1.074.36-.051.221-.051.457-.054.685-.007.496.032.996-.007 1.49a2.065 2.065 0 01-.86 1.552c-.513.382-1.11.52-1.725.623a11.44 11.44 0 00-1.016.213.887.887 0 00-.518.382c-.068.104-.092.219-.036.333.053.107.163.119.262.11a2.46 2.46 0 00.45-.083c.26-.078.51-.183.77-.26.68-.205 1.325-.146 1.883.328.367.31.54.724.484 1.207-.022.195-.078.384-.121.579.85.405 1.178 1.105 1.066 2.055.345-.196.698-.22 1.089-.121-.156-.258-.18-.5-.139-.758.022-.146.025-.297.049-.443.027-.158.041-.328.114-.464.09-.17.148-.333.129-.525 0-.004.01-.01.024-.021.115.16.231.104.345-.005.022-.022.054-.037.083-.051l1.132-.671c-.18-.068-.337-.124-.498-.185-.031.049-.058.095-.087.139-.221.32-.593.488-.921.413-.353-.08-.593-.365-.666-.766-.063-.362.01-.697.172-1.02a.438.438 0 00-.031-.467 1.025 1.025 0 01-.168-.76c.042-.236.158-.43.29-.62.067-.1.13-.204.18-.313.167-.362.38-.686.72-.91.142-.091.28-.191.424-.286.187-.119.376-.238.573-.367zm.08 2.792c.037-.104.083-.201.1-.304.017-.106.075-.172.15-.235.035-.027.064-.063.103-.085.143-.08.284-.166.432-.234.105-.048.221-.075.333-.106.15-.042.301-.095.455-.117.167-.027.25.08.206.245-.053.202-.114.404-.17.608-.024.09-.012.177.078.218.068.032.175.073.216.044.053-.036.063-.14.085-.218.007-.025-.01-.056-.012-.083-.02-.229-.044-.457-.058-.688-.008-.107.031-.187.158-.199a.576.576 0 00.175-.051c.18-.073.209-.141.153-.33-.107-.37-.338-.66-.608-.921a.22.22 0 00-.129-.061c-.405-.017-.811-.015-1.173.211-.377.236-.751.479-1.125.717a1.142 1.142 0 00-.423.457c-.129.257-.236.525-.428.743-.027.03-.041.07-.056.107-.07.158-.046.272.07.399.04.044.088.095.098.148.068.355.134.712-.092 1.04-.025.037-.034.083-.05.124a.74.74 0 00-.018.464c.043.148.143.173.25.06a.422.422 0 00.116-.332c-.012-.177-.029-.355-.036-.532-.005-.09.01-.18.015-.27a.453.453 0 00.048-.024c.022.034.039.073.068.1.124.121.246.247.382.354.262.21.554.367.89.423.2.034.407.046.614.06.175.013.299.083.362.254.063.17.01.303-.122.408a14.09 14.09 0 01-.646.49c-.187.13-.386.239-.58.355-.27.163-.545.321-.807.494-.139.092-.256.233-.21.408.044.168-.007.306-.04.457-.015.063-.015.129-.02.192-.005.087.048.136.129.15.087.017.126-.043.145-.114.022-.085.034-.172.051-.265l.537.355c-.012.03-.029.06-.038.095-.032.112-.068.223-.09.338-.015.08.022.14.111.157.1.02.132-.048.151-.121a.83.83 0 00.027-.192c.002-.095-.007-.19-.012-.294l.333-.03c-.059.312-.117.596-.16.883a2.68 2.68 0 00-.032.513c.002.109.102.15.201.155.098.005.127-.068.139-.15.005-.04.017-.08.017-.12.01-.4.024-.801.022-1.2 0-.136.046-.211.155-.282.272-.172.566-.313.783-.566.056-.063.143-.1.243-.168-.022.093-.034.156-.051.217-.056.199-.115.396-.17.592-.032.11-.01.21.097.26.058.03.148.052.199.027.104-.048.088-.16.078-.257 0-.012-.008-.025-.01-.034-.02-.229-.041-.457-.058-.688-.008-.11.043-.187.126-.26.144-.129.309-.253.406-.413.172-.284.309-.59.445-.894.165-.372.121-.751-.008-1.123-.133-.384-.342-.712-.748-.855a5.35 5.35 0 00-1.2-.277c-.21-.025-.411-.08-.572-.229zm5.167-4.964l.029.007c.012-.015.026-.027.039-.044.22-.313.447-.624.663-.94.158-.23.296-.472.35-.75.02-.108.032-.207-.068-.273-.105-.068-.202-.012-.29.048a.975.975 0 00-.371.51c-.088.268-.158.543-.224.815-.05.209-.087.42-.128.627zM1.964 13.704c-.299.153-.586.445-.51.683.187-.007.457-.367.51-.683zM13.813 3.433l.005-.008h-.008l.003.008z"/><path d="M3.208 6.888l-.67-.146C2.004 6.628 1.472 6.516.94 6.4c-.246-.054-.489-.115-.678-.3-.214-.21-.323-.459-.229-.755C.136 5.03.377 4.86.69 4.8c.316-.064.61.038.895.155.719.294 1.36.707 1.885 1.288.066.073.127.16.16.253.066.17-.002.294-.18.342-.077.022-.157.022-.237.034a.05.05 0 01-.005.015zm-.472-.627c.008.002.015.002.022.005a.05.05 0 00-.014-.012c-.056-.051-.112-.105-.17-.15-.457-.348-.95-.625-1.504-.783-.16-.047-.319-.054-.462.058-.105.08-.124.172-.056.284.078.131.211.175.345.202.367.08.734.146 1.1.221.249.054.494.117.74.175zm12.246 11.866c-.01.192-.056.364-.182.508-.234.265-.583.28-.88.046-.342-.267-.534-.634-.678-1.03-.097-.273-.172-.554-.257-.834-.112-.355-.229-.707-.333-1.062a1.193 1.193 0 01-.037-.335c0-.16.117-.248.26-.18.144.068.282.16.399.27.527.498.933 1.096 1.317 1.706.124.197.23.408.33.62.037.087.04.191.061.29zm-1.543-1.682l-.03.015c.132.462.234.93.455 1.363.097.19.216.362.401.479.107.068.19.031.19-.097a.647.647 0 00-.063-.314 20.244 20.244 0 00-.596-.957c-.112-.17-.238-.328-.357-.489zM2.657 18.99c-.532.061-.765-.44-.707-.886.06-.447.277-.814.559-1.152.32-.384.68-.727 1.13-.958.078-.04.158-.082.243-.109.226-.07.37.032.394.27.022.226-.015.447-.105.651-.187.42-.386.836-.585 1.252-.095.196-.207.384-.314.576a.577.577 0 01-.078.106c-.148.168-.31.302-.537.25zm1.074-2.424l-.041-.025c-.518.39-.989.822-1.198 1.465a.865.865 0 00-.015.38c.02.14.173.182.273.08.07-.076.14-.158.19-.25.186-.358.37-.717.548-1.08.088-.186.16-.38.243-.57zM8.215 2.333c-.01.077-.015.175-.032.27-.072.437-.367.602-.79.451-.305-.109-.531-.323-.716-.578-.374-.513-.6-1.081-.603-1.72 0-.263.068-.508.316-.659.202-.121.42-.112.634-.053.311.087.567.262.722.554.284.534.437 1.108.469 1.735zM7.7 2.306A3.506 3.506 0 007.31.858a.66.66 0 00-.374-.311c-.253-.095-.362-.022-.355.248.012.456.17.867.413 1.249.122.192.26.371.464.486.195.109.238.082.24-.137v-.087zm7.728 4.722c-.095-.032-.243-.049-.353-.122-.19-.129-.16-.342-.119-.532.073-.345.255-.642.489-.894.177-.192.376-.37.593-.513.376-.25.87-.209 1.227.063.464.357.44 1.067-.054 1.46-.318.256-.692.377-1.088.443-.214.036-.43.06-.695.095zm.012-.53c.066 0 .11.005.15 0 .246-.041.496-.07.737-.129.23-.058.454-.148.622-.333.095-.104.16-.226.136-.374-.037-.226-.33-.398-.586-.345-.223.049-.388.19-.544.345a2.043 2.043 0 00-.515.836zm.892 4.937c.131.037.265.069.394.11.52.17 1.042.342 1.56.52.14.049.282.102.408.18.204.126.27.379.185.622-.08.223-.304.386-.532.36a.766.766 0 01-.306-.105 17.732 17.732 0 00-1.624-.919 1.255 1.255 0 01-.34-.281c-.087-.095-.095-.222-.031-.34.06-.117.167-.132.286-.147zm1.796 1.106l-.012.034c.075.044.15.09.228.131.012.008.04-.01.059-.017-.008-.017-.01-.043-.02-.048-.085-.037-.17-.068-.255-.1zM11.204 2.04c0-.06-.007-.121.002-.182.056-.352.268-.508.625-.461.155.021.284.109.33.252.061.19.124.392.115.586a6.09 6.09 0 01-.134.93 1.364 1.364 0 01-.163.402c-.131.233-.384.243-.503.004a2.28 2.28 0 01-.194-.617c-.051-.301-.063-.61-.092-.913h.014zM1.28 11.335c.066 0 .13-.005.195 0 .236.027.35.243.219.442a.624.624 0 01-.236.214c-.292.143-.6.168-.916.09a.307.307 0 01-.078-.032c-.209-.104-.236-.306-.053-.454.16-.129.347-.204.549-.238.107-.017.216-.024.323-.037l-.002.015zm8.005 5.94c.024-.158.034-.32.075-.476.05-.185.175-.221.316-.09.307.287.44.654.426 1.067-.01.23-.273.347-.5.23-.212-.109-.273-.308-.297-.524-.008-.068 0-.136 0-.207-.008.003-.013 0-.02 0zM17.662 3.88c-.182-.028-.348-.045-.508-.082-.138-.031-.16-.119-.063-.219.27-.272.59-.415.98-.388.223.014.388.206.315.386a.37.37 0 01-.2.19c-.172.06-.359.08-.524.114zM6.678 16.482c0 .246-.19.443-.423.44-.24-.002-.455-.209-.452-.43.002-.221.243-.437.483-.437.214 0 .394.197.392.427zm8.592-4.197a.39.39 0 01-.367.382c-.236.007-.46-.226-.47-.496-.006-.194.127-.348.307-.352.287-.01.522.199.53.466zM9.522 5.137l-.002.01c.002-.003.002-.005.002-.01.002 0 0 0 0 0zm4.291-1.707l-.004-.01h.007l-.003.01z"/><path d="M2.748 6.252a.05.05 0 00.014.012c-.007-.002-.014-.002-.022-.005l.008-.007z"/></g><defs><clipPath id="clip0_252_6345"><path fill="#fff" d="M0 0h18.915v19H0z"/></clipPath></defs></svg>