<svg width="19" height="19" fill="none" xmlns="http://www.w3.org/2000/svg"><g clip-path="url(#clip0_90_7272)"><path d="M3.692 16.294h0l.002-.001c.148-.086.265-.151.353-.17a.244.244 0 01.02-.003.585.585 0 01.01.289c-.02.126-.063.269-.12.419a7.007 7.007 0 01-.375.788c-.05.094-.103.206-.155.315l-.071.15a2.86 2.86 0 01-.247.431.692.692 0 01-.26.236c-.075.034-.17.046-.308-.005h0c-.166-.06-.248-.183-.273-.366a1.343 1.343 0 01.107-.657c.052-.12.107-.221.164-.302h0c.318-.452.71-.873 1.153-1.124zm-1.385-9.88h0a11.892 11.892 0 00-.716-.146 14.341 14.341 0 01-.426-.08h0l-.003-.001c-.35-.069-.614-.15-.744-.347h0-.001c-.11-.165-.115-.315-.069-.435a.586.586 0 01.354-.318h.002c.156-.061.375-.043.64.042.26.082.517.212.73.321.476.25.914.582 1.279.98h0l.002.002a.49.49 0 01.09.129.236.236 0 01.015.047.285.285 0 01-.08.016c-.153.01-.32-.015-.505-.058a7.18 7.18 0 01-.28-.074l-.032-.01a9.774 9.774 0 00-.256-.068zM9.654 16.99h0c.075.082.124.203.19.385.04.105.068.203.073.285.005.08-.012.113-.027.13h0c-.006.006-.022.018-.064.013a.197.197 0 01-.117-.063c-.074-.093-.107-.252-.1-.45a3.052 3.052 0 01.026-.321l.019.02h0zm-3.244-.347c-.056.04-.16.037-.225-.02-.074-.068-.072-.113-.069-.133a.208.208 0 01.092-.124.234.234 0 01.16-.046c.03.005.07.02.105.097a.204.204 0 01-.062.226zM17.515 3.615c.134-.084.283-.139.436-.156.12-.013.178-.002.21.017h0l.005.003a.087.087 0 01.037.044l-.001.002a.089.089 0 01-.017.013.49.49 0 01-.133.047 1.724 1.724 0 01-.537.03zm.688-.09s0 0 0 0v-.001s0 0 0 0zm0 0v-.002.001zm0 0s0 0 0 0 0 0 0 0zm-2.449 2.054h0c.17-.184.32-.31.524-.418h.001c.32-.174.794-.078 1.007.216.196.27.127.626-.129.884-.05.045-.1.087-.154.123h0H17c-.355.24-.818.321-1.291.374a1.196 1.196 0 01-.353.001.183.183 0 01-.08-.033c-.01-.009-.023-.023-.032-.06-.029-.124.014-.316.13-.544.11-.217.263-.42.379-.543z" stroke="#00A6EB" stroke-width=".5"/><path d="M11.382 3.203c.063.27.158.494.322.54.38.118.52-.652.563-.902.102-.5.184-1.605-.657-1.408-.367.086-.374.494-.342.81.012.19.031.612.114.96z" fill="#00A6EB"/><path d="M7.543 2.83a.444.444 0 00-.016-.005l-.004-.003-.015-.005c-.295-.109-.596-.44-.818-.88-.22-.436-.33-.91-.298-1.236.018-.176.075-.275.133-.331a.378.378 0 01.25-.098C7 .26 7.29.38 7.484.59c.077.085.193.3.3.6.105.29.189.627.218.93.031.318-.003.542-.076.656a.175.175 0 01-.109.083.518.518 0 01-.274-.027zM1.22 11.847h0l-.01.003a1.124 1.124 0 01-.446.02h0H.76a.644.644 0 01-.083-.018l-.022-.006-.013-.005a.191.191 0 01-.012-.005l-.003-.002-.008-.006a.138.138 0 01-.006-.004.196.196 0 01.02-.019c.19-.152.464-.213.76-.213.07 0 .12.006.156.018l.004.002a.09.09 0 01-.009.048c-.037.078-.16.152-.324.187zm13.64.233l.008.002.007.002a.28.28 0 01.155.102c.036.057.04.115.03.143h0l-.002.007a.13.13 0 01-.093.079.192.192 0 01-.153-.06.31.31 0 01-.068-.183c0-.06.018-.082.039-.095a.06.06 0 01.023-.005.19.19 0 01.054.008zm-1.63 4.498h0l-.001-.003a3.278 3.278 0 00-.074-.209c-.01-.028-.02-.057-.032-.086a6.315 6.315 0 01-.138-.414 1.791 1.791 0 01-.072-.352c.051.028.117.076.196.145a5.5 5.5 0 01.662.748c.23.301.45.625.622.899.178.281.292.491.323.572h0l.001.002c.11.28.033.514-.087.628a.31.31 0 01-.21.09.483.483 0 01-.302-.117 1.38 1.38 0 01-.261-.271h0l-.003-.004c-.29-.392-.437-.937-.58-1.464l-.044-.164zm-.392-1.096h.002-.002zm5.76-3.026h0l.006.004c.09.064.132.184.1.29h0l-.002.01a.306.306 0 01-.214.218h0l-.005.001c-.055.013-.114.004-.199-.036a1.571 1.571 0 01-.188-.11 6.42 6.42 0 00-.088-.056L18 12.768l-.03-.017a39.642 39.642 0 01-.697-.418c-.079-.05-.192-.101-.297-.149l-.026-.012a4.295 4.295 0 01-.357-.177.915.915 0 01-.24-.183c-.042-.05-.04-.074-.037-.09h0a.21.21 0 01.002-.008.471.471 0 01.187.019c.098.024.205.063.309.105l.083.035c.07.028.14.058.19.074.269.089.539.172.806.254a94.178 94.178 0 01.448.14c.118.041.193.067.257.115z" stroke="#00A6EB" stroke-width=".5"/><mask id="a" fill="#fff"><path d="M17.284 9.191c-.366-.763-1.113-1.046-1.815-1.348-.55-.237-1.12-.527-1.443-1.053-.38-.625-.304-1.46-.013-2.138.291-.678.76-1.25 1.177-1.855.393-.566.728-1.388.209-1.895-.291-.283-.734-.316-1.082-.118-.702.394-.886 1.19-1.031 1.934-.146.737-.298 1.52-.962 1.954-.316.21-.727.237-1.044.026-.487-.322-.443-.94-.519-1.48-.063-.467-.386-1.013-.835-.934-.417.072-.57.618-.57 1.059.007.329.032.684-.069.98a.843.843 0 01-.164.283c-.374.421-1.063.224-1.494-.138-.531-.448-.923-1.112-1.683-1.158a1.35 1.35 0 00-1.151.54c-.734.993.095 2.5-.557 3.5-.348.526-1 .723-1.6.822-.76.125-1.582.17-2.12.862-.234.302-.304.717-.146 1.065.253.573.899.612 1.418.474.442-.118.86-.349 1.31-.382.581-.046 1.29.369 1.018 1.125a1.15 1.15 0 01-.48.58L1.91 12.94c-.36.218-.728.448-.95.81-.271.447-.24 1.151.336 1.329a.87.87 0 00.766-.158c.462-.349.613-.915.816-1.441.177-.46.43-.934.88-1.118a1.007 1.007 0 011.182.368c.298.428.222 1.007-.025 1.447-.107.191-.24.362-.386.527-.386.42.063 1.105.57.855.006 0 .006-.007.012-.007.557-.29.715-1.237 1.335-1.27.468-.026.772.52.81 1.007.044.632-.183 1.29.247 1.869.183.25.525.335.784.17.494-.309.152-1.085.462-1.539.127-.184.342-.283.544-.368.007 0 .013-.007.013-.007a1.02 1.02 0 011.31.467c.12.237.29.435.544.573a.662.662 0 00.848-.185c.455-.644-.582-1.532-.14-2.157a.6.6 0 01.5-.25c.374 0 .671.243.905.52.45.526.728 1.197 1.228 1.677.5.474 1.36.678 1.815.158.443-.507.21-1.349-.24-1.842-.45-.5-1.063-.81-1.512-1.31-.45-.5-.684-1.342-.24-1.842.702-.796 2.246.066 2.89-.855a1.2 1.2 0 00.07-1.178zm-6.137 1.83c-.095.098-.158.434-.247.572a2.803 2.803 0 01-.6.618c-.096.178-.007.691.018.855.032.165.013.29-.088.33-.101.039-.298-.086-.298-.205 0-.118.133-.5.197-.736.063-.244.075-.185-.127-.06-.202.132-.297.316-.468.389-.171.079-.532.335-.532.335s0 .69-.025.934c-.025.244.044.652-.107.71-.254.027-.33-.144-.26-.532.076-.388.19-1.013.19-1.013l-.335.026c.031.178.05.586-.108.619-.367 0-.025-.612-.025-.612s-.203-.08-.557-.362c0 0 .006.362-.127.401-.234.007-.259-.151-.088-.638-.215-.428.297-.678.48-.77.184-.092.69-.434 1.02-.618a3.2 3.2 0 00.759-.58c.19-.196.019-.46-.064-.532-.082-.072-.348-.066-.772-.112-.424-.046-1-.355-1.423-.875-.095-.052-.044.586-.013.757.032.164-.063.401-.221.454-.152.052-.21-.27-.165-.487.045-.217.184-.415.228-.566.044-.151-.038-.632-.057-.73-.019-.099-.183-.119-.202-.342-.02-.23.215-.428.303-.58.089-.144.215-.598.52-.822.303-.223 1.17-.796 1.467-.914.297-.119.835-.132.987-.099.158.033.456.487.531.573 0 0 .21.388.203.572-.006.184-.468.243-.468.243h-.007c-.095.178-.006.691.02.856.031.164.012.29-.09.329-.1.039-.297-.086-.297-.204 0-.112.127-.474.19-.717.007-.014.007-.033.007-.047 0-.111-.095-.197-.197-.177-.158.026-.354.059-.423.099-.108.052-.222.125-.424.138-.203.013-.627.44-.627.44.007.165-.126.402-.126.402s.177.17.506.217c.329.046.576.06 1.246.276.804.25.905 1.375.892 1.487.02.105-.1.599-.196.697z"/></mask><path d="M17.284 9.191c-.366-.763-1.113-1.046-1.815-1.348-.55-.237-1.12-.527-1.443-1.053-.38-.625-.304-1.46-.013-2.138.291-.678.76-1.25 1.177-1.855.393-.566.728-1.388.209-1.895-.291-.283-.734-.316-1.082-.118-.702.394-.886 1.19-1.031 1.934-.146.737-.298 1.52-.962 1.954-.316.21-.727.237-1.044.026-.487-.322-.443-.94-.519-1.48-.063-.467-.386-1.013-.835-.934-.417.072-.57.618-.57 1.059.007.329.032.684-.069.98a.843.843 0 01-.164.283c-.374.421-1.063.224-1.494-.138-.531-.448-.923-1.112-1.683-1.158a1.35 1.35 0 00-1.151.54c-.734.993.095 2.5-.557 3.5-.348.526-1 .723-1.6.822-.76.125-1.582.17-2.12.862-.234.302-.304.717-.146 1.065.253.573.899.612 1.418.474.442-.118.86-.349 1.31-.382.581-.046 1.29.369 1.018 1.125a1.15 1.15 0 01-.48.58L1.91 12.94c-.36.218-.728.448-.95.81-.271.447-.24 1.151.336 1.329a.87.87 0 00.766-.158c.462-.349.613-.915.816-1.441.177-.46.43-.934.88-1.118a1.007 1.007 0 011.182.368c.298.428.222 1.007-.025 1.447-.107.191-.24.362-.386.527-.386.42.063 1.105.57.855.006 0 .006-.007.012-.007.557-.29.715-1.237 1.335-1.27.468-.026.772.52.81 1.007.044.632-.183 1.29.247 1.869.183.25.525.335.784.17.494-.309.152-1.085.462-1.539.127-.184.342-.283.544-.368.007 0 .013-.007.013-.007a1.02 1.02 0 011.31.467c.12.237.29.435.544.573a.662.662 0 00.848-.185c.455-.644-.582-1.532-.14-2.157a.6.6 0 01.5-.25c.374 0 .671.243.905.52.45.526.728 1.197 1.228 1.677.5.474 1.36.678 1.815.158.443-.507.21-1.349-.24-1.842-.45-.5-1.063-.81-1.512-1.31-.45-.5-.684-1.342-.24-1.842.702-.796 2.246.066 2.89-.855a1.2 1.2 0 00.07-1.178zm-6.137 1.83c-.095.098-.158.434-.247.572a2.803 2.803 0 01-.6.618c-.096.178-.007.691.018.855.032.165.013.29-.088.33-.101.039-.298-.086-.298-.205 0-.118.133-.5.197-.736.063-.244.075-.185-.127-.06-.202.132-.297.316-.468.389-.171.079-.532.335-.532.335s0 .69-.025.934c-.025.244.044.652-.107.71-.254.027-.33-.144-.26-.532.076-.388.19-1.013.19-1.013l-.335.026c.031.178.05.586-.108.619-.367 0-.025-.612-.025-.612s-.203-.08-.557-.362c0 0 .006.362-.127.401-.234.007-.259-.151-.088-.638-.215-.428.297-.678.48-.77.184-.092.69-.434 1.02-.618a3.2 3.2 0 00.759-.58c.19-.196.019-.46-.064-.532-.082-.072-.348-.066-.772-.112-.424-.046-1-.355-1.423-.875-.095-.052-.044.586-.013.757.032.164-.063.401-.221.454-.152.052-.21-.27-.165-.487.045-.217.184-.415.228-.566.044-.151-.038-.632-.057-.73-.019-.099-.183-.119-.202-.342-.02-.23.215-.428.303-.58.089-.144.215-.598.52-.822.303-.223 1.17-.796 1.467-.914.297-.119.835-.132.987-.099.158.033.456.487.531.573 0 0 .21.388.203.572-.006.184-.468.243-.468.243h-.007c-.095.178-.006.691.02.856.031.164.012.29-.09.329-.1.039-.297-.086-.297-.204 0-.112.127-.474.19-.717.007-.014.007-.033.007-.047 0-.111-.095-.197-.197-.177-.158.026-.354.059-.423.099-.108.052-.222.125-.424.138-.203.013-.627.44-.627.44.007.165-.126.402-.126.402s.177.17.506.217c.329.046.576.06 1.246.276.804.25.905 1.375.892 1.487.02.105-.1.599-.196.697z" stroke="#00A6EB" stroke-width="1.4" mask="url(#a)"/></g><defs><clipPath id="clip0_90_7272"><path fill="#fff" d="M0 0h19v19H0z"/></clipPath></defs></svg>