<svg width="19" height="19" fill="none" xmlns="http://www.w3.org/2000/svg"><path d="M18.83 7.012a.558.558 0 00-.297-.155l-5.902-.95L9.956.317a.508.508 0 00-.297-.265.514.514 0 00-.404.022.43.43 0 00-.233.243l-2.675 5.59-5.902.95A.559.559 0 000 7.476c.02.11.063.22.148.309l4.246 4.396-.977 6.186c-.042.31.149.597.425.641.106.022.234 0 .34-.066l5.307-2.872 5.307 2.872a.75.75 0 00.319.066.543.543 0 00.467-.552v-.089l-.977-6.186 4.246-4.396c.191-.221.191-.575-.021-.773zm-5.159 4.595a.584.584 0 00-.148.486l.849 5.39-4.628-2.518a.483.483 0 00-.489 0l-4.628 2.519.85-5.391a.585.585 0 00-.149-.486L1.634 7.763l5.138-.818a.48.48 0 00.382-.287l2.335-4.882 2.335 4.882c.085.155.212.265.382.287l5.138.818-3.673 3.844z" fill="#222"/></svg>