<svg width="19" height="19" fill="none" xmlns="http://www.w3.org/2000/svg"><path d="M4.255 18.113c-1.092 0-1.98-.805-1.98-1.795 0-.99.888-1.795 1.98-1.795s1.98.805 1.98 1.795c0 .99-.888 1.795-1.98 1.795zm0-2.97c-.705 0-1.297.515-1.297 1.175 0 .64.569 1.176 1.297 1.176.705 0 1.297-.516 1.297-1.176 0-.66-.569-1.176-1.297-1.176zm10.467 2.97c-1.092 0-1.98-.805-1.98-1.795 0-.99.888-1.795 1.98-1.795s1.98.805 1.98 1.795c0 .99-.888 1.795-1.98 1.795zm0-2.97c-.706 0-1.297.515-1.297 1.175 0 .64.569 1.176 1.297 1.176.705 0 1.297-.516 1.297-1.176 0-.66-.569-1.176-1.297-1.176z" fill="#222"/><path d="M4.255 19c-.751 0-1.525-.269-2.094-.785-1.16-1.052-1.16-2.743 0-3.795l2.435-2.208c-.023-.227-.046-.433-.046-.619 0-.495.069-.97.205-1.444L1.228 8.788h-.023a1.962 1.962 0 01-1.069-.97 1.586 1.586 0 010-1.361 1.962 1.962 0 011.07-.97 2.094 2.094 0 011.501 0L6.44 6.89a.23.23 0 01.137.103c.682.846 1.729 1.32 2.867 1.32 1.137 0 2.184-.474 2.867-1.32.045-.041.09-.083.136-.103l3.732-1.403c1.001-.371 2.162.062 2.571.97.205.433.205.928 0 1.361a1.962 1.962 0 01-1.07.97h-.022l-3.55 1.34c.137.475.205.97.205 1.445 0 .206-.023.412-.045.619l2.457 2.228c1.16 1.052 1.16 2.743 0 3.795-1.16 1.053-3.026 1.053-4.164 0l-.023-.02-1.911-1.733a4.866 4.866 0 01-2.435 0l-1.934 1.753c-.478.516-1.229.784-2.002.784zm-1.593-4.147c-.888.804-.888 2.125 0 2.93.887.804 2.32.804 3.208 0l2.07-1.878a.41.41 0 01.342-.083 4.009 4.009 0 002.412 0c.114-.04.25 0 .341.083l2.071 1.877c.887.805 2.321.805 3.208 0 .888-.804.888-2.104 0-2.909l-2.548-2.351a.287.287 0 01-.091-.268 4.01 4.01 0 00.068-.702c0-.516-.09-1.031-.273-1.527-.045-.144.023-.309.205-.37L17.52 8.21h.023c.319-.124.57-.35.683-.64a1.056 1.056 0 000-.907c-.273-.598-1.024-.887-1.684-.64l-3.664 1.382c-.796.95-2.047 1.506-3.367 1.506-1.32 0-2.571-.557-3.368-1.506L2.48 6.023a1.396 1.396 0 00-1.001 0 1.243 1.243 0 00-.706.66 1.057 1.057 0 000 .908c.137.289.364.516.683.619L5.3 9.654c.16.062.25.227.205.371a4.42 4.42 0 00-.273 1.527c0 .206.023.433.068.702.023.103-.022.185-.09.268l-2.55 2.33z" fill="#222"/><path d="M9.487 8.912c-2.344 0-4.255-1.733-4.255-3.858 0-.185.023-.392.045-.577-.842-.413-1.365-1.218-1.365-2.084C3.912 1.073 5.095 0 6.552 0c.955 0 1.843.474 2.298 1.238a4.395 4.395 0 011.274 0C10.58.474 11.467 0 12.422 0c1.457 0 2.64 1.073 2.64 2.393 0 .867-.523 1.671-1.365 2.084.022.185.045.392.045.577.023 2.125-1.889 3.858-4.255 3.858zM6.552.62c-1.07 0-1.957.784-1.957 1.774 0 .701.478 1.341 1.183 1.63.16.062.228.206.205.35a3.494 3.494 0 00-.091.681c0 1.795 1.615 3.24 3.572 3.24 1.98 0 3.573-1.466 3.573-3.24 0-.227-.023-.454-.091-.68-.046-.145.045-.29.204-.351.729-.268 1.184-.908 1.184-1.63 0-.97-.865-1.774-1.957-1.774-.774 0-1.48.433-1.798 1.073-.068.144-.227.206-.387.185a3.794 3.794 0 00-1.524 0 .336.336 0 01-.387-.185C8.031 1.053 7.325.62 6.551.62z" fill="#222"/><path d="M12.992 3.756c-.114 0-.25-.062-.296-.165a3.446 3.446 0 00-1.592-1.444c-.16-.082-.228-.247-.16-.413.273-.536.842-.845 1.48-.845.91 0 1.66.68 1.66 1.485 0 .578-.364 1.093-.932 1.34-.046.042-.114.042-.16.042zm-1.251-1.98a4.16 4.16 0 011.365 1.238.857.857 0 00.296-.62c0-.474-.432-.866-.979-.866a.926.926 0 00-.682.248zM5.984 3.755c-.046 0-.091 0-.137-.02-.569-.248-.933-.784-.933-1.341 0-.826.751-1.486 1.638-1.486.638 0 1.206.33 1.48.846.068.144 0 .33-.16.413A3.446 3.446 0 006.28 3.61c-.045.082-.159.144-.295.144zm.568-2.249c-.523 0-.955.392-.955.867a.82.82 0 00.296.619 4.15 4.15 0 011.365-1.238c-.205-.144-.433-.248-.706-.248zm2.935 13.759c-1.98 0-3.618-1.65-3.618-3.693 0-1.506.888-2.847 2.253-3.425.068-.04.16-.04.25-.02a4.095 4.095 0 002.23 0c.091-.02.182-.02.25.02a3.702 3.702 0 012.253 3.425c0 2.042-1.616 3.693-3.618 3.693zM8.304 8.766c-1.07.495-1.73 1.589-1.73 2.806 0 1.692 1.32 3.074 2.936 3.074 1.615 0 2.935-1.382 2.935-3.074 0-1.217-.682-2.31-1.73-2.806a4.777 4.777 0 01-2.411 0zM9.49 6.52c-.32 0-.638-.166-.843-.434l-.068-.103c-.25-.31-.319-.64-.16-.887.114-.207.365-.33.683-.33H9.9c.318 0 .569.123.682.33.137.247.069.557-.159.887l-.068.082c-.228.29-.524.454-.865.454zm-.48-1.116c0 .041.023.124.114.227l.068.083c.16.206.41.206.57 0l.067-.083c.091-.124.114-.186.114-.227h-.932z" fill="#222"/><path d="M9.488 7.695c-.182 0-.342-.144-.342-.31V6.21c0-.165.16-.31.342-.31.182 0 .341.145.341.31v1.176c0 .165-.136.31-.341.31z" fill="#222"/><path d="M9.487 7.737a3.166 3.166 0 01-2.093-.784.294.294 0 01-.091-.227c0-.083.022-.165.09-.227a.354.354 0 01.479 0c.432.392 1 .598 1.615.598.614 0 1.183-.206 1.616-.598a.354.354 0 01.478 0 .294.294 0 01.09.227.294.294 0 01-.09.227 3.123 3.123 0 01-2.094.784zm-.636-3.569h-.978c-.182 0-.342-.145-.342-.31s.16-.31.342-.31h.978c.182 0 .341.145.341.31s-.159.31-.341.31zm2.275 0h-.978c-.182 0-.341-.145-.341-.31s.159-.31.341-.31h.978c.182 0 .342.145.342.31s-.16.31-.342.31z" fill="#222"/></svg>