<svg width="40" height="40" fill="none" xmlns="http://www.w3.org/2000/svg"><path fill-rule="evenodd" clip-rule="evenodd" d="M20 40C8.954 40 0 31.046 0 20 0 8.955 8.954 0 20 0s20 8.955 20 20c0 11.046-8.954 20-20 20zm0-38.643C9.704 1.357 1.357 9.704 1.357 20c0 10.296 8.347 18.643 18.643 18.643 10.296 0 18.643-8.348 18.643-18.643C38.643 9.704 30.295 1.357 20 1.357zm3.36 23.189h-6.72c-3.308 0-3.913-1.27-3.913-3.77v-2.46c0-1.291 0-2.224.51-2.857.523-.649 1.508-.913 3.403-.913h6.72c1.85 0 2.82.248 3.346.858.527.612.567 1.55.567 2.912v2.46c0 1.558-.252 2.46-.842 3.011-.576.539-1.466.759-3.071.759zm-1.296-5.474l-3.051-1.548a.478.478 0 00-.46.015.456.456 0 00-.226.392v3.105c0 .161.086.31.227.393a.48.48 0 00.46.014l3.052-1.559a.457.457 0 00.251-.406.458.458 0 00-.253-.406z" fill="#fff"/></svg>