<svg width="19" height="19" viewBox="0 0 19 19" fill="none" xmlns="http://www.w3.org/2000/svg">
<g clip-path="url(#clip0_90_7292)">
<path d="M9.276 3.67499C9.07126 3.48604 8.82557 3.38107 8.5594 3.36007C8.66178 3.12913 8.66178 2.83521 8.66178 2.62527V2.52029C8.66178 2.1004 8.53893 1.63853 8.29324 1.21864C7.88376 0.525818 7.22859 0.168912 6.36867 0.147918C5.32449 0.126923 4.13699 0.336868 2.76522 0.756757C0.165005 1.26062 0.144531 3.98991 0.144531 4.0319C0.451643 8.27278 2.64238 9.93134 2.72427 9.99433C2.72427 9.99433 2.74475 10.0153 2.76522 10.0153C2.76522 10.0573 2.76522 10.0783 2.76522 10.1203L3.2566 13.8993C3.29755 14.1302 3.48182 14.2982 3.70703 14.2982C3.72751 14.2982 3.74798 14.2982 3.76845 14.2982L8.35466 13.6684C8.60035 13.6264 8.78462 13.3954 8.74367 13.1435L8.25229 9.36449C8.25229 9.30151 8.21134 9.23853 8.19087 9.17554C9.09173 8.46173 9.68548 7.16007 9.7469 5.83742V5.79543C9.78785 5.1446 9.8288 4.17886 9.276 3.67499ZM8.37514 13.1855C8.37514 13.2275 8.35466 13.2695 8.31371 13.2695L3.72751 13.8993C3.68656 13.8993 3.66608 13.8783 3.66608 13.8363L3.1747 10.0573C3.1747 10.0363 3.1747 10.0153 3.19518 10.0153C3.19518 10.0153 3.21565 9.99433 3.23613 9.99433L7.84281 9.36449C7.88376 9.36449 7.90423 9.38549 7.90423 9.42748L8.37514 13.1855ZM9.3579 5.77444V5.81643C9.31695 6.86615 8.82557 8.23079 7.82234 8.9446C7.80186 8.9446 7.76091 8.9446 7.74044 8.9446L3.15423 9.57444C3.07233 9.57444 3.01091 9.61643 2.94949 9.65841C2.84712 9.57444 0.820178 7.97886 0.53354 4.0109C0.53354 3.90593 0.554014 1.57554 2.84712 1.13466H2.86759C4.21889 0.735763 5.34496 0.525818 6.36867 0.546813C7.10574 0.567807 7.63807 0.840735 7.96565 1.40759C8.1704 1.76449 8.29324 2.14239 8.27277 2.4993V2.60427C8.27277 2.81422 8.27277 3.15013 8.14992 3.2551C8.12945 3.27609 8.10897 3.29709 8.10897 3.31808C8.0066 3.31808 7.88376 3.31808 7.78139 3.33908C7.69949 3.33908 7.63807 3.33908 7.55617 3.36007C6.88053 3.38107 6.24583 3.46504 5.7135 3.54902H5.69302C5.36544 3.61201 4.93548 3.69598 4.73074 4.07388C4.58742 4.36781 4.60789 4.7667 4.75121 5.1446C3.05186 5.5225 2.51953 5.1656 2.45811 4.97665C2.45811 4.87167 2.35574 4.80869 2.25337 4.82969C2.151 4.85068 2.0691 4.95565 2.11005 5.06062C2.11005 5.10261 2.17147 5.29156 2.41716 5.45952C2.66285 5.62748 3.03139 5.71145 3.48182 5.71145C3.8913 5.71145 4.38268 5.64847 4.97643 5.5225C5.0788 5.66946 5.20164 5.81643 5.32449 5.9004C5.93871 6.2993 6.40962 5.98438 6.79863 5.73245C7.04432 5.56449 7.26953 5.41753 7.5357 5.41753C7.63807 5.41753 7.74044 5.33355 7.74044 5.20759C7.74044 5.10261 7.65854 4.99764 7.5357 4.99764C7.16716 4.99764 6.86005 5.20759 6.59389 5.37554C6.1844 5.64847 5.91824 5.77444 5.54971 5.5435C5.22212 5.33355 4.93548 4.59875 5.11975 4.26283C5.22212 4.05289 5.54971 3.98991 5.79539 3.94792H5.81587C6.3482 3.84295 6.94195 3.77996 7.59712 3.75897C7.67902 3.75897 7.74044 3.75897 7.82234 3.73797C8.27277 3.71698 8.74367 3.67499 9.03031 3.96891C9.41932 4.34681 9.37837 5.20759 9.3579 5.77444Z" fill="#222222"/>
<path d="M3.70582 14.4666C3.39871 14.4666 3.15302 14.2357 3.11207 13.9208L2.62069 10.1418C2.62069 10.1208 2.62069 10.1208 2.62069 10.0998C2.2931 9.82685 0.286638 8.08431 0 4.05337C0 4.01138 0.0409484 1.17713 2.68211 0.610275L2.70259 0.589281H2.74353C4.13578 0.190386 5.32328 -0.0195591 6.36746 0.00143541C7.28879 0.0224299 7.98491 0.40033 8.41487 1.13514C8.68103 1.57602 8.80388 2.05889 8.80388 2.52077V2.60475C8.80388 2.77271 8.80388 3.00365 8.74246 3.23458C8.98815 3.29757 9.19289 3.40254 9.35668 3.5705C9.95043 4.13735 9.90948 5.12409 9.86853 5.79591V5.8379C9.80711 7.16055 9.23384 8.44121 8.35345 9.21801C8.37392 9.26 8.37392 9.30199 8.37392 9.34398L8.8653 13.123C8.90625 13.4589 8.68103 13.7738 8.35345 13.8158L3.76724 14.4456C3.76724 14.4456 3.72629 14.4666 3.70582 14.4666ZM2.78448 0.904198C0.327586 1.38707 0.286638 4.01138 0.286638 4.05337C0.573276 8.16829 2.72306 9.80585 2.80496 9.86884L2.90733 9.93182L2.88685 10.0368C2.88685 10.0578 2.88685 10.0788 2.88685 10.0998L3.37823 13.8788C3.39871 14.0467 3.5625 14.1727 3.74677 14.1517L8.33297 13.5219C8.49677 13.5009 8.61961 13.3329 8.59914 13.144L8.10776 9.36497C8.10776 9.32298 8.08728 9.28099 8.06681 9.239L8.00539 9.13403L8.10776 9.05005C8.96767 8.35724 9.54095 7.11856 9.60237 5.81691V5.77492C9.62284 5.16608 9.66379 4.24232 9.17241 3.78044C9.00862 3.63348 8.80388 3.52851 8.53771 3.48652L8.35345 3.46552L8.43534 3.27657C8.53771 3.06663 8.51724 2.7937 8.51724 2.60475V2.52077C8.51724 2.12188 8.3944 1.68099 8.16918 1.30309C7.78017 0.652264 7.18642 0.316353 6.34698 0.316353C5.32328 0.295358 4.17672 0.484308 2.78448 0.904198ZM3.70582 14.0467C3.60345 14.0467 3.52155 13.9628 3.50108 13.8578L3.0097 10.0788C3.0097 10.0158 3.0097 9.95282 3.05065 9.91083C3.07112 9.86884 3.13254 9.82685 3.19397 9.82685L7.80065 9.19701C7.92349 9.19701 8.02586 9.28099 8.02586 9.38597L8.51724 13.165C8.51724 13.228 8.51724 13.2909 8.47629 13.3329C8.43534 13.3749 8.3944 13.4169 8.33297 13.4169L3.70582 14.0467ZM3.29634 10.1208L3.76724 13.7528L8.21013 13.144L7.73922 9.51193L3.29634 10.1208ZM2.94828 9.84784L2.86638 9.78486C2.64116 9.59591 0.675646 7.97934 0.389009 4.03237C0.389009 3.90641 0.429957 1.47105 2.80496 1.00917H2.82543C4.1972 0.589281 5.34375 0.40033 6.34698 0.421325C7.16595 0.421325 7.71875 0.715248 8.08728 1.34508C8.3125 1.72298 8.43534 2.14287 8.41487 2.52077V2.62574C8.41487 2.94066 8.41487 3.25558 8.2306 3.40254C8.2306 3.40254 8.2306 3.42353 8.21013 3.42353L8.18965 3.48652H8.10776C8.00539 3.48652 7.88254 3.48652 7.78017 3.50751C7.69828 3.50751 7.63685 3.50751 7.55496 3.52851C6.87931 3.5495 6.26509 3.61249 5.73276 3.71746L5.69181 3.5705L5.71228 3.71746C5.40517 3.78044 5.01616 3.84342 4.85237 4.15834C4.72953 4.38928 4.75 4.74619 4.89332 5.10309L4.95474 5.27105L4.79095 5.31304C2.64116 5.77492 2.35453 5.12409 2.33405 5.0611C2.31358 5.01912 2.2931 4.99812 2.27263 5.01911C2.25216 5.01911 2.23168 5.04011 2.23168 5.04011C2.23168 5.04011 2.21121 5.0611 2.23168 5.0821C2.23168 5.10309 2.27263 5.25005 2.47737 5.37602C2.90733 5.66994 3.74677 5.66994 4.93427 5.39702L5.03664 5.37602L5.09806 5.46C5.20043 5.60696 5.3028 5.71193 5.40517 5.79591C5.9375 6.15282 6.34698 5.87989 6.71552 5.62795C6.98168 5.46 7.22737 5.29204 7.51401 5.29204C7.53448 5.29204 7.55496 5.29204 7.55496 5.27105C7.55496 5.27105 7.57543 5.25005 7.57543 5.22906C7.57543 5.18707 7.55496 5.16608 7.51401 5.16608C7.18642 5.16608 6.92026 5.35503 6.65409 5.52298C6.26509 5.77492 5.91703 6.00586 5.44612 5.69094C5.07759 5.439 4.75 4.62022 4.95474 4.22133C5.09806 3.9484 5.46659 3.88541 5.73276 3.84342C6.26509 3.73845 6.87931 3.67547 7.55496 3.65447C7.5959 3.65447 7.65733 3.65447 7.69827 3.65447H7.78017C8.2306 3.63348 8.74246 3.59149 9.09052 3.9274C9.54095 4.34729 9.5 5.25005 9.47952 5.8379V5.87989C9.43858 6.9716 8.92672 8.37823 7.90302 9.13403L7.86207 9.15503H7.82112C7.80065 9.15503 7.78017 9.15503 7.7597 9.15503L3.17349 9.78486C3.13254 9.78486 3.07112 9.80586 3.03017 9.84784H2.94828ZM2.86638 1.2821C0.716595 1.70199 0.696121 3.9274 0.696121 4.01138C0.94181 7.51746 2.60022 9.15503 2.98922 9.46994C3.05065 9.44895 3.09159 9.42795 3.15302 9.42795L7.73922 8.79812C7.7597 8.79812 7.78017 8.79812 7.80065 8.79812C8.72198 8.1053 9.19289 6.80365 9.23384 5.79591V5.75392C9.25431 5.22906 9.29526 4.41028 8.92672 4.07436C8.68103 3.84342 8.25108 3.86442 7.82112 3.88541H7.73922C7.6778 3.88541 7.63685 3.88541 7.57543 3.88541C6.92026 3.90641 6.30603 3.96939 5.81465 4.07436H5.79418C5.58944 4.11635 5.28233 4.15834 5.2209 4.3053C5.07759 4.57823 5.34375 5.22906 5.60991 5.39702C5.91703 5.58597 6.08082 5.50199 6.51078 5.22906C6.77694 5.0611 7.125 4.83016 7.53448 4.83016C7.71875 4.83016 7.88254 4.97713 7.88254 5.18707C7.88254 5.27105 7.84159 5.37602 7.78017 5.439C7.71875 5.50199 7.63685 5.54398 7.53448 5.54398C7.32974 5.54398 7.125 5.66994 6.87931 5.8379C6.4903 6.08983 5.9375 6.44674 5.26185 6.00586C5.13901 5.92188 5.01616 5.81691 4.91379 5.66994C3.68534 5.94287 2.82543 5.90088 2.33405 5.58597C2.04741 5.39702 1.98599 5.16608 1.96552 5.10309C1.94504 5.01911 1.96552 4.91414 2.00647 4.83016C2.04741 4.74619 2.12931 4.7042 2.23168 4.6832C2.39547 4.64121 2.57974 4.74619 2.62069 4.93514C2.66164 5.01912 3.11207 5.31304 4.58621 5.01911C4.46336 4.64121 4.48384 4.26331 4.62715 3.99039C4.85237 3.5495 5.36422 3.46552 5.69181 3.40254H5.71228C6.26509 3.29757 6.89978 3.23458 7.57543 3.21359C7.63685 3.21359 7.71875 3.21359 7.78017 3.1926C7.86207 3.1926 7.96444 3.1926 8.04634 3.1716L8.06681 3.15061C8.14871 3.08762 8.14871 2.73072 8.14871 2.60475V2.52077C8.14871 2.18486 8.04634 1.82795 7.86207 1.51304C7.55496 0.988176 7.06358 0.736242 6.36746 0.715248C5.3847 0.694253 4.25862 0.883203 2.90733 1.2821H2.86638Z" fill="#222222"/>
<path d="M7.10427 12.7438C7.0838 12.8488 7.0019 12.8908 6.92001 12.8908C6.89953 12.8908 6.89953 12.8908 6.87906 12.8908L5.8144 12.6389L4.91354 13.2477C4.87259 13.2687 4.85212 13.2897 4.81117 13.2897C4.74975 13.2897 4.68833 13.2477 4.64738 13.1847C4.58595 13.1008 4.60643 12.9748 4.7088 12.9118L5.2616 12.5549L4.72927 12.4289C4.6269 12.4079 4.56548 12.303 4.58595 12.198C4.60643 12.093 4.7088 12.03 4.81117 12.051L5.73251 12.261L6.55147 11.7151C6.65384 11.6521 6.75621 11.6731 6.81764 11.7781C6.87906 11.8621 6.85858 11.988 6.75621 12.051L6.26483 12.3659L6.96096 12.5129C7.06333 12.5339 7.12475 12.6389 7.10427 12.7438Z" fill="#222222"/>
<path d="M4.81096 13.4153C4.68812 13.4153 4.58575 13.3523 4.52432 13.2474C4.48338 13.1634 4.4629 13.0794 4.48338 12.9954C4.50385 12.9115 4.56527 12.8275 4.62669 12.7645L4.89286 12.5965L4.68812 12.5545C4.50385 12.5126 4.381 12.3236 4.42195 12.1347C4.44243 12.0507 4.50385 11.9667 4.56527 11.9247C4.64717 11.8827 4.72907 11.8617 4.81096 11.8827L5.67088 12.0717L6.44889 11.5678C6.53079 11.5258 6.61269 11.5048 6.71506 11.5258C6.79695 11.5468 6.87885 11.6098 6.9198 11.6728C6.96075 11.7568 6.98122 11.8407 6.96075 11.9247C6.94027 12.0087 6.87885 12.0927 6.81743 12.1556L6.61269 12.2816L6.96075 12.3656C7.14501 12.4076 7.26786 12.5965 7.22691 12.7855C7.18596 12.9534 7.06312 13.0584 6.89933 13.0584C6.87885 13.0584 6.85838 13.0584 6.81743 13.0584L5.83467 12.8065L4.99523 13.3523C4.93381 13.3943 4.87238 13.4153 4.81096 13.4153ZM4.77001 12.1556C4.74954 12.1556 4.74954 12.1556 4.74954 12.1556C4.74954 12.1556 4.72907 12.1766 4.72907 12.1976C4.72907 12.2186 4.72907 12.2396 4.72907 12.2396C4.72907 12.2396 4.74954 12.2606 4.77001 12.2606L5.6504 12.4706L4.77001 13.0164C4.74954 13.0374 4.74954 13.0374 4.74954 13.0584C4.74954 13.0584 4.74954 13.0794 4.74954 13.1004C4.77001 13.1214 4.79049 13.1424 4.83144 13.1214L5.77325 12.5126L6.89933 12.7645C6.94027 12.7645 6.96075 12.7435 6.96075 12.7225C6.96075 12.7015 6.94027 12.6595 6.9198 12.6595L5.89609 12.4286L6.67411 11.9247C6.69458 11.9037 6.69458 11.9037 6.69458 11.8827C6.69458 11.8827 6.69458 11.8617 6.69458 11.8407C6.67411 11.8197 6.67411 11.8197 6.65364 11.8197C6.65364 11.8197 6.63316 11.8197 6.61269 11.8197L5.75277 12.3866L4.77001 12.1556Z" fill="#222222"/>
<path d="M6.90014 11.1472C6.87967 11.2521 6.79777 11.2941 6.71587 11.2941C6.6954 11.2941 6.6954 11.2941 6.67492 11.2941L5.61027 11.0422L4.70941 11.63C4.66846 11.651 4.64798 11.672 4.60703 11.672C4.54561 11.672 4.48419 11.63 4.44324 11.5671C4.38182 11.4831 4.40229 11.3571 4.50466 11.2941L5.07794 10.9372L4.50466 10.8113C4.40229 10.7903 4.34087 10.6853 4.36134 10.5803C4.38182 10.4753 4.48419 10.4124 4.58656 10.4334L5.5079 10.6433L6.34734 10.0764C6.42923 10.0135 6.55208 10.0345 6.6135 10.1394C6.67492 10.2234 6.65445 10.3494 6.55208 10.4124L6.0607 10.7273L6.75682 10.8742C6.85919 10.9162 6.92061 11.0422 6.90014 11.1472Z" fill="#222222"/>
<path d="M4.58555 11.8191C4.46271 11.8191 4.36034 11.7561 4.29891 11.6512C4.19654 11.4832 4.23749 11.2733 4.40128 11.1683L4.66745 11.0003L4.46271 10.9584C4.38081 10.9374 4.29891 10.8744 4.25796 10.8114C4.21702 10.7274 4.19654 10.6434 4.21702 10.5385C4.25796 10.3495 4.44223 10.2445 4.6265 10.2655L5.48641 10.4545L6.26443 9.95062C6.34633 9.90863 6.42822 9.88763 6.51012 9.90863C6.59202 9.92962 6.67391 9.9926 6.71486 10.0556C6.81723 10.2025 6.77628 10.4335 6.61249 10.5385L6.40775 10.6644L6.75581 10.7484C6.94008 10.7904 7.06292 10.9793 7.02197 11.1683C6.98103 11.3363 6.85818 11.4412 6.69439 11.4412C6.67391 11.4412 6.65344 11.4412 6.61249 11.4412L5.60926 11.2103L4.76982 11.7561C4.72887 11.7981 4.66745 11.8191 4.58555 11.8191ZM4.5446 10.5595C4.52413 10.5595 4.50365 10.5804 4.48318 10.6014C4.48318 10.6224 4.48318 10.6434 4.48318 10.6434C4.48318 10.6434 4.50365 10.6644 4.52413 10.6644L5.40452 10.8744L4.5446 11.4412C4.52413 11.4622 4.50365 11.4832 4.52413 11.5252C4.5446 11.5462 4.56508 11.5672 4.58555 11.5462L5.52736 10.9374L6.65344 11.1893C6.69439 11.1893 6.71486 11.1683 6.71486 11.1473C6.71486 11.1263 6.69439 11.0843 6.67391 11.0843L5.65021 10.8534L6.4487 10.3495C6.46917 10.3285 6.48965 10.3075 6.46917 10.2655C6.4487 10.2445 6.4487 10.2445 6.42822 10.2445C6.42822 10.2445 6.40775 10.2445 6.38728 10.2445L5.50689 10.8114L4.5446 10.5595C4.56508 10.5595 4.56508 10.5595 4.5446 10.5595Z" fill="#222222"/>
<path d="M16.8517 5.68949C15.6642 5.05966 14.5381 4.63977 13.4939 4.45082C12.1631 4.21988 11.2008 4.84971 10.6889 6.31933C10.6889 6.31933 10.5456 6.84419 10.5866 7.22209C10.3204 7.22209 10.0542 7.24308 9.78808 7.45303C9.15338 7.9359 8.88722 8.94363 9.01006 10.4132C9.09196 11.505 9.41954 12.3447 9.95187 12.9326C9.91092 12.9746 9.86998 13.0376 9.8495 13.1005L9.01006 15.6829L8.96911 15.8088L8.68248 16.7116C8.64153 16.8376 8.662 16.9635 8.70295 17.0685C8.76437 17.1735 8.84627 17.2574 8.96911 17.2994L13.3711 18.811C13.412 18.832 13.4734 18.832 13.5144 18.832C13.7191 18.832 13.8829 18.7061 13.9443 18.5171L15.1523 14.9061C15.1523 14.8641 15.1728 14.8431 15.1728 14.8011C15.1933 14.8011 15.1933 14.8011 15.2137 14.7801C15.3161 14.7381 17.773 13.5204 18.8376 9.40551C18.8376 9.38452 19.3086 6.69723 16.8517 5.68949ZM13.5963 18.3911C13.5758 18.4331 13.5348 18.4541 13.5144 18.4331L9.11243 16.9215C9.09196 16.9215 9.07148 16.9005 9.07148 16.8795C9.07148 16.8795 9.05101 16.8586 9.07148 16.8376L9.31717 16.0608L13.842 17.6353L13.5963 18.3911ZM13.9648 17.2784L9.44002 15.7039L9.86998 14.3602L14.3948 15.9348L13.9648 17.2784ZM14.7838 14.7801L14.5381 15.5569L10.0133 13.9823L10.2385 13.2265C10.259 13.1845 10.2795 13.1845 10.2999 13.1845H10.3204L14.7223 14.6961C14.7428 14.6961 14.7633 14.7171 14.7633 14.7381C14.7838 14.7171 14.7838 14.7381 14.7838 14.7801ZM18.4486 9.32154C17.9368 11.274 17.0973 12.5547 16.3808 13.3315C15.6846 14.0663 15.1114 14.3812 15.0499 14.4232C15.009 14.3602 14.9476 14.3182 14.8657 14.2972L10.4637 12.7856C10.4433 12.7856 10.4023 12.7646 10.3818 12.7646C9.82903 12.2398 9.50144 11.442 9.41955 10.3713C9.31717 9.04861 9.52192 8.16684 10.0338 7.76794C10.218 7.62098 10.4228 7.62098 10.6889 7.62098H10.7913C10.8527 7.62098 10.8937 7.62098 10.9551 7.62098L10.9346 7.22209C10.9551 7.22209 10.9756 6.59225 11.037 6.44529C11.4874 5.14363 12.2655 4.61877 13.412 4.82872C14.4357 5.01767 15.5208 5.41656 16.6674 6.0254H16.6879H16.7083C18.8376 6.94916 18.4486 9.23756 18.4486 9.32154Z" fill="#222222"/>
<path d="M13.5336 18.9992C13.4722 18.9992 13.4108 18.9782 13.3494 18.9572L8.94742 17.4456C8.8041 17.4037 8.66078 17.2777 8.59936 17.1307C8.53794 16.9838 8.51746 16.8158 8.55841 16.6688L9.74591 13.0368C9.76639 12.9948 9.76639 12.9738 9.78686 12.9318C9.27501 12.323 8.9679 11.4832 8.886 10.4125C8.76315 8.8799 9.04979 7.83017 9.72544 7.32631C9.97113 7.13736 10.2168 7.09537 10.442 7.07437C10.442 6.69647 10.5444 6.27658 10.5444 6.25559C11.0767 4.702 12.1004 4.03017 13.5132 4.28211C14.5778 4.47106 15.7039 4.89095 16.8709 5.52078L16.8914 5.54178C19.4711 6.5915 18.9593 9.38377 18.9388 9.42576C17.9151 13.4147 15.6015 14.7164 15.2739 14.8843C15.2739 14.9053 15.2739 14.9053 15.2535 14.9263L14.066 18.5584C14.025 18.8103 13.7998 18.9992 13.5336 18.9992ZM9.13169 15.8501L8.82458 16.7738C8.8041 16.8578 8.8041 16.9418 8.84505 17.0048C8.886 17.0887 8.94742 17.1307 9.02932 17.1727L13.4313 18.6843C13.5951 18.7473 13.7793 18.6423 13.8407 18.4744L15.0282 14.8423C15.0282 14.8213 15.0487 14.8003 15.0487 14.7793V14.6744L15.1716 14.6324C15.2535 14.5904 17.6489 13.4147 18.6931 9.36277C18.6931 9.34178 19.1435 6.78045 16.8095 5.8147H16.789C15.622 5.18487 14.5164 4.76498 13.4722 4.59702C12.2233 4.36609 11.3019 4.99592 10.831 6.38156C10.7901 6.50752 10.7082 6.92741 10.7491 7.22133L10.7696 7.38929H10.6058C10.3806 7.38929 10.1349 7.41028 9.88923 7.57824C9.29548 8.04012 9.04979 8.98487 9.17264 10.4125C9.25453 11.4622 9.56165 12.281 10.094 12.8479L10.1963 12.9528L10.1144 13.0578C10.094 13.0998 10.0735 13.1208 10.053 13.1628L9.13169 15.8501ZM13.5336 18.5793C13.5132 18.5793 13.4927 18.5793 13.4517 18.5584L9.04979 17.0677C8.98837 17.0468 8.94742 17.0048 8.92695 16.9418C8.90647 16.8998 8.90647 16.8368 8.92695 16.7948L9.23406 15.8711L14.025 17.5506L13.7384 18.4324C13.7179 18.4954 13.6769 18.5374 13.636 18.5584C13.5951 18.5793 13.5746 18.5793 13.5336 18.5793ZM13.5541 18.2854C13.5541 18.3064 13.5541 18.3064 13.5541 18.2854V18.2854ZM9.23406 16.8158L13.4927 18.2644L13.6565 17.7396L9.41833 16.249L9.23406 16.8158ZM14.0455 17.4456L9.25453 15.7661L9.78686 14.1495L14.5778 15.8291L14.0455 17.4456ZM9.62307 15.5981L13.8612 17.0887L14.2093 16.039L9.97113 14.5484L9.62307 15.5981ZM14.6188 15.7451L9.82781 14.0655L10.1144 13.1838C10.1554 13.0998 10.2373 13.0368 10.3192 13.0368C10.3397 13.0368 10.3601 13.0368 10.4011 13.0578L14.7826 14.5484C14.844 14.5694 14.8849 14.6114 14.9054 14.6534C14.9259 14.6954 14.9463 14.7584 14.9259 14.8213L14.6188 15.7451ZM10.1759 13.8766L14.414 15.3672L14.5983 14.8003L10.3397 13.3517L10.1759 13.8766ZM15.0078 14.5904L14.9463 14.5274C14.9054 14.4854 14.8644 14.4644 14.8235 14.4434L10.4216 12.9318C10.4011 12.9318 10.3806 12.9108 10.3601 12.9108H10.3192L10.2782 12.8898C9.70497 12.344 9.3569 11.5042 9.27501 10.4125C9.17264 9.02686 9.39785 8.1031 9.95065 7.68321C10.1759 7.51526 10.442 7.51526 10.6877 7.51526H10.7901H10.8106L10.7901 7.11636H10.8106C10.8106 7.09537 10.8106 7.05338 10.8106 7.01139C10.831 6.73846 10.8515 6.52852 10.8925 6.42354C11.3634 5.0799 12.2028 4.49205 13.4108 4.72299C14.455 4.91194 15.5606 5.31084 16.7071 5.94067L16.7481 5.96167C18.9183 6.86443 18.6112 9.11084 18.5703 9.36277V9.38377C18.0379 11.4412 17.1371 12.7429 16.4614 13.4567C15.7653 14.2125 15.1511 14.5484 15.0897 14.5694L15.0078 14.5904ZM10.442 12.6379C10.4625 12.6379 10.483 12.6589 10.5035 12.6589L14.9054 14.1705C14.9668 14.1915 15.0078 14.2125 15.0692 14.2545C15.2535 14.1495 15.7244 13.8346 16.2772 13.2467C16.9119 12.5539 17.7922 11.2943 18.3041 9.29979C18.3451 9.04785 18.6112 7.03238 16.6662 6.2136C16.6457 6.2136 16.6457 6.2136 16.6252 6.19261C16.6252 6.19261 16.6047 6.19261 16.5843 6.17161C15.4787 5.56277 14.3935 5.16388 13.3903 4.99592C12.3052 4.80697 11.6091 5.28984 11.1791 6.50752C11.1586 6.57051 11.1177 6.86443 11.1177 7.01139C11.1177 7.11636 11.0972 7.17935 11.0972 7.22133L11.1177 7.7462H10.9744C10.9129 7.7462 10.8515 7.7462 10.7901 7.7462H10.6877C10.4216 7.7462 10.2578 7.7462 10.1144 7.85117C9.64354 8.20808 9.4388 9.04785 9.54117 10.3285C9.62307 11.3782 9.93018 12.134 10.442 12.6379Z" fill="#222222"/>
<path d="M9.03118 15.6836L8.99023 15.8096C8.99023 15.7886 8.99023 15.7676 8.99023 15.7466C9.01071 15.7256 9.01071 15.7046 9.03118 15.6836Z" fill="#222222"/>
<path d="M8.8457 16.6703V15.8095C8.8457 15.7675 8.8457 15.7255 8.86618 15.6835C8.88665 15.6416 8.90713 15.5996 8.9276 15.5786L9.41898 15.0117L8.8457 16.6703Z" fill="#222222"/>
</g>
<defs>
<clipPath id="clip0_90_7292">
<rect width="19" height="19" fill="white"/>
</clipPath>
</defs>
</svg>
