<svg width="480" height="490" fill="none" xmlns="http://www.w3.org/2000/svg"><g opacity=".5" fill="#738CA8"><path opacity=".5" d="M213.924 413.883c-1.304 1.204-2.708 2.307-3.911 3.611-2.407 2.407-4.713 4.914-7.12 7.22a577.396 577.396 0 01-11.533 10.631c-1.505 1.304-3.209 2.206-4.814 3.41-3.009 2.306-6.017 4.613-9.126 6.919-.201.201-.502.401-.702.602-.903 1.003-.702 1.605.602 1.905 1.103.301 2.206.301 3.209.502.802.1 1.705.2 2.507.401l12.034 2.708c1.605.301 3.21.401 4.714.702 3.61.602 7.22 1.304 10.931 1.905 3.31.502 6.719 1.003 10.129 1.103 7.521.201 15.043.402 22.464 1.304 4.814.502 9.527.802 14.341 1.304 6.218.501 12.335 1.103 18.553 1.604 1.204.101 2.307 0 3.51.101 1.504.1 3.109.2 4.613.301.702 0 1.404.1 2.006 0 1.504-.101 1.906-1.003 1.103-2.207-.802-1.203-1.805-2.306-2.707-3.51-2.207-3.309-4.614-6.318-7.021-9.427-2.306-2.908-5.014-5.716-6.318-9.427-.702-2.106-2.005-3.911-3.108-5.816-.702-1.204-.402-2.006.401-3.009 2.106-2.306 4.212-4.613 6.217-7.12 1.505-1.805 2.808-3.911 4.212-5.817 1.705-2.407 3.41-4.814 5.015-7.321.802-1.103.501-2.106-.702-2.507-.401-.2-.903-.1-1.404 0-2.207.502-4.313 1.103-6.519 1.404-5.616.702-11.232 1.103-16.848 1.705-.702.1-1.203-.201-1.404-.903-.1-.401-.201-.702-.301-1.103-1.404-5.014-3.41-9.728-5.716-14.341-1.003-2.005-1.705-4.212-2.507-6.318-.502-1.203-1.003-2.407-1.605-3.51-.702-1.203-1.203-1.203-2.106-.2-2.006 2.306-3.911 4.613-5.917 6.819-2.006 2.206-4.212 4.312-6.318 6.519-4.011 4.212-8.023 8.424-12.034 12.736-2.307 2.407-4.613 4.814-6.92 7.12.1-.1.1 0 .1 0zm-31.49 30.588c-.1-.201-.1-.301-.2-.502 2.407-1.905 4.613-4.011 7.22-5.716 4.914-3.109 8.826-7.221 13.038-11.031 2.106-1.906 3.911-4.212 5.916-6.318 2.407-2.407 5.015-4.714 7.422-7.221 3.811-3.811 7.521-7.822 11.232-11.734 2.206-2.306 4.312-4.713 6.719-6.819 2.708-2.407 5.215-4.914 7.521-7.622 1.404-1.604 2.808-3.008 4.212-4.513.301.201.402.301.402.401 1.203 3.109 2.407 6.318 3.71 9.427.502 1.204 1.304 2.407 1.805 3.611 2.207 5.917 4.413 11.833 6.519 17.851.702 2.005 1.203 4.111 1.805 6.217-.602.201-1.003.402-1.504.602-3.711 1.204-7.321 2.507-11.032 3.61-3.008.903-6.017 1.705-9.025 2.608-1.204.301-2.508.602-3.711.902-2.908.903-5.716 1.806-8.625 2.608-3.209.902-6.619 1.604-9.828 2.607-3.71 1.204-7.521 2.207-11.432 2.909-1.505.301-3.009 1.003-4.513 1.604-1.003.401-1.906.903-2.909 1.204-2.106.702-4.212 1.303-6.318 2.005-1.905.602-3.811 1.304-5.716 2.006-.802.602-1.705 1.003-2.708 1.304zm102.393 13.639c-2.407 0-4.714 0-6.92-.201-4.212-.2-8.524-.401-12.736-.702-3.21-.2-6.519-.702-9.728-1.003-4.513-.401-9.026-.802-13.639-1.203-3.911-.301-7.822-.702-11.734-.903-3.811-.2-7.621-.1-11.432-.3-2.307-.101-4.613-.502-6.92-.903-2.608-.401-5.215-1.103-7.822-1.504-4.714-.803-9.327-1.505-14.041-2.307-1.604-.301-3.209-.802-4.914-1.304v-.401c.502-.2 1.003-.301 1.505-.501 1.303-.301 2.607-.502 4.011-.803 4.212-1.002 8.324-2.005 12.536-2.908 1.103-.301 2.307-.401 3.41-.602l9.627-1.805c3.009-.601 6.017-1.203 9.026-1.705 5.115-.802 10.229-1.704 15.143-3.309 3.109-1.003 6.218-1.805 9.427-2.708 3.209-.902 6.419-1.705 9.628-2.507 2.005-.501 3.911-1.103 5.816-1.605.602-.2 1.003 0 1.304.602 1.003 1.906 2.006 3.811 3.109 5.717 1.504 2.707 2.607 5.616 4.814 8.022 1.504 1.605 2.808 3.51 4.212 5.416 2.106 2.908 4.112 5.917 6.218 8.925.1 0 .1.101.1.502zm-97.479-13.238v-.401c1.505-.502 3.109-.903 4.613-1.404 3.009-1.003 5.917-1.906 8.826-3.209 1.504-.602 2.908-1.204 4.513-1.605 2.607-.602 5.114-1.103 7.722-1.805 2.106-.501 4.111-1.304 6.217-1.805 3.811-1.103 7.722-2.006 11.533-3.109 2.407-.702 4.814-1.404 7.321-2.006 2.106-.602 4.313-.902 6.419-1.504 5.014-1.504 9.928-3.209 14.942-4.714.602-.2 1.304-.401 2.006-.401 1.304 0 2.206-.301 2.607-1.705.101-.3.402-.501.602-.601 1.805-1.304 3.51-2.608 5.315-3.911 2.608-1.906 5.316-3.711 8.023-5.617.301-.2.502-.3.803-.501-1.304 2.507-2.708 4.914-4.413 7.02-1.404 1.906-3.209 3.61-4.613 5.516-1.906 2.507-4.413 4.112-7.421 4.713-.602.101-1.204.201-1.806.401-5.616 1.605-11.332 3.31-16.948 4.915-6.418 1.805-12.736 3.61-19.355 4.512-5.416.803-10.731 2.106-16.146 3.109-5.015 1.003-10.129 2.006-15.144 3.109-2.005.201-3.811.602-5.616 1.003zm71.204-35.702c6.819-.702 13.238-1.304 19.856-2.006-4.813 4.914-10.429 8.124-15.845 12.035-1.304-3.31-2.507-6.519-4.011-10.029z"/><path opacity=".5" d="M249.126 415.086c.502-.1 1.003-.201 1.304-.401 1.003-.502 1.906-1.003 2.908-1.505.502-.3.903-.702.602-1.303-.301-.702-.802-.602-1.404-.401-1.103.501-2.206 1.002-3.309 1.604-.702.502-.401 1.204-.101 2.006zm6.318.903c0-.301.201-.802 0-1.203-.1-.201-.802-.301-1.103-.201-1.404.702-2.808 1.404-4.212 2.206-.201.101-.301.602-.301.903 0 .201.401.301.702.401.1.1.401 0 .502-.1 1.504-.401 2.808-1.103 4.412-2.006zm-2.307-5.915c-.301-1.104-.702-1.505-1.604-1.104-.702.301-1.404.502-2.006.702-.702.201-.702.803-.501 1.304.2.602.702.602 1.203.502.301-.101.702-.201 1.003-.402.602-.2 1.203-.601 1.905-1.002zm-45.733 16.747c-.501-.502-1.303-.301-1.404.401-.2.902-.1 1.905-.1 2.908 0 .1.602.401.802.401.803-.401 1.304-2.707.803-3.51 0-.2-.101-.2-.101-.2zm-4.611 4.913c1.203-.2 1.203-.2 1.805-3.51-.602-.501-1.203-.702-1.404.301-.2 1.003-.2 2.106-.401 3.209zm49.642-25.874c-.602-.702-1.705-.803-2.206-.301-.201.2-.201.802-.101 1.103.301.602 1.505.702 1.906.201.301-.301.301-.803.401-1.003zm18.751 48.439c2.207.702 4.413.702 6.619.301.301-.1.702-.602.702-.903 0-.3-.401-.601-.802-.802-.201-.1-.602-.1-.903-.1-1.604.1-3.209.301-4.713.501-.401 0-.702.301-1.003.502 0 .2.1.401.1.501zm-57.162-2.908c.201 0 .602.201 1.003.1 1.204-.3 2.407-.702 3.711-1.103.501-.1 1.003-.301.802-1.003-.1-.702-.602-.802-1.304-.702-1.303.301-2.607.602-3.911 1.003-.702.301-.902 1.003-.301 1.705zm1.906-4.112a68.15 68.15 0 00-4.814 1.003c-.301.1-.702.401-.702.702 0 .301.201.702.501.802 1.204.602 4.614-.702 5.215-2.005-.1-.101-.1-.101-.2-.502zm-10.129.301c.301 1.303 1.103 1.404 1.905 1.303.502-.1 1.103-.2 1.605-.401.301-.2.501-.602.702-.902-.401-.301-.802-.803-1.103-.702-.903.1-1.906.501-3.109.702zm62.379 5.516c-.301.702-.502 1.404.401 1.805.2.1.902-.401 1.003-.702.301-.602-.201-1.003-1.404-1.103zm-2.108 1.603c-.1-.702 0-1.203-.201-1.604-.1-.201-.601-.201-.902-.301-.1.501-.301 1.003-.301 1.504 0 .1.702.201 1.404.401zm-2.707-41.919c.2.101.401.301.501.301 1.104.101 2.207.101 3.31.101.2 0 .501-.402.702-.702-.301-.301-.502-.702-.802-.803-1.003-.1-1.906-.2-2.909-.2-.301 0-.602.2-.702.401-.2.301-.1.602-.1.902zm2.809-2.206c.502.501 2.708.802 3.31.501.601-.301.702-1.103 0-1.303-1.003-.301-2.006-.402-3.009-.402-.602 0-.702.702-.301 1.204z"/></g><g opacity=".5" stroke="#738CA8" stroke-width="2.507" stroke-linecap="round" stroke-linejoin="round"><path opacity=".5" d="M292.949 401.047c1.204-.702 2.407-1.304 3.51-1.906"/><path opacity=".5" d="M303.984 395.832c20.959-8.223 40.916-8.223 59.57-32.092 22.665-29.083 17.851-117.134-66.39-120.343" stroke-dasharray="7.9 7.9"/><path opacity=".5" d="M293.051 243.297h-4.012"/></g><path opacity=".5" d="M220.042 236.276s-50.945 1.103-76.217-18.253c-42.121-32.192-22.966-152.234 61.174-111.017 82.536 40.416 133.381 41.619 146.72 14.642 19.756-39.613-25.774-93.066-79.528-68.796-53.854 24.37-8.925 59.77 10.731 38.71 19.656-21.06 19.155-69.198-21.762-90.258" stroke="#738CA8" stroke-width="2.507" stroke-miterlimit="10" stroke-linecap="round" stroke-linejoin="round" stroke-dasharray="8.02 8.02"/><path opacity=".5" d="M207.41 51.447c-.502.703-.903 1.104-1.103 1.605-1.104 2.808-2.307 5.516-3.21 8.324-.401 1.203-1.103 1.504-2.306 1.604-2.207.201-4.413.602-6.519 1.104-1.705.4-2.006 1.404-.702 2.707 1.304 1.304 2.608 2.708 4.112 3.912 1.203 1.002 1.705 2.005 1.203 3.61-.501 1.604-.802 3.209-1.003 4.914-.1 1.003-.1 2.106.101 3.109.2 1.103.902 1.303 1.905.702 2.106-1.304 4.313-2.507 6.419-3.811 1.203-.803 2.206-.702 3.51-.2a52.894 52.894 0 007.722 2.406c3.008.802 3.811-.1 3.209-3.209-.1-.502-.301-1.103-.502-1.605-.3-.702-.601-1.404-.802-2.106-1.304-3.61-1.003-4.813 2.006-7.12 1.805-1.404 3.008-3.009 3.61-5.215.401-1.504-.2-2.206-1.604-2.006-2.006.301-4.112.702-6.118 1.104-.501.1-1.003.4-1.605.501-2.005.602-2.206.501-3.108-1.504-1.104-2.207-2.106-4.513-3.31-6.72-.602-.802-1.203-1.303-1.905-2.105zm.301 3.61c.401.703.702.903.802 1.204.802 1.906 1.604 3.811 2.306 5.817.903 2.407 1.404 2.708 3.811 1.905 2.006-.601 4.112-1.203 6.218-1.705.301-.1.702.1 1.504.201-.601.802-.902 1.404-1.404 1.805-1.002 1.003-2.106 2.006-3.108 3.009-1.003 1.003-1.605 2.306-1.304 3.81.301 1.505.802 3.11 1.304 4.614.3 1.003.802 1.905.401 3.209-.602-.1-1.104-.1-1.605-.3-2.708-.904-5.415-1.806-8.023-2.809-.802-.3-1.604-.401-2.306.2a93.344 93.344 0 01-5.215 3.41c-.401.301-.903.502-1.806.903.502-2.307.903-4.312 1.505-6.218.802-2.908.501-3.109-2.207-5.315-.2-.2-.501-.2-.702-.401-.902-.702-1.805-1.404-2.206-2.908 1.504-.1 2.808-.201 4.112-.301.802-.1 1.705 0 2.507-.1.903 0 1.504-.502 1.906-1.405.902-2.306 1.805-4.513 2.607-6.719.201-.602.501-1.003.903-1.905zM332.766 419.8c.3.803.3 1.404.601 1.806 1.404 2.607 2.808 5.214 4.413 7.822.702 1.103.501 1.805-.201 2.808-1.203 1.805-2.306 3.811-3.309 5.817-.802 1.604-.201 2.406 1.605 2.206 1.905-.201 3.71-.401 5.616-.702 1.504-.301 2.607-.1 3.61 1.304.902 1.404 2.006 2.707 3.109 3.911.702.702 1.504 1.404 2.407 1.905 1.002.502 1.604.1 1.704-1.003.301-2.507.703-4.914 1.003-7.421.201-1.404.803-2.206 2.006-2.908a59.581 59.581 0 006.719-4.413c2.507-1.905 2.307-3.008-.401-4.513a4.714 4.714 0 00-1.504-.601c-.702-.301-1.504-.402-2.206-.702-3.611-1.204-4.413-2.207-4.313-6.118.101-2.206-.401-4.312-1.805-6.117-.903-1.204-1.805-1.304-2.607 0-1.104 1.805-2.006 3.61-3.009 5.515-.301.502-.401 1.003-.602 1.605-.802 2.006-1.003 2.006-3.109 1.504-2.406-.601-4.813-1.203-7.321-1.705-.601-.2-1.404 0-2.406 0zm3.008 2.006c.803.1 1.204.1 1.505.201 2.005.601 4.011 1.203 5.916 1.805 2.508.802 2.909.602 3.912-1.705.802-2.006 1.704-3.911 2.607-5.917.1-.301.501-.501 1.103-1.103.201 1.003.502 1.605.502 2.206.2 1.404.3 2.909.401 4.313.1 1.504.802 2.707 2.106 3.409a33.872 33.872 0 004.412 1.805c1.003.402 2.006.602 2.708 1.705-.401.401-.802.803-1.203 1.003l-7.221 4.513c-.802.502-1.304 1.003-1.404 1.906-.201 2.106-.401 4.111-.602 6.217-.1.502-.2 1.003-.501 1.906-1.504-1.906-2.808-3.41-3.911-5.015-1.805-2.507-2.106-2.406-5.516-1.704-.301.1-.501.2-.802.3-1.103.201-2.207.502-3.611-.1.803-1.203 1.605-2.306 2.307-3.41.501-.702 1.003-1.303 1.504-2.005.602-.702.602-1.505.101-2.307l-3.611-6.318c-.1-.301-.301-.802-.702-1.705zM138.613 35.2c.201.602.201 1.003.401 1.304 1.003 1.905 1.906 3.81 2.909 5.616.401.802.301 1.304-.201 2.006a54.092 54.092 0 00-2.507 4.011c-.602 1.103-.201 1.705 1.103 1.605 1.304-.1 2.708-.2 4.012-.401 1.103-.2 1.905 0 2.507 1.002.601 1.003 1.404 1.906 2.106 2.808a11.507 11.507 0 001.705 1.404c.702.402 1.103.1 1.203-.702.301-1.704.702-3.51.903-5.214.1-1.003.702-1.505 1.504-2.006 1.705-.903 3.309-1.906 4.914-3.009 1.805-1.303 1.705-2.106-.201-3.209a3.7 3.7 0 00-1.103-.501c-.501-.2-1.003-.401-1.504-.502-2.507-1.003-3.109-1.705-2.908-4.412.1-1.605-.201-3.009-1.103-4.413-.602-.902-1.204-.903-1.806-.1-.802 1.203-1.504 2.507-2.206 3.81-.201.302-.301.703-.501 1.104-.602 1.404-.803 1.404-2.307 1.003-1.705-.502-3.41-1.003-5.115-1.404-.501.1-1.103.2-1.805.2zm2.106 1.505c.602.1.803.1 1.003.2 1.404.502 2.808.903 4.212 1.504 1.705.702 2.106.502 2.808-1.103a52.144 52.144 0 012.006-4.111c.1-.201.401-.402.802-.803.101.702.301 1.103.301 1.605.1 1.003.1 2.106.201 3.109.1 1.002.501 1.905 1.404 2.507 1.003.501 2.005 1.003 3.109 1.404.702.3 1.404.501 1.905 1.304-.301.3-.602.501-.903.702-1.704 1.002-3.51 2.005-5.315 3.008-.501.301-.902.602-1.003 1.304-.2 1.504-.401 2.908-.601 4.413-.101.4-.201.702-.401 1.404-1.003-1.404-1.906-2.508-2.608-3.711-1.203-1.805-1.404-1.705-3.911-1.304-.201 0-.401.2-.602.2-.802.101-1.604.302-2.607-.2.601-.902 1.203-1.604 1.705-2.306.401-.502.802-.903 1.103-1.404.401-.502.401-1.104.1-1.705-.802-1.505-1.605-3.11-2.407-4.614.1-.4-.1-.701-.301-1.403zm141.304 433.538c.201.602.201 1.003.402 1.304 1.002 1.905 1.905 3.811 2.908 5.616.401.802.301 1.304-.201 2.006a53.937 53.937 0 00-2.507 4.011c-.602 1.103-.2 1.705 1.103 1.605 1.304-.101 2.708-.201 4.012-.401 1.103-.201 1.905 0 2.507 1.002.602 1.003 1.404 1.906 2.106 2.808a11.464 11.464 0 001.705 1.404c.702.402 1.103.101 1.203-.702.301-1.704.702-3.51.903-5.214.1-1.003.702-1.505 1.504-2.006 1.705-.903 3.31-1.906 4.914-3.009 1.805-1.303 1.705-2.106-.2-3.209a3.71 3.71 0 00-1.104-.501c-.501-.201-1.002-.401-1.504-.502-2.507-1.003-3.109-1.705-2.908-4.412.1-1.605-.201-3.009-1.103-4.413-.602-.903-1.204-.903-1.805-.1-.803 1.203-1.505 2.507-2.207 3.811-.2.3-.301.702-.501 1.103-.602 1.404-.802 1.404-2.307 1.003-1.705-.502-3.41-1.003-5.114-1.404-.502.2-1.104.2-1.806.2zm2.106 1.605c.602.1.803.1 1.003.2 1.404.502 2.808.903 4.212 1.505 1.705.702 2.106.501 2.808-1.104a52.01 52.01 0 012.006-4.111c.1-.201.401-.401.802-.803.101.702.301 1.104.301 1.605.101 1.003.101 2.106.201 3.109.1 1.003.501 1.905 1.404 2.507 1.003.502 2.006 1.003 3.109 1.404.702.301 1.404.502 1.905 1.304-.301.301-.602.501-.902.702a245.705 245.705 0 01-5.316 3.008c-.501.301-.902.602-1.002 1.304-.201 1.504-.402 2.908-.602 4.413-.1.401-.201.702-.401 1.404-1.003-1.404-1.906-2.507-2.608-3.711-1.203-1.805-1.404-1.705-3.911-1.304-.201 0-.401.201-.602.201-.802.1-1.604.301-2.607-.201.602-.902 1.203-1.604 1.705-2.306.401-.502.802-.903 1.103-1.404.401-.502.401-1.103.1-1.705-.802-1.504-1.604-3.109-2.407-4.613.101-.502-.1-.803-.301-1.404zm63.98-331.548c.402.702.502 1.203.803 1.504 1.705 2.106 3.409 4.212 5.215 6.218.802.902.702 1.504.3 2.507-.802 1.805-1.404 3.711-2.005 5.716-.401 1.505.301 2.207 1.805 1.705 1.604-.501 3.309-.902 4.814-1.604 1.303-.502 2.406-.502 3.409.601 1.003 1.103 2.207 2.006 3.41 2.909.702.501 1.605 1.003 2.507 1.303 1.003.301 1.404-.2 1.304-1.203-.1-2.206-.1-4.513-.301-6.719-.1-1.304.401-2.106 1.304-2.909 1.805-1.604 3.61-3.309 5.315-5.114 1.905-2.106 1.605-3.109-1.103-3.911-.502-.201-1.003-.201-1.504-.301l-2.106-.301c-3.41-.501-4.313-1.304-4.814-4.714-.301-2.005-1.103-3.71-2.608-5.114-1.003-.903-1.805-.802-2.306.401-.702 1.705-1.204 3.61-1.705 5.415l-.301 1.505c-.401 1.905-.602 2.005-2.607 1.905-2.307-.1-4.513-.2-6.82-.301-.301 0-1.003.301-2.006.502zm3.109 1.304c.702-.101 1.003-.101 1.304-.101 1.905.201 3.711.401 5.616.702 2.307.301 2.708.101 3.209-2.206.401-1.906.903-3.811 1.304-5.716.1-.301.401-.602.802-1.204.401.802.702 1.304.903 1.906.401 1.303.702 2.507 1.103 3.81.401 1.304 1.103 2.307 2.407 2.708 1.404.401 2.808.702 4.212.903.902.2 1.905.2 2.708 1.103-.301.401-.602.802-.903 1.103-1.905 1.705-3.811 3.51-5.716 5.215-.602.501-1.003 1.103-.903 1.905.201 1.906.301 3.711.502 5.616 0 .502 0 .903-.101 1.806-1.604-1.404-3.008-2.608-4.312-3.811-2.006-2.006-2.307-1.805-5.215-.602-.201.1-.401.301-.602.401-1.003.401-1.905.802-3.309.502.501-1.204 1.003-2.307 1.504-3.41.301-.702.702-1.304 1.003-2.006.401-.802.201-1.404-.301-2.106-1.404-1.705-2.808-3.309-4.212-5.014-.301-.401-.501-.802-1.003-1.504zM239.398 21.46c.201.602.201 1.003.402 1.304 1.002 1.905 1.905 3.81 2.908 5.616.401.802.301 1.303-.201 2.006a54.09 54.09 0 00-2.507 4.01c-.602 1.104-.2 1.706 1.103 1.605 1.304-.1 2.708-.2 4.012-.4 1.103-.201 1.905 0 2.507 1.002.602 1.003 1.404 1.906 2.106 2.808a11.514 11.514 0 001.705 1.404c.702.401 1.103.1 1.203-.702.301-1.705.702-3.51.903-5.215.1-1.003.702-1.504 1.504-2.005 1.705-.903 3.31-1.906 4.914-3.009 1.805-1.304 1.705-2.106-.2-3.21a3.704 3.704 0 00-1.104-.5c-.501-.201-1.002-.402-1.504-.502-2.507-1.003-3.109-1.705-2.908-4.413.1-1.604-.201-3.008-1.103-4.412-.602-.903-1.204-.903-1.805-.1-.803 1.203-1.505 2.507-2.207 3.81-.2.301-.301.702-.501 1.104-.602 1.404-.802 1.404-2.307 1.002-1.705-.501-3.41-1.002-5.114-1.404-.502.201-1.104.201-1.806.201zm2.106 1.605c.602.1.803.1 1.003.2 1.404.502 2.808.903 4.212 1.504 1.705.702 2.106.502 2.808-1.103a52.146 52.146 0 012.006-4.111c.1-.201.401-.402.802-.803.101.702.301 1.103.301 1.605.101 1.003.101 2.106.201 3.109.1 1.003.501 1.905 1.404 2.507 1.003.501 2.006 1.003 3.109 1.404.702.3 1.404.501 1.905 1.304-.301.3-.602.501-.902.702a249.554 249.554 0 01-5.316 3.008c-.501.301-.902.602-1.002 1.304-.201 1.504-.402 2.908-.602 4.413-.1.4-.201.702-.401 1.404-1.003-1.404-1.906-2.508-2.608-3.711-1.203-1.805-1.404-1.705-3.911-1.304-.201 0-.401.2-.602.2-.802.101-1.604.302-2.607-.2.602-.902 1.203-1.604 1.705-2.306.401-.502.802-.903 1.103-1.404.401-.502.401-1.104.1-1.705-.802-1.505-1.604-3.11-2.407-4.613.101-.502-.1-.803-.301-1.404zm105.302-4.01c-.201.601-.401.902-.502 1.303-.301 2.106-.702 4.212-.902 6.318-.101.903-.502 1.204-1.304 1.505a32.623 32.623 0 00-4.312 1.805c-1.103.601-1.103 1.303-.101 2.005a60.71 60.71 0 003.41 2.006c1.003.502 1.504 1.103 1.404 2.307-.1 1.203 0 2.407.1 3.51.101.702.301 1.504.602 2.106.301.702.802.702 1.404.2 1.204-1.203 2.507-2.406 3.811-3.71.702-.702 1.404-.903 2.407-.702 1.905.2 3.811.401 5.716.401 2.207 0 2.608-.702 1.705-2.708-.2-.4-.401-.702-.602-1.003a14.46 14.46 0 00-.902-1.303c-1.504-2.307-1.504-3.11.2-5.316 1.003-1.203 1.605-2.607 1.605-4.212 0-1.103-.501-1.504-1.504-1.103-1.404.502-2.708 1.204-4.012 1.806-.401.2-.702.4-1.003.601-1.303.803-1.504.702-2.407-.501-1.103-1.404-2.206-2.808-3.409-4.112-.301-.501-.803-.702-1.404-1.203zm.802 2.507c.401.4.602.501.802.702.903 1.203 1.705 2.407 2.608 3.61 1.003 1.504 1.404 1.605 2.908.702 1.304-.802 2.708-1.504 4.012-2.206.2-.1.501-.1 1.103-.1-.301.701-.401 1.103-.702 1.504-.502.902-1.103 1.705-1.605 2.607-.602.903-.702 1.906-.301 2.808a27.678 27.678 0 001.705 2.908c.401.602.903 1.204.802 2.107-.401 0-.802.1-1.103.1l-6.017-.602c-.602-.1-1.103 0-1.605.502-1.002 1.103-2.005 2.206-3.008 3.209-.301.3-.602.501-1.103.902 0-1.705-.101-3.109 0-4.513.1-2.206-.201-2.306-2.407-3.31-.201-.1-.401-.1-.602-.2-.702-.4-1.504-.702-2.006-1.604a93.742 93.742 0 002.808-.903c.602-.2 1.104-.3 1.705-.501.602-.2 1.003-.602 1.103-1.304.201-1.705.502-3.41.702-5.114 0-.301.101-.703.201-1.304zM129.285 429.326c0 .602-.101 1.003 0 1.404.401 2.106.802 4.212 1.303 6.218.201.902-.1 1.304-.702 1.905a53.647 53.647 0 00-3.51 3.209c-.902.903-.601 1.605.602 1.906 1.304.301 2.608.602 3.911.702 1.103.1 1.805.501 2.106 1.705.301 1.103.803 2.206 1.304 3.309a5.694 5.694 0 001.203 1.805c.602.602 1.003.402 1.404-.3.803-1.605 1.605-3.21 2.307-4.814.401-.903 1.003-1.304 2.006-1.504a49.797 49.797 0 005.516-1.505c2.106-.702 2.206-1.504.702-3.109-.301-.301-.602-.501-.903-.802-.401-.301-.903-.602-1.304-.903-2.206-1.604-2.507-2.507-1.604-5.014.501-1.504.601-3.008.1-4.513-.401-1.003-.903-1.203-1.705-.601-1.103 1.002-2.106 2.005-3.209 3.108-.301.301-.502.602-.702.903-1.003 1.103-1.103 1.103-2.507.301a190.283 190.283 0 00-4.613-2.708c-.402-.401-.903-.501-1.705-.702zm1.604 2.006c.502.2.803.301 1.003.401 1.204.802 2.407 1.705 3.61 2.507 1.505 1.103 1.806 1.103 3.009-.301 1.003-1.203 2.006-2.306 3.009-3.409.2-.201.501-.201 1.002-.502 0 .702 0 1.204-.1 1.605-.2 1.003-.501 2.005-.702 3.008-.2 1.003-.1 2.006.702 2.708.802.802 1.705 1.504 2.608 2.206.601.502 1.203.803 1.504 1.705-.401.201-.702.401-1.003.401-2.006.502-3.911 1.003-5.917 1.505-.602.1-1.103.401-1.304 1.002-.601 1.405-1.203 2.708-1.805 4.112-.1.301-.401.602-.702 1.204-.601-1.605-1.103-2.909-1.504-4.313-.602-2.106-.903-2.106-3.41-2.306-.2 0-.401.1-.601 0-.803-.101-1.605-.201-2.508-.903.803-.702 1.605-1.203 2.307-1.805.501-.401 1.003-.702 1.504-1.003.502-.401.702-.902.602-1.604-.401-1.705-.702-3.41-1.003-5.115-.1 0-.2-.401-.301-1.103zm-28.28-164.169c.201.601.301 1.002.502 1.303 1.103 1.805 2.106 3.711 3.309 5.416.502.802.401 1.304-.1 2.006-.802 1.303-1.605 2.707-2.206 4.212-.502 1.103-.101 1.704 1.203 1.604 1.304-.2 2.608-.301 3.911-.602 1.103-.2 1.906-.1 2.608.903.702 1.003 1.504 1.905 2.306 2.708.502.501 1.103 1.003 1.805 1.303.702.402 1.104 0 1.204-.802.2-1.805.401-3.51.602-5.315.1-1.003.601-1.605 1.404-2.106 1.604-1.003 3.209-2.106 4.713-3.309 1.705-1.405 1.605-2.207-.401-3.21a4.9 4.9 0 00-1.103-.401c-.502-.2-1.003-.301-1.605-.401-2.607-.802-3.209-1.504-3.209-4.212 0-1.605-.401-3.009-1.404-4.312-.702-.803-1.304-.903-1.805.1-.702 1.304-1.304 2.607-2.006 3.911-.2.401-.2.702-.401 1.103-.501 1.404-.702 1.505-2.206 1.103-1.705-.401-3.51-.702-5.215-1.002-.602-.201-1.103-.101-1.906 0zm2.207 1.404c.601 0 .802 0 1.003.1 1.404.401 2.908.802 4.312 1.203 1.805.502 2.106.401 2.708-1.303.501-1.404 1.103-2.808 1.704-4.212.101-.201.402-.402.803-.803.2.702.401 1.103.401 1.605.2 1.003.2 2.106.401 3.109.1 1.003.602 1.905 1.605 2.407 1.003.501 2.106.902 3.209 1.203.702.201 1.404.401 2.006 1.103-.301.301-.502.602-.803.802-1.705 1.104-3.409 2.207-5.014 3.31-.502.301-.903.702-.903 1.404-.1 1.504-.2 2.908-.301 4.413 0 .401-.1.702-.3 1.404-1.104-1.304-2.006-2.407-2.909-3.51-1.303-1.806-1.504-1.605-3.911-1.104-.2 0-.401.201-.501.201-.803.201-1.605.401-2.608 0 .602-.903 1.103-1.705 1.605-2.407.301-.501.702-1.003 1.003-1.404.401-.501.401-1.103 0-1.705-.903-1.504-1.805-2.908-2.708-4.412-.301-.502-.501-.803-.802-1.404zm63.784 98.08c-.502.702-.903 1.103-1.103 1.604-1.103 2.808-2.307 5.516-3.31 8.324-.401 1.204-1.103 1.504-2.306 1.605-2.207.2-4.413.601-6.519 1.103-1.705.401-2.006 1.404-.702 2.708 1.304 1.303 2.607 2.707 4.112 3.911 1.203 1.003 1.705 2.005 1.203 3.61-.501 1.605-.802 3.209-1.003 4.914-.1 1.003-.1 2.106.101 3.109.2 1.103.902 1.304 1.905.702 2.106-1.304 4.312-2.507 6.418-3.811 1.204-.702 2.207-.702 3.51-.201 2.508 1.003 5.115 1.806 7.722 2.508 3.009.802 3.811-.101 3.21-3.21a9.883 9.883 0 00-.502-1.604c-.301-.702-.601-1.404-.802-2.106-1.304-3.61-1.003-4.814 2.006-7.12 1.805-1.404 3.008-3.009 3.61-5.215.401-1.505-.1-2.207-1.605-2.006-2.005.301-4.111.702-6.117 1.103-.502.1-1.003.401-1.605.501-2.005.602-2.206.502-3.109-1.504-1.103-2.306-2.106-4.513-3.309-6.719-.501-.802-1.203-1.404-1.805-2.206zm.301 3.61c.401.702.702.903.802 1.203.802 1.906 1.605 3.811 2.307 5.817.902 2.507 1.303 2.708 3.81 1.906 2.006-.602 4.112-1.204 6.218-1.705.301-.101.702.1 1.505.2-.602.803-.903 1.404-1.404 1.805-1.003 1.003-2.107 2.006-3.109 3.009-1.003 1.003-1.605 2.307-1.304 3.811.301 1.504.802 3.109 1.304 4.613.3 1.003.802 1.905.401 3.209-.602-.1-1.103-.1-1.605-.301-2.708-.902-5.415-1.805-8.023-2.808-.802-.301-1.604-.401-2.306.101a93.503 93.503 0 01-5.215 3.409c-.401.301-.903.401-1.805.903.501-2.307.902-4.312 1.504-6.218.903-2.908.501-3.109-2.206-5.315-.201-.201-.502-.201-.702-.401-.903-.702-1.806-1.404-2.207-2.908 1.505-.101 2.808-.201 4.112-.301.802 0 1.705 0 2.507-.101.903 0 1.505-.501 1.906-1.404.902-2.306 1.805-4.513 2.707-6.719.101-.401.402-.902.803-1.805z" fill="red"/></svg>