<svg width="480" height="490" viewBox="0 0 480 490" fill="none" xmlns="http://www.w3.org/2000/svg">
<g opacity="0.5">
<path opacity="0.5" d="M213.924 413.883C212.62 415.087 211.216 416.19 210.013 417.494C207.606 419.901 205.3 422.408 202.893 424.714C199.082 428.325 195.271 431.835 191.36 435.345C189.855 436.649 188.151 437.551 186.546 438.755C183.537 441.061 180.529 443.368 177.42 445.674C177.219 445.875 176.918 446.075 176.718 446.276C175.815 447.279 176.016 447.881 177.32 448.181C178.423 448.482 179.526 448.482 180.529 448.683C181.331 448.783 182.234 448.883 183.036 449.084C187.047 449.987 191.059 450.889 195.07 451.792C196.675 452.093 198.28 452.193 199.784 452.494C203.394 453.096 207.004 453.798 210.715 454.399C214.025 454.901 217.434 455.402 220.844 455.502C228.365 455.703 235.887 455.904 243.308 456.806C248.122 457.308 252.835 457.608 257.649 458.11C263.867 458.611 269.984 459.213 276.202 459.714C277.406 459.815 278.509 459.714 279.712 459.815C281.216 459.915 282.821 460.015 284.325 460.116C285.027 460.116 285.729 460.216 286.331 460.116C287.835 460.015 288.237 459.113 287.434 457.909C286.632 456.706 285.629 455.603 284.727 454.399C282.52 451.09 280.113 448.081 277.706 444.972C275.4 442.064 272.692 439.256 271.388 435.545C270.686 433.439 269.383 431.634 268.28 429.729C267.578 428.525 267.878 427.723 268.681 426.72C270.787 424.414 272.893 422.107 274.898 419.6C276.403 417.795 277.706 415.689 279.11 413.783C280.815 411.376 282.52 408.969 284.125 406.462C284.927 405.359 284.626 404.356 283.423 403.955C283.022 403.755 282.52 403.855 282.019 403.955C279.812 404.457 277.706 405.058 275.5 405.359C269.884 406.061 264.268 406.462 258.652 407.064C257.95 407.164 257.449 406.863 257.248 406.161C257.148 405.76 257.047 405.459 256.947 405.058C255.543 400.044 253.537 395.33 251.231 390.717C250.228 388.712 249.526 386.505 248.724 384.399C248.222 383.196 247.721 381.992 247.119 380.889C246.417 379.686 245.916 379.686 245.013 380.689C243.007 382.995 241.102 385.302 239.096 387.508C237.09 389.714 234.884 391.82 232.778 394.027C228.767 398.239 224.755 402.451 220.744 406.763C218.437 409.17 216.131 411.577 213.824 413.883C213.924 413.783 213.924 413.883 213.924 413.883ZM182.434 444.471C182.334 444.27 182.334 444.17 182.234 443.969C184.641 442.064 186.847 439.958 189.454 438.253C194.368 435.144 198.28 431.032 202.492 427.222C204.598 425.316 206.403 423.01 208.408 420.904C210.815 418.497 213.423 416.19 215.83 413.683C219.641 409.872 223.351 405.861 227.062 401.949C229.268 399.643 231.374 397.236 233.781 395.13C236.489 392.723 238.996 390.216 241.302 387.508C242.706 385.904 244.11 384.5 245.514 382.995C245.815 383.196 245.916 383.296 245.916 383.396C247.119 386.505 248.323 389.714 249.626 392.823C250.128 394.027 250.93 395.23 251.431 396.434C253.638 402.351 255.844 408.267 257.95 414.285C258.652 416.29 259.153 418.396 259.755 420.502C259.153 420.703 258.752 420.904 258.251 421.104C254.54 422.308 250.93 423.611 247.219 424.714C244.211 425.617 241.202 426.419 238.194 427.322C236.99 427.623 235.686 427.924 234.483 428.224C231.575 429.127 228.767 430.03 225.858 430.832C222.649 431.734 219.239 432.436 216.03 433.439C212.32 434.643 208.509 435.646 204.598 436.348C203.093 436.649 201.589 437.351 200.085 437.952C199.082 438.353 198.179 438.855 197.176 439.156C195.07 439.858 192.964 440.459 190.858 441.161C188.953 441.763 187.047 442.465 185.142 443.167C184.34 443.769 183.437 444.17 182.434 444.471ZM284.827 458.11C282.42 458.11 280.113 458.11 277.907 457.909C273.695 457.709 269.383 457.508 265.171 457.207C261.961 457.007 258.652 456.505 255.443 456.204C250.93 455.803 246.417 455.402 241.804 455.001C237.893 454.7 233.982 454.299 230.07 454.098C226.259 453.898 222.449 453.998 218.638 453.798C216.331 453.697 214.025 453.296 211.718 452.895C209.11 452.494 206.503 451.792 203.896 451.391C199.182 450.588 194.569 449.886 189.855 449.084C188.251 448.783 186.646 448.282 184.941 447.78C184.941 447.68 184.941 447.479 184.941 447.379C185.443 447.179 185.944 447.078 186.446 446.878C187.749 446.577 189.053 446.376 190.457 446.075C194.669 445.073 198.781 444.07 202.993 443.167C204.096 442.866 205.3 442.766 206.403 442.565C209.612 441.964 212.821 441.362 216.03 440.76C219.039 440.159 222.047 439.557 225.056 439.055C230.171 438.253 235.285 437.351 240.199 435.746C243.308 434.743 246.417 433.941 249.626 433.038C252.835 432.136 256.045 431.333 259.254 430.531C261.259 430.03 263.165 429.428 265.07 428.926C265.672 428.726 266.073 428.926 266.374 429.528C267.377 431.434 268.38 433.339 269.483 435.245C270.987 437.952 272.09 440.861 274.297 443.267C275.801 444.872 277.105 446.777 278.509 448.683C280.615 451.591 282.621 454.6 284.727 457.608C284.827 457.608 284.827 457.709 284.827 458.11ZM187.348 444.872C187.348 444.772 187.348 444.571 187.348 444.471C188.853 443.969 190.457 443.568 191.961 443.067C194.97 442.064 197.878 441.161 200.787 439.858C202.291 439.256 203.695 438.654 205.3 438.253C207.907 437.651 210.414 437.15 213.022 436.448C215.128 435.947 217.133 435.144 219.239 434.643C223.05 433.54 226.961 432.637 230.772 431.534C233.179 430.832 235.586 430.13 238.093 429.528C240.199 428.926 242.406 428.626 244.512 428.024C249.526 426.52 254.44 424.815 259.454 423.31C260.056 423.11 260.758 422.909 261.46 422.909C262.764 422.909 263.666 422.608 264.067 421.204C264.168 420.904 264.469 420.703 264.669 420.603C266.474 419.299 268.179 417.995 269.984 416.692C272.592 414.786 275.3 412.981 278.007 411.075C278.308 410.875 278.509 410.775 278.81 410.574C277.506 413.081 276.102 415.488 274.397 417.594C272.993 419.5 271.188 421.204 269.784 423.11C267.878 425.617 265.371 427.222 262.363 427.823C261.761 427.924 261.159 428.024 260.557 428.224C254.941 429.829 249.225 431.534 243.609 433.139C237.191 434.944 230.873 436.749 224.254 437.651C218.838 438.454 213.523 439.757 208.108 440.76C203.093 441.763 197.979 442.766 192.964 443.869C190.959 444.07 189.153 444.471 187.348 444.872ZM258.552 409.17C265.371 408.468 271.79 407.866 278.408 407.164C273.595 412.078 267.979 415.288 262.563 419.199C261.259 415.889 260.056 412.68 258.552 409.17Z" fill="#738CA8"/>
<path opacity="0.5" d="M249.126 415.086C249.628 414.986 250.129 414.885 250.43 414.685C251.433 414.183 252.336 413.682 253.338 413.18C253.84 412.88 254.241 412.478 253.94 411.877C253.639 411.175 253.138 411.275 252.536 411.476C251.433 411.977 250.33 412.478 249.227 413.08C248.525 413.582 248.826 414.284 249.126 415.086Z" fill="#738CA8"/>
<path opacity="0.5" d="M255.444 415.989C255.444 415.688 255.645 415.187 255.444 414.786C255.344 414.585 254.642 414.485 254.341 414.585C252.937 415.287 251.533 415.989 250.129 416.791C249.928 416.892 249.828 417.393 249.828 417.694C249.828 417.895 250.229 417.995 250.53 418.095C250.63 418.195 250.931 418.095 251.032 417.995C252.536 417.594 253.84 416.892 255.444 415.989Z" fill="#738CA8"/>
<path opacity="0.5" d="M253.137 410.074C252.836 408.97 252.435 408.569 251.533 408.97C250.831 409.271 250.129 409.472 249.527 409.672C248.825 409.873 248.825 410.475 249.026 410.976C249.226 411.578 249.728 411.578 250.229 411.478C250.53 411.377 250.931 411.277 251.232 411.076C251.834 410.876 252.435 410.475 253.137 410.074Z" fill="#738CA8"/>
<path opacity="0.5" d="M207.404 426.821C206.903 426.319 206.101 426.52 206 427.222C205.8 428.124 205.9 429.127 205.9 430.13C205.9 430.23 206.502 430.531 206.702 430.531C207.505 430.13 208.006 427.824 207.505 427.021C207.505 426.821 207.404 426.821 207.404 426.821Z" fill="#738CA8"/>
<path opacity="0.5" d="M202.793 431.734C203.996 431.534 203.996 431.534 204.598 428.224C203.996 427.723 203.395 427.522 203.194 428.525C202.994 429.528 202.994 430.631 202.793 431.734Z" fill="#738CA8"/>
<path opacity="0.5" d="M252.435 405.86C251.833 405.158 250.73 405.057 250.229 405.559C250.028 405.759 250.028 406.361 250.128 406.662C250.429 407.264 251.633 407.364 252.034 406.863C252.335 406.562 252.335 406.06 252.435 405.86Z" fill="#738CA8"/>
<path opacity="0.5" d="M271.186 454.299C273.393 455.001 275.599 455.001 277.805 454.6C278.106 454.5 278.507 453.998 278.507 453.697C278.507 453.397 278.106 453.096 277.705 452.895C277.504 452.795 277.103 452.795 276.802 452.795C275.198 452.895 273.593 453.096 272.089 453.296C271.688 453.296 271.387 453.597 271.086 453.798C271.086 453.998 271.186 454.199 271.186 454.299Z" fill="#738CA8"/>
<path opacity="0.5" d="M214.024 451.391C214.225 451.391 214.626 451.592 215.027 451.491C216.231 451.191 217.434 450.789 218.738 450.388C219.239 450.288 219.741 450.087 219.54 449.385C219.44 448.683 218.938 448.583 218.236 448.683C216.933 448.984 215.629 449.285 214.325 449.686C213.623 449.987 213.423 450.689 214.024 451.391Z" fill="#738CA8"/>
<path opacity="0.5" d="M215.93 447.279C214.225 447.58 212.721 447.881 211.116 448.282C210.815 448.382 210.414 448.683 210.414 448.984C210.414 449.285 210.615 449.686 210.915 449.786C212.119 450.388 215.529 449.084 216.13 447.781C216.03 447.68 216.03 447.68 215.93 447.279Z" fill="#738CA8"/>
<path opacity="0.5" d="M205.801 447.58C206.102 448.883 206.904 448.984 207.706 448.883C208.208 448.783 208.809 448.683 209.311 448.482C209.612 448.282 209.812 447.88 210.013 447.58C209.612 447.279 209.211 446.777 208.91 446.878C208.007 446.978 207.004 447.379 205.801 447.58Z" fill="#738CA8"/>
<path opacity="0.5" d="M268.18 453.096C267.879 453.798 267.678 454.5 268.581 454.901C268.781 455.001 269.483 454.5 269.584 454.199C269.885 453.597 269.383 453.196 268.18 453.096Z" fill="#738CA8"/>
<path opacity="0.5" d="M266.072 454.699C265.972 453.997 266.072 453.496 265.871 453.095C265.771 452.894 265.27 452.894 264.969 452.794C264.869 453.295 264.668 453.797 264.668 454.298C264.668 454.398 265.37 454.499 266.072 454.699Z" fill="#738CA8"/>
<path opacity="0.5" d="M263.365 412.78C263.565 412.881 263.766 413.081 263.866 413.081C264.97 413.182 266.073 413.182 267.176 413.182C267.376 413.182 267.677 412.78 267.878 412.48C267.577 412.179 267.376 411.778 267.076 411.677C266.073 411.577 265.17 411.477 264.167 411.477C263.866 411.477 263.565 411.677 263.465 411.878C263.265 412.179 263.365 412.48 263.365 412.78Z" fill="#738CA8"/>
<path opacity="0.5" d="M266.174 410.574C266.676 411.075 268.882 411.376 269.484 411.075C270.085 410.774 270.186 409.972 269.484 409.772C268.481 409.471 267.478 409.37 266.475 409.37C265.873 409.37 265.773 410.072 266.174 410.574Z" fill="#738CA8"/>
</g>
<g opacity="0.5">
<g opacity="0.5">
<path opacity="0.5" d="M292.949 401.047C294.153 400.345 295.356 399.743 296.459 399.141" stroke="#738CA8" stroke-width="2.50716" stroke-linecap="round" stroke-linejoin="round"/>
<path opacity="0.5" d="M303.984 395.832C324.943 387.609 344.9 387.609 363.554 363.74C386.219 334.657 381.405 246.606 297.164 243.397" stroke="#738CA8" stroke-width="2.50716" stroke-linecap="round" stroke-linejoin="round" stroke-dasharray="7.9 7.9"/>
<path opacity="0.5" d="M293.051 243.297C291.747 243.297 290.443 243.297 289.039 243.297" stroke="#738CA8" stroke-width="2.50716" stroke-linecap="round" stroke-linejoin="round"/>
</g>
</g>
<path opacity="0.5" d="M220.042 236.276C220.042 236.276 169.097 237.379 143.825 218.023C101.704 185.831 120.859 65.7885 204.999 107.006C287.535 147.422 338.38 148.625 351.719 121.648C371.475 82.0349 325.945 28.5822 272.191 52.8515C218.337 77.2211 263.266 112.622 282.922 91.5621C302.578 70.5019 302.077 22.3644 261.16 1.30423" stroke="#738CA8" stroke-width="2.50716" stroke-miterlimit="10" stroke-linecap="round" stroke-linejoin="round" stroke-dasharray="8.02 8.02"/>
<g opacity="0.5">
<g opacity="0.5">
<path opacity="0.5" d="M207.41 51.4475C206.908 52.1495 206.507 52.5506 206.307 53.052C205.203 55.8601 204 58.5678 203.097 61.3758C202.696 62.5793 201.994 62.8801 200.791 62.9804C198.584 63.181 196.378 63.5821 194.272 64.0836C192.567 64.4847 192.266 65.4876 193.57 66.7913C194.874 68.095 196.178 69.499 197.682 70.7025C198.885 71.7053 199.387 72.7082 198.885 74.3128C198.384 75.9174 198.083 77.522 197.882 79.2268C197.782 80.2297 197.782 81.3329 197.983 82.3357C198.183 83.4389 198.885 83.6395 199.888 83.0377C201.994 81.734 204.201 80.5306 206.307 79.2268C207.51 78.4245 208.513 78.5248 209.817 79.0263C212.324 80.0291 214.931 80.8314 217.539 81.4332C220.547 82.2354 221.35 81.3329 220.748 78.224C220.648 77.7225 220.447 77.1208 220.246 76.6194C219.946 75.9174 219.645 75.2154 219.444 74.5134C218.14 70.9031 218.441 69.6996 221.45 67.393C223.255 65.989 224.458 64.3844 225.06 62.1781C225.461 60.6738 224.86 59.9718 223.456 60.1724C221.45 60.4733 219.344 60.8744 217.338 61.2756C216.837 61.3758 216.335 61.6767 215.733 61.777C213.728 62.3787 213.527 62.2784 212.625 60.2727C211.521 58.0664 210.519 55.7598 209.315 53.5535C208.713 52.7512 208.112 52.2498 207.41 51.4475ZM207.711 55.0578C208.112 55.7598 208.413 55.9604 208.513 56.2612C209.315 58.1667 210.117 60.0721 210.819 62.0778C211.722 64.4847 212.223 64.7856 214.63 63.9833C216.636 63.3816 218.742 62.7799 220.848 62.2784C221.149 62.1781 221.55 62.3787 222.352 62.479C221.751 63.2813 221.45 63.883 220.948 64.2841C219.946 65.287 218.842 66.2899 217.84 67.2927C216.837 68.2956 216.235 69.5993 216.536 71.1036C216.837 72.6079 217.338 74.2125 217.84 75.7168C218.14 76.7197 218.642 77.6223 218.241 78.926C217.639 78.8257 217.137 78.8257 216.636 78.6251C213.928 77.7225 211.221 76.82 208.613 75.8171C207.811 75.5162 207.009 75.416 206.307 76.0177C204.602 77.2211 202.897 78.3243 201.092 79.4274C200.691 79.7283 200.189 79.9288 199.286 80.33C199.788 78.0234 200.189 76.0177 200.791 74.1122C201.593 71.2039 201.292 71.0033 198.584 68.797C198.384 68.5965 198.083 68.5965 197.882 68.3959C196.98 67.6939 196.077 66.9919 195.676 65.4876C197.18 65.3873 198.484 65.287 199.788 65.1867C200.59 65.0864 201.493 65.1867 202.295 65.0864C203.198 65.0864 203.799 64.585 204.201 63.6824C205.103 61.3758 206.006 59.1695 206.808 56.9632C207.009 56.3615 207.309 55.9604 207.711 55.0578Z" fill="#FF0000"/>
</g>
<g opacity="0.5">
<path opacity="0.5" d="M332.766 419.8C333.066 420.603 333.066 421.204 333.367 421.606C334.771 424.213 336.175 426.82 337.78 429.428C338.482 430.531 338.281 431.233 337.579 432.236C336.376 434.041 335.273 436.047 334.27 438.053C333.468 439.657 334.069 440.459 335.875 440.259C337.78 440.058 339.585 439.858 341.491 439.557C342.995 439.256 344.098 439.457 345.101 440.861C346.003 442.265 347.107 443.568 348.21 444.772C348.912 445.474 349.714 446.176 350.617 446.677C351.619 447.179 352.221 446.777 352.321 445.674C352.622 443.167 353.024 440.76 353.324 438.253C353.525 436.849 354.127 436.047 355.33 435.345C357.637 434.041 359.943 432.537 362.049 430.932C364.556 429.027 364.356 427.924 361.648 426.419C361.147 426.118 360.645 425.918 360.144 425.818C359.442 425.517 358.64 425.416 357.938 425.116C354.327 423.912 353.525 422.909 353.625 418.998C353.726 416.792 353.224 414.686 351.82 412.881C350.917 411.677 350.015 411.577 349.213 412.881C348.109 414.686 347.207 416.491 346.204 418.396C345.903 418.898 345.803 419.399 345.602 420.001C344.8 422.007 344.599 422.007 342.493 421.505C340.087 420.904 337.68 420.302 335.172 419.8C334.571 419.6 333.768 419.8 332.766 419.8ZM335.774 421.806C336.577 421.906 336.978 421.906 337.279 422.007C339.284 422.608 341.29 423.21 343.195 423.812C345.703 424.614 346.104 424.414 347.107 422.107C347.909 420.101 348.811 418.196 349.714 416.19C349.814 415.889 350.215 415.689 350.817 415.087C351.018 416.09 351.319 416.692 351.319 417.293C351.519 418.697 351.619 420.202 351.72 421.606C351.82 423.11 352.522 424.313 353.826 425.015C355.23 425.717 356.734 426.319 358.238 426.82C359.241 427.222 360.244 427.422 360.946 428.525C360.545 428.926 360.144 429.328 359.743 429.528C357.336 431.032 354.929 432.537 352.522 434.041C351.72 434.543 351.218 435.044 351.118 435.947C350.917 438.053 350.717 440.058 350.516 442.164C350.416 442.666 350.316 443.167 350.015 444.07C348.511 442.164 347.207 440.66 346.104 439.055C344.299 436.548 343.998 436.649 340.588 437.351C340.287 437.451 340.087 437.551 339.786 437.651C338.683 437.852 337.579 438.153 336.175 437.551C336.978 436.348 337.78 435.245 338.482 434.141C338.983 433.439 339.485 432.838 339.986 432.136C340.588 431.434 340.588 430.631 340.087 429.829C338.883 427.723 337.68 425.617 336.476 423.511C336.376 423.21 336.175 422.709 335.774 421.806Z" fill="#FF0000"/>
</g>
<g opacity="0.5">
<path opacity="0.5" d="M138.613 35.2002C138.814 35.8019 138.814 36.2031 139.014 36.5039C140.017 38.4094 140.92 40.3148 141.923 42.12C142.324 42.9223 142.224 43.4237 141.722 44.1257C140.82 45.4294 140.017 46.7332 139.215 48.1372C138.613 49.2403 139.014 49.8421 140.318 49.7418C141.622 49.6415 143.026 49.5412 144.33 49.3406C145.433 49.1401 146.235 49.3406 146.837 50.3435C147.438 51.3464 148.241 52.2489 148.943 53.1515C149.444 53.6529 150.046 54.1544 150.648 54.5555C151.35 54.9567 151.751 54.6558 151.851 53.8535C152.152 52.1486 152.553 50.3435 152.754 48.6386C152.854 47.6357 153.456 47.1343 154.258 46.6329C155.963 45.7303 157.567 44.7274 159.172 43.6243C160.977 42.3206 160.877 41.5183 158.971 40.4151C158.671 40.2146 158.269 40.014 157.868 39.9137C157.367 39.7131 156.865 39.5126 156.364 39.4123C153.857 38.4094 153.255 37.7074 153.456 34.9996C153.556 33.3951 153.255 31.991 152.353 30.587C151.751 29.6845 151.149 29.6844 150.547 30.4867C149.745 31.6902 149.043 32.9939 148.341 34.2976C148.14 34.5985 148.04 34.9997 147.84 35.4008C147.238 36.8048 147.037 36.8048 145.533 36.4037C143.828 35.9022 142.123 35.4008 140.418 34.9996C139.917 35.0999 139.315 35.2002 138.613 35.2002ZM140.719 36.7045C141.321 36.8048 141.522 36.8048 141.722 36.9051C143.126 37.4065 144.53 37.8077 145.934 38.4094C147.639 39.1114 148.04 38.9108 148.742 37.3062C149.344 35.9022 150.046 34.4982 150.748 33.1945C150.848 32.9939 151.149 32.7934 151.55 32.3922C151.651 33.0942 151.851 33.4953 151.851 33.9968C151.951 34.9996 151.951 36.1028 152.052 37.1057C152.152 38.1085 152.553 39.0111 153.456 39.6128C154.459 40.1143 155.461 40.6157 156.565 41.0168C157.267 41.3177 157.969 41.5183 158.47 42.3206C158.169 42.6214 157.868 42.822 157.567 43.0226C155.863 44.0254 154.057 45.0283 152.252 46.0312C151.751 46.332 151.35 46.6329 151.249 47.3349C151.049 48.8392 150.848 50.2432 150.648 51.7475C150.547 52.1486 150.447 52.4495 150.247 53.1515C149.244 51.7475 148.341 50.6444 147.639 49.4409C146.436 47.6358 146.235 47.736 143.728 48.1372C143.527 48.1372 143.327 48.3378 143.126 48.3378C142.324 48.438 141.522 48.6386 140.519 48.1372C141.12 47.2346 141.722 46.5326 142.224 45.8306C142.625 45.3292 143.026 44.928 143.327 44.4266C143.728 43.9252 143.728 43.3234 143.427 42.7217C142.625 41.2174 141.822 39.6128 141.02 38.1085C141.12 37.7074 140.92 37.4065 140.719 36.7045Z" fill="#FF0000"/>
</g>
<g opacity="0.5">
<path opacity="0.5" d="M282.023 470.243C282.224 470.845 282.224 471.246 282.425 471.547C283.427 473.452 284.33 475.358 285.333 477.163C285.734 477.965 285.634 478.467 285.132 479.169C284.23 480.472 283.427 481.776 282.625 483.18C282.023 484.283 282.425 484.885 283.728 484.785C285.032 484.684 286.436 484.584 287.74 484.384C288.843 484.183 289.645 484.384 290.247 485.386C290.849 486.389 291.651 487.292 292.353 488.194C292.854 488.696 293.456 489.197 294.058 489.598C294.76 490 295.161 489.699 295.261 488.896C295.562 487.192 295.963 485.386 296.164 483.682C296.264 482.679 296.866 482.177 297.668 481.676C299.373 480.773 300.978 479.77 302.582 478.667C304.387 477.364 304.287 476.561 302.382 475.458C302.081 475.258 301.68 475.057 301.278 474.957C300.777 474.756 300.276 474.556 299.774 474.455C297.267 473.452 296.665 472.75 296.866 470.043C296.966 468.438 296.665 467.034 295.763 465.63C295.161 464.727 294.559 464.727 293.958 465.53C293.155 466.733 292.453 468.037 291.751 469.341C291.551 469.641 291.45 470.043 291.25 470.444C290.648 471.848 290.448 471.848 288.943 471.447C287.238 470.945 285.533 470.444 283.829 470.043C283.327 470.243 282.725 470.243 282.023 470.243ZM284.129 471.848C284.731 471.948 284.932 471.948 285.132 472.048C286.536 472.55 287.94 472.951 289.344 473.553C291.049 474.255 291.45 474.054 292.152 472.449C292.754 471.045 293.456 469.641 294.158 468.338C294.258 468.137 294.559 467.937 294.96 467.535C295.061 468.237 295.261 468.639 295.261 469.14C295.362 470.143 295.362 471.246 295.462 472.249C295.562 473.252 295.963 474.154 296.866 474.756C297.869 475.258 298.872 475.759 299.975 476.16C300.677 476.461 301.379 476.662 301.88 477.464C301.579 477.765 301.278 477.965 300.978 478.166C299.273 479.169 297.468 480.172 295.662 481.174C295.161 481.475 294.76 481.776 294.66 482.478C294.459 483.982 294.258 485.386 294.058 486.891C293.958 487.292 293.857 487.593 293.657 488.295C292.654 486.891 291.751 485.788 291.049 484.584C289.846 482.779 289.645 482.879 287.138 483.28C286.937 483.28 286.737 483.481 286.536 483.481C285.734 483.581 284.932 483.782 283.929 483.28C284.531 482.378 285.132 481.676 285.634 480.974C286.035 480.472 286.436 480.071 286.737 479.57C287.138 479.068 287.138 478.467 286.837 477.865C286.035 476.361 285.233 474.756 284.43 473.252C284.531 472.75 284.33 472.449 284.129 471.848Z" fill="#FF0000"/>
</g>
<g opacity="0.5">
<path opacity="0.5" d="M348.109 140.3C348.511 141.002 348.611 141.503 348.912 141.804C350.617 143.91 352.321 146.016 354.127 148.022C354.929 148.924 354.829 149.526 354.427 150.529C353.625 152.334 353.023 154.24 352.422 156.245C352.021 157.75 352.723 158.452 354.227 157.95C355.831 157.449 357.536 157.048 359.041 156.346C360.344 155.844 361.447 155.844 362.45 156.947C363.453 158.05 364.657 158.953 365.86 159.856C366.562 160.357 367.465 160.859 368.367 161.159C369.37 161.46 369.771 160.959 369.671 159.956C369.571 157.75 369.571 155.443 369.37 153.237C369.27 151.933 369.771 151.131 370.674 150.328C372.479 148.724 374.284 147.019 375.989 145.214C377.894 143.108 377.594 142.105 374.886 141.303C374.384 141.102 373.883 141.102 373.382 141.002C372.68 140.901 371.978 140.801 371.276 140.701C367.866 140.2 366.963 139.397 366.462 135.987C366.161 133.982 365.359 132.277 363.854 130.873C362.851 129.97 362.049 130.071 361.548 131.274C360.846 132.979 360.344 134.884 359.843 136.689C359.743 137.191 359.642 137.692 359.542 138.194C359.141 140.099 358.94 140.199 356.935 140.099C354.628 139.999 352.422 139.899 350.115 139.798C349.814 139.798 349.112 140.099 348.109 140.3ZM351.218 141.604C351.92 141.503 352.221 141.503 352.522 141.503C354.427 141.704 356.233 141.904 358.138 142.205C360.445 142.506 360.846 142.306 361.347 139.999C361.748 138.093 362.25 136.188 362.651 134.283C362.751 133.982 363.052 133.681 363.453 133.079C363.854 133.881 364.155 134.383 364.356 134.985C364.757 136.288 365.058 137.492 365.459 138.795C365.86 140.099 366.562 141.102 367.866 141.503C369.27 141.904 370.674 142.205 372.078 142.406C372.98 142.606 373.983 142.606 374.786 143.509C374.485 143.91 374.184 144.311 373.883 144.612C371.978 146.317 370.072 148.122 368.167 149.827C367.565 150.328 367.164 150.93 367.264 151.732C367.465 153.638 367.565 155.443 367.766 157.348C367.766 157.85 367.766 158.251 367.665 159.154C366.061 157.75 364.657 156.546 363.353 155.343C361.347 153.337 361.046 153.538 358.138 154.741C357.937 154.841 357.737 155.042 357.536 155.142C356.533 155.543 355.631 155.944 354.227 155.644C354.728 154.44 355.23 153.337 355.731 152.234C356.032 151.532 356.433 150.93 356.734 150.228C357.135 149.426 356.935 148.824 356.433 148.122C355.029 146.417 353.625 144.813 352.221 143.108C351.92 142.707 351.72 142.306 351.218 141.604Z" fill="#FF0000"/>
</g>
<g opacity="0.5">
<path opacity="0.5" d="M239.398 21.46C239.599 22.0617 239.599 22.4628 239.8 22.7637C240.802 24.6691 241.705 26.5746 242.708 28.3798C243.109 29.182 243.009 29.6835 242.507 30.3855C241.605 31.6892 240.802 32.9929 240 34.3969C239.398 35.5001 239.8 36.1018 241.103 36.0015C242.407 35.9012 243.811 35.8009 245.115 35.6004C246.218 35.3998 247.02 35.6004 247.622 36.6032C248.224 37.6061 249.026 38.5087 249.728 39.4113C250.229 39.9127 250.831 40.4141 251.433 40.8153C252.135 41.2164 252.536 40.9156 252.636 40.1133C252.937 38.4084 253.338 36.6033 253.539 34.8984C253.639 33.8955 254.241 33.3941 255.043 32.8926C256.748 31.9901 258.353 30.9872 259.957 29.8841C261.762 28.5803 261.662 27.778 259.757 26.6749C259.456 26.4743 259.055 26.2737 258.653 26.1734C258.152 25.9729 257.651 25.7723 257.149 25.672C254.642 24.6691 254.04 23.9671 254.241 21.2594C254.341 19.6548 254.04 18.2508 253.138 16.8468C252.536 15.9442 251.934 15.9442 251.333 16.7465C250.53 17.95 249.828 19.2537 249.126 20.5574C248.926 20.8582 248.825 21.2594 248.625 21.6605C248.023 23.0646 247.823 23.0646 246.318 22.6634C244.613 22.162 242.908 21.6606 241.204 21.2594C240.702 21.46 240.1 21.46 239.398 21.46ZM241.504 23.0646C242.106 23.1648 242.307 23.1649 242.507 23.2651C243.911 23.7666 245.315 24.1677 246.719 24.7694C248.424 25.4714 248.825 25.2709 249.527 23.6663C250.129 22.2623 250.831 20.8582 251.533 19.5545C251.633 19.354 251.934 19.1534 252.335 18.7522C252.436 19.4543 252.636 19.8554 252.636 20.3568C252.737 21.3597 252.737 22.4628 252.837 23.4657C252.937 24.4686 253.338 25.3711 254.241 25.9729C255.244 26.4743 256.247 26.9757 257.35 27.3769C258.052 27.6778 258.754 27.8783 259.255 28.6806C258.954 28.9815 258.653 29.182 258.353 29.3826C256.648 30.3855 254.843 31.3884 253.037 32.3912C252.536 32.6921 252.135 32.9929 252.035 33.6949C251.834 35.1992 251.633 36.6032 251.433 38.1075C251.333 38.5087 251.232 38.8095 251.032 39.5115C250.029 38.1075 249.126 37.0044 248.424 35.801C247.221 33.9958 247.02 34.0961 244.513 34.4972C244.312 34.4972 244.112 34.6978 243.911 34.6978C243.109 34.7981 242.307 34.9986 241.304 34.4972C241.906 33.5946 242.507 32.8926 243.009 32.1906C243.41 31.6892 243.811 31.2881 244.112 30.7866C244.513 30.2852 244.513 29.6835 244.212 29.0817C243.41 27.5774 242.608 25.9729 241.805 24.4686C241.906 23.9671 241.705 23.6663 241.504 23.0646Z" fill="#FF0000"/>
</g>
<g opacity="0.5">
<path opacity="0.5" d="M346.806 19.0545C346.605 19.6563 346.405 19.9571 346.304 20.3583C346.003 22.4643 345.602 24.5703 345.402 26.6763C345.301 27.5789 344.9 27.8798 344.098 28.1806C342.594 28.6821 341.19 29.2838 339.786 29.9858C338.683 30.5875 338.683 31.2895 339.685 31.9915C340.789 32.6935 341.992 33.3955 343.095 33.9972C344.098 34.4987 344.599 35.1004 344.499 36.3038C344.399 37.5073 344.499 38.7107 344.599 39.8139C344.7 40.5159 344.9 41.3182 345.201 41.9199C345.502 42.6219 346.003 42.6219 346.605 42.1204C347.809 40.917 349.112 39.7136 350.416 38.4099C351.118 37.7079 351.82 37.5073 352.823 37.7078C354.728 37.9084 356.634 38.109 358.539 38.109C360.746 38.109 361.147 37.407 360.244 35.4013C360.044 35.0001 359.843 34.6993 359.642 34.3984C359.342 33.897 359.041 33.4958 358.74 33.0947C357.236 30.7881 357.236 29.9858 358.94 27.7795C359.943 26.576 360.545 25.172 360.545 23.5674C360.545 22.4643 360.044 22.0631 359.041 22.4643C357.637 22.9657 356.333 23.6677 355.029 24.2695C354.628 24.47 354.327 24.6706 354.026 24.8712C352.723 25.6735 352.522 25.5732 351.619 24.3698C350.516 22.9657 349.413 21.5617 348.21 20.258C347.909 19.7566 347.407 19.556 346.806 19.0545ZM347.608 21.5617C348.009 21.9629 348.21 22.0632 348.41 22.2637C349.313 23.4672 350.115 24.6706 351.018 25.8741C352.021 27.3783 352.422 27.4786 353.926 26.576C355.23 25.7737 356.634 25.0718 357.938 24.3698C358.138 24.2695 358.439 24.2695 359.041 24.2695C358.74 24.9715 358.64 25.3726 358.339 25.7738C357.837 26.6763 357.236 27.4786 356.734 28.3812C356.132 29.2838 356.032 30.2866 356.433 31.1892C356.935 32.1921 357.536 33.1949 358.138 34.0975C358.539 34.6992 359.041 35.301 358.94 36.2036C358.539 36.2036 358.138 36.3038 357.837 36.3038C355.832 36.1033 353.826 35.9027 351.82 35.7021C351.218 35.6018 350.717 35.7021 350.215 36.2036C349.213 37.3067 348.21 38.4099 347.207 39.4127C346.906 39.7136 346.605 39.9142 346.104 40.3153C346.104 38.6104 346.003 37.2064 346.104 35.8024C346.204 33.5961 345.903 33.4958 343.697 32.4929C343.496 32.3927 343.296 32.3927 343.095 32.2924C342.393 31.8912 341.591 31.5904 341.089 30.6878C342.092 30.3869 342.995 30.0861 343.897 29.7852C344.499 29.5846 345.001 29.4844 345.602 29.2838C346.204 29.0832 346.605 28.682 346.705 27.98C346.906 26.2752 347.207 24.5703 347.407 22.8655C347.407 22.5646 347.508 22.1634 347.608 21.5617Z" fill="#FF0000"/>
</g>
<g opacity="0.5">
<path opacity="0.5" d="M129.285 429.326C129.285 429.928 129.184 430.329 129.285 430.73C129.686 432.836 130.087 434.942 130.588 436.948C130.789 437.85 130.488 438.252 129.886 438.853C128.683 439.856 127.48 440.959 126.376 442.062C125.474 442.965 125.775 443.667 126.978 443.968C128.282 444.269 129.586 444.57 130.889 444.67C131.992 444.77 132.694 445.171 132.995 446.375C133.296 447.478 133.798 448.581 134.299 449.684C134.6 450.386 135.001 450.988 135.502 451.489C136.104 452.091 136.505 451.891 136.906 451.189C137.709 449.584 138.511 447.979 139.213 446.375C139.614 445.472 140.216 445.071 141.219 444.871C143.124 444.469 144.929 443.968 146.735 443.366C148.841 442.664 148.941 441.862 147.437 440.257C147.136 439.956 146.835 439.756 146.534 439.455C146.133 439.154 145.631 438.853 145.23 438.552C143.024 436.948 142.723 436.045 143.626 433.538C144.127 432.034 144.227 430.53 143.726 429.025C143.325 428.022 142.823 427.822 142.021 428.424C140.918 429.426 139.915 430.429 138.812 431.532C138.511 431.833 138.31 432.134 138.11 432.435C137.107 433.538 137.007 433.538 135.603 432.736C134.098 431.833 132.594 430.931 130.99 430.028C130.588 429.627 130.087 429.527 129.285 429.326ZM130.889 431.332C131.391 431.532 131.692 431.633 131.892 431.733C133.096 432.535 134.299 433.438 135.502 434.24C137.007 435.343 137.308 435.343 138.511 433.939C139.514 432.736 140.517 431.633 141.52 430.53C141.72 430.329 142.021 430.329 142.522 430.028C142.522 430.73 142.522 431.232 142.422 431.633C142.222 432.636 141.921 433.638 141.72 434.641C141.52 435.644 141.62 436.647 142.422 437.349C143.224 438.151 144.127 438.853 145.03 439.555C145.631 440.057 146.233 440.358 146.534 441.26C146.133 441.461 145.832 441.661 145.531 441.661C143.525 442.163 141.62 442.664 139.614 443.166C139.012 443.266 138.511 443.567 138.31 444.168C137.709 445.573 137.107 446.876 136.505 448.28C136.405 448.581 136.104 448.882 135.803 449.484C135.202 447.879 134.7 446.575 134.299 445.171C133.697 443.065 133.396 443.065 130.889 442.865C130.689 442.865 130.488 442.965 130.288 442.865C129.485 442.764 128.683 442.664 127.78 441.962C128.583 441.26 129.385 440.759 130.087 440.157C130.588 439.756 131.09 439.455 131.591 439.154C132.093 438.753 132.293 438.252 132.193 437.55C131.792 435.845 131.491 434.14 131.19 432.435C131.09 432.435 130.99 432.034 130.889 431.332Z" fill="#FF0000"/>
</g>
<g opacity="0.5">
<path opacity="0.5" d="M102.609 267.163C102.81 267.764 102.91 268.165 103.111 268.466C104.214 270.271 105.217 272.177 106.42 273.882C106.922 274.684 106.821 275.186 106.32 275.888C105.518 277.191 104.715 278.595 104.114 280.1C103.612 281.203 104.013 281.804 105.317 281.704C106.621 281.504 107.925 281.403 109.228 281.102C110.331 280.902 111.134 281.002 111.836 282.005C112.538 283.008 113.34 283.91 114.142 284.713C114.644 285.214 115.245 285.716 115.947 286.016C116.649 286.418 117.051 286.016 117.151 285.214C117.351 283.409 117.552 281.704 117.753 279.899C117.853 278.896 118.354 278.294 119.157 277.793C120.761 276.79 122.366 275.687 123.87 274.484C125.575 273.079 125.475 272.277 123.469 271.274C123.068 271.074 122.767 270.973 122.366 270.873C121.864 270.673 121.363 270.572 120.761 270.472C118.154 269.67 117.552 268.968 117.552 266.26C117.552 264.655 117.151 263.251 116.148 261.948C115.446 261.145 114.844 261.045 114.343 262.048C113.641 263.352 113.039 264.655 112.337 265.959C112.137 266.36 112.137 266.661 111.936 267.062C111.435 268.466 111.234 268.567 109.73 268.165C108.025 267.764 106.22 267.463 104.515 267.163C103.913 266.962 103.412 267.062 102.609 267.163ZM104.816 268.567C105.417 268.567 105.618 268.567 105.819 268.667C107.223 269.068 108.727 269.469 110.131 269.87C111.936 270.372 112.237 270.271 112.839 268.567C113.34 267.163 113.942 265.759 114.543 264.355C114.644 264.154 114.945 263.953 115.346 263.552C115.546 264.254 115.747 264.655 115.747 265.157C115.947 266.16 115.947 267.263 116.148 268.266C116.248 269.269 116.75 270.171 117.753 270.673C118.756 271.174 119.859 271.575 120.962 271.876C121.664 272.077 122.366 272.277 122.968 272.979C122.667 273.28 122.466 273.581 122.165 273.781C120.46 274.885 118.756 275.988 117.151 277.091C116.649 277.392 116.248 277.793 116.248 278.495C116.148 279.999 116.048 281.403 115.947 282.908C115.947 283.309 115.847 283.61 115.647 284.312C114.543 283.008 113.641 281.905 112.738 280.802C111.435 278.996 111.234 279.197 108.827 279.698C108.627 279.698 108.426 279.899 108.326 279.899C107.523 280.1 106.721 280.3 105.718 279.899C106.32 278.996 106.821 278.194 107.323 277.492C107.624 276.991 108.025 276.489 108.326 276.088C108.727 275.587 108.727 274.985 108.326 274.383C107.423 272.879 106.521 271.475 105.618 269.971C105.317 269.469 105.117 269.168 104.816 268.567Z" fill="#FF0000"/>
</g>
<g opacity="0.5">
<path opacity="0.5" d="M168.6 366.647C168.098 367.349 167.697 367.75 167.497 368.251C166.394 371.059 165.19 373.767 164.187 376.575C163.786 377.779 163.084 378.079 161.881 378.18C159.674 378.38 157.468 378.781 155.362 379.283C153.657 379.684 153.356 380.687 154.66 381.991C155.964 383.294 157.267 384.698 158.772 385.902C159.975 386.905 160.477 387.907 159.975 389.512C159.474 391.117 159.173 392.721 158.972 394.426C158.872 395.429 158.872 396.532 159.073 397.535C159.273 398.638 159.975 398.839 160.978 398.237C163.084 396.933 165.29 395.73 167.396 394.426C168.6 393.724 169.603 393.724 170.906 394.225C173.414 395.228 176.021 396.031 178.628 396.733C181.637 397.535 182.439 396.632 181.838 393.523C181.737 393.022 181.537 392.42 181.336 391.919C181.035 391.217 180.735 390.515 180.534 389.813C179.23 386.203 179.531 384.999 182.54 382.693C184.345 381.289 185.548 379.684 186.15 377.478C186.551 375.973 186.05 375.271 184.545 375.472C182.54 375.773 180.434 376.174 178.428 376.575C177.926 376.675 177.425 376.976 176.823 377.076C174.818 377.678 174.617 377.578 173.714 375.572C172.611 373.266 171.608 371.059 170.405 368.853C169.904 368.051 169.202 367.449 168.6 366.647ZM168.901 370.257C169.302 370.959 169.603 371.16 169.703 371.46C170.505 373.366 171.308 375.271 172.01 377.277C172.912 379.784 173.313 379.985 175.82 379.183C177.826 378.581 179.932 377.979 182.038 377.478C182.339 377.377 182.74 377.578 183.543 377.678C182.941 378.481 182.64 379.082 182.139 379.483C181.136 380.486 180.032 381.489 179.03 382.492C178.027 383.495 177.425 384.799 177.726 386.303C178.027 387.807 178.528 389.412 179.03 390.916C179.33 391.919 179.832 392.821 179.431 394.125C178.829 394.025 178.328 394.025 177.826 393.824C175.118 392.922 172.411 392.019 169.803 391.016C169.001 390.715 168.199 390.615 167.497 391.117C165.792 392.32 164.087 393.423 162.282 394.526C161.881 394.827 161.379 394.927 160.477 395.429C160.978 393.122 161.379 391.117 161.981 389.211C162.884 386.303 162.482 386.102 159.775 383.896C159.574 383.695 159.273 383.695 159.073 383.495C158.17 382.793 157.267 382.091 156.866 380.587C158.371 380.486 159.674 380.386 160.978 380.286C161.78 380.286 162.683 380.286 163.485 380.185C164.388 380.185 164.99 379.684 165.391 378.781C166.293 376.475 167.196 374.268 168.098 372.062C168.199 371.661 168.5 371.16 168.901 370.257Z" fill="#FF0000"/>
</g>
</g>
</svg>
