<svg width="658" height="669" viewBox="0 0 658 669" fill="none" xmlns="http://www.w3.org/2000/svg">
<g opacity="0.4" clip-path="url(#clip0_252_6469)">
<g opacity="0.5">
<path opacity="0.5" d="M496.305 256.251C497.239 254.473 498.034 252.614 499.107 250.916C501.034 247.578 503.1 244.321 504.917 241.013C507.748 235.788 510.47 230.592 513.163 225.286C514.148 223.259 514.635 221.13 515.481 219.022C517.122 215.056 518.763 211.09 520.374 207.015C520.535 206.737 520.666 206.349 520.826 206.071C521.659 204.79 522.375 204.833 523.087 206.17C523.739 207.289 524.062 208.495 524.575 209.533C524.92 210.381 525.294 211.339 525.749 212.157C527.911 216.28 530.074 220.402 532.236 224.524C533.035 226.191 533.615 227.916 534.385 229.473C536.101 233.245 537.927 236.988 539.672 240.869C541.19 244.341 542.738 247.923 543.846 251.623C546.27 259.79 548.693 267.956 551.855 275.808C553.814 280.925 555.524 285.991 557.483 291.109C559.853 297.761 562.304 304.275 564.674 310.928C565.136 312.215 565.35 313.45 565.812 314.737C566.363 316.353 566.943 318.078 567.493 319.694C567.699 320.461 568.014 321.2 568.081 321.887C568.412 323.562 567.542 324.265 565.991 323.74C564.44 323.215 562.94 322.442 561.359 321.808C557.094 320.364 553.098 318.614 548.993 316.893C545.137 315.223 541.272 313.084 536.832 312.746C534.324 312.595 531.967 311.698 529.56 311.05C528.039 310.635 527.249 311.199 526.388 312.371C524.482 315.35 522.577 318.329 520.423 321.257C518.89 323.431 516.969 325.474 515.296 327.567C513.164 330.137 511.031 332.707 508.76 335.196C507.788 336.397 506.603 336.362 505.812 335.163C505.475 334.783 505.438 334.206 505.401 333.628C505.302 331.068 505.343 328.589 505.026 326.088C504.148 319.74 502.941 313.481 501.953 307.163C501.857 306.366 501.381 305.906 500.555 305.892C500.087 305.9 499.728 305.879 499.26 305.886C493.365 305.82 487.623 305.008 481.902 303.837C479.415 303.328 476.796 303.207 474.258 302.947C472.795 302.751 471.332 302.556 469.949 302.221C468.428 301.806 468.281 301.257 469.113 299.976C471.048 297.107 473.012 294.347 474.837 291.507C476.662 288.667 478.319 285.638 480.114 282.688C483.545 277.067 486.976 271.446 490.516 265.795C492.472 262.567 494.429 259.34 496.275 256.141C496.195 256.28 496.305 256.251 496.305 256.251ZM520.527 212.851C520.279 212.8 520.169 212.829 519.92 212.778C518.542 215.969 516.885 218.999 515.785 222.35C513.825 228.635 510.474 234.117 507.541 239.84C506.074 242.701 504.081 245.351 502.365 248.162C500.439 251.499 498.68 255.027 496.644 258.394C493.593 263.678 490.293 268.911 487.103 274.115C485.227 277.204 483.212 280.212 481.614 283.461C479.776 287.128 477.769 290.604 475.483 293.92C474.14 295.926 473.016 297.873 471.782 299.849C472.09 300.119 472.229 300.199 472.339 300.17C476.091 300.575 479.953 300.951 483.735 301.466C485.198 301.661 486.749 302.186 488.212 302.382C495.329 303.061 502.447 303.74 509.644 304.28C512.043 304.46 514.493 304.391 516.973 304.432C517.016 303.715 517.118 303.217 517.19 302.61C517.419 298.2 517.787 293.87 517.906 289.488C518.011 285.934 518.007 282.409 518.112 278.854C518.089 277.45 518.036 275.936 518.012 274.532C518.147 271.087 518.311 267.751 518.336 264.336C518.383 260.562 518.152 256.627 518.308 252.824C518.537 248.413 518.517 243.952 518.138 239.469C518.027 237.736 518.353 235.885 518.571 234.063C518.716 232.849 518.999 231.715 519.035 230.53C519.185 228.021 519.226 225.542 519.377 223.033C519.476 220.773 519.686 218.484 519.895 216.194C520.318 215.14 520.492 214.036 520.527 212.851ZM565.447 320.83C564.741 318.198 564.065 315.675 563.2 313.321C561.746 308.774 560.263 304.117 558.7 299.599C557.54 296.148 556.022 292.676 554.752 289.254C552.991 284.436 551.23 279.619 549.44 274.691C547.965 270.502 546.38 266.343 545.015 262.124C543.679 258.015 542.671 253.818 541.335 249.71C540.55 247.217 539.435 244.812 538.321 242.407C537.118 239.673 535.586 237.027 534.383 234.293C532.125 229.374 530.005 224.534 527.747 219.615C526.948 217.948 525.929 216.34 524.881 214.623C524.772 214.652 524.552 214.711 524.443 214.74C524.37 215.348 524.407 215.925 524.335 216.532C524.388 218.046 524.551 219.531 524.633 221.154C524.771 226.055 524.879 230.845 525.126 235.716C525.12 237.01 525.363 238.356 525.467 239.621C525.749 243.307 526.032 246.993 526.314 250.678C526.538 254.145 526.761 257.611 527.094 261.049C527.716 266.877 528.227 272.735 527.913 278.579C527.727 282.273 527.76 285.908 527.714 289.682C527.667 293.456 527.73 297.2 527.793 300.945C527.832 303.285 527.733 305.545 527.743 307.776C527.7 308.493 528.037 308.873 528.783 309.025C531.16 309.564 533.538 310.102 535.945 310.75C539.347 311.602 542.851 311.956 546.129 313.663C548.325 314.838 550.791 315.706 553.286 316.683C557.084 318.134 560.962 319.446 564.869 320.867C564.898 320.977 565.008 320.947 565.447 320.83ZM522.406 218.107C522.296 218.137 522.077 218.195 521.967 218.225C521.86 220.017 521.891 221.889 521.784 223.681C521.569 227.265 521.434 230.71 520.86 234.273C520.643 236.094 520.396 237.806 520.428 239.678C520.534 242.706 520.72 245.595 520.716 248.652C520.785 251.102 520.496 253.531 520.564 255.981C520.475 260.471 520.634 265.013 520.544 269.504C520.482 272.342 520.419 275.18 520.496 278.098C520.455 280.577 520.772 283.078 520.731 285.558C520.556 291.482 520.131 297.355 519.955 303.28C519.912 303.997 519.899 304.823 520.104 305.591C520.486 307.017 520.422 308.092 519.004 308.942C518.704 309.14 518.573 309.528 518.522 309.776C517.626 312.132 516.699 314.379 515.803 316.735C514.483 320.145 513.302 323.635 512.012 327.154C511.881 327.542 511.83 327.791 511.699 328.179C514.058 326.018 516.279 323.778 518.083 321.296C519.755 319.202 521.091 316.729 522.763 314.635C524.946 311.817 525.966 308.605 525.743 305.138C525.676 304.451 525.61 303.763 525.653 303.046C525.762 296.435 525.951 289.684 526.06 283.072C526.154 275.524 526.276 268.085 525.324 260.583C524.614 254.425 524.483 248.231 523.992 242.014C523.62 236.237 523.218 230.35 522.955 224.543C522.587 222.291 522.496 220.199 522.406 218.107ZM504.227 306.436C505.458 314.1 506.68 321.295 507.852 328.739C511.816 322.035 513.679 314.953 516.37 307.885C512.369 307.429 508.506 307.053 504.227 306.436Z" fill="#738CA8"/>
<path opacity="0.5" d="M507.936 294.394C507.974 294.971 508.011 295.549 507.88 295.937C507.625 297.181 507.341 298.315 507.087 299.558C506.905 300.195 506.584 300.751 505.837 300.598C504.982 300.475 504.944 299.897 504.987 299.18C505.212 297.827 505.438 296.474 505.772 295.091C506.115 294.176 506.971 294.3 507.936 294.394Z" fill="#738CA8"/>
<path opacity="0.5" d="M510.774 301.038C510.445 301.127 509.955 301.493 509.458 301.391C509.209 301.34 508.893 300.602 508.915 300.244C509.271 298.502 509.628 296.761 510.094 294.991C510.144 294.742 510.663 294.485 510.992 294.397C511.212 294.339 511.439 294.748 511.637 295.047C511.776 295.128 511.754 295.486 511.674 295.625C511.676 297.388 511.291 299.019 510.774 301.038Z" fill="#738CA8"/>
<path opacity="0.5" d="M503.625 300.25C502.331 300.244 501.775 299.923 501.949 298.818C502.072 297.963 502.086 297.136 502.129 296.419C502.142 295.593 502.801 295.416 503.408 295.489C504.124 295.532 504.271 296.08 504.309 296.658C504.287 297.016 504.295 297.484 504.164 297.872C504.121 298.589 503.858 299.365 503.625 300.25Z" fill="#738CA8"/>
<path opacity="0.5" d="M508.543 245.332C507.847 244.931 507.832 243.994 508.57 243.679C509.498 243.195 510.624 243.011 511.721 242.717C511.831 242.688 512.336 243.258 512.395 243.477C512.191 244.472 509.816 245.696 508.791 245.383C508.572 245.442 508.543 245.332 508.543 245.332Z" fill="#738CA8"/>
<path opacity="0.5" d="M512.562 238.848C512.696 240.223 512.696 240.222 509.253 241.85C508.528 241.339 508.133 240.74 509.171 240.227C510.208 239.714 511.415 239.39 512.562 238.848Z" fill="#738CA8"/>
<path opacity="0.5" d="M498.814 300.717C497.87 300.264 497.437 299.087 497.838 298.392C497.999 298.114 498.657 297.938 499.015 297.959C499.761 298.112 500.224 299.399 499.793 299.984C499.552 300.401 499.004 300.548 498.814 300.717Z" fill="#738CA8"/>
<path opacity="0.5" d="M557.283 307.031C558.697 309.238 559.344 311.651 559.551 314.181C559.53 314.54 559.099 315.125 558.77 315.214C558.441 315.302 557.994 314.951 557.658 314.571C557.489 314.381 557.372 313.943 557.283 313.614C556.923 311.829 556.672 310.016 556.451 308.312C556.333 307.873 556.574 307.456 556.705 307.068C556.924 307.01 557.173 307.061 557.283 307.031Z" fill="#738CA8"/>
<path opacity="0.5" d="M537.351 245.371C537.41 245.59 537.746 245.97 537.754 246.438C537.778 247.842 537.692 249.276 537.635 250.819C537.672 251.397 537.6 252.004 536.774 251.99C535.976 252.086 535.72 251.567 535.624 250.77C535.571 249.256 535.518 247.742 535.574 246.199C535.698 245.343 536.407 244.918 537.351 245.371Z" fill="#738CA8"/>
<path opacity="0.5" d="M533.412 248.659C533.242 246.706 533.13 244.973 533.099 243.1C533.12 242.742 533.332 242.215 533.661 242.127C533.99 242.039 534.487 242.141 534.685 242.44C535.696 243.58 535.269 247.691 534.02 248.731C533.88 248.651 533.88 248.651 533.412 248.659Z" fill="#738CA8"/>
<path opacity="0.5" d="M530.773 237.494C532.287 237.441 532.632 238.289 532.757 239.196C532.795 239.774 532.861 240.461 532.789 241.068C532.658 241.456 532.278 241.793 532.007 242.1C531.561 241.75 530.895 241.458 530.916 241.1C530.762 240.083 530.906 238.869 530.773 237.494Z" fill="#738CA8"/>
<path opacity="0.5" d="M555.086 304.094C555.766 303.559 556.475 303.134 557.178 304.003C557.346 304.193 557.003 305.108 556.704 305.306C556.134 305.811 555.548 305.38 555.086 304.094Z" fill="#738CA8"/>
<path opacity="0.5" d="M556.224 301.321C555.427 301.417 554.908 301.673 554.41 301.571C554.162 301.521 554.015 300.972 553.817 300.673C554.336 300.416 554.825 300.05 555.374 299.903C555.483 299.873 555.799 300.612 556.224 301.321Z" fill="#738CA8"/>
<path opacity="0.5" d="M509.584 310.643C509.753 310.833 510.031 310.994 510.06 311.103C510.493 312.28 510.816 313.487 511.14 314.693C511.198 314.912 510.848 315.359 510.578 315.666C510.16 315.426 509.663 315.324 509.465 315.024C509.062 313.957 508.688 312.999 508.394 311.902C508.305 311.573 508.437 311.186 508.627 311.017C508.897 310.71 509.255 310.731 509.584 310.643Z" fill="#738CA8"/>
<path opacity="0.5" d="M507.996 314.359C508.692 314.761 509.667 317.085 509.514 317.832C509.362 318.578 508.514 318.923 508.089 318.214C507.466 317.205 507.062 316.138 506.768 315.041C506.592 314.383 507.33 314.068 507.996 314.359Z" fill="#738CA8"/>
</g>
<g opacity="0.5">
<g opacity="0.5">
<path opacity="0.5" d="M505.422 346.436C505.007 347.957 504.701 349.45 504.367 350.832" stroke="#738CA8" stroke-width="2.50716" stroke-linecap="round" stroke-linejoin="round"/>
<path opacity="0.5" d="M502.951 360.028C500.1 385.359 505.948 407.184 485.312 434.577C460.148 467.885 362.445 488.423 334.251 397.238" stroke="#738CA8" stroke-width="2.50716" stroke-linecap="round" stroke-linejoin="round" stroke-dasharray="7.9 7.9"/>
<path opacity="0.5" d="M332.937 392.77C332.555 391.344 332.173 389.918 331.762 388.383" stroke="#738CA8" stroke-width="2.50716" stroke-linecap="round" stroke-linejoin="round"/>
</g>
</g>
<path opacity="0.5" d="M303.867 314.985C303.867 314.985 290.145 258.948 261.573 236.982C214.026 200.353 88.3609 256.476 158.092 336.413C226.475 414.831 242.69 470.082 217.096 492.573C179.565 525.787 107.768 491.658 118.558 425.762C129.427 359.727 181.307 398.487 164.036 426.154C146.764 453.821 93.9744 467.378 58.9534 428.803" stroke="#738CA8" stroke-width="2.50716" stroke-miterlimit="10" stroke-linecap="round" stroke-linejoin="round" stroke-dasharray="8.02 8.02"/>
<g opacity="0.5">
<g opacity="0.5">
<path opacity="0.5" d="M98.0372 355.327C98.6579 354.572 98.979 354.016 99.4686 353.65C102.216 351.621 104.825 349.511 107.631 347.701C108.83 346.91 108.953 346.054 108.71 344.709C108.283 342.237 108.075 339.707 108.006 337.257C107.945 335.275 108.954 334.652 110.762 335.696C112.569 336.739 114.487 337.754 116.244 339.046C117.693 340.068 118.937 340.323 120.545 339.304C122.152 338.286 123.819 337.486 125.625 336.768C126.692 336.364 127.898 336.041 129.054 335.966C130.319 335.862 130.744 336.571 130.38 337.844C129.571 340.529 128.902 343.295 128.093 345.98C127.568 347.531 127.972 348.599 128.902 349.877C130.734 352.325 132.375 354.942 133.797 357.617C135.556 360.672 134.804 361.814 131.228 362.067C130.65 362.104 129.934 362.061 129.326 361.989C128.471 361.865 127.615 361.742 126.788 361.728C122.458 361.36 121.23 362.042 119.589 366.008C118.583 368.394 117.181 370.18 114.944 371.484C113.417 372.364 112.473 371.912 112.28 370.317C112.022 368.036 111.843 365.615 111.694 363.304C111.657 362.726 111.839 362.09 111.772 361.403C111.843 359.033 111.674 358.843 109.216 358.443C106.48 357.884 103.664 357.463 100.899 356.793C99.8449 356.37 99.1202 355.859 98.0372 355.327ZM102.073 354.598C102.959 354.831 103.266 355.101 103.625 355.122C105.944 355.441 108.262 355.76 110.662 355.94C113.558 356.222 114.034 356.682 113.862 359.55C113.792 361.919 113.751 364.399 113.82 366.849C113.798 367.207 114.135 367.587 114.48 368.435C115.181 367.542 115.751 367.037 116.042 366.371C116.845 364.98 117.619 363.48 118.422 362.089C119.224 360.699 120.474 359.659 122.207 359.547C123.94 359.435 125.842 359.513 127.634 359.621C128.819 359.656 129.953 359.94 131.261 359.119C130.975 358.491 130.828 357.942 130.462 357.453C128.681 354.756 126.901 352.059 125.04 349.502C124.476 348.712 124.131 347.864 124.584 346.92C125.4 344.703 126.107 342.516 126.784 340.218C126.996 339.691 127.068 339.084 127.242 337.98C124.867 339.204 122.791 340.23 120.884 341.447C117.938 343.176 117.631 342.906 114.424 340.591C114.146 340.431 114.058 340.102 113.78 339.941C112.748 339.16 111.716 338.379 109.953 338.381C110.284 340.055 110.557 341.51 110.829 342.965C110.954 343.872 111.328 344.83 111.454 345.737C111.718 346.724 111.346 347.529 110.477 348.232C108.219 349.895 106.071 351.528 103.893 353.052C103.294 353.448 102.943 353.894 102.073 354.598Z" fill="#FF0000"/>
</g>
<g opacity="0.5">
<path opacity="0.5" d="M537.597 384.479C538.563 384.573 539.221 384.397 539.747 384.608C543.01 385.38 546.273 386.151 549.595 387.142C551.007 387.586 551.716 387.161 552.607 386.1C554.228 384.254 556.099 382.46 557.998 380.776C559.518 379.428 560.572 379.851 560.881 381.884C561.22 384.027 561.53 386.06 561.759 388.232C561.871 389.965 562.414 391.112 564.243 391.798C566.043 392.373 567.792 393.198 569.431 394.051C570.404 394.613 571.407 395.285 572.22 396.125C573.062 397.075 572.8 397.851 571.623 398.284C568.969 399.347 566.455 400.491 563.801 401.555C562.324 402.186 561.623 403.079 561.208 404.601C560.458 407.505 559.489 410.468 558.352 413.242C557.002 416.542 555.737 416.646 553.299 414.125C552.823 413.665 552.457 413.176 552.2 412.657C551.665 411.977 551.32 411.129 550.786 410.449C548.412 406.854 547.08 406.27 542.832 407.526C540.449 408.282 537.999 408.351 535.613 407.345C534.033 406.71 533.658 405.753 534.849 404.493C536.5 402.758 538.21 401.242 539.999 399.587C540.46 399.111 540.979 398.854 541.578 398.458C543.536 396.993 543.477 396.774 542.312 394.618C540.949 392.162 539.585 389.706 538.302 387.111C537.907 386.512 537.891 385.576 537.597 384.479ZM540.672 387.182C541.017 388.03 541.134 388.468 541.332 388.768C542.578 390.785 543.824 392.802 545.04 394.71C546.652 397.216 546.55 397.714 544.322 399.486C542.363 400.952 540.544 402.497 538.615 404.072C538.316 404.27 538.214 404.767 537.732 405.601C538.888 405.527 539.634 405.68 540.292 405.503C541.886 405.311 543.56 404.98 545.125 404.678C546.8 404.347 548.321 404.762 549.471 405.982C550.65 407.312 551.749 408.781 552.738 410.279C553.471 411.258 553.984 412.296 555.396 412.741C555.717 412.184 556.038 411.628 556.14 411.131C557.08 408.058 558.02 404.985 558.96 401.912C559.273 400.887 559.674 400.192 560.632 399.818C562.876 398.982 565.011 398.174 567.255 397.338C567.774 397.081 568.293 396.825 569.192 396.231C566.668 395.145 564.641 394.16 562.563 393.423C559.292 392.184 559.313 391.826 559.082 387.891C559.103 387.533 559.154 387.284 559.176 386.925C559.072 385.66 559.078 384.366 558.008 383.007C556.927 384.237 555.956 385.437 554.955 386.528C554.334 387.282 553.823 388.007 553.203 388.761C552.611 389.625 551.734 389.86 550.709 389.547C548.054 388.848 545.398 388.149 542.742 387.45C542.384 387.428 541.777 387.356 540.672 387.182Z" fill="#FF0000"/>
</g>
<g opacity="0.5">
<path opacity="0.5" d="M60.1125 284.852C60.8293 284.895 61.2679 284.778 61.6557 284.909C64.0334 285.447 66.3816 285.876 68.6496 286.444C69.6445 286.647 70.1635 286.391 70.7843 285.637C71.9455 284.268 73.1362 283.008 74.4365 281.72C75.4666 280.738 76.2421 281.001 76.5145 282.456C76.7869 283.911 77.0886 285.476 77.2513 286.96C77.3552 288.225 77.8096 289.044 79.0827 289.408C80.3557 289.772 81.5778 290.385 82.7706 290.888C83.4659 291.29 84.1906 291.801 84.8056 292.341C85.45 292.992 85.2385 293.518 84.3905 293.863C82.6143 294.692 80.7577 295.659 78.952 296.378C77.8847 296.782 77.5127 297.587 77.1994 298.611C76.7119 300.74 76.0854 302.789 75.3492 304.867C74.4524 307.223 73.5457 307.348 71.7809 305.588C71.4734 305.318 71.1365 304.938 70.9093 304.528C70.543 304.039 70.1767 303.549 69.9201 303.03C68.0887 300.582 67.1447 300.13 64.2423 301.143C62.517 301.723 60.8934 301.805 59.0935 301.229C57.9301 300.836 57.7538 300.178 58.4549 299.285C59.5358 298.055 60.7559 296.905 61.9759 295.755C62.2462 295.448 62.6555 295.22 63.0354 294.883C64.3945 293.814 64.3357 293.595 63.4562 292.067C62.4083 290.35 61.3603 288.632 60.4221 286.885C60.3848 286.307 60.3182 285.62 60.1125 284.852ZM62.3747 286.715C62.6607 287.343 62.7194 287.563 62.8879 287.753C63.8477 289.141 64.6978 290.559 65.7672 291.918C67.0345 293.577 66.9327 294.074 65.3836 295.312C64.0245 296.382 62.6948 297.561 61.4748 298.71C61.2848 298.879 61.1537 299.267 60.8325 299.823C61.6296 299.727 62.127 299.829 62.6754 299.682C63.8015 299.498 65.0079 299.174 66.134 298.99C67.2601 298.806 68.3647 298.98 69.2872 299.791C70.1295 300.741 70.9717 301.69 71.7336 302.779C72.2684 303.459 72.6934 304.168 73.7177 304.481C73.9586 304.064 74.0898 303.676 74.221 303.288C74.8181 301.13 75.3859 298.862 75.9536 296.594C76.1357 295.958 76.3472 295.431 77.0855 295.115C78.6718 294.455 80.1485 293.824 81.7348 293.164C82.1441 292.937 82.4437 292.739 83.1526 292.314C81.3234 291.629 79.8525 290.965 78.3307 290.55C76.004 289.763 76.0549 289.514 75.7589 286.655C75.7001 286.435 75.8607 286.157 75.8019 285.938C75.6765 285.031 75.6607 284.095 74.8185 283.145C74.0078 284.068 73.4164 284.932 72.7956 285.686C72.3648 286.271 72.0437 286.827 71.5835 287.303C71.1527 287.889 70.4946 288.065 69.7484 287.913C67.8683 287.476 65.8784 287.069 63.9982 286.632C63.5889 286.86 63.2011 286.728 62.3747 286.715Z" fill="#FF0000"/>
</g>
<g opacity="0.5">
<path opacity="0.5" d="M577.894 314.204C578.61 314.247 579.049 314.129 579.437 314.261C581.815 314.799 584.163 315.228 586.431 315.795C587.426 315.999 587.945 315.742 588.565 314.988C589.727 313.619 590.917 312.36 592.218 311.071C593.248 310.09 594.023 310.352 594.296 311.807C594.568 313.262 594.87 314.827 595.033 316.312C595.136 317.577 595.591 318.396 596.864 318.76C598.137 319.124 599.359 319.737 600.552 320.24C601.247 320.641 601.972 321.152 602.587 321.693C603.231 322.343 603.02 322.87 602.172 323.215C600.395 324.043 598.539 325.011 596.733 325.73C595.666 326.133 595.294 326.938 594.981 327.963C594.493 330.092 593.867 332.14 593.13 334.218C592.234 336.574 591.327 336.7 589.562 334.939C589.255 334.669 588.918 334.289 588.69 333.88C588.324 333.39 587.958 332.901 587.701 332.382C585.87 329.934 584.926 329.481 582.024 330.494C580.298 331.074 578.675 331.156 576.875 330.581C575.711 330.187 575.535 329.529 576.236 328.636C577.317 327.406 578.537 326.256 579.757 325.107C580.027 324.799 580.437 324.572 580.817 324.235C582.176 323.166 582.117 322.946 581.237 321.419C580.189 319.701 579.142 317.984 578.203 316.237C578.276 315.63 578.099 314.972 577.894 314.204ZM580.266 316.037C580.552 316.666 580.61 316.885 580.779 317.075C581.739 318.463 582.589 319.881 583.658 321.24C584.925 322.899 584.824 323.396 583.274 324.634C581.915 325.704 580.586 326.883 579.366 328.033C579.176 328.201 579.045 328.589 578.723 329.145C579.52 329.049 580.018 329.151 580.566 329.004C581.692 328.82 582.899 328.496 584.025 328.312C585.151 328.128 586.256 328.302 587.178 329.113C588.02 330.063 588.863 331.013 589.625 332.101C590.159 332.781 590.584 333.49 591.609 333.803C591.849 333.386 591.981 332.998 592.112 332.61C592.709 330.452 593.277 328.184 593.845 325.916C594.027 325.28 594.238 324.753 594.976 324.437C596.563 323.777 598.039 323.147 599.626 322.486C600.035 322.259 600.335 322.061 601.044 321.636C599.214 320.951 597.743 320.287 596.222 319.872C593.895 319.085 593.946 318.836 593.65 315.977C593.591 315.758 593.752 315.479 593.693 315.26C593.567 314.353 593.552 313.417 592.709 312.467C591.899 313.39 591.307 314.254 590.687 315.008C590.256 315.593 589.935 316.15 589.474 316.626C589.044 317.211 588.386 317.388 587.639 317.235C585.759 316.798 583.769 316.391 581.889 315.954C581.37 316.211 580.982 316.08 580.266 316.037Z" fill="#FF0000"/>
</g>
<g opacity="0.5">
<path opacity="0.5" d="M236.437 483.161C237.322 483.394 237.9 483.357 238.317 483.598C241.12 484.845 243.923 486.092 246.645 487.479C247.867 488.092 248.496 487.806 249.475 487.073C251.214 485.667 253.121 484.45 255.139 483.205C256.666 482.325 257.64 482.887 257.532 484.679C257.454 486.581 257.515 488.563 257.188 490.414C257.021 491.986 257.345 493.193 258.845 493.966C260.345 494.74 261.685 495.791 263.025 496.843C263.779 497.464 264.592 498.304 265.185 499.203C265.808 500.211 265.377 500.797 264.251 500.981C261.809 501.518 259.286 502.194 256.815 502.621C255.36 502.893 254.629 503.677 254.016 504.899C252.79 507.343 251.455 509.817 249.98 512.21C248.236 514.911 247.051 514.876 245.38 512.15C245.014 511.66 244.867 511.112 244.61 510.593C244.295 509.855 243.979 509.116 243.664 508.378C242.117 504.796 240.975 504.044 237.099 504.495C234.817 504.754 232.718 504.376 230.742 503.142C229.461 502.31 229.335 501.403 230.504 500.502C232.163 499.235 234.1 498.128 235.927 497.051C236.446 496.794 236.965 496.538 237.484 496.281C239.45 495.284 239.501 495.035 238.804 492.871C238.018 490.378 237.262 487.995 236.476 485.502C236.388 485.173 236.512 484.317 236.437 483.161ZM238.774 486.179C238.87 486.976 238.958 487.305 239.046 487.634C239.824 489.659 240.572 491.575 241.459 493.57C242.464 496.004 242.363 496.502 239.987 497.726C238.021 498.723 236.084 499.83 234.118 500.827C233.818 501.025 233.577 501.442 233.037 502.057C234.032 502.261 234.668 502.443 235.385 502.486C236.928 502.542 238.333 502.519 239.876 502.575C241.419 502.632 242.722 503.106 243.542 504.414C244.392 505.832 245.133 507.279 245.764 508.756C246.247 509.684 246.541 510.781 247.763 511.394C248.114 510.947 248.464 510.501 248.705 510.083C250.011 507.5 251.427 504.887 252.733 502.304C253.105 501.499 253.646 500.884 254.553 500.759C256.695 500.42 258.699 500 260.841 499.661C261.389 499.514 261.828 499.397 262.786 499.023C260.78 497.679 259.053 496.497 257.355 495.423C254.573 493.818 254.705 493.43 255.169 489.897C255.219 489.648 255.38 489.37 255.431 489.121C255.576 487.907 255.75 486.802 255.01 485.355C253.84 486.256 252.781 487.128 251.721 487.999C251.042 488.534 250.501 489.149 249.822 489.684C249.062 490.358 248.345 490.315 247.431 489.972C245.155 488.936 242.989 487.871 240.713 486.835C240.186 486.624 239.688 486.522 238.774 486.179Z" fill="#FF0000"/>
</g>
<g opacity="0.5">
<path opacity="0.5" d="M74.6202 399.098C75.337 399.141 75.7758 399.024 76.1635 399.155C78.5412 399.694 80.8894 400.122 83.1574 400.69C84.1523 400.894 84.6713 400.637 85.2921 399.883C86.4533 398.514 87.644 397.254 88.9443 395.966C89.9744 394.984 90.7499 395.247 91.0223 396.702C91.2946 398.157 91.5964 399.722 91.7591 401.206C91.863 402.471 92.3174 403.29 93.5905 403.654C94.8635 404.018 96.0857 404.631 97.2784 405.135C97.9737 405.536 98.6984 406.047 99.3134 406.588C99.9578 407.238 99.7463 407.765 98.8983 408.109C97.1221 408.938 95.2655 409.906 93.4599 410.624C92.3925 411.028 92.0205 411.833 91.7072 412.857C91.2197 414.986 90.5932 417.035 89.857 419.113C88.9602 421.469 88.0534 421.594 86.2887 419.834C85.9812 419.564 85.6443 419.184 85.4171 418.774C85.0508 418.285 84.6845 417.795 84.4279 417.276C82.5965 414.828 81.6525 414.376 78.7501 415.389C77.0248 415.969 75.4012 416.051 73.6013 415.475C72.4379 415.082 72.2616 414.424 72.9627 413.531C74.0436 412.301 75.2637 411.151 76.4837 410.001C76.7539 409.694 77.1633 409.466 77.5432 409.13C78.9023 408.06 78.8435 407.841 77.964 406.313C76.9161 404.596 75.8681 402.878 74.9299 401.131C75.0023 400.524 74.8259 399.866 74.6202 399.098ZM76.9921 400.931C77.2781 401.56 77.3369 401.779 77.5053 401.969C78.4651 403.358 79.3152 404.776 80.3847 406.135C81.6519 407.794 81.5501 408.291 80.0011 409.529C78.642 410.598 77.3123 411.777 76.0923 412.927C75.9023 413.096 75.7711 413.483 75.45 414.04C76.2471 413.944 76.7445 414.045 77.2929 413.898C78.419 413.714 79.6254 413.391 80.7515 413.207C81.8776 413.023 82.9822 413.197 83.9047 414.008C84.7469 414.957 85.5892 415.907 86.3511 416.996C86.8859 417.676 87.3109 418.384 88.3352 418.698C88.5761 418.281 88.7073 417.893 88.8384 417.505C89.4356 415.347 90.0034 413.079 90.5711 410.811C90.7532 410.174 90.9647 409.647 91.703 409.332C93.2893 408.672 94.7659 408.041 96.3522 407.381C96.7615 407.154 97.0612 406.956 97.7701 406.531C95.9408 405.846 94.47 405.182 92.9482 404.767C90.6214 403.98 90.6723 403.731 90.3764 400.871C90.3176 400.652 90.4782 400.374 90.4194 400.155C90.294 399.248 90.2782 398.312 89.436 397.362C88.6252 398.284 88.0339 399.148 87.4131 399.902C86.9823 400.488 86.6612 401.044 86.201 401.52C85.7701 402.106 85.1121 402.282 84.3659 402.129C82.4857 401.693 80.4959 401.286 78.6157 400.849C78.0967 401.106 77.7089 400.974 76.9921 400.931Z" fill="#FF0000"/>
</g>
<g opacity="0.5">
<path opacity="0.5" d="M103.461 517.263C104.06 516.868 104.33 516.56 104.74 516.333C106.955 515.387 109.14 514.331 111.385 513.495C112.342 513.121 112.554 512.594 112.648 511.628C112.755 509.836 113.002 508.124 113.358 506.383C113.693 505.001 114.461 504.795 115.522 505.686C116.613 506.687 117.733 507.797 118.715 508.827C119.557 509.777 120.362 510.149 121.649 509.687C122.935 509.224 124.281 508.981 125.517 508.768C126.314 508.672 127.25 508.656 127.996 508.809C128.852 508.932 128.999 509.48 128.627 510.285C127.663 511.954 126.729 513.732 125.686 515.54C125.124 516.513 125.11 517.34 125.623 518.378C126.401 520.403 127.179 522.428 127.737 524.512C128.383 526.925 127.733 527.569 125.275 527.17C124.778 527.068 124.39 526.937 124.002 526.805C123.366 526.623 122.839 526.412 122.312 526.2C119.349 525.231 118.471 525.466 116.558 527.977C115.536 529.427 114.177 530.496 112.422 530.966C111.216 531.289 110.63 530.859 110.775 529.644C110.912 527.962 111.298 526.331 111.574 524.729C111.675 524.231 111.807 523.843 111.938 523.455C112.433 521.795 112.265 521.605 110.684 520.97C108.825 520.175 106.967 519.38 105.188 518.446C104.552 518.264 104.186 517.775 103.461 517.263ZM106.438 517.406C106.994 517.727 107.162 517.917 107.441 518.078C109.021 518.712 110.572 519.237 112.153 519.871C114.092 520.527 114.319 520.937 113.773 522.846C113.277 524.507 112.921 526.248 112.535 527.88C112.485 528.128 112.573 528.457 112.749 529.115C113.429 528.581 113.838 528.353 114.188 527.907C115.029 527.094 115.73 526.201 116.57 525.388C117.38 524.466 118.448 524.062 119.552 524.236C120.796 524.491 122.069 524.855 123.232 525.248C124.008 525.511 124.813 525.883 125.771 525.509C125.653 525.07 125.645 524.602 125.557 524.273C124.75 522.138 123.943 520.004 123.136 517.869C122.85 517.24 122.813 516.663 123.214 515.967C124.127 514.547 125.039 513.127 125.842 511.737C126.083 511.319 126.214 510.932 126.506 510.266C124.641 510.765 123.077 511.067 121.57 511.588C119.187 512.344 118.989 512.045 117.246 509.926C117.078 509.736 117.019 509.517 116.85 509.327C116.206 508.676 115.642 507.887 114.508 507.603C114.473 508.788 114.408 509.863 114.344 510.939C114.301 511.655 114.338 512.233 114.295 512.95C114.252 513.667 113.931 514.223 113.192 514.538C111.387 515.257 109.61 516.086 107.805 516.805C107.476 516.893 107.066 517.12 106.438 517.406Z" fill="#FF0000"/>
</g>
<g opacity="0.5">
<path opacity="0.5" d="M488.39 159.164C489.049 158.987 489.458 158.76 489.926 158.752C492.347 158.574 494.767 158.396 497.108 158.356C498.153 158.311 498.504 157.864 498.986 157.03C499.73 155.42 500.584 153.781 501.467 152.251C502.189 151 503.045 151.123 503.727 152.351C504.438 153.688 505.149 155.026 505.641 156.422C506.073 157.599 506.718 158.25 508.122 158.226C509.417 158.232 510.77 158.457 512.123 158.682C512.979 158.805 513.755 159.068 514.45 159.469C515.284 159.951 515.183 160.448 514.532 161.093C513.013 162.44 511.493 163.788 509.944 165.026C509.075 165.729 508.812 166.504 508.887 167.66C509.006 169.861 508.987 171.982 508.858 174.133C508.707 176.642 507.859 176.986 505.664 175.811C505.247 175.571 504.939 175.3 504.522 175.059C504.075 174.709 503.599 174.249 503.153 173.898C500.752 171.956 499.676 171.891 497.199 173.613C495.701 174.602 494.085 175.152 492.293 175.045C491.079 174.9 490.713 174.41 491.136 173.357C491.909 171.856 492.712 170.466 493.595 168.936C493.836 168.519 494.106 168.212 494.376 167.904C495.289 166.484 495.259 166.374 493.971 165.074C492.543 163.693 491.115 162.313 489.658 160.823C489.102 160.501 488.845 159.982 488.39 159.164ZM491.054 160.331C491.42 160.82 491.618 161.12 491.787 161.31C493.017 162.391 494.356 163.443 495.586 164.524C497.234 165.845 497.322 166.174 496.139 167.902C495.117 169.351 494.204 170.771 493.292 172.191C493.131 172.469 493.219 172.798 493.037 173.435C493.805 173.229 494.353 173.082 494.763 172.855C495.801 172.342 496.809 171.719 497.847 171.206C498.885 170.693 500.011 170.508 501.014 171.18C502.126 171.822 503.159 172.604 504.191 173.385C504.915 173.896 505.421 174.466 506.496 174.53C506.598 174.033 506.729 173.645 506.641 173.316C506.601 170.976 506.591 168.745 506.552 166.405C506.485 165.717 506.668 165.081 507.267 164.685C508.626 163.616 509.875 162.576 511.234 161.506C511.534 161.308 511.775 160.891 512.345 160.386C510.414 160.198 508.841 160.032 507.188 160.004C504.709 159.963 504.62 159.634 503.666 156.951C503.608 156.732 503.659 156.483 503.49 156.293C503.145 155.445 502.801 154.597 501.768 153.816C501.236 154.899 500.923 155.923 500.47 156.867C500.178 157.533 499.996 158.17 499.814 158.806C499.523 159.472 499.033 159.839 498.236 159.935C496.254 159.995 494.301 160.166 492.349 160.337C492.319 160.227 491.851 160.235 491.054 160.331Z" fill="#FF0000"/>
</g>
<g opacity="0.5">
<path opacity="0.5" d="M303.233 177.508C303.95 177.551 304.418 177.543 304.806 177.675C307.103 178.352 309.481 178.89 311.698 179.707C312.722 180.02 313.241 179.764 313.862 179.01C315.052 177.75 316.353 176.461 317.821 175.363C318.881 174.491 319.657 174.753 319.929 176.208C320.092 177.693 320.364 179.148 320.417 180.662C320.521 181.927 320.866 182.775 322.168 183.249C323.47 183.723 324.693 184.336 325.805 184.978C326.5 185.379 327.225 185.891 327.76 186.57C328.404 187.22 328.083 187.776 327.235 188.121C325.32 188.87 323.514 189.588 321.599 190.337C320.531 190.74 320.02 191.465 319.707 192.489C319.08 194.538 318.344 196.616 317.469 198.614C316.433 200.889 315.526 201.015 313.842 199.115C313.505 198.735 313.307 198.436 313.08 198.026C312.714 197.537 312.457 197.018 312.171 196.389C310.53 193.773 309.586 193.321 306.624 194.114C304.87 194.584 303.217 194.557 301.497 193.842C300.414 193.31 300.128 192.681 301.078 191.839C302.298 190.689 303.547 189.649 304.767 188.499C305.147 188.162 305.476 188.074 305.856 187.737C307.245 186.777 307.296 186.529 306.416 185.001C305.478 183.254 304.62 181.368 303.791 179.592C303.396 178.993 303.358 178.415 303.233 177.508ZM305.415 179.51C305.591 180.168 305.65 180.387 305.818 180.577C306.668 181.995 307.548 183.522 308.398 184.94C309.475 186.767 309.454 187.126 307.766 188.283C306.377 189.243 305.018 190.313 303.659 191.382C303.469 191.551 303.338 191.938 303.017 192.495C303.843 192.508 304.341 192.61 304.889 192.463C306.045 192.389 307.251 192.065 308.407 191.991C309.533 191.807 310.667 192.091 311.509 193.04C312.351 193.99 313.113 195.079 313.765 196.197C314.19 196.906 314.615 197.615 315.559 198.067C315.8 197.65 316.07 197.343 316.202 196.955C316.909 194.767 317.615 192.58 318.352 190.502C318.534 189.865 318.855 189.309 319.622 189.103C321.238 188.553 322.744 188.032 324.36 187.481C324.799 187.363 325.098 187.166 325.807 186.741C324.058 185.916 322.587 185.252 321.116 184.589C318.76 183.692 318.921 183.414 318.764 180.635C318.705 180.415 318.866 180.137 318.836 180.028C318.821 179.091 318.805 178.155 318.072 177.176C317.262 178.099 316.531 178.882 315.91 179.636C315.45 180.112 315.019 180.698 314.669 181.144C314.238 181.73 313.58 181.906 312.804 181.644C310.895 181.098 309.095 180.522 307.185 179.976C306.549 179.794 306.161 179.662 305.415 179.51Z" fill="#FF0000"/>
</g>
<g opacity="0.5">
<path opacity="0.5" d="M431.363 220.522C431.984 219.768 432.305 219.212 432.795 218.846C435.542 216.816 438.151 214.707 440.928 212.787C442.126 211.996 442.25 211.14 442.007 209.795C441.58 207.323 441.372 204.793 441.303 202.343C441.242 200.361 442.251 199.738 444.059 200.781C445.866 201.825 447.784 202.84 449.541 204.132C450.99 205.154 452.234 205.409 453.841 204.39C455.449 203.372 457.116 202.572 458.922 201.853C459.989 201.45 461.195 201.127 462.351 201.052C463.616 200.948 464.041 201.657 463.677 202.93C462.868 205.615 462.199 208.381 461.39 211.066C460.975 212.588 461.269 213.684 462.199 214.963C464.031 217.411 465.672 220.028 467.204 222.673C468.963 225.728 468.211 226.87 464.635 227.123C464.057 227.161 463.34 227.118 462.733 227.045C461.877 226.922 461.021 226.798 460.195 226.785C455.865 226.417 454.637 227.099 452.996 231.065C451.989 233.45 450.587 235.237 448.351 236.541C446.823 237.421 445.909 237.078 445.687 235.374C445.428 233.092 445.25 230.672 445.101 228.361C445.064 227.783 445.246 227.146 445.179 226.459C445.249 224.089 445.081 223.899 442.623 223.5C439.777 222.97 437.071 222.519 434.305 221.85C433.281 221.536 432.417 220.945 431.363 220.522ZM435.4 219.793C436.285 220.026 436.593 220.296 436.951 220.318C439.27 220.637 441.589 220.956 443.988 221.136C446.994 221.388 447.331 221.768 447.188 224.745C447.118 227.115 447.077 229.594 447.146 232.044C447.124 232.403 447.461 232.783 447.806 233.631C448.507 232.738 449.077 232.232 449.369 231.566C450.172 230.176 450.945 228.676 451.748 227.285C452.551 225.894 453.8 224.854 455.533 224.743C457.267 224.631 459.168 224.709 460.96 224.816C462.145 224.852 463.279 225.136 464.587 224.315C464.301 223.686 464.154 223.138 463.788 222.648C462.008 219.952 460.227 217.255 458.366 214.697C457.802 213.908 457.458 213.06 457.8 212.145C458.617 209.928 459.324 207.741 460.001 205.443C460.212 204.916 460.175 204.339 460.459 203.205C458.084 204.429 456.008 205.455 454.1 206.672C451.184 208.511 450.847 208.131 447.641 205.816C447.363 205.656 447.275 205.327 446.997 205.166C445.964 204.385 444.932 203.604 443.17 203.606C443.501 205.28 443.773 206.735 444.045 208.19C444.281 209.068 444.545 210.055 444.67 210.962C444.935 211.949 444.563 212.754 443.693 213.457C441.435 215.12 439.287 216.753 437.139 218.387C436.729 218.614 436.269 219.09 435.4 219.793Z" fill="#FF0000"/>
</g>
</g>
</g>
<defs>
<clipPath id="clip0_252_6469">
<rect width="543.441" height="554.763" fill="white" transform="translate(516.859) rotate(75)"/>
</clipPath>
</defs>
</svg>
