<svg width="296" height="280" viewBox="0 0 296 280" fill="none" xmlns="http://www.w3.org/2000/svg">
<mask id="mask0_90_6725" style="mask-type:alpha" maskUnits="userSpaceOnUse" x="0" y="0" width="296" height="280">
<rect width="296" height="280" rx="20" fill="#ECBC1F"/>
</mask>
<g mask="url(#mask0_90_6725)">
<g opacity="0.4">
<path fill-rule="evenodd" clip-rule="evenodd" d="M31 -16.3046C32.13 -17.9946 34.16 -16.1646 35.54 -15.4346C36.6803 -14.9411 37.7803 -14.3594 38.83 -13.6946C40.0109 -12.5816 41.1104 -11.3852 42.12 -10.1146C48.6 -3.11465 54.98 4.40536 61.56 11.6454C62.45 12.6454 64.48 14.4854 64.56 15.4154C64.65 16.5454 63.5 17.8654 62.62 18.6054C61.861 19.2759 60.9678 19.777 60 20.0754C59 20.0754 57 17.2554 56.42 16.5954C49.63 9.35536 43.11 1.89536 36.42 -5.64464C35.2188 -6.76531 34.0898 -7.96105 33.04 -9.22465C31.75 -11.1846 31.29 -13.3046 31 -16.3046ZM32.93 -13.3046C33.2613 -13.359 33.5651 -13.5222 33.7933 -13.7685C34.0215 -14.0148 34.1611 -14.3301 34.19 -14.6646C33.6619 -15.1084 33.0281 -15.4081 32.35 -15.5346C32.49 -14.7546 32.74 -14.0746 32.91 -13.3046H32.93ZM33.41 -12.1446C33.7098 -11.2529 34.134 -10.4079 34.67 -9.63465C36.097 -10.2593 37.2706 -11.3483 38 -12.7246C37.14 -13.2546 36.21 -13.7246 35.29 -14.1746C35.1606 -13.7081 34.9202 -13.2797 34.5894 -12.9262C34.2585 -12.5727 33.847 -12.3046 33.39 -12.1446H33.41ZM35.35 -8.47465C43.88 0.305353 51.94 9.52535 60.3 18.5254C61.584 18.0363 62.6252 17.0634 63.2 15.8154C63.0828 15.615 62.9179 15.4467 62.72 15.3254C62.23 15.9654 61.89 16.7654 60.98 16.9753C60.78 16.9753 60.78 16.7154 60.69 16.5854C61.03 15.9053 62.69 15.0353 61.85 14.3653C61.5 14.7553 61.41 15.3654 60.69 15.4254C60.69 15.2954 60.52 15.3354 60.49 15.2354C60.49 14.4954 61.41 14.1653 61.27 13.5854C60.73 13.2854 60.77 14.2854 60.01 14.0754C60.01 13.9754 59.93 13.9554 59.91 13.8754C59.78 13.1754 60.81 13.1954 60.4 12.5254C59.83 12.5254 59.88 13.1054 59.33 13.1054C59.19 13.0254 59.03 12.9654 59.04 12.7154C59.11 12.1854 60.04 12.0854 59.53 11.5554C59.05 11.3454 59.04 12.3354 58.27 12.1354C58.27 12.0454 58.19 12.0254 58.17 11.9454C58.03 11.2554 58.98 11.2454 58.75 10.7854C58.33 10.5354 58.34 11.4353 57.75 11.3653C57.75 11.1753 57.37 11.2853 57.46 10.9753C57.46 10.4353 58.36 10.1954 57.84 9.71535C57.34 9.76535 57.35 10.3254 56.84 10.3954C56.84 10.2154 56.52 10.3254 56.55 10.1054C56.5 9.48535 57.41 9.21535 56.93 8.75535C56.48 8.84535 56.52 9.43536 55.93 9.42536C55.83 9.30536 55.66 9.23536 55.64 9.04536C55.75 8.60536 56.18 8.49535 56.22 7.97535C55.86 7.74535 55.74 8.43535 55.22 8.36535C55.08 8.28535 54.91 8.22535 54.93 7.97535C54.95 7.72535 55.45 7.59535 55.41 7.10535C55.3436 7.08084 55.2832 7.04221 55.2332 6.99215C55.1831 6.94209 55.1445 6.88178 55.12 6.81536C54.78 6.96536 54.69 7.35536 54.25 7.39536C53.45 7.00536 54.63 6.39536 54.44 6.04536C54.34 6.04536 54.29 5.93535 54.25 5.85535C53.93 5.68535 53.25 6.85535 52.99 5.94535C52.99 5.47535 53.82 5.25535 53.38 4.88535C52.94 4.51535 52.96 5.46535 52.38 5.36535C52.24 5.28535 52.08 5.22536 52.09 4.98536C52.2 4.55536 52.97 4.25536 52.48 3.82536C52.06 3.91536 52.07 4.43535 51.61 4.49535C51.61 4.31535 51.29 4.43536 51.32 4.20536C51.2 3.57536 52.05 3.49536 51.71 2.95536C51.28 2.67536 51.16 3.40536 50.71 3.43536C50.71 3.25536 50.39 3.36536 50.42 3.14536C50.37 2.51536 51.22 2.42535 50.71 1.88535C50.32 1.67535 50.27 2.51535 49.55 2.27535C49.5493 2.17035 49.5142 2.06849 49.45 1.98536C49.45 1.53536 50 1.56535 50.03 1.11535C49.9645 1.0892 49.905 1.05001 49.8552 1.00016C49.8053 0.950306 49.7661 0.890829 49.74 0.825356C49.3 0.825356 49.39 1.37535 48.87 1.30535C48.73 1.22535 48.57 1.16535 48.58 0.915352C48.58 0.475351 49.31 0.405357 49.07 0.0453568C48.65 -0.244644 48.58 0.485355 48.07 0.435356C47.28 -0.00464439 48.44 -0.454638 48.26 -0.824638C47.9 -1.04464 47.8 -0.284649 47.26 -0.334648C47.26 -0.524649 46.89 -0.414648 46.97 -0.724648C47.05 -1.03465 47.52 -1.14464 47.56 -1.59464C47.14 -1.84464 46.45 -0.814648 46.2 -1.69465C46.29 -2.05465 46.8 -2.00464 46.78 -2.46464C46.34 -2.94464 46.2 -1.94464 45.43 -2.17464C45.43 -2.35464 45.32 -2.38464 45.33 -2.56464C45.39 -2.95464 46.14 -3.05464 45.91 -3.43464C45.59 -3.62464 44.91 -2.54464 44.65 -3.43464C44.65 -3.91464 45.26 -3.79465 45.23 -4.30465C44.8 -4.80465 44.7 -3.89464 44.07 -4.01464C43.23 -4.42464 44.61 -4.88465 44.36 -5.27465C43.95 -5.47465 43.88 -4.62464 43.2 -4.78464C43.2 -4.88464 43.12 -4.90464 43.11 -4.98464C43.06 -5.57464 43.56 -5.62464 43.69 -6.04464C43.33 -6.27464 43.21 -5.59464 42.69 -5.65464C42.55 -5.74464 42.38 -5.80464 42.4 -6.04464C42.4 -6.46464 43.16 -6.58464 42.88 -7.04464C42.6 -7.50464 42.07 -6.04465 41.53 -6.75465C41.53 -7.36465 42.08 -7.35465 42.11 -7.91465C41.62 -8.22465 41.65 -7.30465 40.95 -7.52465C40.95 -7.62465 40.87 -7.64464 40.85 -7.71464C40.72 -8.33464 41.57 -8.37464 41.24 -8.87464C40.81 -9.10464 40.8 -8.18464 40.08 -8.39464C40.03 -8.53465 39.94 -8.63464 39.88 -8.78464C40.08 -9.14464 40.69 -9.35464 40.47 -9.84464C39.94 -9.75464 39.95 -9.13465 39.3 -9.16465C39.3 -9.29465 39.13 -9.25465 39.11 -9.36465C39.03 -10.1446 40.11 -10.1346 39.59 -10.8146C39.12 -10.7646 39.2 -10.1746 38.59 -10.2346C37.94 -10.7146 38.8 -11.0246 38.88 -11.5846C38.69 -11.5846 38.75 -11.8547 38.49 -11.7747C38.15 -10.1646 36.66 -9.40465 35.33 -8.47465H35.35Z" fill="white"/>
<path fill-rule="evenodd" clip-rule="evenodd" d="M16.0997 4.07403C16.4597 1.07403 20.7697 -2.54597 23.3497 0.214027C26.1297 3.16403 23.1597 8.44403 21.0297 10.074C23.8397 10.904 27.0297 12.214 27.8997 14.914C29.5697 19.914 21.8997 19.694 19.6797 17.234C20.6197 20.924 19.1797 26.314 15.5197 24.774C13.3597 23.864 12.6697 20.214 13.1997 17.034C10.5897 18.894 3.42969 19.474 3.42969 14.624C3.44787 13.8352 3.63966 13.06 3.99146 12.3537C4.34325 11.6473 4.84638 11.0272 5.46506 10.5374C6.08374 10.0476 6.80275 9.70021 7.57095 9.51987C8.33915 9.33953 9.13767 9.33071 9.90967 9.49403C8.83967 7.89402 6.76968 6.03403 7.19968 2.49403C7.31393 1.64492 7.71031 0.85887 8.32513 0.262183C8.93996 -0.334503 9.73751 -0.707179 10.5897 -0.795968C13.5697 -0.855968 15.1397 2.07403 16.0997 4.07403ZM15.7097 9.68403C15.5597 6.46403 14.6597 3.39402 12.9097 1.75402C10.8497 -0.15598 8.24966 1.16402 8.64966 4.36402C9.04966 7.56402 12.3997 10.034 14.6497 10.944C14.8097 10.374 15.4397 10.224 15.7097 9.72402V9.68403ZM20.9297 7.94402C21.9313 6.8648 22.6043 5.52229 22.8697 4.07403C23.0797 2.17403 22.4397 0.534028 20.5497 0.794028C17.6597 1.18403 16.8397 5.51402 17.1597 8.52402C17.2097 8.98402 17.0397 9.66402 17.5497 9.88402C18.8097 10.354 20.0397 9.07403 20.9297 7.98403V7.94402ZM14.3597 12.104C12.4997 11.754 10.5097 10.344 8.25967 10.654C7.42569 10.798 6.65884 11.2027 6.06946 11.8101C5.48007 12.4174 5.09852 13.1961 4.97968 14.034C4.72968 15.954 6.07966 16.794 7.58966 16.944C9.05956 17.0788 10.5361 16.7697 11.8285 16.0566C13.1209 15.3436 14.1698 14.2593 14.8397 12.944C14.7007 12.8597 14.5843 12.7428 14.5007 12.6034C14.417 12.464 14.3686 12.3064 14.3597 12.144V12.104ZM15.6097 12.204C16.3297 12.604 17.4497 12.314 17.2597 11.204C16.3997 10.644 15.7497 11.544 15.6097 12.244V12.204ZM24.2197 17.614C25.0097 17.614 26.3297 17.344 26.5397 16.614C26.8797 15.514 25.8097 14.154 25.1897 13.614C23.8297 12.424 20.6697 11.104 18.7097 11.484C18.4562 11.8622 18.292 12.293 18.2297 12.744C18.5544 14.1046 19.3158 15.3213 20.3976 16.208C21.4794 17.0947 22.8219 17.6026 24.2197 17.654V17.614ZM14.2197 18.394C14.1297 20.344 14.9897 23.444 16.4497 23.514C17.6797 23.584 18.2697 21.754 18.3797 20.614C18.6297 17.954 17.5697 14.044 16.2497 13.554C15.5897 14.914 14.3697 15.954 14.2597 18.434L14.2197 18.394Z" fill="white"/>
<path fill-rule="evenodd" clip-rule="evenodd" d="M29.4421 8.56602C32.0521 7.77602 31.8421 12.076 29.4421 11.466C28.2421 11.166 28.1721 8.95602 29.4421 8.56602ZM29.9321 10.306C30.0421 10.156 30.2421 10.106 30.2221 9.82601C30.0921 9.82601 30.0321 9.68601 29.8321 9.72601C29.6321 9.76601 29.6621 10.306 29.9321 10.306Z" fill="white"/>
<path fill-rule="evenodd" clip-rule="evenodd" d="M84.2837 17.4652C86.5037 15.3152 92.4037 15.1752 92.4037 19.3952C92.4037 22.6452 88.7737 24.9052 85.4037 25.2052C88.0037 26.5752 89.5437 33.7652 85.5937 34.9652C85.0926 35.1035 84.5685 35.1375 84.0537 35.0652C81.3337 34.6852 80.2337 31.7152 79.4137 29.1652C78.0837 31.3552 76.4137 35.0652 72.9337 35.0652C72.2442 35.0523 71.5697 34.8615 70.9757 34.511C70.3817 34.1606 69.8884 33.6625 69.5437 33.0652C67.8237 30.2352 70.5437 26.2952 72.9337 25.3252C70.3837 24.0552 66.8837 22.3252 67.6137 18.3252C67.8297 17.5196 68.288 16.7998 68.9265 16.2632C69.565 15.7267 70.353 15.3992 71.1837 15.3252C73.7837 15.0252 75.7537 16.7152 76.8937 18.2252C76.4537 14.2252 77.4837 10.3052 80.6637 9.91519C84.3437 9.47519 85.3437 13.8952 84.2837 17.4652ZM81.4837 11.4652C81.1536 11.4299 80.8198 11.4632 80.5032 11.5631C80.1865 11.6629 79.8939 11.827 79.6437 12.0452C77.5937 13.8152 77.7537 19.1852 79.2537 21.4252C79.8117 21.3686 80.3754 21.4369 80.9037 21.6252C82.3237 19.8952 84.9537 12.4952 81.4837 11.4652ZM70.3537 17.0752C70.0091 17.2793 69.7167 17.5609 69.4997 17.8976C69.2828 18.2344 69.1472 18.617 69.1037 19.0152C68.8337 22.3552 73.8037 24.8952 77.2237 23.8452C77.1637 23.0152 77.6637 22.7452 77.9037 22.2052C76.7137 20.1452 74.1637 15.0752 70.3537 17.0752ZM90.8637 19.7852C91.0737 17.9952 89.7337 17.3052 88.2537 17.3652C85.1337 17.5052 83.4737 20.6652 82.1537 22.6852C82.3592 23.0725 82.4592 23.507 82.4437 23.9452C86.1437 24.0752 90.5137 22.6152 90.8637 19.7852ZM81.0437 23.3652C80.4937 22.6452 79.0437 22.6052 78.8237 23.6552C78.7537 23.9852 78.9737 24.3552 78.8237 24.9152C79.8837 25.6652 81.6337 24.9152 81.0437 23.3652ZM77.5637 25.3652C75.8037 25.7652 73.5137 26.0352 72.0537 27.4952C71.5145 28.0009 71.1021 28.6267 70.8502 29.3217C70.5982 30.0167 70.5138 30.7614 70.6037 31.4952C70.7462 31.9565 70.9951 32.3779 71.3303 32.7253C71.6656 33.0727 72.0778 33.3364 72.5337 33.4952C73.0897 33.5509 73.651 33.4748 74.1722 33.2733C74.6934 33.0718 75.1598 32.7504 75.5337 32.3352C77.1557 30.6113 78.2609 28.4665 78.7237 26.1452C78.1437 26.0752 78.0437 25.5452 77.5137 25.3952L77.5637 25.3652ZM80.3737 26.4252C80.2893 28.0561 80.6932 29.6751 81.5337 31.0752C82.1037 32.0752 83.3037 33.7652 84.7237 33.6852C87.3837 33.5352 86.8237 29.0552 85.5937 27.3952C84.6637 26.1352 83.2637 25.8652 82.1137 25.3952C81.6395 25.9233 81.0148 26.2932 80.3237 26.4552L80.3737 26.4252Z" fill="white"/>
<path fill-rule="evenodd" clip-rule="evenodd" d="M-13.2985 27.2363C-14.2985 23.1063 -14.2985 19.6662 -11.8485 17.3662C-10.2383 15.9508 -8.19061 15.1318 -6.04848 15.0462C-4.56564 15.003 -3.0972 15.3477 -1.78847 16.0462C0.991528 17.3663 3.4315 19.8962 5.6515 21.9462C8.0098 24.0527 10.1201 26.4214 11.9415 29.0062C15.3115 33.8362 18.7115 40.7262 19.4815 48.1562C20.3315 56.2762 18.1915 64.2262 13.9715 69.1562C11.8357 71.5905 9.15196 73.4825 6.14152 74.6763C2.6622 76.2322 -1.17375 76.8163 -4.95848 76.3663C-16.2685 74.9563 -23.9585 68.7262 -30.3985 61.7562C-32.6708 59.4841 -34.4779 56.7905 -35.7185 53.8262C-37.1245 50.4269 -38.037 46.844 -38.4285 43.1862C-39.2285 34.3462 -37.5085 26.8363 -33.7885 21.5263C-31.5885 18.3963 -28.3785 14.8162 -23.5285 14.4662C-20.4785 14.2462 -18.1785 15.7862 -17.4385 17.8562C-16.6985 19.9262 -17.6285 22.5263 -16.6685 24.5263C-16.3346 25.1937 -15.8608 25.7813 -15.2792 26.2489C-14.6976 26.7166 -14.022 27.0534 -13.2985 27.2363ZM-26.1685 16.5963C-29.4085 17.9863 -32.0385 21.0563 -33.8085 24.2363C-35.7149 27.9931 -36.7893 32.1167 -36.9585 36.3262C-37.6785 45.7462 -34.9585 54.0362 -30.4785 59.4362C-26.2185 64.5462 -19.9685 70.0662 -13.2585 72.7862C-9.15147 74.5035 -4.69877 75.2331 -0.258472 74.9162C1.81657 74.6889 3.84204 74.1319 5.74153 73.2663C9.75889 71.6112 13.0994 68.6477 15.2215 64.8562C18.9015 58.2362 18.9315 47.1362 15.9915 39.5163C14.226 34.8602 11.6758 30.541 8.45152 26.7463C6.79152 24.8363 5.01152 23.3163 3.33152 21.7463C1.62693 19.9709 -0.368435 18.4997 -2.56847 17.3963C-3.99847 16.7763 -6.99848 15.9863 -8.46848 17.3963C-9.69848 18.5763 -9.46848 21.7562 -9.62848 23.7862C-9.78848 25.8162 -10.0785 28.7362 -12.0485 29.0062C-13.3109 29.0551 -14.5479 28.6428 -15.5285 27.8462C-16.448 27.2554 -17.2163 26.4574 -17.772 25.5162C-18.3277 24.575 -18.6553 23.5168 -18.7285 22.4263C-18.7885 20.9063 -18.3685 19.5663 -18.9185 18.2663C-19.6285 16.5763 -21.5185 15.8763 -23.8485 16.1463C-24.6395 16.1832 -25.421 16.3347 -26.1685 16.5963ZM-11.6585 27.2363C-10.6585 24.7063 -11.1085 20.8362 -10.6585 18.0462C-13.1885 19.8462 -12.5785 24.0763 -11.6585 27.2363Z" fill="white"/>
<path fill-rule="evenodd" clip-rule="evenodd" d="M30.8045 21.0745C34.0345 20.2545 33.7045 25.0745 30.9945 24.8445C29.1445 24.6545 28.8345 21.5445 30.8045 21.0745ZM31.9645 22.8145C31.8245 21.6445 30.0145 22.6645 30.9645 23.6845C31.6245 23.5945 32.0445 23.2945 31.9645 22.7845V22.8145Z" fill="white"/>
<path fill-rule="evenodd" clip-rule="evenodd" d="M-1.0197 21.915C2.4003 21.315 5.58029 24.345 6.91029 26.555C8.41029 29.055 8.07029 32.895 4.91029 33.225C2.83029 33.445 0.850286 32.065 -0.409714 30.905C-1.48971 29.905 -3.95971 26.775 -3.69971 24.235C-3.57971 22.865 -2.2097 22.125 -1.0197 21.915ZM-2.1797 24.715C-0.880207 24.3062 0.461903 24.0478 1.8203 23.945C0.830297 22.855 -2.3197 23.165 -2.1797 24.715ZM2.75029 24.425C1.14029 24.845 -0.619711 25.115 -2.24971 25.495C-2.24971 25.945 -1.9297 26.085 -1.9597 26.555C0.0402977 26.245 1.87029 25.805 3.94029 25.555C4.04029 25.075 3.10029 24.815 2.75029 24.425ZM4.49031 26.075C2.77031 26.795 0.26031 26.735 -1.50969 27.425C-0.99969 29.145 0.58031 28.425 2.49031 28.005C3.63031 27.765 4.67031 27.405 5.49031 27.335C5.30969 26.8137 4.95702 26.3693 4.49031 26.075ZM5.94029 28.005C3.94029 28.425 2.0503 28.885 0.140304 29.365C0.880304 31.365 4.2903 29.575 6.2303 29.365C6.20405 28.8995 6.10622 28.4407 5.94029 28.005ZM2.37028 31.195C3.60028 32.035 6.3703 31.925 6.1403 30.135C5.0403 30.625 3.40028 30.615 2.37028 31.195Z" fill="white"/>
<path fill-rule="evenodd" clip-rule="evenodd" d="M48.9814 23.4657C49.5014 24.1257 48.9814 24.9457 48.8814 25.7857C48.7614 27.1157 49.0114 28.5357 48.8814 29.8457C48.655 31.3712 48.023 32.8079 47.0514 34.0057C55.1414 35.8657 63.9814 37.0057 71.9014 39.0057C72.418 41.3878 72.6795 43.8182 72.6815 46.2557C73.0415 52.4557 74.0314 58.2557 74.0314 64.8257C74.1663 66.0332 74.0332 67.2556 73.6414 68.4057C72.7126 68.5183 71.7756 68.5484 70.8414 68.4957C69.4014 71.4957 67.9214 74.3157 66.3914 77.4957C65.7314 78.8657 65.1314 80.4957 64.2614 82.1357C63.6314 83.3457 62.5914 85.6157 61.5514 86.1357C59.8815 86.9257 57.0814 85.4557 55.7514 84.7757C54.0214 83.8857 52.6014 82.7157 51.2014 81.8757C47.9414 79.8757 44.6714 78.2457 41.5314 76.5557C34.8414 72.9557 28.6614 68.9157 22.8714 65.2457C21.9796 65.9608 21.1376 66.7359 20.3514 67.5657C19.5914 68.3257 18.9114 69.4657 17.5514 69.5657C16.8114 68.4757 17.6914 67.2857 18.1314 66.3757C19.1314 64.3757 20.1314 62.5957 21.3214 60.5657C21.9819 59.7038 22.5328 58.7633 22.9615 57.7657C23.1064 56.5411 23.1331 55.3054 23.0414 54.0757C23.0414 50.4357 22.7315 47.1457 22.4615 43.8257C22.1715 40.2957 22.3314 36.7157 21.8814 33.3857C21.7514 32.3857 21.1614 31.3157 21.7814 30.3857C22.4614 29.8957 23.1914 30.3857 23.7814 30.4857C26.5214 30.9357 29.4714 31.0957 32.2914 31.4857C35.1114 31.8757 37.8614 32.2757 40.5114 32.7457C40.3914 28.3157 44.5114 27.0757 46.8914 24.8157C47.5314 24.2657 47.8214 23.0757 48.9814 23.4657ZM42.9814 32.3557C43.8414 30.6357 45.4815 29.1757 46.1815 27.6257C44.8715 28.8957 43.1114 30.2357 42.9814 32.3557ZM47.0514 27.9157C45.9414 29.9157 44.0514 31.5657 43.3714 33.6157C44.6414 31.8857 46.7214 29.9457 47.0414 27.9157H47.0514ZM44.4315 33.7157C45.6015 32.7157 47.1915 31.5657 47.2415 29.7157C46.6415 31.3457 45.0415 32.4457 44.4315 33.7157ZM24.5114 55.2757C29.1925 48.5059 34.2645 42.0149 39.7014 35.8357C40.0314 35.4457 40.7014 35.0557 40.5714 34.3857C34.9014 33.1557 28.7914 32.3857 22.7714 31.4857C23.855 39.3708 24.4362 47.3168 24.5114 55.2757ZM58.4615 37.7757C56.3015 37.4257 54.1014 37.0357 51.9814 36.6157C49.8614 36.1957 47.6014 35.5657 45.6014 35.3557C44.8514 35.2757 43.8114 36.6657 42.9814 36.3557C39.3414 44.4357 34.2314 51.5357 29.0614 58.0157C28.7814 58.3757 28.1414 58.7057 28.2814 59.2757C36.8714 59.1957 43.1614 61.6357 49.6614 63.8257C56.9859 66.3729 64.7393 67.4567 72.4814 67.0157C72.6014 58.2357 71.0214 49.7857 71.1314 40.4157C67.2314 39.6457 62.9615 38.4957 58.4615 37.7757ZM36.1214 42.3157C36.6896 42.5558 37.211 42.8943 37.6614 43.3157C38.9206 41.2074 40.0203 39.008 40.9514 36.7357C39.3714 38.6057 37.6714 40.3857 36.1214 42.3157ZM35.1214 43.3857C29.175 50.8965 23.8094 58.8496 19.0714 67.1757C19.5514 66.8657 20.1714 66.5857 19.9414 65.8257C20.1114 65.5157 20.5315 65.7457 20.7115 65.6257C20.6615 65.1357 20.7114 64.4057 21.4814 64.8557C21.8114 64.4057 21.4314 64.5057 21.3914 63.9857C21.5414 63.3857 22.1014 63.9857 22.3914 63.7957C22.6814 63.6057 21.9314 63.4657 22.1014 62.9157C22.4614 62.4757 22.7814 63.1857 23.1714 62.9157C23.5614 62.6457 22.6814 62.6157 22.7814 62.1457C22.9614 62.1457 22.8514 61.8257 23.0714 61.8557C23.5614 61.8557 23.7014 62.3857 24.0714 61.9557C24.0714 61.5657 23.5715 61.6757 23.6815 61.1757C23.7076 61.1102 23.7468 61.0507 23.7966 61.0009C23.8465 60.951 23.906 60.9118 23.9714 60.8857C24.2714 60.8857 24.4814 61.3157 24.7514 61.0857C24.8314 60.6057 24.3414 60.7157 24.3614 60.3057C24.386 60.2393 24.4246 60.1789 24.4746 60.1289C24.5247 60.0788 24.585 60.0402 24.6514 60.0157C25.1214 60.0157 25.3114 60.4257 25.6514 60.0157C25.7314 59.5157 25.1714 59.6557 25.2614 59.1457C25.3914 59.1457 25.3514 58.9757 25.4514 58.9557C25.9114 58.8557 26.0014 59.1157 26.2314 59.2457C26.2314 58.8657 26.6414 58.9457 26.6114 58.5657C26.2714 58.5657 26.1514 58.2557 26.1314 57.8957C26.2114 57.7457 26.2714 57.5857 26.5214 57.6057C26.7714 57.6257 26.8214 58.0057 27.1914 57.9857C27.2341 57.8745 27.3027 57.7751 27.3914 57.6957C27.3914 57.3457 26.8814 57.4957 27.0014 57.0157C27.0431 56.9064 27.1079 56.8075 27.1914 56.7257C27.8114 56.8657 28.1014 56.9857 28.3514 56.4357C28.2664 56.4223 28.1853 56.3908 28.1135 56.3433C28.0417 56.2958 27.981 56.2334 27.9355 56.1604C27.89 56.0873 27.8607 56.0054 27.8496 55.92C27.8386 55.8347 27.846 55.7479 27.8714 55.6657C27.9714 55.6657 27.9914 55.5857 28.0614 55.5657C28.5114 55.4757 28.5315 55.8157 28.9315 55.7657C29.0215 55.5957 29.1714 55.4857 29.2214 55.2757C28.9814 55.1057 28.6215 55.0457 28.7415 54.5057C28.8415 54.5057 28.8615 54.4257 28.9315 54.4057C29.3915 54.3057 29.5615 54.7957 29.9315 54.5057C29.9315 54.1057 29.4614 54.2057 29.5414 53.7357C29.8114 53.0657 30.3814 54.0257 30.7014 53.5357C30.7914 53.0657 30.3014 53.1657 30.3214 52.7657C30.344 52.6982 30.382 52.6369 30.4323 52.5866C30.4827 52.5363 30.544 52.4983 30.6114 52.4757C31.1414 52.5257 31.2514 52.7857 31.6114 52.3757C31.6114 51.9757 31.1314 52.0757 31.2214 51.6057C31.3014 51.4657 31.3614 51.2957 31.6114 51.3157C31.8614 51.3357 31.9014 51.6057 32.1914 51.6057C32.1314 51.2657 32.5314 51.3657 32.4814 51.0257C32.3914 50.8557 32.2414 50.7457 32.1914 50.5457C32.2914 50.2157 32.7314 50.1857 33.0614 50.3457C33.6814 49.8357 32.9015 49.7157 32.9615 48.9957C33.0615 48.9957 33.0714 48.9157 33.1514 48.8957C33.5914 48.8157 33.6415 49.1257 33.9315 49.1857C34.0315 48.9357 34.2814 48.8257 34.3114 48.5057C34.1114 48.3557 33.8314 48.2857 33.8314 47.9257C33.8706 47.8152 33.9357 47.7157 34.0215 47.6357C34.5014 47.5157 34.5014 47.8757 34.8914 47.8357C34.9739 47.6644 35.071 47.5004 35.1815 47.3457C35.0481 47.3166 34.9283 47.2437 34.8413 47.1386C34.7543 47.0334 34.705 46.9021 34.7014 46.7657C34.9114 46.3657 35.2714 46.5557 35.7014 46.6757C35.7763 46.5004 35.8738 46.3356 35.9915 46.1857C35.7815 46.0057 35.4814 45.9257 35.5014 45.5157C35.7614 44.8757 36.2314 45.6457 36.5714 45.4157C36.7214 44.7857 35.9515 45.0657 35.9915 44.5457C36.1315 43.7857 36.8814 44.5457 37.1514 44.3557C36.9193 44.0466 36.6167 43.7973 36.2689 43.6286C35.921 43.4599 35.5379 43.3766 35.1514 43.3857H35.1214ZM23.7415 64.2757C29.5215 67.6557 35.3614 71.4457 41.9214 74.9157C44.8514 76.4557 48.0314 78.2557 51.1114 80.1357C52.5014 80.9857 53.9814 81.9757 55.5614 82.9357C56.5614 83.5357 59.6314 85.2057 60.7814 84.7757C61.6714 84.4457 62.5914 81.9757 63.1014 80.9057C65.2414 76.4757 67.4114 72.7557 69.3914 68.5257C65.5401 68.4818 61.6956 68.1912 57.8814 67.6557C50.7814 66.4657 45.0214 63.6057 38.3414 61.8557C34.8614 60.9457 31.1815 60.9057 26.9315 60.5957C25.8215 61.7857 24.7415 62.9857 23.7415 64.2757Z" fill="white"/>
<path fill-rule="evenodd" clip-rule="evenodd" d="M16.3946 29.2641C16.4766 29.2306 16.5654 29.2172 16.6536 29.2247C16.7418 29.2322 16.827 29.2606 16.9022 29.3074C16.9773 29.3543 17.0403 29.4183 17.0859 29.4942C17.1315 29.5701 17.1585 29.6557 17.1646 29.7441C17.4746 31.7241 14.5346 29.7041 16.3946 29.2641Z" fill="white"/>
<path fill-rule="evenodd" clip-rule="evenodd" d="M4.87991 34.0066C7.37991 33.5966 9.77991 35.3266 11.2599 36.7066C12.6042 37.7722 13.6398 39.1772 14.2599 40.7766C14.9999 43.3166 13.5999 45.8766 10.5899 45.6066C8.87037 45.2923 7.26546 44.5261 5.93991 43.3866C4.9483 42.403 4.1331 41.2564 3.5299 39.9966C2.5199 37.8066 2.03991 34.4766 4.87991 34.0066ZM4.29992 36.8066C5.22992 36.3866 6.64992 36.4466 7.48992 35.9366C6.61992 35.3966 3.67992 34.9266 4.29992 36.8066ZM4.29992 37.5866C4.29832 37.8703 4.40158 38.1445 4.5899 38.3566C6.0699 37.8066 8.05993 37.7666 9.42993 37.0966C8.19993 35.9566 6.03992 37.5066 4.29992 37.5866ZM10.1999 37.7766C8.50992 38.3466 6.5499 38.6466 4.7799 39.1266C4.87316 39.4317 5.00419 39.724 5.16992 39.9966C7.10992 39.5266 9.16991 39.1666 11.0699 38.6466C11.1099 38.4066 10.5499 37.9466 10.1999 37.7766ZM11.5499 39.3266C9.61992 39.7766 7.7899 40.3266 5.7499 40.6766C5.7999 41.0766 6.08991 41.2466 6.22991 41.5466C8.29446 41.2952 10.3347 40.8738 12.3299 40.2866C12.2024 39.8786 11.9232 39.535 11.5499 39.3266ZM12.5499 40.9666C10.8657 41.5096 9.1532 41.9602 7.41992 42.3166C7.24992 42.5066 7.84991 42.7366 7.90991 42.9966C9.59555 42.6969 11.2645 42.3097 12.9099 41.8366C12.8099 41.5166 12.8999 41.0066 12.5199 40.9666H12.5499ZM9.25991 43.6766C10.4399 44.2966 12.7299 44.4066 12.8399 42.6766C11.6188 42.9421 10.4136 43.2759 9.22991 43.6766H9.25991Z" fill="white"/>
<path fill-rule="evenodd" clip-rule="evenodd" d="M62.5248 40.5752C62.8099 40.5091 63.1022 40.4789 63.3948 40.4852C64.6248 40.6452 66.5848 42.2852 66.5848 43.7652C66.5848 47.6352 59.3548 45.7652 60.3048 41.8352C60.5048 40.9852 61.2748 40.6852 62.5248 40.5752ZM65.1348 43.8652C65.2348 42.8052 62.3548 41.0952 61.4648 42.1252C60.9148 44.1352 64.9748 45.5252 65.1348 43.8652Z" fill="white"/>
<path fill-rule="evenodd" clip-rule="evenodd" d="M52.2722 41.0747C53.4631 40.9796 54.658 40.9462 55.8522 40.9747C56.6222 40.9747 58.5122 41.0547 58.3622 41.9747C58.2522 42.6447 54.9622 42.1947 54.0122 42.2647C52.3122 42.3847 49.1922 43.0347 49.0822 42.0647C48.9722 41.0947 51.0922 41.1447 52.2722 41.0747Z" fill="white"/>
<path fill-rule="evenodd" clip-rule="evenodd" d="M55.0411 46.2857C54.0411 45.6257 54.881 45.2858 55.721 44.8358C56.561 44.3858 58.7211 42.8358 59.0111 43.8358C59.2111 44.5558 57.7511 45.0157 57.2711 45.2857C56.6302 45.8119 55.8603 46.1572 55.0411 46.2857Z" fill="white"/>
<path fill-rule="evenodd" clip-rule="evenodd" d="M53.9133 53.1547C53.2833 52.1547 54.4733 51.5147 55.0733 50.9247C56.7833 49.2547 59.1733 46.9947 60.6833 45.5147C60.9033 45.2947 61.5433 44.9347 61.7533 45.6047C61.9633 46.2747 60.5133 47.2347 60.0133 47.7347C58.7433 49.0047 57.6233 50.1847 56.2333 51.6047C55.6433 52.2047 54.7633 53.5747 53.9133 53.1547Z" fill="white"/>
<path fill-rule="evenodd" clip-rule="evenodd" d="M67.84 51.2157C66.26 51.6557 66.54 47.6157 66 46.6757C67.4 45.3857 68.19 50.0757 67.84 51.2157Z" fill="white"/>
<path fill-rule="evenodd" clip-rule="evenodd" d="M64.6546 47.1557C64.0046 48.5457 64.0746 50.6458 62.6546 51.2158C61.8846 50.9358 62.4447 50.0458 62.7447 49.2858C63.1847 48.1858 63.3047 46.4058 64.5847 46.9658C64.5447 47.0758 64.5746 47.1357 64.6546 47.1557Z" fill="white"/>
<path fill-rule="evenodd" clip-rule="evenodd" d="M0.0434113 54.796C1.75937 54.5681 3.49642 55.0203 4.88341 56.056C7.16341 57.686 9.8034 61.426 9.6234 64.666C9.4534 67.666 6.4834 68.516 3.7234 67.366C2.05439 66.5074 0.548395 65.3635 -0.726578 63.986C-2.59658 61.896 -4.34659 55.596 0.0434113 54.796ZM-0.956589 57.076C0.293411 56.886 1.73341 56.876 3.04341 56.686C1.98341 56.076 -0.386589 55.796 -0.956589 57.076ZM4.16341 57.4661C2.88341 57.5361 1.40341 57.636 0.293411 57.756C-0.256589 57.816 -1.0666 57.706 -1.2466 58.236C0.293403 58.516 2.6334 57.936 4.6534 58.046C4.8734 57.926 4.33342 57.676 4.20341 57.506L4.16341 57.4661ZM2.23341 58.916C1.62341 58.916 0.983417 59.056 0.393417 59.106C-0.196583 59.156 -0.996597 59.0261 -1.2466 59.496C-0.986597 60.0661 -0.246585 59.706 0.203415 59.686C2.17401 59.7024 4.14392 59.6056 6.10341 59.396C5.46341 58.496 3.68342 58.846 2.27342 58.956L2.23341 58.916ZM6.29341 60.176C4.58341 60.546 0.703408 60.276 -0.866593 60.846C-0.686593 61.536 0.13342 61.156 0.58342 61.136C2.50342 61.076 5.1034 61.136 6.9734 60.946C6.9634 60.696 6.67342 60.1361 6.33342 60.2161L6.29341 60.176ZM6.9734 61.7161C5.2434 61.3961 1.5934 62.216 -0.1866 62.206C0.0248625 62.413 0.218873 62.6371 0.393417 62.876C2.84342 62.876 5.22342 62.736 7.64342 62.686C7.66685 62.5855 7.66982 62.4812 7.65215 62.3795C7.63447 62.2778 7.59652 62.1806 7.54054 62.0939C7.48457 62.0071 7.41168 61.9325 7.32628 61.8744C7.24088 61.8164 7.14469 61.7761 7.04341 61.756L6.9734 61.7161ZM6.39342 63.456C4.74059 63.4903 3.09115 63.6205 1.45341 63.846C3.09341 64.406 6.2434 64.046 8.0334 63.846C7.9434 63.286 7.04343 63.476 6.43343 63.496L6.39342 63.456ZM2.71342 65.106C4.0351 65.4653 5.41409 65.5638 6.77342 65.396C7.25342 65.396 8.0534 65.396 8.0334 64.816C6.26687 64.7548 4.49856 64.8653 2.7534 65.146L2.71342 65.106ZM6.9734 66.166C6.4834 66.236 5.74342 66.046 5.42342 66.266C6.20342 66.306 6.36341 66.476 7.04341 66.206L6.9734 66.166Z" fill="white"/>
<path fill-rule="evenodd" clip-rule="evenodd" d="M35.8339 56.8255C36.4539 56.8255 36.8339 55.7254 37.6639 55.5654C38.4939 55.4054 39.2139 56.3554 40.0839 56.3454C40.9539 56.3354 41.4239 55.4655 42.0239 55.4755C43.3739 55.4755 43.4139 57.1454 44.7239 57.4054C45.3139 57.5254 46.4639 56.8755 47.4339 57.0155C48.4039 57.1555 49.1139 58.2255 49.8539 58.2755C50.8539 58.3355 51.3939 57.3255 52.8539 57.5055C53.5439 57.5855 54.3339 58.5054 55.0739 58.5654C55.8139 58.6254 56.7739 57.9455 57.6839 57.9855C58.3839 57.9855 58.8739 58.6955 59.8139 58.8555C60.7539 59.0155 61.5539 58.6455 62.4239 58.8555C63.9239 59.2155 65.6639 60.7555 65.6139 61.1755C65.4439 62.9855 62.5039 60.4155 61.9439 60.3055C61.1539 60.1555 60.1539 60.4455 59.3339 60.3055C58.5139 60.1655 58.0539 59.5754 57.5939 59.5354C56.5939 59.4555 55.5939 60.2155 54.4039 59.9255C53.5539 59.7155 53.3339 59.3355 52.5639 58.9255C50.9739 60.0355 48.2639 59.7955 47.1439 58.4455C46.256 58.9011 45.2259 58.9941 44.2707 58.7049C43.3156 58.4158 42.51 57.767 42.0239 56.8955C41.765 57.1464 41.4587 57.3431 41.1228 57.4741C40.7869 57.6051 40.4283 57.6678 40.0679 57.6585C39.7075 57.6492 39.3526 57.5681 39.0239 57.4199C38.6953 57.2717 38.3995 57.0594 38.1539 56.7955C37.1539 57.0655 37.0039 58.0555 35.9239 58.0555C35.2939 58.0555 34.9239 57.5454 34.5739 57.1854C34.2239 56.8254 32.5739 55.3554 34.0939 55.1854C35.0439 55.0754 35.0939 56.5755 35.8339 56.8255Z" fill="white"/>
<path fill-rule="evenodd" clip-rule="evenodd" d="M24.6138 73.3654C28.2838 72.5254 25.8938 77.8953 23.6138 75.8753C22.6438 74.9753 23.6038 73.5954 24.6138 73.3654ZM24.5138 75.0054C25.0038 75.0854 25.2838 74.9354 25.2938 74.5254C24.8638 74.5154 24.5638 74.6354 24.5138 75.0054Z" fill="white"/>
<path fill-rule="evenodd" clip-rule="evenodd" d="M53.0441 76.6552C53.1241 77.4252 51.9841 77.4052 51.4041 77.6552C50.8241 77.9052 50.0241 78.5352 49.6641 77.8552C49.9841 77.1352 52.2841 76.3452 53.0441 76.6552Z" fill="white"/>
<path fill-rule="evenodd" clip-rule="evenodd" d="M54.4026 77.5254C54.4026 78.2054 53.2227 78.3454 52.5627 78.5854C51.9027 78.8254 50.8527 79.5354 50.7227 78.5854C50.9527 78.1754 51.6027 78.1153 52.1727 77.9153C52.9027 77.6553 53.6826 77.1254 54.4026 77.5254Z" fill="white"/>
<path fill-rule="evenodd" clip-rule="evenodd" d="M57.0441 77.9152C56.6541 78.6052 55.4341 78.8452 54.5241 79.1652C53.6141 79.4852 52.5241 80.2252 51.9141 79.5552C52.1541 78.9252 53.1941 78.7852 54.0441 78.4952C55.0941 78.0752 56.2141 77.3752 57.0441 77.9152Z" fill="white"/>
<path fill-rule="evenodd" clip-rule="evenodd" d="M59.724 78.2957C59.724 78.9557 58.834 79.0857 58.364 79.2957C57.894 79.5057 57.244 79.6857 56.724 79.8757C55.674 80.2457 54.454 80.9857 53.434 80.6457C53.274 79.9757 54.114 79.9457 54.594 79.7757C55.904 79.3257 57.794 78.6957 59.044 78.1357C59.044 78.0757 59.614 77.9757 59.724 78.2957Z" fill="white"/>
<path fill-rule="evenodd" clip-rule="evenodd" d="M60.3028 79.6562C59.9128 80.5062 58.6428 80.6562 57.6828 81.0062C56.7228 81.3562 55.6828 82.0062 54.8828 81.6862C54.9728 80.7562 56.2328 80.6862 57.0128 80.4262C57.948 80.1605 58.8555 79.8055 59.7228 79.3662C59.8378 79.3452 59.9566 79.3621 60.0612 79.4144C60.1658 79.4667 60.2506 79.5515 60.3028 79.6562Z" fill="white"/>
<path fill-rule="evenodd" clip-rule="evenodd" d="M0.720798 83.4241C0.0807981 79.8641 5.08079 80.2441 4.40079 83.2241C4.04079 84.7041 1.3808 84.9241 0.720798 83.4241ZM3.04081 82.2641C2.40081 81.8141 2.0408 82.434 1.8808 83.034C2.3708 83.634 3.53081 83.1441 3.04081 82.2641Z" fill="white"/>
<path fill-rule="evenodd" clip-rule="evenodd" d="M59.7197 81.3951C59.8797 82.1451 58.7197 82.2451 58.1697 82.4551C57.6197 82.6651 56.6397 83.2551 56.4297 82.4551C57.3803 81.7502 58.5364 81.3777 59.7197 81.3951Z" fill="white"/>
<path fill-rule="evenodd" clip-rule="evenodd" d="M60.3928 82.8454C59.6767 83.397 58.785 83.6705 57.8828 83.6155V83.2254C58.3628 82.8454 60.0428 81.8854 60.3928 82.8454Z" fill="white"/>
<path fill-rule="evenodd" clip-rule="evenodd" d="M60.8841 83.326C61.0241 84.106 60.1441 84.326 59.6241 84.096C59.4841 83.326 60.3741 83.146 60.8841 83.326Z" fill="white"/>
<path fill-rule="evenodd" clip-rule="evenodd" d="M25.8708 91.8367C26.1894 91.7363 26.5299 91.727 26.8536 91.81C27.1772 91.893 27.4712 92.0649 27.7022 92.3064C27.9333 92.5478 28.0921 92.849 28.1607 93.1761C28.2294 93.5031 28.2052 93.8428 28.0908 94.1567C27.6408 96.2567 23.4808 95.8367 24.2208 92.9967C24.3741 92.6787 24.6061 92.4052 24.8949 92.2022C25.1837 91.9991 25.5196 91.8733 25.8708 91.8367ZM25.3808 93.8367C25.8708 94.7567 27.5008 93.8367 26.5408 93.0667C26.281 93.02 26.0132 93.0778 25.7959 93.2277C25.5786 93.3776 25.4294 93.6073 25.3808 93.8667V93.8367Z" fill="white"/>
<path fill-rule="evenodd" clip-rule="evenodd" d="M8.17167 94.445C8.60167 94.195 9.00167 94.3751 9.04167 94.8351C9.13167 96.0751 7.11167 95.075 8.17167 94.445Z" fill="white"/>
<path fill-rule="evenodd" clip-rule="evenodd" d="M51.3015 95.7059C54.1115 95.2359 54.6515 99.2759 52.4615 100.056C52.1545 100.219 51.8147 100.31 51.4676 100.323C51.1204 100.336 50.7747 100.271 50.4562 100.132C50.1378 99.9927 49.8548 99.7836 49.6284 99.5201C49.4019 99.2566 49.2378 98.9454 49.1483 98.6097C49.0588 98.274 49.0461 97.9225 49.1113 97.5812C49.1765 97.2399 49.3178 96.9177 49.5248 96.6387C49.7317 96.3596 49.999 96.1307 50.3066 95.9693C50.6142 95.8078 50.9543 95.7177 51.3015 95.7059ZM52.5615 97.7059C52.4015 96.4459 50.5615 96.9459 50.4315 98.2859C50.55 98.5113 50.7412 98.6901 50.974 98.7933C51.2069 98.8965 51.4677 98.9179 51.7143 98.8543C51.9609 98.7906 52.1787 98.6455 52.3325 98.4425C52.4863 98.2395 52.567 97.9905 52.5615 97.7359V97.7059Z" fill="white"/>
<path fill-rule="evenodd" clip-rule="evenodd" d="M4.97966 45.805C7.63966 45.545 11.2797 47.655 13.0997 49.805C14.4097 51.325 15.8997 54.445 14.5497 56.575C12.7697 59.395 8.84967 58.185 6.54967 56.385C4.63967 54.895 2.67965 53.125 2.39965 50.385C2.10965 47.915 2.64966 46.075 4.97966 45.805ZM5.45968 48.025C4.79968 48.155 3.63966 48.275 3.90966 49.025C5.39181 48.8515 6.85051 48.5161 8.25966 48.025C7.61966 47.585 6.55968 47.805 5.45968 48.075V48.025ZM9.03966 48.705C7.95966 48.985 6.16966 49.375 4.97966 49.705C4.50966 49.825 3.71966 49.705 3.90966 50.385C6.00966 50.455 8.01967 49.585 10.1997 49.385C10.0397 49.075 9.41966 48.605 9.03966 48.705ZM10.6797 50.055C9.06968 50.445 6.00967 50.925 4.19967 51.315C4.19967 52.235 5.19965 51.785 5.74965 51.705C7.74965 51.365 10.0297 51.075 11.7497 50.705C11.6784 50.4879 11.5304 50.3041 11.3335 50.1882C11.1365 50.0722 10.9041 50.032 10.6797 50.075V50.055ZM10.2997 51.795C8.50043 52.0079 6.72131 52.3657 4.97966 52.865C7.27966 53.095 10.2097 52.305 12.7097 52.085C12.5997 50.955 11.3697 51.605 10.2997 51.795ZM5.93966 53.925C6.83966 54.565 8.25967 54.175 9.51967 54.025C10.7797 53.875 12.1797 53.605 13.3897 53.535C13.2497 53.285 13.3897 52.775 12.9997 52.765C10.7797 53.275 8.15966 53.405 5.93966 53.925ZM7.29967 55.185C8.60967 55.755 10.6897 55.125 12.0397 54.895C12.5397 54.805 13.2597 54.845 13.4897 54.405C11.4085 54.4959 9.33832 54.7568 7.29967 55.185ZM9.22966 56.245C10.4697 57.055 12.8297 56.795 13.2897 55.475C11.9097 55.695 10.5397 55.945 9.22966 56.245Z" fill="white"/>
</g>
</g>
</svg>
