<svg width="19" height="19" viewBox="0 0 19 19" fill="none" xmlns="http://www.w3.org/2000/svg">
<path d="M10.8314 3.51318V5.36183C10.8314 5.60831 10.9561 5.81372 11.164 5.93696C11.3719 6.06021 11.6213 6.06021 11.8292 5.93696C11.9331 5.87534 12.0579 5.83426 12.1826 5.83426C12.5776 5.83426 12.9102 6.16291 12.9102 6.55318C12.9102 6.94345 12.5776 7.2721 12.1826 7.2721C12.0579 7.2721 11.9331 7.23102 11.8292 7.1694C11.6213 7.04615 11.3719 7.04615 11.164 7.1694C10.9561 7.29264 10.8314 7.49804 10.8314 7.74453V10.9078H8.79419C8.7734 10.9078 8.7734 10.9078 8.75261 10.8872C8.75261 10.8667 8.75261 10.8667 8.75261 10.8462C8.85655 10.6407 8.91891 10.3943 8.91891 10.1478C8.91891 9.32615 8.23292 8.64831 7.40141 8.64831C6.88171 8.64831 6.44517 8.8948 6.15414 9.28507C6.17493 9.24399 6.19572 9.18237 6.19572 9.12075C6.21651 8.8948 6.13336 8.66885 5.94627 8.52507C5.84233 8.44291 5.73839 8.31967 5.69681 8.19642C5.59287 7.97048 5.59287 7.74453 5.67602 7.51858C5.75918 7.29264 5.92548 7.12831 6.15414 7.02561C6.27887 6.98453 6.38281 6.94345 6.50753 6.94345C6.86093 6.94345 7.19353 7.14886 7.33904 7.4775C7.40141 7.60075 7.4222 7.74453 7.4222 7.88831C7.40141 8.11426 7.50535 8.34021 7.71322 8.46345C7.90031 8.58669 8.14977 8.62777 8.35764 8.52507L10.8106 7.45696L9.2723 4.00615C9.2723 3.98561 9.2723 3.98561 9.2723 3.96507C9.29309 3.94453 9.29309 3.94453 9.31388 3.94453C9.54255 3.96507 9.792 3.94453 9.99988 3.84183C10.6859 3.55426 10.9977 2.75318 10.6859 2.07534C10.478 1.58237 9.97909 1.27426 9.45939 1.27426C9.2723 1.27426 9.08522 1.31534 8.91891 1.37696C8.71104 1.47967 8.50316 1.62345 8.37843 1.80832C8.35764 1.8494 8.35764 1.8494 8.33686 1.8494C8.31607 1.8494 8.31607 1.8494 8.29528 1.82886L7.54692 0.144531L0.146484 3.34886L3.38937 10.6818L5.82154 9.61372C5.92548 9.57264 5.98784 9.51102 6.07099 9.42886C5.96705 9.63426 5.90469 9.88075 5.90469 10.1272C5.90469 10.3737 5.96705 10.5997 6.07099 10.8256C6.07099 10.8462 6.07099 10.8462 6.07099 10.8667C6.07099 10.8872 6.0502 10.8872 6.02942 10.8872H3.36859V18.898H10.8106H18.9178V11.5034V10.8872V3.49264H10.8314V3.51318ZM5.57209 9.05912L3.70119 9.86021L0.957206 3.6775L7.23511 0.945612L7.73401 2.07534C7.83795 2.30129 8.02504 2.44507 8.27449 2.46561C8.52395 2.48615 8.75261 2.38345 8.87734 2.19859C8.96049 2.09588 9.04364 2.01372 9.16837 1.97264C9.25152 1.93156 9.35546 1.91102 9.45939 1.91102C9.75042 1.91102 9.99988 2.07534 10.1246 2.34237C10.2909 2.7121 10.1246 3.12291 9.75042 3.28723C9.6257 3.32832 9.50097 3.34886 9.37624 3.34886C9.12679 3.32831 8.89813 3.43102 8.7734 3.61588C8.62788 3.80075 8.6071 4.04723 8.69025 4.27318L9.97909 7.14886L8.10819 7.97048C8.10819 7.97048 8.10819 7.97048 8.0874 7.97048C8.06662 7.94994 8.06662 7.94994 8.06662 7.9294C8.0874 7.68291 8.04583 7.45696 7.94189 7.23102C7.69244 6.67642 7.15195 6.32723 6.54911 6.32723C6.34123 6.32723 6.13336 6.36831 5.94627 6.45048C5.57209 6.6148 5.28106 6.90237 5.13554 7.2721C4.99003 7.64183 4.99003 8.05264 5.15633 8.42237C5.26027 8.64831 5.40578 8.83318 5.59287 8.9975C5.61366 9.01804 5.61366 9.01804 5.61366 9.03858C5.59287 9.03858 5.59287 9.05912 5.57209 9.05912ZM11.455 7.74453C11.455 7.72399 11.455 7.72399 11.4758 7.70345C11.4966 7.68291 11.4966 7.70345 11.5174 7.70345C11.7253 7.82669 11.9539 7.88831 12.2034 7.88831C12.9517 7.88831 13.5546 7.29264 13.5546 6.55318C13.5546 5.81372 12.9517 5.21804 12.2034 5.21804C11.9747 5.21804 11.7253 5.27967 11.5174 5.40291C11.4966 5.40291 11.4966 5.40291 11.4758 5.40291C11.455 5.40291 11.455 5.38237 11.455 5.36183V4.1294H18.2734V10.9078H16.1323C16.1115 10.9078 16.1115 10.9078 16.0907 10.8872C16.0907 10.8667 16.0907 10.8667 16.0907 10.8462C16.1115 10.8256 16.1115 10.7845 16.1323 10.764C16.2986 10.5175 16.4025 10.2299 16.4025 9.92183C16.4025 9.10021 15.7373 8.44291 14.9058 8.44291C14.0743 8.44291 13.4091 9.10021 13.4091 9.92183C13.4091 10.2299 13.4922 10.5175 13.6793 10.764C13.7001 10.7845 13.7209 10.8256 13.7209 10.8462C13.7209 10.8667 13.7209 10.8667 13.7209 10.8872C13.7209 10.9078 13.7001 10.9078 13.6793 10.9078H11.455V7.74453ZM3.99222 18.2818V11.5034H6.02942C6.25808 11.5034 6.48675 11.3802 6.59069 11.1953C6.71541 10.9899 6.71541 10.764 6.61147 10.5586C6.54911 10.4353 6.50753 10.2916 6.50753 10.1478C6.50753 9.6548 6.9025 9.26453 7.40141 9.26453C7.90031 9.26453 8.31607 9.6548 8.31607 10.1478C8.31607 10.2916 8.27449 10.4353 8.21213 10.5586C8.10819 10.764 8.10819 11.0105 8.23292 11.1953C8.35764 11.4007 8.56552 11.5034 8.79419 11.5034H10.8106V14.0299C10.8106 14.0505 10.7898 14.071 10.769 14.071H10.7482C10.6235 14.071 10.5196 14.0505 10.4156 13.9683C10.1662 13.804 9.87515 13.7013 9.56333 13.7013C8.73182 13.7013 8.06662 14.3586 8.06662 15.1802C8.06662 16.0018 8.73182 16.6591 9.56333 16.6591C9.87515 16.6591 10.1662 16.577 10.4156 16.3921C10.5196 16.3305 10.6235 16.2894 10.7482 16.2894H10.769C10.7898 16.2894 10.8106 16.3099 10.8106 16.3305V18.2818H3.99222ZM18.2734 18.2818H11.4342V16.3716C11.4342 16.0018 11.1432 15.7143 10.769 15.7143H10.7482C10.4988 15.7143 10.2701 15.7759 10.083 15.9197C9.93751 16.0224 9.77121 16.0634 9.58412 16.0634C9.106 16.0634 8.71104 15.6732 8.71104 15.2007C8.71104 14.7283 9.106 14.338 9.58412 14.338C9.77121 14.338 9.93751 14.3997 10.083 14.4818C10.2909 14.6256 10.5196 14.6872 10.7482 14.6872H10.769C11.1432 14.6872 11.4342 14.3997 11.4342 14.0299V11.524H13.6585C13.8872 11.524 14.0951 11.4007 14.2198 11.2159C14.3445 11.0105 14.3653 10.7845 14.2614 10.5791C14.2406 10.538 14.199 10.4764 14.1782 10.4148C14.0743 10.271 14.0327 10.1067 14.0327 9.92183C14.0327 9.4494 14.4277 9.05912 14.9058 9.05912C15.3839 9.05912 15.7789 9.4494 15.7789 9.92183C15.7789 10.1067 15.7165 10.271 15.6334 10.4148C15.5918 10.4764 15.571 10.5175 15.5502 10.5586C15.4463 10.764 15.4671 11.0105 15.571 11.1953C15.6957 11.4007 15.9036 11.5034 16.1323 11.5034H18.2942L18.2734 18.2818Z" fill="#222222"/>
<path d="M19 19H3.26368V10.7838H3.32604L0 3.30703L7.60831 0L8.35667 1.68432C8.50219 1.52 8.66849 1.39676 8.87637 1.29405C9.06346 1.21189 9.25055 1.17081 9.45842 1.17081C10.0405 1.17081 10.5602 1.49946 10.7888 2.03351C10.9551 2.3827 10.9551 2.77297 10.8096 3.12216C10.6641 3.47135 10.3939 3.75892 10.0405 3.92324C9.8326 4.00541 9.62473 4.04649 9.39606 4.04649L10.8512 7.31243C10.9136 7.20973 10.9967 7.12757 11.1214 7.06595C11.3501 6.92216 11.6619 6.92216 11.8906 7.06595C11.9945 7.12757 12.0985 7.14811 12.2024 7.14811C12.5558 7.14811 12.826 6.88108 12.826 6.53189C12.826 6.1827 12.5558 5.91568 12.2024 5.91568C12.0985 5.91568 11.9945 5.93622 11.8906 5.99784C11.6619 6.14162 11.3501 6.14162 11.1214 5.99784C10.872 5.85405 10.7265 5.60757 10.7265 5.34054V3.38919H19V19ZM10.9136 18.7946H18.8129V3.61514H10.9344V5.36108C10.9344 5.56649 11.0383 5.75135 11.2254 5.83351C11.3917 5.93622 11.6203 5.93622 11.7867 5.83351C11.9114 5.75135 12.0569 5.73081 12.2024 5.73081C12.6597 5.73081 13.0339 6.10054 13.0339 6.55243C13.0339 7.00432 12.6597 7.37405 12.2024 7.37405C12.0569 7.37405 11.9114 7.33297 11.7867 7.27135C11.6203 7.16865 11.3917 7.16865 11.2254 7.27135C11.0591 7.37405 10.9344 7.55892 10.9344 7.74378V11.0097H8.814C8.75164 11.0097 8.71006 10.9892 8.68928 10.9481C8.66849 10.907 8.66849 10.8454 8.68928 10.8043C8.79322 10.5989 8.85558 10.373 8.85558 10.1676C8.85558 9.38703 8.21116 8.77081 7.44201 8.77081C6.98468 8.77081 6.54814 8.99676 6.29869 9.36649L6.23632 9.44865L6.19475 9.53081C6.09081 9.73622 6.02845 9.96216 6.02845 10.1881C6.02845 10.4141 6.09081 10.64 6.19475 10.8249C6.21554 10.8659 6.21554 10.9276 6.19475 10.9686C6.17396 11.0097 6.13239 11.0303 6.07002 11.0303H3.47155V18.8357L10.9136 18.7946ZM3.3884 10.8043H5.92451C5.84136 10.5989 5.77899 10.373 5.77899 10.147C5.77899 10.0854 5.77899 10.0238 5.77899 9.96216L5.73742 10.0238L5.79978 9.90054C5.79978 9.83892 5.82057 9.7773 5.84136 9.73622L3.3884 10.8043ZM8.89715 10.8043H10.7265V7.74378C10.7265 7.7027 10.7265 7.66162 10.7473 7.6L8.41904 8.60649C8.3151 8.64757 8.19037 8.66811 8.08643 8.66811C8.6477 8.91459 9.04267 9.48973 9.04267 10.1265C9.04267 10.373 9.00109 10.5989 8.89715 10.8043ZM0.270241 3.40973L3.45077 10.5578L5.77899 9.55135C5.86214 9.51027 5.92451 9.46919 5.98687 9.40757L6.04923 9.32541L6.07002 9.24324C6.09081 9.20216 6.09081 9.16108 6.1116 9.09946C6.13238 8.91459 6.07002 8.70919 5.90372 8.58595C5.77899 8.48324 5.67505 8.36 5.61269 8.21622C5.50875 7.96973 5.50875 7.7027 5.5919 7.45622C5.69584 7.20973 5.88293 7.00432 6.13238 6.90162C6.25711 6.84 6.40263 6.81946 6.52735 6.81946C6.92232 6.81946 7.2965 7.0454 7.44201 7.41513C7.50438 7.55892 7.52516 7.72324 7.52516 7.88757C7.50438 8.09297 7.60831 8.2573 7.75383 8.38054C7.92013 8.48324 8.12801 8.50378 8.29431 8.44216L10.6225 7.43568L9.12582 4.06703C9.14661 3.98486 9.14661 3.94378 9.18818 3.9027C9.22976 3.84108 9.29212 3.84108 9.31291 3.84108C9.54158 3.86162 9.77024 3.84108 9.95733 3.73838C10.2691 3.61514 10.4978 3.36865 10.6225 3.06054C10.7473 2.75243 10.7265 2.42378 10.6018 2.11568C10.3939 1.66378 9.95733 1.37622 9.45842 1.37622C9.29212 1.37622 9.12582 1.4173 8.95952 1.47892C8.75164 1.56108 8.58534 1.70486 8.46061 1.86919C8.41904 1.93081 8.35667 1.93081 8.33589 1.93081C8.27352 1.93081 8.23195 1.88973 8.21116 1.84865L7.50438 0.267027L0.270241 3.40973ZM6.54814 7.02486C6.4442 7.02486 6.34026 7.04541 6.23632 7.08649C6.04923 7.16865 5.88293 7.33297 5.82057 7.51784C5.73742 7.72324 5.73742 7.92865 5.84136 8.11351C5.90372 8.23676 5.96608 8.33946 6.07002 8.40108C6.23632 8.52432 6.34026 8.72973 6.36105 8.91459C6.38184 8.89405 6.42341 8.87351 6.4442 8.83243L6.63129 8.60649L6.54814 8.75027C6.88074 8.52432 7.31729 8.44216 7.71225 8.50378C7.69147 8.50378 7.69147 8.48324 7.67068 8.48324C7.44201 8.31892 7.31729 8.07243 7.33807 7.80541C7.33807 7.68216 7.31729 7.55892 7.27571 7.43568C7.15098 7.20973 6.85996 7.02486 6.54814 7.02486ZM18.3764 18.3838H11.3085V16.3708C11.3085 16.0627 11.0591 15.8162 10.7473 15.8162H10.7265C10.4978 15.8162 10.2899 15.8778 10.1028 16.0011C9.93654 16.1038 9.74945 16.1654 9.54158 16.1654C9.00109 16.1654 8.56455 15.7341 8.56455 15.2C8.56455 14.6659 9.00109 14.2346 9.54158 14.2346C9.74945 14.2346 9.93654 14.2962 10.1028 14.3989C10.2899 14.5222 10.4978 14.5838 10.7265 14.5838H10.7473C11.0591 14.5838 11.3085 14.3373 11.3085 14.0292V11.4205H13.6368C13.8446 11.4205 14.0109 11.3178 14.1149 11.1535C14.2188 10.9892 14.2188 10.7838 14.1357 10.6195C14.1149 10.5784 14.0941 10.5168 14.0525 10.4757C13.9486 10.3114 13.8862 10.1265 13.8862 9.92108C13.8862 9.38703 14.3228 8.95568 14.8632 8.95568C15.4037 8.95568 15.8403 9.38703 15.8403 9.92108C15.8403 10.1265 15.7779 10.3114 15.674 10.4757C15.6324 10.5168 15.6116 10.5784 15.5908 10.6195C15.5077 10.8043 15.5077 10.9892 15.6116 11.1535C15.7155 11.3178 15.8818 11.4205 16.0897 11.4205H18.3556V18.3838H18.3764ZM11.5372 18.1784H18.1893V11.6054H16.1313C15.861 11.6054 15.6116 11.4822 15.4661 11.2357C15.3206 11.0097 15.2998 10.7427 15.4245 10.4962C15.4453 10.4346 15.4869 10.3935 15.5284 10.3319C15.6116 10.2086 15.6532 10.0649 15.6532 9.90054C15.6532 9.46919 15.2998 9.14054 14.884 9.14054C14.4683 9.14054 14.1149 9.48973 14.1149 9.90054C14.1149 10.0649 14.1565 10.2086 14.2396 10.3319C14.2812 10.3935 14.302 10.4551 14.3435 10.4962C14.4683 10.7427 14.4475 11.0097 14.302 11.2357C14.1565 11.4616 13.9278 11.6054 13.6368 11.6054H11.5372V14.0086C11.5372 14.4195 11.1838 14.7686 10.7681 14.7686H10.7473C10.477 14.7686 10.2276 14.6865 10.0197 14.5427C9.89497 14.4605 9.74945 14.4195 9.58315 14.4195C9.14661 14.4195 8.814 14.7686 8.814 15.1795C8.814 15.5903 9.1674 15.9395 9.58315 15.9395C9.74945 15.9395 9.89497 15.8984 10.0197 15.8162C10.2484 15.6724 10.477 15.5903 10.7473 15.5903H10.7681C11.1838 15.5903 11.5372 15.9395 11.5372 16.3503V18.1784ZM10.9136 18.3838H3.88731V11.4H6.02845C6.23632 11.4 6.40263 11.2973 6.50656 11.133C6.6105 10.9686 6.6105 10.7632 6.52735 10.5784C6.4442 10.4346 6.42341 10.2908 6.42341 10.1265C6.42341 9.57189 6.88074 9.14054 7.42123 9.14054C7.98249 9.14054 8.41904 9.59243 8.41904 10.1265C8.41904 10.2908 8.37746 10.4346 8.3151 10.5784C8.23195 10.7427 8.23195 10.9481 8.33589 11.133C8.43982 11.2973 8.62691 11.4 8.814 11.4H10.9136V14.0292C10.9136 14.1114 10.8512 14.173 10.7681 14.173H10.7473C10.6018 14.173 10.477 14.1319 10.3731 14.0497C10.1444 13.8854 9.87418 13.8032 9.58315 13.8032C8.814 13.8032 8.19037 14.4195 8.19037 15.1795C8.19037 15.9395 8.814 16.5557 9.58315 16.5557C9.87418 16.5557 10.1444 16.4735 10.3731 16.3092C10.4978 16.227 10.6225 16.1859 10.7473 16.1859H10.7681C10.8512 16.1859 10.9136 16.2476 10.9136 16.3297V18.3838ZM4.09519 18.1784H10.7057V16.4324C10.6225 16.4324 10.5602 16.453 10.477 16.5146C10.2068 16.6995 9.89497 16.7816 9.56236 16.7816C8.66849 16.7816 7.96171 16.0627 7.96171 15.2C7.96171 14.3168 8.68928 13.6184 9.56236 13.6184C9.89497 13.6184 10.2068 13.7211 10.477 13.8854C10.5602 13.9265 10.6225 13.9676 10.7057 13.9676V11.6259H8.814C8.54376 11.6259 8.29431 11.4822 8.1488 11.2562C8.00328 11.0303 8.00328 10.7427 8.12801 10.5168C8.19037 10.4141 8.21116 10.2908 8.21116 10.147C8.21116 9.71568 7.85777 9.36649 7.42123 9.36649C6.98468 9.36649 6.63129 9.71568 6.63129 10.147C6.63129 10.2703 6.65208 10.3935 6.71444 10.5168C6.83917 10.7632 6.83917 11.0303 6.69365 11.2562C6.54814 11.4822 6.29869 11.6259 6.02845 11.6259H4.09519V18.1784ZM18.3764 11.0097H16.1313C16.0689 11.0097 16.0274 10.9892 16.0066 10.9481C15.9858 10.907 15.965 10.8454 16.0066 10.8043C16.0274 10.7838 16.0481 10.7427 16.0689 10.7222C16.2352 10.4962 16.3184 10.2292 16.3184 9.94162C16.3184 9.18162 15.6947 8.5654 14.9256 8.5654C14.1565 8.5654 13.5328 9.18162 13.5328 9.94162C13.5328 10.2292 13.616 10.4962 13.7823 10.7222C13.8031 10.7632 13.8239 10.7838 13.8446 10.8249C13.8654 10.8659 13.8654 10.9276 13.8446 10.9686C13.8239 11.0097 13.7823 11.0303 13.7407 11.0303H11.4125V7.74378C11.4125 7.68216 11.4333 7.64108 11.4956 7.62054C11.5372 7.6 11.5996 7.6 11.6411 7.62054C11.8282 7.72324 12.0361 7.78486 12.2648 7.78486C12.9508 7.78486 13.512 7.23027 13.512 6.55243C13.512 5.87459 12.9508 5.32 12.2648 5.32C12.0361 5.32 11.8282 5.38162 11.6411 5.48432C11.5996 5.50486 11.5372 5.50486 11.4956 5.48432C11.454 5.46378 11.4125 5.4227 11.4125 5.36108V4.02595H18.4387V11.0097H18.3764ZM14.884 8.33946C15.7779 8.33946 16.4847 9.05838 16.4847 9.92108C16.4847 10.2292 16.4015 10.5373 16.2144 10.8043H18.1477V4.23135H11.558V5.25838C11.7659 5.15568 11.9737 5.11459 12.2024 5.11459C13.0131 5.11459 13.6575 5.75135 13.6575 6.55243C13.6575 7.35351 13.0131 7.99027 12.2024 7.99027C11.9737 7.99027 11.7659 7.94919 11.558 7.84649V10.8043H13.5536C13.3873 10.5373 13.2834 10.2497 13.2834 9.92108C13.2834 9.03784 14.0109 8.33946 14.884 8.33946ZM3.65864 10.0032L0.83151 3.61514L7.27571 0.821622L7.81619 2.03351C7.89934 2.21838 8.06565 2.34162 8.27352 2.36216C8.4814 2.3827 8.66849 2.30054 8.79322 2.13622C8.87637 2.01297 9.00109 1.93081 9.12582 1.86919C9.22976 1.82811 9.35449 1.80757 9.45842 1.80757C9.79103 1.80757 10.0821 1.99243 10.2276 2.30054C10.4147 2.71135 10.2276 3.20432 9.79103 3.38919C9.6663 3.45081 9.5 3.47135 9.37527 3.45081C9.1674 3.43027 8.98031 3.51243 8.85558 3.67676C8.73085 3.84108 8.71006 4.04649 8.79322 4.23135L10.1236 7.18919L8.10722 8.05189C8.08643 8.05189 8.04486 8.05189 8.02407 8.03135C7.98249 8.01081 7.96171 7.94919 7.96171 7.90811C7.98249 7.68216 7.94092 7.45622 7.83698 7.25081C7.60831 6.7373 7.10941 6.40865 6.52735 6.40865C6.34026 6.40865 6.13239 6.44973 5.96608 6.53189C5.61269 6.67568 5.34245 6.96324 5.21772 7.31243C5.07221 7.66162 5.093 8.05189 5.23851 8.38054C5.32166 8.58595 5.46718 8.77081 5.65427 8.91459C5.69584 8.95568 5.71663 8.99676 5.71663 9.03784C5.71663 9.09946 5.67505 9.14054 5.63348 9.16108L3.65864 10.0032ZM1.10175 3.71784L3.76258 9.73622L5.44639 9.0173C5.28009 8.87351 5.13457 8.68865 5.05142 8.48324C4.88512 8.09297 4.86433 7.66162 5.03063 7.25081C5.19694 6.86054 5.48796 6.53189 5.88293 6.36757C6.09081 6.28541 6.31947 6.22378 6.52735 6.22378C7.17177 6.22378 7.75383 6.59351 8.02407 7.18919C8.10722 7.39459 8.16958 7.62054 8.16958 7.84649L9.85339 7.12757L8.60613 4.33405C8.50219 4.08757 8.52298 3.8 8.68928 3.57405C8.85558 3.34811 9.12582 3.24541 9.39606 3.26595C9.5 3.28649 9.60394 3.26595 9.70788 3.22486C10.0197 3.08108 10.1652 2.73189 10.0197 2.42378C9.91576 2.19784 9.68709 2.05405 9.45842 2.05405C9.37527 2.05405 9.29212 2.07459 9.20897 2.11568C9.10503 2.15676 9.02188 2.21838 8.95952 2.32108C8.79322 2.54703 8.52298 2.64973 8.25274 2.62919C7.98249 2.60865 7.73304 2.42378 7.6291 2.1773L7.17177 1.15027L1.10175 3.71784Z" fill="#222222"/>
</svg>
