<svg width="20" height="20" viewBox="0 0 20 20" fill="none" xmlns="http://www.w3.org/2000/svg">
<path d="M8.36554 16.359C10.1393 16.3586 11.8619 15.7511 13.2591 14.6331L17.6521 19.1277L19.0651 17.682L14.6722 13.1874C15.7654 11.7577 16.3596 9.99476 16.36 8.17949C16.36 3.66952 12.7735 0 8.36554 0C3.9576 0 0.371094 3.66952 0.371094 8.17949C0.371094 12.6895 3.9576 16.359 8.36554 16.359ZM8.36554 2.04487C11.6722 2.04487 14.3614 4.79625 14.3614 8.17949C14.3614 11.5627 11.6722 14.3141 8.36554 14.3141C5.05884 14.3141 2.36971 11.5627 2.36971 8.17949C2.36971 4.79625 5.05884 2.04487 8.36554 2.04487Z" fill="#CBCBCB"/>
</svg>
