<svg width="19" height="19" viewBox="0 0 19 19" fill="none" xmlns="http://www.w3.org/2000/svg">
<g clip-path="url(#clip0_90_7272)">
<path d="M3.69172 16.2941L3.69173 16.2941L3.69388 16.2929C3.84206 16.2068 3.95888 16.1417 4.04721 16.123C4.05557 16.1213 4.0622 16.1203 4.0673 16.1197C4.06902 16.1235 4.07098 16.1282 4.07312 16.1341C4.09266 16.1898 4.09898 16.2793 4.078 16.4084C4.05749 16.5346 4.01438 16.678 3.9572 16.828C3.84651 17.1184 3.6948 17.4042 3.59219 17.5975C3.58877 17.6039 3.58542 17.6102 3.58211 17.6165C3.53159 17.71 3.47887 17.8216 3.42721 17.9309C3.40296 17.9823 3.37895 18.0331 3.3555 18.0813C3.27747 18.2419 3.19817 18.3908 3.10947 18.5122C3.02016 18.6345 2.93397 18.7111 2.84969 18.7485C2.77424 18.7819 2.6789 18.7938 2.54086 18.7432L2.54008 18.7429C2.37473 18.6829 2.29275 18.5603 2.26751 18.3772C2.24067 18.1824 2.28533 17.9397 2.37521 17.7198C2.42716 17.6 2.48222 17.4985 2.53892 17.4181L2.53901 17.418C2.85741 16.9659 3.24959 16.5449 3.69172 16.2941Z" stroke="#00A6EB" stroke-width="0.5"/>
<path d="M2.30725 6.41351L2.30725 6.41351L2.30628 6.41327C2.07525 6.35627 1.82864 6.31154 1.59077 6.2684C1.44349 6.24168 1.29956 6.21558 1.16476 6.18755L1.16476 6.18753L1.16199 6.18699C0.812123 6.11835 0.548051 6.03733 0.417507 5.84029L0.417509 5.84029L0.416883 5.83935C0.306708 5.67467 0.301593 5.52469 0.348004 5.40526C0.396595 5.28023 0.514074 5.15843 0.702443 5.0872L0.702447 5.08721L0.704496 5.08642C0.860118 5.026 1.07899 5.04393 1.34487 5.12859C1.60339 5.21089 1.86066 5.34086 2.07422 5.45023C2.54954 5.70065 2.98766 6.03182 3.35281 6.43018L3.3528 6.43019L3.35462 6.43213C3.39753 6.47796 3.4271 6.52296 3.44412 6.56064C3.45376 6.58198 3.45796 6.59765 3.45974 6.60781C3.4464 6.61311 3.42143 6.62032 3.37924 6.62379C3.22675 6.63414 3.05958 6.60937 2.87499 6.56568C2.78312 6.54393 2.69057 6.51844 2.59512 6.49172C2.58441 6.48873 2.57365 6.48571 2.56284 6.48268C2.47888 6.45914 2.39216 6.43483 2.30725 6.41351Z" stroke="#00A6EB" stroke-width="0.5"/>
<path d="M9.65397 16.9891L9.65423 16.9894C9.7292 17.0717 9.77761 17.1928 9.8449 17.3747C9.8838 17.4805 9.91155 17.5783 9.91701 17.6601C9.92234 17.7399 9.90495 17.7729 9.88958 17.7895L9.8893 17.7898C9.88388 17.7957 9.86792 17.8084 9.8258 17.8027C9.78236 17.7969 9.73731 17.7729 9.70889 17.7405C9.63537 17.6474 9.60238 17.4884 9.60805 17.2898C9.61118 17.2053 9.61566 17.114 9.62621 17.0298C9.629 17.0075 9.63204 16.9873 9.63525 16.969C9.64123 16.9753 9.64747 16.982 9.65397 16.9891L9.65397 16.9891Z" stroke="#00A6EB" stroke-width="0.5"/>
<path d="M6.41089 16.643C6.35413 16.6831 6.24952 16.6801 6.18542 16.6225C6.11114 16.5546 6.11319 16.5096 6.11646 16.4896C6.12192 16.4562 6.14917 16.4072 6.20768 16.3664C6.26593 16.3259 6.32699 16.3135 6.36845 16.32C6.39712 16.3245 6.43751 16.3398 6.47275 16.4168C6.50502 16.4901 6.47313 16.599 6.41089 16.643Z" stroke="#00A6EB" stroke-width="0.5"/>
<path d="M17.5153 3.61486C17.649 3.53083 17.7979 3.47648 17.9514 3.45851C18.0707 3.44624 18.1291 3.45663 18.1606 3.4759L18.1606 3.47597L18.166 3.47911C18.18 3.48717 18.1927 3.50099 18.1992 3.51447C18.2012 3.51845 18.2021 3.52122 18.2025 3.52289L18.2019 3.525C18.1996 3.52733 18.1946 3.53158 18.1846 3.53756C18.1564 3.5545 18.1124 3.57028 18.0521 3.58465C17.8766 3.62284 17.6931 3.63288 17.5153 3.61486ZM18.2028 3.52413C18.2027 3.5242 18.2026 3.52427 18.2026 3.52434C18.2026 3.52423 18.2027 3.52413 18.2027 3.52404C18.2027 3.52407 18.2028 3.5241 18.2028 3.52413ZM18.2028 3.52412C18.2028 3.52408 18.2028 3.52403 18.2028 3.52399C18.2032 3.52325 18.2035 3.5229 18.2036 3.5229C18.2037 3.52291 18.2035 3.52332 18.2028 3.52412ZM18.2028 3.52482C18.2028 3.52482 18.2028 3.52461 18.2028 3.5242C18.2028 3.52462 18.2028 3.52482 18.2028 3.52482Z" stroke="#00A6EB" stroke-width="0.5"/>
<path d="M15.7537 5.57897L15.7537 5.57897L15.7546 5.57807C15.9246 5.39513 16.0741 5.26995 16.2776 5.16128L16.2776 5.16129L16.2792 5.16043C16.599 4.98671 17.0729 5.08297 17.2862 5.377C17.4823 5.64746 17.4129 6.00263 17.1571 6.2605C17.1077 6.3059 17.0563 6.34803 17.0026 6.38358L17.0026 6.38357L17.0011 6.38455C16.6457 6.62337 16.1831 6.70536 15.7096 6.75793C15.5744 6.77163 15.4517 6.78028 15.3567 6.75919C15.3132 6.74952 15.2896 6.73625 15.277 6.72553C15.2674 6.71738 15.2542 6.70272 15.2452 6.66562C15.216 6.54157 15.2585 6.35014 15.3743 6.12237C15.4851 5.90474 15.6384 5.70183 15.7537 5.57897Z" stroke="#00A6EB" stroke-width="0.5"/>
<path d="M11.3817 3.20323C11.445 3.47297 11.5399 3.69665 11.7044 3.7427C12.084 3.86112 12.2232 3.09139 12.2675 2.84139C12.3687 2.34139 12.4509 1.23612 11.6095 1.43349C11.2425 1.51902 11.2362 1.92691 11.2678 2.2427C11.2804 2.43349 11.2994 2.85454 11.3817 3.20323Z" fill="#00A6EB"/>
<path d="M7.54253 2.8308C7.54077 2.83007 7.53904 2.82936 7.53734 2.82868C7.53365 2.8272 7.53015 2.82588 7.5272 2.82481L7.52276 2.8225L7.50803 2.81705C7.21311 2.70807 6.9124 2.37628 6.68988 1.93627C6.46982 1.5011 6.36035 1.02669 6.39211 0.701132C6.40972 0.525019 6.46708 0.425971 6.52547 0.369835C6.5844 0.313181 6.66711 0.278373 6.77486 0.272386C7.00075 0.259835 7.28983 0.379571 7.48387 0.588939C7.56111 0.674236 7.67712 0.889098 7.78442 1.1886C7.88865 1.47956 7.97256 1.81632 8.00219 2.11946C8.03318 2.43655 7.99903 2.66134 7.92641 2.77489C7.89655 2.82159 7.86276 2.84602 7.81746 2.85778C7.76719 2.87084 7.68083 2.87345 7.54253 2.8308Z" stroke="#00A6EB" stroke-width="0.5"/>
<path d="M1.21974 11.8474L1.2197 11.8472L1.20943 11.8498C1.06782 11.8867 0.918057 11.8928 0.763694 11.8706L0.763697 11.8706L0.760424 11.8702C0.735691 11.867 0.715771 11.8617 0.67689 11.8515C0.670305 11.8497 0.663177 11.8479 0.655389 11.8458C0.650036 11.8439 0.645658 11.8424 0.641502 11.8408C0.635939 11.8388 0.632376 11.8373 0.63005 11.8363L0.627366 11.834L0.619252 11.8283C0.617101 11.8268 0.615135 11.8254 0.61334 11.824C0.61824 11.8186 0.6247 11.8123 0.633102 11.8053C0.822478 11.6533 1.09662 11.5918 1.39254 11.5918C1.46312 11.5918 1.51246 11.5979 1.5494 11.6103C1.55105 11.611 1.55234 11.6115 1.55331 11.612C1.55428 11.6179 1.55518 11.6342 1.54438 11.6597C1.50669 11.7375 1.38424 11.812 1.21974 11.8474Z" stroke="#00A6EB" stroke-width="0.5"/>
<path d="M14.8604 12.0797L14.8678 12.0819L14.8753 12.0836C14.9295 12.0961 14.9894 12.1328 15.0295 12.1861C15.0656 12.2432 15.0697 12.3009 15.0605 12.3295L15.0604 12.3295L15.0583 12.3365C15.0489 12.3693 15.0058 12.4086 14.9652 12.415C14.9195 12.4211 14.8595 12.4023 14.8115 12.3545C14.7743 12.3106 14.7454 12.2387 14.7442 12.1725C14.7431 12.1125 14.7622 12.0897 14.7825 12.0775C14.7857 12.0759 14.793 12.0731 14.8064 12.0724C14.8214 12.0716 14.8402 12.0737 14.8604 12.0797Z" stroke="#00A6EB" stroke-width="0.5"/>
<path d="M13.2296 16.5776L13.2296 16.5775L13.2287 16.5745C13.2156 16.5291 13.1868 16.4514 13.1554 16.3665C13.1449 16.3381 13.1341 16.309 13.1234 16.28C13.0775 16.1544 13.0262 16.0085 12.9852 15.8658C12.9452 15.7268 12.9192 15.6046 12.9133 15.5137C12.9644 15.5423 13.03 15.5897 13.1092 15.6594C13.3071 15.834 13.54 16.104 13.7712 16.4072C14.0005 16.708 14.2207 17.0316 14.3934 17.3058C14.5707 17.5874 14.6854 17.7974 14.7165 17.8783L14.7165 17.8783L14.7172 17.8801C14.8271 18.1593 14.7503 18.3935 14.6302 18.5082C14.5707 18.565 14.4988 18.596 14.4205 18.5979C14.3427 18.5999 14.2389 18.5734 14.1178 18.4805C14.0171 18.3988 13.928 18.3103 13.8568 18.2098L13.8569 18.2097L13.854 18.2059C13.5646 17.8136 13.417 17.2686 13.2744 16.7424C13.2595 16.6872 13.2446 16.6322 13.2296 16.5776ZM12.8376 15.4823C12.8376 15.4823 12.8383 15.4823 12.8399 15.4825L12.8376 15.4823Z" stroke="#00A6EB" stroke-width="0.5"/>
<path d="M18.5977 12.4556L18.5976 12.4556L18.6037 12.4599C18.6944 12.5239 18.7363 12.6436 18.7045 12.7495L18.7043 12.7494L18.7018 12.7593C18.6729 12.872 18.5771 12.9595 18.4881 12.978L18.4881 12.9779L18.4834 12.979C18.4279 12.9917 18.3687 12.9831 18.2844 12.9433C18.2198 12.9127 18.1641 12.8768 18.0958 12.8328C18.0688 12.8154 18.0399 12.7968 18.0076 12.7767L17.9995 12.7682L17.9701 12.7509C17.7359 12.6127 17.5043 12.4759 17.2729 12.3329C17.194 12.2834 17.0809 12.2318 16.9764 12.1841C16.9674 12.18 16.9584 12.1759 16.9496 12.1718C16.8284 12.1164 16.7045 12.0588 16.5934 11.9947C16.4798 11.9292 16.3989 11.8674 16.3525 11.8117C16.3108 11.7616 16.3128 11.7375 16.316 11.722L16.3162 11.7213C16.3168 11.7185 16.3174 11.7161 16.3179 11.7141C16.3459 11.7081 16.4056 11.7086 16.5047 11.7329C16.6027 11.7568 16.7096 11.7963 16.8136 11.8382C16.8404 11.849 16.8687 11.8607 16.8973 11.8725C16.9671 11.9014 17.0378 11.9306 17.0877 11.947C17.3557 12.0355 17.6257 12.1187 17.8929 12.201C18.024 12.2414 18.1544 12.2816 18.2835 12.322C18.3037 12.329 18.3227 12.3355 18.3407 12.3416C18.4589 12.382 18.5338 12.4076 18.5977 12.4556Z" stroke="#00A6EB" stroke-width="0.5"/>
<mask id="path-13-inside-1_90_7272" fill="white">
<path d="M17.2844 9.19146C16.9175 8.42831 16.1709 8.14541 15.4686 7.84278C14.9181 7.60594 14.3487 7.31646 14.026 6.79015C13.6464 6.16515 13.7223 5.32962 14.0134 4.65199C14.3044 3.97436 14.7726 3.40199 15.1902 2.79673C15.5825 2.23094 15.9178 1.40857 15.399 0.901992C15.108 0.619097 14.6651 0.586202 14.3171 0.78357C13.6148 1.17831 13.4313 1.97436 13.2858 2.71778C13.1403 3.45462 12.9884 4.23752 12.3241 4.67173C12.0077 4.88225 11.5965 4.90857 11.2801 4.69804C10.7929 4.37568 10.8372 3.75725 10.7613 3.21778C10.698 2.75068 10.3754 2.20462 9.92613 2.28357C9.50855 2.35594 9.3567 2.90199 9.3567 3.34278C9.36303 3.67173 9.38834 4.02699 9.28711 4.32304C9.24914 4.42831 9.19853 4.52041 9.1226 4.60594C8.74931 5.02699 8.05967 4.82962 7.62943 4.46778C7.09796 4.02041 6.70569 3.35594 5.94645 3.30989C5.50356 3.28357 5.06699 3.48752 4.79493 3.84936C4.061 4.84278 4.88984 6.34936 4.23815 7.34936C3.89017 7.87568 3.23849 8.07304 2.63742 8.17173C1.87818 8.29673 1.05567 8.34278 0.517875 9.03357C0.283775 9.3362 0.214178 9.75068 0.372353 10.0994C0.625434 10.6717 1.27079 10.7112 1.7896 10.573C2.23249 10.4546 2.65008 10.2244 3.09929 10.1915C3.68138 10.1454 4.39 10.5599 4.11794 11.3165C4.02936 11.5599 3.85221 11.7638 3.63709 11.8954L1.90982 12.9415C1.54918 13.1586 1.18221 13.3888 0.960765 13.7507C0.688704 14.198 0.720339 14.902 1.2961 15.0796C1.56183 15.1586 1.84022 15.0862 2.06166 14.9217C2.52354 14.573 2.67538 14.0073 2.87785 13.4809C3.055 13.0204 3.30808 12.5467 3.7573 12.3625C4.18121 12.198 4.67472 12.3494 4.94045 12.7309C5.23782 13.1586 5.1619 13.7375 4.91514 14.1783C4.80759 14.3691 4.67472 14.5401 4.5292 14.7046C4.14325 15.1257 4.59247 15.8099 5.09863 15.5599C5.10495 15.5599 5.10495 15.5533 5.11128 15.5533C5.66806 15.2638 5.82623 14.3165 6.44628 14.2836C6.91448 14.2573 7.21817 14.8033 7.25614 15.2901C7.30043 15.9217 7.07265 16.5796 7.50289 17.1586C7.68637 17.4086 8.02803 17.4941 8.28744 17.3296C8.78095 17.0204 8.43929 16.2441 8.74931 15.7901C8.87585 15.6059 9.09097 15.5073 9.29343 15.4217C9.29976 15.4217 9.30609 15.4151 9.30609 15.4151C9.79327 15.2046 10.3627 15.402 10.6158 15.8823C10.736 16.1191 10.9068 16.3165 11.1599 16.4546C11.4509 16.6059 11.8116 16.5401 12.0077 16.2704C12.4633 15.6257 11.4256 14.7375 11.8685 14.1125C11.9824 13.948 12.1722 13.8625 12.3684 13.8625C12.7417 13.8625 13.039 14.1059 13.2731 14.3823C13.7223 14.9086 14.0007 15.5796 14.5006 16.0599C15.0004 16.5336 15.8609 16.7375 16.3164 16.2178C16.7593 15.7112 16.5252 14.8691 16.076 14.3757C15.6268 13.8757 15.013 13.5665 14.5638 13.0665C14.1146 12.5665 13.8805 11.7244 14.3234 11.2244C15.0257 10.4283 16.5695 11.2901 17.2148 10.3691C17.4489 10.0138 17.4616 9.56646 17.2844 9.19146ZM11.1472 11.0204C11.0523 11.1191 10.9891 11.4546 10.9005 11.5928C10.8119 11.7309 10.6095 11.9678 10.2994 12.2112C10.2045 12.3888 10.2931 12.902 10.3184 13.0665C10.35 13.2309 10.3311 13.3559 10.2298 13.3954C10.1286 13.4349 9.93246 13.3099 9.93246 13.1915C9.93246 13.073 10.0653 12.6915 10.1286 12.4546C10.1919 12.2112 10.2045 12.2704 10.0021 12.3954C9.79959 12.527 9.70469 12.7112 9.53386 12.7836C9.36303 12.8625 9.00239 13.1191 9.00239 13.1191C9.00239 13.1191 9.00239 13.8099 8.97708 14.0533C8.95177 14.2967 9.02137 14.7046 8.86952 14.7638C8.61644 14.7901 8.54052 14.6191 8.61012 14.2309C8.68604 13.8428 8.79993 13.2178 8.79993 13.2178L8.46459 13.2441C8.49623 13.4217 8.51521 13.8296 8.35704 13.8625C7.99007 13.8625 8.33173 13.2507 8.33173 13.2507C8.33173 13.2507 8.12926 13.1717 7.77495 12.8888C7.77495 12.8888 7.78128 13.2507 7.64841 13.2901C7.41431 13.2967 7.389 13.1388 7.55983 12.652C7.34472 12.2244 7.8572 11.9744 8.04069 11.8823C8.22417 11.7901 8.73033 11.448 9.05933 11.2638C9.38834 11.0796 9.62876 10.8823 9.81857 10.6849C10.0084 10.4875 9.83755 10.2244 9.7553 10.152C9.67305 10.0796 9.40732 10.0862 8.98341 10.0401C8.5595 9.9941 7.98374 9.68489 7.55983 9.16515C7.46493 9.11252 7.51554 9.75068 7.54718 9.92173C7.57881 10.0862 7.48391 10.323 7.32573 10.3757C7.17389 10.4283 7.11694 10.1059 7.16123 9.88883C7.20552 9.67173 7.34472 9.47436 7.389 9.32304C7.43329 9.17173 7.35104 8.69147 7.33206 8.59278C7.31308 8.4941 7.14858 8.47436 7.1296 8.25068C7.11062 8.02041 7.34472 7.82304 7.43329 7.67173C7.52187 7.52699 7.64841 7.07304 7.95211 6.84936C8.2558 6.62568 9.1226 6.05331 9.41997 5.93489C9.71734 5.81646 10.2551 5.80331 10.407 5.8362C10.5652 5.8691 10.8625 6.32304 10.9385 6.40857C10.9385 6.40857 11.1472 6.79673 11.1409 6.98094C11.1346 7.16515 10.6727 7.22436 10.6727 7.22436H10.6664C10.5715 7.40199 10.6601 7.91515 10.6854 8.07962C10.717 8.2441 10.698 8.3691 10.5968 8.40857C10.4956 8.44804 10.2994 8.32304 10.2994 8.20462C10.2994 8.09278 10.426 7.73094 10.4892 7.48752C10.4956 7.47436 10.4956 7.45462 10.4956 7.44146C10.4956 7.32962 10.4007 7.2441 10.2994 7.26383C10.1413 7.29015 9.94512 7.32304 9.87552 7.36252C9.76796 7.41515 9.65407 7.48752 9.45161 7.50068C9.24914 7.51383 8.82523 7.94146 8.82523 7.94146C8.83156 8.10594 8.69869 8.34278 8.69869 8.34278C8.69869 8.34278 8.87585 8.51383 9.20485 8.55989C9.53386 8.60594 9.78061 8.6191 10.4513 8.8362C11.2548 9.0862 11.356 10.2112 11.3434 10.323C11.3624 10.4283 11.2422 10.9217 11.1472 11.0204Z"/>
</mask>
<path d="M17.2844 9.19146C16.9175 8.42831 16.1709 8.14541 15.4686 7.84278C14.9181 7.60594 14.3487 7.31646 14.026 6.79015C13.6464 6.16515 13.7223 5.32962 14.0134 4.65199C14.3044 3.97436 14.7726 3.40199 15.1902 2.79673C15.5825 2.23094 15.9178 1.40857 15.399 0.901992C15.108 0.619097 14.6651 0.586202 14.3171 0.78357C13.6148 1.17831 13.4313 1.97436 13.2858 2.71778C13.1403 3.45462 12.9884 4.23752 12.3241 4.67173C12.0077 4.88225 11.5965 4.90857 11.2801 4.69804C10.7929 4.37568 10.8372 3.75725 10.7613 3.21778C10.698 2.75068 10.3754 2.20462 9.92613 2.28357C9.50855 2.35594 9.3567 2.90199 9.3567 3.34278C9.36303 3.67173 9.38834 4.02699 9.28711 4.32304C9.24914 4.42831 9.19853 4.52041 9.1226 4.60594C8.74931 5.02699 8.05967 4.82962 7.62943 4.46778C7.09796 4.02041 6.70569 3.35594 5.94645 3.30989C5.50356 3.28357 5.06699 3.48752 4.79493 3.84936C4.061 4.84278 4.88984 6.34936 4.23815 7.34936C3.89017 7.87568 3.23849 8.07304 2.63742 8.17173C1.87818 8.29673 1.05567 8.34278 0.517875 9.03357C0.283775 9.3362 0.214178 9.75068 0.372353 10.0994C0.625434 10.6717 1.27079 10.7112 1.7896 10.573C2.23249 10.4546 2.65008 10.2244 3.09929 10.1915C3.68138 10.1454 4.39 10.5599 4.11794 11.3165C4.02936 11.5599 3.85221 11.7638 3.63709 11.8954L1.90982 12.9415C1.54918 13.1586 1.18221 13.3888 0.960765 13.7507C0.688704 14.198 0.720339 14.902 1.2961 15.0796C1.56183 15.1586 1.84022 15.0862 2.06166 14.9217C2.52354 14.573 2.67538 14.0073 2.87785 13.4809C3.055 13.0204 3.30808 12.5467 3.7573 12.3625C4.18121 12.198 4.67472 12.3494 4.94045 12.7309C5.23782 13.1586 5.1619 13.7375 4.91514 14.1783C4.80759 14.3691 4.67472 14.5401 4.5292 14.7046C4.14325 15.1257 4.59247 15.8099 5.09863 15.5599C5.10495 15.5599 5.10495 15.5533 5.11128 15.5533C5.66806 15.2638 5.82623 14.3165 6.44628 14.2836C6.91448 14.2573 7.21817 14.8033 7.25614 15.2901C7.30043 15.9217 7.07265 16.5796 7.50289 17.1586C7.68637 17.4086 8.02803 17.4941 8.28744 17.3296C8.78095 17.0204 8.43929 16.2441 8.74931 15.7901C8.87585 15.6059 9.09097 15.5073 9.29343 15.4217C9.29976 15.4217 9.30609 15.4151 9.30609 15.4151C9.79327 15.2046 10.3627 15.402 10.6158 15.8823C10.736 16.1191 10.9068 16.3165 11.1599 16.4546C11.4509 16.6059 11.8116 16.5401 12.0077 16.2704C12.4633 15.6257 11.4256 14.7375 11.8685 14.1125C11.9824 13.948 12.1722 13.8625 12.3684 13.8625C12.7417 13.8625 13.039 14.1059 13.2731 14.3823C13.7223 14.9086 14.0007 15.5796 14.5006 16.0599C15.0004 16.5336 15.8609 16.7375 16.3164 16.2178C16.7593 15.7112 16.5252 14.8691 16.076 14.3757C15.6268 13.8757 15.013 13.5665 14.5638 13.0665C14.1146 12.5665 13.8805 11.7244 14.3234 11.2244C15.0257 10.4283 16.5695 11.2901 17.2148 10.3691C17.4489 10.0138 17.4616 9.56646 17.2844 9.19146ZM11.1472 11.0204C11.0523 11.1191 10.9891 11.4546 10.9005 11.5928C10.8119 11.7309 10.6095 11.9678 10.2994 12.2112C10.2045 12.3888 10.2931 12.902 10.3184 13.0665C10.35 13.2309 10.3311 13.3559 10.2298 13.3954C10.1286 13.4349 9.93246 13.3099 9.93246 13.1915C9.93246 13.073 10.0653 12.6915 10.1286 12.4546C10.1919 12.2112 10.2045 12.2704 10.0021 12.3954C9.79959 12.527 9.70469 12.7112 9.53386 12.7836C9.36303 12.8625 9.00239 13.1191 9.00239 13.1191C9.00239 13.1191 9.00239 13.8099 8.97708 14.0533C8.95177 14.2967 9.02137 14.7046 8.86952 14.7638C8.61644 14.7901 8.54052 14.6191 8.61012 14.2309C8.68604 13.8428 8.79993 13.2178 8.79993 13.2178L8.46459 13.2441C8.49623 13.4217 8.51521 13.8296 8.35704 13.8625C7.99007 13.8625 8.33173 13.2507 8.33173 13.2507C8.33173 13.2507 8.12926 13.1717 7.77495 12.8888C7.77495 12.8888 7.78128 13.2507 7.64841 13.2901C7.41431 13.2967 7.389 13.1388 7.55983 12.652C7.34472 12.2244 7.8572 11.9744 8.04069 11.8823C8.22417 11.7901 8.73033 11.448 9.05933 11.2638C9.38834 11.0796 9.62876 10.8823 9.81857 10.6849C10.0084 10.4875 9.83755 10.2244 9.7553 10.152C9.67305 10.0796 9.40732 10.0862 8.98341 10.0401C8.5595 9.9941 7.98374 9.68489 7.55983 9.16515C7.46493 9.11252 7.51554 9.75068 7.54718 9.92173C7.57881 10.0862 7.48391 10.323 7.32573 10.3757C7.17389 10.4283 7.11694 10.1059 7.16123 9.88883C7.20552 9.67173 7.34472 9.47436 7.389 9.32304C7.43329 9.17173 7.35104 8.69147 7.33206 8.59278C7.31308 8.4941 7.14858 8.47436 7.1296 8.25068C7.11062 8.02041 7.34472 7.82304 7.43329 7.67173C7.52187 7.52699 7.64841 7.07304 7.95211 6.84936C8.2558 6.62568 9.1226 6.05331 9.41997 5.93489C9.71734 5.81646 10.2551 5.80331 10.407 5.8362C10.5652 5.8691 10.8625 6.32304 10.9385 6.40857C10.9385 6.40857 11.1472 6.79673 11.1409 6.98094C11.1346 7.16515 10.6727 7.22436 10.6727 7.22436H10.6664C10.5715 7.40199 10.6601 7.91515 10.6854 8.07962C10.717 8.2441 10.698 8.3691 10.5968 8.40857C10.4956 8.44804 10.2994 8.32304 10.2994 8.20462C10.2994 8.09278 10.426 7.73094 10.4892 7.48752C10.4956 7.47436 10.4956 7.45462 10.4956 7.44146C10.4956 7.32962 10.4007 7.2441 10.2994 7.26383C10.1413 7.29015 9.94512 7.32304 9.87552 7.36252C9.76796 7.41515 9.65407 7.48752 9.45161 7.50068C9.24914 7.51383 8.82523 7.94146 8.82523 7.94146C8.83156 8.10594 8.69869 8.34278 8.69869 8.34278C8.69869 8.34278 8.87585 8.51383 9.20485 8.55989C9.53386 8.60594 9.78061 8.6191 10.4513 8.8362C11.2548 9.0862 11.356 10.2112 11.3434 10.323C11.3624 10.4283 11.2422 10.9217 11.1472 11.0204Z" stroke="#00A6EB" stroke-width="1.4" mask="url(#path-13-inside-1_90_7272)"/>
</g>
<defs>
<clipPath id="clip0_90_7272">
<rect width="19" height="19" fill="white"/>
</clipPath>
</defs>
</svg>
